<svg xmlns="http://www.w3.org/2000/svg" width="357" height="402" fill="none" viewBox="0 0 357 402"><path fill="#FFE89C" d="M313.114 263.783L328.086 225.337C332.13 211.053 338.826 192.327 339.649 189.94C339.818 189.454 340.479 187.593 340.307 185.15C340.253 184.326 340.002 181.41 337.862 178.74C336.529 177.075 335.013 176.314 332 174.817C327.349 172.497 323.618 171.773 321.296 171.508C319.299 171.273 318.281 171.165 317.237 171.561C314.339 172.67 312.566 176.438 313.114 179.637C313.653 182.866 316.457 184.939 318.838 186.722C321.092 188.414 321.497 188.013 322.346 188.941C324.977 191.807 313.913 220.476 310.145 232.172"/><path stroke="#303131" stroke-linecap="round" stroke-linejoin="round" stroke-width="7.351" d="M313.114 263.783L328.086 225.337C332.13 211.053 338.826 192.327 339.649 189.94C339.818 189.454 340.479 187.593 340.307 185.15C340.253 184.326 340.002 181.41 337.862 178.74C336.529 177.075 335.013 176.314 332 174.817C327.349 172.497 323.618 171.773 321.296 171.508C319.299 171.273 318.281 171.165 317.237 171.561C314.339 172.67 312.566 176.438 313.114 179.637C313.653 182.866 316.457 184.939 318.838 186.722C321.092 188.414 321.497 188.013 322.346 188.941C324.977 191.807 313.913 220.476 310.145 232.172"/><path fill="#FFE89C" d="M212.011 283.481C212.077 335.358 212.055 372.752 211.663 378.872C211.619 379.591 211.402 382.269 212.643 385.449C213.057 386.516 214.581 390.306 218.698 393.115C221.267 394.879 223.728 395.358 228.607 396.317C236.164 397.798 241.739 397.471 245.159 397.035C248.099 396.665 249.58 396.447 250.908 395.554C254.589 393.093 255.613 387.496 253.544 383.424C251.475 379.329 246.661 377.522 242.567 375.997C238.669 374.538 238.255 375.213 236.665 374.255C231.765 371.358 233.311 363.627 233.986 346.814C234.16 342.567 233.856 348.164 234.378 325.231C234.596 315.365 234.727 310.356 234.879 306.653C235.14 301.013 235.598 293.042 236.556 283.35"/><path stroke="#303131" stroke-linecap="round" stroke-linejoin="round" stroke-width="7.351" d="M212.011 283.481C212.077 335.358 212.055 372.752 211.663 378.872C211.619 379.591 211.402 382.269 212.643 385.449C213.057 386.516 214.581 390.306 218.698 393.115C221.267 394.879 223.728 395.358 228.607 396.317C236.164 397.798 241.739 397.471 245.159 397.035C248.099 396.665 249.58 396.447 250.908 395.554C254.589 393.093 255.613 387.496 253.544 383.424C251.475 379.329 246.661 377.522 242.567 375.997C238.669 374.538 238.255 375.213 236.665 374.255C231.765 371.358 233.311 363.627 233.986 346.814C234.16 342.567 233.856 348.164 234.378 325.231C234.596 315.365 234.727 310.356 234.879 306.653C235.14 301.013 235.598 293.042 236.556 283.35"/><path fill="#FFE89C" d="M199.99 283.481C199.925 335.358 199.947 372.752 200.339 378.872C200.382 379.591 200.6 382.269 199.359 385.449C198.945 386.516 197.42 390.306 193.304 393.115C190.734 394.879 188.273 395.358 183.395 396.317C175.838 397.798 170.262 397.471 166.843 397.035C163.903 396.665 162.422 396.447 161.093 395.554C157.413 393.093 156.389 387.496 158.458 383.424C160.527 379.329 165.34 377.522 169.435 375.997C173.333 374.538 173.747 375.213 175.337 374.255C180.237 371.358 178.691 363.627 178.015 346.814C177.841 342.567 178.146 348.164 177.623 325.231C177.406 315.365 177.275 310.356 177.123 306.653C176.861 301.013 176.404 293.042 175.446 283.35"/><path stroke="#303131" stroke-linecap="round" stroke-linejoin="round" stroke-width="7.351" d="M199.99 283.481C199.925 335.358 199.947 372.752 200.339 378.872C200.382 379.591 200.6 382.269 199.359 385.449C198.945 386.516 197.42 390.306 193.304 393.115C190.734 394.879 188.273 395.358 183.395 396.317C175.838 397.798 170.262 397.471 166.843 397.035C163.903 396.665 162.422 396.447 161.093 395.554C157.413 393.093 156.389 387.496 158.458 383.424C160.527 379.329 165.34 377.522 169.435 375.997C173.333 374.538 173.747 375.213 175.337 374.255C180.237 371.358 178.691 363.627 178.015 346.814C177.841 342.567 178.146 348.164 177.623 325.231C177.406 315.365 177.275 310.356 177.123 306.653C176.861 301.013 176.404 293.042 175.446 283.35"/><path fill="#A37B2C" stroke="#303131" stroke-linecap="round" stroke-linejoin="round" stroke-width="7.351" d="M198.051 346.29C130.429 346.29 75.6104 294.543 75.6104 230.71C75.6104 166.877 130.429 115.13 198.051 115.13C265.673 115.13 320.491 166.877 320.491 230.71C320.491 294.543 265.673 346.29 198.051 346.29Z"/><path fill="#FFD13C" stroke="#303131" stroke-linecap="round" stroke-linejoin="round" stroke-width="7.351" d="M204.018 346.464C141.003 346.464 89.9189 294.717 89.9189 230.884C89.9189 167.051 141.003 115.304 204.018 115.304C267.033 115.304 318.117 167.051 318.117 230.884C318.117 294.717 267.033 346.464 204.018 346.464Z"/><path stroke="#303131" stroke-linecap="round" stroke-linejoin="round" stroke-width="7.351" d="M101.223 181.142L94.1668 177.984"/><path stroke="#303131" stroke-linecap="round" stroke-linejoin="round" stroke-width="7.351" d="M91.4648 196.583L82.492 192.598"/><path stroke="#303131" stroke-linecap="round" stroke-linejoin="round" stroke-width="7.351" d="M89.0703 215.008L79.9014 210.935"/><path stroke="#303131" stroke-linecap="round" stroke-linejoin="round" stroke-width="7.351" d="M88.9829 231.757L77.3748 228.578"/><path stroke="#303131" stroke-linecap="round" stroke-linejoin="round" stroke-width="7.351" d="M90.8994 249.2L77.1352 245.433"/><path fill="#A37B2C" d="M312.616 254.819C311.709 254.446 308.968 260.844 300.205 274.588C294.304 283.852 289.088 291.211 285.529 296.087L286.34 294.99C282.092 300.174 276.432 306.193 269.051 312.171C262.197 317.714 255.604 321.823 249.98 324.846C245.827 327.448 242.178 329.422 239.395 330.852C229.558 335.808 220.505 338.777 216.942 339.741C216.248 339.931 214.75 340.364 211.774 341.238C208.181 342.283 207.161 342.611 207.191 342.783C207.24 343.033 209.761 342.782 210.934 342.672C222.673 341.501 221.842 342.267 228.307 341.283C233.084 340.548 236.799 339.615 240 338.823C242.19 338.268 245.391 337.475 247.898 336.618C253.689 334.674 257.808 331.781 263.555 327.321C272.102 320.675 276.883 317.164 283.009 310.942C286.905 306.997 293.336 300.377 299.291 290.9C310.055 273.779 314.109 255.495 312.642 254.875L312.616 254.819Z"/><path stroke="#303131" stroke-linecap="round" stroke-linejoin="round" stroke-width="7.351" d="M93.8608 267.43L82.1003 264.228"/><path fill="#A88E3F" stroke="#303131" stroke-linecap="round" stroke-linejoin="round" stroke-width="7.351" d="M210.682 281.367C225.274 289.73 244.135 283.763 248.294 270.565C248.839 268.823 248.142 266.819 248.011 264.924C246.966 265.12 245.855 265.229 244.766 265.382C243.263 265.599 242.196 266.057 241.761 266.209C237.449 267.647 233.441 268.953 230.523 267.385C230.174 267.189 230.566 267.364 227.735 264.619C225.187 262.158 223.815 261.135 221.898 260.699C221.528 260.612 221.158 260.612 220.744 260.612C217.891 260.612 217.39 263.073 212.882 264.01C211.837 264.227 210.094 264.598 208.004 264.14C204.345 263.334 203.909 260.939 201.187 260.677C200.991 260.677 200.773 260.612 200.446 260.59C198.334 260.59 196.896 261.897 194.74 263.618C192.715 265.229 191.691 266.057 191.103 266.318C187.009 268.235 181.216 266.253 178.21 265.207C176.424 264.598 174.9 263.748 173.963 264.663C172.961 265.621 172.417 267.429 172.657 268.736C175.118 281.52 193.455 289.186 207.024 283.175C208.308 282.609 209.506 281.934 210.661 281.346L210.682 281.367Z"/><path stroke="#303131" stroke-linecap="round" stroke-linejoin="round" stroke-width="7.351" d="M277.631 205.47C272.861 203.706 266.415 201.55 255.482 201.55C244.549 201.55 237.885 203.967 233.115 205.84"/><path stroke="#303131" stroke-linecap="round" stroke-linejoin="round" stroke-width="7.351" d="M204.018 346.464C141.003 346.464 89.9189 294.717 89.9189 230.884C89.9189 167.051 141.003 115.304 204.018 115.304C267.033 115.304 318.117 167.051 318.117 230.884C318.117 294.717 267.033 346.464 204.018 346.464Z"/><path stroke="#303131" stroke-linecap="round" stroke-linejoin="round" stroke-width="7.351" d="M212.055 238.529C212.643 238.812 213.645 239.422 214.385 240.555C215.932 242.907 215.779 246.609 213.71 248.504C212.839 249.31 211.816 249.593 211.119 249.702"/><path stroke="#303131" stroke-linecap="round" stroke-linejoin="round" stroke-width="7.351" d="M320.6 215.335C320.54 215.335 320.491 215.286 320.491 215.226C320.491 215.166 320.54 215.117 320.6 215.117C320.66 215.117 320.709 215.166 320.709 215.226C320.709 215.286 320.66 215.335 320.6 215.335Z"/><path stroke="#303131" stroke-linecap="round" stroke-linejoin="round" stroke-width="7.351" d="M254.981 253.512C244.601 253.512 236.186 244.98 236.186 234.456C236.186 223.931 244.601 215.399 254.981 215.399C265.362 215.399 273.776 223.931 273.776 234.456C273.776 244.98 265.362 253.512 254.981 253.512Z"/><path stroke="#303131" stroke-linecap="round" stroke-linejoin="round" stroke-width="7.351" d="M200.433 206.264C195.663 204.5 187.953 202.278 178.284 202.344C168.461 202.409 160.686 204.761 155.917 206.634"/><path fill="#A37B2C" d="M78.2306 297.163C78.0128 297.207 77.8168 297.272 77.599 297.337L9.27888 319.595C5.18446 320.924 2.89767 325.432 4.22618 329.57C5.55469 333.73 9.97576 336.038 14.0702 334.688L82.3903 312.43C82.3903 312.43 82.4992 312.386 82.5645 312.365L79.8422 313.258C86.4847 311.014 92.2343 309.011 96.6989 307.334C99.3124 306.354 106.891 303.501 112.881 307.007C118.26 310.165 121.701 318.049 119.763 323.755C118.195 328.372 113.142 331.29 104.822 336.147C99.8569 339.022 96.8514 340.089 96.0238 343.203C95.2833 345.969 96.5029 349.497 98.7897 351.305C104.365 355.726 115.712 349.454 120.612 345.948C123.465 343.9 132.111 337.693 134.594 326.085C137.36 313.192 131.262 299.515 122.18 293.373C110.507 285.468 95.3051 290.912 75.0508 298.143"/><path stroke="#303131" stroke-linecap="round" stroke-linejoin="round" stroke-width="7.351" d="M78.2306 297.163C78.0128 297.207 77.8168 297.272 77.599 297.337L9.27888 319.595C5.18447 320.924 2.89768 325.432 4.22618 329.57C5.55469 333.73 9.97576 336.038 14.0702 334.688L82.3903 312.43C82.3903 312.43 82.4992 312.386 82.5645 312.365L79.8422 313.258C86.4847 311.014 92.2343 309.011 96.6989 307.334C99.3124 306.354 106.891 303.501 112.881 307.007C118.26 310.165 121.701 318.049 119.763 323.755C118.195 328.372 113.142 331.29 104.822 336.147C99.8569 339.022 96.8514 340.089 96.0238 343.203C95.2833 345.969 96.5029 349.497 98.7897 351.305C104.365 355.726 115.712 349.454 120.612 345.948C123.465 343.9 132.111 337.693 134.594 326.085C137.36 313.192 131.262 299.515 122.18 293.373C110.507 285.468 95.3051 290.912 75.0508 298.143"/><path fill="#FFE89C" d="M109.875 220.063C108.129 221.047 107.801 219.978 107.447 218.648C105.65 211.847 106.312 205.173 108.623 198.684C109.847 195.205 111.427 191.861 112.932 188.464C113.212 187.815 113.743 187.209 114.297 186.731C115.767 185.444 117.246 185.904 117.423 187.842C117.543 189.105 117.289 190.501 116.821 191.694C115.364 195.348 113.665 198.891 112.161 202.531C110.474 206.626 109.931 210.799 111.238 215.165C111.805 217.054 112.216 219.06 109.85 220.046L109.875 220.063Z"/><path fill="#FFE89C" d="M121.543 171.515C121.216 171.951 120.171 172.713 120.062 173.584C119.801 175.784 121.456 178.136 122.937 177.918C124.309 177.722 125.877 177.352 125.921 175.414C125.964 173.388 124.287 171.602 121.543 171.515Z"/><path stroke="#303131" stroke-linecap="round" stroke-linejoin="round" stroke-width="7.351" d="M103.379 287.118L89.6148 283.35"/><path fill="#303131" d="M176.403 241.775C172.338 241.775 169.042 238.44 169.042 234.327C169.042 230.213 172.338 226.878 176.403 226.878C180.469 226.878 183.765 230.213 183.765 234.327C183.765 238.44 180.469 241.775 176.403 241.775Z"/><path fill="#303131" d="M255.372 242.145C251.307 242.145 248.011 238.81 248.011 234.696C248.011 230.583 251.307 227.248 255.372 227.248C259.438 227.248 262.733 230.583 262.733 234.696C262.733 238.81 259.438 242.145 255.372 242.145Z"/><path fill="#FFE89C" stroke="#303131" stroke-linecap="round" stroke-linejoin="round" stroke-width="7.351" d="M91.2191 294.817C91.9161 304.116 93.6584 310.149 94.4206 312.588C96.0105 317.706 97.3172 319.819 98.0577 320.93C99.4298 322.955 101.629 326.113 105.898 328.029C108.098 329.009 111.757 330.774 115.328 329.097C118.377 327.681 119.51 324.632 119.597 324.392C120.425 322.106 119.945 320.058 119.728 319.187C119.488 318.164 118.835 316.813 117.376 314.2C116.57 312.784 116.047 311.804 115.415 310.759C114.784 309.713 114.283 308.973 114.218 308.842C110.036 302.374 108.642 291.463 108.642 291.463C108.359 289.089 108.141 286.476 108.054 283.688C107.989 281.641 108.011 279.681 108.098 277.851C108.098 277.851 104.09 274.563 101.129 271.579C96.0976 266.483 95.7274 263.891 94.3771 264.13C92.1339 264.544 91.437 272.21 91.1103 281.924C90.9578 286.41 90.8272 289.917 91.1974 294.839L91.2191 294.817Z"/><path fill="#A37B2C" stroke="#303131" stroke-linecap="round" stroke-linejoin="round" stroke-width="7.351" d="M218.175 138.554C260.3 149.616 300.099 137.072 307.067 110.536C314.036 83.9991 285.535 53.5195 243.41 42.4572C201.284 31.395 161.486 43.9392 154.517 70.4756C147.549 97.012 176.049 127.492 218.175 138.554Z"/><path fill="#A37B2C" d="M153.874 74.0331C151.164 86.0882 148.447 98.1641 145.736 110.219L114.474 100.891C114.474 100.891 107.694 109.141 112.966 118.055C118.238 126.969 123.915 128.663 123.915 128.663L305.168 182.744C307.399 182.274 312.468 180.9 316.819 176.448C318.1 175.126 320.908 172.19 322.146 167.355C323.092 163.728 322.739 160.646 322.394 158.906L305.761 153.944C301.032 152.578 296.276 151.227 291.547 149.862L304.548 118.627"/><path stroke="#303131" stroke-linecap="round" stroke-linejoin="round" stroke-width="7.351" d="M153.874 74.0331C151.164 86.0882 148.447 98.1641 145.736 110.219L114.474 100.891C114.474 100.891 107.694 109.141 112.966 118.055C118.238 126.969 123.915 128.663 123.915 128.663L305.168 182.744C307.399 182.274 312.468 180.9 316.819 176.448C318.1 175.126 320.908 172.19 322.146 167.355C323.092 163.728 322.739 160.646 322.394 158.906L305.761 153.944C301.032 152.578 296.276 151.227 291.547 149.862L304.548 118.627"/><path fill="#FFE89C" d="M164.713 75.5626C161.604 74.4074 162.594 72.8394 163.858 70.9663C170.435 61.3378 179.508 54.9994 190.114 50.9137C195.791 48.7212 201.706 47.0999 207.528 45.3368C208.654 44.9909 209.985 45.0244 211.162 45.1937C214.36 45.6708 215.359 48.037 213.139 50.3746C211.685 51.8954 209.669 53.0895 207.693 53.7725C201.565 55.876 195.293 57.55 189.121 59.5722C182.172 61.8397 176.347 65.67 172.306 72.0551C170.553 74.8051 168.475 77.5033 164.713 75.5626Z"/><path fill="#FFE89C" d="M165.895 81.2776C166.122 81.8906 167.106 83.1616 166.92 84.2425C166.455 86.9446 163.665 89.1349 161.992 88.3405C160.439 87.6044 158.727 86.639 159.344 84.3455C159.997 81.9268 162.629 80.4168 165.874 81.2714L165.895 81.2776Z"/></svg>