<svg xmlns="http://www.w3.org/2000/svg" width="807" height="890" fill="none" viewBox="0 0 807 890"><g filter="url(#filter0_d_3214_10235)"><path fill="#FFE89C" d="M409.968 620.43C416.187 693.212 420.585 745.673 420.824 754.251C420.855 755.259 420.902 759.013 422.816 763.497C423.455 765.002 425.792 770.348 431.223 774.367C434.615 776.891 437.72 777.61 443.877 779.046C453.413 781.267 460.281 780.915 464.465 780.369C468.063 779.905 469.872 779.627 471.412 778.4C475.68 775.017 476.286 767.184 473.241 761.431C470.193 755.648 464.017 753.021 458.765 750.804C453.763 748.683 453.331 749.622 451.248 748.248C444.835 744.091 445.836 733.274 444.683 709.699C444.396 703.744 444.681 711.591 442.615 679.427C441.717 665.59 441.286 658.565 441.037 653.374C440.693 645.465 440.316 634.291 440.357 620.713"/><path stroke="#303131" stroke-linecap="round" stroke-linejoin="round" stroke-width="9.447" d="M409.968 620.43C416.187 693.212 420.585 745.673 420.824 754.251C420.855 755.259 420.902 759.013 422.816 763.497C423.455 765.002 425.792 770.348 431.223 774.367C434.615 776.891 437.72 777.61 443.877 779.046C453.413 781.267 460.281 780.915 464.465 780.369C468.063 779.905 469.872 779.627 471.412 778.4C475.68 775.017 476.286 767.184 473.241 761.431C470.193 755.648 464.017 753.021 458.765 750.804C453.763 748.683 453.331 749.622 451.248 748.248C444.835 744.091 445.836 733.274 444.683 709.699C444.396 703.744 444.681 711.591 442.615 679.427C441.717 665.59 441.286 658.565 441.037 653.374C440.693 645.465 440.316 634.291 440.357 620.713"/><path fill="#FFE89C" d="M383.413 610.575C337.492 663.137 304.469 701.094 299.5 707.693C298.914 708.466 296.791 711.4 292.588 713.39C291.181 714.06 286.122 716.387 279.021 715.139C274.579 714.37 271.395 712.405 265.076 708.52C255.289 702.499 249.324 696.616 245.873 692.77C242.902 689.467 241.433 687.772 240.732 685.543C238.778 679.382 242.577 672.685 248.497 670.613C254.436 668.519 261.433 671.478 267.373 674.008C273.036 676.409 272.904 677.506 275.534 678.116C283.591 680.057 288.689 670.674 302.791 652.945C306.349 648.463 301.744 654.445 321.425 630.66C329.9 620.434 334.18 615.223 337.281 611.315C341.973 605.332 348.505 596.791 355.995 586.005"/><path stroke="#303131" stroke-linecap="round" stroke-linejoin="round" stroke-width="9.447" d="M383.413 610.575C337.492 663.137 304.469 701.094 299.5 707.693C298.914 708.466 296.791 711.4 292.588 713.39C291.181 714.06 286.122 716.387 279.021 715.139C274.579 714.37 271.395 712.405 265.076 708.52C255.289 702.499 249.324 696.616 245.873 692.77C242.902 689.467 241.433 687.772 240.732 685.543C238.778 679.382 242.577 672.685 248.497 670.613C254.436 668.519 261.433 671.478 267.373 674.008C273.036 676.409 272.904 677.506 275.534 678.116C283.591 680.057 288.689 670.674 302.791 652.945C306.349 648.463 301.744 654.445 321.425 630.66C329.9 620.434 334.18 615.223 337.281 611.315C341.973 605.332 348.505 596.791 355.995 586.005"/><path fill="#AE8C1D" stroke="#303131" stroke-linecap="round" stroke-linejoin="round" stroke-width="9.447" d="M365.579 640.525C450.24 691.29 552.025 673.375 592.923 600.51C633.82 527.645 598.342 427.423 513.681 376.658C429.019 325.893 327.234 343.808 286.337 416.673C245.439 489.538 280.917 589.76 365.579 640.525Z"/><path fill="#FFD13C" stroke="#303131" stroke-linecap="round" stroke-linejoin="round" stroke-width="9.447" d="M391.061 653.326C303.862 623.513 251.423 533.968 273.935 453.32C296.447 372.672 385.385 331.462 472.584 361.275C559.783 391.087 612.222 480.633 589.71 561.281C567.198 641.928 478.26 683.138 391.061 653.326Z"/><path stroke="#303131" stroke-linecap="round" stroke-linejoin="round" stroke-width="9.447" d="M590.415 515.85L601.088 517.503"/><path stroke="#303131" stroke-linecap="round" stroke-linejoin="round" stroke-width="9.447" d="M591.438 541.103L604.99 543.236"/><path stroke="#303131" stroke-linecap="round" stroke-linejoin="round" stroke-width="9.447" d="M581.547 564.909L595.395 567.089"/><path stroke="#303131" stroke-linecap="round" stroke-linejoin="round" stroke-width="9.447" d="M570.033 585.129L586.194 590.019"/><path stroke="#303131" stroke-linecap="round" stroke-linejoin="round" stroke-width="9.447" d="M556.769 605.375L574.797 610.506"/><path stroke="#303131" stroke-linecap="round" stroke-linejoin="round" stroke-width="9.447" d="M539.439 624.638L555.798 629.613"/><path fill="#A88E3F" stroke="#303131" stroke-linecap="round" stroke-linejoin="round" stroke-width="9.447" d="M402.952 575.17C419.743 591.787 447.208 593.104 457.347 579.114C458.679 577.265 458.428 574.544 458.902 572.208C457.426 571.973 455.892 571.604 454.372 571.297C452.273 570.882 450.677 570.952 450.038 570.939C443.733 570.726 437.885 570.493 434.49 567.295C434.088 566.903 434.557 567.288 431.684 562.716C429.095 558.612 427.598 556.764 425.165 555.378C424.696 555.107 424.197 554.94 423.639 554.754C419.795 553.47 418.274 556.202 411.877 555.299C410.394 555.09 407.919 554.751 405.259 553.261C400.605 550.646 400.841 547.571 397.262 546.031C396.998 545.943 396.727 545.767 396.294 545.593C393.447 544.643 391.061 545.566 387.565 546.664C384.282 547.689 382.618 548.223 381.736 548.272C375.56 548.733 368.434 543.744 364.743 541.135C362.546 539.599 360.784 537.892 359.207 538.57C357.528 539.271 356.174 541.198 356.048 542.876C354.974 559.348 377.052 576.814 397.401 575.696C399.327 575.593 401.173 575.321 402.93 575.134L402.952 575.17Z"/><path stroke="#303131" stroke-linecap="round" stroke-linejoin="round" stroke-width="9.447" d="M514.639 483.367C508.881 479.315 501.022 474.098 486.451 469.425C471.879 464.752 462.176 464.663 455.183 464.762"/><path stroke="#303131" stroke-linecap="round" stroke-linejoin="round" stroke-width="9.447" d="M413.97 518.009C413.035 518.222 411.424 518.755 410.128 520.064C407.425 522.782 407.09 527.796 409.937 530.929C411.135 532.259 412.643 532.931 413.683 533.276"/><path fill="#AE8C1D" d="M409.877 659.177C410.288 657.945 400.956 654.193 380.549 642.225C366.795 634.165 355.804 627.045 348.508 622.187L350.15 623.294C342.336 617.497 333.174 609.779 323.854 599.721C315.211 590.381 308.616 581.402 303.669 573.745C299.494 568.088 296.266 563.119 293.911 559.331C285.723 545.938 280.423 533.619 278.626 528.771C278.273 527.828 277.478 525.789 275.88 521.74C273.964 516.852 273.377 515.463 273.137 515.504C272.793 515.57 273.459 518.997 273.76 520.593C276.865 536.555 275.685 535.423 277.872 544.214C279.499 550.712 281.271 555.765 282.783 560.12C283.835 563.1 285.347 567.455 286.864 570.866C290.317 578.747 294.895 584.358 301.877 592.188C312.281 603.834 317.81 610.348 327.316 618.701C333.345 624.013 343.45 632.783 357.509 640.916C382.91 655.618 409.112 661.203 409.802 659.212L409.877 659.177Z"/><path fill="#303131" d="M541.43 541.254C541.379 541.237 541.355 541.16 541.377 541.083C541.399 541.006 541.457 540.957 541.508 540.975C541.559 540.992 541.582 541.068 541.56 541.146C541.539 541.223 541.48 541.272 541.43 541.254Z"/><path stroke="#303131" stroke-linecap="round" stroke-linejoin="round" stroke-width="9.447" d="M592.797 534.435C592.714 534.407 592.664 534.322 592.686 534.246C592.707 534.17 592.791 534.131 592.874 534.16C592.957 534.188 593.007 534.273 592.986 534.349C592.964 534.425 592.88 534.463 592.797 534.435Z"/><path stroke="#303131" stroke-linecap="round" stroke-linejoin="round" stroke-width="9.447" d="M462.982 546.012C448.618 541.101 439.982 526.34 443.694 513.042C447.406 499.745 462.059 492.947 476.424 497.858C490.788 502.769 499.424 517.53 495.712 530.827C492 544.124 477.346 550.923 462.982 546.012Z"/><path stroke="#303131" stroke-linecap="round" stroke-linejoin="round" stroke-width="9.447" d="M407.386 450.774C400.949 447.951 390.484 444.067 377.087 442.27C363.479 440.443 352.488 441.477 345.705 442.575"/><path fill="#FFE89C" d="M570.602 523.233C573.064 524.993 573.653 523.622 574.307 521.903C577.628 513.112 577.332 503.894 574.596 494.526C573.153 489.508 571.173 484.586 569.309 479.61C568.964 478.662 568.246 477.709 567.481 476.926C565.456 474.822 563.241 475.086 562.785 477.673C562.482 479.357 562.713 481.314 563.279 483.046C565.048 488.359 567.182 493.581 569.02 498.887C571.081 504.853 571.456 510.648 569.098 516.254C568.077 518.68 567.271 521.302 570.641 523.215L570.602 523.233Z"/><path fill="#FFE89C" d="M561.1 460.927C560.493 461.324 558.774 461.794 558.314 462.845C557.174 465.508 558.639 469.272 560.77 469.699C562.743 470.102 565.049 470.376 565.795 467.942C566.571 465.397 564.876 462.339 561.1 460.927Z"/><path stroke="#303131" stroke-linecap="round" stroke-linejoin="round" stroke-width="9.447" d="M516.391 642.846L533.51 647.438"/><path fill="#303131" d="M467.499 531.823C461.874 529.9 458.489 524.127 459.94 518.93C461.391 513.733 467.127 511.08 472.753 513.003C478.378 514.926 481.762 520.698 480.312 525.895C478.861 531.092 473.125 533.746 467.499 531.823Z"/><path fill="#303131" d="M499.236 562.04C496.312 561.04 494.553 558.04 495.307 555.338C496.061 552.637 499.043 551.258 501.967 552.257C504.891 553.257 506.65 556.257 505.896 558.959C505.142 561.66 502.16 563.039 499.236 562.04Z"/><path fill="#303131" d="M524.9 570.589C521.976 569.59 520.217 566.589 520.971 563.888C521.725 561.187 524.707 559.807 527.631 560.807C530.555 561.807 532.314 564.807 531.56 567.508C530.806 570.21 527.824 571.589 524.9 570.589Z"/><path fill="#303131" d="M551.401 569.541C548.476 568.541 546.717 565.541 547.471 562.839C548.225 560.138 551.207 558.758 554.131 559.758C557.055 560.758 558.815 563.758 558.06 566.46C557.306 569.161 554.325 570.54 551.401 569.541Z"/><path fill="#303131" d="M572.883 557.643C569.959 556.643 568.2 553.643 568.954 550.942C569.708 548.24 572.69 546.861 575.614 547.861C578.538 548.86 580.297 551.861 579.543 554.562C578.789 557.263 575.807 558.643 572.883 557.643Z"/><path fill="#303131" d="M374.176 508.28C368.55 506.357 365.166 500.584 366.616 495.387C368.067 490.19 373.804 487.537 379.429 489.46C385.055 491.383 388.439 497.155 386.988 502.352C385.538 507.549 379.801 510.203 374.176 508.28Z"/><path fill="#fff" d="M643.595 504.687C646.98 507.808 648.297 505.596 649.82 502.855C657.595 488.661 659.73 473.45 658.115 457.759C657.257 449.356 655.542 441.018 654.062 432.706C653.782 431.096 652.903 429.47 651.954 428.121C649.352 424.464 645.796 424.716 644.301 428.933C643.334 431.689 643.124 434.933 643.522 437.808C644.773 446.712 646.647 455.525 648.027 464.433C649.592 474.456 648.517 484.072 643.159 493.088C640.859 496.985 638.828 501.253 643.595 504.687Z"/><path fill="#fff" d="M635.816 522.707C634.927 522.888 632.708 522.654 631.569 523.664C628.72 526.187 628.174 531.079 630.333 532.472C632.336 533.767 634.726 535.082 636.982 532.679C639.359 530.141 639.218 525.932 635.839 522.727L635.816 522.707Z"/><g opacity=".4"><circle r="232.046" fill="#F9F9F9" fill-opacity=".75" transform="matrix(-0.943101 -0.332508 -0.332508 0.943101 454.4 454.445)"/><circle r="227.323" stroke="#fff" stroke-opacity=".75" stroke-width="9.447" transform="matrix(-0.943101 -0.332508 -0.332508 0.943101 454.4 454.445)"/></g><rect width="260.57" height="43.994" x="-6.025" y="2.884" fill="#D9D9D9" stroke="#303131" stroke-width="9.447" rx="14.17" transform="matrix(-0.943101 -0.332508 -0.332508 0.943101 509.174 677.017)"/><circle r="11.251" fill="#FF1A1A" transform="matrix(-0.943101 -0.332508 -0.332508 0.943101 316.927 637.113)"/><circle r="11.251" fill="#FF1A1A" transform="matrix(-0.943101 -0.332508 -0.332508 0.943101 316.927 637.113)"/><circle r="11.251" fill="#FF1A1A" transform="matrix(-0.943101 -0.332508 -0.332508 0.943101 316.927 637.113)"/><circle r="11.251" fill="#2E5CFF" transform="matrix(-0.943101 -0.332508 -0.332508 0.943101 282.441 624.95)"/><ellipse fill="#303131" rx="15.326" ry="45.978" transform="matrix(-0.799416 -0.600778 -0.600778 0.799416 574.073 615.021)"/><ellipse cx="262.246" cy="539.916" fill="#303131" rx="15.326" ry="45.978" transform="rotate(-23.9192 262.246 539.916)"/><path fill="#FFE89C" stroke="#303131" stroke-linecap="round" stroke-linejoin="round" stroke-width="9.447" d="M228.647 528.006C218.128 520.465 212.236 514.043 209.895 511.378C204.977 505.798 203.417 502.724 202.635 501.044C201.226 497.956 199.071 493.068 199.882 486.625C200.309 483.31 200.86 477.7 205.427 474.677C209.306 472.086 213.738 472.945 214.085 473.015C217.393 473.685 219.473 475.731 220.348 476.619C221.389 477.642 222.517 479.391 224.561 483.008C225.657 484.985 226.441 486.312 227.224 487.816C228.007 489.319 228.523 490.448 228.631 490.619C233.278 500.246 245.203 509.777 245.203 509.777C247.813 511.827 250.753 513.973 253.994 516.089C256.373 517.645 258.712 519.034 260.943 520.252C260.943 520.252 261.948 527.376 263.345 533.041C265.752 542.684 268.557 544.994 267.298 546.422C265.188 548.782 255.598 544.072 243.85 537.445C238.422 534.386 234.172 532.009 228.605 528.016L228.647 528.006Z"/><path fill="#FFE89C" stroke="#303131" stroke-linecap="round" stroke-linejoin="round" stroke-width="9.447" d="M595.578 633.88C607.611 634.032 615.576 632.524 618.794 631.802C625.568 630.338 628.443 628.908 629.939 628.077C632.704 626.543 637.006 624.091 639.964 618.805C641.496 616.093 644.153 611.563 642.425 606.798C640.954 602.701 637.178 600.893 636.858 600.764C633.997 599.458 631.308 599.815 630.162 599.986C628.803 600.162 627.017 600.868 623.487 602.435C621.56 603.307 620.245 603.884 618.857 604.575C617.438 605.262 616.43 605.814 616.27 605.887C607.484 610.525 593.271 611.063 593.271 611.063C581.133 612.604 577.027 607.349 573.209 609.826C572.848 610.058 572.214 610.532 571.599 611.373C569.393 613.338 567.482 614.851 566.145 615.882C563.508 617.888 561.166 620.233 558.612 622.309C558.072 622.764 556.644 624.058 556.475 625.773C556.457 625.923 556.47 626.077 556.512 626.234C557.292 629.733 565.325 630.789 579.002 632.501C584.763 633.201 589.23 633.781 595.612 633.854L595.578 633.88Z"/><path fill="#AE8C1D" stroke="#303131" stroke-linecap="round" stroke-linejoin="round" stroke-width="9.447" d="M522.853 241.267C464.527 219.921 426.362 174.738 437.607 140.348C448.852 105.959 505.25 95.3858 563.575 116.732C621.901 138.079 660.067 183.262 648.821 217.651C637.576 252.041 581.178 262.614 522.853 241.267Z"/><path fill="#AE8C1D" d="M644.25 224.208C638.652 239.039 633.047 253.896 627.449 268.727L671.146 282.939C671.146 282.939 673.127 296.88 660.401 302.244C647.675 307.607 639.74 305.027 639.74 305.027L386.391 222.629C384.102 220.413 379.123 215.057 377.237 207.001C376.69 204.617 375.519 199.352 377.586 193.287C379.116 188.725 381.782 185.738 383.458 184.165L406.707 191.727C413.284 193.924 419.882 196.159 426.459 198.356L433.909 155.327"/><path stroke="#303131" stroke-linecap="round" stroke-linejoin="round" stroke-width="9.447" d="M644.25 224.208C638.652 239.039 633.047 253.896 627.448 268.727L671.146 282.939C671.146 282.939 673.127 296.88 660.401 302.244C647.675 307.607 639.74 305.027 639.74 305.027L386.391 222.629C384.102 220.413 379.123 215.057 377.237 207.001C376.69 204.617 375.519 199.352 377.586 193.287C379.116 188.725 381.782 185.738 383.458 184.165L406.707 191.727C413.284 193.924 419.882 196.159 426.459 198.356L433.909 155.327"/><path fill="#AE8C1D" d="M199.731 452.498C199.855 452.799 199.935 453.092 200.032 453.411L228.518 554.894C230.231 560.971 226.593 567.433 220.463 569.182C214.306 570.949 207.888 567.435 206.201 561.34L177.716 459.857C177.716 459.857 177.68 459.689 177.654 459.591L178.782 463.64C176.109 453.708 173.871 445.062 172.28 438.249C171.348 434.262 168.656 422.691 159.5 418.24C151.266 414.248 138.845 416.471 133.462 423.483C129.105 429.157 129.66 437.698 130.51 451.804C131.047 460.203 132.192 464.739 129.067 468.286C126.295 471.442 120.997 472.827 116.929 471.509C106.994 468.308 105.406 449.355 105.693 440.521C105.867 435.373 106.399 419.769 118.539 407.286C132.017 393.41 153.671 389.712 168.56 395.79C187.713 403.594 193.451 426.575 201.125 457.176"/><path stroke="#303131" stroke-linecap="round" stroke-linejoin="round" stroke-width="9.447" d="M199.731 452.498C199.855 452.799 199.935 453.092 200.032 453.411L228.518 554.894C230.231 560.971 226.593 567.433 220.463 569.182C214.306 570.949 207.888 567.435 206.201 561.34L177.716 459.857C177.716 459.857 177.68 459.689 177.654 459.591L178.782 463.64C176.109 453.708 173.871 445.062 172.28 438.249C171.348 434.262 168.656 422.691 159.5 418.24C151.266 414.248 138.845 416.471 133.462 423.483C129.105 429.157 129.66 437.698 130.51 451.804C131.047 460.203 132.192 464.739 129.067 468.286C126.295 471.442 120.997 472.827 116.929 471.509C106.994 468.308 105.406 449.355 105.693 440.521C105.867 435.373 106.399 419.769 118.539 407.286C132.017 393.41 153.671 389.712 168.56 395.79C187.713 403.594 193.451 426.575 201.125 457.176"/></g><defs><filter id="filter0_d_3214_10235" width="785.57" height="884.735" x=".939" y=".95" color-interpolation-filters="sRGB" filterUnits="userSpaceOnUse"><feFlood flood-opacity="0" result="BackgroundImageFix"/><feColorMatrix in="SourceAlpha" result="hardAlpha" type="matrix" values="0 0 0 0 0 0 0 0 0 0 0 0 0 0 0 0 0 0 127 0"/><feOffset/><feGaussianBlur stdDeviation="50"/><feComposite in2="hardAlpha" operator="out"/><feColorMatrix type="matrix" values="0 0 0 0 1 0 0 0 0 1 0 0 0 0 1 0 0 0 0.1 0"/><feBlend in2="BackgroundImageFix" mode="normal" result="effect1_dropShadow_3214_10235"/><feBlend in="SourceGraphic" in2="effect1_dropShadow_3214_10235" mode="normal" result="shape"/></filter></defs></svg>