<svg xmlns="http://www.w3.org/2000/svg" width="487" height="479" fill="none" viewBox="0 0 487 479"><path fill="#FFE89C" stroke="#303131" stroke-linecap="round" stroke-linejoin="round" stroke-width="7.351" d="M203.88 357.224C196.021 360.887 190.342 362.255 188.014 362.734C183.131 363.778 180.819 363.69 179.591 363.587C177.32 363.398 173.768 363.061 170.261 360.465C168.451 359.137 165.364 356.949 165.088 353.307C164.842 350.18 166.786 347.874 166.958 347.695C168.451 345.99 170.322 345.428 171.126 345.201C172.071 344.915 173.453 344.849 176.236 344.834C177.76 344.835 178.794 344.825 179.911 344.868C181.046 344.899 181.872 344.963 181.999 344.963C189.143 345.409 198.639 341.554 198.639 341.554C207.068 338.971 208.209 334.304 211.45 334.8C211.756 334.846 212.313 334.969 212.966 335.34C214.997 335.977 216.7 336.405 217.883 336.687C220.21 337.223 222.442 338.07 224.735 338.678C225.224 338.816 226.546 339.244 227.164 340.32C227.22 340.414 227.258 340.518 227.276 340.634C227.8 343.163 222.836 346.235 214.359 351.41C210.782 353.576 208.02 355.279 203.85 357.217L203.88 357.224Z"/><path fill="#FFE89C" d="M307.025 289.654C310.365 341.424 312.842 378.736 313.635 384.817C313.725 385.531 314.118 388.19 313.088 391.444C312.746 392.536 311.473 396.417 307.55 399.491C305.102 401.42 302.678 402.06 297.873 403.336C290.429 405.31 284.844 405.35 281.404 405.14C278.445 404.963 276.953 404.843 275.569 404.039C271.735 401.825 270.346 396.307 272.143 392.108C273.939 387.886 278.623 385.767 282.609 383.977C286.403 382.265 286.86 382.911 288.383 381.851C293.083 378.639 291.032 371.025 289.255 354.293C288.802 350.066 289.474 355.632 287.447 332.782C286.582 322.952 286.123 317.962 285.728 314.278C285.097 308.667 284.117 300.743 282.525 291.135"/><path stroke="#303131" stroke-linecap="round" stroke-linejoin="round" stroke-width="7.351" d="M307.025 289.654C310.365 341.424 312.842 378.736 313.635 384.817C313.725 385.531 314.118 388.19 313.088 391.444C312.746 392.536 311.473 396.417 307.55 399.491C305.102 401.42 302.678 402.06 297.873 403.336C290.429 405.31 284.844 405.35 281.404 405.14C278.445 404.963 276.953 404.843 275.569 404.039C271.735 401.825 270.346 396.307 272.143 392.108C273.939 387.886 278.623 385.767 282.609 383.977C286.403 382.265 286.86 382.911 288.383 381.851C293.083 378.639 291.032 371.025 289.255 354.293C288.802 350.066 289.474 355.632 287.447 332.782C286.582 322.952 286.123 317.962 285.728 314.278C285.097 308.667 284.117 300.743 282.525 291.135"/><path fill="#FFE89C" d="M283.238 303.247C321.501 338.278 349.036 363.58 353.279 368.007C353.779 368.525 355.605 370.497 358.787 371.733C359.853 372.149 363.676 373.589 368.529 372.456C371.567 371.756 373.584 370.267 377.588 367.32C383.79 362.754 387.319 358.426 389.31 355.612C391.026 353.196 391.867 351.958 392.107 350.375C392.783 345.999 389.352 341.46 384.952 340.231C380.537 338.986 375.95 341.31 372.059 343.296C368.347 345.181 368.565 345.942 366.784 346.466C361.336 348.117 356.686 341.75 344.756 329.883C341.745 326.883 345.663 330.893 329.121 315C322 308.168 318.398 304.685 315.773 302.069C311.794 298.062 306.231 292.335 299.739 285.076"/><path stroke="#303131" stroke-linecap="round" stroke-linejoin="round" stroke-width="7.351" d="M283.238 303.247C321.501 338.278 349.036 363.58 353.279 368.007C353.779 368.525 355.605 370.497 358.787 371.733C359.853 372.149 363.676 373.589 368.529 372.456C371.567 371.756 373.584 370.267 377.588 367.32C383.79 362.754 387.319 358.426 389.31 355.612C391.026 353.196 391.867 351.958 392.107 350.375C392.783 345.999 389.352 341.46 384.952 340.231C380.537 338.986 375.95 341.31 372.059 343.296C368.347 345.181 368.565 345.942 366.784 346.466C361.336 348.117 356.686 341.75 344.756 329.883C341.745 326.883 345.663 330.893 329.121 315C322 308.168 318.398 304.685 315.773 302.069C311.794 298.062 306.231 292.335 299.739 285.076"/><path fill="#AE8C1D" stroke="#303131" stroke-linecap="round" stroke-linejoin="round" stroke-width="7.351" d="M324.213 339.245C386.218 312.26 415.833 242.937 390.361 184.406C364.888 125.876 293.974 100.302 231.97 127.287C169.965 154.271 140.35 223.594 165.822 282.125C191.294 340.656 262.208 366.229 324.213 339.245Z"/><path fill="#FFD13C" stroke="#303131" stroke-linecap="round" stroke-linejoin="round" stroke-width="7.351" d="M318.811 341.786C376.591 316.64 402.782 248.807 377.31 190.276C351.838 131.746 284.348 104.682 226.567 129.828C168.787 154.974 142.596 222.807 168.068 281.338C193.54 339.868 261.03 366.932 318.811 341.786Z"/><path stroke="#303131" stroke-linecap="round" stroke-linejoin="round" stroke-width="7.351" d="M347.097 149.177L352.307 143.465"/><path stroke="#303131" stroke-linecap="round" stroke-linejoin="round" stroke-width="7.351" d="M362.206 159.441L368.843 152.206"/><path stroke="#303131" stroke-linecap="round" stroke-linejoin="round" stroke-width="7.351" d="M371.754 175.38L378.536 167.987"/><path stroke="#303131" stroke-linecap="round" stroke-linejoin="round" stroke-width="7.351" d="M378.517 190.703L387.892 183.155"/><path stroke="#303131" stroke-linecap="round" stroke-linejoin="round" stroke-width="7.351" d="M383.721 207.462L394.839 198.514"/><path stroke="#303131" stroke-linecap="round" stroke-linejoin="round" stroke-width="7.351" d="M388.279 225.358L397.786 217.729"/><path fill="#AE8C1D" d="M303.669 342.322C303.226 341.412 309.426 338.248 322.525 328.506C331.355 321.944 338.328 316.19 342.941 312.272L341.904 313.164C346.772 308.522 352.368 302.388 357.791 294.492C362.818 287.159 366.428 280.174 369.025 274.243C371.314 269.842 373.011 265.992 374.229 263.061C378.439 252.704 380.719 243.261 381.41 239.555C381.547 238.834 381.866 237.274 382.513 234.175C383.284 230.435 383.533 229.371 383.709 229.392C383.962 229.429 383.905 232.026 383.885 233.235C383.615 245.332 384.319 244.438 383.829 251.118C383.46 256.055 382.812 259.914 382.264 263.239C381.876 265.514 381.328 268.84 380.662 271.457C379.159 277.5 376.577 281.882 372.55 288.019C366.547 297.148 363.397 302.243 357.633 308.866C353.98 313.078 347.84 320.036 338.801 326.665C322.472 338.646 304.461 343.814 303.727 342.345L303.669 342.322Z"/><path fill="#303131" d="M196.91 268.858C196.943 268.843 196.951 268.787 196.927 268.731C196.903 268.676 196.856 268.643 196.823 268.657C196.79 268.672 196.783 268.728 196.807 268.784C196.831 268.839 196.877 268.872 196.91 268.858Z"/><path stroke="#303131" stroke-linecap="round" stroke-linejoin="round" stroke-width="7.351" d="M159.587 268.071C159.642 268.047 159.668 267.982 159.644 267.927C159.619 267.872 159.555 267.846 159.5 267.871C159.445 267.895 159.419 267.959 159.443 268.014C159.467 268.069 159.532 268.095 159.587 268.071Z"/><path fill="#AE8C1D" stroke="#303131" stroke-linecap="round" stroke-linejoin="round" stroke-width="7.351" d="M242.118 155.833C281.455 137.139 303.798 101.895 292.022 77.1152C280.245 52.335 238.809 47.4016 199.472 66.096C160.134 84.7904 137.791 120.034 149.568 144.814C161.344 169.594 202.78 174.527 242.118 155.833Z"/><path fill="#AE8C1D" d="M151.37 147.948C157.068 158.912 162.774 169.896 168.472 180.86L138.558 193.878C138.558 193.878 138.692 204.556 148.468 207.973C158.245 211.39 163.676 209.026 163.676 209.026L337.113 133.547C338.516 131.749 341.506 127.432 341.963 121.223C342.09 119.387 342.345 115.333 340.175 110.838C338.56 107.456 336.303 105.326 334.919 104.219L319.003 111.145C314.507 113.149 310 115.182 305.504 117.186L295.312 84.9249"/><path stroke="#303131" stroke-linecap="round" stroke-linejoin="round" stroke-width="7.351" d="M151.37 147.948C157.068 158.912 162.774 169.896 168.472 180.86L138.558 193.878C138.558 193.878 138.692 204.556 148.468 207.973C158.245 211.39 163.676 209.026 163.676 209.026L337.113 133.547C338.516 131.749 341.506 127.432 341.963 121.223C342.09 119.387 342.345 115.333 340.175 110.838C338.56 107.456 336.303 105.326 334.919 104.219L319.003 111.145C314.507 113.149 310 115.182 305.504 117.186L295.312 84.9249"/><path fill="#FFE89C" d="M158.41 141.312C155.204 142.165 155.107 140.313 155.056 138.055C154.862 126.395 158.606 115.98 164.903 106.518C168.27 101.449 172.162 96.7082 175.895 91.906C176.615 90.9732 177.72 90.2316 178.779 89.69C181.665 88.2316 183.847 89.5861 183.385 92.7767C183.077 94.8579 182.122 96.997 180.903 98.6963C177.117 103.953 172.964 108.943 169.095 114.159C164.732 120.025 162.191 126.516 162.58 134.063C162.739 137.32 162.601 140.723 158.41 141.312Z"/><path fill="#FFE89C" d="M165.229 145.739C165.797 146.062 167.369 146.399 167.923 147.346C169.309 149.711 168.588 153.184 166.797 153.655C165.135 154.093 163.204 154.458 162.197 152.308C161.138 150.037 162.177 147.186 165.209 145.748L165.229 145.739Z"/><path fill="#AE8C1D" d="M169.286 396.113C169.503 396.066 169.709 396.047 169.934 396.02L241.461 389.167C245.746 388.751 249.641 391.972 250.075 396.296C250.516 400.641 247.384 404.522 243.091 404.917L171.564 411.771C171.564 411.771 171.447 411.775 171.378 411.781L174.23 411.513C167.245 412.107 161.173 412.564 156.41 412.808C153.623 412.952 145.535 413.361 141.442 418.966C137.77 424.008 137.761 432.61 141.815 437.069C145.095 440.677 150.893 441.336 160.459 442.47C166.159 443.124 169.341 442.903 171.343 445.429C173.125 447.669 173.415 451.391 172.04 453.961C168.692 460.24 155.784 459.017 149.892 457.757C146.459 457.018 136.054 454.777 129.146 445.124C121.465 434.406 121.598 419.431 127.475 410.176C135.024 398.269 151.135 397.195 172.592 395.742"/><path stroke="#303131" stroke-linecap="round" stroke-linejoin="round" stroke-width="7.351" d="M169.286 396.113C169.503 396.066 169.709 396.047 169.934 396.02L241.461 389.167C245.746 388.751 249.641 391.972 250.075 396.296C250.516 400.641 247.384 404.522 243.091 404.917L171.564 411.771C171.564 411.771 171.447 411.775 171.378 411.781L174.23 411.513C167.245 412.107 161.173 412.564 156.41 412.808C153.623 412.952 145.535 413.361 141.442 418.966C137.77 424.008 137.761 432.61 141.815 437.069C145.095 440.677 150.893 441.336 160.459 442.47C166.159 443.124 169.341 442.903 171.343 445.429C173.125 447.669 173.415 451.391 172.04 453.961C168.692 460.24 155.784 459.017 149.892 457.757C146.459 457.018 136.054 454.777 129.146 445.124C121.465 434.406 121.598 419.431 127.475 410.176C135.024 398.269 151.135 397.195 172.592 395.742"/><path fill="#FFE89C" d="M175.518 258.287C174.041 259.642 173.478 258.676 172.831 257.461C169.533 251.248 168.658 244.598 169.432 237.753C169.832 234.088 170.61 230.472 171.302 226.822C171.426 226.126 171.806 225.415 172.237 224.823C173.375 223.235 174.92 223.347 175.533 225.194C175.938 226.395 176.009 227.813 175.824 229.081C175.237 232.971 174.389 236.808 173.753 240.695C173.042 245.066 173.463 249.253 175.73 253.207C176.712 254.917 177.569 256.777 175.489 258.275L175.518 258.287Z"/><path fill="#FFE89C" d="M176.219 212.854C176.693 213.123 177.955 213.405 178.403 214.16C179.52 216.073 178.941 218.89 177.496 219.281C176.16 219.649 174.574 219.935 173.761 218.175C172.913 216.336 173.738 214.029 176.219 212.854Z"/><path stroke="#303131" stroke-linecap="round" stroke-linejoin="round" stroke-width="7.351" d="M387.409 247.209L398.526 238.262"/><path fill="#FFE89C" stroke="#303131" stroke-linecap="round" stroke-linejoin="round" stroke-width="7.351" d="M412.833 245.263C419.765 239.024 423.472 233.956 424.936 231.861C428.013 227.473 428.885 225.147 429.311 223.882C430.074 221.558 431.228 217.886 430.133 213.337C429.563 210.997 428.722 207.024 425.21 205.223C422.226 203.677 419.121 204.645 418.878 204.723C416.562 205.467 415.236 207.098 414.68 207.803C414.016 208.618 413.348 209.961 412.172 212.714C411.545 214.217 411.089 215.23 410.649 216.369C410.208 217.508 409.928 218.357 409.865 218.489C407.304 225.753 399.524 233.529 399.524 233.529C397.819 235.205 395.884 236.975 393.732 238.749C392.152 240.053 390.588 241.234 389.088 242.284C389.088 242.284 388.936 247.466 388.387 251.634C387.432 258.731 385.608 260.609 386.623 261.531C388.322 263.053 394.814 258.916 402.699 253.234C406.342 250.611 409.196 248.57 412.864 245.267L412.833 245.263Z"/><path fill="#A88E3F" stroke="#303131" stroke-linecap="round" stroke-linejoin="round" stroke-width="7.351" d="M286.724 284.756C276.682 298.247 257.007 300.301 247.926 289.86C246.731 288.479 246.571 286.364 245.934 284.575C246.971 284.337 248.033 283.994 249.092 283.699C250.557 283.299 251.718 283.293 252.179 283.259C256.706 282.856 260.902 282.455 262.952 279.852C263.193 279.534 262.904 279.85 264.405 276.204C265.759 272.931 266.609 271.444 268.192 270.28C268.497 270.053 268.836 269.905 269.216 269.74C271.832 268.601 273.273 270.658 277.781 269.718C278.826 269.5 280.571 269.144 282.306 267.891C285.339 265.692 284.783 263.321 287.175 261.995C287.354 261.917 287.528 261.77 287.819 261.62C289.756 260.777 291.595 261.402 294.259 262.119C296.759 262.788 298.028 263.139 298.671 263.144C303.191 263.267 307.712 259.138 310.05 256.98C311.444 255.709 312.503 254.321 313.727 254.786C315.028 255.265 316.249 256.706 316.55 257.999C319.395 270.704 305.64 285.05 290.8 284.953C289.396 284.947 288.028 284.806 286.735 284.727L286.724 284.756Z"/><path stroke="#303131" stroke-linecap="round" stroke-linejoin="round" stroke-width="7.351" d="M195.05 241.878C198.72 238.357 203.77 233.808 213.795 229.445C223.82 225.082 230.895 224.64 236.016 224.454"/><path stroke="#303131" stroke-linecap="round" stroke-linejoin="round" stroke-width="7.351" d="M268.371 246.023C267.945 246.518 267.269 247.477 267.042 248.81C266.563 251.584 268.18 254.918 270.833 255.83C271.954 256.221 273.005 256.072 273.688 255.894"/><path stroke="#303131" stroke-linecap="round" stroke-linejoin="round" stroke-width="7.351" d="M234.99 276.892C244.508 272.749 248.82 261.568 244.62 251.918C240.42 242.268 229.3 237.803 219.782 241.945C210.264 246.087 205.952 257.268 210.152 266.918C214.352 276.569 225.472 281.034 234.99 276.892Z"/><path stroke="#303131" stroke-linecap="round" stroke-linejoin="round" stroke-width="7.351" d="M271.788 210.81C275.457 207.289 281.64 202.176 290.532 198.377C299.565 194.518 307.633 193.572 312.753 193.386"/><path fill="#303131" d="M230.097 266.625C233.824 265.002 235.516 260.629 233.874 256.858C232.233 253.086 227.88 251.343 224.152 252.965C220.424 254.588 218.733 258.961 220.375 262.732C222.016 266.504 226.369 268.247 230.097 266.625Z"/><path stroke="#303131" stroke-linecap="round" stroke-linejoin="round" stroke-width="7.351" d="M304.576 216.89L295.894 229.054L311.054 231.774"/><circle cx="169.408" cy="268.125" r="3.417" fill="#303131" transform="rotate(-4.39118 169.408 268.125)"/><circle cx="181.464" cy="268.913" r="3.417" fill="#303131" transform="rotate(-4.39118 181.464 268.913)"/><circle cx="193.39" cy="267.997" r="3.417" fill="#303131" transform="rotate(-4.39118 193.39 267.997)"/><circle cx="203.612" cy="267.212" r="3.417" fill="#303131" transform="rotate(-4.39118 203.612 267.212)"/></svg>