<svg width="383" height="236" viewBox="0 0 383 236" fill="none" xmlns="http://www.w3.org/2000/svg">
<path d="M112.136 125.9C64.6839 138.006 30.4514 146.7 24.6917 147.936C24.0163 148.083 21.4765 148.602 19.069 149.937C18.2598 150.383 15.4088 151.996 14.504 154.621C13.93 156.263 14.4878 157.553 15.5859 160.113C17.2902 164.078 19.8464 166.672 21.6294 168.208C23.1586 169.531 23.9575 170.189 25.3126 170.618C29.0551 171.808 34.5921 170.995 37.4818 169.056C40.3914 167.112 40.0971 164.386 39.8347 162.07C39.5919 159.863 38.8064 159.822 39.0398 158.837C39.7069 155.816 47.4088 154.757 63.0699 151.167C67.0272 150.262 61.7812 151.419 82.9815 146.331C92.099 144.139 96.7363 143.036 100.187 142.247C105.455 141.059 112.935 139.423 122.193 137.626" fill="#FAEA84"/>
<path d="M112.136 125.9C64.6839 138.006 30.4514 146.7 24.6917 147.936C24.0163 148.083 21.4765 148.602 19.069 149.937C18.2598 150.383 15.4088 151.996 14.504 154.621C13.93 156.263 14.4878 157.553 15.5859 160.113C17.2902 164.078 19.8464 166.672 21.6294 168.208C23.1586 169.531 23.9575 170.189 25.3126 170.618C29.0551 171.808 34.5921 170.995 37.4818 169.056C40.3914 167.112 40.0971 164.386 39.8347 162.07C39.5919 159.863 38.8064 159.822 39.0398 158.837C39.7069 155.816 47.4088 154.757 63.0699 151.167C67.0272 150.262 61.7812 151.419 82.9815 146.331C92.099 144.139 96.7363 143.036 100.187 142.247C105.455 141.059 112.935 139.423 122.193 137.626" stroke="#303131" stroke-width="7.35128" stroke-linecap="round" stroke-linejoin="round"/>
<path d="M170.86 192.88C143.257 190.853 118.694 183.137 101.311 172.479C83.7548 161.716 74.416 148.589 74.9487 135.885C75.4813 123.181 85.86 111.503 104.208 103.377C122.376 95.3306 147.432 91.2585 175.036 93.286C202.64 95.3134 227.202 103.03 244.586 113.687C262.142 124.45 271.48 137.577 270.948 150.281C270.415 162.985 260.036 174.664 241.688 182.79C223.521 190.836 198.464 194.908 170.86 192.88Z" fill="#AE8C1D" stroke="#303131" stroke-width="7.35128"/>
<path d="M139.277 41.4716C134.738 39.6773 131.382 39.5259 130.002 39.5369C127.108 39.5252 125.703 40.0418 124.953 40.3657C123.567 40.9647 121.397 41.9378 119.117 44.9266C117.941 46.4584 115.942 49.0023 115.556 52.3167C115.219 55.1637 116.258 56.8615 116.351 56.9894C117.152 58.2345 118.252 58.3838 118.725 58.4351C119.28 58.513 120.113 58.3104 121.796 57.798C122.719 57.5082 123.345 57.3216 124.024 57.0725C124.713 56.8298 125.216 56.616 125.293 56.5919C129.646 54.842 135.163 56.4991 135.163 56.4991C140.111 57.2181 140.522 61.1831 142.514 60.1252C142.702 60.0268 143.047 59.8106 143.464 59.3552C144.732 58.4003 145.789 57.6951 146.522 57.2191C147.963 56.2984 149.366 55.1178 150.79 54.1399C151.095 53.9232 151.92 53.2905 152.36 52.2093C152.399 52.115 152.428 52.0143 152.446 51.9071C152.915 49.5426 150.094 47.7297 145.273 44.6979C143.237 43.4343 141.667 42.4306 139.258 41.484L139.277 41.4716Z" fill="#FAEA84" stroke="#303131" stroke-width="7.35128" stroke-linecap="round" stroke-linejoin="round"/>
<path d="M125.538 121.334C76.7208 112.869 41.5086 106.802 35.6141 106.006C34.9227 105.911 32.3268 105.586 29.7546 104.44C28.8904 104.056 25.8402 102.667 24.5923 100.123C23.8038 98.5331 24.188 97.2071 24.9417 94.5773C26.1125 90.504 28.3124 87.7296 29.883 86.0664C31.2295 84.6355 31.9372 83.9198 33.2288 83.3912C36.795 81.9247 42.4118 82.3153 45.5438 84.0266C48.6962 85.7414 48.7644 88.4761 48.8099 90.8004C48.8605 93.0146 48.0844 93.1147 48.447 94.0767C49.5107 97.0326 57.3144 97.5052 73.3723 99.8956C77.4297 100.498 72.0568 99.7424 93.8245 103.205C103.187 104.698 107.947 105.446 111.484 105.971C116.883 106.755 124.543 107.819 133.992 108.908" fill="#FAEA84"/>
<path d="M125.538 121.334C76.7208 112.869 41.5087 106.802 35.6141 106.006C34.9227 105.911 32.3268 105.586 29.7546 104.44C28.8904 104.056 25.8402 102.667 24.5923 100.123C23.8038 98.5331 24.188 97.2071 24.9417 94.5773C26.1125 90.504 28.3124 87.7296 29.883 86.0664C31.2295 84.6355 31.9372 83.9198 33.2288 83.3912C36.795 81.9247 42.4118 82.3153 45.5438 84.0266C48.6962 85.7414 48.7644 88.4761 48.8099 90.8004C48.8605 93.0146 48.0844 93.1147 48.447 94.0767C49.5107 97.0326 57.3144 97.5052 73.3723 99.8956C77.4297 100.498 72.0568 99.7424 93.8245 103.205C103.187 104.698 107.947 105.446 111.484 105.971C116.883 106.755 124.543 107.819 133.992 108.908" stroke="#303131" stroke-width="7.35128" stroke-linecap="round" stroke-linejoin="round"/>
<path d="M71.2631 113.514C71.185 147.052 122.908 173.287 186.79 172.11C250.672 170.934 302.521 142.791 302.599 109.253C302.677 75.7143 250.954 49.4797 187.073 50.6562C123.191 51.8327 71.3411 79.9749 71.2631 113.514Z" fill="#FFD13C" stroke="#303131" stroke-width="7.35128" stroke-linecap="round" stroke-linejoin="round"/>
<path d="M76.4486 102.508C77.4294 102.466 77.8349 106.156 81.4115 114.552C83.8175 120.21 86.226 124.791 87.9189 127.843L87.5282 127.154C89.7653 130.474 93.047 134.448 97.9627 138.68C102.53 142.607 107.34 145.764 111.606 148.212C114.63 150.208 117.395 151.803 119.528 152.98C127.103 157.095 134.615 160.074 137.642 161.143C138.23 161.352 139.493 161.816 141.997 162.743C145.024 163.858 149.62 166.607 149.532 166.689C149.401 166.808 143.064 166.082 141.997 165.835C131.345 163.331 134.779 166.532 129.029 164.981C124.782 163.83 118.993 157.847 116.249 156.924C114.377 156.286 111.633 155.363 109.564 154.52C104.774 152.592 101.88 150.454 97.9863 147.257C92.2001 142.496 88.8933 139.937 85.2415 135.785C82.9156 133.151 79.1118 128.747 76.7279 122.972C72.415 112.538 74.8138 102.607 76.4049 102.532L76.4486 102.508Z" fill="#A37B2C"/>
<path d="M137.671 101.918C129.319 94.3055 135.315 84.1575 148.528 81.7003C150.272 81.3784 152.276 81.7124 154.172 81.747C153.975 82.307 153.865 82.9001 153.711 83.4825C153.491 84.2863 153.032 84.8627 152.879 85.0974C151.435 87.419 150.122 89.5758 151.688 91.1002C151.884 91.282 151.71 91.0766 154.452 92.5329C156.912 93.8437 157.935 94.5551 158.368 95.5671C158.455 95.7626 158.455 95.9596 158.454 96.1798C158.451 97.6983 155.987 98.0103 155.044 100.427C154.825 100.987 154.452 101.921 154.907 103.026C155.709 104.958 158.106 105.146 158.364 106.59C158.364 106.694 158.429 106.809 158.451 106.983C158.448 108.107 157.139 108.896 155.414 110.075C153.799 111.183 152.969 111.743 152.707 112.061C150.784 114.275 152.76 117.322 153.803 118.902C154.411 119.842 155.259 120.637 154.342 121.153C153.382 121.704 151.572 122.027 150.265 121.923C137.474 120.849 129.825 111.23 135.857 103.898C136.425 103.204 137.102 102.554 137.692 101.929L137.671 101.918Z" fill="#A88E3F" stroke="#303131" stroke-width="7.35128" stroke-linecap="round" stroke-linejoin="round"/>
<path d="M213.709 64.8867C215.468 67.3927 217.618 70.784 217.604 76.6029C217.591 82.4217 215.163 86.0132 213.283 88.5862" stroke="#303131" stroke-width="7.35128" stroke-linecap="round" stroke-linejoin="round"/>
<path d="M180.543 100.399C180.261 100.091 179.652 99.5694 178.519 99.1961C176.167 98.4165 172.462 98.5659 170.563 99.702C169.755 100.18 169.471 100.73 169.361 101.103" stroke="#303131" stroke-width="7.35128" stroke-linecap="round" stroke-linejoin="round"/>
<path d="M197.882 47.8509C197.882 47.8832 197.931 47.9084 197.991 47.9073C198.051 47.9062 198.1 47.8791 198.1 47.8469C198.101 47.8147 198.052 47.7895 197.991 47.7906C197.931 47.7917 197.882 47.8187 197.882 47.8509Z" stroke="#303131" stroke-width="7.35128" stroke-linecap="round" stroke-linejoin="round"/>
<path d="M71.2631 113.514C71.185 147.052 122.908 173.287 186.79 172.11C250.672 170.934 302.521 142.791 302.599 109.253C302.677 75.7143 250.954 49.4797 187.073 50.6562C123.191 51.8327 71.3411 79.9749 71.2631 113.514Z" stroke="#303131" stroke-width="7.35128" stroke-linecap="round" stroke-linejoin="round"/>
<path d="M203.889 42.1991C203.889 42.2313 203.938 42.2565 203.999 42.2554C204.059 42.2543 204.108 42.2273 204.108 42.1951C204.108 42.1628 204.059 42.1376 203.999 42.1387C203.939 42.1398 203.89 42.1668 203.889 42.1991Z" stroke="#303131" stroke-width="7.35128" stroke-linecap="round" stroke-linejoin="round"/>
<path d="M165.601 77.8269C165.589 83.3516 174.116 87.673 184.649 87.479C195.182 87.285 203.73 82.6491 203.743 77.1244C203.756 71.5997 195.228 67.2783 184.696 67.4723C174.163 67.6663 165.614 72.3022 165.601 77.8269Z" stroke="#303131" stroke-width="7.35128" stroke-linecap="round" stroke-linejoin="round"/>
<path d="M318.074 72.9152C305.736 73.5945 293.377 74.2741 281.04 74.9534L281.08 57.5896C281.08 57.5896 271.234 55.5687 264.185 59.7437C257.135 63.9187 257.128 67.0716 257.128 67.0716L256.894 167.742C257.981 168.789 260.744 171.114 266.254 172.554C267.888 172.976 271.504 173.895 276.495 173.698C280.244 173.56 283.101 172.858 284.671 172.389L284.692 163.15C284.655 160.531 284.596 157.901 284.558 155.283L318.228 156.54" fill="#A37B2C"/>
<path d="M318.074 72.9152C305.736 73.5945 293.377 74.2741 281.04 74.9534L281.08 57.5896C281.08 57.5896 271.234 55.5687 264.185 59.7437C257.135 63.9187 257.128 67.0716 257.128 67.0716L256.894 167.742C257.981 168.789 260.744 171.114 266.254 172.554C267.888 172.976 271.504 173.895 276.495 173.698C280.244 173.56 283.101 172.858 284.671 172.389L284.692 163.15C284.655 160.532 284.596 157.901 284.558 155.283L318.228 156.54" stroke="#303131" stroke-width="7.35128" stroke-linecap="round" stroke-linejoin="round"/>
<path d="M267.941 119.879C269.332 143.021 282.138 161.359 320.15 159.989C347.593 158.999 368.712 139.437 367.321 116.296C365.93 93.1547 342.555 75.1972 315.112 76.1868C287.669 77.1763 266.55 96.7382 267.941 119.879Z" fill="#A37B2C" stroke="#303131" stroke-width="7.35128" stroke-linecap="round" stroke-linejoin="round"/>
<path d="M273.774 105.024C275.165 128.165 298.54 146.123 325.983 145.133C353.426 144.144 374.545 124.582 373.154 101.441C371.763 78.2993 348.388 60.3417 320.945 61.3313C293.502 62.3208 272.383 81.8828 273.774 105.024Z" fill="#A37B2C" stroke="#303131" stroke-width="7.35128" stroke-linecap="round" stroke-linejoin="round"/>
<path d="M317.349 61.61C305.012 62.2893 292.653 62.9689 280.316 63.6482L280.356 46.2844C280.356 46.2844 270.51 44.2635 263.461 48.4385C256.411 52.6136 256.404 55.7664 256.404 55.7664L256.17 156.437C257.257 157.483 260.019 159.809 265.53 161.249C267.164 161.671 270.779 162.589 275.771 162.393C279.52 162.255 282.376 161.553 283.947 161.083L283.968 151.845C283.931 149.226 283.871 146.596 283.834 143.977L317.504 145.235" fill="#A37B2C"/>
<path d="M317.349 61.61C305.012 62.2893 292.653 62.9689 280.316 63.6482L280.356 46.2844C280.356 46.2844 270.51 44.2635 263.461 48.4385C256.411 52.6136 256.404 55.7664 256.404 55.7664L256.17 156.437C257.257 157.483 260.019 159.809 265.53 161.249C267.164 161.671 270.779 162.589 275.771 162.393C279.52 162.255 282.376 161.553 283.947 161.083L283.968 151.845C283.931 149.226 283.871 146.596 283.834 143.977L317.504 145.235" stroke="#303131" stroke-width="7.35128" stroke-linecap="round" stroke-linejoin="round"/>
<path d="M318.971 67.3418C319.193 65.5759 320.98 65.8096 323.137 66.1292C334.248 67.8138 342.914 71.317 349.856 75.9761C353.577 78.4692 356.818 81.1797 360.168 83.8186C360.821 84.3282 361.168 85.0057 361.341 85.6284C361.794 87.3239 359.809 88.2298 356.934 87.5061C355.061 87.0306 353.341 86.2162 352.122 85.3345C348.358 82.5989 344.965 79.7173 341.266 76.9457C337.111 73.8231 331.777 71.5337 324.5 70.5782C321.362 70.1607 318.182 69.5702 318.971 67.3418Z" fill="#F7E6A2"/>
<path d="M313.824 68.9087C313.301 69.1269 312.362 69.8397 311.272 69.9293C308.547 70.1533 305.651 69.1171 305.937 68.1382C306.2 67.2293 306.638 66.2012 309.014 66.1227C311.521 66.0418 313.72 67.114 313.824 68.8971L313.824 68.9087Z" fill="#F7E6A2"/>
<path d="M211.47 108.974C213.23 111.48 215.444 115.542 215.366 120.69C215.289 125.919 212.925 130.1 211.045 132.673" stroke="#303131" stroke-width="7.35128" stroke-linecap="round" stroke-linejoin="round"/>
<path d="M213.278 58.7253C212.723 57.6544 213.837 57.7019 215.21 57.7882C222.227 58.2361 228.558 59.8919 234.331 62.3384C237.429 63.6422 240.315 65.0982 243.269 66.5264C243.835 66.7955 244.302 67.1822 244.639 67.5551C245.552 68.5474 244.766 69.1978 242.843 68.9023C241.59 68.7121 240.291 68.3077 239.24 67.8363C236.025 66.3806 232.973 64.8257 229.783 63.3492C226.193 61.6911 222.264 60.5908 217.723 60.3804C215.759 60.29 213.716 60.0982 213.301 58.7161L213.278 58.7253Z" fill="#F7E6A2"/>
<path d="M210.376 60.6093C209.94 60.7911 209.176 61.3614 208.304 61.4354C206.103 61.615 203.752 60.7776 203.971 59.9856C204.169 59.252 204.542 58.4108 206.481 58.3519C208.508 58.2914 210.292 59.1508 210.376 60.6093Z" fill="#F7E6A2"/>
<path d="M176.978 77.4107C176.973 79.5745 180.306 81.2671 184.423 81.1913C188.54 81.1155 191.881 79.2999 191.886 77.1361C191.891 74.9724 188.558 73.2797 184.441 73.3555C180.324 73.4314 176.983 75.2469 176.978 77.4107Z" fill="#303131"/>
<path d="M177.13 121.459C177.125 123.622 180.458 125.315 184.575 125.239C188.692 125.163 192.033 123.348 192.038 121.184C192.043 119.02 188.71 117.328 184.593 117.403C180.477 117.479 177.135 119.295 177.13 121.459Z" fill="#303131"/>
<line x1="196.112" y1="177.16" x2="196.112" y2="192.021" stroke="black" stroke-width="7.35128" stroke-linecap="round"/>
<line x1="196.112" y1="177.16" x2="196.112" y2="192.021" stroke="black" stroke-width="7.35128" stroke-linecap="round"/>
<line x1="216.615" y1="175.452" x2="216.615" y2="190.313" stroke="black" stroke-width="7.35128" stroke-linecap="round"/>
<path d="M71.7899 121.411L74.9102 137.968" stroke="#303131" stroke-width="7.35128" stroke-linecap="round"/>
<line x1="94.8177" y1="150.438" x2="94.8177" y2="165.702" stroke="#303131" stroke-width="7.35128" stroke-linecap="round"/>
<line x1="111.904" y1="161.746" x2="111.904" y2="177.01" stroke="#303131" stroke-width="7.35128" stroke-linecap="round"/>
<line x1="132.408" y1="168.531" x2="132.408" y2="183.795" stroke="#303131" stroke-width="7.35128" stroke-linecap="round"/>
<line x1="154.62" y1="175.315" x2="154.62" y2="190.58" stroke="#303131" stroke-width="7.35128" stroke-linecap="round"/>
<line x1="175.124" y1="177.577" x2="175.124" y2="192.842" stroke="#303131" stroke-width="7.35128" stroke-linecap="round"/>
<line x1="195.627" y1="177.577" x2="195.627" y2="192.842" stroke="#303131" stroke-width="7.35128" stroke-linecap="round"/>
<line x1="216.131" y1="175.315" x2="216.131" y2="190.58" stroke="#303131" stroke-width="7.35128" stroke-linecap="round"/>
<line x1="233.218" y1="170.792" x2="233.218" y2="186.057" stroke="#303131" stroke-width="7.35128" stroke-linecap="round"/>
<line x1="253.722" y1="161.746" x2="253.722" y2="177.01" stroke="#303131" stroke-width="7.35128" stroke-linecap="round"/>
<path d="M175.63 196.964C171.879 200.997 168.25 203.195 166.729 204.065C163.547 205.893 161.631 206.437 160.574 206.706C158.626 207.189 155.533 207.922 150.937 207.416C148.571 207.152 144.591 206.774 141.841 204.849C139.488 203.213 139.456 201.449 139.455 201.311C139.452 199.996 140.579 199.214 141.072 198.885C141.636 198.494 142.692 198.088 144.917 197.364C146.136 196.977 146.948 196.697 147.882 196.423C148.817 196.149 149.528 195.972 149.632 195.934C155.667 194.327 160.602 189.782 160.602 189.782C161.657 188.786 162.731 187.66 163.743 186.412C164.487 185.495 165.121 184.591 165.651 183.725C165.651 183.725 170.463 183.517 174.204 183.111C180.568 182.408 181.776 181.341 182.948 181.888C184.889 182.804 182.975 186.541 180.035 191.095C178.678 193.199 177.629 194.847 175.643 196.981L175.63 196.964Z" fill="#FAEA84" stroke="#303131" stroke-width="7.35128" stroke-linecap="round" stroke-linejoin="round"/>
</svg>
