<svg width="1008" height="874" viewBox="0 0 1008 874" fill="none" xmlns="http://www.w3.org/2000/svg">
<path d="M802.707 523.661C805.373 539.643 805.14 550.523 804.957 554.96C804.58 564.251 803.407 568.356 802.724 570.518C801.423 574.494 799.316 580.697 793.504 585.685C790.497 588.253 785.58 592.683 779.39 591.333C774.108 590.179 771.158 585.523 770.909 585.141C768.723 581.603 768.637 577.957 768.607 576.401C768.56 574.554 769.04 572.028 770.227 567.019C770.879 564.3 771.315 562.438 771.862 560.415C772.409 558.392 772.877 556.941 772.935 556.713C776.771 544.113 774.496 525.104 774.496 525.104C772.769 510.729 768.879 498.639 768.879 498.639C766.257 490.478 763.666 485.213 765.973 481.519C767.444 479.154 770.265 478.513 775.907 477.229C781.593 475.94 778.879 468.138 781.238 468.996C785.003 470.326 792.575 481.897 797.621 501.88C800.41 512.969 801.827 518.511 802.691 523.712L802.707 523.661Z" fill="#C8E9F1" stroke="#303131" stroke-width="7.35128" stroke-linecap="round" stroke-linejoin="round"/>
<path d="M37.3554 394.366C27.7619 381.308 23.0582 371.495 21.2187 367.453C17.3617 358.993 16.5561 354.8 16.1888 352.562C15.5551 348.427 14.6349 341.941 17.5703 334.866C19.0939 331.218 21.4823 325.045 27.6147 323.456C32.8492 322.101 37.5836 324.924 37.9777 325.152C41.5253 327.323 43.248 330.537 43.9773 331.912C44.8523 333.539 45.5641 336.01 46.7665 341.015C47.4117 343.736 47.8631 345.595 48.2883 347.646C48.7135 349.698 48.9509 351.205 49.0016 351.434C51.2667 364.409 61.8766 380.344 61.8766 380.344C69.9068 392.392 78.8355 401.424 78.8355 401.424C84.8592 407.523 89.5471 411.051 89.1561 415.389C88.9115 418.163 86.6837 420.009 82.2282 423.701C77.7366 427.418 79.3286 432.484 76.8361 432.784C72.8762 433.296 65.2474 427.06 51.7253 411.506C44.2305 402.87 40.4651 398.564 37.3461 394.314L37.3554 394.366Z" fill="#C8E9F1" stroke="#303131" stroke-width="7.35128" stroke-linecap="round" stroke-linejoin="round"/>
<path d="M365.438 713.654C362.946 781.41 361.236 830.258 361.417 838.274C361.435 839.213 361.559 842.727 359.97 846.813C359.448 848.182 357.493 853.014 352.616 856.334C349.56 858.417 346.703 858.869 341.007 859.727C332.215 861.075 325.771 860.211 321.843 859.355C318.449 858.639 316.778 858.181 315.254 856.97C309.81 852.715 308.206 842.365 312.882 836.346C312.882 836.346 316.276 832.097 322.728 830.773C323.03 830.709 323.939 830.562 324.937 830.43C325.805 830.329 326.48 830.284 327.248 830.321C329.554 830.452 330.358 831.033 331.736 830.702C333.48 830.28 334.677 828.538 335.229 827.627C337.872 823.274 337.168 813.958 337.11 813.087C337.311 805.549 337.322 799.446 337.292 795.357C337.256 788.207 337.121 786.488 337.179 780.425C337.227 773.553 337.42 773.825 337.681 763.899C337.778 759.736 337.94 751.939 337.902 742.12C337.872 737.375 337.813 733.835 337.802 733.005C337.657 724.877 337.376 717.656 337.058 711.53" fill="#C8E9F1"/>
<path d="M365.438 713.654C362.946 781.41 361.236 830.258 361.417 838.274C361.435 839.213 361.559 842.727 359.97 846.813C359.448 848.182 357.493 853.014 352.616 856.334C349.56 858.417 346.703 858.869 341.007 859.727C332.215 861.075 325.771 860.211 321.843 859.355C318.449 858.639 316.778 858.181 315.254 856.97C309.81 852.715 308.206 842.365 312.882 836.346C312.882 836.346 316.276 832.097 322.728 830.773C323.03 830.709 323.939 830.562 324.937 830.43C325.805 830.329 326.48 830.284 327.248 830.321C329.554 830.452 330.358 831.033 331.736 830.702C333.48 830.28 334.677 828.538 335.229 827.627C337.872 823.274 337.168 813.958 337.11 813.087C337.311 805.549 337.322 799.446 337.292 795.357C337.256 788.207 337.121 786.488 337.179 780.425C337.227 773.553 337.42 773.825 337.681 763.899C337.778 759.736 337.94 751.939 337.902 742.12C337.872 737.375 337.813 733.835 337.802 733.005C337.657 724.877 337.376 717.656 337.058 711.53" stroke="#303131" stroke-width="7.35128" stroke-linecap="round" stroke-linejoin="round"/>
<path d="M508.416 698.236C512.525 771.853 515.387 824.922 515.372 833.636C515.372 834.636 515.318 838.485 517.117 842.874C517.732 844.344 519.935 849.546 525.303 853.085C528.676 855.298 531.783 855.704 537.993 856.548C547.573 857.823 554.58 856.76 558.827 855.766C562.492 854.901 564.306 854.387 565.921 853.046C571.753 848.301 573.294 837.013 568.081 830.577C568.081 830.577 564.324 826.024 557.251 824.702C556.903 824.633 555.927 824.48 554.832 824.388C553.877 824.301 553.149 824.266 552.297 824.32C549.784 824.507 548.946 825.173 547.423 824.826C545.508 824.386 544.187 822.54 543.562 821.537C540.605 816.859 541.159 806.698 541.228 805.756C540.865 797.562 540.727 790.933 540.658 786.47C540.543 778.689 540.659 776.849 540.473 770.228C540.262 762.76 540.075 763.059 539.585 752.283C539.385 747.753 539.065 739.284 538.9 728.621C538.831 723.456 538.819 719.627 538.822 718.706C538.813 709.848 538.975 702.001 539.199 695.351" fill="#C8E9F1"/>
<path d="M508.416 698.236C512.525 771.853 515.387 824.922 515.372 833.636C515.372 834.636 515.318 838.485 517.117 842.874C517.732 844.344 519.935 849.546 525.303 853.085C528.676 855.298 531.783 855.704 537.993 856.548C547.573 857.823 554.58 856.76 558.827 855.766C562.492 854.901 564.306 854.387 565.921 853.046C571.753 848.301 573.294 837.013 568.081 830.577C568.081 830.577 564.324 826.024 557.251 824.702C556.903 824.633 555.927 824.48 554.832 824.388C553.877 824.301 553.149 824.266 552.297 824.32C549.784 824.507 548.946 825.173 547.423 824.826C545.508 824.386 544.187 822.54 543.562 821.537C540.605 816.859 541.159 806.698 541.228 805.756C540.865 797.562 540.727 790.933 540.658 786.47C540.543 778.689 540.659 776.849 540.473 770.228C540.262 762.76 540.075 763.059 539.585 752.283C539.385 747.753 539.065 739.284 538.9 728.621C538.831 723.456 538.819 719.627 538.822 718.706C538.813 709.848 538.975 702.001 539.199 695.351" stroke="#303131" stroke-width="7.35128" stroke-linecap="round" stroke-linejoin="round"/>
<path d="M435.094 726.379C634.508 726.379 796.164 564.723 796.164 365.31C796.164 165.897 634.508 4.24023 435.094 4.24023C235.681 4.24023 74.0249 165.897 74.0249 365.31C74.0249 564.723 235.681 726.379 435.094 726.379Z" fill="#76D3EF" stroke="#303131" stroke-width="7.35128" stroke-linecap="round" stroke-linejoin="round"/>
<path d="M370.748 353.585C375.877 357.567 383.263 356.637 387.245 351.508C391.227 346.38 390.297 338.994 385.168 335.012C380.04 331.03 372.654 331.959 368.672 337.088C364.69 342.217 365.619 349.603 370.748 353.585Z" fill="#303131"/>
<path d="M464.405 352.034C469.625 355.636 476.776 354.326 480.379 349.107C483.982 343.888 482.672 336.736 477.453 333.133C472.233 329.53 465.082 330.84 461.479 336.06C457.876 341.279 459.186 348.431 464.405 352.034Z" fill="#303131"/>
<path d="M432.206 353.748C432.206 353.748 437.958 363.453 435.607 365.533C433.248 367.602 427.587 368.383 427.587 368.383" stroke="#303131" stroke-width="7.35128" stroke-linecap="round" stroke-linejoin="round"/>
<path d="M510.127 327.295C507.581 322.776 502.283 314.902 493.098 309.502C484.438 304.411 476.265 303.837 471.627 303.94" stroke="#303131" stroke-width="7.35128" stroke-linecap="round" stroke-linejoin="round"/>
<path d="M349.951 330.274C352.362 326.097 357.368 318.824 365.976 313.866C374.092 309.193 381.715 308.706 386.038 308.828" stroke="#303131" stroke-width="7.35128" stroke-linecap="round" stroke-linejoin="round"/>
<path d="M655.123 99.5755C656.847 101.518 658.2 103.853 660.907 108.481C662.369 110.991 663.155 112.562 663.57 114.723C663.788 115.858 664.224 118.106 663.57 120.507C662.806 123.322 661.147 124.37 659.117 126.749C656.738 129.521 655.319 133.21 652.438 140.543C650.67 145.039 650.976 145.148 649.317 149.012C647.767 152.635 646.873 154.708 645.301 157.48C644.188 159.445 643.402 160.601 642.638 162.828C641.94 164.814 641.416 166.342 641.743 168.175C642.136 170.379 643.533 171.754 645.301 173.522C646.043 174.243 648.029 176.12 651.543 177.975C655.909 180.267 656.891 179.546 659.117 181.533C659.685 182.056 661.933 184.108 662.675 187.316C663.177 189.499 663.133 192.729 663.111 192.664C662.915 193.995 662.391 195.85 660.885 197.116C658.986 198.71 657.218 197.924 652.416 198.906C649.361 199.517 646.916 200.063 644.843 202.027C644.406 202.442 642.66 204.123 642.18 206.48C641.198 211.282 646.611 213.508 651.085 222.5C653.42 227.215 652.526 227.782 655.538 233.631C656.956 236.382 658.506 239.328 661.321 242.537C663.548 245.047 666.341 248.211 671.121 250.11C673.457 251.027 678.193 252.904 683.148 251.005C687.447 249.346 689.674 245.679 691.616 242.537C693.297 239.808 694.432 237.975 694.737 235.421C695.676 227.717 687.775 224.988 688.058 216.716C688.189 213.246 689.586 213.748 690.721 206.916C691.005 205.258 691.201 202.376 691.616 196.68C691.856 193.253 692.249 189.848 692.511 186.443C692.882 181.533 692.948 179.874 694.301 178.87C696.243 177.451 699.255 178.564 700.085 178.87C703.708 180.201 704.275 182.646 708.553 187.338C711.587 190.656 711.456 189.608 717.895 195.807C719.794 197.64 721.387 199.255 724.574 202.486C728.808 206.785 729.615 207.746 732.147 210.059C733.544 211.325 736.6 214.075 736.6 214.075C736.927 214.534 738.237 216.258 740.616 216.738C743.104 217.24 745.57 216.127 746.858 214.512C749.019 211.784 747.731 207.811 746.858 205.17C745.483 200.914 743.671 199.452 740.616 194.934C736.512 188.888 738.302 189.39 733.042 180.681C732.3 179.459 727.957 172.3 726.363 168.219C726.145 167.673 725.076 166.32 725.032 164.421C724.988 162.587 725.839 161.562 726.167 160.623C727.455 156.956 721.998 152.286 717 146.414C713.835 142.682 711.412 138.36 708.531 134.388C699.102 121.38 700.194 122.144 697.4 118.804C692.707 113.195 692.074 113.915 681.38 103.657C675.683 98.2004 676.316 98.4187 665.796 88.0731C656.673 79.1026 654.25 77.0291 650.649 74.7155C647.942 72.9913 643.904 70.6995 639.954 68.4733C632.489 64.2608 632.598 64.6319 630.612 63.1259C628.342 61.4234 626.924 60.0047 626.16 60.4631C625.636 60.7905 625.745 61.8599 626.596 66.7053C627.316 70.7213 627.666 72.7512 627.928 73.3841C629.193 76.4616 631.267 77.5747 634.17 80.0629C640.499 85.5195 638.644 87.1346 644.406 92.0891C649.623 96.5635 651.151 95.2321 655.101 99.6628L655.123 99.5755Z" fill="#C2FA67" stroke="#303131" stroke-width="7.35128" stroke-linecap="round" stroke-linejoin="round"/>
<path d="M214.563 115.947C211.529 115.27 212.249 113.699 213.188 111.844C218.077 102.218 225.694 95.2994 235.036 90.2576C240.034 87.5511 245.316 85.3685 250.511 83.0331C251.515 82.5748 252.737 82.4438 253.872 82.4657C256.906 82.5093 258.128 84.561 256.36 86.9837C255.203 88.5551 253.479 89.9084 251.733 90.7596C246.298 93.4224 240.689 95.7359 235.232 98.3114C229.077 101.214 224.145 105.449 221.198 111.8C219.932 114.528 218.339 117.256 214.607 115.947H214.563Z" fill="#E9FFC5"/>
<path d="M201.882 119.157C202.296 119.681 203.628 120.641 203.759 121.732C204.086 124.46 201.991 127.385 200.135 127.123C198.411 126.861 196.425 126.403 196.381 124.024C196.316 121.514 198.433 119.288 201.882 119.157Z" fill="#E9FFC5"/>
<path d="M160.716 180.419C157.355 180.79 157.53 178.935 157.857 176.665C159.472 164.988 164.885 155.167 172.721 146.654C176.911 142.093 181.582 137.968 186.122 133.733C186.995 132.904 188.217 132.336 189.374 131.965C192.517 130.94 194.503 132.62 193.543 135.741C192.91 137.771 191.6 139.779 190.094 141.285C185.445 145.956 180.469 150.343 175.755 154.948C170.429 160.143 166.849 166.232 166.064 173.828C165.714 177.102 165.038 180.485 160.716 180.441V180.419Z" fill="#E9FFC5"/>
<path d="M947.212 311.603C980.754 292.922 992.8 250.587 974.118 217.046C955.437 183.505 913.102 171.459 879.561 190.14C846.02 208.822 833.974 251.156 852.655 284.697C871.337 318.239 913.671 330.285 947.212 311.603Z" fill="#C5C0B8" stroke="#303131" stroke-width="7.35128" stroke-linecap="round" stroke-linejoin="round"/>
<path d="M891.7 252.706C894.301 251.257 895.235 247.974 893.786 245.373C892.338 242.772 889.055 241.838 886.453 243.286C883.852 244.735 882.918 248.018 884.367 250.619C885.816 253.221 889.099 254.155 891.7 252.706Z" fill="black"/>
<path d="M938.06 247.848C940.661 246.399 941.596 243.116 940.147 240.515C938.698 237.914 935.415 236.98 932.814 238.429C930.213 239.877 929.278 243.16 930.727 245.762C932.176 248.363 935.459 249.297 938.06 247.848Z" fill="black"/>
<path d="M909.317 251.414C909.317 251.414 905.112 259.877 905.832 261.574C906.553 263.271 914.601 264.085 914.601 264.085" stroke="#303131" stroke-width="7.35128" stroke-linecap="round" stroke-linejoin="round"/>
<path d="M869.849 230.028C869.849 230.028 874.732 224.485 877.943 222.671C881.155 220.858 889.313 219.087 889.313 219.087" stroke="#303131" stroke-width="7.35128" stroke-linecap="round" stroke-linejoin="round"/>
<path d="M929.066 213.758C929.066 213.758 936.439 213.225 939.989 214.171C943.539 215.116 950.616 219.569 950.616 219.569" stroke="#303131" stroke-width="7.35128" stroke-linecap="round" stroke-linejoin="round"/>
<path d="M874.717 287.122C873.867 289.095 872.908 288.405 871.765 287.517C865.875 282.953 862.156 276.905 859.959 269.909C858.776 266.171 857.968 262.299 857.065 258.48C856.895 257.725 856.956 256.892 857.107 256.133C857.544 254.091 859.072 253.515 860.488 255.025C861.411 256.009 862.086 257.357 862.457 258.65C863.555 262.685 864.411 266.78 865.442 270.828C866.632 275.386 868.847 279.274 872.764 282.089C874.459 283.294 876.097 284.755 874.707 287.103L874.717 287.122Z" fill="white"/>
<path d="M860.295 241.044C860.876 241.37 862.456 241.739 863.017 242.701C864.355 245.103 863.564 248.617 861.737 249.06C860.026 249.488 858.038 249.821 857.071 247.636C856.06 245.326 857.163 242.463 860.295 241.044Z" fill="white"/>
<path d="M180.405 427.361C180.579 427.405 180.361 429.522 180.056 431.814C180.361 430.395 180.667 428.169 180.187 425.637C178.179 415.204 165.89 414.855 159.845 403.352C156.593 397.176 156.745 390.846 156.898 384.211C157.16 373.625 160.238 372.73 159.845 365.222C159.343 355.88 153.646 355.378 148.495 340.493C143.955 327.376 145.701 325.302 141.271 315.764C135.509 303.323 131.209 304 127.869 294.113C124.334 283.68 125.927 273.552 127.869 266.284C129.79 259.104 132.977 247.252 144.086 240.639C146.094 239.438 155.96 233.567 167.025 237.43C168.881 238.085 176.76 241.097 180.427 248.78C184.093 256.441 179.445 260.675 182.478 272.483C182.849 273.902 185.861 285.666 190.729 285.884C193.784 286.015 196.272 281.563 198.979 276.608C204.457 266.568 203.279 262.443 207.229 253.931C207.949 252.359 211.987 243.891 220.412 236.688C225.345 232.476 230.496 230.184 240.579 225.797C258.848 217.852 260.572 219.882 263.977 215.713C271.529 206.459 265.09 193.778 273.1 188.823C273.537 188.561 273.45 188.649 282.18 186.423C290.387 184.327 294.49 183.28 295.887 182.821C304.355 180.049 303.81 177.387 313.566 172.607C322.209 168.372 323.562 169.987 333.799 165.164C342.704 160.973 347.2 158.856 348.008 154.775C349.383 148.03 339.561 141.504 341.962 137.641C342.704 136.463 344.188 136.179 345.432 135.961C365.359 132.294 363.395 132.381 364.945 132.294C383.388 131.443 384.566 132.206 387.622 130.242C392.926 126.837 394.825 121.075 395.872 117.867C396.265 116.666 399.495 106.343 394.432 96.1497C391.594 90.4531 389.936 92.3956 383.693 84.058C377.473 75.7641 376.491 70.3731 369.921 66.0515C367.826 64.6765 365.403 63.5633 362.478 63.4542C361.518 63.4105 358.528 63.3451 355.756 65.0693C353.268 66.6408 352.46 68.7361 350.321 73.4724C347.004 80.7623 345.323 84.4073 343.948 85.9569C341.831 88.336 338.841 89.9074 332.882 93.0504C328.91 95.1457 326.749 96.2807 323.431 97.4156C320.048 98.5724 318.848 98.5942 316.949 99.9693C314.199 101.955 314.483 103.592 311.995 106.495C309.681 109.202 304.552 113.48 300.187 112.083C297.109 111.101 295.712 107.739 295.472 107.106C293.748 102.676 296.716 100.209 297.371 93.5961C298.069 86.5244 295.145 86.0006 295.254 77.7067C295.276 75.3713 295.363 69.8056 298.44 65.0039C299.51 63.3232 302.304 59.6346 314.33 55.4658C325.592 51.559 328.604 52.8904 341.329 49.1144C349.339 46.7354 353.442 45.4913 357.742 42.2392C360.841 39.9038 369.092 33.9671 369.921 24.2327C370.052 22.6175 370.532 17.5757 368.328 14.6947C359.27 2.8649 306.342 28.6415 292.242 35.4949C271.878 45.404 248.437 56.8191 220.041 78.6234C206.989 88.6415 176.192 113.676 146.705 153.967C133.282 172.301 120.449 190.111 111.325 217.132C105.061 235.662 103.009 251.224 101.438 263.054C99.2117 279.947 97.5093 293.654 100.914 311.246C102.922 321.635 105.978 329.733 107.266 332.963C113.508 348.656 117.742 349.595 124.203 364.742C129.812 377.903 127.215 378.601 133.741 394.404C137.407 403.287 140.66 411.035 147.513 419.831C155.85 430.548 160.892 437.008 169.23 438.885C171.674 439.453 175.276 439.802 176.105 442.072C177.24 445.106 172.002 447.637 171.871 453.203C171.784 457.197 174.446 458.092 175.581 462.741C177.044 468.656 174.403 474.047 172.94 477.037C167.898 487.361 161.045 485.942 157.051 494.52C153.035 503.185 156.331 512.57 157.051 514.644C160.172 523.527 164.952 523.178 170.823 533.174C176.28 542.494 173.333 544.829 178.768 557.532C180.863 562.443 181.125 561.657 192.54 579.773C204.654 598.98 204.85 600.66 209.477 604.655C215.087 609.5 217.989 609.827 224.297 616.31C229.601 621.744 232.7 626.786 234.359 629.558C239.597 638.223 239.008 641.868 244.421 653.392C247.084 659.962 250.794 667.427 256.032 675.131C258.106 678.165 260.237 680.061 262.31 682.571C279.397 691.114 292.877 697.372 302.464 701.366C312.715 705.638 315.278 706.492 324.676 709.055C327.928 709.404 337.007 711.493 351.653 709.704C351.653 709.704 363.264 708.285 372.038 704.793C372.038 704.793 378.237 702.217 381.663 697.961C381.838 697.743 381.969 697.547 382.1 697.372C384.152 694.425 383.628 693.159 385.287 691.544C388.888 688.052 395.239 690.235 401.176 691.021C413.289 692.592 423.308 688.205 431.362 684.669C440.332 680.719 447.775 677.466 452.009 669.849C454.17 665.964 454.672 662.45 458.884 657.146C461.896 653.349 464.865 651.079 467.353 649.202C477.524 641.541 481.191 643.571 486.953 637.547C490.925 633.4 492.671 628.794 494.374 624.298C500.659 613.974 500.441 609.194 498.739 606.75C496.141 603.018 489.179 603.476 480.077 598.893C471.609 594.615 471.216 593.37 465.257 590.948C457.837 587.936 455.458 588.547 441.423 585.12C432.278 582.894 427.695 581.781 424.486 580.362C412.111 574.884 413.071 569.689 401.176 564.997C396.876 563.294 390.83 560.566 383.169 560.762C377.691 560.893 374.264 562.377 373.522 561.024C372.846 559.78 375.508 558.209 376.818 554.411C378.695 548.911 376.12 543.432 375.749 542.756C372.671 537.015 368.721 538.107 365.163 532.17C362.347 527.456 364.203 525.688 361.452 522.108C360.296 520.602 358.244 518.66 347.68 515.757C338.884 513.334 336.527 513.64 328.626 511.523C321.205 509.536 317.516 508.554 314.854 506.764C308.764 502.639 309.092 498.383 301.081 484C296.694 476.121 293.835 471.057 288.379 465.469C286.676 463.723 282.289 459.445 275.676 455.408C273.799 454.251 267.186 450.344 257.669 447.463C249.943 445.106 247.607 445.651 243.373 442.705C239.772 440.195 241.016 439.496 235.428 434.236C230.256 429.347 226.545 425.855 221.132 424.698C219.474 424.349 217.771 424.24 215.305 423.105C212.205 421.686 211.944 420.486 209.477 419.395C205.527 417.627 201.554 418.609 200.485 418.871C197.975 419.482 196.185 420.639 192.016 424.174C183.482 431.399 180.47 435.459 179.314 434.76C177.96 433.974 180.099 427.492 180.427 427.557L180.405 427.361Z" fill="#C2FA67" stroke="#303131" stroke-width="7.35128" stroke-linecap="round" stroke-linejoin="round"/>
<path d="M777.035 251.219C775.244 251.26 773.24 255.246 772.558 257.936C771.634 261.558 772.935 263.557 771.264 266.526C770.966 267.064 769.821 269.087 767.569 270.032C764.037 271.511 760.165 269.314 756.507 267.231C753.732 265.652 751.769 263.898 750.511 262.773C749.231 261.604 747.717 260.233 746.325 258.362C742.93 253.754 744.214 251.451 740.897 246.365C739.512 244.232 738.188 242.254 735.639 241.205C732.983 240.088 730.459 240.589 728.461 241.017C724.465 241.873 721.837 243.835 717.893 246.854C713.616 250.126 711.349 251.639 710.885 253.504C710.249 256.129 711.683 258.067 710.321 260.869C709.653 262.227 708.669 263.119 707.978 263.624C707.667 263.835 707.157 264.127 706.518 264.372C705.724 264.679 704.338 265.057 702.337 264.765C697.573 264.094 694.002 260.42 690.945 261.235C690 261.494 688.428 262.326 686.478 267.581C683.519 275.538 685.154 278.965 683.697 291.219C682.915 297.771 682.183 299.018 681.891 305.189C681.659 309.877 682.007 310.738 681.335 313.079C679.898 317.91 676.771 319.771 672.416 324.329C668.913 328.015 666.863 331.258 662.72 337.722C660.307 341.501 656.685 347.258 653.641 355.082C650.457 363.295 649.372 369.708 648.022 377.925C646.518 386.969 645.789 391.491 646.562 396.14C647.32 400.548 648.632 402.984 648.993 409.195C649.171 412.409 649.133 417.189 649.107 418.171C649.061 421.598 648.953 424.084 648.938 424.63C648.627 432.351 650.46 445.717 653.784 458.882C656.297 468.795 658.418 473.676 659.451 475.908C661.909 481.256 663.544 484.705 667.049 487.592C670.126 490.139 673.566 491.365 683.072 492.684C697.061 494.6 704.044 495.569 710.698 494.127C717 492.764 727.32 490.545 734.002 482.161C737.523 477.756 738.733 473.268 744.748 469.517C746.723 468.281 750.763 465.767 754.152 467.253C757.563 468.739 758.4 473.434 758.935 476.352C759.853 481.332 758.949 484.168 756.62 496.4C755.053 504.546 755.558 502.769 754.093 510.351C754.093 510.351 753.386 514 751.966 523.221C751.6 525.525 751.619 527.273 751.419 530.761C751.114 535.731 750.983 538.216 751.308 538.334C752.735 538.874 759.291 526.142 765.214 511.734C769.831 500.501 774.049 490.349 780.884 469.517C787.402 449.651 792.472 418.803 793.368 410.443C793.511 409.136 794.634 399.791 795.407 376.724C796.037 357.929 795.749 336.183 794.838 326.793C794.25 320.882 792.583 312.018 789.226 294.31C782.128 256.854 779.241 251.19 777.057 251.241L777.035 251.219Z" fill="#C2FA67" stroke="#303131" stroke-width="7.35128" stroke-linecap="round" stroke-linejoin="round"/>
<path opacity="0.4" d="M390.198 720.594C434.832 715.857 538.397 698.484 628.954 617.487C646.786 601.532 680.245 571.085 707.266 521.387C753.319 436.614 762.551 338.397 762.551 220.514C762.551 220.514 766.472 212.343 775.758 245.158C780.421 261.638 792.077 315.287 793.915 331.478C804.545 425.112 774.687 495.567 768.051 510.539C730.925 594.395 669.07 639.379 644.145 657.516C634.039 664.872 625.811 670.066 623.846 671.289C593.726 690.19 543.439 715.312 477.72 722.449C456.724 724.719 426.495 726.007 390.22 720.55L390.198 720.594Z" fill="#33637C"/>
<path d="M435.094 726.379C634.508 726.379 796.164 564.723 796.164 365.31C796.164 165.897 634.508 4.24023 435.094 4.24023C235.681 4.24023 74.0249 165.897 74.0249 365.31C74.0249 564.723 235.681 726.379 435.094 726.379Z" stroke="#303131" stroke-width="7.35128" stroke-linecap="round" stroke-linejoin="round"/>
<path d="M379.389 402.498C383.009 396.125 400.896 405.616 429.798 405.697C461.465 405.819 478.247 394.537 482.35 401.059C486.171 407.205 474.652 422.512 464.671 430.139C463.353 431.137 457.842 435.227 449.542 438.149C442.336 440.694 436.365 441.155 433.946 441.3C430.545 441.474 424.28 441.516 416.877 439.533C399.82 434.985 390.136 423.375 387.966 420.645C383.202 414.659 376.944 406.828 379.389 402.498Z" fill="#C8E9F1" stroke="#303131" stroke-width="7.35128" stroke-linecap="round" stroke-linejoin="round"/>
<path d="M900.846 282.82C900.846 282.82 910.248 287.745 919.61 285.854C928.973 283.962 935.019 275.986 935.019 275.986" stroke="#303131" stroke-width="7.35128" stroke-linecap="round" stroke-linejoin="round"/>
</svg>
