<svg xmlns="http://www.w3.org/2000/svg" width="942" height="833" fill="none" viewBox="0 0 942 833"><g filter="url(#filter0_d_3214_10201)"><path fill="#C8E9F1" stroke="#303131" stroke-linecap="round" stroke-linejoin="round" stroke-width="7.169" d="M819.693 282.254C826.991 273.005 830.655 265.99 832.093 263.099C835.107 257.047 835.798 254.02 836.121 252.403C836.684 249.413 837.515 244.722 835.559 239.508C834.543 236.818 832.961 232.273 828.544 230.965C824.774 229.849 821.263 231.782 820.971 231.938C818.338 233.427 817.006 235.72 816.442 236.701C815.765 237.862 815.186 239.639 814.187 243.247C813.65 245.208 813.276 246.547 812.915 248.028C812.555 249.508 812.345 250.598 812.302 250.763C810.332 260.136 802.223 271.451 802.223 271.451C796.086 280.006 789.371 286.346 789.371 286.346C784.841 290.629 781.346 293.076 781.522 296.238C781.63 298.26 783.203 299.657 786.349 302.452C789.52 305.265 788.237 308.907 790.04 309.187C792.905 309.659 798.605 305.317 808.821 294.352C814.484 288.262 817.328 285.227 819.701 282.216L819.693 282.254Z"/><path fill="#C8E9F1" d="M717.063 557.341C761.638 576.258 793.745 589.956 798.856 592.519C799.456 592.817 801.681 593.971 804.861 594.129C805.922 594.189 809.709 594.324 813.517 592.003C815.906 590.549 817.174 588.735 819.675 585.105C823.549 579.509 825.193 574.844 825.984 571.9C826.682 569.363 826.957 568.082 826.696 566.672C825.811 561.658 819.68 557.413 814.198 558.776C814.198 558.776 810.296 559.801 807.237 563.806C807.092 563.993 806.686 564.569 806.261 565.211C805.899 565.773 805.639 566.22 805.4 566.756C804.697 568.371 804.797 569.098 804.112 569.938C803.244 571.001 801.711 571.289 800.934 571.388C797.222 571.869 791.452 568.553 790.909 568.249C785.976 566.092 782.034 564.242 779.405 562.978C774.804 560.777 773.741 560.161 769.808 558.356C765.358 556.297 765.467 556.512 758.972 553.67C756.253 552.469 751.166 550.206 744.842 547.192C741.791 545.728 739.527 544.61 738.995 544.35C733.799 541.778 729.235 539.388 725.391 537.307"/><path stroke="#303131" stroke-linecap="round" stroke-linejoin="round" stroke-width="7.169" d="M717.063 557.341C761.638 576.258 793.745 589.956 798.856 592.519C799.456 592.817 801.681 593.971 804.861 594.129C805.922 594.189 809.709 594.324 813.517 592.003C815.906 590.549 817.174 588.735 819.675 585.105C823.549 579.509 825.193 574.844 825.984 571.9C826.682 569.363 826.957 568.082 826.696 566.672C825.811 561.658 819.68 557.413 814.198 558.776C814.198 558.776 810.296 559.801 807.237 563.806C807.092 563.993 806.686 564.569 806.261 565.211C805.899 565.773 805.639 566.22 805.4 566.756C804.697 568.371 804.797 569.098 804.112 569.938C803.244 571.001 801.711 571.289 800.934 571.388C797.222 571.869 791.452 568.553 790.909 568.249C785.976 566.092 782.034 564.242 779.405 562.978C774.804 560.777 773.741 560.161 769.808 558.356C765.358 556.297 765.467 556.512 758.972 553.67C756.253 552.469 751.166 550.206 744.842 547.192C741.791 545.728 739.527 544.61 738.995 544.35C733.799 541.778 729.235 539.388 725.391 537.307"/><path fill="#C8E9F1" d="M492.218 620.835C475.853 672.392 464.127 709.572 462.541 715.742C462.358 716.45 461.691 719.182 459.625 722.047C458.926 723.005 456.428 726.39 452.017 728.174C449.248 729.287 446.995 729.157 442.487 728.92C435.539 728.535 430.822 726.84 428.026 725.566C425.616 724.461 424.438 723.854 423.552 722.687C420.333 718.545 421.32 710.348 426.153 706.493C426.153 706.493 429.621 703.775 434.821 703.79C435.078 703.787 435.79 703.811 436.574 703.892C437.259 703.959 437.776 704.032 438.364 704.185C440.091 704.655 440.556 705.239 441.688 705.198C443.111 705.145 444.375 704.015 444.996 703.389C447.926 700.475 449.399 693.209 449.523 692.533C451.278 686.781 452.589 682.107 453.455 678.958C454.961 673.466 455.217 672.147 456.56 667.486C458.075 662.228 458.152 662.465 460.469 654.903C461.439 651.724 463.214 645.772 465.283 638.246C466.277 634.599 466.987 631.891 467.154 631.239C468.782 624.97 470.107 619.393 471.167 614.656"/><path stroke="#303131" stroke-linecap="round" stroke-linejoin="round" stroke-width="7.169" d="M492.218 620.835C475.853 672.392 464.127 709.572 462.541 715.742C462.358 716.45 461.691 719.182 459.625 722.047C458.926 723.005 456.428 726.39 452.017 728.174C449.248 729.287 446.995 729.157 442.487 728.92C435.539 728.535 430.822 726.84 428.026 725.566C425.616 724.461 424.438 723.854 423.552 722.687C420.333 718.545 421.32 710.348 426.153 706.493C426.153 706.493 429.621 703.775 434.821 703.79C435.078 703.787 435.79 703.811 436.574 703.892C437.259 703.959 437.776 704.032 438.364 704.185C440.091 704.655 440.556 705.239 441.688 705.198C443.111 705.145 444.375 704.015 444.996 703.389C447.926 700.475 449.399 693.209 449.523 692.533C451.278 686.781 452.589 682.107 453.455 678.958C454.961 673.466 455.217 672.147 456.56 667.486C458.075 662.228 458.152 662.465 460.469 654.903C461.439 651.724 463.214 645.772 465.283 638.246C466.277 634.599 466.987 631.891 467.154 631.239C468.782 624.97 470.107 619.393 471.167 614.656"/><path fill="#76D3EF" stroke="#303131" stroke-linecap="round" stroke-linejoin="round" stroke-width="7.169" d="M594.076 612.043C449.582 651.678 306.883 573.239 275.348 436.846C243.814 300.452 335.386 157.753 479.881 118.118C624.375 78.483 767.074 156.921 798.608 293.315C830.143 429.709 738.57 572.408 594.076 612.043Z"/><path fill="#303131" d="M626.312 320.011C623.353 323.783 617.979 324.525 614.31 321.669C610.641 318.813 610.066 313.439 613.025 309.668C615.984 305.896 621.357 305.153 625.026 308.01C628.695 310.866 629.271 316.239 626.312 320.011Z"/><path fill="#303131" d="M559.994 335.547C556.905 339.066 551.629 339.496 548.21 336.507C544.791 333.518 544.523 328.243 547.612 324.723C550.701 321.204 555.977 320.775 559.396 323.763C562.815 326.752 563.083 332.028 559.994 335.547Z"/><path stroke="#303131" stroke-linecap="round" stroke-linejoin="round" stroke-width="7.169" d="M589.692 331.475C589.692 331.475 597.207 334.344 596.77 336.616C596.323 338.886 593.428 341.95 593.428 341.95"/><path stroke="#303131" stroke-linecap="round" stroke-linejoin="round" stroke-width="7.169" d="M523.302 326.318C524.345 322.716 526.771 316.279 532.351 310.831C537.612 305.695 543.283 303.777 546.572 302.986"/><path stroke="#303131" stroke-linecap="round" stroke-linejoin="round" stroke-width="7.169" d="M636.789 299.973C634.395 297.374 629.657 293.007 622.765 291.059C616.268 289.223 610.815 290.373 607.788 291.319"/><path fill="#C2FA67" stroke="#303131" stroke-linecap="round" stroke-linejoin="round" stroke-width="7.169" d="M336.512 216.871C335.559 218.558 334.941 220.442 333.698 224.18C333.028 226.206 332.703 227.449 332.745 229.024C332.767 229.852 332.806 231.491 333.67 233.018C334.68 234.808 336.063 235.199 337.931 236.434C340.118 237.871 341.747 240.133 345.031 244.618C347.046 247.368 346.84 247.504 348.673 249.839C350.388 252.03 351.375 253.282 352.97 254.88C354.1 256.013 354.861 256.654 355.777 258.038C356.606 259.269 357.235 260.219 357.288 261.55C357.353 263.151 356.549 264.381 355.536 265.956C355.107 266.602 353.952 268.297 351.674 270.283C348.841 272.741 348.006 272.441 346.693 274.259C346.36 274.734 345.041 276.602 345.01 278.966C344.992 280.574 345.54 282.795 345.546 282.746C345.903 283.625 346.583 284.801 347.889 285.373C349.536 286.092 350.706 285.195 354.381 284.91C356.718 284.719 358.597 284.605 360.431 285.545C360.817 285.744 362.365 286.554 363.094 288.085C364.582 291.203 360.971 293.826 359.13 300.933C358.173 304.656 358.919 304.869 357.648 309.512C357.048 311.695 356.383 314.04 354.833 316.82C353.603 319 352.062 321.746 348.863 324.016C347.298 325.117 344.128 327.364 340.193 327.047C336.777 326.764 334.559 324.679 332.633 322.899C330.965 321.352 329.84 320.314 329.208 318.612C327.288 313.481 332.642 310.012 331.111 304.358C330.46 301.988 329.517 302.615 327.592 298.126C327.119 297.037 326.514 295.087 325.299 291.238C324.575 288.92 323.743 286.648 323.007 284.349C321.949 281.033 321.636 279.901 320.484 279.479C318.833 278.89 316.804 280.262 316.245 280.64C313.803 282.286 313.778 284.088 311.394 288.186C309.701 291.085 309.63 290.336 305.903 295.907C304.804 297.554 303.895 298.989 302.076 301.858C299.661 305.677 299.223 306.502 297.738 308.607C296.916 309.761 295.117 312.273 295.117 312.273C294.95 312.655 294.267 314.109 292.6 314.918C290.857 315.763 288.871 315.49 287.67 314.633C285.65 313.183 285.958 310.182 286.176 308.183C286.503 304.969 287.596 303.596 289.113 299.863C291.153 294.866 289.922 295.571 292.384 288.503C292.732 287.51 294.77 281.696 295.285 278.558C295.357 278.138 295.925 276.989 295.653 275.669C295.392 274.395 294.604 273.857 294.214 273.275C292.684 271.001 295.935 266.682 298.659 261.625C300.381 258.413 301.466 254.944 302.942 251.623C307.771 240.75 307.093 241.496 308.607 238.63C311.148 233.815 311.727 234.186 317.924 224.957C321.226 220.047 320.797 220.325 326.852 211.071C332.103 203.047 333.546 201.129 335.815 198.809C337.523 197.076 340.115 194.683 342.654 192.354C347.451 187.948 347.43 188.226 348.645 186.787C350.036 185.157 350.849 183.892 351.482 184.056C351.918 184.176 352.009 184.937 352.16 188.453C352.275 191.37 352.343 192.842 352.253 193.331C351.817 195.71 350.476 196.895 348.746 199.195C344.981 204.232 346.599 204.975 343.168 209.552C340.061 213.688 338.729 213.075 336.542 216.927L336.512 216.871Z"/><path fill="#E9FFC5" d="M648.178 149.253C650.257 148.195 649.491 147.27 648.523 146.196C643.487 140.625 636.911 137.43 629.387 135.85C625.361 134.998 621.212 134.558 617.102 133.997C616.306 133.884 615.405 134.037 614.591 134.275C612.412 134.904 611.854 136.538 613.508 137.834C614.589 138.673 616.044 139.252 617.436 139.485C621.771 140.221 626.176 140.685 630.512 141.357C635.403 142.114 639.623 144.015 642.745 147.747C644.086 149.349 645.663 150.888 648.146 149.262L648.178 149.253Z"/><path fill="#E9FFC5" d="M657.759 150.214C657.541 150.655 656.726 151.578 656.804 152.352C656.999 154.286 658.983 155.873 660.288 155.324C661.498 154.802 662.867 154.092 662.522 152.453C662.172 150.721 660.282 149.617 657.759 150.214Z"/><path fill="#E9FFC5" d="M697.55 185.247C700.062 184.83 699.639 183.587 699.039 182.09C696 174.373 690.485 168.694 683.41 164.401C679.624 162.099 675.558 160.193 671.57 158.186C670.801 157.789 669.818 157.643 668.915 157.619C666.458 157.542 665.276 159.096 666.474 161.053C667.259 162.324 668.535 163.445 669.874 164.18C674.011 166.466 678.342 168.491 682.517 170.718C687.231 173.229 690.814 176.706 692.597 181.778C693.373 183.963 694.406 186.157 697.553 185.262L697.55 185.247Z"/><path fill="#C2FA67" stroke="#303131" stroke-linecap="round" stroke-linejoin="round" stroke-width="7.169" d="M728.879 361.732C728.76 361.795 729.274 363.232 729.881 364.775C729.421 363.842 728.826 362.345 728.746 360.486C728.436 352.82 737.237 350.247 739.659 341.069C740.963 336.14 739.786 331.749 738.558 327.145C736.586 319.802 734.216 319.761 733.235 314.443C732.023 307.825 736.046 306.395 737.252 295.024C738.315 285.003 736.707 283.887 738.295 276.386C740.354 266.607 743.568 266.264 744.31 258.727C745.102 250.772 742.247 244.002 739.622 239.295C737.027 234.644 732.733 226.972 723.608 224.46C721.958 224.002 713.856 221.772 706.528 226.567C705.3 227.376 700.127 230.973 698.777 237.033C697.424 243.077 701.489 245.153 701.291 253.973C701.263 255.034 701.073 263.82 697.6 264.895C695.419 265.566 692.875 262.928 690.089 259.981C684.447 254.009 684.602 250.905 680.319 245.71C679.535 244.749 675.197 239.6 667.909 236.168C663.643 234.161 659.543 233.537 651.533 232.385C637.022 230.299 636.121 232.044 632.964 229.778C625.96 224.747 628.466 214.672 621.855 212.73C621.497 212.63 621.574 212.674 614.904 212.774C608.634 212.867 605.499 212.913 604.414 212.858C597.841 212.527 597.786 210.564 589.946 209.075C583.001 207.757 582.297 209.141 574.104 207.713C566.977 206.475 563.378 205.848 562.109 203.151C559.981 198.702 565.963 192.284 563.581 190.041C562.848 189.359 561.73 189.442 560.796 189.525C545.81 190.742 547.241 190.43 546.109 190.663C532.667 193.564 531.946 194.321 529.412 193.528C525.014 192.156 522.674 188.492 521.379 186.45C520.893 185.687 516.825 179.09 518.759 171.013C519.845 166.497 521.368 167.539 524.464 160.534C527.552 153.563 527.352 149.612 531.361 145.349C532.64 143.992 534.199 142.756 536.29 142.125C536.975 141.913 539.12 141.3 541.409 141.979C543.468 142.605 544.403 143.915 546.743 146.817C550.363 151.278 552.189 153.505 553.442 154.327C555.369 155.587 557.79 156.117 562.616 157.183C565.833 157.893 567.582 158.276 570.165 158.44C572.8 158.606 573.669 158.394 575.27 158.994C577.587 159.86 577.658 161.057 579.941 162.612C582.066 164.064 586.485 166.079 589.397 164.276C591.45 163.007 591.891 160.395 591.958 159.907C592.454 156.487 589.899 155.327 588.312 150.833C586.617 146.027 588.638 145.107 587.162 139.336C586.753 137.71 585.752 133.84 582.724 131.07C581.67 130.099 579.034 128.053 569.661 127.421C560.882 126.828 558.934 128.328 549.123 128.103C542.947 127.96 539.779 127.869 536.131 126.413C533.502 125.37 526.554 122.788 524.316 116.147C523.949 115.044 522.753 111.615 523.858 109.185C528.396 99.2076 570.901 107.176 582.222 109.289C598.575 112.349 617.4 115.877 641.547 125.721C652.646 130.243 679.069 141.888 707.118 164.434C719.885 174.692 732.139 184.697 743.27 201.836C750.908 213.589 755.009 224.067 758.135 232.029C762.587 243.404 766.123 252.653 766.632 265.583C766.935 273.218 766.096 279.452 765.711 281.951C763.854 294.093 760.959 295.551 758.853 307.353C757.026 317.606 759.016 317.602 756.973 329.873C755.826 336.771 754.786 342.798 751.326 350.239C747.12 359.303 744.573 364.77 738.878 367.661C737.211 368.52 734.673 369.447 734.457 371.189C734.15 373.523 738.354 374.298 739.386 378.16C740.122 380.932 738.352 382.062 738.317 385.523C738.259 389.931 741.072 393.195 742.63 395.006C748.005 401.259 752.707 398.969 757.032 404.202C761.388 409.492 760.592 416.67 760.422 418.255C759.668 425.049 756.163 425.711 753.614 433.805C751.25 441.347 753.768 442.419 751.989 452.319C751.306 456.146 750.985 455.647 745.806 470.46C740.307 486.169 740.449 487.379 737.786 491.045C734.557 495.492 732.519 496.271 729.063 501.993C726.155 506.793 724.77 510.901 724.04 513.152C721.723 520.195 722.762 522.629 720.801 531.702C719.988 536.794 718.57 542.71 716.091 549.083C715.107 551.594 713.89 553.322 712.818 555.468C701.937 564.672 693.271 571.597 687.032 576.203C680.36 581.129 678.656 582.211 672.312 585.782C670.026 586.642 663.831 589.822 652.97 591.348C652.97 591.348 644.359 592.558 637.444 591.782C637.444 591.782 632.541 591.159 629.353 588.836C629.19 588.717 629.063 588.605 628.939 588.508C626.963 586.839 627.128 585.856 625.66 585.042C622.475 583.286 618.263 586.014 614.115 587.688C605.645 591.081 597.682 589.916 591.28 588.974C584.146 587.915 578.232 587.055 573.895 582.539C571.683 580.235 570.729 577.877 566.798 574.971C563.987 572.89 561.464 571.868 559.354 571.029C550.729 567.607 548.427 569.719 543.258 566.605C539.695 564.462 537.66 561.577 535.675 558.76C529.404 552.742 528.756 549.363 529.571 547.333C530.815 544.235 535.913 543.235 541.703 538.31C547.088 533.717 547.162 532.774 551.05 529.953C555.893 526.443 557.712 526.419 567.254 521.366C573.473 518.078 576.59 516.432 578.664 514.833C586.664 508.662 585.097 505.217 592.883 499.686C595.696 497.682 599.596 494.631 605.153 493.316C609.125 492.369 611.846 492.756 612.153 491.67C612.431 490.673 610.247 490.081 608.663 487.677C606.383 484.192 607.317 479.878 607.47 479.336C608.722 474.744 611.754 474.757 613.319 469.937C614.555 466.112 612.92 465.229 614.3 462.208C614.88 460.937 616.032 459.192 623.16 455.162C629.094 451.803 630.845 451.57 636.185 448.594C641.201 445.801 643.695 444.416 645.314 442.661C649.01 438.627 648.057 435.717 651.409 424.155C653.245 417.821 654.453 413.743 657.446 408.807C658.38 407.265 660.822 403.446 664.91 399.373C666.069 398.21 670.179 394.228 676.555 390.413C681.729 387.302 683.505 387.241 686.061 384.381C688.235 381.945 687.221 381.693 690.363 376.961C693.269 372.567 695.356 369.425 699.064 367.591C700.201 367.033 701.411 366.634 702.998 365.374C704.993 363.796 704.98 362.908 706.574 361.679C709.125 359.695 712.155 359.628 712.97 359.609C714.883 359.56 716.368 360.028 719.97 361.707C727.34 365.134 730.196 367.398 730.912 366.691C731.755 365.886 729.121 361.765 728.896 361.873L728.879 361.732Z"/><path fill="#C2FA67" stroke="#303131" stroke-linecap="round" stroke-linejoin="round" stroke-width="7.169" d="M275.884 346.833C277.184 346.522 279.303 348.93 280.249 350.681C281.527 353.039 280.925 354.684 282.632 356.444C282.938 356.764 284.106 357.961 285.89 358.194C288.69 358.559 291.114 356.287 293.403 354.136C295.14 352.504 296.261 350.905 296.98 349.879C297.706 348.819 298.568 347.572 299.258 346C300.931 342.132 299.616 340.765 301.152 336.578C301.792 334.823 302.414 333.189 304.077 331.971C305.806 330.685 307.713 330.557 309.227 330.477C312.257 330.317 314.484 331.19 317.84 332.553C321.48 334.03 323.371 334.657 324.021 335.874C324.923 337.589 324.215 339.216 325.67 340.918C326.382 341.741 327.243 342.178 327.826 342.4C328.086 342.488 328.503 342.596 329.006 342.646C329.631 342.71 330.695 342.712 332.09 342.127C335.416 340.754 337.375 337.506 339.719 337.496C340.445 337.498 341.72 337.781 344.014 341.086C347.492 346.09 346.89 348.797 350.008 357.091C351.678 361.525 352.416 362.258 353.668 366.519C354.627 369.754 354.52 370.422 355.4 371.931C357.252 375.038 359.824 375.746 363.736 378.107C366.886 380.02 368.913 381.899 372.994 385.634C375.373 387.819 378.959 391.157 382.475 396.052C386.159 401.192 388.024 405.471 390.385 410.962C392.996 417.002 394.285 420.027 394.511 423.425C394.707 426.652 394.171 428.605 394.958 433.017C395.372 435.299 396.205 438.635 396.389 439.317C397.001 441.705 397.498 443.423 397.601 443.802C399.128 449.143 400.059 458.84 399.88 468.679C399.738 476.089 399.03 479.906 398.661 481.663C397.788 485.87 397.19 488.593 395.147 491.277C393.355 493.643 391.079 495.153 384.439 497.88C374.664 501.876 369.787 503.879 364.741 504.134C359.962 504.377 352.138 504.784 345.9 500.189C342.615 497.776 340.985 494.867 336.011 493.386C334.376 492.896 331.036 491.904 328.84 493.587C326.629 495.274 326.816 498.717 326.922 500.859C327.1 504.516 328.231 506.329 331.975 514.441C334.48 519.842 333.816 518.695 336.152 523.719C336.152 523.719 337.278 526.138 339.858 532.317C340.511 533.859 340.792 535.085 341.525 537.487C342.583 540.905 343.096 542.619 342.882 542.762C341.943 543.411 335.063 535.75 328.357 526.798C323.13 519.818 318.373 513.518 309.925 500.246C301.87 487.588 293.007 466.975 290.95 461.298C290.626 460.411 288.239 454.088 283.791 438.101C280.166 425.075 276.706 409.811 275.78 403.071C275.207 398.825 274.916 392.309 274.352 379.286C273.158 351.742 274.287 347.232 275.873 346.853L275.884 346.833Z"/><path fill="#33637C" d="M631.765 603.066C598.945 608.202 521.725 615.675 443.171 576.406C427.702 568.67 398.59 553.798 370.871 524.312C323.616 474.007 300.526 407.389 280.763 325.338C280.763 325.338 276.58 320.392 275.419 344.987C274.836 357.338 275.467 396.881 276.862 408.498C284.933 475.679 318.168 519.077 325.438 528.245C366.135 579.598 418.058 599.222 438.982 607.138C447.466 610.348 454.241 612.409 455.855 612.889C480.635 620.355 520.928 628.34 569.278 620.892C584.724 618.506 606.629 613.691 631.742 603.04L631.765 603.066Z" opacity=".4"/><path stroke="#303131" stroke-linecap="round" stroke-linejoin="round" stroke-width="7.169" d="M597.346 615.768C454.657 653.346 311.958 571.573 278.618 433.123C245.279 294.673 333.924 151.974 476.613 114.395C619.302 76.8168 762.001 158.59 795.341 297.04C828.68 435.49 740.035 578.189 597.346 615.768Z"/><path fill="#C8E9F1" stroke="#303131" stroke-linecap="round" stroke-linejoin="round" stroke-width="7.169" d="M628.991 356.14C625.307 352.289 614.38 362.158 594.014 367.348C571.705 373.057 557.868 368.082 556.133 373.409C554.53 378.422 565.371 387.17 573.763 390.776C574.87 391.246 579.483 393.151 585.854 393.737C591.387 394.252 595.679 393.517 597.411 393.19C599.84 392.709 604.265 391.626 609.134 388.913C620.354 382.677 625.121 372.77 626.167 370.46C628.462 365.393 631.485 358.759 628.991 356.14Z"/><path fill="#C5C0B8" stroke="#303131" stroke-linecap="round" stroke-linejoin="round" stroke-width="7.169" d="M122.881 345.896C100.948 327.92 97.2322 296.075 114.582 274.768C131.932 253.461 163.777 250.76 185.71 268.737C207.644 286.713 211.36 318.558 194.01 339.865C176.66 361.172 144.815 363.872 122.881 345.896Z"/><path fill="#000" d="M169.629 311.359C167.928 309.965 167.64 307.495 168.986 305.843C170.331 304.191 172.801 303.981 174.502 305.375C176.203 306.769 176.491 309.239 175.145 310.891C173.8 312.544 171.33 312.753 169.629 311.359Z"/><path fill="#000" d="M137.066 301.949C135.365 300.555 135.077 298.085 136.422 296.433C137.768 294.78 140.237 294.571 141.938 295.965C143.639 297.359 143.927 299.829 142.582 301.481C141.236 303.134 138.767 303.343 137.066 301.949Z"/><path stroke="#303131" stroke-linecap="round" stroke-linejoin="round" stroke-width="7.169" d="M157.056 308.224C157.056 308.224 159.1 314.867 158.381 315.981C157.661 317.095 151.754 316.554 151.754 316.554"/><path stroke="#303131" stroke-linecap="round" stroke-linejoin="round" stroke-width="7.169" d="M188.163 297.962C188.163 297.962 185.333 293.396 183.26 291.681C181.187 289.966 175.594 287.603 175.594 287.603"/><path stroke="#303131" stroke-linecap="round" stroke-linejoin="round" stroke-width="7.169" d="M147.818 278.869C147.818 278.869 142.58 277.464 139.918 277.645C137.256 277.826 131.649 280.015 131.649 280.015"/><path fill="#fff" d="M177.387 338.148C177.772 339.686 178.55 339.324 179.486 338.847C184.304 336.39 187.72 332.561 190.143 327.837C191.443 325.313 192.487 322.641 193.594 320.021C193.807 319.502 193.862 318.894 193.841 318.326C193.765 316.796 192.723 316.167 191.516 317.055C190.729 317.634 190.079 318.509 189.657 319.387C188.383 322.135 187.277 324.961 186.05 327.728C184.647 330.84 182.579 333.326 179.401 334.802C178.027 335.43 176.664 336.252 177.397 338.136L177.387 338.148Z"/><path fill="#fff" d="M193.51 307.082C193.054 307.233 191.875 307.277 191.359 307.884C190.116 309.411 190.274 312.025 191.537 312.595C192.716 313.138 194.107 313.651 195.058 312.229C196.055 310.723 195.596 308.529 193.51 307.082Z"/><path stroke="#303131" stroke-linecap="round" stroke-linejoin="round" stroke-width="7.169" d="M159.185 331.787C159.185 331.787 151.825 334.11 145.365 331.559C138.905 329.007 135.597 322.524 135.597 322.524"/><path fill="#C8E9F1" stroke="#303131" stroke-linecap="round" stroke-linejoin="round" stroke-width="7.169" d="M278.44 446.223C266.909 443.804 259.6 440.77 256.643 439.473C250.449 436.761 247.979 434.881 246.694 433.847C244.345 431.915 240.7 428.847 238.858 423.591C237.913 420.876 236.212 416.373 238.763 412.538C240.941 409.264 244.875 408.497 245.199 408.429C248.174 407.884 250.667 408.789 251.729 409.18C252.992 409.637 254.576 410.63 257.656 412.758C259.325 413.919 260.471 414.707 261.697 415.612C262.923 416.517 263.783 417.218 263.921 417.317C271.443 423.247 284.921 426.731 284.921 426.731C295.115 429.362 304.333 429.922 304.333 429.922C310.555 430.304 314.806 429.941 316.699 432.481C317.912 434.102 317.601 436.182 316.979 440.344C316.349 444.536 317.904 447.165 316.699 448.536C314.803 450.735 309.41 450.401 294.54 448.536C286.29 447.494 282.161 446.988 278.41 446.199L278.44 446.223Z"/></g><defs><filter id="filter0_d_3214_10201" width="940.251" height="831.979" x=".121" y=".679" color-interpolation-filters="sRGB" filterUnits="userSpaceOnUse"><feFlood flood-opacity="0" result="BackgroundImageFix"/><feColorMatrix in="SourceAlpha" result="hardAlpha" type="matrix" values="0 0 0 0 0 0 0 0 0 0 0 0 0 0 0 0 0 0 127 0"/><feOffset/><feGaussianBlur stdDeviation="50"/><feComposite in2="hardAlpha" operator="out"/><feColorMatrix type="matrix" values="0 0 0 0 1 0 0 0 0 1 0 0 0 0 1 0 0 0 0.1 0"/><feBlend in2="BackgroundImageFix" mode="normal" result="effect1_dropShadow_3214_10201"/><feBlend in="SourceGraphic" in2="effect1_dropShadow_3214_10201" mode="normal" result="shape"/></filter></defs></svg>