<svg width="1253" height="1070" viewBox="0 0 1253 1070" fill="none" xmlns="http://www.w3.org/2000/svg">
<path d="M488.216 881.5C479.416 966.7 473.216 1028.2 472.716 1038.3C472.616 1039.5 472.516 1043.9 470.216 1049C469.416 1050.7 466.616 1056.6 460.116 1060.4C456.116 1062.8 452.416 1063.1 445.216 1063.7C434.016 1064.7 425.916 1063 421.116 1061.6C416.916 1060.4 414.816 1059.7 413.016 1058C406.516 1052.2 405.316 1039 411.716 1031.8C411.716 1031.8 416.316 1026.7 424.616 1025.6C425.016 1025.5 426.116 1025.4 427.416 1025.4C428.516 1025.3 429.416 1025.3 430.316 1025.4C433.216 1025.8 434.216 1026.6 435.916 1026.3C438.116 1025.9 439.816 1023.8 440.616 1022.7C444.316 1017.4 444.216 1005.6 444.216 1004.5C445.116 995 445.616 987.3 445.916 982.1C446.516 973.1 446.416 970.9 447.016 963.3C447.616 954.6 447.916 955 449.016 942.5C449.516 937.3 450.316 927.4 451.116 915.1C451.516 909.1 451.716 904.6 451.716 903.6C452.216 893.3 452.416 884.2 452.616 876.5L488.216 881.5Z" fill="#C8E9F1" stroke="#303131" stroke-width="11" stroke-linecap="round" stroke-linejoin="round"/>
<path d="M1159.22 453.1C1207.72 453.1 1247.12 413.8 1247.12 365.2C1247.12 316.7 1207.82 277.3 1159.22 277.3C1110.72 277.3 1071.32 316.6 1071.32 365.2C1071.32 413.7 1110.72 453.1 1159.22 453.1Z" fill="#C5C0B8" stroke="#303131" stroke-width="11" stroke-linecap="round" stroke-linejoin="round"/>
<path d="M1146.42 425.7C1155.22 425.7 1162.32 418.6 1162.32 409.8C1162.32 401 1155.22 393.9 1146.42 393.9C1137.62 393.9 1130.52 401 1130.52 409.8C1130.52 418.6 1137.72 425.7 1146.42 425.7Z" fill="#E4E4E4" stroke="#303131" stroke-width="11" stroke-linecap="round" stroke-linejoin="round"/>
<path d="M1134.12 353.9C1137.92 353.9 1140.92 350.8 1140.92 347.1C1140.92 343.4 1137.82 340.3 1134.12 340.3C1130.42 340.3 1127.32 343.4 1127.32 347.1C1127.32 350.8 1130.42 353.9 1134.12 353.9Z" fill="black"/>
<path d="M1188.32 377.1C1192.12 377.1 1195.12 374 1195.12 370.3C1195.12 366.5 1192.02 363.5 1188.32 363.5C1184.52 363.5 1181.52 366.5 1181.52 370.3C1181.52 374 1184.52 377.1 1188.32 377.1Z" fill="black"/>
<path d="M1154.42 363.3C1154.42 363.3 1144.52 370.1 1144.32 372.4C1144.12 374.7 1152.42 380.6 1152.42 380.6" stroke="#303131" stroke-width="11" stroke-linecap="round" stroke-linejoin="round"/>
<path d="M1123.92 315.4C1123.92 315.4 1132.72 312.3 1137.42 312.3C1142.12 312.3 1152.22 315.3 1152.22 315.3" stroke="#303131" stroke-width="11" stroke-linecap="round" stroke-linejoin="round"/>
<path d="M1199.32 333.9C1199.32 333.9 1207.82 337.8 1211.12 341.1C1214.42 344.3 1219.52 353.6 1219.52 353.6" stroke="#303131" stroke-width="11" stroke-linecap="round" stroke-linejoin="round"/>
<path d="M1094.22 381.5C1092.02 383.2 1091.42 381.8 1090.72 380.1C1087.02 371.4 1086.62 362.5 1088.52 353.4C1089.52 348.5 1091.02 343.8 1092.32 339C1092.62 338.1 1093.22 337.2 1093.82 336.4C1095.52 334.4 1097.62 334.7 1098.22 337.3C1098.62 339 1098.52 340.9 1098.12 342.5C1096.82 347.6 1095.32 352.7 1093.92 357.8C1092.42 363.6 1092.52 369.2 1095.12 374.7C1096.32 377.1 1097.22 379.7 1094.22 381.5Z" fill="white"/>
<path d="M1106.62 321.7C1107.02 322.4 1108.62 323.8 1108.62 325.2C1108.62 328.7 1105.62 332.1 1103.32 331.4C1101.22 330.8 1098.72 330 1099.02 327C1099.32 323.8 1102.32 321.4 1106.62 321.7Z" fill="white"/>
<path d="M79.9157 549.5C61.4157 550.2 49.1157 548.1 44.1157 547.1C33.6157 545.1 29.2157 542.9 26.8157 541.7C22.5157 539.4 15.8157 535.7 11.0157 527.6C8.51569 523.4 4.31569 516.5 6.71569 509C8.81569 502.6 14.5157 499.6 15.0157 499.4C19.3157 497.2 23.5157 497.7 25.2157 498C27.3157 498.2 30.1157 499.3 35.6157 501.6C38.6157 502.9 40.6157 503.7 42.8157 504.7C45.0157 505.7 46.6157 506.5 46.8157 506.7C60.5157 513.6 82.3157 513.9 82.3157 513.9C98.8157 514.1 113.116 511.3 113.116 511.3C122.716 509.4 129.116 507 132.916 510.5C135.416 512.7 135.716 516.4 136.316 523.7C136.916 531 137.116 534.7 135.816 537.5C133.716 542 128.516 543.8 105.216 546.9C92.4157 548.4 85.9157 549.3 79.9157 549.5Z" fill="#C8E9F1" stroke="#303131" stroke-width="11" stroke-linecap="round" stroke-linejoin="round"/>
<mask id="mask0_2848_2684" style="mask-type:alpha" maskUnits="userSpaceOnUse" x="121" y="0" width="925" height="925">
<path d="M583.516 918.8C835.616 918.8 1039.92 714.5 1039.92 462.4C1039.92 210.3 835.516 6 583.516 6C331.516 6 127.116 210.3 127.116 462.4C127.116 714.5 331.416 918.8 583.516 918.8Z" fill="#76D3EF" stroke="#303131" stroke-width="11" stroke-linecap="round" stroke-linejoin="round"/>
</mask>
<g mask="url(#mask0_2848_2684)">
<path d="M583.516 918.8C835.616 918.8 1039.92 714.5 1039.92 462.4C1039.92 210.3 835.516 6 583.516 6C331.516 6 127.116 210.3 127.116 462.4C127.116 714.5 331.416 918.8 583.516 918.8Z" fill="#76D3EF" stroke="#303131" stroke-width="11" stroke-linecap="round" stroke-linejoin="round"/>
<path d="M871.616 116.5C873.816 119 875.516 121.9 878.916 127.8C880.716 131 881.716 133 882.316 135.7C882.616 137.1 883.116 140 882.316 143C881.316 146.6 879.216 147.9 876.716 150.9C873.716 154.4 871.916 159.1 868.316 168.3C866.116 174 866.516 174.1 864.416 179C862.416 183.6 861.316 186.2 859.316 189.7C857.916 192.2 856.916 193.6 855.916 196.5C855.016 199 854.416 200.9 854.816 203.3C855.316 206.1 857.116 207.8 859.316 210.1C860.216 211 862.716 213.4 867.216 215.7C872.716 218.6 874.016 217.7 876.816 220.2C877.516 220.9 880.416 223.5 881.316 227.5C881.916 230.3 881.916 234.3 881.916 234.3C881.716 236 881.016 238.3 879.116 239.9C876.716 241.9 874.516 240.9 868.416 242.2C864.516 243 861.416 243.7 858.816 246.1C858.216 246.6 856.016 248.7 855.416 251.7C854.216 257.8 861.016 260.6 866.716 271.9C869.716 277.9 868.516 278.6 872.316 286C874.116 289.5 876.116 293.2 879.616 297.3C882.416 300.5 885.916 304.5 892.016 306.9C895.016 308.1 900.916 310.4 907.216 308C912.616 305.9 915.416 301.3 917.916 297.3C920.016 293.9 921.516 291.5 921.816 288.3C923.016 278.6 913.016 275.1 913.416 264.7C913.616 260.3 915.316 260.9 916.816 252.3C917.216 250.2 917.416 246.6 917.916 239.4C918.216 235.1 918.716 230.8 919.016 226.5C919.516 220.3 919.616 218.2 921.316 216.9C923.816 215.1 927.616 216.5 928.616 216.9C933.216 218.6 933.916 221.7 939.316 227.6C943.116 231.8 943.016 230.5 951.116 238.3C953.516 240.6 955.516 242.7 959.516 246.7C964.916 252.1 965.916 253.3 969.116 256.3C970.916 257.9 974.716 261.4 974.716 261.4C975.116 262 976.816 264.2 979.816 264.8C982.916 265.4 986.116 264 987.716 262C990.416 258.6 988.816 253.5 987.716 250.2C986.016 244.8 983.716 243 979.816 237.3C974.616 229.7 976.916 230.3 970.216 219.3C969.316 217.8 963.816 208.7 961.816 203.5C961.516 202.8 960.216 201.1 960.116 198.7C960.016 196.4 961.116 195.1 961.516 193.9C963.116 189.3 956.216 183.4 949.916 175.9C945.916 171.2 942.816 165.7 939.216 160.7C927.316 144.3 928.716 145.2 925.116 141C919.216 133.9 918.416 134.8 904.916 121.9C897.716 115 898.516 115.3 885.216 102.2C873.716 90.9002 870.616 88.2002 866.116 85.3002C862.716 83.1002 857.616 80.2002 852.616 77.4002C843.216 72.1002 843.316 72.5002 840.816 70.6002C837.916 68.4002 836.116 66.7002 835.216 67.2002C834.516 67.6002 834.716 69.0002 835.816 75.1002C836.716 80.2002 837.216 82.7002 837.516 83.5002C839.116 87.4002 841.716 88.8002 845.416 91.9002C853.416 98.8002 851.116 100.8 858.316 107.1C864.916 112.8 866.816 111.1 871.816 116.7L871.616 116.5Z" fill="#C2FA67" stroke="#303131" stroke-width="11" stroke-linecap="round" stroke-linejoin="round"/>
<path d="M451.016 902.1C451.016 902.1 482.716 895.9 493.816 891.4C493.816 891.4 501.616 888.1 506.016 882.8C506.216 882.5 506.416 882.3 506.616 882.1C509.216 878.4 508.516 876.8 510.616 874.7C515.216 870.3 523.216 873 530.716 874C546.016 876 558.716 870.4 568.916 866C580.216 861 589.616 856.9 595.016 847.3C597.716 842.4 598.416 837.9 603.716 831.2C607.516 826.4 611.316 823.5 614.416 821.2C627.316 811.5 631.916 814.1 639.216 806.5C644.216 801.3 646.416 795.4 648.616 789.8C656.516 776.8 656.316 770.7 654.116 767.6C650.816 762.9 642.016 763.5 630.516 757.7C619.816 752.3 619.316 750.7 611.816 747.7C602.416 743.9 599.416 744.7 581.716 740.3C570.116 737.5 564.316 736.1 560.316 734.3C544.716 727.4 545.916 720.8 530.816 714.9C525.416 712.7 517.716 709.3 508.016 709.5C501.116 709.7 496.716 711.5 495.816 709.8C494.916 708.2 498.316 706.2 500.016 701.4C502.416 694.4 499.116 687.5 498.616 686.7C494.716 679.4 489.716 680.8 485.216 673.3C481.616 667.3 484.016 665.1 480.516 660.6C479.016 658.7 476.416 656.2 463.116 652.6C452.016 649.5 449.016 649.9 439.016 647.2C429.616 644.7 425.016 643.4 421.616 641.2C413.916 636 414.316 630.6 404.216 612.4C398.716 602.4 395.016 596 388.116 589C385.916 586.8 380.416 581.4 372.016 576.3C369.616 574.8 361.316 569.9 349.216 566.3C339.416 563.3 336.516 564 331.116 560.3C326.516 557.1 328.116 556.2 321.116 549.6C314.616 543.4 309.916 539 303.016 537.5C300.916 537.1 298.816 536.9 295.616 535.5C291.716 533.7 291.416 532.2 288.216 530.8C283.216 528.6 278.216 529.8 276.816 530.1C273.616 530.9 271.416 532.3 266.116 536.8C255.316 545.9 251.516 551.1 250.016 550.2C248.316 549.2 251.016 541 251.416 541.1V540.9C251.616 541 251.316 543.6 251.016 546.5C251.416 544.7 251.816 541.9 251.216 538.7C248.716 525.5 233.116 525.1 225.516 510.5C221.416 502.7 221.616 494.7 221.816 486.3C222.116 472.9 226.016 471.8 225.516 462.3C224.916 450.5 217.716 449.9 211.216 431C205.516 414.4 207.716 411.8 202.116 399.7C194.816 384 189.416 384.8 185.216 372.3C180.716 359.1 182.716 346.3 185.216 337.1C187.616 328 191.716 313 205.716 304.7C208.216 303.2 220.716 295.8 234.716 300.6C237.016 301.4 247.016 305.2 251.616 314.9C256.216 324.6 250.416 329.9 254.216 344.9C254.716 346.7 258.516 361.6 264.616 361.8C268.516 362 271.616 356.3 275.016 350.1C281.916 337.4 280.416 332.2 285.416 321.4C286.316 319.4 291.416 308.7 302.116 299.6C308.316 294.3 314.816 291.4 327.616 285.8C350.716 275.8 352.916 278.3 357.216 273.1C366.716 261.4 358.616 245.4 368.716 239.1C369.316 238.8 369.116 238.9 380.216 236.1C390.616 233.5 395.816 232.1 397.516 231.5C408.216 228 407.516 224.6 419.816 218.6C430.716 213.2 432.416 215.3 445.416 209.2C456.716 203.9 462.316 201.2 463.416 196.1C465.116 187.6 452.716 179.3 455.816 174.4C456.716 172.9 458.616 172.6 460.216 172.3C485.416 167.7 482.916 167.8 484.916 167.7C508.216 166.6 509.716 167.6 513.616 165.1C520.316 160.8 522.716 153.5 524.016 149.5C524.516 148 528.616 134.9 522.216 122C518.616 114.8 516.516 117.3 508.616 106.7C500.716 96.2001 499.516 89.4001 491.216 83.9001C488.616 82.2001 485.516 80.8 481.816 80.6001C480.616 80.5001 476.816 80.5001 473.316 82.6001C470.216 84.6001 469.116 87.2001 466.416 93.2001C462.216 102.4 460.116 107 458.316 109C455.616 112 451.816 114 444.316 118C439.316 120.6 436.516 122.1 432.416 123.5C428.116 125 426.616 125 424.216 126.7C420.716 129.2 421.116 131.3 417.916 134.9C415.016 138.3 408.516 143.7 403.016 142C399.116 140.8 397.316 136.5 397.016 135.7C394.816 130.1 398.616 127 399.416 118.6C400.316 109.7 396.616 109 396.716 98.5001C396.716 95.5001 396.816 88.5001 400.716 82.4001C402.116 80.3001 405.616 75.6001 420.816 70.3001C435.016 65.4001 438.816 67.0001 454.916 62.3001C465.016 59.3001 470.216 57.7001 475.616 53.6001C479.516 50.6001 489.916 43.1001 491.016 30.8001C491.216 28.8001 491.816 22.4001 489.016 18.7001C477.616 3.70006 410.716 36.3001 392.816 45.0001C367.116 57.5001 337.416 72.0001 301.516 99.5001C285.016 112.2 246.116 143.8 208.816 194.7C191.816 217.9 175.616 240.4 164.116 274.5C156.216 297.9 153.616 317.6 151.616 332.5C148.816 353.9 146.616 371.2 150.916 393.4C153.416 406.5 157.316 416.8 158.916 420.8C166.816 440.6 172.116 441.8 180.316 461C187.416 477.6 184.116 478.5 192.416 498.5C197.016 509.7 201.116 519.5 209.816 530.6C220.316 544.1 226.716 552.3 237.216 554.7C240.316 555.4 244.816 555.9 245.916 558.7C247.316 562.5 240.716 565.7 240.516 572.8C240.416 577.8 243.816 579 245.216 584.9C247.016 592.4 243.716 599.2 241.916 603C235.516 616 226.916 614.3 221.816 625.1C216.716 636.1 220.916 647.9 221.816 650.5C225.716 661.7 231.816 661.3 239.216 673.9C246.116 685.7 242.416 688.6 249.216 704.7C251.816 710.9 252.216 709.9 266.616 732.8C281.916 757.1 282.216 759.2 288.016 764.3C295.116 770.4 298.816 770.8 306.716 779C313.416 785.9 317.316 792.2 319.416 795.7C326.016 806.7 325.316 811.3 332.116 825.8C335.516 834.1 340.216 843.5 346.816 853.3C349.416 857.1 352.116 860.6 354.716 863.8C376.516 873.3 393.516 881.8 405.316 888.1" fill="#C2FA67"/>
<path d="M451.016 902.1C451.016 902.1 482.716 895.9 493.816 891.4C493.816 891.4 501.616 888.1 506.016 882.8C506.216 882.5 506.416 882.3 506.616 882.1C509.216 878.4 508.516 876.8 510.616 874.7C515.216 870.3 523.216 873 530.716 874C546.016 876 558.716 870.4 568.916 866C580.216 861 589.616 856.9 595.016 847.3C597.716 842.4 598.416 837.9 603.716 831.2C607.516 826.4 611.316 823.5 614.416 821.2C627.316 811.5 631.916 814.1 639.216 806.5C644.216 801.3 646.416 795.4 648.616 789.8C656.516 776.8 656.316 770.7 654.116 767.6C650.816 762.9 642.016 763.5 630.516 757.7C619.816 752.3 619.316 750.7 611.816 747.7C602.416 743.9 599.416 744.7 581.716 740.3C570.116 737.5 564.316 736.1 560.316 734.3C544.716 727.4 545.916 720.8 530.816 714.9C525.416 712.7 517.716 709.3 508.016 709.5C501.116 709.7 496.716 711.5 495.816 709.8C494.916 708.2 498.316 706.2 500.016 701.4C502.416 694.4 499.116 687.5 498.616 686.7C494.716 679.4 489.716 680.8 485.216 673.3C481.616 667.3 484.016 665.1 480.516 660.6C479.016 658.7 476.416 656.2 463.116 652.6C452.016 649.5 449.016 649.9 439.016 647.2C429.616 644.7 425.016 643.4 421.616 641.2C413.916 636 414.316 630.6 404.216 612.4C398.716 602.4 395.016 596 388.116 589C385.916 586.8 380.416 581.4 372.016 576.3C369.616 574.8 361.316 569.9 349.216 566.3C339.416 563.3 336.516 564 331.116 560.3C326.516 557.1 328.116 556.2 321.116 549.6C314.616 543.4 309.916 539 303.016 537.5C300.916 537.1 298.816 536.9 295.616 535.5C291.716 533.7 291.416 532.2 288.216 530.8C283.216 528.6 278.216 529.8 276.816 530.1C273.616 530.9 271.416 532.3 266.116 536.8C255.316 545.9 251.516 551.1 250.016 550.2C248.316 549.2 251.016 541 251.416 541.1V540.9C251.616 541 251.316 543.6 251.016 546.5C251.416 544.7 251.816 541.9 251.216 538.7C248.716 525.5 233.116 525.1 225.516 510.5C221.416 502.7 221.616 494.7 221.816 486.3C222.116 472.9 226.016 471.8 225.516 462.3C224.916 450.5 217.716 449.9 211.216 431C205.516 414.4 207.716 411.8 202.116 399.7C194.816 384 189.416 384.8 185.216 372.3C180.716 359.1 182.716 346.3 185.216 337.1C187.616 328 191.716 313 205.716 304.7C208.216 303.2 220.716 295.8 234.716 300.6C237.016 301.4 247.016 305.2 251.616 314.9C256.216 324.6 250.416 329.9 254.216 344.9C254.716 346.7 258.516 361.6 264.616 361.8C268.516 362 271.616 356.3 275.016 350.1C281.916 337.4 280.416 332.2 285.416 321.4C286.316 319.4 291.416 308.7 302.116 299.6C308.316 294.3 314.816 291.4 327.616 285.8C350.716 275.8 352.916 278.3 357.216 273.1C366.716 261.4 358.616 245.4 368.716 239.1C369.316 238.8 369.116 238.9 380.216 236.1C390.616 233.5 395.816 232.1 397.516 231.5C408.216 228 407.516 224.6 419.816 218.6C430.716 213.2 432.416 215.3 445.416 209.2C456.716 203.9 462.316 201.2 463.416 196.1C465.116 187.6 452.716 179.3 455.816 174.4C456.716 172.9 458.616 172.6 460.216 172.3C485.416 167.7 482.916 167.8 484.916 167.7C508.216 166.6 509.716 167.6 513.616 165.1C520.316 160.8 522.716 153.5 524.016 149.5C524.516 148 528.616 134.9 522.216 122C518.616 114.8 516.516 117.3 508.616 106.7C500.716 96.2001 499.516 89.4001 491.216 83.9001C488.616 82.2001 485.516 80.8001 481.816 80.6001C480.616 80.5001 476.816 80.5001 473.316 82.6001C470.216 84.6001 469.116 87.2001 466.416 93.2001C462.216 102.4 460.116 107 458.316 109C455.616 112 451.816 114 444.316 118C439.316 120.6 436.516 122.1 432.416 123.5C428.116 125 426.616 125 424.216 126.7C420.716 129.2 421.116 131.3 417.916 134.9C415.016 138.3 408.516 143.7 403.016 142C399.116 140.8 397.316 136.5 397.016 135.7C394.816 130.1 398.616 127 399.416 118.6C400.316 109.7 396.616 109 396.716 98.5001C396.716 95.5001 396.816 88.5001 400.716 82.4001C402.116 80.3001 405.616 75.6001 420.816 70.3001C435.016 65.4001 438.816 67.0001 454.916 62.3001C465.016 59.3001 470.216 57.7001 475.616 53.6001C479.516 50.6001 489.916 43.1001 491.016 30.8001C491.216 28.8001 491.816 22.4001 489.016 18.7001C477.616 3.70006 410.716 36.3001 392.816 45.0001C367.116 57.5001 337.416 72.0001 301.516 99.5001C285.016 112.2 246.116 143.8 208.816 194.7C191.816 217.9 175.616 240.4 164.116 274.5C156.216 297.9 153.616 317.6 151.616 332.5C148.816 353.9 146.616 371.2 150.916 393.4C153.416 406.5 157.316 416.8 158.916 420.8C166.816 440.6 172.116 441.8 180.316 461C187.416 477.6 184.116 478.5 192.416 498.5C197.016 509.7 201.116 519.5 209.816 530.6C220.316 544.1 226.716 552.3 237.216 554.7C240.316 555.4 244.816 555.9 245.916 558.7C247.316 562.5 240.716 565.7 240.516 572.8C240.416 577.8 243.816 579 245.216 584.9C247.016 592.4 243.716 599.2 241.916 603C235.516 616 226.916 614.3 221.816 625.1C216.716 636.1 220.916 647.9 221.816 650.5C225.716 661.7 231.816 661.3 239.216 673.9C246.116 685.7 242.416 688.6 249.216 704.7C251.816 710.9 252.216 709.9 266.616 732.8C281.916 757.1 282.216 759.2 288.016 764.3C295.116 770.4 298.816 770.8 306.716 779C313.416 785.9 317.316 792.2 319.416 795.7C326.016 806.7 325.316 811.3 332.116 825.8C335.516 834.1 340.216 843.5 346.816 853.3C349.416 857.1 352.116 860.6 354.716 863.8C376.516 873.3 393.516 881.8 405.316 888.1" stroke="#303131" stroke-width="11" stroke-linecap="round" stroke-linejoin="round"/>
<path d="M395.816 513C395.816 513 414.816 525.7 431.316 525.7C447.816 525.7 466.916 516.1 466.916 516.1" stroke="#303131" stroke-width="11" stroke-linecap="round" stroke-linejoin="round"/>
<path d="M304.716 147.2C300.916 146.3 301.816 144.4 303.016 142C309.216 129.8 318.816 121.1 330.616 114.7C336.916 111.3 343.616 108.5 350.216 105.6C351.516 105 353.016 104.9 354.416 104.9C358.216 105 359.816 107.5 357.516 110.6C356.016 112.6 353.916 114.3 351.716 115.4C344.816 118.8 337.716 121.7 330.816 124.9C323.016 128.6 316.816 133.9 313.116 141.9C311.516 145.4 309.516 148.9 304.716 147.2Z" fill="#EAF0C8"/>
<path d="M288.716 151.2C289.216 151.9 290.916 153.1 291.116 154.5C291.516 157.9 288.916 161.6 286.516 161.3C284.316 161 281.816 160.4 281.816 157.4C281.716 154.2 284.416 151.4 288.716 151.2Z" fill="#EAF0C8"/>
<path d="M236.716 228.7C232.516 229.2 232.716 226.8 233.116 224C235.116 209.2 242.016 196.8 251.916 186.1C257.216 180.3 263.116 175.1 268.816 169.8C269.916 168.8 271.416 168 272.916 167.6C276.916 166.3 279.416 168.4 278.216 172.4C277.416 175 275.716 177.5 273.816 179.4C267.916 185.3 261.616 190.8 255.716 196.7C249.016 203.3 244.416 211 243.516 220.6C243.016 224.5 242.116 228.8 236.716 228.7Z" fill="#EAF0C8"/>
<path d="M1018.82 316.4C1016.52 316.5 1014.12 321.6 1013.42 325C1012.42 329.6 1014.12 332.1 1012.02 335.9C1011.62 336.6 1010.32 339.2 1007.52 340.5C1003.12 342.5 998.116 339.8 993.416 337.3C989.816 335.4 987.316 333.2 985.716 331.9C984.016 330.5 982.116 328.8 980.316 326.5C975.916 320.8 977.416 317.8 973.016 311.5C971.216 308.9 969.416 306.4 966.216 305.2C962.816 303.9 959.616 304.6 957.116 305.2C952.116 306.4 948.816 309 943.916 312.9C938.616 317.2 935.816 319.2 935.316 321.5C934.616 324.8 936.516 327.2 934.816 330.8C934.016 332.5 932.816 333.7 931.916 334.4C931.516 334.7 930.916 335.1 930.116 335.4C929.116 335.8 927.416 336.3 924.816 336C918.816 335.3 914.116 330.8 910.316 331.9C909.116 332.3 907.216 333.4 904.916 340.1C901.416 350.3 903.616 354.5 902.216 370.1C901.416 378.4 900.516 380 900.416 387.8C900.316 393.7 900.716 394.8 900.016 397.8C898.316 404 894.516 406.4 889.116 412.3C884.816 417.1 882.316 421.2 877.316 429.5C874.416 434.4 870.016 441.7 866.416 451.7C862.616 462.2 861.516 470.3 860.116 480.8C858.516 492.3 857.716 498 858.916 503.9C860.016 509.4 861.716 512.5 862.416 520.3C862.716 524.4 862.816 530.4 862.816 531.6C862.916 535.9 862.816 539.1 862.816 539.8C862.716 549.6 865.416 566.4 870.116 582.9C873.616 595.3 876.416 601.4 877.816 604.2C881.116 610.9 883.316 615.2 887.816 618.7C891.816 621.8 896.216 623.3 908.216 624.6C925.916 626.6 934.816 627.6 943.216 625.5C951.116 623.6 964.116 620.4 972.216 609.6C976.516 603.9 977.916 598.2 985.416 593.3C987.916 591.7 992.916 588.4 997.216 590.1C1001.62 591.9 1002.82 597.8 1003.52 601.4C1004.82 607.7 1003.82 611.3 1001.22 626.8C999.516 637.1 1000.12 634.9 998.516 644.5C998.516 644.5 997.716 649.1 996.216 660.8C995.816 663.7 995.916 665.9 995.816 670.3C995.616 676.6 995.516 679.7 995.916 679.9C997.716 680.5 1005.62 664.2 1012.62 645.8C1018.12 631.5 1022.02 619.4 1028.52 592.7C1042.82 533.8 1044.02 527.5 1044.82 516.9C1044.92 515.2 1045.02 502 1045.22 475.6C1045.62 431.5 1045.32 423 1043.92 411.2C1043.02 403.8 1040.62 392.6 1035.72 370.3C1025.42 323.3 1021.62 316.2 1018.82 316.4Z" fill="#C2FA67" stroke="#303131" stroke-width="11" stroke-linecap="round" stroke-linejoin="round"/>
<path d="M362.316 432.4C362.016 432.4 361.516 432.3 361.116 432C360.716 431.7 359.516 430.7 360.416 425.7C361.316 420.8 361.816 417.7 364.716 414.8C364.716 414.8 368.516 411 376.816 410.6C377.816 410.6 378.716 410.9 378.816 410.9C379.216 411.1 379.716 411.2 379.916 411.7C380.316 412.3 380.016 413.1 379.916 413.2C379.516 414.3 378.316 414.8 377.916 415C372.516 417.3 370.016 417.4 368.216 419.4C366.416 421.4 366.016 424.9 365.916 425.5C365.716 427 365.516 427.8 365.116 429.5C364.816 430.8 364.616 431.7 362.316 432.4Z" fill="white"/>
<path d="M488.816 438.1C488.516 438.1 488.016 438 487.616 437.7C487.216 437.4 486.116 436.3 487.016 431.4C487.916 426.5 488.516 423.4 491.516 420.6C491.516 420.6 495.416 416.8 503.616 416.6C504.616 416.6 505.516 416.9 505.616 417C506.016 417.2 506.516 417.4 506.716 417.8C507.116 418.4 506.816 419.2 506.716 419.3C506.316 420.4 505.116 420.9 504.716 421.1C499.316 423.3 496.816 423.4 495.016 425.3C493.116 427.3 492.716 430.7 492.616 431.4C492.416 432.9 492.216 433.7 491.816 435.4C491.416 436.6 491.116 437.5 488.816 438.1Z" fill="white"/>
<path d="M341.016 400.9C345.416 400.2 349.816 399.8 354.216 399.2C363.516 397.9 371.016 397.7 375.116 397.5C379.916 397.4 387.416 397.2 397.116 398.2C405.716 399.1 410.616 399.6 417.216 401.6C422.216 403.1 425.216 404.6 430.816 404.9C433.416 405 434.516 404.8 440.216 404.8C445.116 404.8 447.616 405 449.816 405.1C457.516 405.3 463.116 404.1 468.116 403.2C477.716 401.6 485.116 401.7 496.316 401.8C498.316 401.8 514.116 402 530.216 404.8C536.216 405.8 541.016 407 542.016 407.3C545.716 408.2 549.216 409.1 553.716 410.7C559.216 412.6 558.616 413 560.516 413.2C565.616 413.9 567.116 411.1 574.816 410C578.716 409.4 582.316 409 584.416 411.1C586.416 413.2 585.716 416.6 585.716 416.7C584.616 421.7 577.816 424 575.516 424.8C573.216 425.6 573.016 425.2 563.816 426.9C560.316 427.5 558.516 427.9 558.116 428.1C553.616 430.8 555.816 437 552.116 447.3C550.016 453.2 547.116 457.3 545.516 459.3C541.816 464 537.916 466.9 535.916 468.3C531.016 471.8 526.716 473.6 524.816 474.3C517.116 477.3 510.616 477.4 505.916 477.5C504.016 477.5 497.316 477.6 488.816 475.6C486.016 474.9 481.416 473.8 475.816 471.1C473.516 470 470.316 468.4 466.616 465.5C465.216 464.4 461.916 461.6 458.616 457.3C456.516 454.5 453.616 450.6 451.916 445C450.316 439.4 449.516 436.5 449.316 434.6C449.316 434.6 449.016 431.8 447.416 429.7C447.216 429.4 446.716 428.8 445.916 428.4C445.216 428 444.516 427.8 444.216 427.8C440.916 427.1 438.316 428.5 438.316 428.5C436.316 429.6 434.616 432.2 431.316 437.5C431.316 437.6 431.316 437.4 431.316 437.5C431.216 437.6 427.116 445.4 421.616 451.5C416.716 457 411.716 460 409.316 461.4C401.216 466.1 394.016 467.4 389.516 468.2C383.716 469.2 379.316 469.2 377.916 469.1C376.316 469.1 372.416 468.9 367.716 467.9C356.516 465.6 348.616 460 346.016 458.1C341.316 454.6 334.016 449.1 330.216 439.6C328.416 435 326.616 430.5 326.716 424.5C326.816 422.5 326.216 412.7 329.016 407.4C331.816 402.1 338.316 401.4 341.016 400.9Z" fill="#303131"/>
<path d="M341.316 429.4C341.016 429.4 340.516 429.3 340.116 429C339.716 428.7 338.516 427.7 339.416 422.7C340.316 417.8 340.816 414.7 343.716 411.8C343.716 411.8 347.516 408 355.816 407.6C356.816 407.6 357.716 407.9 357.816 407.9C358.216 408.1 358.716 408.2 358.916 408.7C359.316 409.3 359.016 410.1 358.916 410.2C358.516 411.3 357.316 411.8 356.916 412C351.516 414.3 349.016 414.4 347.216 416.4C345.416 418.4 345.016 421.9 344.916 422.5C344.716 424 344.516 424.8 344.116 426.5C343.816 427.8 343.616 428.7 341.316 429.4Z" fill="white"/>
<path d="M465.816 434.1C465.516 434.1 465.016 434 464.616 433.7C464.216 433.4 463.116 432.3 464.016 427.4C464.916 422.5 465.516 419.4 468.516 416.6C468.516 416.6 472.416 412.8 480.616 412.6C481.616 412.6 482.516 412.9 482.616 413C483.016 413.2 483.516 413.4 483.716 413.8C484.116 414.4 483.816 415.2 483.716 415.3C483.316 416.4 482.116 416.9 481.716 417.1C476.316 419.3 473.816 419.4 472.016 421.3C470.116 423.3 469.716 426.7 469.616 427.4C469.416 428.9 469.216 429.7 468.816 431.4C468.416 432.6 468.116 433.5 465.816 434.1Z" fill="white"/>
<path opacity="0.4" d="M526.716 911.4C583.116 905.4 714.016 883.5 828.516 781.1C851.016 760.9 893.316 722.4 927.516 659.6C985.716 552.5 997.416 428.3 997.416 279.3C997.416 279.3 1030.12 358.3 1037.02 419.6C1050.42 538 1012.72 627 1004.32 645.9C957.416 751.9 879.216 808.8 847.716 831.7C834.916 841 824.516 847.6 822.016 849.1C783.916 873 720.416 904.7 637.316 913.8C610.816 916.7 572.616 918.3 526.716 911.4Z" fill="#33637C"/>
<path d="M433.547 462C433.547 462 421.067 470.147 422.64 473.983C424.23 477.812 430.484 482.041 430.484 482.041" stroke="#303131" stroke-width="11" stroke-linecap="round" stroke-linejoin="round"/>
<path d="M556.046 358.24C552.133 352.616 544.179 342.926 531.424 336.974C519.398 331.365 508.578 331.633 502.492 332.35" stroke="#303131" stroke-width="12" stroke-linecap="round" stroke-linejoin="round"/>
<path d="M342.771 347.669C346.537 342.53 354.155 333.699 366.172 328.426C377.501 323.456 387.582 323.912 393.241 324.694" stroke="#303131" stroke-width="12" stroke-linecap="round" stroke-linejoin="round"/>
</g>
<path d="M583.516 918.8C835.616 918.8 1039.92 714.5 1039.92 462.4C1039.92 210.3 835.516 6 583.516 6C331.516 6 127.116 210.3 127.116 462.4C127.116 714.5 331.416 918.8 583.516 918.8Z" stroke="#303131" stroke-width="11" stroke-linecap="round" stroke-linejoin="round"/>
<path d="M826.734 719.426L837.789 737.633L871.981 716.873L860.926 698.666L826.734 719.426Z" fill="#C5C0B8" stroke="#303131" stroke-width="11" stroke-linecap="round" stroke-linejoin="round"/>
<path d="M977.692 812.849L939.568 835.996L967.438 881.899L1005.56 858.751L977.692 812.849Z" fill="#FE563E" stroke="#303131" stroke-width="11" stroke-linecap="round" stroke-linejoin="round"/>
<path d="M845.347 708.91L827.139 719.964L901.201 841.944L919.408 830.89L845.347 708.91Z" fill="#C5C0B8" stroke="#303131" stroke-width="11" stroke-linecap="round" stroke-linejoin="round"/>
<path d="M1016.76 854.244L974.787 879.727L1032.03 974.011L1074 948.529L1016.76 854.244Z" fill="#FE563E" stroke="#303131" stroke-width="11" stroke-linecap="round" stroke-linejoin="round"/>
<path d="M1033.42 991.4L1050.32 1009.1L1064.22 1006L1057.52 976L1033.42 991.4Z" fill="#C5C0B8" stroke="#303131" stroke-width="11" stroke-linecap="round" stroke-linejoin="round"/>
<path d="M1060.82 1031.5C1069.49 1031.5 1076.52 1024.47 1076.52 1015.8C1076.52 1007.13 1069.49 1000.1 1060.82 1000.1C1052.14 1000.1 1045.12 1007.13 1045.12 1015.8C1045.12 1024.47 1052.14 1031.5 1060.82 1031.5Z" fill="#C5C0B8" stroke="#303131" stroke-width="11" stroke-linecap="round" stroke-linejoin="round"/>
<path d="M991.516 1014L1008.42 1031.8L1022.32 1028.7L1015.62 998.7L991.516 1014Z" fill="#C5C0B8" stroke="#303131" stroke-width="11" stroke-linecap="round" stroke-linejoin="round"/>
<path d="M1045.12 995.1L1015.52 1013.1C1003.82 1020.2 988.516 1016.5 981.416 1004.8L895.616 863.5C888.516 851.8 892.216 836.5 903.916 829.4L933.516 811.4C945.216 804.3 960.516 808 967.616 819.7L1053.42 961C1060.62 972.7 1056.82 988 1045.12 995.1Z" fill="#FE563E" stroke="#303131" stroke-width="11" stroke-linecap="round" stroke-linejoin="round"/>
<path d="M1018.92 1054.2C1027.59 1054.2 1034.62 1047.17 1034.62 1038.5C1034.62 1029.83 1027.59 1022.8 1018.92 1022.8C1010.24 1022.8 1003.22 1029.83 1003.22 1038.5C1003.22 1047.17 1010.24 1054.2 1018.92 1054.2Z" fill="#C5C0B8" stroke="#303131" stroke-width="11" stroke-linecap="round" stroke-linejoin="round"/>
<path d="M904.016 852.8C904.316 853.8 904.616 854.6 906.816 858.3C908.416 861 908.216 860.6 908.516 861.1C909.416 862.9 909.516 863.9 910.616 864.7C910.816 864.9 911.816 865.5 912.416 865.2C913.016 864.9 913.016 863.8 913.016 863.4C913.016 861.7 912.216 860.6 910.416 857.9C909.916 857.2 908.516 855.1 907.316 852.2C907.016 851.5 906.716 850.6 907.016 849.8C907.216 849.4 907.416 849.1 909.216 847.9C911.116 846.6 911.616 846.4 911.916 845.6C912.116 845.1 912.116 844.4 911.716 844C911.616 843.9 911.316 843.6 910.216 843.7C908.316 843.9 906.916 844.9 906.416 845.4C905.916 845.8 905.116 846.5 904.416 847.7C903.816 848.7 903.716 849.6 903.716 849.9C903.616 850.2 903.516 851.2 904.016 852.8Z" fill="#F4807F"/>
<path d="M720.416 853.1C771.116 931.3 807.716 987.6 814.216 996.5C814.916 997.5 817.916 1001.4 819.316 1007.2C819.816 1009.2 821.416 1016.1 818.616 1023.7C816.816 1028.5 813.916 1031.2 808.216 1036.7C799.416 1045.1 791.416 1049.3 786.416 1051.4C782.016 1053.3 779.816 1054.1 777.116 1053.9C767.616 1053.4 757.616 1043 758.116 1032.6C758.116 1032.6 758.516 1025.2 764.816 1018.5C765.116 1018.2 766.016 1017.3 767.016 1016.4C767.916 1015.6 768.616 1015 769.516 1014.4C772.216 1012.7 773.616 1012.8 774.916 1011.3C776.516 1009.4 776.516 1006.5 776.416 1005.1C775.916 998.1 767.816 988.2 767.016 987.3C761.316 978.7 756.516 971.8 753.216 967.2C747.516 959.2 746.016 957.4 741.316 950.5C735.916 942.7 736.416 942.9 728.816 931.5C725.616 926.7 719.616 917.8 711.916 906.8C708.116 901.5 705.316 897.6 704.616 896.6C698.016 887.6 692.016 879.7 686.816 873" fill="#C8E9F1"/>
<path d="M720.416 853.1C771.116 931.3 807.716 987.6 814.216 996.5C814.916 997.5 817.916 1001.4 819.316 1007.2C819.816 1009.2 821.416 1016.1 818.616 1023.7C816.816 1028.5 813.916 1031.2 808.216 1036.7C799.416 1045.1 791.416 1049.3 786.416 1051.4C782.016 1053.3 779.816 1054.1 777.116 1053.9C767.616 1053.4 757.616 1043 758.116 1032.6C758.116 1032.6 758.516 1025.2 764.816 1018.5C765.116 1018.2 766.016 1017.3 767.016 1016.4C767.916 1015.6 768.616 1015 769.516 1014.4C772.216 1012.7 773.616 1012.8 774.916 1011.3C776.516 1009.4 776.516 1006.5 776.416 1005.1C775.916 998.1 767.816 988.2 767.016 987.3C761.316 978.7 756.516 971.8 753.216 967.2C747.516 959.2 746.016 957.4 741.316 950.5C735.916 942.7 736.416 942.9 728.816 931.5C725.616 926.7 719.616 917.8 711.916 906.8C708.116 901.5 705.316 897.6 704.616 896.6C698.016 887.6 692.016 879.7 686.816 873" stroke="#303131" stroke-width="11" stroke-linecap="round" stroke-linejoin="round"/>
<path d="M824.416 555.4C836.116 563.7 845.416 570.8 852.016 576C859.616 582 864.016 585.8 866.816 588.2C868.516 589.7 870.216 591.4 872.216 592.8C873.216 593.5 876.116 597.5 876.216 598C876.916 601.6 875.616 605.9 875.516 606.1C873.216 613.2 869.316 622 869.016 622.5L847.016 667.7C834.216 694.7 825.716 712.5 823.216 716.9C822.716 717.8 820.816 721.3 820.316 726.2C820.116 727.9 819.716 733.7 823.016 739.7C825.116 743.5 827.916 745.5 833.316 749.4C841.816 755.6 848.916 758.2 853.516 759.5C857.416 760.6 859.416 761.2 861.616 760.7C867.716 759.5 872.516 752.6 872.516 746C872.516 739.4 867.616 734.4 863.516 730C859.616 725.9 858.616 726.6 857.316 724.4C853.016 717.8 859.816 708.4 871.116 686.4L892.916 641.5C892.916 641.5 906.416 608.8 907.316 601.6C908.116 594.3 907.716 588.8 906.316 583.7C904.916 578.7 896.116 572 896.116 572C881.716 559.7 865.216 545.5 847.116 530" fill="#C8E9F1"/>
<path d="M824.416 555.4C836.116 563.7 845.416 570.8 852.016 576C859.616 582 864.016 585.8 866.816 588.2C868.516 589.7 870.216 591.4 872.216 592.8C873.216 593.5 876.116 597.5 876.216 598C876.916 601.6 875.616 605.9 875.516 606.1C873.216 613.2 869.316 622 869.016 622.5L847.016 667.7C834.216 694.7 825.716 712.5 823.216 716.9C822.716 717.8 820.816 721.3 820.316 726.2C820.116 727.9 819.716 733.7 823.016 739.7C825.116 743.5 827.916 745.5 833.316 749.4C841.816 755.6 848.916 758.2 853.516 759.5C857.416 760.6 859.416 761.2 861.616 760.7C867.716 759.5 872.516 752.6 872.516 746C872.516 739.4 867.616 734.4 863.516 730C859.616 725.9 858.616 726.6 857.316 724.4C853.016 717.8 859.816 708.4 871.116 686.4L892.916 641.5C892.916 641.5 906.416 608.8 907.316 601.6C908.116 594.3 907.716 588.8 906.316 583.7C904.916 578.7 896.116 572 896.116 572C881.716 559.7 865.216 545.5 847.116 530" stroke="#303131" stroke-width="11" stroke-linecap="round" stroke-linejoin="round"/>
</svg>
