<svg xmlns="http://www.w3.org/2000/svg" width="932" height="864" fill="none" viewBox="0 0 932 864"><path fill="#BFF0FF" stroke="#303131" stroke-linecap="round" stroke-linejoin="round" stroke-width="7.351" d="M160.086 336.002C144.749 330.778 135.278 325.418 131.457 323.155C123.454 318.421 120.395 315.442 118.814 313.817C115.93 310.787 111.465 305.993 109.827 298.511C108.99 294.646 107.419 288.217 111.54 283.406C115.059 279.301 120.557 278.909 121.011 278.871C125.163 278.622 128.414 280.273 129.799 280.985C131.447 281.819 133.444 283.438 137.293 286.856C139.379 288.72 140.812 289.986 142.334 291.426C143.856 292.866 144.913 293.966 145.085 294.124C154.365 303.473 172.182 310.476 172.182 310.476C185.659 315.766 198.149 318.068 198.149 318.068C206.579 319.626 212.442 319.839 214.603 323.621C215.988 326.036 215.217 328.825 213.673 334.402C212.115 340.02 211.261 342.754 209.387 344.425C206.432 347.11 201.665 346.869 181.677 341.844C170.59 339.046 165.038 337.667 160.049 335.965L160.086 336.002Z"/><path fill="#C5C0B8" stroke="#303131" stroke-linecap="round" stroke-linejoin="round" stroke-width="7.351" d="M132.978 267.978C167.569 251.32 182.105 209.774 165.446 175.184C148.788 140.594 107.242 126.057 72.6517 142.716C38.0615 159.375 23.5251 200.92 40.1839 235.511C56.8426 270.101 98.3882 284.637 132.978 267.978Z"/><path fill="#E4E4E4" stroke="#303131" stroke-linecap="round" stroke-linejoin="round" stroke-width="7.351" d="M114.461 252.818C120.716 249.805 123.345 242.291 120.333 236.036C117.32 229.78 109.806 227.151 103.551 230.164C97.2953 233.177 94.6664 240.69 97.6791 246.946C100.692 253.201 108.205 255.83 114.461 252.818Z"/><path fill="#000" d="M81.057 205.892C83.7395 204.6 84.8668 201.378 83.5749 198.695C82.283 196.013 79.0611 194.885 76.3786 196.177C73.6961 197.469 72.5688 200.691 73.8607 203.374C75.1526 206.056 78.3745 207.184 81.057 205.892Z"/><path fill="#000" d="M127.625 203.792C130.307 202.501 131.435 199.279 130.143 196.596C128.851 193.914 125.629 192.786 122.946 194.078C120.264 195.37 119.137 198.592 120.429 201.275C121.72 203.957 124.942 205.084 127.625 203.792Z"/><path stroke="#303131" stroke-linecap="round" stroke-linejoin="round" stroke-width="7.351" d="M98.7206 205.647C98.7206 205.647 94.0206 213.845 94.6392 215.583C95.2577 217.32 103.243 218.609 103.243 218.609"/><path stroke="#303131" stroke-linecap="round" stroke-linejoin="round" stroke-width="7.351" d="M60.5904 181.957C60.5904 181.957 65.7932 176.714 69.1071 175.094C72.4209 173.474 80.6692 172.19 80.6692 172.19"/><path stroke="#303131" stroke-linecap="round" stroke-linejoin="round" stroke-width="7.351" d="M120.669 169.229C120.669 169.229 128.06 169.134 131.548 170.289C135.035 171.444 141.835 176.308 141.835 176.308"/><path fill="#fff" d="M62.0632 239.24C61.0976 241.158 60.1812 240.412 59.0923 239.459C53.4835 234.553 50.1303 228.295 48.3517 221.182C47.3929 217.38 46.8163 213.466 46.1415 209.6C46.0162 208.837 46.1261 208.009 46.3226 207.26C46.8796 205.248 48.439 204.763 49.7625 206.354C50.6257 207.392 51.2202 208.777 51.5131 210.09C52.3701 214.183 52.9823 218.322 53.7708 222.424C54.6882 227.045 56.669 231.057 60.4115 234.1C62.0322 235.403 63.5809 236.958 62.0537 239.22L62.0632 239.24Z"/><path fill="#fff" d="M50.3996 192.387C50.9604 192.746 52.5155 193.209 53.0182 194.202C54.2114 196.68 53.2132 200.14 51.3632 200.474C49.6305 200.8 47.6261 201.014 46.7905 198.776C45.9177 196.411 47.1891 193.618 50.3996 192.387Z"/><path stroke="#fff" stroke-linejoin="round" stroke-width="7.351" d="M38.2031 180.396C24.5502 179.733 -8.67143 176.942 21.8732 199.629"/><path stroke="#fff" stroke-linejoin="round" stroke-width="7.351" d="M49.4063 194.869C35.7648 194.004 2.5881 190.721 32.7932 213.858"/><path stroke="#fff" stroke-linejoin="round" stroke-width="7.351" d="M152.398 224.916C163.714 232.584 191.956 250.301 153.908 250.101"/><path stroke="#fff" stroke-linejoin="round" stroke-width="7.351" d="M158.301 218.549C169.93 225.731 198.896 242.238 160.874 243.647"/><path fill="#76D3EF" stroke="#303131" stroke-linecap="round" stroke-linejoin="round" stroke-width="7.351" d="M566.256 726.139C765.669 726.139 927.325 564.483 927.325 365.069C927.325 165.656 765.669 4 566.256 4C366.843 4 205.187 165.656 205.187 365.069C205.187 564.483 366.843 726.139 566.256 726.139Z"/><path fill="#307C93" d="M521.36 720.354C565.995 715.618 669.56 698.244 760.116 617.247C777.948 601.292 811.408 570.845 838.428 521.147C884.481 436.374 893.714 338.157 893.714 220.274C893.714 220.274 919.578 282.806 925.078 331.238C935.707 424.872 905.849 495.327 899.214 510.299C862.088 594.155 800.233 639.139 775.307 657.276C765.202 664.632 756.973 669.826 755.009 671.049C724.889 689.95 674.602 715.072 608.883 722.209C587.886 724.479 557.657 725.767 521.382 720.31L521.36 720.354Z"/><path fill="#C2FA67" stroke="#000" stroke-linecap="round" stroke-linejoin="round" stroke-width="7.351" d="M786.283 99.3352C788.008 101.278 789.361 103.613 792.067 108.24C793.53 110.75 794.315 112.322 794.73 114.483C794.948 115.618 795.385 117.866 794.73 120.266C793.966 123.082 792.308 124.13 790.278 126.509C787.899 129.281 786.48 132.969 783.599 140.303C781.831 144.799 782.137 144.908 780.478 148.771C778.928 152.395 778.033 154.468 776.462 157.24C775.349 159.204 774.563 160.361 773.799 162.587C773.1 164.574 772.577 166.101 772.904 167.935C773.297 170.139 774.694 171.514 776.462 173.282C777.204 174.002 779.19 175.879 782.704 177.735C787.069 180.026 788.051 179.306 790.278 181.292C790.845 181.816 793.093 183.868 793.835 187.076C794.337 189.259 794.294 192.489 794.272 192.424C794.075 193.755 793.552 195.61 792.046 196.876C790.147 198.469 788.379 197.684 783.577 198.666C780.521 199.277 778.077 199.823 776.003 201.787C775.567 202.202 773.821 203.882 773.341 206.24C772.358 211.041 777.771 213.268 782.246 222.26C784.581 226.974 783.686 227.542 786.698 233.391C788.117 236.141 789.667 239.088 792.482 242.296C794.708 244.806 797.502 247.971 802.282 249.87C804.617 250.787 809.354 252.664 814.308 250.765C818.608 249.106 820.834 245.439 822.777 242.296C824.457 239.568 825.592 237.735 825.898 235.181C826.836 227.476 818.935 224.748 819.219 216.476C819.35 213.006 820.747 213.508 821.882 206.676C822.166 205.017 822.362 202.136 822.777 196.44C823.017 193.013 823.41 189.608 823.672 186.203C824.043 181.292 824.108 179.634 825.461 178.63C827.404 177.211 830.416 178.324 831.245 178.63C834.868 179.961 835.436 182.405 839.714 187.098C842.748 190.416 842.617 189.368 849.055 195.567C850.954 197.4 852.548 199.015 855.734 202.245C859.968 206.545 860.776 207.505 863.308 209.819C864.705 211.085 867.76 213.835 867.76 213.835C868.088 214.293 869.397 216.018 871.776 216.498C874.265 217 876.731 215.887 878.019 214.272C880.179 211.543 878.892 207.571 878.019 204.93C876.644 200.674 874.832 199.212 871.776 194.694C867.673 188.648 869.463 189.15 864.203 180.441C863.461 179.219 859.117 172.06 857.524 167.978C857.306 167.433 856.236 166.08 856.193 164.181C856.149 162.347 857 161.321 857.328 160.383C858.615 156.716 853.159 152.045 848.161 146.174C844.996 142.442 842.573 138.12 839.692 134.148C830.263 121.14 831.354 121.903 828.561 118.564C823.868 112.955 823.235 113.675 812.54 103.417C806.844 97.9602 807.477 98.1785 796.956 87.8329C787.833 78.8623 785.41 76.7889 781.809 74.4753C779.103 72.751 775.065 70.4593 771.114 68.233C763.65 64.0206 763.759 64.3916 761.773 62.8856C759.503 61.1832 758.084 59.7645 757.32 60.2228C756.796 60.5502 756.906 61.6197 757.757 66.4651C758.477 70.4811 758.826 72.5109 759.088 73.1439C760.354 76.2214 762.428 77.3345 765.33 79.8227C771.66 85.2792 769.805 86.8944 775.567 91.8489C780.783 96.3232 782.311 94.9918 786.262 99.4225L786.283 99.3352Z"/><path fill="#EAF0C8" d="M345.726 115.707C342.692 115.03 343.412 113.459 344.351 111.603C349.24 101.978 356.857 95.0592 366.199 90.0173C371.197 87.3109 376.479 85.1283 381.673 82.7929C382.677 82.3345 383.899 82.2036 385.034 82.2254C388.068 82.2691 389.291 84.3207 387.523 86.7434C386.366 88.3149 384.642 89.6681 382.895 90.5193C377.461 93.1821 371.851 95.4957 366.395 98.0712C360.24 100.974 355.307 105.208 352.361 111.56C351.095 114.288 349.502 117.016 345.769 115.707H345.726Z"/><path fill="#EAF0C8" d="M333.043 118.916C333.457 119.44 334.789 120.4 334.92 121.491C335.247 124.22 333.152 127.144 331.297 126.883C329.572 126.621 327.586 126.162 327.542 123.783C327.477 121.273 329.594 119.047 333.043 118.916Z"/><path fill="#E9FFC5" d="M291.879 180.18C288.518 180.551 288.693 178.695 289.02 176.426C290.635 164.749 296.048 154.927 303.884 146.415C308.074 141.853 312.745 137.728 317.285 133.494C318.158 132.664 319.38 132.097 320.537 131.726C323.68 130.7 325.666 132.38 324.706 135.502C324.073 137.531 322.763 139.539 321.257 141.045C316.608 145.716 311.632 150.103 306.918 154.709C301.592 159.903 298.013 165.993 297.227 173.588C296.878 176.862 296.201 180.245 291.879 180.201V180.18Z"/><path fill="#BFF0FF" d="M469.347 715.464C462.385 782.907 457.452 831.536 457.103 839.546C457.059 840.484 456.95 843.998 455.095 847.971C454.484 849.302 452.214 853.995 447.128 856.985C443.942 858.862 441.061 859.124 435.32 859.604C426.459 860.368 420.086 859.08 416.223 857.967C412.883 857.029 411.246 856.461 409.806 855.152C404.655 850.546 403.738 840.113 408.802 834.417C408.802 834.417 412.468 830.401 418.994 829.506C419.3 829.462 420.217 829.375 421.221 829.309C422.094 829.266 422.77 829.266 423.534 829.353C425.826 829.637 426.59 830.27 427.987 830.03C429.755 829.724 431.064 828.065 431.675 827.192C434.6 823.023 434.513 813.682 434.513 812.809C435.211 805.301 435.626 799.211 435.866 795.13C436.303 787.993 436.281 786.268 436.739 780.222C437.241 773.369 437.416 773.653 438.332 763.766C438.703 759.619 439.38 751.848 439.991 742.049C440.275 737.312 440.449 733.776 440.493 732.947C440.886 724.828 441.082 717.603 441.17 711.47"/><path stroke="#303131" stroke-linecap="round" stroke-linejoin="round" stroke-width="7.351" d="M469.347 715.464C462.385 782.907 457.452 831.536 457.103 839.546C457.059 840.484 456.95 843.998 455.095 847.971C454.484 849.302 452.214 853.995 447.128 856.985C443.942 858.862 441.061 859.124 435.32 859.604C426.459 860.368 420.086 859.08 416.223 857.967C412.883 857.029 411.246 856.461 409.806 855.151C404.655 850.546 403.738 840.113 408.802 834.417C408.802 834.417 412.468 830.401 418.994 829.506C419.3 829.462 420.217 829.375 421.221 829.309C422.094 829.266 422.77 829.266 423.534 829.353C425.826 829.637 426.59 830.27 427.987 830.03C429.755 829.724 431.064 828.065 431.675 827.192C434.6 823.023 434.513 813.682 434.513 812.809C435.211 805.301 435.626 799.211 435.866 795.13C436.303 787.993 436.281 786.268 436.739 780.222C437.241 773.369 437.416 773.653 438.332 763.766C438.703 759.619 439.38 751.848 439.991 742.049C440.275 737.312 440.449 733.776 440.493 732.947C440.886 724.828 441.082 717.603 441.17 711.47"/><path stroke="#3F3F3F" stroke-linecap="round" stroke-linejoin="round" stroke-width="7.351" d="M420.313 408.948C420.313 408.948 435.33 419.032 448.36 419.032C461.39 419.032 476.538 411.415 476.538 411.415"/><path fill="#C2FA67" stroke="#303131" stroke-linecap="round" stroke-linejoin="round" stroke-width="7.351" d="M311.902 427.121C312.077 427.164 311.858 429.282 311.553 431.573C311.858 430.155 312.164 427.928 311.684 425.397C309.676 414.964 297.388 414.614 291.342 403.112C288.09 396.935 288.242 390.606 288.395 383.971C288.657 373.385 291.735 372.49 291.342 364.982C290.84 355.64 285.143 355.138 279.992 340.253C275.452 327.135 277.198 325.062 272.768 315.524C267.006 303.083 262.706 303.76 259.366 293.872C255.831 283.439 257.424 273.312 259.366 266.044C261.287 258.863 264.474 247.012 275.583 240.398C277.591 239.198 287.457 233.327 298.523 237.19C300.378 237.845 308.257 240.857 311.924 248.54C315.591 256.2 310.942 260.435 313.975 272.243C314.346 273.661 317.358 285.426 322.226 285.644C325.281 285.775 327.77 281.322 330.476 276.368C335.954 266.328 334.776 262.203 338.726 253.69C339.446 252.119 343.484 243.65 351.909 236.448C356.842 232.235 361.993 229.944 372.077 225.557C390.345 217.612 392.069 219.642 395.474 215.473C403.026 206.219 396.587 193.538 404.597 188.583C405.034 188.321 404.947 188.409 413.677 186.182C421.884 184.087 425.987 183.039 427.384 182.581C435.852 179.809 435.307 177.146 445.063 172.366C453.706 168.132 455.059 169.747 465.296 164.924C474.201 160.733 478.697 158.616 479.505 154.534C480.88 147.79 471.058 141.264 473.459 137.401C474.201 136.222 475.685 135.939 476.929 135.72C496.856 132.054 494.892 132.141 496.442 132.054C514.885 131.202 516.063 131.966 519.119 130.002C524.423 126.597 526.322 120.835 527.369 117.626C527.762 116.426 530.992 106.102 525.929 95.9095C523.091 90.2129 521.433 92.1554 515.19 83.8178C508.97 75.5239 507.988 70.1328 501.418 65.8113C499.323 64.4362 496.9 63.3231 493.975 63.214C493.015 63.1703 490.025 63.1048 487.253 64.8291C484.765 66.4006 483.957 68.4959 481.818 73.2322C478.501 80.5221 476.82 84.167 475.445 85.7167C473.328 88.0957 470.338 89.6672 464.379 92.8102C460.407 94.9055 458.246 96.0404 454.928 97.1754C451.545 98.3322 450.345 98.354 448.446 99.7291C445.696 101.715 445.98 103.352 443.492 106.255C441.178 108.962 436.049 113.239 431.684 111.843C428.606 110.86 427.209 107.499 426.969 106.866C425.245 102.435 428.213 99.9691 428.868 93.3558C429.567 86.2842 426.642 85.7603 426.751 77.4664C426.773 75.131 426.86 69.5654 429.938 64.7636C431.007 63.083 433.801 59.3944 445.827 55.2256C457.089 51.3187 460.101 52.6501 472.826 48.8742C480.836 46.4952 484.939 45.2511 489.239 41.999C492.338 39.6636 500.589 33.7269 501.418 23.9924C501.549 22.3773 502.029 17.3355 499.825 14.4544C490.767 2.62467 437.839 28.4013 423.739 35.2547C403.375 45.1638 379.934 56.5788 351.538 78.3831C338.486 88.4013 307.689 113.436 278.202 153.727C264.779 172.061 251.946 189.871 242.822 216.892C236.558 235.422 234.507 250.984 232.935 262.814C230.709 279.707 229.006 293.414 232.411 311.006C234.419 321.395 237.475 329.493 238.763 332.723C245.005 348.416 249.239 349.354 255.7 364.502C261.309 377.663 258.712 378.361 265.238 394.163C268.904 403.047 272.157 410.795 279.01 419.591C287.348 430.307 292.389 436.768 300.727 438.645C303.171 439.212 306.773 439.562 307.602 441.832C308.737 444.865 303.499 447.397 303.368 452.963C303.281 456.957 305.943 457.852 307.078 462.501C308.541 468.416 305.9 473.807 304.437 476.797C299.396 487.121 292.542 485.702 288.548 494.28C284.532 502.945 287.828 512.33 288.548 514.403C291.669 523.287 296.449 522.937 302.32 532.934C307.777 542.254 304.83 544.589 310.265 557.292C312.36 562.203 312.622 561.417 324.037 579.533C336.151 598.74 336.347 600.42 340.974 604.414C346.584 609.26 349.486 609.587 355.794 616.069C361.098 621.504 364.197 626.546 365.856 629.318C371.094 637.983 370.505 641.628 375.918 653.152C378.581 659.722 382.291 667.186 387.529 674.891C389.603 677.925 391.734 679.821 393.808 682.331C410.894 690.874 424.375 697.132 433.961 701.126C444.212 705.397 446.775 706.252 456.173 708.815C459.425 709.164 468.504 711.253 483.15 709.463C483.15 709.463 494.761 708.045 503.535 704.553C503.535 704.553 509.734 701.977 513.161 697.721C513.335 697.503 513.466 697.306 513.597 697.132C515.649 694.185 515.125 692.919 516.784 691.304C520.385 687.812 526.736 689.995 532.673 690.78C544.787 692.352 554.805 687.965 562.859 684.429C571.829 680.478 579.272 677.226 583.506 669.609C585.667 665.724 586.169 662.21 590.381 656.906C593.393 653.108 596.362 650.839 598.85 648.961C609.021 641.3 612.688 643.33 618.45 637.306C622.422 633.159 624.168 628.554 625.871 624.058C632.156 613.734 631.938 608.954 630.236 606.51C627.638 602.777 620.676 603.236 611.574 598.652C603.106 594.374 602.713 593.13 596.755 590.708C589.334 587.696 586.955 588.307 572.92 584.88C563.775 582.654 559.192 581.541 555.983 580.122C543.608 574.643 544.568 569.449 532.673 564.756C528.373 563.054 522.327 560.326 514.667 560.522C509.188 560.653 505.761 562.137 505.019 560.784C504.343 559.54 507.006 557.968 508.315 554.171C510.192 548.67 507.617 543.192 507.246 542.516C504.168 536.775 500.218 537.867 496.66 531.93C493.844 527.215 495.7 525.447 492.95 521.868C491.793 520.362 489.741 518.419 479.177 515.517C470.381 513.094 468.024 513.399 460.123 511.282C452.702 509.296 449.014 508.314 446.351 506.524C440.261 502.399 440.589 498.143 432.579 483.76C428.191 475.88 425.332 470.817 419.876 465.229C418.173 463.483 413.786 459.205 407.173 455.167C405.296 454.011 398.683 450.104 389.166 447.223C381.44 444.865 379.105 445.411 374.87 442.465C371.269 439.955 372.513 439.256 366.926 433.996C361.753 429.107 358.042 425.615 352.629 424.458C350.971 424.109 349.268 424 346.802 422.865C343.703 421.446 343.441 420.246 340.974 419.154C337.024 417.386 333.051 418.369 331.982 418.63C329.472 419.242 327.682 420.398 323.513 423.934C314.979 431.159 311.967 435.218 310.811 434.52C309.457 433.734 311.596 427.252 311.924 427.317L311.902 427.121Z"/><path fill="#C2FA67" stroke="#303131" stroke-linecap="round" stroke-linejoin="round" stroke-width="7.351" d="M908.533 250.979C906.741 251.019 904.737 255.006 904.055 257.696C903.131 261.318 904.432 263.317 902.761 266.286C902.463 266.824 901.318 268.846 899.066 269.792C895.534 271.271 891.662 269.074 888.005 266.991C885.229 265.412 883.267 263.658 882.008 262.533C880.728 261.364 879.214 259.993 877.822 258.122C874.428 253.514 875.711 251.211 872.394 246.124C871.009 243.992 869.685 242.014 867.136 240.965C864.48 239.847 861.956 240.349 859.958 240.777C855.962 241.633 853.334 243.595 849.391 246.614C845.113 249.886 842.846 251.398 842.382 253.264C841.746 255.889 843.18 257.826 841.818 260.629C841.15 261.987 840.166 262.878 839.476 263.384C839.164 263.594 838.655 263.887 838.015 264.132C837.221 264.439 835.835 264.817 833.834 264.525C829.07 263.854 825.499 260.18 822.442 260.995C821.497 261.254 819.925 262.086 817.975 267.341C815.016 275.298 816.651 278.725 815.195 290.979C814.412 297.531 813.68 298.778 813.388 304.949C813.156 309.637 813.504 310.498 812.832 312.838C811.395 317.67 808.268 319.531 803.913 324.089C800.41 327.775 798.36 331.018 794.217 337.481C791.804 341.261 788.182 347.017 785.139 354.841C781.954 363.055 780.869 369.467 779.519 377.685C778.015 386.728 777.286 391.251 778.059 395.9C778.817 400.308 780.129 402.744 780.49 408.954C780.668 412.169 780.63 416.949 780.604 417.931C780.558 421.358 780.45 423.844 780.435 424.389C780.124 432.11 781.957 445.477 785.281 458.642C787.794 468.555 789.915 473.436 790.948 475.668C793.406 481.016 795.041 484.465 798.546 487.351C801.623 489.899 805.063 491.125 814.57 492.443C828.558 494.36 835.542 495.329 842.195 493.887C848.497 492.524 858.817 490.305 865.499 481.921C869.02 477.516 870.23 473.028 876.245 469.277C878.22 468.041 882.26 465.526 885.649 467.013C889.06 468.499 889.897 473.194 890.432 476.111C891.35 481.092 890.446 483.928 888.117 496.16C886.55 504.306 887.055 502.529 885.59 510.111C885.59 510.111 884.883 513.76 883.463 522.98C883.097 525.285 883.116 527.032 882.916 530.52C882.611 535.491 882.481 537.976 882.805 538.094C884.232 538.633 890.788 525.901 896.711 511.493C901.328 500.261 905.546 490.108 912.381 469.277C918.899 449.411 923.969 418.563 924.865 410.202C925.008 408.896 926.131 399.55 926.904 376.484C927.534 357.689 927.246 335.943 926.335 326.553C925.747 320.642 924.08 311.778 920.723 294.07C913.625 256.614 910.739 250.949 908.554 251.001L908.533 250.979Z"/><path stroke="#303131" stroke-linecap="round" stroke-linejoin="round" stroke-width="7.351" d="M566.591 726.139C766.005 726.139 927.661 564.483 927.661 365.069C927.661 165.656 766.005 4 566.591 4C367.178 4 205.522 165.656 205.522 365.069C205.522 564.483 367.178 726.139 566.591 726.139Z"/><path fill="#BFF0FF" d="M773.996 493.752C773.996 493.752 784.712 467.91 785.367 462.17C786.022 456.429 785.651 452.02 784.581 448.026C783.512 444.032 776.506 438.794 776.506 438.794C765.134 429.059 752.039 417.819 737.721 405.531L719.823 425.414C729.078 431.984 736.477 437.637 741.628 441.697C747.652 446.455 751.144 449.423 753.326 451.366C754.701 452.588 756.033 453.897 757.561 454.967C758.39 455.534 760.638 458.699 760.725 459.114C761.293 461.951 760.223 465.334 760.18 465.487C758.368 471.096 755.247 478.081 755.051 478.495"/><path stroke="#303131" stroke-linecap="round" stroke-linejoin="round" stroke-width="7.351" d="M773.996 493.752C773.996 493.752 784.712 467.91 785.367 462.17C786.022 456.429 785.651 452.02 784.581 448.026C783.512 444.032 776.506 438.794 776.506 438.794C765.134 429.059 752.039 417.819 737.721 405.531L719.823 425.414C729.078 431.984 736.477 437.637 741.628 441.697C747.652 446.455 751.144 449.423 753.326 451.366C754.701 452.588 756.033 453.897 757.561 454.967C758.39 455.534 760.638 458.699 760.725 459.114C761.293 461.951 760.223 465.334 760.18 465.487C758.368 471.096 755.247 478.081 755.051 478.495"/><path fill="#BFF0FF" d="M755.858 478.674L755.181 478.128C745.076 499.518 738.31 513.552 736.389 517.088C735.996 517.808 734.468 520.558 734.097 524.443C733.966 525.753 733.595 530.401 736.258 535.16C737.917 538.128 740.099 539.721 744.443 542.864C751.143 547.731 756.818 549.849 760.398 550.874C763.475 551.769 765.047 552.206 766.793 551.857C771.638 550.874 775.414 545.418 775.392 540.245C775.392 535.029 771.529 531.034 768.255 527.608C765.156 524.356 764.414 524.879 763.322 523.199C759.939 518.004 765.287 510.562 774.279 493.166"/><path stroke="#303131" stroke-linecap="round" stroke-linejoin="round" stroke-width="7.351" d="M755.858 478.674L755.181 478.128C745.076 499.518 738.31 513.552 736.389 517.088C735.996 517.808 734.468 520.558 734.097 524.443C733.966 525.753 733.595 530.401 736.258 535.16C737.917 538.128 740.099 539.721 744.443 542.864C751.143 547.731 756.818 549.849 760.398 550.874C763.475 551.769 765.047 552.206 766.793 551.857C771.638 550.874 775.414 545.418 775.392 540.245C775.392 535.029 771.529 531.034 768.255 527.608C765.156 524.356 764.414 524.879 763.322 523.199C759.939 518.004 765.287 510.562 774.279 493.166"/><path fill="#303131" d="M504.694 356.04C499.239 359.563 491.962 357.996 488.44 352.541C484.918 347.086 486.484 339.809 491.939 336.287C497.394 332.765 504.671 334.331 508.193 339.786C511.716 345.241 510.149 352.518 504.694 356.04Z"/><path fill="#303131" d="M411.524 346.374C406.012 349.51 399.001 347.585 395.864 342.073C392.728 336.561 394.653 329.55 400.165 326.413C405.677 323.276 412.688 325.202 415.825 330.714C418.962 336.226 417.036 343.237 411.524 346.374Z"/><path stroke="#303131" stroke-linecap="round" stroke-linejoin="round" stroke-width="7.351" d="M443.455 350.874C443.455 350.874 436.882 360.044 439.044 362.319C441.215 364.585 446.787 365.855 446.787 365.855"/><path stroke="#303131" stroke-linecap="round" stroke-linejoin="round" stroke-width="7.351" d="M380.083 317.764C383.01 313.482 388.971 306.098 398.59 301.514C407.659 297.193 415.85 297.33 420.462 297.835"/><path stroke="#303131" stroke-linecap="round" stroke-linejoin="round" stroke-width="7.351" d="M527.435 334.621C525.395 330.25 521.039 322.571 512.894 316.885C505.214 311.526 497.661 310.379 493.344 310.126"/><path fill="#BFF0FF" d="M673.728 679.498C713.822 741.375 742.808 785.922 747.959 792.95C748.548 793.758 750.861 796.835 751.996 801.441C752.367 802.99 753.655 808.49 751.407 814.514C749.988 818.29 747.718 820.451 743.2 824.795C736.216 831.473 729.93 834.747 725.914 836.45C722.444 837.912 720.676 838.567 718.581 838.436C711.072 838.043 703.171 829.836 703.586 821.564C703.586 821.564 703.935 815.671 708.868 810.433C709.108 810.171 709.806 809.473 710.636 808.752C711.356 808.119 711.924 807.661 712.644 807.203C714.783 805.871 715.852 805.915 716.878 804.736C718.166 803.252 718.144 800.982 718.057 799.804C717.686 794.282 711.247 786.402 710.636 785.682C706.096 778.851 702.298 773.416 699.723 769.771C695.227 763.419 694.048 762.001 690.294 756.544C686.06 750.389 686.387 750.52 680.429 741.528C677.919 737.752 673.182 730.724 667.027 722.015C664.037 717.803 661.789 714.704 661.243 713.962C656.027 706.803 651.269 700.56 647.166 695.322"/><path stroke="#303131" stroke-linecap="round" stroke-linejoin="round" stroke-width="7.351" d="M673.728 679.498C713.822 741.375 742.808 785.922 747.959 792.95C748.548 793.758 750.861 796.835 751.996 801.441C752.367 802.99 753.655 808.49 751.407 814.514C749.988 818.29 747.718 820.451 743.2 824.795C736.216 831.473 729.93 834.747 725.914 836.45C722.444 837.912 720.676 838.567 718.581 838.436C711.072 838.043 703.171 829.836 703.586 821.564C703.586 821.564 703.935 815.671 708.868 810.433C709.108 810.171 709.806 809.473 710.636 808.752C711.356 808.119 711.924 807.661 712.644 807.203C714.783 805.871 715.852 805.915 716.878 804.736C718.166 803.252 718.144 800.982 718.057 799.804C717.686 794.282 711.247 786.402 710.636 785.682C706.096 778.851 702.298 773.416 699.723 769.771C695.227 763.419 694.048 762.001 690.294 756.544C686.06 750.389 686.387 750.52 680.429 741.528C677.919 737.752 673.182 730.724 667.027 722.015C664.037 717.803 661.789 714.704 661.243 713.962C656.027 706.803 651.269 700.56 647.166 695.322"/></svg>