<svg xmlns="http://www.w3.org/2000/svg" width="406" height="473" fill="none" viewBox="0 0 406 473"><path fill="#B0A8CF" stroke="#303131" stroke-linecap="round" stroke-linejoin="round" stroke-width="7.351" d="M196.646 204.288C196.108 205.206 196.507 206.382 196.686 206.881C197.424 208.995 199.299 210.092 200.496 210.81C205.442 213.742 207.915 215.218 209.112 216.235C211.286 218.09 213.42 219.925 215.136 222.997C215.794 224.173 216.372 225.55 217.848 226.188C219.085 226.726 220.88 226.726 221.877 225.689C223.034 224.493 222.555 222.498 222.196 220.942C221.897 219.666 221.279 217.97 219.663 215.936C219.025 215.118 218.247 214.281 213.759 210.91C211.904 209.514 212.742 210.192 207.018 206.103C204.445 204.268 203.687 203.71 202.291 203.371C200.615 202.952 197.564 202.712 196.646 204.288Z"/><path fill="#5E8A3D" d="M194.344 34.3218L183.262 34.734C182.436 34.7647 181.792 35.4588 181.823 36.2844L182.02 41.5862C182.051 42.4118 182.745 43.0561 183.57 43.0254L194.652 42.6133C195.478 42.5826 196.122 41.8884 196.091 41.0628L195.894 35.761C195.864 34.9355 195.169 34.2911 194.344 34.3218Z"/><path fill="#6F9A28" stroke="#303131" stroke-linecap="round" stroke-linejoin="round" stroke-width="7.351" d="M96.7469 381.594C70.3594 381.694 51.6906 381.734 44.8295 381.734H44.7896V275.198C21.6531 272.764 6.55458 251.292 4.73957 234.478C2.70826 215.579 20.8198 200.856 23.6348 198.567L23.6476 198.557C32.244 191.596 41.1994 188.843 46.5647 187.647L47.1032 62.7896C80.3918 60.476 113.64 58.1709 146.929 55.8687L384.517 222.072C384.517 222.072 382.622 243.912 370.515 252.927C361.34 259.769 347 262.382 347 262.382C335.87 290.085 341.634 335.979 340.099 373.995C324.382 375.99 292.33 379.58 263.25 378.842C256.249 378.662 249.268 378.223 241.988 374.214C231.676 368.53 231.617 361.629 218.971 348.964C209.876 339.829 202.536 332.489 193.242 332.748C189.811 332.848 185.124 334.005 168.889 349.682C150.26 367.672 151.636 370.784 143.558 375.91C135.002 381.335 122.137 381.494 96.7469 381.594Z"/><path fill="#E9FFC5" d="M282.298 365.46C283.296 410.396 283.954 442.787 283.735 448.093C283.715 448.711 283.575 451.045 284.712 453.777C285.091 454.695 286.487 457.946 290.097 460.299C292.351 461.775 294.485 462.134 298.733 462.872C305.295 464.009 310.142 463.63 313.094 463.172C315.627 462.793 316.923 462.593 318.06 461.795C321.212 459.581 321.989 454.715 320.115 451.244C318.24 447.734 314.051 446.258 310.461 445.021C307.07 443.825 306.711 444.423 305.315 443.625C301.027 441.192 302.204 434.49 302.503 419.91C302.583 416.22 302.403 421.087 302.443 401.222C302.443 392.665 302.463 388.337 302.543 385.126C302.663 380.239 302.922 373.318 303.56 364.901"/><path stroke="#303131" stroke-linecap="round" stroke-linejoin="round" stroke-width="7.351" d="M282.298 365.46C283.296 410.396 283.954 442.787 283.735 448.093C283.715 448.711 283.575 451.045 284.712 453.777C285.091 454.695 286.487 457.946 290.097 460.299C292.351 461.775 294.485 462.134 298.733 462.872C305.295 464.009 310.142 463.63 313.094 463.172C315.627 462.793 316.923 462.593 318.06 461.795C321.212 459.581 321.989 454.715 320.115 451.244C318.24 447.734 314.051 446.258 310.461 445.021C307.07 443.825 306.711 444.423 305.315 443.625C301.027 441.192 302.204 434.49 302.503 419.91C302.583 416.22 302.403 421.087 302.443 401.222C302.443 392.665 302.463 388.337 302.543 385.126C302.663 380.239 302.922 373.318 303.56 364.901"/><path fill="#E9FFC5" d="M111.434 377.38C112.391 419.405 112.99 449.722 112.79 454.668C112.77 455.247 112.651 457.421 113.708 459.994C114.067 460.851 115.363 463.903 118.754 466.097C120.868 467.473 122.863 467.812 126.852 468.51C132.995 469.587 137.542 469.208 140.295 468.809C142.668 468.45 143.885 468.271 144.942 467.513C147.894 465.439 148.612 460.891 146.877 457.64C145.121 454.369 141.192 452.993 137.841 451.816C134.65 450.699 134.331 451.258 133.035 450.52C129.026 448.246 130.123 441.983 130.402 428.34C130.462 424.89 130.322 429.437 130.342 410.849C130.342 402.85 130.362 398.802 130.442 395.79C130.542 391.222 130.781 384.74 131.399 376.862"/><path stroke="#303131" stroke-linecap="round" stroke-linejoin="round" stroke-width="7.351" d="M111.434 377.38C112.391 419.405 112.99 449.722 112.79 454.668C112.77 455.247 112.651 457.421 113.708 459.994C114.067 460.851 115.363 463.903 118.754 466.097C120.868 467.473 122.863 467.812 126.852 468.51C132.995 469.587 137.542 469.208 140.295 468.809C142.668 468.45 143.885 468.271 144.942 467.513C147.894 465.439 148.612 460.891 146.877 457.64C145.121 454.369 141.192 452.993 137.841 451.816C134.65 450.699 134.331 451.258 133.035 450.52C129.026 448.246 130.123 441.983 130.402 428.34C130.462 424.89 130.322 429.437 130.342 410.849C130.342 402.85 130.362 398.802 130.442 395.79C130.542 391.222 130.781 384.74 131.399 376.862"/><path fill="#6F9A28" d="M48.8919 62.5101C84.5739 60.0767 120.256 57.6434 155.938 55.2301C162.719 49.1268 167.127 43.4225 169.94 39.2739C172.812 35.0455 174.148 32.1734 177.12 27.3067C178.097 25.7111 179.154 24.1155 181.248 20.9243C184.26 16.297 184.878 15.4593 185.656 14.5019C185.916 14.1828 188.489 11.1112 191.5 8.93718C196.905 5.02792 202.949 4.64896 206.699 4.40962C207.596 4.34978 220.102 3.89104 229.217 9.83472C233.585 12.6869 236.417 16.0776 238.232 18.2516C240.067 20.4456 240.226 21.0439 246.31 29.6004C249.661 34.3075 250.458 35.3447 251.017 36.0228C251.017 36.0228 254.428 40.5703 258.636 44.2402C270.942 54.9708 323.498 43.3028 355.949 42.8241C357.325 50.2637 359.08 61.2934 360.237 74.7365C360.815 81.4381 361.613 93.2656 361.394 110.738C360.835 152.463 349.894 169.032 358.83 182.077C366.409 193.126 363.101 210.269 363.101 210.269C367.31 213.141 376.94 214.67 379.334 217.104C387.252 225.182 392.189 224.066 391.89 227.178C391.77 228.355 390.055 243.653 377.749 252.668C368.414 259.509 353.835 262.122 353.835 262.122C342.506 289.826 348.389 335.7 346.814 373.735C330.858 375.73 298.247 379.32 268.688 378.582C261.568 378.402 254.487 377.984 247.068 373.955C236.576 368.27 236.517 361.369 223.672 348.704C214.417 339.569 206.958 332.229 197.504 332.489C194.013 332.588 189.246 333.745 172.752 349.422C153.804 367.433 155.22 370.524 147.003 375.65C138.306 381.075 125.222 381.235 99.3932 381.334C86.349 381.374 68.7773 379.36 46.6182 381.474"/><path stroke="#303131" stroke-linecap="round" stroke-linejoin="round" stroke-width="7.351" d="M48.8919 62.5101C84.5739 60.0767 120.256 57.6434 155.938 55.2301C162.719 49.1268 167.127 43.4225 169.94 39.2739C172.812 35.0455 174.148 32.1734 177.12 27.3067C178.097 25.7111 179.154 24.1155 181.248 20.9243C184.26 16.297 184.878 15.4593 185.656 14.5019C185.916 14.1828 188.489 11.1112 191.5 8.93718C196.905 5.02792 202.949 4.64896 206.699 4.40962C207.596 4.34978 220.102 3.89104 229.217 9.83472C233.585 12.6869 236.417 16.0776 238.232 18.2516C240.067 20.4456 240.226 21.0439 246.31 29.6004C249.661 34.3075 250.458 35.3447 251.017 36.0228C251.017 36.0228 254.428 40.5703 258.636 44.2402C270.942 54.9708 323.498 43.3028 355.949 42.8241C357.325 50.2637 359.08 61.2934 360.237 74.7365C360.815 81.4381 361.613 93.2656 361.394 110.738C360.835 152.463 349.894 169.032 358.83 182.077C366.409 193.126 363.101 210.269 363.101 210.269C367.31 213.141 376.94 214.67 379.334 217.104C387.252 225.182 392.189 224.066 391.89 227.178C391.77 228.355 390.055 243.653 377.749 252.668C368.414 259.509 353.834 262.122 353.834 262.122C342.506 289.826 348.389 335.7 346.814 373.735C330.858 375.73 298.247 379.32 268.688 378.582C261.568 378.402 254.487 377.984 247.068 373.955C236.576 368.27 236.517 361.369 223.672 348.704C214.417 339.569 206.958 332.229 197.504 332.489C194.013 332.588 189.246 333.745 172.752 349.422C153.804 367.433 155.22 370.524 147.003 375.65C138.306 381.075 125.222 381.235 99.3932 381.334C86.349 381.374 68.7773 379.36 46.6182 381.474"/><path fill="#C2FA67" stroke="#303131" stroke-linecap="round" stroke-linejoin="round" stroke-width="7.351" d="M61.9154 397.111C68.7766 397.111 87.4453 397.072 113.833 396.972C139.223 396.872 152.088 396.713 160.644 391.287C168.722 386.162 167.346 383.05 185.975 365.059C202.21 349.383 206.897 348.226 210.328 348.126C219.622 347.867 226.962 355.207 236.057 364.341C248.702 377.007 248.762 383.908 259.074 389.592C266.354 393.601 273.335 394.04 280.336 394.219C309.416 394.957 341.468 391.367 357.185 389.373C358.72 351.357 352.956 305.463 364.086 277.759C364.086 277.759 378.426 275.146 387.601 268.305C399.708 259.29 401.503 238.627 401.603 237.45C402.68 226.121 403.255 219.667 394.712 212.832C384.033 204.289 379.334 202.58 371.944 196.722C363.029 184.675 370.847 176.098 371.505 126.375C371.745 108.903 370.947 97.0754 370.368 90.3738C369.231 76.9307 367.496 65.901 366.16 58.4615C334.267 58.9401 282.569 70.628 270.463 59.8776C266.334 56.2076 262.963 51.6601 262.963 51.6601C262.425 50.982 261.627 49.9448 258.336 45.2378C252.352 36.6813 252.193 36.0829 250.378 33.8889C248.583 31.695 245.79 28.3043 241.502 25.4721C232.766 19.6879 223.232 19.7677 219.363 20.047C216.132 20.2863 210.208 20.7251 204.424 24.5745C202.33 25.9707 200.096 27.9054 194.352 36.5616C188.149 45.896 187.092 49.1072 183.242 54.9112C181.088 58.1423 177.977 62.3308 173.549 66.9182C171.056 69.4912 167.625 71.007 164.015 71.2464C130.746 73.5401 97.4778 75.8537 64.1892 78.1674C64.0097 119.793 63.8302 161.419 63.6506 203.024C58.2854 204.221 49.33 206.974 40.7336 213.935C37.9612 216.188 19.7911 230.928 21.8255 249.856C23.6405 266.67 40.8532 281.888 63.9897 284.321L61.8755 397.111H61.9154Z"/><path fill="#E9FFC5" stroke="#303131" stroke-linecap="round" stroke-linejoin="round" stroke-width="7.351" d="M31.2841 320.489C27.3948 329.584 26.0585 336.126 25.5798 338.798C24.5626 344.403 24.762 347.056 24.9216 348.472C25.2208 351.065 25.7394 355.134 28.8109 359.083C30.4065 361.117 32.9795 364.608 37.168 364.847C40.7382 365.046 43.2911 362.773 43.4906 362.573C45.3854 360.838 45.9439 358.664 46.1832 357.746C46.4624 356.649 46.5024 355.054 46.4026 351.863C46.3428 350.127 46.3228 348.931 46.243 347.634C46.1632 346.338 46.0635 345.38 46.0436 345.241C45.2657 337.063 49.3346 326.093 49.3346 326.093C52.4061 317.796 56.5547 311.234 56.5547 311.234C59.367 306.806 61.7604 304.114 60.7632 301.501C60.1249 299.845 58.3897 298.988 54.9192 297.272C51.4288 295.537 49.6736 294.739 48.0182 294.859C45.4054 295.019 43.4906 297.253 37.527 308.322C34.2161 314.485 32.5407 317.557 31.2841 320.509V320.489Z"/><path fill="#303131" d="M276.29 228.14C272.337 231.594 266.333 231.189 262.879 227.236C259.426 223.283 259.831 217.279 263.784 213.825C267.737 210.372 273.741 210.777 277.195 214.73C280.648 218.683 280.243 224.687 276.29 228.14Z"/><path fill="#303131" d="M200.633 231.266C196.589 234.418 190.756 233.695 187.604 229.651C184.453 225.607 185.176 219.774 189.22 216.623C193.263 213.471 199.096 214.194 202.248 218.238C205.4 222.282 204.677 228.115 200.633 231.266Z"/><path stroke="#303131" stroke-linecap="round" stroke-linejoin="round" stroke-width="7.351" d="M234.951 221.183C234.951 221.183 241.443 239.807 239.449 241.375C237.448 242.935 232.843 243.301 232.843 243.301"/><path stroke="#303131" stroke-linecap="round" stroke-linejoin="round" stroke-width="7.351" d="M165.492 199.722C167.335 195.955 171.243 189.353 178.403 184.566C185.154 180.053 191.723 179.207 195.471 179.074"/><path stroke="#303131" stroke-linecap="round" stroke-linejoin="round" stroke-width="7.351" d="M289.95 182.279C287.125 179.591 281.58 175.097 273.772 173.222C266.41 171.456 260.387 172.822 257.063 173.905"/><path stroke="#303131" stroke-linecap="round" stroke-linejoin="round" stroke-width="7.351" d="M246.362 270.087C245.733 270.422 243.099 271.785 238.905 272.428C235.264 272.991 232.131 272.74 230.858 272.62C229.068 272.439 225.749 271.983 221.685 270.56C212.322 267.291 206.37 261.507 205.027 260.155"/><path fill="#E9FFC5" d="M97.5381 95.5595C99.7521 94.9412 101.687 94.7019 111.24 94.7019C118.281 94.7019 117.324 94.8215 118.481 94.7218C122.889 94.3628 125.003 93.4653 127.735 94.7218C128.314 94.9811 130.647 96.0781 130.727 97.7535C130.787 99.3292 128.852 100.546 128.014 101.064C124.843 102.999 121.772 102.82 114.412 102.441C112.617 102.341 106.833 102.082 99.9914 102.999C98.296 103.218 96.3414 103.637 95.1048 105.193C94.5065 105.971 94.1873 106.868 93.9081 111.675C93.6089 116.781 93.8283 118.138 92.6516 119.514C91.9136 120.391 90.5573 121.309 89.3007 121.01C88.8819 120.91 88.0043 120.571 86.9871 118.497C85.1122 114.627 85.6109 110.678 85.8502 109.062C86.0696 107.547 86.4286 105.193 87.9445 102.6C89.2609 100.346 90.8166 99.01 91.2953 98.5912C92.2127 97.8333 93.9879 96.5568 97.5581 95.5595H97.5381Z"/><path fill="#E9FFC5" d="M141.158 100.566C139.383 100.447 137.129 99.21 137.069 97.4348C137.03 95.6797 139.164 94.3433 140.879 94.1239C143.232 93.8248 146.005 95.4603 146.025 97.2753C146.025 99.0504 143.432 100.706 141.158 100.566Z"/><path fill="#E9FFC5" d="M334.547 366.237C335.046 363.963 335.205 362.009 334.767 352.335C334.447 345.215 334.368 346.192 334.408 345.015C334.567 340.548 335.345 338.354 333.989 335.661C333.709 335.103 332.513 332.769 330.857 332.769C329.302 332.769 328.185 334.803 327.726 335.681C325.971 338.972 326.29 342.083 326.988 349.503C327.167 351.318 327.686 357.162 327.108 364.123C326.968 365.858 326.649 367.853 325.153 369.169C324.415 369.807 323.537 370.186 318.81 370.685C313.804 371.223 312.428 371.064 311.131 372.32C310.314 373.118 309.476 374.514 309.815 375.791C309.935 376.21 310.294 377.067 312.408 378.005C316.317 379.72 320.187 379.022 321.762 378.723C323.238 378.444 325.552 377.965 328.045 376.309C330.219 374.873 331.456 373.238 331.835 372.739C332.553 371.782 333.729 369.927 334.527 366.277L334.547 366.237Z"/><path fill="#E9FFC5" d="M330.139 324.132C328.364 324.013 326.11 322.776 326.05 321.001C326.01 319.246 328.145 317.909 329.86 317.69C332.213 317.391 334.986 319.026 335.006 320.841C335.006 322.616 332.413 324.272 330.139 324.132Z"/><path fill="#E9FFC5" stroke="#303131" stroke-linecap="round" stroke-linejoin="round" stroke-width="7.351" d="M395.261 300.398C399.15 309.493 400.486 316.035 400.965 318.707C401.982 324.312 401.783 326.965 401.623 328.381C401.324 330.974 400.806 335.043 397.734 338.992C396.138 341.026 393.565 344.517 389.377 344.756C385.807 344.955 383.254 342.682 383.054 342.482C381.16 340.747 380.601 338.573 380.362 337.655C380.082 336.558 380.043 334.963 380.142 331.771C380.202 330.036 380.222 328.84 380.302 327.543C380.382 326.247 380.481 325.289 380.501 325.15C381.279 316.972 377.21 306.002 377.21 306.002C374.139 297.705 369.99 291.143 369.99 291.143C367.178 286.715 364.784 284.023 365.782 281.41C366.42 279.754 368.155 278.897 371.626 277.181C375.116 275.446 376.871 274.648 378.527 274.768C381.14 274.928 383.054 277.161 389.018 288.231C392.329 294.394 394.004 297.466 395.261 300.418V300.398Z"/><line x1="51.678" x2="64.784" y1="63.663" y2="74.386" stroke="#000" stroke-linecap="round" stroke-width="7.351"/><line x1="356.196" x2="366.352" y1="42.386" y2="55.936" stroke="#000" stroke-linecap="round" stroke-width="7.351"/><line x1="48.261" x2="61.367" y1="383.179" y2="393.902" stroke="#000" stroke-linecap="round" stroke-width="7.351"/><path fill="#6F9A28" d="M46.5059 370.881L59.3207 371.736V390.531L46.5059 380.279V370.881Z"/><path fill="#6F9A28" d="M340.392 47.0939L354.916 45.3853L361.75 55.6371L340.392 57.3457V47.0939Z"/></svg>