<svg width="586" height="580" viewBox="0 0 586 580" fill="none" xmlns="http://www.w3.org/2000/svg">
<g clip-path="url(#clip0_2848_2616)">
<path d="M66.384 319.1C54.4419 337.866 67.4628 361.725 45.3599 385.735C29.2531 403.246 12.1428 401.641 5.84563 419.027C-0.0250576 435.209 7.15023 457.763 20.698 464.838C34.6221 472.089 44.6072 457.462 59.585 462.656C85.2756 471.562 77.2974 522.115 101.357 531.147C117.715 537.269 124.639 515.116 152.713 514.639C179.407 514.187 207.707 533.631 235.405 552.723C244.562 559.045 253.619 566.095 265.862 565.167C278.607 564.214 289.997 554.956 296.319 549.788C304.674 542.989 305.652 539.828 310.82 535.136C335.181 513.033 367.52 533.681 388.419 512.431C393.386 507.388 397.827 499.862 402.92 491.206C412.077 475.652 411.576 471.437 417.421 467.774C425.926 462.455 431.546 468.577 450.061 467.046C460.774 466.143 475.576 465.24 481.974 455.33C485.185 450.337 485.11 444.943 484.934 435.41C484.834 429.74 484.658 419.504 480.468 411.852C472.716 397.702 452.721 394.917 447.201 394.014C373.416 381.971 108.282 253.268 66.384 319.125V319.1Z" fill="#76D3EF" stroke="#303131" stroke-width="10" stroke-linecap="round" stroke-linejoin="round"/>
<path d="M243.458 332.522C230.989 364.661 228.455 389.699 228.58 407.085C228.656 417.045 229.659 429.991 222.534 444.317C218.645 452.169 215.81 453.398 197.997 471.337C171.63 497.88 168.92 504.177 156.301 508.468C145.613 512.08 144.333 508.668 134.223 513.285C121.152 519.231 114.227 529.09 104.643 527.033C102.16 526.506 100.303 525.352 99.1491 524.499C121.829 510.148 150.405 486.465 164.73 448.632C167.44 441.507 168.393 437.116 169.949 431.873C177.5 406.533 195.74 371.861 243.433 332.548L243.458 332.522Z" fill="#307C93"/>
<path d="M454.001 229.058C448.356 263.053 450.965 288.116 454.628 305.076C456.736 314.811 460.348 327.279 456.309 342.759C454.327 350.311 448.808 358.264 437.794 374.195C434.658 378.736 416.87 404.226 405.304 409.645C404.401 410.071 400.613 411.752 396.272 415.014C395.394 415.666 393.036 417.522 390.251 420.383C386.914 423.845 385.133 426.579 383.904 428.26C374.747 440.679 358.991 444.643 358.013 444.869C355.052 445.571 352.593 445.797 351.063 445.897C370.682 427.382 394.24 398.556 400.613 358.74C401.817 351.214 401.867 346.698 402.319 341.254C404.526 314.911 415.34 277.253 454.001 229.033V229.058Z" fill="#467C93" stroke="#303131" stroke-width="7.52653" stroke-linecap="round" stroke-linejoin="round"/>
<path d="M152.614 297.902C152.664 320.757 151.635 343.713 153.04 366.443C153.693 376.755 152.288 385.009 148.976 392.034C144.46 401.642 137.51 407.488 130.636 412.531C93.1291 440.078 73.3092 434.032 52.8622 451.493C49.6759 454.228 39.766 463.235 27.7988 462.005C26.0677 461.83 24.6628 461.478 23.7596 461.202C45.4862 441.332 69.6965 416.47 93.8315 386.037C118.795 354.551 137.962 324.32 152.614 297.902Z" fill="#307C93"/>
<path d="M368.624 342.883C362.979 376.878 365.588 401.942 369.251 418.901C371.358 428.636 374.971 441.105 370.932 456.584C368.95 464.136 363.43 472.089 352.416 488.02C349.28 492.561 331.493 518.051 319.927 523.47C319.024 523.896 315.235 525.577 310.895 528.839C310.017 529.491 307.659 531.348 304.874 534.208C301.537 537.67 299.756 540.405 298.527 542.086C289.369 554.504 273.614 558.468 272.635 558.694C269.675 559.397 267.216 559.622 265.686 559.723C285.305 541.207 308.863 512.381 315.235 472.566C316.44 465.039 316.49 460.523 316.941 455.079C319.149 428.736 329.962 391.078 368.624 342.858V342.883Z" fill="#307C93"/>
<path d="M281 449.85C256.949 510.194 239.734 553.722 237.41 560.997C237.14 561.853 236.167 565.05 233.114 568.247C232.087 569.305 228.411 573.056 221.926 574.516C217.845 575.447 214.548 574.919 207.9 573.912C197.658 572.351 190.74 569.531 186.605 567.517C183.065 565.805 181.282 564.924 180.012 563.288C176.498 558.807 177.796 551.859 182.282 548.032C186.795 544.18 193.713 544.18 199.604 544.18C205.198 544.18 205.414 545.137 207.873 544.734C215.413 543.475 217.034 533.833 223.925 513.971C225.682 508.936 223.466 515.607 233.384 488.695C237.654 477.115 239.816 471.249 241.302 466.869C243.572 460.197 246.68 450.706 249.95 439" fill="#FFA295"/>
<path d="M281 449.85C256.949 510.194 239.734 553.722 237.41 560.997C237.14 561.853 236.167 565.05 233.114 568.247C232.087 569.305 228.411 573.056 221.926 574.516C217.845 575.447 214.548 574.919 207.9 573.912C197.658 572.351 190.74 569.531 186.605 567.517C183.065 565.805 181.282 564.924 180.012 563.288C176.498 558.807 177.796 551.859 182.282 548.032C186.795 544.18 193.713 544.18 199.604 544.18C205.198 544.18 205.414 545.137 207.873 544.734C215.413 543.475 217.034 533.833 223.925 513.971C225.682 508.936 223.466 515.607 233.384 488.695C237.654 477.115 239.816 471.249 241.302 466.869C243.572 460.197 246.68 450.706 249.95 439" stroke="#303131" stroke-width="10" stroke-linecap="round" stroke-linejoin="round"/>
<path d="M326 439.711C334.205 503.371 340.011 549.254 340.42 556.826C340.474 557.703 340.61 561.038 342.791 564.774C343.527 566.027 346.171 570.465 352.168 573.298C355.929 575.079 359.309 575.304 366.069 575.781C376.509 576.508 384.005 575.279 388.557 574.251C392.455 573.374 394.445 572.897 396.108 571.594C400.687 568.033 401.205 561.013 397.771 556.324C394.336 551.611 387.549 550.081 381.77 548.802C376.291 547.574 375.828 548.451 373.538 547.524C366.478 544.665 367.35 534.987 365.633 514.252C365.197 509.012 365.66 515.932 362.798 487.725C361.572 475.59 360.945 469.422 360.59 464.859C360.045 457.914 359.446 448.035 359.2 436" fill="#FFA295"/>
<path d="M326 439.711C334.205 503.371 340.011 549.254 340.42 556.826C340.474 557.703 340.61 561.038 342.791 564.774C343.527 566.027 346.171 570.465 352.168 573.298C355.929 575.079 359.309 575.304 366.069 575.781C376.509 576.508 384.005 575.279 388.557 574.251C392.455 573.374 394.445 572.897 396.108 571.594C400.687 568.033 401.205 561.013 397.771 556.324C394.336 551.611 387.549 550.081 381.77 548.802C376.291 547.574 375.828 548.451 373.538 547.524C366.478 544.665 367.35 534.987 365.633 514.252C365.197 509.012 365.66 515.932 362.798 487.725C361.572 475.59 360.945 469.422 360.59 464.859C360.045 457.914 359.446 448.035 359.2 436" stroke="#303131" stroke-width="10" stroke-linecap="round" stroke-linejoin="round"/>
<path d="M331.141 100.93C333.801 96.3641 376.677 25.4643 452.143 25.389C489.926 25.3388 516.821 43.0763 526.028 49.8251C578.287 88.1351 587.244 158.358 579.216 205.047C573.094 240.598 555.909 269.575 517.875 311.999C476.83 357.76 408.138 422.94 301.437 481.271L142.251 359.542C142.251 359.542 51.7567 293.986 37.7072 220.652C34.8973 205.95 26.4174 180.109 30.3312 146.466C32.2881 129.732 38.1086 84.5977 76.0925 47.3414C85.7264 37.883 119.295 7.50095 171.328 4.08893C214.455 1.25394 245.891 18.5148 260.242 26.6434C302.44 50.5527 323.163 85.5009 331.141 100.93Z" fill="#FE563E" stroke="#303131" stroke-width="11" stroke-linecap="round" stroke-linejoin="round"/>
<path d="M543.5 74C548.518 95.2499 554.565 135.177 543.928 182.62C530.907 240.624 499.697 278.457 484.393 294.84L403.984 380.191L302 475C312.111 469.079 322.221 463.183 332.357 457.262C359.829 440.378 389.207 420.458 419.464 396.975C440.99 380.291 460.584 363.633 478.372 347.451C498.191 326.125 518.011 304.8 537.831 283.45C547.039 267.193 555.793 253.257 565 237C569 226 572.112 217.016 575.198 206.078C578.359 189.168 578 151.5 566.5 112C560.281 96.0275 550.851 82.8813 543.5 74Z" fill="#AF3322"/>
<path d="M61.6933 137.31C57.5 135.5 55.7474 134.124 56.5753 129.809C60.8654 107.581 72.2305 89.2911 88.1365 73.7363C96.6415 65.432 105.999 57.9556 115.132 50.2786C116.913 48.7984 119.296 47.7948 121.554 47.1927C127.676 45.5369 131.339 48.9489 129.156 54.8447C127.751 58.6581 121.536 61.7651 118.5 64.4998C109.092 73.0047 101.396 78.1063 92 88.4998C81.2621 97.933 74.8898 110.666 72.6068 125.142C71.6283 131.389 69.9725 137.837 61.6933 137.31Z" fill="#F58E86"/>
<path d="M153.612 31.5C154.5 32.5 154.726 36.1113 153.612 38.4901C150.884 44.4419 142.973 47.7568 139.557 44.8834C136.372 42.2108 135.051 40.0298 137.513 35.0863C142.609 30.7237 149.77 28.5481 153.033 30.97L153.612 31.5Z" fill="#F58E86"/>
<path d="M87.107 375.02C81.7882 387.263 79.9818 396.069 79.3295 399.657C77.9497 407.208 78.2006 410.771 78.4264 412.652C78.8278 416.14 79.5303 421.609 83.7451 426.928C85.9027 429.662 89.4402 434.354 95.1352 434.68C100.002 434.956 103.465 431.87 103.741 431.619C106.325 429.261 107.077 426.376 107.403 425.121C107.78 423.641 107.83 421.509 107.705 417.218C107.629 414.885 107.579 413.28 107.479 411.548C107.378 409.792 107.228 408.538 107.228 408.337C106.174 397.323 111.719 382.571 111.719 382.571C115.908 371.407 121.578 362.576 121.578 362.576C125.417 356.605 128.653 352.992 127.324 349.48C126.471 347.247 124.087 346.093 119.346 343.785C114.579 341.451 112.195 340.398 109.963 340.523C106.4 340.749 103.791 343.734 95.6621 358.637C91.1462 366.916 88.8631 371.056 87.1571 375.02H87.107Z" fill="#FFA295" stroke="#303131" stroke-width="10" stroke-linecap="round" stroke-linejoin="round"/>
<path d="M533.606 349.858C545.648 344.138 552.798 338.669 555.658 336.386C561.654 331.594 563.812 328.734 564.891 327.178C566.873 324.268 569.934 319.702 570.26 312.928C570.435 309.441 570.862 303.595 566.772 299.606C563.285 296.219 558.644 296.244 558.267 296.244C554.78 296.319 552.296 298.025 551.243 298.753C549.988 299.606 548.533 301.187 545.824 304.498C544.343 306.305 543.315 307.534 542.261 308.914C541.207 310.294 540.455 311.347 540.329 311.523C533.882 320.505 520.008 328.006 520.008 328.006C509.521 333.676 499.485 336.586 499.435 336.611C499.435 336.611 493.213 338.493 488.823 342.457C488.371 342.858 488.095 343.21 487.669 343.686C480.293 351.915 475.727 357.61 475.727 357.61C470.157 364.585 467.372 368.072 467.648 368.624C469.53 372.362 490.88 365.187 516.395 356.607C521.162 355.001 526.706 353.12 533.58 349.833L533.606 349.858Z" fill="#FFA295" stroke="#303131" stroke-width="10" stroke-linecap="round" stroke-linejoin="round"/>
<path d="M327.824 101.152C330.484 96.5863 373.36 25.6864 448.826 25.6112C486.609 25.561 513.504 43.2985 522.711 50.0473C574.971 88.3573 583.927 158.58 575.899 205.269C569.777 240.82 552.592 269.797 514.558 312.221C473.513 357.983 404.821 423.162 298.12 481.493L138.934 359.764C138.934 359.764 48.4398 294.208 34.3902 220.874C31.5803 206.173 23.1005 180.331 27.0142 146.688C28.9711 129.954 34.7917 84.8198 72.7755 47.5635C82.4095 38.1052 115.978 7.72312 168.011 4.3111C211.138 1.4761 242.574 18.7369 256.925 26.8656C299.123 50.7749 319.846 85.723 327.824 101.152Z" stroke="#303131" stroke-width="11" stroke-linecap="round" stroke-linejoin="round"/>
<path d="M71.9279 314.583L76.7198 296.168L197.872 337.489L319.049 378.835L193.08 355.904L67.136 332.998L71.9279 314.583Z" fill="#76D3EF" stroke="#303131" stroke-width="10" stroke-linecap="round" stroke-linejoin="round"/>
<path d="M526.681 307.71C519.279 317.143 511.878 326.551 504.477 335.984C476.127 342.858 447.803 349.758 419.453 356.632L304.949 384.43L412.152 335.508C453.171 317.896 494.166 300.258 535.186 282.646C539.35 281.191 541.834 281.116 542.662 282.395C544.368 285.03 539.049 293.484 526.655 307.71H526.681Z" fill="#76D3EF" stroke="#303131" stroke-width="10" stroke-linecap="round" stroke-linejoin="round"/>
<path d="M313.204 391.204C298.101 391.279 285.406 383.075 285.08 373.04C284.754 362.829 298.377 353.22 313.254 353.17C326.802 353.145 340.726 362.929 340.827 372.563C340.927 382.423 328.006 391.129 313.204 391.204Z" fill="#F2C639" stroke="#303131" stroke-width="10" stroke-linecap="round" stroke-linejoin="round"/>
</g>
<path d="M222.012 192.349C226.174 188.517 234.366 182.087 246.031 179.254C257.03 176.585 266.109 178.329 271.13 179.752" stroke="#303131" stroke-width="12.6725" stroke-linecap="round" stroke-linejoin="round"/>
<path d="M395.509 189.23C390.814 185.725 381.742 180.013 369.785 178.632C358.512 177.331 349.806 180.473 345.062 182.7" stroke="#303131" stroke-width="12.6725" stroke-linecap="round" stroke-linejoin="round"/>
<path d="M255 235C262.732 235 269 228.732 269 221C269 213.268 262.732 207 255 207C247.268 207 241 213.268 241 221C241 228.732 247.268 235 255 235Z" fill="#303131"/>
<path d="M365 235C372.732 235 379 228.732 379 221C379 213.268 372.732 207 365 207C357.268 207 351 213.268 351 221C351 228.732 357.268 235 365 235Z" fill="#303131"/>
<path d="M275.403 270.792C277.945 266.118 289.937 273.245 309.537 273.535C331.016 273.863 342.543 265.693 345.228 270.541C347.734 275.1 339.715 286.264 332.842 291.789C331.929 292.523 328.152 295.478 322.478 297.564C317.556 299.38 313.511 299.689 311.864 299.747C309.555 299.863 305.295 299.824 300.319 298.318C288.828 294.841 282.42 286.226 280.97 284.198C277.82 279.774 273.685 273.96 275.403 270.792Z" fill="#F58E85" stroke="#303131" stroke-width="11" stroke-linecap="round" stroke-linejoin="round"/>
<path d="M316 233C323.119 242.424 314.829 247.661 314.829 247.661" stroke="#303131" stroke-width="11" stroke-linecap="round" stroke-linejoin="round"/>
<defs>
<clipPath id="clip0_2848_2616">
<rect width="585.539" height="579.718" fill="white"/>
</clipPath>
</defs>
</svg>
