<svg width="1296" height="1307" viewBox="0 0 1296 1307" fill="none" xmlns="http://www.w3.org/2000/svg">
<g filter="url(#filter0_d_3214_10279)">
<path d="M463.233 779.104C458.318 798.841 476.528 815.756 464.323 842.986C455.433 862.843 440.129 866.412 439.71 883.315C439.311 899.05 452.074 916.529 465.874 918.736C480.051 920.986 484.469 905.406 498.964 905.567C523.825 905.841 531.565 951.994 555.049 952.85C571.009 953.415 570.59 932.196 594.798 923.642C617.816 915.51 647.995 924.165 677.551 932.69C687.325 935.518 697.224 939.005 707.572 934.65C718.347 930.128 725.541 918.797 729.525 912.482C734.798 904.163 734.73 901.138 737.851 895.571C752.568 869.339 786.599 877.868 798.561 853.38C801.406 847.566 803.075 839.752 804.981 830.769C808.412 814.624 806.755 811.115 810.762 806.243C816.595 799.165 823.244 802.844 838.856 796.148C847.885 792.258 860.459 787.183 863.133 776.734C864.47 771.473 862.841 766.817 859.924 758.6C858.193 753.713 855.073 744.887 849.221 739.466C838.395 729.443 820.247 732.826 815.199 733.644C747.721 744.596 480.477 709.866 463.24 779.126L463.233 779.104Z" fill="#76D3EF" stroke="#303131" stroke-width="9.14392" stroke-linecap="round" stroke-linejoin="round"/>
<path d="M620.685 739.396C619.192 770.882 624.254 793.33 629.405 808.371C632.358 816.986 636.982 827.922 634.957 842.411C633.862 850.348 631.76 852.236 621.515 872.957C606.345 903.622 605.821 909.868 596.122 917.248C587.901 923.48 585.802 920.892 578.373 927.827C568.762 936.774 565.616 947.332 556.708 948.327C554.402 948.59 552.457 948.128 551.209 947.723C566.716 928.701 584.629 899.877 586.081 862.914C586.365 855.95 585.919 851.866 585.747 846.868C584.948 822.704 590.711 787.347 620.671 739.425L620.685 739.396Z" fill="#307C93"/>
<path d="M773.264 588.62C778.226 619.737 787.757 640.715 795.851 654.361C800.501 662.191 807.25 671.957 808.236 686.552C808.707 693.675 806.226 702.172 801.295 719.182C799.892 724.029 791.858 751.291 783.399 759.345C782.74 759.976 779.942 762.533 777.124 766.62C776.551 767.44 775.045 769.734 773.459 773.021C771.569 776.991 770.818 779.879 770.239 781.694C765.899 795.118 753.385 803.125 752.602 803.604C750.238 805.072 748.172 805.98 746.874 806.511C758.518 784.766 770.589 752.936 764.57 716.561C763.432 709.685 762.166 705.754 760.979 700.902C755.255 677.417 753.712 641.625 773.257 588.598L773.264 588.62Z" fill="#467C93" stroke="#303131" stroke-width="6.88219" stroke-linecap="round" stroke-linejoin="round"/>
<path d="M531.86 735.719C538.531 755.525 544.295 775.73 552.105 795.034C555.66 803.787 556.835 811.353 556.001 818.405C554.871 828.047 550.539 835.131 546.04 841.498C521.502 876.263 502.561 876.766 489.892 897.838C487.922 901.133 481.94 911.818 471.206 914.222C469.654 914.571 468.333 914.674 467.47 914.697C480.55 891.165 494.335 862.584 506.441 829.195C518.959 794.652 526.814 762.877 531.86 735.719Z" fill="#307C93"/>
<path d="M732.231 712.087C737.193 743.204 746.724 764.182 754.818 777.828C759.468 785.658 766.217 795.423 767.202 810.018C767.673 817.142 765.193 825.639 760.262 842.648C758.859 847.496 750.825 874.758 742.366 882.811C741.707 883.443 738.909 885.999 736.091 890.086C735.518 890.907 734.011 893.2 732.426 896.488C730.536 900.458 729.784 903.346 729.206 905.16C724.866 918.585 712.352 926.591 711.569 927.071C709.205 928.538 707.139 929.447 705.841 929.978C717.485 908.233 729.556 876.403 723.537 840.028C722.399 833.152 721.133 829.221 719.946 824.369C714.222 800.884 712.679 765.092 732.224 712.065L732.231 712.087Z" fill="#307C93"/>
<path d="M653.983 841.696C638.859 899.137 628.072 940.556 626.771 947.418C626.621 948.225 626.093 951.235 623.677 954.476C622.862 955.55 619.943 959.362 614.219 961.408C610.619 962.707 607.568 962.594 601.422 962.418C591.953 962.14 585.361 960.35 581.384 958.981C577.981 957.821 576.264 957.219 574.93 955.875C571.243 952.198 571.648 945.748 575.295 941.776C578.963 937.779 585.242 937.01 590.589 936.356C595.666 935.734 595.968 936.578 598.156 935.939C604.859 933.959 605.259 925.028 609.306 906.234C610.341 901.469 609.071 907.77 615.082 882.243C617.671 871.258 618.981 865.694 619.844 861.553C621.163 855.246 622.929 846.286 624.596 835.298" fill="#FFA295"/>
<path d="M653.983 841.696C638.859 899.137 628.072 940.556 626.771 947.418C626.621 948.225 626.093 951.235 623.677 954.476C622.862 955.55 619.943 959.362 614.219 961.408C610.619 962.707 607.568 962.594 601.422 962.418C591.953 962.14 585.361 960.35 581.384 958.981C577.981 957.821 576.264 957.219 574.93 955.875C571.243 952.198 571.648 945.748 575.295 941.776C578.963 937.779 585.242 937.01 590.589 936.356C595.666 935.734 595.968 936.578 598.156 935.939C604.859 933.959 605.259 925.028 609.306 906.234C610.341 901.469 609.071 907.77 615.082 882.243C617.671 871.258 618.981 865.694 619.844 861.553C621.163 855.246 622.929 846.286 624.596 835.298" stroke="#303131" stroke-width="9.14392" stroke-linecap="round" stroke-linejoin="round"/>
<path d="M764.054 810.326C805.015 852.361 834.459 882.716 838.917 888.028C839.438 888.639 841.37 891.002 845.016 892.536C846.242 893.048 850.612 894.841 856.553 893.618C860.28 892.854 862.875 891.163 868.079 887.798C876.111 882.596 880.916 877.581 883.68 874.33C886.047 871.547 887.24 870.106 887.74 868.24C889.133 863.122 885.656 857.705 880.57 856.163C875.47 854.604 869.668 857.213 864.741 859.452C860.061 861.563 860.204 862.459 858.02 863.038C851.289 864.826 846.612 857.271 833.968 843.055C830.771 839.464 834.911 844.268 817.327 825.219C809.765 817.021 805.92 812.856 803.154 809.714C798.941 804.936 793.078 798.043 786.289 789.379" fill="#FFA295"/>
<path d="M764.054 810.326C805.015 852.361 834.459 882.716 838.917 888.028C839.438 888.639 841.37 891.002 845.016 892.536C846.242 893.048 850.612 894.841 856.553 893.618C860.28 892.854 862.875 891.163 868.079 887.798C876.111 882.596 880.916 877.581 883.68 874.33C886.047 871.547 887.24 870.106 887.74 868.24C889.133 863.122 885.656 857.705 880.57 856.163C875.47 854.604 869.668 857.213 864.741 859.452C860.061 861.563 860.204 862.459 858.02 863.038C851.289 864.826 846.612 857.271 833.968 843.055C830.771 839.464 834.911 844.268 817.327 825.219C809.765 817.021 805.92 812.856 803.154 809.714C798.941 804.936 793.078 798.043 786.289 789.379" stroke="#303131" stroke-width="9.14392" stroke-linecap="round" stroke-linejoin="round"/>
<path d="M629.568 513.135C630.55 508.405 647.173 434.488 712.595 412.539C745.346 401.54 773.812 409.123 783.754 412.306C840.182 430.375 868.311 488.674 874.888 531.491C879.888 564.095 873.387 594.207 852.706 642.027C830.381 693.612 789.712 770.055 714.095 851.579L540.752 792.175C540.752 792.175 443.267 761.566 409.818 702.045C403.119 690.11 388.272 670.16 381.91 639.85C378.755 624.771 370.715 583.943 392.851 540.62C398.463 529.624 418.763 493.543 462.897 475.496C499.475 460.532 531.741 466.385 546.543 469.273C590.07 477.771 618.175 502.068 629.568 513.135Z" fill="#FE563E" stroke="#303131" stroke-width="10.0583" stroke-linecap="round" stroke-linejoin="round"/>
<path d="M805.914 428.2C816.428 445.173 833.25 478.044 837.782 522.27C843.31 576.347 827.215 618.206 818.694 636.851L773.713 734.183L712.765 845.973C719.816 837.907 726.874 829.862 733.947 821.789C752.874 799.181 772.575 773.387 792.004 744.249C805.833 723.539 817.995 703.411 828.728 684.22C839.732 659.98 850.736 635.74 861.733 611.478C865.003 594.71 868.554 580.087 871.824 563.318C872.103 552.619 872.198 543.926 871.702 533.546C869.54 517.965 858.305 485.403 836.879 454.484C826.854 442.436 814.864 433.77 805.914 428.2Z" fill="#AF3322"/>
<path d="M406.452 622.811C402.29 622.457 400.371 621.772 399.838 617.79C397.113 597.269 401.665 578.113 410.949 560.012C415.916 550.344 421.863 541.147 427.557 531.842C428.672 530.041 430.448 528.48 432.232 527.303C437.06 524.092 441.226 525.989 441.043 531.735C440.93 535.449 436.441 539.946 434.601 543.197C428.909 553.301 423.714 559.957 418.58 571.694C412.003 582.989 410.17 595.879 412.388 609.094C413.35 614.795 413.784 620.867 406.452 622.811Z" fill="#F58E86"/>
<path d="M455.481 504.401C456.541 505.011 457.784 508.077 457.508 510.463C456.868 516.415 450.969 521.584 447.173 520.083C443.636 518.689 441.858 517.18 442.559 512.179C445.714 506.918 451.293 502.955 454.825 504.109L455.481 504.401Z" fill="#F58E86"/>
<path d="M626.753 514.289C627.735 509.558 644.359 435.641 709.781 413.693C742.531 402.693 770.998 410.276 780.94 413.459C837.367 431.528 865.497 489.827 872.073 532.644C877.073 565.249 870.572 595.361 849.891 643.18C827.567 694.766 786.898 771.208 711.281 852.732L537.937 793.328C537.937 793.328 440.452 762.719 407.004 703.198C400.304 691.264 385.457 671.313 379.096 641.003C375.94 625.924 367.9 585.096 390.037 541.773C395.648 530.777 415.949 494.696 460.083 476.649C496.66 461.685 528.926 467.538 543.728 470.426C587.256 478.924 615.361 503.222 626.753 514.289Z" stroke="#303131" stroke-width="10.0583" stroke-linecap="round" stroke-linejoin="round"/>
<path d="M466.731 773.58L465.546 756.221L582.591 756.924L699.664 757.641L583.775 774.282L467.915 790.939L466.731 773.58Z" fill="#76D3EF" stroke="#303131" stroke-width="9.14392" stroke-linecap="round" stroke-linejoin="round"/>
<path d="M859.098 635.753C855.415 646.08 851.725 656.384 848.042 666.711C825.45 680.893 802.888 695.089 780.296 709.271L689.06 766.58L767.84 693.069C798.305 665.902 828.741 638.72 859.206 611.552C862.395 609.083 864.527 608.297 865.616 609.167C867.86 610.956 865.699 619.831 859.076 635.76L859.098 635.753Z" fill="#76D3EF" stroke="#303131" stroke-width="9.14392" stroke-linecap="round" stroke-linejoin="round"/>
<path d="M698.183 770.058C685.107 774.502 671.72 771.069 668.527 762.461C665.283 753.701 674.311 741.418 687.198 737.06C698.939 733.11 713.851 737.557 716.732 745.883C719.678 754.404 710.998 765.7 698.183 770.058Z" fill="#F2C639" stroke="#303131" stroke-width="9.14392" stroke-linecap="round" stroke-linejoin="round"/>
<path d="M561.429 624.052C563.927 619.522 569.166 611.57 578.461 605.731C587.225 600.227 595.604 599.107 600.371 598.885" stroke="#303131" stroke-width="11.5877" stroke-linecap="round" stroke-linejoin="round"/>
<path d="M710.986 571.037C705.898 569.358 696.374 567.035 685.605 569.305C675.452 571.445 668.813 576.694 665.345 580.002" stroke="#303131" stroke-width="11.5877" stroke-linecap="round" stroke-linejoin="round"/>
<path d="M602.409 651.472C609.114 649.23 612.732 641.977 610.49 635.272C608.248 628.566 600.995 624.948 594.289 627.19C587.584 629.432 583.966 636.686 586.208 643.391C588.45 650.096 595.703 653.714 602.409 651.472Z" fill="#303131"/>
<path d="M697.798 619.578C704.503 617.336 708.121 610.083 705.879 603.378C703.637 596.673 696.384 593.055 689.679 595.297C682.974 597.539 679.356 604.792 681.598 611.497C683.84 618.202 691.093 621.82 697.798 619.578Z" fill="#303131"/>
<path d="M630.479 676.598C631.328 671.808 643.795 674.511 660.875 669.079C679.597 663.136 687.224 652.708 690.958 656.133C694.453 659.36 690.737 671.367 686.378 678.151C685.799 679.052 683.381 682.71 679.066 686.165C675.324 689.167 671.905 690.608 670.494 691.135C668.525 691.906 664.82 693.107 660.068 693.244C649.094 693.561 641.039 687.948 639.194 686.609C635.179 683.687 629.908 679.844 630.479 676.598Z" fill="#F58E85" stroke="#303131" stroke-width="10.0583" stroke-linecap="round" stroke-linejoin="round"/>
<path d="M654.726 632.052C663.632 638.161 657.962 645.106 657.962 645.106" stroke="#303131" stroke-width="10.0583" stroke-linecap="round" stroke-linejoin="round"/>
<path d="M398.805 637.61C394.546 641.387 392.97 638.622 391.153 635.197C381.878 617.464 379.6 598.607 381.971 579.247C383.231 568.88 385.549 558.612 387.577 548.372C387.962 546.387 389.087 544.398 390.293 542.753C393.597 538.293 397.986 538.69 399.735 543.939C400.865 547.369 401.047 551.385 400.487 554.93C398.727 565.908 396.201 576.759 394.283 587.738C392.11 600.093 393.21 612.006 399.62 623.28C402.37 628.153 404.78 633.478 398.805 637.61Z" fill="white"/>
<path d="M407.99 660.074C409.084 660.319 411.833 660.084 413.218 661.358C416.679 664.546 417.239 670.607 414.536 672.278C412.029 673.831 409.043 675.4 406.311 672.376C403.433 669.181 403.707 663.981 407.961 660.099L407.99 660.074Z" fill="white"/>
<g opacity="0.4">
<path d="M918.607 470.632C938.164 554.078 867.499 804.907 719.56 853.885C571.622 902.864 440.988 826.369 359.341 683.593C307.737 560.215 327.01 508.555 387.58 451.675C484.495 360.663 616.923 442.702 616.923 442.702C616.923 442.702 662.961 330.093 770.646 337.165C878.332 344.238 908.707 428.393 918.607 470.632Z" fill="#F9F9F9" fill-opacity="0.72"/>
<path d="M620.675 444.238L620.675 444.237L620.679 444.228L620.699 444.18C620.718 444.134 620.748 444.062 620.79 443.964C620.873 443.769 621.001 443.471 621.175 443.077C621.522 442.29 622.052 441.122 622.767 439.63C624.198 436.644 626.371 432.362 629.315 427.237C635.207 416.975 644.158 403.38 656.392 390.02C680.858 363.302 718.178 337.783 770.38 341.211C823.05 344.67 856.545 366.904 878.16 393.281C899.885 419.792 909.77 450.698 914.659 471.557C919.366 491.641 918.715 522.337 912.564 558.145C906.432 593.848 894.899 634.254 878.163 673.597C844.593 752.519 790.569 826.106 718.286 850.036C645.338 874.187 576.809 867.39 516.413 837.025C455.997 806.649 403.5 752.57 362.984 681.798C337.364 620.481 329.651 577.645 335.394 543.367C341.119 509.196 360.34 482.817 390.356 454.63C437.515 410.343 493.319 408.051 537.792 417.033C560.028 421.524 579.316 428.821 593.052 435.003C599.915 438.092 605.377 440.895 609.111 442.919C610.978 443.931 612.411 444.748 613.371 445.307C613.851 445.586 614.213 445.801 614.45 445.944C614.569 446.016 614.657 446.069 614.714 446.104L614.774 446.141L614.787 446.149L614.787 446.149L614.789 446.15L618.862 448.673L620.675 444.238L620.675 444.238Z" stroke="white" stroke-opacity="0.76" stroke-width="8.10888"/>
</g>
<rect x="551.392" y="857.806" width="327.801" height="59.9992" rx="17.2314" transform="rotate(-18.3183 551.392 857.806)" fill="#D9D9D9" stroke="#303131" stroke-width="6.08166"/>
<circle cx="799.502" cy="809.097" r="13.9118" transform="rotate(-18.3183 799.502 809.097)" fill="#FF1A1A"/>
<circle cx="799.502" cy="809.097" r="13.9118" transform="rotate(-18.3183 799.502 809.097)" fill="#FF1A1A"/>
<circle cx="799.502" cy="809.097" r="13.9118" transform="rotate(-18.3183 799.502 809.097)" fill="#FF1A1A"/>
<circle cx="842.426" cy="794.886" r="13.9118" transform="rotate(-18.3183 842.426 794.886)" fill="#2E5CFF"/>
<ellipse cx="475.067" cy="756.244" rx="18.951" ry="56.8531" transform="rotate(-35.8229 475.067 756.244)" fill="#303131"/>
<ellipse rx="18.951" ry="56.8531" transform="matrix(-0.906145 -0.422966 -0.422966 0.906145 861.02 640.771)" fill="#303131"/>
<path d="M434.622 768.838C422.207 767.258 414.23 764.471 411.011 763.271C404.262 760.751 401.501 758.831 400.083 757.759C397.464 755.743 393.399 752.566 391.127 746.619C389.95 743.56 387.86 738.471 390.34 733.717C392.46 729.676 396.607 728.341 396.943 728.231C400.075 727.278 402.79 728.073 403.943 728.414C405.311 728.808 407.071 729.792 410.456 731.953C412.305 733.131 413.582 733.927 414.926 734.85C416.269 735.772 417.249 736.492 417.412 736.612C425.79 742.737 440.359 745.37 440.359 745.37C451.371 747.36 461.173 747.02 461.225 747.028C461.225 747.028 467.325 746.886 472.4 749.138C472.921 749.364 470.082 746.245 473.789 749.897C482.775 755.079 479.39 752.683 479.39 752.683C486.398 757.275 485.81 761.081 485.725 761.654C485.14 765.538 477.214 770.013 451.946 769.823C447.225 769.785 441.729 769.729 434.637 768.808L434.622 768.838Z" fill="#FFB9AF" stroke="#303131" stroke-width="7.06493" stroke-linecap="round" stroke-linejoin="round"/>
<path d="M911.485 625.501C922.591 619.733 929.115 614.364 931.722 612.127C937.187 607.432 939.116 604.677 940.076 603.182C941.838 600.386 944.557 596 944.637 589.635C944.685 586.358 944.89 580.86 940.921 577.254C937.536 574.193 933.183 574.372 932.83 574.384C929.561 574.571 927.288 576.255 926.324 576.972C925.176 577.814 923.864 579.345 921.432 582.543C920.104 584.286 919.18 585.474 918.238 586.804C917.295 588.133 916.624 589.147 916.513 589.316C910.764 597.956 898 605.456 898 605.456C888.351 611.125 879.034 614.19 878.988 614.215C878.988 614.215 873.214 616.188 869.228 620.053C868.818 620.445 868.571 620.783 868.186 621.245C861.542 629.21 857.448 634.705 857.448 634.705C852.457 641.434 849.961 644.798 850.238 645.307C852.128 648.751 871.916 641.307 895.565 632.407C899.983 630.741 905.121 628.791 911.46 625.479L911.485 625.501Z" fill="#FFB9AF" stroke="#303131" stroke-width="7.06493" stroke-linecap="round" stroke-linejoin="round"/>
</g>
<defs>
<filter id="filter0_d_3214_10279" x="213.134" y="236.846" width="875.878" height="887.513" filterUnits="userSpaceOnUse" color-interpolation-filters="sRGB">
<feFlood flood-opacity="0" result="BackgroundImageFix"/>
<feColorMatrix in="SourceAlpha" type="matrix" values="0 0 0 0 0 0 0 0 0 0 0 0 0 0 0 0 0 0 127 0" result="hardAlpha"/>
<feOffset/>
<feGaussianBlur stdDeviation="50"/>
<feComposite in2="hardAlpha" operator="out"/>
<feColorMatrix type="matrix" values="0 0 0 0 1 0 0 0 0 1 0 0 0 0 1 0 0 0 0.1 0"/>
<feBlend mode="normal" in2="BackgroundImageFix" result="effect1_dropShadow_3214_10279"/>
<feBlend mode="normal" in="SourceGraphic" in2="effect1_dropShadow_3214_10279" result="shape"/>
</filter>
</defs>
</svg>
