<svg xmlns="http://www.w3.org/2000/svg" width="579" height="573" fill="none" viewBox="0 0 579 573"><path fill="#FFB9AF" stroke="#303131" stroke-linecap="round" stroke-linejoin="round" stroke-width="7.351" d="M44.7075 297.704C32.2927 293.63 24.7029 289.256 21.6569 287.416C15.2704 283.555 12.8525 281.094 11.6303 279.745C9.37945 277.218 5.89582 273.247 4.86158 266.894C4.32157 263.624 3.28677 258.158 6.8771 253.947C9.94035 250.37 14.4954 249.885 14.8645 249.844C18.2928 249.532 20.9089 250.869 22.0191 251.44C23.3394 252.106 24.9334 253.438 27.9402 256.264C29.5825 257.805 30.7211 258.852 31.9001 260.037C33.0791 261.223 33.9285 262.135 34.07 262.286C41.3413 270.05 55.7402 275.604 55.7402 275.604C66.6241 279.801 76.7739 281.445 76.8258 281.463C76.8258 281.463 83.1269 282.556 87.8512 285.813C88.3364 286.142 88.6441 286.443 89.1127 286.846C97.2151 293.798 102.294 298.668 102.294 298.668C108.493 304.635 111.592 307.619 111.379 308.17C109.928 311.902 88.2304 307.476 62.2999 302.182C57.4551 301.19 51.8185 300.024 44.7295 297.678L44.7075 297.704Z"/><g clip-path="url(#clip0_2848_2428)"><path fill="#76D3EF" stroke="#303131" stroke-linecap="round" stroke-linejoin="round" stroke-width="7.351" d="M454.565 235.732C467.25 246.122 468.55 266.425 488.367 278.003C502.813 286.451 511.26 281.002 520.506 291.827C529.117 301.9 533.045 319.801 528.338 328.258C523.493 336.934 513.25 329.006 507.149 336.479C496.684 349.296 518.137 383.37 508.572 395.867C502.062 404.349 490.859 390.28 475.937 396.999C461.749 403.39 453.51 424.384 445.467 444.975C442.811 451.79 440.457 459.1 433.703 461.516C426.677 464.041 417.529 460.298 412.441 458.199C405.728 455.447 404.134 453.437 399.815 451.389C379.462 441.74 369.51 464.609 351.269 454.698C346.936 452.348 342.032 448.093 336.399 443.196C326.275 434.398 325.099 431.263 320.776 430.119C314.489 428.462 313.624 434.244 303.368 437.808C297.428 439.857 289.338 442.935 282.591 437.471C279.198 434.716 277.396 430.847 274.234 423.999C272.351 419.927 268.949 412.577 268.539 406.062C267.784 394.014 277.345 386.998 279.938 384.965C314.617 357.815 410.064 199.284 454.574 235.75L454.565 235.732Z"/><path fill="#33647A" d="M340.102 287.163C353.247 306.019 358.688 321.82 361.206 333.084C362.646 339.537 363.912 348.064 370.82 356.227C374.595 360.704 376.674 361.06 391.267 369.906C412.867 382.994 415.621 386.647 424.7 387.47C432.386 388.153 432.731 385.749 440.181 387.17C449.81 388.993 455.914 394.299 462.014 391.486C463.596 390.761 464.664 389.727 465.308 388.997C447.998 383.225 425.349 372.328 410.11 350.076C407.233 345.887 405.938 343.195 404.114 340.045C395.273 324.825 377.891 305.223 340.122 287.175L340.102 287.163Z"/><path fill="#467C93" stroke="#303131" stroke-linecap="round" stroke-linejoin="round" stroke-width="7.351" d="M162.329 257.526C172.743 282.722 175.201 302.506 175.403 316.232C175.514 324.111 174.954 334.366 180.828 345.577C183.702 351.044 189.375 356.19 200.706 366.505C203.933 369.446 222.189 385.921 232.071 388.036C232.843 388.203 236.063 388.823 239.99 390.563C240.783 390.909 242.932 391.92 245.589 393.628C248.778 395.701 250.639 397.491 251.886 398.568C261.159 406.507 274.011 406.752 274.805 406.752C277.212 406.765 279.148 406.501 280.345 406.305C261.921 395.533 238.621 377.515 226.608 347.962C224.338 342.375 223.494 338.904 222.175 334.788C215.775 314.877 200.724 287.779 162.324 257.506L162.329 257.526Z"/><path fill="#33647A" d="M381.513 266.478C389.12 280.748 397.507 294.681 404.135 309.375C407.132 316.047 410.863 320.673 415.502 323.825C421.837 328.142 428.596 329.211 435.035 329.807C470.179 333.078 481.861 321.96 501.836 325.267C504.954 325.791 514.817 327.733 522.68 322.53C523.818 321.779 524.672 321.039 525.204 320.532C503.539 316.197 478.487 309.67 451.624 299.642C423.837 289.264 400.476 277.519 381.513 266.478Z"/><path fill="#33647A" d="M288.215 304.814C297.643 328.258 300.036 346.597 300.378 359.303C300.571 366.596 300.203 376.081 305.485 386.527C308.069 391.622 313.102 396.452 323.155 406.135C326.018 408.896 342.213 424.363 350.897 426.439C351.576 426.604 354.405 427.216 357.867 428.874C358.566 429.204 360.461 430.165 362.809 431.777C365.629 433.735 367.281 435.414 368.387 436.425C376.608 443.884 387.872 444.266 388.568 444.275C390.677 444.317 392.37 444.095 393.417 443.929C377.143 433.737 356.51 416.781 345.628 389.286C343.571 384.088 342.79 380.865 341.585 377.04C335.737 358.535 322.223 333.275 288.211 304.796L288.215 304.814Z"/><path fill="#FFB9AF" d="M353.247 372.576C386.364 411.033 410.299 438.687 414.496 442.954C414.991 443.453 416.853 445.297 417.976 448.479C418.341 449.542 419.626 453.335 418.332 458.062C417.527 461.041 415.992 462.959 412.937 466.85C408.224 472.842 403.822 476.216 400.965 478.108C398.526 479.732 397.285 480.543 395.705 480.736C391.365 481.288 387.029 477.806 385.98 473.464C384.923 469.094 387.378 464.646 389.469 460.857C391.455 457.26 392.192 457.486 392.787 455.751C394.594 450.423 388.514 445.707 377.249 433.707C374.397 430.659 378.216 434.626 363.159 417.995C356.681 410.837 353.4 407.212 350.903 404.587C347.104 400.586 341.656 394.971 334.736 388.408"/><path stroke="#303131" stroke-linecap="round" stroke-linejoin="round" stroke-width="7.351" d="M353.247 372.576C386.364 411.033 410.299 438.687 414.496 442.954C414.991 443.453 416.853 445.297 417.976 448.479C418.341 449.542 419.626 453.335 418.332 458.062C417.527 461.041 415.992 462.959 412.937 466.85C408.224 472.842 403.822 476.216 400.965 478.107C398.526 479.732 397.285 480.543 395.705 480.736C391.365 481.288 387.029 477.806 385.98 473.464C384.923 469.094 387.378 464.646 389.469 460.857C391.455 457.26 392.192 457.486 392.787 455.751C394.594 450.423 388.514 445.707 377.249 433.707C374.397 430.659 378.216 434.626 363.159 417.995C356.681 410.837 353.4 407.212 350.903 404.587C347.104 400.586 341.656 394.971 334.736 388.408"/><path fill="#FFB9AF" d="M271.941 389.27C301.265 430.693 322.472 460.49 326.246 465.136C326.691 465.68 328.37 467.692 329.186 470.966C329.449 472.059 330.369 475.956 328.632 480.539C327.548 483.428 325.838 485.193 322.429 488.777C317.169 494.295 312.467 497.237 309.443 498.849C306.862 500.235 305.55 500.925 303.958 500.967C299.585 501.105 295.599 497.228 294.966 492.806C294.328 488.356 297.194 484.16 299.635 480.587C301.952 477.194 302.664 477.488 303.421 475.818C305.725 470.685 300.119 465.414 290.042 452.401C287.492 449.097 290.917 453.407 277.505 435.424C271.734 427.685 268.811 423.765 266.575 420.915C263.172 416.572 258.28 410.466 252.013 403.277"/><path stroke="#303131" stroke-linecap="round" stroke-linejoin="round" stroke-width="7.351" d="M271.941 389.27C301.265 430.693 322.472 460.49 326.246 465.136C326.691 465.68 328.37 467.692 329.186 470.966C329.449 472.059 330.369 475.956 328.632 480.539C327.548 483.428 325.838 485.193 322.429 488.777C317.169 494.295 312.467 497.237 309.443 498.849C306.862 500.235 305.55 500.925 303.958 500.967C299.585 501.105 295.599 497.228 294.966 492.806C294.328 488.356 297.194 484.16 299.635 480.587C301.952 477.194 302.664 477.488 303.421 475.818C305.725 470.685 300.119 465.414 290.042 452.401C287.492 449.097 290.917 453.407 277.505 435.424C271.734 427.685 268.811 423.765 266.575 420.915C263.172 416.572 258.28 410.466 252.013 403.277"/><path fill="#FE563E" stroke="#303131" stroke-linecap="round" stroke-linejoin="round" stroke-width="7.351" d="M229.277 137.897C226.574 134.815 183.486 87.2095 129.891 99.5494C103.055 105.718 87.123 123.808 81.7892 130.523C51.5168 168.637 57.6815 224.236 71.7087 258.905C82.3954 285.301 99.7655 304.813 134.337 331.265C171.64 359.795 232.038 398.75 318.2 426.182L409.515 306.202C409.515 306.202 462.075 240.805 458.972 181.972C458.345 170.178 459.757 148.867 450.978 123.577C446.604 111 434.422 77.1675 400.808 54.6908C392.281 48.983 363.028 31.0795 325.475 36.9978C294.349 41.8977 275.107 60.3667 266.368 68.9898C240.67 94.3515 232.189 124.694 229.277 137.897Z"/><path fill="#AF3322" d="M73.9519 159.244C73.8741 176.518 76.0334 208.127 92.6939 242.798C113.075 285.185 143.879 308.78 158.597 318.679L235.798 370.126L318.744 422.889C309.895 420.128 318.744 422.889 308.492 420.326C288.311 420.326 254.369 398.528 226.86 385.824C207.292 376.803 189.218 367.457 172.621 358.157C153.541 345.254 134.461 328.934 115.376 316.013C105.379 305.124 95.3784 297.633 85.3819 286.744C81.0525 278.863 76.7186 270.962 72.3891 263.081C66.9368 250.611 55.6016 223.623 61.6153 190.796C57.3224 170.01 72.0354 149.12 76.1174 140.963L73.9519 159.244Z"/><path fill="#FFB9AF" d="M432.107 129.513C437.251 129.259 436.502 126.487 435.473 123.166C430.149 106.065 419.609 92.6813 405.737 81.8464C398.322 76.063 390.308 71.0055 382.454 65.7704C380.923 64.7628 378.961 64.1828 377.133 63.9075C372.175 63.1426 369.594 66.1467 371.827 70.591C373.267 73.4662 375.725 76.1677 378.352 78.0516C386.495 83.9135 395.018 89.2338 403.249 94.986C412.52 101.461 419.393 109.722 422.458 120.904C423.775 125.73 425.641 130.634 432.104 129.494L432.107 129.513Z"/><path fill="#FFB9AF" d="M349.744 52.3449C349.213 53.4863 347.179 55.7905 347.413 57.8553C347.953 63.007 353.045 67.4926 356.332 66.2023C359.396 65.0044 362.815 63.3168 361.901 58.924C360.928 54.2799 356.116 51.0944 349.748 52.3642L349.744 52.3449Z"/><path fill="#FFB9AF" stroke="#303131" stroke-linecap="round" stroke-linejoin="round" stroke-width="7.351" d="M462.787 296.244C469.07 304.732 472.033 311.198 473.175 313.847C475.586 319.421 476.028 322.212 476.189 323.703C476.502 326.462 476.936 330.803 474.635 335.655C473.46 338.147 471.57 342.394 467.239 343.662C463.536 344.742 460.317 342.981 460.06 342.837C457.647 341.48 456.553 339.391 456.078 338.482C455.523 337.408 455.104 335.773 454.436 332.444C454.078 330.632 453.83 329.386 453.599 328.033C453.363 326.662 453.255 325.668 453.22 325.513C452.067 316.836 445.163 306.454 445.163 306.454C439.942 298.596 433.997 292.8 433.997 292.8C429.973 288.882 426.834 286.675 427.233 283.73C427.492 281.857 429.123 280.543 432.366 277.918C435.625 275.269 437.274 274.032 439.017 273.73C441.803 273.269 444.347 275.105 453.27 285.142C458.228 290.718 460.726 293.502 462.748 296.253L462.787 296.244Z"/><path stroke="#303131" stroke-linecap="round" stroke-linejoin="round" stroke-width="7.351" d="M149.817 215.278C152.255 211.556 157.267 205.078 165.619 200.677C173.494 196.527 180.754 196.113 184.856 196.234"/><path stroke="#303131" stroke-linecap="round" stroke-linejoin="round" stroke-width="7.351" d="M299.205 191.632C295.69 188.652 288.846 183.727 279.527 182.063C270.741 180.494 263.755 182.537 259.922 184.055"/><path fill="#303131" d="M192.13 249.585C198.027 248.099 201.603 242.115 200.117 236.218C198.632 230.321 192.647 226.745 186.75 228.231C180.854 229.716 177.278 235.701 178.763 241.598C180.249 247.494 186.233 251.07 192.13 249.585Z"/><path fill="#303131" d="M270.727 235.916C276.624 234.43 280.2 228.446 278.714 222.549C277.228 216.652 271.244 213.076 265.347 214.562C259.45 216.047 255.874 222.032 257.36 227.929C258.845 233.825 264.83 237.401 270.727 235.916Z"/><path fill="#F58E85" stroke="#303131" stroke-linecap="round" stroke-linejoin="round" stroke-width="7.351" d="M210.897 284.838C211.937 280.784 222.453 283.916 237.456 280.371C253.9 276.495 265.36 265.075 268.339 268.257C271.126 271.252 262.917 284.281 258.737 289.815C258.181 290.55 255.869 293.53 251.942 296.211C248.537 298.542 245.512 299.555 244.267 299.915C242.528 300.447 239.272 301.236 235.187 301.043C225.756 300.599 219.213 295.26 217.718 293.992C214.465 291.224 210.195 287.584 210.897 284.838Z"/><path stroke="#303131" stroke-linecap="round" stroke-linejoin="round" stroke-width="7.351" d="M225.335 246.673C218.095 252.492 223.411 258.079 223.411 258.079"/><path stroke="#303131" stroke-linecap="round" stroke-linejoin="round" stroke-width="7.351" d="M229.277 137.897C226.574 134.815 183.486 87.2095 129.891 99.5494C103.055 105.718 87.123 123.808 81.7892 130.523C51.5168 168.637 57.6815 224.236 71.7087 258.905C82.3954 285.301 99.7654 304.813 134.337 331.265C171.64 359.795 232.038 398.75 318.2 426.182L409.515 306.202C409.515 306.202 462.075 240.805 458.972 181.972C458.345 170.178 459.757 148.867 450.978 123.577C446.604 111 434.422 77.1675 400.808 54.6908C392.281 48.983 363.028 31.0795 325.475 36.9978C294.349 41.8977 275.107 60.3667 266.368 68.9898C240.67 94.3515 232.189 124.694 229.277 137.897Z"/><path fill="#88D1DB" stroke="#303131" stroke-linecap="round" stroke-linejoin="round" stroke-width="7.351" d="M147.88 342.396L123.104 322.933L214.404 337.06L261.504 342.396L215.483 353.024L170.092 357.96L147.88 342.396Z"/><path fill="#88D1DB" stroke="#303131" stroke-linecap="round" stroke-linejoin="round" stroke-width="7.351" d="M448.068 273.885L443.051 258.664L355.491 301.892L255.525 353.689L360.509 317.114L453.086 289.107L448.068 273.885Z"/><path fill="#FCD61D" stroke="#303131" stroke-linecap="round" stroke-linejoin="round" stroke-width="7.351" d="M265.313 366.234C277.215 365.181 286.611 357.783 286.128 349.854C285.632 341.786 274.193 335.221 262.47 336.278C251.796 337.257 241.549 345.99 242.18 353.587C242.828 361.361 253.647 367.266 265.313 366.234Z"/></g><line x1="3.676" x2="134.772" y1="-3.676" y2="-3.676" stroke="#FCD61D" stroke-linecap="round" stroke-width="7.351" transform="matrix(0.757343 0.653017 -0.671987 0.740563 445.54 481.985)"/><line x1="3.676" x2="134.772" y1="-3.676" y2="-3.676" stroke="#FCD61D" stroke-linecap="round" stroke-width="7.351" transform="matrix(0.757343 0.653017 -0.671987 0.740563 460.316 465.376)"/><line x1="3.676" x2="134.772" y1="-3.676" y2="-3.676" stroke="#FCD61D" stroke-linecap="round" stroke-width="7.351" transform="matrix(0.757343 0.653017 -0.671987 0.740563 470.543 442.538)"/><defs><clipPath id="clip0_2848_2428"><rect width="463.254" height="458.649" fill="#fff" transform="matrix(-0.97426 0.225426 0.225426 0.97426 471.417 0)"/></clipPath></defs></svg>