<svg width="464" height="460" viewBox="0 0 464 460" fill="none" xmlns="http://www.w3.org/2000/svg">
<g clip-path="url(#clip0_2848_2265)">
<path d="M83.9167 252.873C74.4686 267.72 84.7702 286.596 67.2833 305.591C54.5403 319.446 41.0034 318.175 36.0213 331.931C31.3766 344.733 37.0534 362.577 47.7718 368.175C58.788 373.911 66.6879 362.339 78.5377 366.448C98.863 373.494 92.551 413.49 111.586 420.636C124.528 425.479 130.006 407.952 152.217 407.575C173.336 407.218 195.726 422.601 217.639 437.706C224.884 442.708 232.049 448.285 241.735 447.551C251.819 446.796 260.83 439.472 265.832 435.383C272.442 430.004 273.216 427.503 277.305 423.792C296.578 406.305 322.163 422.64 338.697 405.828C342.628 401.839 346.141 395.884 350.17 389.036C357.415 376.73 357.018 373.395 361.643 370.497C368.372 366.289 372.818 371.132 387.466 369.922C395.942 369.207 407.653 368.492 412.714 360.652C415.255 356.702 415.195 352.435 415.056 344.892C414.977 340.406 414.838 332.308 411.523 326.254C405.39 315.059 389.57 292.734 385.203 292.019C326.828 282.492 117.064 180.667 83.9167 232.77V252.873Z" fill="#88D1DB" stroke="#303131" stroke-width="7.35128" stroke-linecap="round" stroke-linejoin="round"/>
<path d="M227.573 249.856C217.708 275.283 215.704 295.092 215.803 308.847C215.862 316.727 216.656 326.97 211.019 338.303C207.943 344.516 205.7 345.489 191.607 359.681C170.746 380.681 168.602 385.663 158.618 389.057C150.163 391.915 149.15 389.216 141.151 392.868C130.81 397.572 125.332 405.373 117.749 403.745C115.784 403.328 114.315 402.415 113.402 401.74C131.346 390.387 153.954 371.649 165.287 341.717C167.431 336.08 168.185 332.607 169.416 328.458C175.391 308.411 189.821 280.98 227.553 249.876L227.573 249.856Z" fill="#33647A"/>
<path d="M359.321 181.615C354.855 208.51 356.919 228.339 359.817 241.757C361.485 249.459 364.343 259.324 361.147 271.57C359.579 277.545 355.212 283.837 346.499 296.441C344.017 300.034 329.945 320.2 320.794 324.488C320.08 324.825 317.082 326.155 313.649 328.735C312.954 329.251 311.088 330.72 308.885 332.983C306.245 335.722 304.836 337.886 303.863 339.215C296.618 349.041 284.153 352.177 283.379 352.355C281.037 352.911 279.092 353.09 277.881 353.169C293.403 338.521 312.041 315.714 317.082 284.214C318.035 278.259 318.075 274.687 318.432 270.379C320.179 249.538 328.734 219.745 359.321 181.595V181.615Z" fill="#467C93" stroke="#303131" stroke-width="7.35128" stroke-linecap="round" stroke-linejoin="round"/>
<path d="M169.213 222.518C169.252 240.6 168.438 258.762 169.55 276.745C170.066 284.903 168.955 291.433 166.335 296.991C162.762 304.593 157.264 309.218 151.825 313.208C122.151 335.002 106.47 330.218 90.2933 344.033C87.7725 346.197 79.9322 353.322 70.4642 352.35C69.0947 352.211 67.9831 351.933 67.2686 351.715C84.4577 335.994 103.612 316.324 122.707 292.247C142.456 267.337 157.621 243.419 169.213 222.518Z" fill="#33647A"/>
<path d="M321.282 263.545C316.816 290.441 318.88 310.27 321.778 323.687C323.445 331.389 326.304 341.254 323.108 353.501C321.54 359.475 317.173 365.767 308.46 378.371C305.978 381.964 291.906 402.13 282.755 406.418C282.041 406.755 279.043 408.085 275.61 410.665C274.915 411.181 273.049 412.65 270.846 414.913C268.206 417.652 266.797 419.816 265.824 421.146C258.579 430.971 246.114 434.107 245.34 434.286C242.998 434.841 241.053 435.02 239.842 435.099C255.364 420.451 274.002 397.645 279.043 366.144C279.996 360.19 280.036 356.617 280.393 352.31C282.14 331.468 290.695 301.675 321.282 263.525V263.545Z" fill="#33647A"/>
<path d="M222.364 356.306C204.698 403.884 192.055 438.203 190.348 443.939C190.149 444.614 189.435 447.135 187.192 449.656C186.437 450.489 183.738 453.447 178.974 454.598C175.977 455.333 173.555 454.916 168.673 454.122C161.15 452.891 156.068 450.668 153.032 449.08C150.431 447.73 149.121 447.036 148.188 445.746C145.608 442.212 146.561 436.734 149.856 433.717C153.171 430.68 158.252 430.68 162.579 430.68C166.688 430.68 166.846 431.434 168.653 431.117C174.191 430.124 175.381 422.522 180.443 406.862C181.733 402.892 180.106 408.152 187.39 386.933C190.526 377.803 192.114 373.178 193.206 369.724C194.873 364.464 197.156 356.981 199.557 347.751" fill="#FFB9AF"/>
<path d="M222.364 356.306C204.698 403.884 192.055 438.203 190.348 443.939C190.149 444.614 189.435 447.135 187.192 449.656C186.437 450.489 183.738 453.447 178.974 454.598C175.977 455.333 173.555 454.916 168.673 454.122C161.15 452.891 156.068 450.668 153.032 449.08C150.431 447.73 149.121 447.036 148.188 445.746C145.608 442.212 146.561 436.734 149.856 433.717C153.171 430.68 158.252 430.68 162.579 430.68C166.688 430.68 166.846 431.434 168.653 431.117C174.191 430.124 175.381 422.522 180.443 406.862C181.733 402.892 180.106 408.152 187.39 386.933C190.526 377.803 192.114 373.178 193.206 369.724C194.873 364.464 197.156 356.981 199.557 347.751" stroke="#303131" stroke-width="7.35128" stroke-linecap="round" stroke-linejoin="round"/>
<path d="M258.171 348.207C264.145 398.603 268.373 434.927 268.671 440.921C268.711 441.616 268.81 444.256 270.398 447.213C270.934 448.206 272.859 451.719 277.226 453.962C279.965 455.371 282.426 455.55 287.349 455.927C294.951 456.502 300.409 455.53 303.724 454.716C306.563 454.021 308.012 453.644 309.222 452.612C312.557 449.793 312.934 444.236 310.433 440.524C307.932 436.792 302.99 435.582 298.782 434.569C294.792 433.597 294.455 434.291 292.787 433.557C287.647 431.294 288.282 423.633 287.031 407.218C286.714 403.069 287.051 408.547 284.967 386.217C284.074 376.61 283.617 371.728 283.359 368.115C282.962 362.617 282.526 354.797 282.347 345.269" fill="#FFB9AF"/>
<path d="M258.171 348.207C264.145 398.603 268.373 434.927 268.671 440.921C268.711 441.616 268.81 444.256 270.398 447.213C270.934 448.206 272.859 451.719 277.226 453.962C279.965 455.371 282.426 455.55 287.349 455.927C294.951 456.502 300.409 455.53 303.724 454.716C306.563 454.021 308.012 453.644 309.222 452.612C312.557 449.793 312.934 444.236 310.433 440.524C307.932 436.792 302.99 435.582 298.782 434.569C294.792 433.597 294.455 434.291 292.787 433.557C287.647 431.294 288.282 423.633 287.031 407.218C286.714 403.069 287.051 408.547 284.967 386.217C284.074 376.61 283.617 371.728 283.359 368.115C282.962 362.617 282.526 354.797 282.347 345.269" stroke="#303131" stroke-width="7.35128" stroke-linecap="round" stroke-linejoin="round"/>
<path d="M262.12 80.2462C264.224 76.6337 298.146 20.5407 357.851 20.4812C387.744 20.4415 409.022 34.4746 416.306 39.814C457.652 70.1233 464.738 125.68 458.386 162.619C453.543 190.745 439.947 213.671 409.856 247.235C377.383 283.44 323.036 335.007 238.619 381.156L112.678 284.849C112.678 284.849 41.0825 232.984 29.9671 174.965C27.744 163.334 21.0351 142.889 24.1315 116.272C25.6797 103.033 30.2847 67.3246 60.336 37.849C67.9579 30.3659 94.5158 6.32888 135.682 3.62943C169.803 1.3865 194.673 15.0426 206.027 21.4736C239.413 40.3896 255.808 68.0392 262.12 80.2462Z" fill="#FE563E" stroke="#303131" stroke-width="7.35128" stroke-linecap="round" stroke-linejoin="round"/>
<path d="M430.399 59.5246C434.369 76.3366 439.39 107.618 430.974 145.153C420.673 191.043 395.981 220.976 383.873 233.937L320.257 301.463L239.571 376.472C247.57 371.788 255.57 367.123 263.588 362.439C285.323 349.081 308.566 333.321 332.504 314.742C349.534 301.542 365.036 288.363 379.109 275.56C394.79 258.689 410.47 241.817 426.151 224.926C433.436 212.064 440.72 199.182 448.005 186.319C450.446 177.665 452.888 168.991 455.329 160.337C457.83 146.959 461.125 118.496 447.866 87.8688C442.685 75.9198 436.234 66.5114 430.419 59.4849L430.399 59.5246Z" fill="#AF3322"/>
<path d="M48.9436 109.029C43.8027 109.346 44.2394 106.508 44.8944 103.094C48.2885 85.5078 57.2801 71.0379 69.8643 58.7316C76.5931 52.1616 83.9967 46.2466 91.2218 40.1728C92.631 39.0018 94.5167 38.2078 96.3031 37.7314C101.146 36.4214 104.044 39.1208 102.317 43.7853C101.206 46.8024 99.0621 49.7599 96.6604 51.9234C89.217 58.6522 81.337 64.8847 73.7944 71.5143C65.2991 78.9775 59.3841 87.9492 57.5778 99.402C56.8037 104.344 55.4937 109.426 48.9436 109.009V109.029Z" fill="#FFB9AF"/>
<path d="M117.66 22.4067C118.434 23.3992 120.935 25.1856 121.173 27.2499C121.808 32.3907 117.858 37.9087 114.365 37.3927C111.11 36.9163 107.398 36.0429 107.299 31.5571C107.199 26.8132 111.169 22.6251 117.66 22.4266V22.4067Z" fill="#FFB9AF"/>
<path d="M57.0411 249.279L60.8323 234.71L156.683 267.401L252.553 300.112L152.892 281.97L53.25 263.848L57.0411 249.279Z" fill="#88D1DB" stroke="#303131" stroke-width="7.35128" stroke-linecap="round" stroke-linejoin="round"/>
<path d="M416.822 243.842C410.967 251.305 405.111 258.748 399.256 266.211C376.827 271.65 354.417 277.108 331.988 282.547L241.397 304.54L326.212 265.834C358.665 251.9 391.098 237.947 423.551 224.013C426.846 222.861 428.811 222.802 429.466 223.814C430.816 225.898 426.608 232.587 416.802 243.842H416.822Z" fill="#88D1DB" stroke="#303131" stroke-width="7.35128" stroke-linecap="round" stroke-linejoin="round"/>
<path d="M247.929 309.898C235.98 309.957 225.936 303.467 225.678 295.527C225.42 287.449 236.198 279.846 247.969 279.807C258.687 279.787 269.703 287.528 269.783 295.15C269.862 302.951 259.64 309.838 247.929 309.898Z" fill="#FCD61D" stroke="#303131" stroke-width="7.35128" stroke-linecap="round" stroke-linejoin="round"/>
<path d="M300.376 260.775C291.987 254.38 285.549 251.335 282.907 250.152C277.363 247.673 274.57 247.193 273.085 246.998C270.32 246.659 265.999 246.163 261.117 248.389C258.602 249.53 254.336 251.35 253.014 255.671C251.897 259.352 253.597 262.606 253.734 262.871C255.051 265.296 257.151 266.424 258.045 266.901C259.099 267.474 260.738 267.924 264.049 268.629C265.856 269.015 267.094 269.292 268.446 269.533C269.798 269.774 270.812 269.921 270.981 269.945C279.635 271.223 289.94 278.259 289.94 278.259C297.729 283.578 303.414 289.579 303.45 289.606C303.45 289.606 307.029 293.299 311.408 294.949C311.854 295.121 312.201 295.188 312.691 295.315C321.152 297.518 326.812 298.664 326.812 298.664C333.736 300.052 337.198 300.746 337.486 300.351C339.432 297.673 326.646 285.261 311.362 270.43C308.504 267.66 305.171 264.444 300.367 260.801L300.376 260.775Z" fill="#FFB9AF" stroke="#303131" stroke-width="7.35128" stroke-linecap="round" stroke-linejoin="round"/>
<path d="M190.034 262.373C198.423 255.979 204.861 252.934 207.504 251.75C213.047 249.271 215.841 248.791 217.326 248.596C220.091 248.258 224.411 247.761 229.293 249.987C231.809 251.128 236.074 252.948 237.396 257.27C238.514 260.95 236.813 264.205 236.677 264.469C235.36 266.894 233.259 268.022 232.366 268.499C231.311 269.072 229.672 269.522 226.361 270.227C224.554 270.613 223.317 270.891 221.964 271.131C220.612 271.372 219.598 271.519 219.429 271.544C210.776 272.821 200.47 279.858 200.47 279.858C192.681 285.176 186.996 291.178 186.96 291.204C186.96 291.204 183.381 294.897 179.002 296.547C178.556 296.719 182.105 296.913 177.719 296.913C169.258 299.116 172.708 298.552 172.708 298.552C165.784 299.94 163.886 297.308 163.598 296.913C161.652 294.235 163.764 286.859 179.049 272.028C181.906 269.259 185.24 266.042 190.043 262.4L190.034 262.373Z" fill="#FFB9AF" stroke="#303131" stroke-width="7.35128" stroke-linecap="round" stroke-linejoin="round"/>
<path d="M183.791 156.217C186.774 153.569 192.632 149.14 200.892 147.293C208.68 145.552 215.059 146.898 218.58 147.965" stroke="#303131" stroke-width="7.35128" stroke-linecap="round" stroke-linejoin="round"/>
<path d="M306.146 156.242C302.881 153.711 296.558 149.567 288.146 148.441C280.215 147.379 274.038 149.482 270.664 150.992" stroke="#303131" stroke-width="7.35128" stroke-linecap="round" stroke-linejoin="round"/>
<path d="M206.5 186.708C211.951 186.808 216.451 182.469 216.55 177.018C216.649 171.567 212.31 167.068 206.859 166.969C201.408 166.869 196.909 171.208 196.81 176.659C196.711 182.11 201.049 186.609 206.5 186.708Z" fill="#303131"/>
<path d="M284.05 188.119C289.501 188.218 294 183.879 294.1 178.428C294.199 172.977 289.86 168.478 284.409 168.379C278.958 168.28 274.459 172.618 274.36 178.069C274.261 183.52 278.599 188.02 284.05 188.119Z" fill="#303131"/>
<path d="M220.426 212.203C222.278 208.94 230.642 214.119 244.455 214.574C259.594 215.081 267.825 209.469 269.656 212.921C271.364 216.167 265.568 223.935 260.651 227.742C259.998 228.248 257.298 230.283 253.271 231.681C249.777 232.898 246.922 233.064 245.76 233.084C244.131 233.136 241.128 233.054 237.639 231.928C229.582 229.33 225.175 223.174 224.179 221.725C222.015 218.566 219.174 214.415 220.426 212.203Z" fill="#F58E85" stroke="#303131" stroke-width="7.35128" stroke-linecap="round" stroke-linejoin="round"/>
<path d="M249.532 186.08C254.43 192.815 248.518 196.401 248.518 196.401" stroke="#303131" stroke-width="7.35128" stroke-linecap="round" stroke-linejoin="round"/>
</g>
<defs>
<clipPath id="clip0_2848_2265">
<rect width="463.254" height="458.649" fill="white" transform="translate(0.134766 0.394531)"/>
</clipPath>
</defs>
</svg>
