<svg width="1520" height="1100" viewBox="0 0 1520 1100" fill="none" xmlns="http://www.w3.org/2000/svg">
<g clip-path="url(#clip0_2848_1571)">
<rect x="1471.5" y="43.6924" width="998.771" height="1415.09" transform="rotate(90 1471.5 43.6924)" fill="url(#paint0_radial_2848_1571)"/>
<ellipse rx="215.935" ry="193.944" transform="matrix(-1 0 0 1 121.185 665.823)" fill="#C9E5F8"/>
<ellipse rx="215.935" ry="193.944" transform="matrix(-1 0 0 1 121.185 665.823)" fill="#C9E5F8"/>
<ellipse rx="139.568" ry="125.354" transform="matrix(-1 0 0 1 337.118 734.414)" fill="#C9E5F8"/>
<ellipse rx="139.568" ry="125.354" transform="matrix(-1 0 0 1 337.118 734.414)" fill="#C9E5F8"/>
<rect width="416.07" height="125.354" transform="matrix(-1 0 0 1 321.319 734.413)" fill="#C9E5F8"/>
<ellipse rx="294.106" ry="264.155" transform="matrix(-1 0 0 1 1531.47 429.48)" fill="#C9E5F8"/>
<ellipse rx="294.106" ry="264.155" transform="matrix(-1 0 0 1 1531.47 429.48)" fill="#C9E5F8"/>
<ellipse rx="190.093" ry="170.734" transform="matrix(-1 0 0 1 1237.36 522.902)" fill="#C9E5F8"/>
<ellipse rx="190.093" ry="170.734" transform="matrix(-1 0 0 1 1237.36 522.902)" fill="#C9E5F8"/>
<rect width="566.692" height="170.734" transform="matrix(-1 0 0 1 1804.06 522.9)" fill="#C9E5F8"/>
<g filter="url(#filter0_d_2848_1571)">
<path d="M413.397 695.366C204.545 790.298 -103.458 827.217 -231.354 833.809L-164.11 1201.67H1584.23C1598.74 1006.53 1619.04 614.673 1584.23 608.344C1540.72 600.433 1244.06 556.922 1089.79 556.922C935.527 556.922 674.462 576.7 413.397 695.366Z" fill="#478D3B"/>
</g>
<g style="mix-blend-mode:multiply">
<ellipse cx="212.37" cy="836.835" rx="89.2198" ry="18.2943" transform="rotate(-1.63027 212.37 836.835)" fill="#727272" fill-opacity="0.5"/>
</g>
<g style="mix-blend-mode:multiply">
<ellipse cx="365.647" cy="811.124" rx="89.2198" ry="18.2943" transform="rotate(-1.63027 365.647 811.124)" fill="#727272" fill-opacity="0.5"/>
</g>
<g style="mix-blend-mode:multiply">
<ellipse cx="508.046" cy="783.435" rx="89.2198" ry="18.2943" transform="rotate(-1.63027 508.046 783.435)" fill="#727272" fill-opacity="0.5"/>
</g>
<g style="mix-blend-mode:multiply">
<ellipse cx="639.567" cy="760.691" rx="89.2198" ry="18.2943" transform="rotate(-1.63027 639.567 760.691)" fill="#727272" fill-opacity="0.5"/>
</g>
<g style="mix-blend-mode:multiply">
<ellipse cx="788.888" cy="703.336" rx="89.2198" ry="18.2943" transform="rotate(-1.63027 788.888 703.336)" fill="#727272" fill-opacity="0.5"/>
</g>
<g style="mix-blend-mode:multiply">
<ellipse cx="925.354" cy="694.436" rx="89.2198" ry="18.2943" transform="rotate(-1.63027 925.354 694.436)" fill="#727272" fill-opacity="0.5"/>
</g>
<g style="mix-blend-mode:multiply">
<ellipse cx="117.626" cy="988.811" rx="28.8019" ry="9.14269" transform="rotate(-5.72893 117.626 988.811)" fill="#CACACA" fill-opacity="0.25"/>
</g>
<g style="mix-blend-mode:multiply">
<ellipse cx="171.079" cy="961.243" rx="13.9563" ry="4.4302" transform="rotate(-5.72893 171.079 961.243)" fill="#CACACA" fill-opacity="0.25"/>
</g>
<g style="mix-blend-mode:multiply">
<ellipse rx="41.1304" ry="13.0562" transform="matrix(-0.982568 0.185903 0.185903 0.982568 1403.56 783.738)" fill="#CACACA" fill-opacity="0.25"/>
</g>
<g style="mix-blend-mode:multiply">
<ellipse rx="19.9302" ry="6.32652" transform="matrix(-0.982568 0.185903 0.185903 0.982568 1319.21 767.586)" fill="#CACACA" fill-opacity="0.25"/>
</g>
<g style="mix-blend-mode:multiply">
<ellipse rx="75.2085" ry="23.8737" transform="matrix(-0.99111 0.133043 0.133043 0.99111 813.919 908.257)" fill="#CACACA" fill-opacity="0.25"/>
</g>
<g style="mix-blend-mode:multiply">
<ellipse rx="36.4432" ry="11.5683" transform="matrix(-0.99111 0.133043 0.133043 0.99111 661.474 870.51)" fill="#CACACA" fill-opacity="0.25"/>
</g>
<g style="mix-blend-mode:multiply">
<ellipse rx="21.0887" ry="11.5683" transform="matrix(-0.99111 0.133043 0.133043 0.99111 945.111 861.066)" fill="#CACACA" fill-opacity="0.25"/>
</g>
<g style="mix-blend-mode:multiply">
<ellipse cx="1152.28" cy="672.379" rx="114.71" ry="18.2943" transform="rotate(5.10819 1152.28 672.379)" fill="#727272" fill-opacity="0.5"/>
</g>
<g style="mix-blend-mode:multiply">
<ellipse cx="1228.41" cy="844.097" rx="130.048" ry="18.2943" transform="rotate(1.39592 1228.41 844.097)" fill="#727272" fill-opacity="0.5"/>
</g>
<rect x="160.243" y="792.492" width="17.7999" height="47.4663" transform="rotate(-0.697812 160.243 792.492)" fill="#303131"/>
<rect x="160.243" y="792.492" width="17.7999" height="47.4663" transform="rotate(-0.697812 160.243 792.492)" fill="#303131"/>
<rect x="160.243" y="792.492" width="17.7999" height="47.4663" transform="rotate(-0.697812 160.243 792.492)" fill="#303131"/>
<rect x="255.176" y="786.559" width="17.7999" height="47.4663" transform="rotate(-0.697812 255.176 786.559)" fill="#303131"/>
<rect x="255.176" y="786.559" width="17.7999" height="47.4663" transform="rotate(-0.697812 255.176 786.559)" fill="#303131"/>
<rect x="255.176" y="786.559" width="17.7999" height="47.4663" transform="rotate(-0.697812 255.176 786.559)" fill="#303131"/>
<rect x="308.576" y="766.871" width="17.7999" height="47.4663" transform="rotate(-4.17262 308.576 766.871)" fill="#303131"/>
<rect x="308.576" y="766.871" width="17.7999" height="47.4663" transform="rotate(-4.17262 308.576 766.871)" fill="#303131"/>
<rect x="308.576" y="766.871" width="17.7999" height="47.4663" transform="rotate(-4.17262 308.576 766.871)" fill="#303131"/>
<rect x="397.575" y="761.927" width="17.7999" height="47.4663" transform="rotate(-4.17262 397.575 761.927)" fill="#303131"/>
<rect x="397.575" y="761.927" width="17.7999" height="47.4663" transform="rotate(-4.17262 397.575 761.927)" fill="#303131"/>
<rect x="397.575" y="761.927" width="17.7999" height="47.4663" transform="rotate(-4.17262 397.575 761.927)" fill="#303131"/>
<rect x="456.908" y="739.183" width="17.7999" height="47.4663" transform="rotate(-4.17262 456.908 739.183)" fill="#303131"/>
<rect x="456.908" y="739.183" width="17.7999" height="47.4663" transform="rotate(-4.17262 456.908 739.183)" fill="#303131"/>
<rect x="456.908" y="739.183" width="17.7999" height="47.4663" transform="rotate(-4.17262 456.908 739.183)" fill="#303131"/>
<rect x="517.23" y="735.227" width="17.7999" height="47.4663" transform="rotate(-4.17262 517.23 735.227)" fill="#303131"/>
<rect x="517.23" y="735.227" width="17.7999" height="47.4663" transform="rotate(-4.17262 517.23 735.227)" fill="#303131"/>
<rect x="517.23" y="735.227" width="17.7999" height="47.4663" transform="rotate(-4.17262 517.23 735.227)" fill="#303131"/>
<rect x="581.467" y="721.636" width="17.7999" height="47.4663" transform="rotate(-3.7514 581.467 721.636)" fill="#303131"/>
<rect x="581.467" y="721.636" width="17.7999" height="47.4663" transform="rotate(-3.7514 581.467 721.636)" fill="#303131"/>
<rect x="581.467" y="721.636" width="17.7999" height="47.4663" transform="rotate(-3.7514 581.467 721.636)" fill="#303131"/>
<rect x="660.057" y="711.313" width="17.7999" height="47.4663" transform="rotate(-3.7514 660.057 711.313)" fill="#303131"/>
<rect x="660.057" y="711.313" width="17.7999" height="47.4663" transform="rotate(-3.7514 660.057 711.313)" fill="#303131"/>
<rect x="660.057" y="711.313" width="17.7999" height="47.4663" transform="rotate(-3.7514 660.057 711.313)" fill="#303131"/>
<rect x="807.042" y="654.821" width="17.7999" height="47.4663" transform="rotate(0.0852199 807.042 654.821)" fill="#303131"/>
<rect x="807.042" y="654.821" width="17.7999" height="47.4663" transform="rotate(0.0852199 807.042 654.821)" fill="#303131"/>
<rect x="807.042" y="654.821" width="17.7999" height="47.4663" transform="rotate(0.0852199 807.042 654.821)" fill="#303131"/>
<rect x="761.483" y="654.981" width="17.7999" height="47.4663" transform="rotate(-0.514047 761.483 654.981)" fill="#303131"/>
<rect x="761.483" y="654.981" width="17.7999" height="47.4663" transform="rotate(-0.514047 761.483 654.981)" fill="#303131"/>
<rect x="761.483" y="654.981" width="17.7999" height="47.4663" transform="rotate(-0.514047 761.483 654.981)" fill="#303131"/>
<g style="mix-blend-mode:screen" opacity="0.5">
<path d="M343.209 874.353C343.209 878.581 343.209 882.808 343.209 887.036C343.209 888.586 342.953 897.756 344.175 894.378" stroke="#E4FFAA" stroke-width="3.95553" stroke-linecap="round"/>
</g>
<g style="mix-blend-mode:screen" opacity="0.5">
<path d="M359.997 880.287L359.997 888.198" stroke="#E4FFAA" stroke-width="3.95553" stroke-linecap="round"/>
</g>
<g style="mix-blend-mode:screen" opacity="0.5">
<path d="M437.13 847.653L437.13 855.564" stroke="#E4FFAA" stroke-width="3.95553" stroke-linecap="round"/>
</g>
<g style="mix-blend-mode:screen" opacity="0.5">
<path d="M446.03 844.687L446.03 848.642" stroke="#E4FFAA" stroke-width="3.95553" stroke-linecap="round"/>
</g>
<g style="mix-blend-mode:screen" opacity="0.5">
<path d="M565.685 837.765L565.685 846.665" stroke="#E4FFAA" stroke-width="3.95553" stroke-linecap="round"/>
</g>
<g style="mix-blend-mode:screen" opacity="0.5">
<path d="M597.329 816.009L597.329 830.843" stroke="#E4FFAA" stroke-width="3.95553" stroke-linecap="round"/>
</g>
<g style="mix-blend-mode:screen" opacity="0.5">
<path d="M607.218 822.931L607.218 828.864" stroke="#E4FFAA" stroke-width="3.95553" stroke-linecap="round"/>
</g>
<g style="mix-blend-mode:screen" opacity="0.5">
<path d="M113.766 923.797L113.766 936.653" stroke="#E4FFAA" stroke-width="3.95553" stroke-linecap="round"/>
</g>
<g style="mix-blend-mode:screen" opacity="0.5">
<path d="M122.666 933.686L122.666 943.575" stroke="#E4FFAA" stroke-width="3.95553" stroke-linecap="round"/>
</g>
<g style="mix-blend-mode:screen" opacity="0.5">
<path d="M806.415 958.158C806.612 962.381 806.809 966.603 807.006 970.826C807.078 972.375 807.761 981.523 806.382 978.206" stroke="#E4FFAA" stroke-width="3.95553" stroke-linecap="round"/>
</g>
<g style="mix-blend-mode:screen" opacity="0.5">
<path d="M789.921 964.867L790.289 972.769" stroke="#E4FFAA" stroke-width="3.95553" stroke-linecap="round"/>
</g>
<g style="mix-blend-mode:screen" opacity="0.5">
<path d="M711.351 935.862L711.719 943.765" stroke="#E4FFAA" stroke-width="3.95553" stroke-linecap="round"/>
</g>
<g style="mix-blend-mode:screen" opacity="0.5">
<path d="M702.323 933.314L702.507 937.265" stroke="#E4FFAA" stroke-width="3.95553" stroke-linecap="round"/>
</g>
<g style="mix-blend-mode:screen" opacity="0.5">
<path d="M582.476 931.974L582.89 940.864" stroke="#E4FFAA" stroke-width="3.95553" stroke-linecap="round"/>
</g>
<g style="mix-blend-mode:screen" opacity="0.5">
<path d="M549.852 911.717L550.543 926.534" stroke="#E4FFAA" stroke-width="3.95553" stroke-linecap="round"/>
</g>
<g style="mix-blend-mode:screen" opacity="0.5">
<path d="M540.297 919.092L540.573 925.019" stroke="#E4FFAA" stroke-width="3.95553" stroke-linecap="round"/>
</g>
<g style="mix-blend-mode:screen" opacity="0.5">
<path d="M1037.91 996.858L1038.51 1009.7" stroke="#E4FFAA" stroke-width="3.95553" stroke-linecap="round"/>
</g>
<g style="mix-blend-mode:screen" opacity="0.5">
<path d="M1029.48 1007.15L1029.94 1017.03" stroke="#E4FFAA" stroke-width="3.95553" stroke-linecap="round"/>
</g>
<g style="mix-blend-mode:screen" opacity="0.5">
<path d="M1130.77 865.203C1130.96 869.425 1131.16 873.648 1131.36 877.871C1131.43 879.42 1132.11 888.568 1130.74 885.251" stroke="#E4FFAA" stroke-width="3.95553" stroke-linecap="round"/>
</g>
<g style="mix-blend-mode:screen" opacity="0.5">
<path d="M1114.27 871.912L1114.64 879.814" stroke="#E4FFAA" stroke-width="3.95553" stroke-linecap="round"/>
</g>
<g style="mix-blend-mode:screen" opacity="0.5">
<path d="M1035.7 842.907L1036.07 850.81" stroke="#E4FFAA" stroke-width="3.95553" stroke-linecap="round"/>
</g>
<g style="mix-blend-mode:screen" opacity="0.5">
<path d="M1026.68 840.359L1026.86 844.31" stroke="#E4FFAA" stroke-width="3.95553" stroke-linecap="round"/>
</g>
<g style="mix-blend-mode:screen" opacity="0.5">
<path d="M906.828 839.019L907.243 847.909" stroke="#E4FFAA" stroke-width="3.95553" stroke-linecap="round"/>
</g>
<g style="mix-blend-mode:screen" opacity="0.5">
<path d="M874.205 818.762L874.896 833.579" stroke="#E4FFAA" stroke-width="3.95553" stroke-linecap="round"/>
</g>
<g style="mix-blend-mode:screen" opacity="0.5">
<path d="M864.649 826.137L864.926 832.064" stroke="#E4FFAA" stroke-width="3.95553" stroke-linecap="round"/>
</g>
<g style="mix-blend-mode:screen" opacity="0.5">
<path d="M1362.27 903.903L1362.86 916.744" stroke="#E4FFAA" stroke-width="3.95553" stroke-linecap="round"/>
</g>
<g style="mix-blend-mode:screen" opacity="0.5">
<path d="M1353.84 914.195L1354.3 924.073" stroke="#E4FFAA" stroke-width="3.95553" stroke-linecap="round"/>
</g>
<g style="mix-blend-mode:screen" opacity="0.5">
<path d="M1178.81 708.221C1178.81 712.449 1178.81 716.676 1178.81 720.904C1178.81 722.454 1178.56 731.624 1179.78 728.246" stroke="#E4FFAA" stroke-width="3.95553" stroke-linecap="round"/>
</g>
<g style="mix-blend-mode:screen" opacity="0.5">
<path d="M1195.6 714.154L1195.6 722.065" stroke="#E4FFAA" stroke-width="3.95553" stroke-linecap="round"/>
</g>
<g style="mix-blend-mode:screen" opacity="0.5">
<path d="M1272.73 681.521L1272.73 689.432" stroke="#E4FFAA" stroke-width="3.95553" stroke-linecap="round"/>
</g>
<g style="mix-blend-mode:screen" opacity="0.5">
<path d="M1281.63 678.555L1281.63 682.51" stroke="#E4FFAA" stroke-width="3.95553" stroke-linecap="round"/>
</g>
<g style="mix-blend-mode:screen" opacity="0.5">
<path d="M1401.29 671.632L1401.29 680.532" stroke="#E4FFAA" stroke-width="3.95553" stroke-linecap="round"/>
</g>
<g style="mix-blend-mode:screen" opacity="0.5">
<path d="M1432.93 649.877L1432.93 664.71" stroke="#E4FFAA" stroke-width="3.95553" stroke-linecap="round"/>
</g>
<g style="mix-blend-mode:screen" opacity="0.5">
<path d="M1442.82 656.799L1442.82 662.733" stroke="#E4FFAA" stroke-width="3.95553" stroke-linecap="round"/>
</g>
<g style="mix-blend-mode:screen" opacity="0.5">
<path d="M949.37 757.665L949.37 770.521" stroke="#E4FFAA" stroke-width="3.95553" stroke-linecap="round"/>
</g>
<g style="mix-blend-mode:screen" opacity="0.5">
<path d="M958.27 767.554L958.27 777.443" stroke="#E4FFAA" stroke-width="3.95553" stroke-linecap="round"/>
</g>
<rect x="887.071" y="642.073" width="17.7999" height="47.4663" transform="rotate(-0.346306 887.071 642.073)" fill="#303131"/>
<rect x="887.071" y="642.073" width="17.7999" height="47.4663" transform="rotate(-0.346306 887.071 642.073)" fill="#303131"/>
<rect x="887.071" y="642.073" width="17.7999" height="47.4663" transform="rotate(-0.346306 887.071 642.073)" fill="#303131"/>
<rect x="941.46" y="642.073" width="17.7999" height="47.4663" transform="rotate(-0.346306 941.46 642.073)" fill="#303131"/>
<rect x="941.46" y="642.073" width="17.7999" height="47.4663" transform="rotate(-0.346306 941.46 642.073)" fill="#303131"/>
<rect x="941.46" y="642.073" width="17.7999" height="47.4663" transform="rotate(-0.346306 941.46 642.073)" fill="#303131"/>
<rect x="1088.03" y="628.122" width="17.7999" height="47.4663" transform="rotate(3.84841 1088.03 628.122)" fill="#303131"/>
<rect x="1088.03" y="628.122" width="17.7999" height="47.4663" transform="rotate(3.84841 1088.03 628.122)" fill="#303131"/>
<rect x="1088.03" y="628.122" width="17.7999" height="47.4663" transform="rotate(3.84841 1088.03 628.122)" fill="#303131"/>
<rect x="1151.32" y="629.11" width="17.7999" height="47.4663" transform="rotate(3.84841 1151.32 629.11)" fill="#303131"/>
<rect x="1151.32" y="629.11" width="17.7999" height="47.4663" transform="rotate(3.84841 1151.32 629.11)" fill="#303131"/>
<rect x="1151.32" y="629.11" width="17.7999" height="47.4663" transform="rotate(3.84841 1151.32 629.11)" fill="#303131"/>
<rect x="1214.61" y="630.1" width="17.7999" height="47.4663" transform="rotate(3.84841 1214.61 630.1)" fill="#303131"/>
<rect x="1214.61" y="630.1" width="17.7999" height="47.4663" transform="rotate(3.84841 1214.61 630.1)" fill="#303131"/>
<rect x="1214.61" y="630.1" width="17.7999" height="47.4663" transform="rotate(3.84841 1214.61 630.1)" fill="#303131"/>
<rect x="1277.9" y="631.088" width="17.7999" height="47.4663" transform="rotate(3.84841 1277.9 631.088)" fill="#303131"/>
<rect x="1277.9" y="631.088" width="17.7999" height="47.4663" transform="rotate(3.84841 1277.9 631.088)" fill="#303131"/>
<rect x="1277.9" y="631.088" width="17.7999" height="47.4663" transform="rotate(3.84841 1277.9 631.088)" fill="#303131"/>
<rect x="1164.36" y="665.106" width="17.7999" height="47.4663" transform="rotate(3.84841 1164.36 665.106)" fill="#303131"/>
<rect x="1164.36" y="665.106" width="17.7999" height="47.4663" transform="rotate(3.84841 1164.36 665.106)" fill="#303131"/>
<rect x="1164.36" y="665.106" width="17.7999" height="47.4663" transform="rotate(3.84841 1164.36 665.106)" fill="#303131"/>
<rect x="1263.07" y="675.588" width="17.7999" height="47.4663" transform="rotate(3.84841 1263.07 675.588)" fill="#303131"/>
<rect x="1263.07" y="675.588" width="17.7999" height="47.4663" transform="rotate(3.84841 1263.07 675.588)" fill="#303131"/>
<rect x="1263.07" y="675.588" width="17.7999" height="47.4663" transform="rotate(3.84841 1263.07 675.588)" fill="#303131"/>
<g filter="url(#filter1_d_2848_1571)">
<circle cx="1142.7" cy="186.586" r="82.5716" fill="#FFEAA7"/>
</g>
<g filter="url(#filter2_d_2848_1571)">
<path d="M239.668 315.114V319.593C233.246 325.001 226.88 330.183 220.571 335.14C214.262 340.041 206.6 345.534 197.587 351.618C192.968 357.927 188.996 363.081 185.673 367.081C182.349 371.137 179.476 374.489 177.054 377.136C174.632 379.784 173.392 381.136 173.336 381.192C172.547 382.15 171.223 383.108 169.364 384.065C167.505 385.023 165.956 385.502 164.717 385.502C162.971 385.502 161.506 384.854 160.323 383.558C159.196 382.319 158.633 380.826 158.633 379.08C158.633 374.573 160.999 369.757 165.731 364.631C170.463 359.561 177.392 354.35 186.518 348.998C191.024 342.52 195.334 336.014 199.446 329.479C203.558 322.888 207.136 316.889 210.178 311.481C213.276 306.073 216.121 300.749 218.712 295.51C214.656 298.89 210.628 302.158 206.629 305.312C202.629 308.411 198.714 311.396 194.883 314.269C191.053 317.086 188.687 318.832 187.785 319.508C186.884 320.184 186.095 320.776 185.419 321.283C175.617 329.845 168.294 334.126 163.449 334.126C158.83 334.126 154.943 331.929 151.789 327.535C148.634 323.142 147.057 317.593 147.057 310.889C147.057 306.664 147.733 302.27 149.085 297.707C150.437 293.088 152.493 288.356 155.253 283.511C158.07 278.667 161.421 273.991 165.308 269.485C169.195 264.978 173.477 260.837 178.152 257.063C185.363 251.317 193.447 246.191 202.404 241.684C211.36 237.121 219.698 233.657 227.415 231.291C235.133 228.869 240.823 227.657 244.484 227.657C246.625 227.657 248.315 228.193 249.554 229.263C250.85 230.277 251.751 231.685 252.258 233.488C252.821 235.234 253.103 237.093 253.103 239.065C253.103 240.868 252.54 242.67 251.413 244.473C249.779 246.895 246.906 249.458 242.794 252.162C238.682 254.81 234.541 257.176 230.373 259.26C226.204 261.288 223.81 262.302 223.19 262.302C222.852 262.302 222.683 262.189 222.683 261.964C222.683 261.457 223.331 260.64 224.627 259.514C225.923 258.387 227.359 257.232 228.936 256.049C232.429 253.402 234.485 250.585 235.105 247.599C229.64 249.12 224.204 251.12 218.796 253.599C213.388 256.077 208.037 259.035 202.742 262.471C197.446 265.907 192.151 269.823 186.856 274.217C180.884 279.23 175.786 284.469 171.561 289.933C167.393 295.341 164.21 300.355 162.013 304.974C159.872 309.593 158.802 313.142 158.802 315.621C158.802 317.48 159.394 319.114 160.576 320.522C161.759 321.874 163.365 322.55 165.393 322.55C167.759 322.55 170.688 321.508 174.181 319.424C177.955 317.17 182.096 314.297 186.602 310.805C191.165 307.256 195.362 303.904 199.193 300.749C203.023 297.595 207.164 294.13 211.614 290.356C215.726 286.92 218.909 284.159 221.162 282.075C223.472 279.934 225.19 278.075 226.317 276.498C228.683 273.231 231.021 271.344 233.33 270.837C235.696 270.33 237.696 270.808 239.33 272.273C241.02 273.681 241.865 275.428 241.865 277.512C241.865 278.188 240.625 280.836 238.147 285.455C235.724 290.018 231.978 296.665 226.908 305.397C221.895 314.072 215.698 324.325 208.319 336.154C214.853 332.662 225.303 325.648 239.668 315.114ZM238.485 321.959V316.466C241.527 312.861 243.836 309.791 245.414 307.256C243.611 306.636 242.287 305.876 241.442 304.974C240.654 304.073 240.259 302.721 240.259 300.918C240.259 298.89 241.104 296.327 242.794 293.229C244.484 290.131 246.568 287.229 249.047 284.525C251.526 281.821 253.779 280.075 255.807 279.286C256.596 278.892 257.356 278.695 258.089 278.695C259.215 278.695 259.779 279.23 259.779 280.3C259.779 281.258 258.905 283.202 257.159 286.131C268.764 284.328 276.087 283.427 279.129 283.427C280.312 283.427 281.129 283.54 281.579 283.765C282.537 284.272 283.326 285.455 283.945 287.314C284.565 289.173 284.875 291.032 284.875 292.891C284.875 294.074 284.34 295.369 283.269 296.778C282.255 298.13 280.481 300.13 277.946 302.777C274.96 305.988 272.453 309.481 270.425 313.255C268.397 317.029 267.383 319.874 267.383 321.79C267.383 324.437 269.017 325.761 272.284 325.761C275.721 325.761 281.692 322.268 290.198 315.283V320.945C285.523 325.845 281.664 329.704 278.622 332.521C275.58 335.338 272.763 337.591 270.172 339.281C267.581 340.915 265.271 341.731 263.243 341.731C260.877 341.731 258.905 340.661 257.328 338.52C255.751 336.323 254.962 333.169 254.962 329.056C254.962 326.634 255.582 323.874 256.821 320.776C258.06 317.677 259.863 314.325 262.229 310.72C264.651 307.059 267.355 303.425 270.341 299.82C268.764 300.158 266.989 300.524 265.017 300.918C263.046 301.256 260.962 301.622 258.765 302.017C256.568 302.411 254.878 302.721 253.695 302.946C250.202 309.931 245.132 316.269 238.485 321.959ZM303.38 318.494V320.607C303.38 323.93 304.197 326.521 305.831 328.38C307.464 330.239 309.605 331.169 312.253 331.169C315.013 331.169 317.858 330.521 320.787 329.225C323.773 327.93 326.73 326.212 329.659 324.071C332.589 321.93 336.166 319.057 340.391 315.452V320.607C334.025 328.268 328.054 334.155 322.477 338.267C316.9 342.323 311.239 344.351 305.493 344.351C300.479 344.351 296.507 342.407 293.578 338.52C290.649 334.633 289.184 329.31 289.184 322.55C289.184 316.635 290.564 311.283 293.325 306.495C296.085 301.651 300.592 296.552 306.845 291.201C311.126 287.539 315.379 284.779 319.604 282.92C323.829 281.061 327.603 280.131 330.927 280.131C333.574 280.131 335.659 280.751 337.18 281.99C338.757 283.173 339.546 284.976 339.546 287.398C339.546 290.947 338.222 294.496 335.574 298.045C332.927 301.538 328.871 305.031 323.406 308.523C317.998 311.959 311.323 315.283 303.38 318.494ZM304.225 313.002C309.295 311.03 313.633 308.58 317.238 305.65C320.843 302.721 323.491 299.932 325.181 297.285C326.927 294.581 327.8 292.609 327.8 291.37C327.8 290.074 327.209 289.426 326.026 289.426C325.012 289.426 323.35 290.074 321.04 291.37C318.787 292.665 316.477 294.355 314.111 296.44C311.802 298.524 309.718 300.975 307.859 303.791C306 306.608 304.788 309.678 304.225 313.002ZM353.911 318.494V320.607C353.911 323.93 354.727 326.521 356.361 328.38C357.995 330.239 360.135 331.169 362.783 331.169C365.543 331.169 368.388 330.521 371.317 329.225C374.303 327.93 377.261 326.212 380.19 324.071C383.119 321.93 386.696 319.057 390.921 315.452V320.607C384.556 328.268 378.584 334.155 373.007 338.267C367.43 342.323 361.769 344.351 356.023 344.351C351.009 344.351 347.038 342.407 344.109 338.52C341.179 334.633 339.715 329.31 339.715 322.55C339.715 316.635 341.095 311.283 343.855 306.495C346.616 301.651 351.122 296.552 357.375 291.201C361.656 287.539 365.909 284.779 370.134 282.92C374.359 281.061 378.134 280.131 381.457 280.131C384.105 280.131 386.189 280.751 387.71 281.99C389.288 283.173 390.076 284.976 390.076 287.398C390.076 290.947 388.752 294.496 386.105 298.045C383.457 301.538 379.401 305.031 373.937 308.523C368.529 311.959 361.854 315.283 353.911 318.494ZM354.756 313.002C359.826 311.03 364.163 308.58 367.768 305.65C371.374 302.721 374.021 299.932 375.711 297.285C377.458 294.581 378.331 292.609 378.331 291.37C378.331 290.074 377.739 289.426 376.556 289.426C375.542 289.426 373.881 290.074 371.571 291.37C369.318 292.665 367.008 294.355 364.642 296.44C362.332 298.524 360.248 300.975 358.389 303.791C356.53 306.608 355.319 309.678 354.756 313.002ZM420.58 271.597H424.214C427.2 266.245 429.904 262.471 432.326 260.274C434.748 258.021 437.508 256.894 440.607 256.894C443.705 256.894 445.254 257.598 445.254 259.007C445.254 259.683 444.043 261.513 441.621 264.499C439.198 267.485 437.368 269.992 436.128 272.02C438.044 272.245 439.734 272.442 441.198 272.611C442.719 272.78 443.902 272.921 444.747 273.034C441.536 279.005 437.508 285.117 432.664 291.37C431.087 291.257 429.763 291.173 428.692 291.116C427.622 291.004 426.524 290.919 425.397 290.863C424.327 290.75 423.003 290.638 421.425 290.525C418.383 295.426 415.82 299.82 413.736 303.707C411.708 307.537 410.131 311.058 409.004 314.269C407.934 317.48 407.399 320.522 407.399 323.395C407.399 327.282 408.948 329.225 412.046 329.225C414.187 329.225 416.975 328.099 420.411 325.845C423.904 323.536 428.552 320.015 434.354 315.283V320.945C419.144 337.45 407.906 345.703 400.639 345.703C398.104 345.703 396.048 344.717 394.47 342.745C392.949 340.774 392.189 338.239 392.189 335.14C392.189 333.056 392.611 330.577 393.456 327.704C394.358 324.832 395.935 320.494 398.188 314.692C397.4 315.368 396.639 316.044 395.907 316.72C395.231 317.339 394.583 317.931 393.963 318.494C393.4 319.001 392.78 319.564 392.104 320.184C391.428 320.747 390.752 321.339 390.076 321.959V316.128C395.991 311.171 403.145 302.467 411.539 290.018C410.694 289.962 409.905 289.933 409.173 289.933C408.441 289.877 407.568 289.849 406.554 289.849C403.23 289.849 400.751 290.074 399.118 290.525C398.442 290.694 397.794 290.891 397.174 291.116C396.611 291.285 396.217 291.37 395.991 291.37C395.766 291.37 395.653 291.201 395.653 290.863C395.653 289.004 396.808 286.215 399.118 282.497C400.977 279.343 402.723 277.005 404.357 275.484C406.047 273.963 408.075 272.949 410.441 272.442C412.863 271.879 416.243 271.597 420.58 271.597ZM468.829 277.681C467.421 277.681 466.069 277.146 464.774 276.075C463.534 275.005 462.915 273.653 462.915 272.02C462.915 269.541 464.098 266.781 466.463 263.739C468.829 260.697 471.28 259.176 473.815 259.176C475.505 259.176 476.913 259.711 478.04 260.781C479.167 261.795 479.73 263.288 479.73 265.26C479.73 267.682 478.575 270.358 476.265 273.287C473.956 276.216 471.477 277.681 468.829 277.681ZM474.575 315.452V321.621C469.111 328.662 464.013 333.986 459.281 337.591C454.549 341.14 450.521 342.914 447.198 342.914C442.578 342.914 439.142 340.492 436.889 335.647C434.635 330.803 433.509 325.507 433.509 319.762C433.509 317.565 433.734 315.48 434.185 313.509C434.635 311.481 435.171 309.819 435.79 308.523C436.41 307.228 437.565 305.2 439.255 302.439C447.254 289.99 454.577 283.765 461.225 283.765C464.661 283.765 466.379 285.089 466.379 287.736C466.379 289.539 465.252 292.356 462.999 296.186C460.802 300.017 458.83 302.749 457.084 304.383C452.183 309.115 448.972 312.41 447.451 314.269C445.987 316.128 445.254 318.241 445.254 320.607C445.254 322.635 446.015 324.325 447.536 325.676C449.057 327.028 451.028 327.704 453.451 327.704C456.098 327.704 458.999 326.747 462.154 324.832C465.365 322.86 469.505 319.733 474.575 315.452ZM530.852 300.158C520.937 311.199 515.98 318.888 515.98 323.226C515.98 325.648 516.966 326.859 518.937 326.859C520.571 326.859 522.684 326.014 525.275 324.325C527.923 322.578 532.035 319.508 537.612 315.114V320.945C529.613 328.831 523.472 334.521 519.191 338.013C514.91 341.506 511.417 343.252 508.713 343.252C504.094 343.252 501.784 340.21 501.784 334.126C501.784 332.324 502.066 330.549 502.629 328.803C503.192 327.057 503.953 325.254 504.911 323.395C505.925 321.48 507.446 318.776 509.474 315.283C511.502 311.734 513.839 307.735 516.487 303.284C513.276 304.918 509.248 308.157 504.404 313.002C501.249 316.044 498.573 318.945 496.376 321.705C494.179 324.409 491.813 327.451 489.278 330.831C486.8 334.155 484.969 336.408 483.786 337.591C482.659 338.718 481.504 339.281 480.321 339.281C478.519 339.281 476.857 337.394 475.336 333.619C473.815 329.845 473.054 325.451 473.054 320.438C473.054 317.339 473.392 314.917 474.068 313.171C474.801 311.424 476.209 308.946 478.293 305.735C482.18 299.763 485.532 295.398 488.349 292.637C491.165 289.821 493.869 288.412 496.461 288.412C498.263 288.412 499.7 288.722 500.77 289.342C501.897 289.962 502.46 290.919 502.46 292.215C502.46 292.778 502.291 293.37 501.953 293.989C501.615 294.609 501.221 295.172 500.77 295.679C500.376 296.186 499.503 297.172 498.151 298.637C489.25 308.495 484.8 314.889 484.8 317.818C484.8 319.452 485.335 320.269 486.405 320.269C487.081 320.269 488.377 319.198 490.292 317.058C492.264 314.861 494.771 312.016 497.813 308.523C500.911 304.974 504.544 301.284 508.713 297.454C512.938 293.623 517.726 289.933 523.078 286.384C526.064 284.3 528.542 283.258 530.514 283.258C531.415 283.258 532.288 284.497 533.133 286.976C534.035 289.455 534.485 291.961 534.485 294.496C534.485 295.736 533.274 297.623 530.852 300.158ZM604.282 321.114L576.228 344.182C568.341 357.814 561.159 367.982 554.681 374.686C548.202 381.446 543.386 384.826 540.231 384.826C538.541 384.826 537.696 383.784 537.696 381.699C537.696 377.643 539.752 372.461 543.865 366.152C545.498 363.673 547.357 361.251 549.442 358.885C551.582 356.519 553.582 354.463 555.441 352.716C557.356 351.026 559.863 348.886 562.962 346.294C566.06 343.759 568.172 342.013 569.299 341.055C574.932 329.563 578.988 320.776 581.467 314.692C576.172 320.325 571.552 324.944 567.609 328.549C563.666 332.155 560.032 334.943 556.709 336.915C553.441 338.83 550.484 339.788 547.836 339.788C544.963 339.788 542.316 337.506 539.893 332.943C537.471 328.324 536.26 323.592 536.26 318.748C536.26 316.494 536.767 314.128 537.781 311.65C538.851 309.171 540.485 306.523 542.682 303.707C544.935 300.89 547.78 298.017 551.216 295.088C554.652 292.102 558.68 289.201 563.3 286.384C572.031 280.92 578.819 278.188 583.664 278.188C587.269 278.188 589.072 279.512 589.072 282.159C589.072 285.821 585.157 289.398 577.326 292.891C572.538 294.975 567.778 297.735 563.046 301.172C558.37 304.608 554.568 308.27 551.639 312.157C548.766 315.987 547.329 319.452 547.329 322.55C547.329 324.071 547.695 325.282 548.428 326.183C549.16 327.085 550.118 327.535 551.301 327.535C553.272 327.535 555.526 326.634 558.061 324.832C560.596 323.029 564.342 319.846 569.299 315.283C571.552 313.199 574.538 309.847 578.256 305.228C582.03 300.552 585.128 297.003 587.551 294.581C590.029 292.102 592.255 290.863 594.226 290.863C595.353 290.863 596.254 291.229 596.93 291.961C597.663 292.637 598.029 293.651 598.029 295.003C598.029 297.595 596.987 301.369 594.902 306.326C592.874 311.227 589.184 319.283 583.833 330.493L604.282 315.621V321.114ZM603.352 317.818V315.79C617.886 300.468 627.885 289.736 633.349 283.596C634.589 276.667 637.574 273.203 642.306 273.203C643.489 273.203 644.757 273.541 646.109 274.217L646.616 275.822C646.39 276.498 646.278 277.456 646.278 278.695C646.278 279.765 646.672 281.765 647.461 284.694C648.306 287.567 648.954 289.99 649.404 291.961C649.855 293.933 650.08 296.158 650.08 298.637C650.08 302.355 649.235 305.932 647.545 309.368C645.855 312.748 643.405 316.015 640.194 319.17C636.983 322.268 632.842 325.451 627.772 328.718C629.8 329.056 631.406 329.225 632.589 329.225C634.898 329.225 637.377 328.662 640.025 327.535C642.729 326.352 645.461 324.803 648.221 322.888C651.038 320.916 654.305 318.381 658.023 315.283V320.945C650.812 327.986 644.362 333.338 638.673 336.999C632.983 340.605 628.082 342.407 623.97 342.407C618.675 342.407 613.774 340.154 609.267 335.647C606.619 332.943 604.958 330.352 604.282 327.873C603.662 325.395 603.352 322.043 603.352 317.818ZM634.87 304.89L633.349 292.553C629.857 296.496 622.393 304.073 610.957 315.283C614.337 316.015 616.647 317.001 617.886 318.241C619.125 319.48 620.872 321.874 623.125 325.423C626.956 323.846 629.885 321.705 631.913 319.001C633.997 316.241 635.039 312.495 635.039 307.763C635.039 307.199 635.011 306.692 634.955 306.242C634.955 305.791 634.927 305.34 634.87 304.89ZM753.507 315.452V321.283C750.127 324.663 747.564 327.113 745.818 328.634C744.071 330.155 741.677 331.704 738.635 333.281C738.635 338.408 738.382 342.773 737.875 346.379C737.368 349.984 736.241 353.758 734.495 357.702C732.749 361.701 730.045 366.067 726.383 370.799C722.778 375.475 719.229 379.052 715.736 381.53C712.243 384.065 709.511 385.333 707.54 385.333C705.343 385.333 703.315 383.53 701.456 379.925C699.597 376.32 698.667 371.841 698.667 366.49C698.667 361.363 699.54 355.955 701.287 350.266C703.033 344.576 705.737 337.225 709.399 328.211C706.638 324.606 705.258 321.029 705.258 317.48C705.258 314.607 705.99 312.41 707.455 310.889C708.92 309.368 711.004 307.988 713.708 306.749C715.68 303.65 717.539 301.031 719.285 298.89C721.088 296.693 723.51 293.792 726.552 290.187C732.411 275.766 739.283 261.682 747.17 247.937C749.367 244.107 750.944 241.543 751.902 240.248C752.859 238.896 753.873 238.22 754.944 238.22C755.901 238.22 756.746 238.924 757.479 240.332C758.211 241.741 758.577 243.571 758.577 245.825C758.577 248.585 758.267 251.12 757.648 253.43C757.084 255.739 756.239 258.077 755.113 260.443C754.042 262.753 752.521 265.541 750.55 268.809C748.634 272.076 747.451 274.104 747.001 274.892C744.184 279.85 741.001 285.342 737.452 291.37C733.903 297.397 731.087 302.158 729.002 305.65C726.974 309.143 725.51 311.762 724.608 313.509C727.65 316.156 730.045 318.438 731.791 320.353C733.593 322.268 735.143 324.55 736.438 327.197C738.354 326.465 740.1 325.592 741.677 324.578C743.255 323.564 745.114 322.184 747.254 320.438C749.395 318.635 751.479 316.973 753.507 315.452ZM728.242 338.098L728.073 336.323C726.496 336.492 725.228 336.549 724.27 336.492C723.313 336.38 722.186 336.126 720.89 335.732C719.651 335.338 718.665 334.971 717.933 334.633C717.257 334.295 716.496 333.957 715.652 333.619C711.37 344.097 709.23 352.801 709.23 359.73C709.23 363.166 709.737 366.095 710.751 368.518C711.821 370.94 713.06 372.151 714.469 372.151C715.933 372.151 717.764 370.855 719.961 368.264C722.214 365.673 724.158 361.842 725.791 356.772C727.425 351.702 728.242 345.477 728.242 338.098ZM752.578 321.959V316.466C755.62 312.861 757.929 309.791 759.507 307.256C757.704 306.636 756.38 305.876 755.535 304.974C754.746 304.073 754.352 302.721 754.352 300.918C754.352 298.89 755.197 296.327 756.887 293.229C758.577 290.131 760.661 287.229 763.14 284.525C765.619 281.821 767.872 280.075 769.9 279.286C770.689 278.892 771.449 278.695 772.181 278.695C773.308 278.695 773.871 279.23 773.871 280.3C773.871 281.258 772.998 283.202 771.252 286.131C782.857 284.328 790.18 283.427 793.222 283.427C794.405 283.427 795.222 283.54 795.672 283.765C796.63 284.272 797.419 285.455 798.038 287.314C798.658 289.173 798.968 291.032 798.968 292.891C798.968 294.074 798.433 295.369 797.362 296.778C796.348 298.13 794.574 300.13 792.039 302.777C789.053 305.988 786.546 309.481 784.518 313.255C782.49 317.029 781.476 319.874 781.476 321.79C781.476 324.437 783.11 325.761 786.377 325.761C789.814 325.761 795.785 322.268 804.291 315.283V320.945C799.616 325.845 795.757 329.704 792.715 332.521C789.673 335.338 786.856 337.591 784.265 339.281C781.674 340.915 779.364 341.731 777.336 341.731C774.97 341.731 772.998 340.661 771.421 338.52C769.844 336.323 769.055 333.169 769.055 329.056C769.055 326.634 769.675 323.874 770.914 320.776C772.153 317.677 773.956 314.325 776.322 310.72C778.744 307.059 781.448 303.425 784.434 299.82C782.857 300.158 781.082 300.524 779.11 300.918C777.139 301.256 775.054 301.622 772.857 302.017C770.66 302.411 768.971 302.721 767.788 302.946C764.295 309.931 759.225 316.269 752.578 321.959ZM858.286 315.283V320.945C854.568 324.325 851.583 326.578 849.329 327.704C847.076 328.831 843.837 329.282 839.612 329.056C832.289 337.732 825.838 342.069 820.262 342.069C817.107 342.069 814.234 341.027 811.643 338.943C809.051 336.859 806.967 334.014 805.39 330.408C803.869 326.803 803.108 322.775 803.108 318.325C803.108 314.72 804.291 310.72 806.657 306.326C809.079 301.932 812.178 297.848 815.952 294.074C819.783 290.243 823.867 287.173 828.204 284.863C832.542 282.497 836.57 281.314 840.288 281.314C842.935 281.314 845.02 281.737 846.541 282.582C848.062 283.371 848.822 284.497 848.822 285.962C848.822 287.089 848.174 288.384 846.879 289.849C849.019 290.3 850.484 291.06 851.273 292.13C852.061 293.144 852.456 295.031 852.456 297.792C852.456 300.496 851.808 303.904 850.512 308.016C849.273 312.128 847.555 315.987 845.358 319.593L846.879 321.114H848.146C849.104 321.114 850.033 320.888 850.935 320.438C851.892 319.931 852.737 319.424 853.47 318.917C854.202 318.353 855.808 317.142 858.286 315.283ZM840.879 293.06C836.204 295.876 832.204 298.44 828.88 300.749C825.557 303.003 822.74 305.312 820.431 307.678C818.121 309.988 816.572 312.326 815.783 314.692C814.375 321.001 813.671 324.409 813.671 324.916C813.671 328.634 816.262 330.493 821.445 330.493C823.867 330.493 827.923 328.409 833.612 324.24C832.655 321.592 832.176 319.057 832.176 316.635C832.176 313.086 832.908 309.481 834.373 305.819C835.838 302.101 838.006 297.848 840.879 293.06ZM896.818 327.028C904.592 320.156 911.267 314.185 916.844 309.115C922.421 303.988 926.787 299.961 929.941 297.031C933.152 294.102 935.969 291.623 938.391 289.595C940.814 287.567 942.363 286.553 943.039 286.553C944.334 286.497 945.574 287.849 946.757 290.609C947.94 293.313 948.531 295.482 948.531 297.116C948.531 298.186 946.729 300.721 943.123 304.721C939.574 308.664 936.898 311.819 935.096 314.185C933.35 316.551 932.476 319.029 932.476 321.621C932.476 323.142 932.983 324.381 933.997 325.339C935.011 326.24 936.222 326.69 937.631 326.69C939.264 326.69 941.208 325.845 943.461 324.156C945.771 322.466 949.376 319.452 954.277 315.114V321.114C949.376 325.733 944.926 329.732 940.926 333.112C936.927 336.436 933.434 338.943 930.448 340.633C927.519 342.267 925.069 343.083 923.097 343.083C921.351 343.083 919.886 342.435 918.703 341.14C917.52 339.788 916.929 338.126 916.929 336.154C916.929 334.239 917.267 332.296 917.943 330.324C918.618 328.352 919.661 326.014 921.069 323.311C922.477 320.607 924.336 317.367 926.646 313.593C928.956 309.762 931.068 306.27 932.983 303.115C927.237 307.791 922.139 312.297 917.689 316.635C913.239 320.973 909.605 324.775 906.789 328.042C903.972 331.253 901.747 333.788 900.113 335.647C896.959 339.14 894.029 340.886 891.325 340.886C888.396 340.886 886.931 338.802 886.931 334.633C886.931 332.943 888.03 329.93 890.227 325.592C892.424 321.198 895.55 315.621 899.606 308.861C899.944 308.411 900.113 307.706 900.113 306.749C900.113 305.622 899.55 305.059 898.423 305.059C897.184 305.059 895.381 306.242 893.015 308.608C890.706 310.917 886.199 315.79 879.495 323.226C877.636 325.31 875.524 328.042 873.158 331.422C870.848 334.746 869.186 336.971 868.172 338.098C867.159 339.225 866.145 339.788 865.131 339.788C863.103 339.788 861.215 337.985 859.469 334.38C857.723 330.775 856.85 326.578 856.85 321.79C856.85 318.297 857.413 315.283 858.54 312.748C859.723 310.213 861.525 307.059 863.948 303.284C867.722 297.82 870.792 293.933 873.158 291.623C875.58 289.257 878.115 288.074 880.763 288.074C882.397 288.074 883.777 288.412 884.903 289.088C886.03 289.708 886.593 290.581 886.593 291.708C886.593 292.891 885.551 294.834 883.467 297.538C881.439 300.242 878.848 303.031 875.693 305.904C874.003 307.537 872.397 309.565 870.876 311.988C869.355 314.354 868.595 316.072 868.595 317.142C868.595 318.663 869.186 319.424 870.369 319.424C871.327 319.424 873.749 317.452 877.636 313.509C881.523 309.565 885.776 305.284 890.396 300.665C895.071 295.989 899.381 292.13 903.324 289.088C907.324 285.99 910.704 284.441 913.464 284.441C915.154 284.441 916.534 285.089 917.605 286.384C918.731 287.624 919.294 289.173 919.294 291.032C919.294 292.271 918.45 294.524 916.76 297.792C915.07 301.003 912.591 305.002 909.324 309.791C906.113 314.523 901.944 320.269 896.818 327.028Z" fill="#FFC83C"/>
</g>
<path d="M957.646 920.253V954.045H975.757V965.053H946.638V920.253H957.646ZM1011.19 934.653C1011.19 930.429 1010.29 919.101 995.124 919.101C979.956 919.101 979.06 930.429 979.06 934.653V950.653C979.06 954.877 979.956 966.205 995.124 966.205C1010.29 966.205 1011.19 954.877 1011.19 950.653V934.653ZM1000.18 947.261C1000.18 952.189 999.86 955.197 995.124 955.197C990.388 955.197 990.068 952.189 990.068 947.261V938.045C990.068 933.117 990.388 930.109 995.124 930.109C999.86 930.109 1000.18 933.117 1000.18 938.045V947.261ZM1047.99 932.861C1047.99 927.229 1044.73 919.229 1031.29 919.229C1016.95 919.229 1015.8 930.557 1015.86 932.477C1015.86 947.197 1035.45 945.981 1036.66 951.421C1037.05 953.149 1034.74 955.005 1031.61 955.005C1028.47 955.005 1026.1 953.981 1025.78 949.373L1014.9 951.741C1014.9 957.373 1017.91 966.013 1031.61 966.013C1046.77 966.013 1048.95 954.685 1048.95 952.765C1048.95 938.045 1028.41 938.173 1027.51 933.181C1027.25 931.709 1028.79 930.237 1031.29 930.237C1034.42 930.237 1036.66 931.325 1037.17 935.229L1047.99 932.861ZM1103.8 965.053H1092.79V955.645H1083.45V965.053H1072.44V935.741C1072.44 927.677 1073.72 919.101 1088.12 919.101C1102.52 919.101 1103.8 927.677 1103.8 935.741V965.053ZM1092.79 935.741C1092.79 932.669 1092.35 931.133 1088.12 931.133C1083.9 931.133 1083.45 932.669 1083.45 935.741V944.573H1092.79V935.741ZM1122.82 920.253L1132.93 944.765V920.253H1143.94V965.053H1131.01L1120.9 940.349V965.053H1109.89V920.253H1122.82ZM1181.88 934.653C1181.88 930.429 1180.92 919.101 1165.75 919.101C1150.58 919.101 1149.69 930.429 1149.69 934.653V950.653C1149.69 954.877 1150.58 966.205 1165.75 966.205C1180.92 966.205 1181.81 954.877 1181.81 950.653V940.093H1165.17V949.053H1170.81C1170.81 952.189 1170.49 955.197 1165.75 955.197C1161.01 955.197 1160.69 952.189 1160.69 947.261V938.045C1160.69 933.117 1161.01 930.109 1165.75 930.109C1170.49 930.109 1171 932.605 1171.25 937.021L1181.88 934.653ZM1218.17 920.253V931.261H1198.84V937.149H1212.6V948.157H1198.84V954.045H1218.17V965.053H1187.45V920.253H1218.17ZM1234.08 920.253V954.045H1252.19V965.053H1223.08V920.253H1234.08ZM1286.86 920.253V931.261H1267.53V937.149H1281.29V948.157H1267.53V954.045H1286.86V965.053H1256.14V920.253H1286.86ZM1321.55 932.861C1321.55 927.229 1318.29 919.229 1304.85 919.229C1290.51 919.229 1289.36 930.557 1289.42 932.477C1289.42 947.197 1309.01 945.981 1310.22 951.421C1310.61 953.149 1308.3 955.005 1305.17 955.005C1302.03 955.005 1299.66 953.981 1299.34 949.373L1288.46 951.741C1288.46 957.373 1291.47 966.013 1305.17 966.013C1320.34 966.013 1322.51 954.685 1322.51 952.765C1322.51 938.045 1301.97 938.173 1301.07 933.181C1300.82 931.709 1302.35 930.237 1304.85 930.237C1307.98 930.237 1310.22 931.325 1310.74 935.229L1321.55 932.861ZM1338.13 954.045V963.133C1338.13 968.381 1335.76 972.093 1329.55 972.093C1332.24 969.533 1332.56 967.037 1332.63 965.053H1327.12V954.045H1338.13ZM1372.51 938.045C1372.51 933.117 1372.83 930.109 1377.56 930.109C1382.3 930.109 1382.81 932.605 1383.07 937.021L1393.69 934.653C1393.69 930.429 1392.73 919.101 1377.56 919.101C1362.39 919.101 1361.5 930.429 1361.5 934.653V950.653C1361.5 954.877 1362.39 966.205 1377.56 966.205C1392.73 966.205 1393.69 954.877 1393.69 950.653L1383.07 948.285C1382.81 952.701 1382.3 955.197 1377.56 955.197C1372.83 955.197 1372.51 952.189 1372.51 947.261V938.045ZM1428.99 965.053H1417.98V955.645H1408.64V965.053H1397.63V935.741C1397.63 927.677 1398.91 919.101 1413.31 919.101C1427.71 919.101 1428.99 927.677 1428.99 935.741V965.053ZM1417.98 935.741C1417.98 932.669 1417.53 931.133 1413.31 931.133C1409.09 931.133 1408.64 932.669 1408.64 935.741V944.573H1417.98V935.741Z" fill="#FFD13C"/>
<path d="M266.361 798.056C272.577 798.056 277.767 793.11 277.767 786.824V594.019C277.767 587.733 272.577 582.787 266.361 582.787H235.975C229.759 582.787 224.569 587.733 224.569 594.019V664.489H201.728V594.019C201.728 587.733 196.538 582.787 190.322 582.787H159.936C153.72 582.787 148.53 587.733 148.53 594.019V786.824C148.53 793.11 153.72 798.056 159.936 798.056H190.322C196.538 798.056 201.728 793.11 201.728 786.824V716.644H224.569V786.824C224.569 793.11 229.759 798.056 235.975 798.056H266.361Z" fill="#F4F4F4" stroke="#313131" stroke-width="7.60388"/>
<path d="M328.227 571.279L331.698 571.889L328.227 571.279L294.346 764.116C293.203 770.618 297.942 777.012 304.749 777.012H332.324C337.615 777.012 341.917 773.025 342.752 767.885L346.089 747.325H375.614L378.951 767.885C379.786 773.025 384.088 777.012 389.379 777.012H417.223C424.033 777.012 428.773 770.613 427.626 764.108L393.617 571.272C392.722 566.2 388.447 562.298 383.215 562.298H338.63C333.395 562.298 329.118 566.204 328.227 571.279ZM360.875 657.032L367.172 695.817H354.66L360.875 657.032Z" fill="#F4F4F4" stroke="#313131" stroke-width="7.0494"/>
<path d="M436.814 574.047L434.224 572.03L455.038 545.299L436.814 574.047ZM436.814 574.047L434.224 572.03C432.559 574.168 431.776 576.898 431.946 579.612L440.83 721.66C441.001 724.39 442.13 727.017 444.07 728.934L468.017 752.596C469.945 754.501 472.546 755.564 475.274 755.394L522.229 752.457C524.957 752.286 527.405 750.907 529.081 748.777L549.893 722.316C551.579 720.172 552.372 717.424 552.202 714.694M436.814 574.047L552.202 714.694M552.202 714.694L550.079 680.762C549.735 675.25 545.378 670.327 539.582 670.69L513.396 672.327C507.601 672.69 503.891 678.117 504.236 683.629L505.423 702.613L485.739 703.844L478.735 591.859L498.419 590.628L499.597 609.467C499.942 614.979 504.299 619.901 510.095 619.539L536.28 617.901C542.076 617.539 545.786 612.112 545.441 606.6L543.318 572.646C543.148 569.933 542.031 567.321 540.113 565.407L516.131 541.478C514.2 539.552 511.584 538.473 508.838 538.645L461.921 541.579C459.175 541.751 456.714 543.147 455.038 545.299L552.202 714.694ZM478.716 591.531C478.716 591.531 478.716 591.532 478.715 591.533L478.716 591.531ZM498.397 590.3C498.397 590.3 498.398 590.301 498.398 590.302L498.397 590.3Z" fill="#F4F4F4" stroke="#313131" stroke-width="6.56559"/>
<path d="M677.511 725.306C684.798 724.809 688.294 716.758 685.833 710.504L650.789 621.424L647.734 622.626L650.789 621.424C650.416 620.475 650.342 619.402 650.582 618.411L673.184 525.098C674.765 518.569 670.207 511.076 662.924 511.573L637.558 513.305C633.148 513.606 629.772 516.96 628.758 521.145L614.434 580.263L610.72 525.87C610.344 520.361 605.958 515.463 600.165 515.859L573.989 517.646C568.196 518.042 564.517 523.49 564.893 529L578.03 721.367C578.406 726.877 582.791 731.775 588.585 731.379L614.761 729.592C620.554 729.196 624.233 723.748 623.857 718.238L620.165 664.173L642.368 720.484C643.945 724.484 647.742 727.339 652.146 727.039L677.511 725.306Z" fill="#F4F4F4" stroke="#313131" stroke-width="6.56559"/>
<path d="M821.856 461.985L821.856 461.985C820.048 459.944 817.505 458.707 814.755 458.707H767.747C764.997 458.707 762.454 459.944 760.646 461.985L738.204 487.329C736.408 489.357 735.456 492.031 735.456 494.748V555.366C735.456 558.083 736.408 560.757 738.204 562.785L760.646 588.129C762.454 590.17 764.997 591.407 767.747 591.407H801.112V621.914H781.39V617.695C781.39 612.174 777.344 606.998 771.541 606.998H745.305C739.502 606.998 735.456 612.174 735.456 617.695V636.897C735.456 639.614 736.408 642.288 738.204 644.316L760.646 669.66C762.454 671.701 764.997 672.938 767.747 672.938H814.755C817.505 672.938 820.048 671.701 821.856 669.66L844.297 644.316C846.093 642.288 847.046 639.613 847.046 636.897V576.29C847.046 573.564 846.087 570.882 844.281 568.852L821.848 543.642C820.042 541.612 817.505 540.383 814.765 540.383H781.39V509.876H801.112V513.949C801.112 519.471 805.158 524.647 810.96 524.647H837.197C843 524.647 847.046 519.471 847.046 513.949V494.748C847.046 492.031 846.093 489.357 844.297 487.329L821.856 461.985ZM781.391 540.714C781.391 540.714 781.39 540.713 781.39 540.712L781.391 540.714ZM781.391 509.545C781.391 509.545 781.391 509.546 781.39 509.547L781.391 509.545ZM801.111 509.545C801.111 509.545 801.111 509.545 801.111 509.547L801.111 509.545Z" fill="#F4F4F4" stroke="#313131" stroke-width="6.56559"/>
<path d="M902.234 449.807C899.483 449.807 896.94 451.047 895.133 453.09L872.691 478.469C870.895 480.499 869.944 483.176 869.944 485.894V628.22C869.944 630.955 870.907 633.648 872.724 635.682L895.147 660.793C896.953 662.814 899.482 664.038 902.216 664.038H949.262C951.996 664.038 954.525 662.814 956.33 660.793L978.753 635.682C980.57 633.648 981.533 630.955 981.533 628.22V594.221C981.533 588.698 977.492 583.513 971.685 583.513H945.448C939.641 583.513 935.6 588.698 935.6 594.221V613.242H915.878V501.038H935.6V519.914C935.6 525.437 939.641 530.622 945.448 530.622H971.685C977.492 530.622 981.533 525.437 981.533 519.914V485.894C981.533 483.176 980.582 480.499 978.787 478.469L956.345 453.09C954.538 451.047 951.995 449.807 949.243 449.807H902.234ZM915.879 500.71C915.879 500.71 915.879 500.71 915.878 500.712L915.879 500.71ZM935.599 500.71C935.599 500.71 935.599 500.71 935.599 500.712L935.599 500.71Z" fill="#F4F4F4" stroke="#313131" stroke-width="6.56559"/>
<path d="M1221.06 433.307L1221.06 433.307L1198.62 458.651C1196.83 460.679 1195.87 463.353 1195.87 466.07V485.272C1195.87 490.793 1199.92 495.969 1205.72 495.969H1232.09C1237.89 495.969 1241.93 490.793 1241.93 485.272V481.053H1261.53V511.56H1245.22C1239.41 511.56 1235.37 516.736 1235.37 522.258V551.887C1235.37 557.408 1239.41 562.584 1245.22 562.584H1261.53V593.091H1241.93V589.017C1241.93 583.496 1237.89 578.32 1232.09 578.32H1203.16C1197.35 578.32 1193.31 583.496 1193.31 589.017V605.187C1193.31 607.896 1194.25 610.563 1196.04 612.589L1221.06 640.965C1222.86 643.016 1225.41 644.26 1228.17 644.26H1275.3C1278.05 644.26 1280.59 643.023 1282.4 640.982L1304.84 615.638C1306.64 613.61 1307.59 610.936 1307.59 608.219V560.94C1307.59 558.21 1306.63 555.525 1304.82 553.494L1292.97 540.203C1291.5 538.553 1291.49 535.718 1292.96 534.06L1304.84 520.639C1306.64 518.611 1307.59 515.937 1307.59 513.22V466.07C1307.59 463.353 1306.64 460.679 1304.84 458.651L1282.4 433.307C1280.59 431.266 1278.05 430.029 1275.3 430.029H1228.16C1225.41 430.029 1222.87 431.266 1221.06 433.307ZM1261.53 480.722C1261.53 480.722 1261.53 480.723 1261.53 480.724L1261.53 480.722Z" fill="#F4F4F4" stroke="#313131" stroke-width="6.56559"/>
<path d="M1184.25 633.563C1184.25 639.084 1180.21 644.26 1174.41 644.26H1082.51C1076.71 644.26 1072.66 639.084 1072.66 633.563V547.612C1072.66 544.886 1073.62 542.204 1075.43 540.174L1097.86 514.964C1099.67 512.934 1102.2 511.705 1104.95 511.705H1138.32V481.198H1118.6V485.272C1118.6 490.793 1114.55 495.969 1108.75 495.969H1082.51C1076.71 495.969 1072.66 490.793 1072.66 485.272V466.07C1072.66 463.353 1073.62 460.679 1075.41 458.651L1097.85 433.307L1097.85 433.307L1100.31 435.484C1101.54 434.093 1103.21 433.312 1104.96 433.312H1151.96C1153.71 433.312 1155.38 434.093 1156.61 435.484L1179.05 460.827C1180.28 462.218 1180.97 464.104 1180.97 466.07V526.688C1180.97 528.654 1180.28 530.54 1179.05 531.931L1156.61 557.274C1155.38 558.665 1153.71 559.446 1151.96 559.446H1117.94C1116.49 559.446 1115.32 560.774 1115.32 562.412V593.553C1115.32 595.191 1116.49 596.519 1117.94 596.519H1174.41C1178.03 596.519 1180.97 599.838 1180.97 603.933V633.563C1180.97 637.658 1178.03 640.977 1174.41 640.977H1082.51C1078.89 640.977 1075.95 637.658 1075.95 633.563V547.612C1075.95 545.639 1076.64 543.748 1077.88 542.356L1100.31 517.147C1101.54 515.764 1103.21 514.988 1104.95 514.988H1138.98C1140.43 514.988 1141.6 513.66 1141.6 512.022V480.881C1141.6 479.243 1140.43 477.915 1138.98 477.915H1117.94C1116.49 477.915 1115.32 479.243 1115.32 480.881V485.272C1115.32 489.367 1112.38 492.686 1108.75 492.686H1082.51C1078.89 492.686 1075.95 489.367 1075.95 485.272V466.07C1075.95 464.104 1076.64 462.218 1077.87 460.827L1184.25 633.563ZM1184.25 633.563V603.933C1184.25 598.412 1180.21 593.236 1174.41 593.236H1118.6L1184.25 633.563ZM1118.6 480.867C1118.6 480.867 1118.6 480.868 1118.6 480.869L1118.6 480.867ZM1138.32 512.035C1138.32 512.035 1138.32 512.035 1138.32 512.034L1138.32 512.035Z" fill="#F4F4F4" stroke="#313131" stroke-width="6.56559"/>
<path d="M1047.44 522.275C1052.88 522.275 1057.29 517.866 1057.29 512.426V486.19C1057.29 480.751 1052.88 476.341 1047.44 476.341H1044.21V459.676C1044.21 454.412 1037.84 451.776 1034.12 455.498L1014.24 475.38L1016.56 477.701L1014.24 475.38C1012.39 477.227 1011.35 479.732 1011.35 482.344V512.426C1011.35 517.866 1015.76 522.275 1021.2 522.275H1047.44Z" fill="#F4F4F4" stroke="#313131" stroke-width="6.56559"/>
<path d="M1312.81 789.385C1299.5 790.335 1300.6 787.172 1287.29 788.122L1297 804.638L1303.22 810.051L1312.81 789.385Z" fill="#94B259" stroke="#303131" stroke-width="3.19035" stroke-linecap="round" stroke-linejoin="round"/>
<path d="M1231.86 696.913L1326.71 706.819L1347.96 678.592L1340.84 672.282C1340.84 672.282 1308.28 677.179 1303.43 672.895L1298.75 665.855L1292.53 660.442L1290.87 659.11C1290.09 658.474 1289.22 657.953 1288.29 657.519C1286 656.856 1283.97 656.889 1282.92 656.977C1281.62 657.066 1279.27 657.244 1276.95 658.785C1276.11 659.338 1275.21 660.122 1272.93 663.578C1270.44 667.323 1270.04 668.6 1268.5 670.923C1267.64 672.229 1266.39 674.465 1264.63 676.324C1263.64 677.341 1262.25 677.952 1260.8 678.07C1247.49 679.021 1233.31 679.682 1220 680.604L1222.84 682.89L1229.06 688.303L1231.86 696.913Z" fill="#94B259" stroke="#303131" stroke-width="3.19035" stroke-linecap="round" stroke-linejoin="round"/>
<path d="M1170.44 670.274L1171.61 674.391C1173.88 676.881 1176.75 679.168 1180.87 680.495C1184.5 681.649 1185.51 680.951 1202.39 680.662C1209.67 680.534 1215.68 680.582 1219.59 680.634C1219.62 680.924 1227.17 687.408 1227.17 687.408L1219.6 701.864L1097.07 815.152L1089.23 807.885C1089.1 801.04 1088.98 794.747 1089.06 790.918C1089.24 781.579 1089.35 776.909 1091.41 774.063C1094.62 769.65 1097.9 771.268 1103.6 765.545C1105.46 763.686 1108.64 760.403 1110.02 755.093C1110.46 753.381 1111.95 747.317 1108.7 741.261C1107.01 738.131 1105.15 738.831 1103.79 737.876L1096.21 731.131L1096.13 684.436C1101.03 684.572 1108.02 684.619 1116.43 684.141C1127.37 683.542 1132.82 683.243 1136.61 681.7C1150.47 676.05 1150.94 662.302 1159.09 662.288L1159.73 662.287C1160.68 662.286 1161.61 662.603 1162.4 663.182L1162.86 663.529L1170.44 670.274Z" fill="#8F209A" stroke="#303131" stroke-width="3.19035" stroke-linecap="round" stroke-linejoin="round"/>
<path d="M1346.06 741.91C1345.86 742.288 1346 742.751 1346.09 742.954C1346.38 743.795 1347.14 744.229 1347.63 744.518C1349.6 745.675 1350.59 746.282 1351.08 746.687C1351.96 747.44 1352.8 748.164 1353.5 749.381C1353.76 749.844 1353.99 750.395 1354.57 750.655C1355.07 750.857 1355.79 750.856 1356.2 750.449C1356.66 749.956 1356.45 749.173 1356.31 748.564C1356.19 748.042 1355.93 747.375 1355.29 746.564C1355.03 746.246 1354.71 745.898 1352.94 744.567C1352.18 744.017 1352.53 744.278 1350.24 742.657C1349.22 741.934 1348.9 741.702 1348.35 741.558C1347.65 741.357 1346.44 741.272 1346.06 741.91Z" fill="#B0A8CF" stroke="#303131" stroke-width="3.19035" stroke-linecap="round" stroke-linejoin="round"/>
<path d="M1122.75 803.653C1123.19 822.127 1123.47 835.439 1123.39 837.614C1123.39 837.875 1123.33 838.833 1123.8 839.963C1123.94 840.34 1124.52 841.673 1126.01 842.628C1126.93 843.235 1127.81 843.379 1129.55 843.695C1132.24 844.154 1134.24 844.006 1135.46 843.801C1136.51 843.625 1137.03 843.566 1137.49 843.217C1138.8 842.316 1139.11 840.314 1138.33 838.866C1137.57 837.417 1135.83 836.84 1134.35 836.32C1132.96 835.829 1132.81 836.061 1132.23 835.743C1130.46 834.76 1130.95 831.975 1131.05 826C1131.08 824.492 1131.03 826.493 1131.01 818.315C1131.01 814.805 1131 813.007 1131.03 811.702C1131.08 809.7 1131.17 806.829 1131.45 803.377" fill="#EB93F4"/>
<path d="M1122.75 803.653C1123.19 822.127 1123.47 835.439 1123.39 837.614C1123.39 837.875 1123.33 838.833 1123.8 839.963C1123.94 840.34 1124.52 841.673 1126.01 842.628C1126.93 843.235 1127.81 843.379 1129.55 843.695C1132.24 844.154 1134.24 844.006 1135.46 843.801C1136.51 843.625 1137.03 843.566 1137.49 843.217C1138.8 842.316 1139.11 840.314 1138.33 838.866C1137.57 837.417 1135.83 836.84 1134.35 836.32C1132.96 835.829 1132.81 836.061 1132.23 835.743C1130.46 834.76 1130.95 831.975 1131.05 826C1131.08 824.492 1131.03 826.493 1131.01 818.315C1131.01 814.805 1131 813.007 1131.03 811.702C1131.08 809.7 1131.17 806.829 1131.45 803.377" stroke="#303131" stroke-width="3.19035" stroke-linecap="round" stroke-linejoin="round"/>
<path d="M1189.92 804.585C1190.33 822.102 1190.61 834.747 1190.53 836.806C1190.53 837.038 1190.47 837.967 1190.91 839.01C1191.05 839.358 1191.61 840.633 1193 841.559C1193.9 842.137 1194.71 842.281 1196.37 842.568C1198.92 842.999 1200.83 842.851 1201.97 842.675C1202.95 842.528 1203.44 842.44 1203.91 842.121C1205.12 841.249 1205.44 839.363 1204.71 838.001C1203.99 836.639 1202.33 836.062 1200.94 835.571C1199.6 835.109 1199.49 835.341 1198.94 835.023C1197.25 834.069 1197.71 831.458 1197.82 825.773C1197.85 824.323 1197.79 826.237 1197.78 818.493C1197.77 815.158 1197.77 813.476 1197.8 812.2C1197.85 810.285 1197.93 807.588 1198.19 804.31" fill="#EB93F4"/>
<path d="M1189.92 804.585C1190.33 822.102 1190.61 834.747 1190.53 836.806C1190.53 837.038 1190.47 837.967 1190.91 839.01C1191.05 839.358 1191.61 840.633 1193 841.559C1193.9 842.137 1194.71 842.281 1196.37 842.568C1198.92 842.999 1200.83 842.851 1201.97 842.675C1202.95 842.528 1203.44 842.44 1203.91 842.121C1205.12 841.249 1205.44 839.363 1204.71 838.001C1203.99 836.639 1202.33 836.062 1200.94 835.571C1199.6 835.109 1199.49 835.341 1198.94 835.023C1197.25 834.069 1197.71 831.458 1197.82 825.773C1197.85 824.323 1197.79 826.237 1197.78 818.493C1197.77 815.158 1197.77 813.476 1197.8 812.2C1197.85 810.285 1197.93 807.588 1198.19 804.31" stroke="#303131" stroke-width="3.19035" stroke-linecap="round" stroke-linejoin="round"/>
<path d="M1256.48 803.981C1256.11 821.963 1255.87 834.928 1255.96 837.045C1255.96 837.306 1256.02 838.234 1255.59 839.308C1255.44 839.686 1254.89 840.992 1253.44 841.922C1252.55 842.504 1251.68 842.65 1249.99 842.943C1247.36 843.411 1245.44 843.241 1244.25 843.069C1243.24 842.925 1242.71 842.839 1242.25 842.521C1241 841.624 1240.68 839.681 1241.43 838.288C1242.18 836.894 1243.86 836.282 1245.28 835.787C1246.65 835.292 1246.79 835.552 1247.34 835.233C1249.05 834.244 1248.49 826.211 1248.47 818.264C1248.47 814.841 1248.47 813.101 1248.43 811.825C1248.37 809.882 1248.28 807.098 1248.02 803.734" fill="#E9FFC5"/>
<path d="M1256.48 803.981C1256.11 821.963 1255.87 834.928 1255.96 837.045C1255.96 837.306 1256.02 838.234 1255.59 839.308C1255.44 839.686 1254.89 840.992 1253.44 841.922C1252.55 842.504 1251.68 842.65 1249.99 842.943C1247.36 843.411 1245.44 843.241 1244.25 843.069C1243.24 842.925 1242.71 842.839 1242.25 842.521C1241 841.624 1240.68 839.681 1241.43 838.288C1242.18 836.894 1243.86 836.282 1245.28 835.787C1246.65 835.292 1246.79 835.552 1247.34 835.233C1249.05 834.244 1248.49 826.211 1248.47 818.264C1248.47 814.841 1248.47 813.101 1248.43 811.825C1248.37 809.882 1248.28 807.098 1248.02 803.734" stroke="#303131" stroke-width="3.19035" stroke-linecap="round" stroke-linejoin="round"/>
<path d="M1325.57 805.896C1325.23 822.718 1325.01 834.842 1325.07 836.814C1325.08 837.046 1325.13 837.916 1324.7 838.932C1324.56 839.28 1324.04 840.499 1322.68 841.372C1321.83 841.924 1321.02 842.07 1319.43 842.334C1316.96 842.773 1315.17 842.631 1314.06 842.459C1313.11 842.316 1312.61 842.258 1312.21 841.94C1311.02 841.101 1310.72 839.303 1311.42 837.997C1312.11 836.691 1313.68 836.137 1315.04 835.671C1316.31 835.233 1316.43 835.436 1316.95 835.145C1318.54 834.244 1318.01 826.704 1318 819.279C1317.99 816.088 1317.99 814.464 1317.96 813.246C1317.93 811.419 1317.81 808.838 1317.57 805.677" fill="#E9FFC5"/>
<path d="M1325.57 805.896C1325.23 822.718 1325.01 834.842 1325.07 836.814C1325.08 837.046 1325.13 837.916 1324.7 838.932C1324.56 839.28 1324.04 840.499 1322.68 841.372C1321.83 841.924 1321.02 842.07 1319.43 842.334C1316.96 842.773 1315.17 842.631 1314.06 842.459C1313.11 842.316 1312.61 842.258 1312.21 841.94C1311.02 841.101 1310.72 839.303 1311.42 837.997C1312.11 836.691 1313.68 836.137 1315.04 835.671C1316.31 835.233 1316.43 835.436 1316.95 835.145C1318.54 834.244 1318.01 826.704 1318 819.279C1317.99 816.088 1317.99 814.464 1317.96 813.246C1317.93 811.419 1317.81 808.838 1317.57 805.677" stroke="#303131" stroke-width="3.19035" stroke-linecap="round" stroke-linejoin="round"/>
<path d="M1098.66 686.838L1104.87 692.252" stroke="#303131" stroke-width="3.19035" stroke-linecap="round" stroke-linejoin="round"/>
<path d="M1344.12 727.585C1340.55 722.776 1343.67 719.349 1343.9 699.452" stroke="#303131" stroke-width="3.19035" stroke-linecap="round" stroke-linejoin="round"/>
<path d="M1132.73 807.812C1144.7 803.036 1145.53 791.955 1152.95 791.827C1158.06 791.731 1160.59 795.381 1162.8 799.235C1165.01 803.089 1169.78 812.565 1173.49 813.226C1180.98 814.519 1218.58 807.669 1218.58 807.669C1218.58 807.669 1218.64 805.204 1218.69 801.462C1218.82 791.746 1218.73 791.485 1218.84 787.541C1219.03 780.405 1219.28 775.039 1219.28 775.039C1219.56 769.035 1219.76 767.208 1218.51 765.122C1216.97 762.543 1215.17 762.836 1211.63 760.145C1209.34 758.408 1203.96 754.299 1203.49 748.441C1202.99 742.38 1208.05 737.586 1209.21 736.482C1211.91 733.954 1213.36 734.097 1215.44 732.382C1220.31 728.43 1220.41 720.976 1220.4 712.333C1220.35 703.313 1220.17 695.105 1219.89 687.826L1132.73 807.812Z" fill="#8F209A" stroke="#303131" stroke-width="3.19035" stroke-linecap="round" stroke-linejoin="round"/>
<path d="M1103.74 691.18L1103.82 737.904L1110.96 742.069C1112.32 743.024 1114.62 744.934 1116.31 748.064C1119.56 754.12 1118.1 760.155 1117.63 761.896C1116.25 767.177 1113.07 770.46 1111.21 772.348C1105.51 778.071 1102.23 776.452 1099.02 780.866C1096.96 783.712 1096.85 788.382 1096.67 797.721C1096.59 801.55 1096.71 807.843 1096.84 814.688C1096.67 816.805 1112.94 815.879 1119.38 815.897C1135.24 815.958 1137.27 815.838 1140.32 814.615C1152.29 809.839 1153.11 798.758 1160.53 798.63C1170.71 798.439 1170.71 813.259 1178.16 814.552C1185.65 815.845 1226.16 814.472 1226.16 814.472C1226.16 814.472 1226.22 812.007 1226.27 808.265C1226.4 798.549 1226.31 798.288 1226.42 794.344C1226.61 787.208 1226.86 781.842 1226.86 781.842C1227.14 775.838 1227.34 774.011 1226.09 771.925C1224.55 769.346 1222.75 769.639 1219.21 766.947C1216.92 765.211 1211.55 761.102 1211.07 755.244C1210.57 749.183 1215.64 744.389 1216.79 743.285C1219.49 740.757 1220.94 740.9 1223.02 739.185C1227.89 735.232 1227.99 727.778 1227.98 719.136C1227.93 707.041 1227.59 696.398 1227.17 687.436C1223.23 687.385 1217.25 687.337 1209.97 687.465C1193.09 687.725 1192.08 688.452 1188.45 687.298C1175.25 683.056 1174.79 669.078 1166.67 669.091C1158.55 669.105 1158.08 682.853 1144.19 688.503C1140.43 690.046 1134.95 690.345 1124.01 690.943C1115.6 691.364 1108.61 691.317 1103.74 691.18Z" fill="#DB3FEB" stroke="#303131" stroke-width="3.19035" stroke-linecap="round" stroke-linejoin="round"/>
<path d="M1188.47 749.534C1186.88 750.93 1184.46 750.77 1183.06 749.178C1181.67 747.585 1181.82 745.163 1183.42 743.767C1185.01 742.371 1187.43 742.531 1188.83 744.123C1190.22 745.715 1190.06 748.138 1188.47 749.534Z" fill="#303131"/>
<path d="M1157.95 750.846C1156.32 752.12 1153.97 751.832 1152.7 750.203C1151.42 748.574 1151.71 746.22 1153.34 744.946C1154.97 743.672 1157.32 743.959 1158.6 745.589C1159.87 747.218 1159.58 749.571 1157.95 750.846Z" fill="#303131"/>
<path d="M1172.73 750.998C1172.73 750.998 1174.42 754.263 1173.62 754.897C1172.81 755.528 1170.96 755.678 1170.96 755.678" stroke="#303131" stroke-width="3.19035" stroke-linecap="round" stroke-linejoin="round"/>
<path d="M1144.57 741.008C1145.31 739.488 1146.88 736.822 1149.77 734.886C1152.49 733.06 1155.14 732.715 1156.65 732.658" stroke="#303131" stroke-width="3.48038" stroke-linecap="round" stroke-linejoin="round"/>
<path d="M1195.65 735.033C1194.51 733.951 1192.27 732.142 1189.12 731.391C1186.15 730.683 1183.72 731.238 1182.38 731.677" stroke="#303131" stroke-width="3.48038" stroke-linecap="round" stroke-linejoin="round"/>
<path d="M1226.45 814.298C1229.21 814.293 1236.66 814.252 1247.22 814.205C1257.37 814.159 1262.53 814.064 1265.95 811.912C1269.17 809.847 1271.25 805.058 1274.61 800.122C1278.08 796.085 1282.4 794.714 1287.16 794.707C1290.87 794.584 1294.2 795.681 1297.87 799.329C1302.92 804.396 1301.19 808.895 1305.34 811.179C1308.24 812.769 1311.06 812.939 1313.84 813.021C1325.47 813.292 1338.29 811.849 1344.58 811.027C1345.16 795.828 1342.84 777.473 1347.26 766.357C1347.26 766.357 1353 765.304 1356.65 762.571C1361.49 758.967 1362.2 750.7 1362.23 750.207C1362.21 736.546 1353.25 737.866 1350.34 733.927C1346.76 729.118 1349.89 725.69 1350.12 705.794C1350.19 698.804 1349.87 694.077 1349.63 691.38C1349.16 686.015 1348.45 681.579 1347.93 678.621C1335.17 678.846 1314.49 683.55 1309.64 679.265C1307.99 677.789 1306.65 675.993 1306.65 675.993C1306.45 675.732 1306.13 675.298 1304.79 673.415C1302.38 669.996 1302.32 669.764 1301.59 668.866C1300.87 667.998 1299.76 666.636 1298.05 665.508C1294.56 663.194 1290.74 663.229 1289.2 663.347C1287.89 663.437 1285.54 663.615 1283.23 665.156C1282.39 665.708 1281.49 666.493 1279.2 669.948C1276.72 673.693 1276.31 674.97 1274.78 677.293C1273.91 678.6 1272.67 680.255 1270.9 682.114C1269.92 683.131 1268.52 683.742 1267.07 683.861C1253.76 684.811 1240.45 685.761 1227.14 686.682C1227.11 703.33 1227.05 719.978 1227.02 736.626C1224.88 737.123 1221.28 738.202 1217.86 740.992C1216.76 741.893 1209.49 747.793 1210.32 755.361C1211.05 762.089 1217.94 768.168 1227.22 769.109L1226.45 814.298Z" fill="#C2FA67" stroke="#303131" stroke-width="3.19035" stroke-linecap="round" stroke-linejoin="round"/>
<path d="M1098.42 685.824L1102.99 690.776" stroke="#303131" stroke-width="3.19035" stroke-linecap="round" stroke-linejoin="round"/>
<path d="M1161.4 763.534C1161.4 763.534 1163.67 766.17 1168.08 765.93C1172.49 765.662 1175.55 762.437 1175.55 762.437" stroke="#303131" stroke-width="3.19035" stroke-linecap="round" stroke-linejoin="round"/>
<path d="M1108.63 700.047C1108.37 700.947 1108.28 701.73 1108.29 705.588C1108.29 708.43 1108.35 708.053 1108.29 708.517C1108.15 710.315 1107.8 711.157 1108.3 712.258C1108.42 712.49 1108.82 713.447 1109.49 713.475C1110.1 713.503 1110.59 712.719 1110.79 712.37C1111.55 711.093 1111.49 709.846 1111.34 706.859C1111.31 706.134 1111.19 703.785 1111.53 701.029C1111.61 700.333 1111.79 699.549 1112.4 699.026C1112.68 698.765 1113.06 698.648 1114.95 698.529C1116.95 698.409 1117.5 698.496 1118.05 698.002C1118.4 697.711 1118.74 697.159 1118.63 696.637C1118.6 696.463 1118.45 696.116 1117.64 695.711C1116.1 694.959 1114.56 695.165 1113.93 695.253C1113.32 695.341 1112.39 695.488 1111.38 696.098C1110.48 696.622 1109.96 697.261 1109.81 697.464C1109.52 697.871 1109 698.597 1108.63 700.047Z" fill="#CB9BC6"/>
<path d="M1110.11 719.738C1110 720.434 1109.42 721.305 1108.72 721.278C1108.02 721.221 1107.59 720.322 1107.56 719.626C1107.53 718.669 1108.28 717.595 1109 717.681C1109.7 717.709 1110.25 718.839 1110.11 719.738Z" fill="#CB9BC6"/>
<path d="M1221.59 787.188C1221.48 787.884 1220.9 788.755 1220.2 788.727C1219.51 788.671 1219.07 787.772 1219.04 787.076C1219.01 786.119 1219.76 785.045 1220.49 785.13C1221.18 785.158 1221.74 786.289 1221.59 787.188Z" fill="#CB9BC6"/>
<path d="M1212.75 769.568C1212.49 769.917 1212.58 770.381 1212.63 770.613C1212.81 771.482 1213.51 772.032 1213.94 772.38C1215.74 773.798 1216.67 774.521 1217.08 774.985C1217.51 775.448 1218.59 776.461 1219.11 777.998C1219.96 780.432 1218.83 782.262 1219.73 782.84C1220.22 783.158 1220.95 782.896 1221.38 782.605C1222.69 781.675 1222.28 779.181 1222.01 777.558C1221.81 776.398 1221.4 775.645 1221.26 775.442C1221.05 775.094 1220.79 774.717 1219.16 773.125C1218.5 772.459 1218.79 772.778 1216.75 770.867C1215.82 769.998 1215.56 769.738 1215.01 769.535C1214.37 769.247 1213.18 768.987 1212.75 769.568Z" fill="#CB9BC6"/>
<path d="M1240.49 693.621C1241.39 693.358 1242.15 693.27 1245.97 693.263C1248.79 693.259 1248.41 693.317 1248.88 693.259C1250.64 693.111 1251.48 692.761 1252.59 693.252C1252.82 693.368 1253.75 693.802 1253.78 694.469C1253.81 695.107 1253.03 695.601 1252.71 695.804C1251.43 696.59 1250.21 696.505 1247.26 696.365C1246.53 696.337 1244.21 696.225 1241.48 696.606C1240.82 696.694 1240.04 696.87 1239.54 697.48C1239.31 697.799 1239.17 698.147 1239.05 700.062C1238.94 702.092 1239.03 702.643 1238.57 703.195C1238.28 703.543 1237.73 703.921 1237.23 703.806C1237.06 703.777 1236.71 703.633 1236.3 702.793C1235.55 701.257 1235.75 699.661 1235.83 699.023C1235.92 698.414 1236.06 697.485 1236.67 696.44C1237.19 695.54 1237.83 694.988 1238 694.843C1238.38 694.552 1239.07 694.029 1240.49 693.621Z" fill="#E7EEB4"/>
<path d="M1257.96 695.593C1257.26 695.536 1256.33 695.045 1256.33 694.349C1256.3 693.653 1257.17 693.1 1257.87 693.012C1258.79 692.895 1259.93 693.531 1259.93 694.256C1259.9 694.981 1258.86 695.65 1257.96 695.593Z" fill="#E7EEB4"/>
<path d="M1335.49 801.761C1335.69 800.861 1335.74 800.078 1335.56 796.192C1335.44 793.35 1335.41 793.727 1335.41 793.263C1335.47 791.465 1335.79 790.594 1335.23 789.522C1335.12 789.29 1334.65 788.363 1333.98 788.364C1333.38 788.365 1332.91 789.178 1332.74 789.526C1332.05 790.832 1332.16 792.079 1332.46 795.066C1332.52 795.791 1332.75 798.14 1332.53 800.925C1332.47 801.621 1332.35 802.404 1331.75 802.956C1331.46 803.218 1331.11 803.363 1329.22 803.57C1327.22 803.776 1326.67 803.719 1326.15 804.242C1325.83 804.561 1325.49 805.113 1325.63 805.635C1325.69 805.809 1325.83 806.156 1326.68 806.532C1328.24 807.226 1329.78 806.933 1330.42 806.816C1331 806.699 1331.93 806.523 1332.94 805.855C1333.81 805.273 1334.3 804.634 1334.45 804.431C1334.71 803.966 1335.17 803.241 1335.49 801.761Z" fill="#E7EEB4"/>
<path d="M1333.72 784.913C1333.02 784.856 1332.09 784.365 1332.09 783.669C1332.06 782.973 1332.93 782.42 1333.63 782.332C1334.55 782.214 1335.69 782.851 1335.69 783.576C1335.66 784.301 1334.62 784.97 1333.72 784.913Z" fill="#E7EEB4"/>
<path d="M1359.75 775.385C1361.32 779.008 1361.84 781.647 1362.05 782.719C1362.46 784.952 1362.37 786.025 1362.32 786.576C1362.2 787.621 1362 789.245 1360.76 790.814C1360.12 791.627 1359.08 793.021 1357.43 793.139C1356.01 793.229 1354.99 792.302 1354.9 792.244C1354.15 791.55 1353.91 790.68 1353.83 790.303C1353.71 789.868 1353.71 789.23 1353.73 787.954C1353.76 787.258 1353.76 786.794 1353.79 786.272C1353.82 785.75 1353.85 785.372 1353.88 785.314C1354.19 782.036 1352.56 777.66 1352.56 777.66C1351.33 774.355 1349.65 771.719 1349.65 771.719C1348.51 769.952 1347.55 768.88 1347.96 767.835C1348.22 767.168 1348.91 766.819 1350.3 766.149C1351.7 765.451 1352.39 765.131 1353.06 765.187C1354.1 765.244 1354.86 766.142 1357.27 770.575C1358.55 772.98 1359.22 774.197 1359.75 775.385Z" fill="#E9FFC5" stroke="#303131" stroke-width="3.19035" stroke-linecap="round" stroke-linejoin="round"/>
<path d="M1109 784.359C1109.96 786.649 1110.43 787.779 1110.98 788.793C1112.61 791.894 1114.12 793.689 1114.76 794.414C1116.07 795.919 1116.85 796.469 1117.26 796.73C1118.04 797.221 1119.26 797.973 1121.03 797.97C1121.93 797.969 1123.46 797.995 1124.45 796.892C1125.29 795.933 1125.23 794.715 1125.2 794.628C1125.14 793.7 1124.67 793.092 1124.47 792.802C1124.24 792.484 1123.8 792.136 1122.9 791.442C1122.41 791.065 1122.09 790.834 1121.71 790.573C1121.33 790.313 1121.04 790.14 1121.02 790.111C1118.61 788.548 1116.48 784.985 1116.48 784.985C1114.88 782.29 1113.98 779.681 1113.98 779.681" fill="#EB93F4"/>
<path d="M1109 784.359C1109.96 786.649 1110.43 787.779 1110.98 788.793C1112.61 791.894 1114.12 793.689 1114.76 794.414C1116.07 795.919 1116.85 796.469 1117.26 796.73C1118.04 797.221 1119.26 797.973 1121.03 797.97C1121.93 797.969 1123.46 797.995 1124.45 796.892C1125.29 795.933 1125.23 794.715 1125.2 794.628C1125.14 793.7 1124.67 793.092 1124.47 792.802C1124.24 792.484 1123.8 792.136 1122.9 791.442C1122.41 791.065 1122.09 790.834 1121.71 790.573C1121.33 790.313 1121.04 790.14 1121.02 790.111C1118.61 788.548 1116.48 784.985 1116.48 784.985C1114.88 782.29 1113.98 779.681 1113.98 779.681" stroke="#303131" stroke-width="3.19035" stroke-linecap="round" stroke-linejoin="round"/>
<path d="M1265.5 746.389C1267.09 747.779 1269.52 747.612 1270.91 746.015C1272.3 744.418 1272.13 741.996 1270.53 740.605C1268.94 739.215 1266.51 739.382 1265.12 740.979C1263.73 742.576 1263.9 744.998 1265.5 746.389Z" fill="#303131"/>
<path d="M1296.02 747.599C1297.65 748.867 1300.01 748.572 1301.27 746.938C1302.54 745.305 1302.25 742.952 1300.61 741.683C1298.98 740.415 1296.63 740.71 1295.36 742.344C1294.09 743.977 1294.39 746.33 1296.02 747.599Z" fill="#303131"/>
<path d="M1282.17 743.554C1282.17 743.554 1279.56 751.071 1280.37 751.703C1281.18 752.331 1283.03 752.475 1283.03 752.475" stroke="#303131" stroke-width="3.19035" stroke-linecap="round" stroke-linejoin="round"/>
<path d="M1310.17 734.85C1309.43 733.332 1307.85 730.671 1304.96 728.744C1302.23 726.928 1299.58 726.591 1298.07 726.54" stroke="#303131" stroke-width="3.48038" stroke-linecap="round" stroke-linejoin="round"/>
<path d="M1259.96 727.896C1261.09 726.81 1263.33 724.993 1266.48 724.232C1269.44 723.514 1271.87 724.061 1273.22 724.496" stroke="#303131" stroke-width="3.48038" stroke-linecap="round" stroke-linejoin="round"/>
<path d="M1295.55 758.197C1295.01 757.282 1291.29 759.298 1285.68 760.122C1279.52 761.03 1276.54 759.7 1275.58 760.856C1274.68 761.944 1276.53 764.064 1278.27 765.001C1278.5 765.124 1279.47 765.622 1281.01 765.855C1282.34 766.059 1283.49 765.965 1283.96 765.921C1284.62 765.853 1285.83 765.684 1287.32 765.16C1290.75 763.955 1292.93 761.831 1293.42 761.334C1294.5 760.245 1295.92 758.82 1295.55 758.197Z" fill="#94B259" stroke="#303131" stroke-width="3.19035" stroke-linecap="round" stroke-linejoin="round"/>
</g>
<rect x="1470.51" y="44.6813" width="996.793" height="1413.11" transform="rotate(90 1470.51 44.6813)" stroke="black" stroke-width="1.97776"/>
<path fill-rule="evenodd" clip-rule="evenodd" d="M4 18.9704C4 10.7783 10.6411 4.13721 18.8332 4.13721H1501.17C1509.36 4.13721 1516 10.7782 1516 18.9704V1081.03C1516 1089.22 1509.36 1095.86 1501.17 1095.86H18.8332C10.6411 1095.86 4 1089.22 4 1081.03V18.9704ZM67.6074 56.1241C59.4153 56.1241 52.7742 62.7652 52.7742 70.9574V1029.04C52.7742 1037.23 59.4152 1043.88 67.6074 1043.88H1452.39C1460.58 1043.88 1467.23 1037.23 1467.23 1029.04V70.9574C1467.23 62.7652 1460.58 56.1241 1452.39 56.1241H67.6074Z" fill="#F4F4F4" stroke="#313131" stroke-width="6.92217"/>
<defs>
<filter id="filter0_d_2848_1571" x="-379.686" y="404.635" width="2131.47" height="941.415" filterUnits="userSpaceOnUse" color-interpolation-filters="sRGB">
<feFlood flood-opacity="0" result="BackgroundImageFix"/>
<feColorMatrix in="SourceAlpha" type="matrix" values="0 0 0 0 0 0 0 0 0 0 0 0 0 0 0 0 0 0 127 0" result="hardAlpha"/>
<feOffset dy="-3.95553"/>
<feGaussianBlur stdDeviation="74.1661"/>
<feComposite in2="hardAlpha" operator="out"/>
<feColorMatrix type="matrix" values="0 0 0 0 0.184314 0 0 0 0 0.686275 0 0 0 0 1 0 0 0 0.75 0"/>
<feBlend mode="normal" in2="BackgroundImageFix" result="effect1_dropShadow_2848_1571"/>
<feBlend mode="normal" in="SourceGraphic" in2="effect1_dropShadow_2848_1571" result="shape"/>
</filter>
<filter id="filter1_d_2848_1571" x="961.237" y="5.12624" width="362.92" height="362.92" filterUnits="userSpaceOnUse" color-interpolation-filters="sRGB">
<feFlood flood-opacity="0" result="BackgroundImageFix"/>
<feColorMatrix in="SourceAlpha" type="matrix" values="0 0 0 0 0 0 0 0 0 0 0 0 0 0 0 0 0 0 127 0" result="hardAlpha"/>
<feOffset/>
<feGaussianBlur stdDeviation="49.4441"/>
<feComposite in2="hardAlpha" operator="out"/>
<feColorMatrix type="matrix" values="0 0 0 0 1 0 0 0 0 0.917647 0 0 0 0 0.654902 0 0 0 1 0"/>
<feBlend mode="normal" in2="BackgroundImageFix" result="effect1_dropShadow_2848_1571"/>
<feBlend mode="normal" in="SourceGraphic" in2="effect1_dropShadow_2848_1571" result="shape"/>
</filter>
<filter id="filter2_d_2848_1571" x="147.057" y="227.657" width="815.132" height="165.756" filterUnits="userSpaceOnUse" color-interpolation-filters="sRGB">
<feFlood flood-opacity="0" result="BackgroundImageFix"/>
<feColorMatrix in="SourceAlpha" type="matrix" values="0 0 0 0 0 0 0 0 0 0 0 0 0 0 0 0 0 0 127 0" result="hardAlpha"/>
<feOffset dx="3.95553" dy="3.95553"/>
<feGaussianBlur stdDeviation="1.97776"/>
<feComposite in2="hardAlpha" operator="out"/>
<feColorMatrix type="matrix" values="0 0 0 0 0 0 0 0 0 0 0 0 0 0 0 0 0 0 0.25 0"/>
<feBlend mode="normal" in2="BackgroundImageFix" result="effect1_dropShadow_2848_1571"/>
<feBlend mode="normal" in="SourceGraphic" in2="effect1_dropShadow_2848_1571" result="shape"/>
</filter>
<radialGradient id="paint0_radial_2848_1571" cx="0" cy="0" r="1" gradientUnits="userSpaceOnUse" gradientTransform="translate(2132.57 800.187) rotate(168.084) scale(1008.13 1088.82)">
<stop stop-color="#7ECDFF"/>
<stop offset="1" stop-color="#25ABFF"/>
</radialGradient>
<clipPath id="clip0_2848_1571">
<rect x="1471.5" y="43.6924" width="998.771" height="1415.09" transform="rotate(90 1471.5 43.6924)" fill="white"/>
</clipPath>
</defs>
</svg>
