<svg xmlns="http://www.w3.org/2000/svg" width="1537" height="1116" fill="none" viewBox="0 0 1537 1116"><g clip-path="url(#clip0_2848_1354)"><rect width="1010" height="1431" fill="url(#paint0_linear_2848_1354)" transform="translate(1484 51) rotate(90)"/><g filter="url(#filter0_f_2848_1354)"><circle cx="1300" cy="195" r="144" fill="#FFD13C"/></g><g filter="url(#filter1_f_2848_1354)"><circle cx="213" cy="342" r="144" fill="#FFD13C"/></g><path stroke="#303131" stroke-linecap="round" stroke-linejoin="round" stroke-width="13.605" d="M784.52 1217.21C1195.1 1213.11 1527.31 1145.94 1526.52 1067.18C1525.74 988.429 1192.25 927.911 781.67 932.014C371.087 936.116 38.881 1003.28 39.6679 1082.04C40.4547 1160.79 373.936 1221.31 784.52 1217.21Z"/><path fill="#FFD13C" d="M283.086 936.683C89.6574 971.967 -34.6875 1025.57 -34.0792 1084.46C-33.1224 1185.29 333.551 1263.4 784.859 1258.9C1236.17 1254.4 1601.29 1169.08 1600.33 1068.25C1599.72 1004.73 1453.96 950.223 1233.29 919.723"/><path stroke="#303131" stroke-linecap="round" stroke-linejoin="round" stroke-width="13.605" d="M283.086 936.683C89.6574 971.967 -34.6875 1025.57 -34.0792 1084.46C-33.1225 1185.29 333.551 1263.4 784.859 1258.9C1236.17 1254.4 1601.29 1169.08 1600.33 1068.25C1599.72 1004.73 1453.96 950.223 1233.29 919.722"/><path fill="#303131" d="M275.544 985.253C123.751 1009.23 28.3578 1042.79 28.7519 1079.09C29.425 1146.79 362.777 1198.4 773.336 1194.34C1183.89 1190.28 1516.18 1132.08 1515.59 1064.36C1515.22 1025.93 1407.65 992.67 1239.59 971.847"/><path stroke="#303131" stroke-linecap="round" stroke-linejoin="round" stroke-width="13.605" d="M275.544 985.253C123.751 1009.23 28.3578 1042.79 28.7519 1079.09C29.425 1146.79 362.777 1198.4 773.335 1194.34C1183.89 1190.28 1516.18 1132.08 1515.59 1064.36C1515.22 1025.93 1407.65 992.67 1239.59 971.847"/><path fill="#7A65FD" stroke="#303131" stroke-linecap="round" stroke-linejoin="round" stroke-width="13.605" d="M1178.13 1290.97C1317.78 1059.45 1243.28 758.553 1011.81 618.938C780.34 479.323 479.463 553.9 339.869 785.452C225.887 974.514 269.724 1210.49 383.274 1352.27C435.469 1417.46 491.715 1449.55 506.138 1457.46C685.602 1555.9 1020.64 1552.07 1178.08 1290.94L1178.13 1290.97Z"/><path fill="#B5A9FF" d="M359.812 938.365C347.358 939.437 340.901 931.505 342.439 920.814C350.238 865.906 371.649 820.496 401.924 781.892C418.121 761.218 435.891 742.657 453.273 723.588C456.662 719.874 461.236 717.419 465.526 715.901C477.25 711.768 483.3 718.863 479.187 733.408C474.424 741.396 468.617 747.013 461.551 755.379C443.696 776.515 439.547 779.988 421.478 800.789C401.085 824.212 375.615 870.526 371.52 906.362C369.76 921.826 371.901 929.33 359.963 938.455L359.812 938.365Z"/><path fill="#303131" d="M870.207 1015.52C885.785 1015.96 898.818 1002.06 899.317 984.46C899.815 966.864 887.591 952.241 872.013 951.8C856.435 951.358 843.402 965.265 842.903 982.861C842.404 1000.46 854.629 1015.08 870.207 1015.52Z"/><path fill="#303131" d="M653.207 1016.52C668.785 1016.96 681.818 1003.06 682.317 985.46C682.815 967.864 670.591 953.241 655.013 952.8C639.435 952.358 626.402 966.265 625.903 983.861C625.404 1001.46 637.629 1016.08 653.207 1016.52Z"/><path stroke="#303131" stroke-linecap="round" stroke-linejoin="round" stroke-width="13.605" d="M738.045 1025.29C738.045 1025.29 726.477 1045.33 730.971 1049.09C735.483 1052.83 746.469 1053.53 746.469 1053.53"/><path fill="#B5A9FF" stroke="#303131" stroke-linecap="round" stroke-linejoin="round" stroke-width="13.605" d="M683.023 1092.7C688.52 1083.98 712.632 1098.24 752.728 1099.93C796.657 1101.83 820.78 1086.97 825.988 1096.31C830.834 1105.12 813.714 1125.91 799.299 1136.04C797.395 1137.36 789.445 1142.78 777.711 1146.42C767.525 1149.58 759.206 1149.9 755.838 1149.97C751.107 1150.03 742.411 1149.75 732.286 1146.57C708.957 1139.27 696.383 1122.5 693.575 1118.56C687.41 1109.92 679.309 1098.62 683.023 1092.7Z"/><path fill="#B5A9FF" d="M521.199 681.764C523.018 682.735 523.39 690.727 521.348 695.148C516.213 706.147 502.845 713.142 497.447 708.461C492.427 704.145 487.151 698.563 492.409 689.447C497.973 679.817 510.943 673.353 521.125 681.789L521.199 681.764Z"/><path fill="#443D97" fill-rule="evenodd" d="M1228.67 962.527C1232.78 1210.26 1041.09 1424.41 783.978 1449.89C564.969 1471.59 365.64 1349.74 283.815 1162.51C348.648 1381.59 557.18 1534.81 797.173 1508.11C1066.31 1481.44 1261.84 1275.94 1235.36 1008.69C1233.82 993.164 1231.58 977.763 1228.67 962.527Z" clip-rule="evenodd"/><path fill="#FCD61D" d="M1252.71 1164.91L1253.78 1161.61C1126.99 1191.85 1020.19 1204.1 941.427 1209.31C863.869 1214.46 796.93 1213.86 747.466 1213.39C698.531 1212.95 629.821 1212.19 541.929 1204.9C476.493 1199.46 391.769 1189.63 293.18 1170.85C299.566 1191.31 306.033 1211.75 312.42 1232.21C400.761 1243.85 477.416 1250.52 538.756 1254.48C596.177 1258.18 656.042 1261.96 733.866 1261.1C735.943 1261.1 776.965 1259.86 858.948 1257.48C886.15 1256.7 912.05 1255.91 946.789 1253.27C973.255 1251.29 993.166 1249.07 1004.25 1247.87C1099.07 1237.39 1221.06 1223.42 1234.51 1221.84"/><path stroke="#303131" stroke-linecap="round" stroke-linejoin="round" stroke-width="13.605" d="M1252.71 1164.91L1253.78 1161.61C1126.99 1191.85 1020.19 1204.1 941.427 1209.31C863.869 1214.46 796.93 1213.86 747.466 1213.39C698.531 1212.95 629.821 1212.19 541.929 1204.9C476.493 1199.46 391.769 1189.63 293.18 1170.85C299.566 1191.31 306.033 1211.75 312.42 1232.21C400.761 1243.85 477.416 1250.52 538.756 1254.48C596.177 1258.18 656.042 1261.96 733.866 1261.1C735.943 1261.1 776.965 1259.86 858.948 1257.48C886.15 1256.7 912.05 1255.91 946.789 1253.27C973.255 1251.29 993.166 1249.07 1004.25 1247.87C1099.07 1237.39 1221.06 1223.42 1234.51 1221.84"/><path fill="#B5A9FF" stroke="#303131" stroke-linecap="round" stroke-linejoin="round" stroke-width="13.605" d="M165.745 1129.41C133.51 1113.37 114.457 1098.27 106.807 1091.98C90.8333 1078.8 85.1634 1070.93 82.3122 1066.67C77.1001 1058.72 69.0358 1046.18 68.4771 1027.88C68.1664 1018.44 67.3191 1002.59 78.557 992.088C88.14 983.086 100.679 983.377 101.687 983.425C111.133 983.807 117.73 988.501 120.535 990.518C123.869 992.921 127.728 997.226 134.928 1006.36C138.87 1011.33 141.495 1014.69 144.325 1018.52C147.103 1022.32 149.045 1025.21 149.412 1025.63C166.374 1050.26 203.467 1071.13 203.467 1071.13C231.539 1086.97 258.593 1095.37 258.593 1095.37C262.984 1096.81 269.739 1099.73 274.184 1106.18C278.506 1112.49 277.758 1117.92 278.882 1134.69C280.453 1158.36 282.716 1159.78 280.353 1162.58C273.424 1170.96 250.584 1162.79 211.8 1148.58C195.53 1142.61 182.806 1137.99 165.715 1129.46L165.745 1129.41Z"/><path fill="#B5A9FF" stroke="#303131" stroke-linecap="round" stroke-linejoin="round" stroke-width="13.605" d="M1358.92 1119.35C1392.2 1105.48 1412.22 1091.72 1420.24 1085.92C1437.08 1073.79 1443.21 1066.39 1446.37 1062.26C1452.12 1054.7 1460.99 1042.72 1462.79 1024.52C1463.7 1015.11 1465.62 999.394 1455.14 988.105C1446.17 978.471 1433.65 977.915 1432.69 977.897C1423.27 977.597 1416.35 981.901 1413.39 983.73C1409.91 985.867 1405.75 989.949 1397.97 998.581C1393.71 1003.29 1390.79 1006.46 1387.76 1010.04C1384.69 1013.67 1382.57 1016.41 1382.2 1016.81C1363.62 1040.21 1325.19 1058.54 1325.19 1058.54C1296.11 1072.43 1268.55 1079.01 1268.55 1079.01C1264.08 1080.14 1257.13 1082.63 1252.23 1088.76C1247.51 1094.72 1247.9 1100.2 1245.62 1116.88C1242.47 1140.36 1240.11 1141.65 1242.26 1144.66C1248.6 1153.48 1271.95 1146.88 1311.61 1135.3C1328.26 1130.44 1341.29 1126.67 1358.92 1119.35Z"/><circle cx="760.908" cy="1034.59" r="484.288" stroke="#303131" stroke-width="13.605" transform="rotate(30.8076 760.908 1034.59)"/><path stroke="#303131" stroke-linecap="round" stroke-linejoin="round" stroke-width="13.605" d="M955.127 962.528C949.979 950.868 938.901 930.347 917.725 914.948C897.76 900.431 877.909 897.076 866.54 896.223"/><path stroke="#303131" stroke-linecap="round" stroke-linejoin="round" stroke-width="13.605" d="M568.583 935.843C574.174 925.393 585.89 907.133 606.639 894.274C626.201 882.153 644.886 880.352 655.514 880.309"/><path fill="#FFD13C" stroke="#303131" stroke-linecap="round" stroke-linejoin="round" stroke-width="5" d="M183.009 298.118C182.372 300.622 168.058 302.987 166.229 305.055C164.4 307.123 164.087 322.207 162.434 322.825C160.781 323.444 153.497 310.683 150.645 309.013C147.793 307.342 133.854 313.061 132.586 310.893C131.319 308.724 142.125 297.74 142.073 295.412C142.021 293.084 133.958 281.689 134.706 278.806C135.453 275.923 150.386 284.282 152.356 283.05C154.326 281.818 162.931 270.153 165.866 270.917C168.801 271.682 165.645 287.509 167.297 289.029C168.942 290.532 183.672 295.624 183.018 298.136L183.009 298.118Z"/><path fill="#FFD13C" stroke="#303131" stroke-linecap="round" stroke-linejoin="round" stroke-width="5" d="M685.082 197.238C682.822 198.488 671.295 189.678 668.535 189.762C665.776 189.846 654.571 199.948 652.988 199.167C651.405 198.386 655.714 184.339 654.978 181.117C654.242 177.894 640.529 171.655 641.24 169.246C641.952 166.838 657.357 167.188 659.018 165.556C660.678 163.924 663.459 150.244 666.072 148.815C668.684 147.385 672.821 163.991 675.068 164.582C677.315 165.174 691.708 163.454 693.161 166.116C694.614 168.779 680.92 177.319 680.944 179.564C680.975 181.791 687.354 196.012 685.076 197.256L685.082 197.238Z"/><path fill="#FFD13C" stroke="#303131" stroke-linecap="round" stroke-linejoin="round" stroke-width="8.65" d="M989.1 313.827C985.189 315.99 965.248 300.75 960.474 300.895C955.701 301.039 936.318 318.516 933.579 317.164C930.84 315.813 938.295 291.514 937.022 285.939C935.748 280.365 912.025 269.57 913.256 265.404C914.488 261.238 941.136 261.844 944.009 259.02C946.882 256.197 951.692 232.532 956.212 230.059C960.732 227.586 967.888 256.313 971.775 257.336C975.662 258.36 1000.56 255.384 1003.07 259.989C1005.59 264.595 981.899 279.369 981.941 283.253C981.995 287.106 993.03 311.707 989.088 313.858L989.1 313.827Z"/><path fill="#FFD13C" stroke="#303131" stroke-linecap="round" stroke-linejoin="round" stroke-width="5" d="M1343.07 436.085C1341.01 436.067 1336.45 425.437 1334.51 424.414C1332.56 423.392 1320.82 426.017 1320.03 424.854C1319.24 423.692 1327.73 415.628 1328.48 413.103C1329.23 410.578 1322.15 400.875 1323.59 399.482C1325.03 398.089 1335.59 404.365 1337.38 403.883C1339.17 403.4 1346.46 394.992 1348.83 395.023C1351.21 395.054 1347.57 408.202 1348.9 409.493C1350.23 410.783 1360.9 415.226 1360.86 417.643C1360.83 420.061 1347.98 420.626 1347.11 422.195C1346.26 423.753 1345.12 436.124 1343.05 436.095L1343.07 436.085Z"/><path fill="#FFD13C" stroke="#303131" stroke-linecap="round" stroke-linejoin="round" stroke-width="5" d="M1312.07 751.085C1310.01 751.067 1305.45 740.437 1303.51 739.414C1301.56 738.392 1289.82 741.017 1289.03 739.854C1288.24 738.692 1296.73 730.628 1297.48 728.103C1298.23 725.578 1291.15 715.875 1292.59 714.482C1294.03 713.089 1304.59 719.365 1306.38 718.883C1308.17 718.4 1315.46 709.992 1317.83 710.023C1320.21 710.054 1316.57 723.202 1317.9 724.493C1319.23 725.783 1329.9 730.226 1329.86 732.643C1329.83 735.061 1316.98 735.626 1316.11 737.195C1315.26 738.753 1314.12 751.124 1312.05 751.095L1312.07 751.085Z"/><path fill="#FFD13C" stroke="#303131" stroke-linecap="round" stroke-linejoin="round" stroke-width="5" d="M1281.07 154.085C1279.01 154.067 1274.45 143.437 1272.51 142.414C1270.56 141.392 1258.82 144.017 1258.03 142.854C1257.24 141.692 1265.73 133.628 1266.48 131.103C1267.23 128.578 1260.15 118.875 1261.59 117.482C1263.03 116.089 1273.59 122.365 1275.38 121.883C1277.17 121.4 1284.46 112.992 1286.83 113.023C1289.21 113.054 1285.57 126.202 1286.9 127.493C1288.23 128.783 1298.9 133.226 1298.86 135.643C1298.83 138.061 1285.98 138.626 1285.11 140.195C1284.26 141.753 1283.12 154.124 1281.05 154.095L1281.07 154.085Z"/><path fill="#FFD13C" stroke="#303131" stroke-linecap="round" stroke-linejoin="round" stroke-width="5" d="M508.065 352.085C506.007 352.067 501.454 341.437 499.506 340.414C497.558 339.392 485.823 342.017 485.029 340.854C484.236 339.692 492.729 331.628 493.48 329.103C494.231 326.578 487.155 316.875 488.592 315.482C490.03 314.089 500.586 320.365 502.379 319.883C504.171 319.4 511.458 310.992 513.832 311.023C516.206 311.054 512.574 324.202 513.902 325.493C515.23 326.783 525.896 331.226 525.862 333.643C525.828 336.061 512.977 336.626 512.114 338.195C511.264 339.753 510.122 352.124 508.054 352.095L508.065 352.085Z"/><path fill="#FFD13C" stroke="#303131" stroke-linecap="round" stroke-linejoin="round" stroke-width="5" d="M281.082 724.238C278.822 725.488 267.295 716.678 264.535 716.762C261.776 716.846 250.571 726.948 248.988 726.167C247.405 725.386 251.714 711.339 250.978 708.117C250.242 704.894 236.529 698.655 237.24 696.246C237.952 693.838 253.357 694.188 255.018 692.556C256.678 690.924 259.459 677.244 262.072 675.815C264.684 674.385 268.821 690.991 271.068 691.582C273.315 692.174 287.708 690.454 289.161 693.116C290.614 695.779 276.92 704.319 276.944 706.564C276.975 708.791 283.354 723.012 281.076 724.256L281.082 724.238Z"/><path fill="#FFD13C" stroke="#303131" stroke-linecap="round" stroke-linejoin="round" stroke-width="9.306" d="M395.583 226.701C390.416 228.392 370.061 205.621 364.322 204.704C358.584 203.787 331.424 220.248 328.459 218.008C325.494 215.767 339.955 188.425 339.706 181.472C339.458 174.518 313.567 156.196 315.991 151.498C318.414 146.799 350.128 153.612 354.207 150.892C358.286 148.173 369.441 120.987 375.408 119.063C381.376 117.139 383.367 153.11 387.78 155.221C392.192 157.333 422.633 159.463 424.585 165.542C426.537 171.621 394.847 183.869 394.01 188.522C393.195 193.139 400.765 225.064 395.563 226.735L395.583 226.701Z"/><path fill="#000" fill-opacity=".17" d="M1027.02 682.295C1025.28 689.571 939.342 689.873 903.829 681.353C868.317 672.832 805.417 641.728 807.163 634.452C808.908 627.177 878.502 630.838 914.015 639.358C949.527 647.878 1028.77 675.019 1027.02 682.295Z"/><path fill="#C8E9F1" stroke="#303131" stroke-linecap="round" stroke-linejoin="round" stroke-width="3.139" d="M814.135 511.528C810.378 507.991 808.339 505.189 807.53 504.029C805.834 501.602 805.34 500.335 805.096 499.656C804.659 498.397 803.997 496.419 804.509 494.034C804.776 492.804 805.168 490.733 806.997 489.881C808.558 489.155 810.203 489.766 810.34 489.815C811.576 490.291 812.301 491.198 812.609 491.586C812.977 492.046 813.342 492.778 814.007 494.276C814.366 495.092 814.614 495.647 814.866 496.266C815.117 496.884 815.279 497.342 815.308 497.411C816.765 501.344 821.007 505.723 821.007 505.723C824.216 509.033 827.533 511.347 827.533 511.347C829.771 512.91 831.443 513.744 831.571 515.125C831.654 516.008 831.063 516.715 829.88 518.128C828.688 519.551 829.478 521.046 828.715 521.283C827.504 521.672 824.756 520.159 819.624 516.067C816.779 513.795 815.351 512.663 814.13 511.512L814.135 511.528Z"/><path fill="#C8E9F1" d="M876.173 623.241C857.95 634.821 844.828 643.192 842.758 644.687C842.515 644.862 841.616 645.528 840.257 645.849C839.804 645.96 838.183 646.319 836.432 645.639C835.334 645.214 834.699 644.546 833.446 643.207C831.505 641.144 830.568 639.298 830.083 638.113C829.658 637.093 829.476 636.572 829.519 635.954C829.652 633.758 832.077 631.468 834.501 631.608C834.501 631.608 836.228 631.731 837.74 633.184C837.812 633.252 838.014 633.464 838.229 633.702C838.412 633.911 838.546 634.08 838.675 634.288C839.057 634.917 839.05 635.233 839.385 635.534C839.811 635.916 840.484 635.915 840.823 635.895C842.442 635.803 844.758 633.936 844.976 633.764C846.99 632.455 848.593 631.356 849.66 630.61C851.529 629.31 851.955 628.964 853.556 627.884C855.367 626.656 855.331 626.756 857.982 625.032C859.091 624.306 861.166 622.94 863.735 621.158C864.974 620.293 865.892 619.638 866.107 619.486C868.213 617.98 870.057 616.603 871.606 615.413"/><path stroke="#303131" stroke-linecap="round" stroke-linejoin="round" stroke-width="3.139" d="M876.173 623.241C857.95 634.821 844.828 643.192 842.758 644.687C842.515 644.862 841.616 645.528 840.257 645.849C839.804 645.96 838.183 646.319 836.432 645.639C835.334 645.214 834.699 644.546 833.446 643.207C831.505 641.144 830.568 639.298 830.083 638.113C829.658 637.093 829.476 636.572 829.519 635.954C829.652 633.758 832.077 631.468 834.501 631.608C834.501 631.608 836.228 631.731 837.74 633.184C837.812 633.252 838.014 633.464 838.229 633.702C838.412 633.911 838.546 634.08 838.675 634.288C839.057 634.917 839.05 635.233 839.385 635.534C839.811 635.916 840.484 635.915 840.823 635.895C842.442 635.803 844.758 633.936 844.976 633.764C846.99 632.455 848.593 631.356 849.66 630.61C851.529 629.31 851.955 628.964 853.556 627.884C855.367 626.656 855.331 626.756 857.982 625.032C859.091 624.306 861.166 622.94 863.735 621.158C864.974 620.293 865.892 619.638 866.107 619.486C868.213 617.98 870.057 616.603 871.606 615.413"/><path fill="#C8E9F1" d="M978.501 637.249C988.229 658.618 995.211 674.035 996.214 676.622C996.329 676.919 996.758 678.067 997.799 679.162C998.152 679.527 999.407 680.816 1001.41 681.246C1002.67 681.512 1003.63 681.274 1005.57 680.806C1008.56 680.078 1010.52 678.952 1011.67 678.167C1012.65 677.486 1013.13 677.124 1013.46 676.539C1014.64 674.457 1013.79 670.93 1011.5 669.623C1011.5 669.623 1009.86 668.706 1007.61 669.131C1007.5 669.151 1007.19 669.218 1006.85 669.317C1006.56 669.402 1006.34 669.476 1006.09 669.59C1005.37 669.936 1005.2 670.23 1004.71 670.304C1004.09 670.395 1003.48 670 1003.18 669.774C1001.76 668.727 1000.75 665.649 1000.66 665.361C999.609 662.971 998.802 661.02 998.266 659.704C997.333 657.409 997.154 656.849 996.334 654.906C995.408 652.714 995.387 652.825 993.996 649.684C993.413 648.363 992.34 645.887 991.058 642.742C990.441 641.217 989.995 640.082 989.889 639.809C988.863 637.181 988.004 634.834 987.302 632.835"/><path stroke="#303131" stroke-linecap="round" stroke-linejoin="round" stroke-width="3.139" d="M978.501 637.249C988.229 658.618 995.211 674.035 996.214 676.622C996.329 676.919 996.758 678.067 997.799 679.162C998.152 679.527 999.407 680.816 1001.41 681.246C1002.67 681.512 1003.63 681.274 1005.57 680.806C1008.56 680.078 1010.52 678.952 1011.67 678.167C1012.65 677.486 1013.13 677.124 1013.46 676.539C1014.64 674.457 1013.79 670.93 1011.5 669.623C1011.5 669.623 1009.86 668.706 1007.61 669.131C1007.5 669.151 1007.19 669.218 1006.85 669.317C1006.56 669.402 1006.34 669.476 1006.09 669.59C1005.37 669.936 1005.2 670.23 1004.71 670.304C1004.09 670.395 1003.48 670 1003.18 669.774C1001.76 668.727 1000.75 665.649 1000.66 665.361C999.609 662.971 998.802 661.02 998.266 659.704C997.333 657.409 997.154 656.849 996.334 654.906C995.408 652.714 995.387 652.825 993.996 649.684C993.413 648.363 992.34 645.887 991.058 642.742C990.441 641.217 989.995 640.082 989.889 639.809C988.863 637.181 988.004 634.834 987.302 632.835"/><path fill="#76D3EF" stroke="#303131" stroke-linecap="round" stroke-linejoin="round" stroke-width="3.139" d="M930.564 643.61C993.755 649.889 1050.07 603.752 1056.35 540.561C1062.63 477.37 1016.49 421.053 953.301 414.775C890.11 408.496 833.793 454.633 827.515 517.824C821.236 581.015 867.373 637.331 930.564 643.61Z"/><path fill="#303131" d="M900.3 515.471C901.8 516.894 904.17 516.832 905.593 515.332C907.017 513.833 906.955 511.463 905.455 510.04C903.955 508.616 901.585 508.678 900.162 510.178C898.739 511.678 898.801 514.048 900.3 515.471Z"/><path fill="#303131" d="M930.028 517.929C931.569 519.235 933.876 519.045 935.182 517.504C936.488 515.964 936.298 513.656 934.758 512.35C933.217 511.044 930.91 511.234 929.604 512.775C928.298 514.315 928.488 516.623 930.028 517.929Z"/><path stroke="#303131" stroke-linecap="round" stroke-linejoin="round" stroke-width="3.139" d="M916.984 518.021C916.984 518.021 913.861 519.798 914.183 520.744C914.51 521.689 915.952 522.799 915.952 522.799"/><path stroke="#303131" stroke-linecap="round" stroke-linejoin="round" stroke-width="3.139" d="M945.295 511.529C944.631 510.016 943.2 507.355 940.459 505.354C937.876 503.468 935.304 503.029 933.831 502.916"/><path stroke="#303131" stroke-linecap="round" stroke-linejoin="round" stroke-width="3.139" d="M894.445 507.429C895.341 506.181 897.156 504.034 900.04 502.734C902.759 501.509 905.19 501.594 906.556 501.769"/><path fill="#C2FA67" stroke="#303131" stroke-linecap="round" stroke-linejoin="round" stroke-width="3.139" d="M1020.02 451.914C1020.51 452.583 1020.86 453.366 1021.58 454.917C1021.96 455.759 1022.16 456.282 1022.22 456.979C1022.26 457.346 1022.32 458.072 1022.04 458.812C1021.71 459.68 1021.15 459.96 1020.43 460.65C1019.59 461.454 1019.03 462.578 1017.88 464.811C1017.18 466.18 1017.27 466.224 1016.63 467.396C1016.02 468.496 1015.67 469.125 1015.09 469.953C1014.67 470.541 1014.39 470.883 1014.08 471.564C1013.79 472.171 1013.58 472.639 1013.62 473.23C1013.68 473.941 1014.08 474.421 1014.58 475.037C1014.8 475.289 1015.37 475.946 1016.42 476.644C1017.73 477.508 1018.07 477.311 1018.71 478.01C1018.87 478.194 1019.52 478.915 1019.65 479.955C1019.74 480.663 1019.63 481.685 1019.62 481.663C1019.52 482.079 1019.3 482.65 1018.78 483.004C1018.13 483.449 1017.59 483.145 1016.04 483.305C1015.05 483.402 1014.26 483.498 1013.54 484.055C1013.39 484.173 1012.78 484.651 1012.56 485.382C1012.09 486.873 1013.74 487.749 1014.87 490.739C1015.47 492.307 1015.16 492.459 1015.93 494.407C1016.3 495.323 1016.7 496.306 1017.49 497.411C1018.11 498.276 1018.9 499.367 1020.35 500.119C1021.06 500.484 1022.51 501.227 1024.14 500.782C1025.55 500.391 1026.37 499.3 1027.09 498.365C1027.71 497.553 1028.12 497.008 1028.3 496.208C1028.84 493.796 1026.42 492.683 1026.77 490.071C1026.92 488.975 1027.35 489.178 1027.92 487.049C1028.07 486.532 1028.22 485.626 1028.53 483.833C1028.71 482.755 1028.95 481.689 1029.14 480.618C1029.41 479.073 1029.48 478.55 1029.94 478.274C1030.6 477.886 1031.52 478.333 1031.77 478.456C1032.88 478.992 1032.98 479.785 1034.19 481.407C1035.05 482.553 1035.04 482.217 1036.89 484.384C1037.43 485.025 1037.88 485.587 1038.79 486.711C1040 488.207 1040.22 488.537 1040.95 489.349C1041.36 489.795 1042.24 490.762 1042.24 490.762C1042.33 490.918 1042.69 491.505 1043.43 491.732C1044.2 491.97 1045.02 491.695 1045.47 491.223C1046.25 490.427 1045.96 489.128 1045.77 488.263C1045.47 486.871 1044.94 486.351 1044.11 484.823C1043 482.778 1043.55 482.993 1042.16 480.068C1041.96 479.657 1040.81 477.252 1040.44 475.909C1040.39 475.729 1040.09 475.266 1040.14 474.663C1040.18 474.081 1040.48 473.783 1040.61 473.495C1041.14 472.374 1039.56 470.722 1038.16 468.704C1037.27 467.422 1036.64 465.976 1035.85 464.627C1033.27 460.208 1033.6 460.484 1032.82 459.338C1031.5 457.413 1031.28 457.621 1028.22 454.034C1026.58 452.125 1026.78 452.214 1023.77 448.605C1021.16 445.475 1020.46 444.741 1019.39 443.895C1018.59 443.263 1017.38 442.41 1016.2 441.58C1013.96 440.01 1013.99 440.131 1013.4 439.591C1012.74 438.98 1012.33 438.486 1012.08 438.607C1011.9 438.695 1011.9 439.037 1012.02 440.599C1012.12 441.895 1012.17 442.549 1012.23 442.758C1012.53 443.773 1013.16 444.191 1014 445.071C1015.83 446.999 1015.19 447.452 1016.86 449.204C1018.38 450.786 1018.9 450.412 1020.01 451.94L1020.02 451.914Z"/><path fill="#E9FFC5" d="M879.901 443.23C878.961 442.92 879.239 442.444 879.595 441.886C881.447 438.99 884.079 437.037 887.198 435.734C888.867 435.033 890.609 434.508 892.329 433.932C892.662 433.818 893.053 433.815 893.412 433.858C894.372 433.967 894.695 434.656 894.058 435.368C893.642 435.829 893.053 436.204 892.473 436.418C890.667 437.091 888.817 437.648 887.006 438.292C884.965 439.018 883.268 440.205 882.135 442.124C881.647 442.949 881.057 443.763 879.915 443.231L879.901 443.23Z"/><path fill="#E9FFC5" d="M875.781 443.848C875.896 444.027 876.287 444.373 876.294 444.723C876.312 445.598 875.556 446.458 874.977 446.317C874.438 446.18 873.824 445.972 873.885 445.217C873.943 444.419 874.684 443.78 875.781 443.848Z"/><path fill="#E9FFC5" d="M860.808 461.964C859.731 461.976 859.845 461.393 860.02 460.684C860.9 457.035 862.924 454.093 865.675 451.642C867.147 450.329 868.757 449.168 870.329 447.97C870.631 447.734 871.037 447.593 871.415 447.512C872.443 447.286 873.02 447.881 872.617 448.84C872.353 449.463 871.874 450.058 871.35 450.488C869.729 451.822 868.014 453.055 866.375 454.366C864.524 455.844 863.198 457.661 862.71 460.043C862.496 461.07 862.175 462.121 860.807 461.971L860.808 461.964Z"/><path fill="#C2FA67" stroke="#303131" stroke-linecap="round" stroke-linejoin="round" stroke-width="3.139" d="M859.272 540.837C859.326 540.856 859.191 541.52 859.022 542.237C859.163 541.797 859.33 541.101 859.258 540.283C858.95 536.914 855.067 536.417 853.513 532.581C852.677 530.522 852.925 528.521 853.182 526.423C853.598 523.077 854.602 522.89 854.714 520.498C854.849 517.522 853.059 517.184 851.896 512.305C850.87 508.005 851.489 507.403 850.385 504.241C848.951 500.117 847.567 500.196 846.82 496.958C846.028 493.541 846.852 490.382 847.696 488.14C848.531 485.925 849.914 482.269 853.643 480.524C854.317 480.206 857.628 478.657 861.013 480.229C861.58 480.495 863.982 481.698 864.902 484.248C865.823 486.791 864.216 487.986 864.806 491.823C864.879 492.285 865.463 496.107 866.998 496.33C867.963 496.468 868.891 495.135 869.905 493.65C871.957 490.641 871.713 489.297 873.233 486.724C873.511 486.248 875.057 483.692 877.954 481.675C879.649 480.495 881.354 479.931 884.687 478.859C890.726 476.916 891.209 477.614 892.419 476.4C895.104 473.705 893.463 469.484 896.157 468.166C896.303 468.097 896.273 468.122 899.11 467.691C901.776 467.286 903.109 467.083 903.567 466.982C906.337 466.37 906.248 465.509 909.49 464.301C912.363 463.232 912.741 463.786 916.136 462.58C919.09 461.532 920.582 461.003 920.966 459.735C921.614 457.641 918.707 455.264 919.59 454.115C919.862 453.765 920.341 453.722 920.742 453.692C927.172 453.158 926.547 453.123 927.041 453.145C932.912 453.456 933.261 453.735 934.292 453.208C936.079 452.296 936.863 450.53 937.296 449.547C937.458 449.179 938.807 446.009 937.523 442.619C936.803 440.725 936.216 441.288 934.501 438.45C932.791 435.626 932.649 433.886 930.703 432.31C930.083 431.808 929.35 431.379 928.427 431.253C928.124 431.209 927.178 431.094 926.246 431.553C925.408 431.972 925.086 432.611 924.259 434.045C922.978 436.25 922.331 437.352 921.846 437.8C921.1 438.487 920.103 438.891 918.116 439.699C916.792 440.238 916.071 440.53 914.984 440.785C913.876 441.045 913.495 441.014 912.85 441.39C911.916 441.933 911.954 442.461 911.074 443.302C910.256 444.087 908.496 445.281 907.156 444.701C906.212 444.293 905.875 443.184 905.819 442.976C905.412 441.517 906.43 440.829 906.846 438.754C907.29 436.535 906.38 436.277 906.676 433.652C906.756 432.913 906.959 431.152 908.085 429.727C908.477 429.229 909.479 428.148 913.421 427.205C917.113 426.322 918.025 426.839 922.176 426.043C924.79 425.541 926.129 425.276 927.594 424.381C928.65 423.738 931.451 422.117 932.02 419.058C932.113 418.551 932.423 416.968 931.816 415.986C929.318 411.952 911.734 418.454 907.05 420.181C900.285 422.68 892.498 425.559 882.813 431.575C878.361 434.338 867.814 441.302 857.202 453.141C852.371 458.528 847.743 463.768 844.001 472.043C841.433 477.718 840.293 482.585 839.422 486.284C838.185 491.567 837.214 495.857 837.739 501.539C838.048 504.894 838.762 507.556 839.068 508.621C840.552 513.79 841.864 514.221 843.434 519.224C844.798 523.571 843.953 523.711 845.523 528.924C846.405 531.854 847.192 534.412 849.087 537.415C851.391 541.073 852.786 543.279 855.368 544.137C856.125 544.394 857.255 544.618 857.447 545.363C857.711 546.36 855.971 546.997 855.755 548.757C855.601 550.02 856.417 550.387 856.63 551.896C856.907 553.817 855.901 555.442 855.343 556.343C853.42 559.456 851.293 558.791 849.757 561.383C848.212 564.002 848.961 567.08 849.124 567.76C849.833 570.673 851.359 570.713 852.905 574.066C854.34 577.191 853.333 577.838 854.655 582.034C855.165 583.657 855.272 583.416 858.319 589.516C861.553 595.984 861.562 596.522 862.903 597.934C864.528 599.646 865.437 599.841 867.232 602.094C868.742 603.983 869.565 605.678 870.003 606.609C871.391 609.52 871.089 610.656 872.441 614.478C873.078 616.644 874.019 619.126 875.437 621.733C875.998 622.759 876.614 623.427 877.192 624.288C882.337 627.533 886.412 629.941 889.324 631.508C892.438 633.184 893.223 633.536 896.121 634.644C897.14 634.857 899.951 635.805 904.649 635.699C904.649 635.699 908.373 635.615 911.263 634.785C911.263 634.785 913.308 634.164 914.528 632.923C914.591 632.859 914.638 632.801 914.685 632.75C915.428 631.881 915.302 631.463 915.879 631.003C917.13 630.01 919.074 630.902 920.93 631.338C924.719 632.217 928.032 631.142 930.695 630.275C933.662 629.306 936.123 628.51 937.705 626.229C938.512 625.066 938.782 623.969 940.284 622.421C941.358 621.312 942.37 620.686 943.217 620.17C946.682 618.062 947.78 618.821 949.795 617.093C951.185 615.904 951.883 614.5 952.564 613.129C954.881 610.055 954.962 608.534 954.5 607.705C953.794 606.441 951.573 606.367 948.834 604.628C946.285 603.006 946.199 602.599 944.388 601.644C942.131 600.456 941.358 600.574 937.018 599.047C934.19 598.053 932.773 597.556 931.801 597.006C928.052 594.88 928.52 593.264 924.898 591.403C923.589 590.728 921.759 589.673 919.325 589.494C917.585 589.363 916.453 589.725 916.26 589.273C916.085 588.858 916.978 588.443 917.513 587.281C918.281 585.597 917.637 583.78 917.541 583.554C916.746 581.638 915.46 581.86 914.52 579.866C913.776 578.284 914.419 577.782 913.661 576.561C913.342 576.048 912.753 575.367 909.496 574.115C906.785 573.07 906.029 573.093 903.592 572.173C901.303 571.31 900.165 570.883 899.377 570.232C897.578 568.733 897.815 567.394 895.73 562.584C894.588 559.949 893.841 558.255 892.288 556.312C891.803 555.705 890.548 554.212 888.579 552.724C888.021 552.298 886.048 550.852 883.124 549.639C880.749 548.649 879.992 548.749 878.743 547.682C877.681 546.773 878.097 546.591 876.492 544.748C875.007 543.036 873.941 541.812 872.262 541.275C871.748 541.112 871.212 541.024 870.466 540.587C869.528 540.04 869.483 539.651 868.736 539.228C867.54 538.543 866.25 538.729 865.903 538.779C865.088 538.893 864.485 539.203 863.052 540.193C860.121 542.213 859.038 543.405 858.694 543.147C858.29 542.855 859.172 540.869 859.273 540.9L859.272 540.837Z"/><path fill="#C2FA67" stroke="#303131" stroke-linecap="round" stroke-linejoin="round" stroke-width="3.139" d="M1053.88 503.806C1053.31 503.762 1052.55 504.962 1052.25 505.793C1051.84 506.912 1052.19 507.586 1051.57 508.474C1051.46 508.636 1051.03 509.24 1050.29 509.469C1049.12 509.827 1047.97 509.008 1046.87 508.233C1046.04 507.646 1045.48 507.028 1045.11 506.632C1044.74 506.221 1044.31 505.739 1043.93 505.102C1042.99 503.535 1043.47 502.846 1042.58 501.129C1042.21 500.41 1041.85 499.742 1041.08 499.329C1040.27 498.891 1039.46 498.971 1038.81 499.043C1037.52 499.189 1036.62 499.728 1035.28 500.56C1033.82 501.462 1033.05 501.87 1032.85 502.447C1032.56 503.259 1032.96 503.918 1032.44 504.763C1032.18 505.172 1031.84 505.424 1031.61 505.562C1031.5 505.619 1031.33 505.696 1031.12 505.753C1030.86 505.826 1030.41 505.902 1029.78 505.746C1028.3 505.384 1027.28 504.107 1026.29 504.269C1025.98 504.321 1025.45 504.536 1024.67 506.139C1023.48 508.568 1023.89 509.705 1023.05 513.542C1022.59 515.594 1022.32 515.966 1022.03 517.912C1021.81 519.391 1021.89 519.674 1021.61 520.395C1021 521.881 1019.95 522.372 1018.43 523.679C1017.2 524.737 1016.45 525.7 1014.93 527.618C1014.05 528.739 1012.72 530.45 1011.51 532.833C1010.24 535.335 1009.7 537.333 1009.01 539.895C1008.25 542.713 1007.88 544.123 1007.97 545.621C1008.08 547.042 1008.41 547.855 1008.33 549.834C1008.29 550.858 1008.13 552.372 1008.09 552.682C1007.96 553.767 1007.85 554.551 1007.83 554.724C1007.49 557.161 1007.65 561.454 1008.29 565.73C1008.77 568.951 1009.29 570.564 1009.55 571.304C1010.16 573.076 1010.57 574.221 1011.59 575.246C1012.48 576.15 1013.53 576.646 1016.5 577.364C1020.88 578.411 1023.06 578.938 1025.21 578.691C1027.25 578.457 1030.59 578.079 1032.97 575.633C1034.23 574.348 1034.75 572.964 1036.78 571.965C1037.44 571.635 1038.8 570.965 1039.83 571.543C1040.86 572.122 1040.98 573.636 1041.06 574.577C1041.19 576.184 1040.82 577.054 1039.69 580.857C1038.94 583.389 1039.16 582.842 1038.45 585.198C1038.45 585.198 1038.11 586.333 1037.37 589.21C1037.19 589.928 1037.14 590.483 1036.96 591.582C1036.71 593.147 1036.59 593.931 1036.69 593.978C1037.12 594.194 1039.6 590.366 1041.93 585.987C1043.75 582.573 1045.41 579.488 1048.23 573.102C1050.92 567.012 1053.5 557.397 1054.04 554.775C1054.13 554.366 1054.78 551.44 1055.75 544.155C1056.54 538.219 1057.14 531.319 1057.14 528.314C1057.14 526.423 1056.89 523.561 1056.39 517.844C1055.32 505.752 1054.58 503.866 1053.89 503.813L1053.88 503.806Z"/><path fill="#33637C" d="M916.519 640.364C930.812 640.268 964.177 638.023 995.424 615.208C1001.58 610.714 1013.14 602.119 1023.27 587.221C1040.53 561.808 1046.55 530.975 1050.26 493.619C1050.26 493.619 1051.76 491.154 1053.67 501.845C1054.63 507.214 1056.63 524.581 1056.7 529.77C1057.12 559.776 1045.44 581.162 1042.87 585.697C1028.46 611.101 1007.45 623.408 998.977 628.371C995.543 630.384 992.772 631.771 992.111 632.096C981.971 637.137 965.245 643.515 944.195 643.707C937.47 643.765 927.85 643.222 916.527 640.35L916.519 640.364Z" opacity=".4"/><path stroke="#303131" stroke-linecap="round" stroke-linejoin="round" stroke-width="3.139" d="M930.564 643.611C993.755 649.889 1050.07 603.753 1056.35 540.561C1062.63 477.37 1016.49 421.054 953.301 414.775C890.11 408.497 833.794 454.633 827.515 517.824C821.236 581.015 867.373 637.332 930.564 643.611Z"/><path fill="#C8E9F1" stroke="#303131" stroke-linecap="round" stroke-linejoin="round" stroke-width="3.139" d="M901.5 531.244C902.848 529.339 908.217 532.91 917.373 533.845C927.404 534.881 933.077 531.834 934.172 534.03C935.19 536.098 931.057 540.586 927.655 542.689C927.205 542.963 925.33 544.086 922.608 544.75C920.244 545.33 918.338 545.288 917.567 545.258C916.484 545.206 914.497 545.022 912.213 544.161C906.951 542.182 904.248 538.198 903.647 537.265C902.326 535.218 900.589 532.54 901.5 531.244Z"/><path fill="#C5C0B8" stroke="#303131" stroke-linecap="round" stroke-linejoin="round" stroke-width="3.139" d="M1116.28 489.087C1124.51 480.043 1123.85 466.042 1114.8 457.815C1105.76 449.588 1091.76 450.25 1083.53 459.293C1075.3 468.337 1075.97 482.338 1085.01 490.565C1094.05 498.792 1108.05 498.13 1116.28 489.087Z"/><path fill="#000" d="M1093.55 476.945C1094.18 476.244 1094.13 475.158 1093.43 474.52C1092.73 473.882 1091.65 473.933 1091.01 474.634C1090.37 475.336 1090.42 476.422 1091.12 477.06C1091.82 477.698 1092.91 477.646 1093.55 476.945Z"/><path fill="#000" d="M1107.05 470.773C1107.69 470.071 1107.63 468.985 1106.93 468.347C1106.23 467.709 1105.15 467.761 1104.51 468.462C1103.87 469.163 1103.92 470.249 1104.62 470.887C1105.32 471.525 1106.41 471.474 1107.05 470.773Z"/><path stroke="#303131" stroke-linecap="round" stroke-linejoin="round" stroke-width="3.139" d="M1098.73 474.767C1098.73 474.767 1098.32 477.749 1098.71 478.188C1099.1 478.627 1101.61 478.055 1101.61 478.055"/><path stroke="#303131" stroke-linecap="round" stroke-linejoin="round" stroke-width="3.139" d="M1084.65 472.318C1084.65 472.318 1085.56 470.149 1086.35 469.276C1087.13 468.402 1089.41 467.04 1089.41 467.04"/><path stroke="#303131" stroke-linecap="round" stroke-linejoin="round" stroke-width="3.139" d="M1100.87 461.396C1100.87 461.396 1103.04 460.486 1104.21 460.412C1105.38 460.337 1107.96 460.962 1107.96 460.962"/><path fill="#fff" d="M1091.91 489.058C1091.86 489.74 1091.5 489.629 1091.06 489.477C1088.82 488.697 1087.09 487.249 1085.71 485.361C1084.98 484.353 1084.34 483.266 1083.68 482.205C1083.55 481.994 1083.48 481.737 1083.45 481.492C1083.38 480.831 1083.78 480.502 1084.36 480.814C1084.74 481.018 1085.08 481.356 1085.32 481.709C1086.06 482.815 1086.74 483.964 1087.46 485.081C1088.28 486.337 1089.35 487.285 1090.81 487.737C1091.45 487.929 1092.09 488.203 1091.91 489.053L1091.91 489.058Z"/><path fill="#fff" d="M1082.88 476.613C1083.09 476.652 1083.61 476.603 1083.87 476.837C1084.52 477.426 1084.64 478.567 1084.13 478.886C1083.66 479.189 1083.09 479.491 1082.58 478.93C1082.04 478.336 1082.08 477.359 1082.88 476.613Z"/><path stroke="#303131" stroke-linecap="round" stroke-linejoin="round" stroke-width="3.139" d="M1099.36 485.106C1099.36 485.106 1102.7 485.638 1105.34 484.117C1107.97 482.596 1108.98 479.574 1108.98 479.574"/><path fill="#C8E9F1" stroke="#303131" stroke-linecap="round" stroke-linejoin="round" stroke-width="3.139" d="M1059.15 547.675C1063.99 545.885 1066.96 544.099 1068.15 543.347C1070.66 541.773 1071.61 540.8 1072.1 540.269C1072.99 539.281 1074.37 537.717 1074.83 535.322C1075.07 534.085 1075.51 532.025 1074.16 530.528C1073.01 529.25 1071.25 529.171 1071.11 529.163C1069.79 529.118 1068.77 529.671 1068.33 529.909C1067.81 530.188 1067.19 530.72 1065.99 531.84C1065.35 532.451 1064.9 532.866 1064.43 533.337C1063.95 533.808 1063.63 534.167 1063.57 534.219C1060.7 537.272 1055.08 539.65 1055.08 539.65C1050.84 541.446 1046.88 542.283 1046.88 542.283C1044.21 542.849 1042.35 542.966 1041.69 544.188C1041.27 544.968 1041.54 545.849 1042.07 547.612C1042.62 549.387 1042.11 550.626 1042.72 551.142C1043.69 551.973 1046 551.48 1052.32 549.715C1055.83 548.732 1057.58 548.247 1059.16 547.663L1059.15 547.675Z"/><path fill="#94B259" stroke="#303131" stroke-linecap="round" stroke-linejoin="round" stroke-width="3.786" d="M749.866 578.663C734.204 580.99 735.216 577.149 719.553 579.476L732.539 598.138L740.382 603.981L749.866 578.663Z"/><path fill="#94B259" stroke="#303131" stroke-linecap="round" stroke-linejoin="round" stroke-width="3.786" d="M645.727 476.576L758.848 479.723L781.428 444.408L772.438 437.585C772.438 437.585 734.356 446.322 728.23 441.692L722.055 433.786L714.212 427.943L712.133 426.518C711.148 425.835 710.07 425.298 708.932 424.869C706.16 424.292 703.761 424.513 702.534 424.713C700.998 424.936 698.235 425.359 695.632 427.392C694.688 428.121 693.697 429.131 691.305 433.425C688.7 438.081 688.338 439.628 686.734 442.515C685.825 444.139 684.556 446.896 682.634 449.256C681.562 450.547 679.971 451.396 678.266 451.668C662.604 453.995 645.886 456.059 630.221 458.352L633.794 460.8L641.638 466.643L645.727 476.576Z"/><path fill="#8F209A" stroke="#303131" stroke-linecap="round" stroke-linejoin="round" stroke-width="3.786" d="M570.658 450.61L572.411 455.374C575.317 458.116 578.926 460.561 583.921 461.759C588.317 462.797 589.453 461.88 609.397 460.012C617.998 459.203 625.105 458.717 629.743 458.424C629.804 458.764 639.324 465.753 639.324 465.753L631.669 483.541L496.949 628.646L487.013 620.757C486.244 612.671 485.525 605.236 485.274 600.7C484.652 589.633 484.358 584.099 486.532 580.546C489.933 575.034 493.96 576.652 500.191 569.366C502.216 566.999 505.687 562.827 506.844 556.42C507.2 554.355 508.425 547.045 504.022 540.175C501.743 536.625 499.611 537.62 497.91 536.613L488.332 529.318L484.019 474.08C489.831 473.799 498.105 473.222 508.012 471.896C520.893 470.2 527.316 469.354 531.669 467.185C547.549 459.248 546.863 442.94 556.504 442.187L557.259 442.128C558.391 442.04 559.518 442.332 560.498 442.946L561.079 443.315L570.658 450.61Z"/><path fill="#B0A8CF" stroke="#303131" stroke-linecap="round" stroke-linejoin="round" stroke-width="3.786" d="M784.907 519.49C784.701 519.955 784.916 520.49 785.037 520.722C785.458 521.691 786.39 522.136 787 522.433C789.44 523.623 790.663 524.253 791.284 524.688C792.383 525.499 793.445 526.279 794.381 527.656C794.732 528.181 795.058 528.811 795.768 529.067C796.37 529.261 797.228 529.194 797.671 528.676C798.174 528.05 797.862 527.143 797.634 526.436C797.448 525.829 797.078 525.064 796.248 524.162C795.91 523.809 795.5 523.426 793.284 522.012C792.341 521.429 792.777 521.706 789.917 519.996C788.649 519.232 788.25 518.987 787.585 518.867C786.743 518.691 785.294 518.7 784.907 519.49Z"/><path fill="#EB93F4" d="M527.336 622.63C529.523 644.448 531.061 660.172 531.159 662.753C531.183 663.062 531.203 664.199 531.856 665.494C532.062 665.927 532.872 667.452 534.71 668.447C535.864 669.082 536.907 669.173 538.995 669.39C542.228 669.69 544.582 669.334 546.005 668.981C547.224 668.679 547.836 668.562 548.353 668.107C549.814 666.923 550.006 664.526 548.946 662.883C547.92 661.237 545.808 660.712 544.01 660.231C542.317 659.776 542.167 660.064 541.452 659.74C539.268 658.737 539.594 655.398 539.179 648.319C539.074 646.533 539.191 648.905 538.435 639.23C538.111 635.079 537.945 632.951 537.859 631.405C537.743 629.032 537.58 625.627 537.605 621.518"/><path stroke="#303131" stroke-linecap="round" stroke-linejoin="round" stroke-width="3.786" d="M527.336 622.63C529.523 644.448 531.061 660.172 531.159 662.753C531.183 663.062 531.203 664.199 531.856 665.494C532.062 665.927 532.872 667.452 534.71 668.447C535.864 669.082 536.907 669.173 538.995 669.39C542.228 669.69 544.582 669.334 546.005 668.981C547.224 668.679 547.836 668.562 548.353 668.107C549.814 666.923 550.006 664.526 548.946 662.883C547.92 661.237 545.808 660.712 544.01 660.231C542.317 659.776 542.167 660.064 541.452 659.74C539.268 658.737 539.594 655.398 539.179 648.319C539.074 646.533 539.191 648.905 538.435 639.23C538.111 635.079 537.945 632.951 537.859 631.405C537.743 629.032 537.58 625.627 537.605 621.518"/><path fill="#EB93F4" d="M606.894 617.662C608.958 638.35 610.435 653.285 610.522 655.729C610.543 656.004 610.561 657.107 611.172 658.302C611.375 658.7 612.145 660.159 613.878 661.128C614.995 661.731 615.969 661.828 617.951 662.018C621.011 662.297 623.262 661.949 624.584 661.639C625.737 661.376 626.312 661.228 626.831 660.807C628.192 659.666 628.395 657.406 627.412 655.86C626.428 654.315 624.419 653.781 622.727 653.327C621.106 652.901 620.99 653.186 620.308 652.86C618.23 651.883 618.538 648.752 618.15 642.017C618.051 640.299 618.159 642.568 617.444 633.408C617.136 629.462 616.98 627.472 616.897 625.96C616.789 623.69 616.642 620.491 616.649 616.59"/><path stroke="#303131" stroke-linecap="round" stroke-linejoin="round" stroke-width="3.786" d="M606.894 617.662C608.958 638.35 610.435 653.285 610.522 655.729C610.543 656.004 610.561 657.107 611.172 658.302C611.375 658.7 612.145 660.159 613.878 661.128C614.995 661.731 615.969 661.828 617.951 662.018C621.011 662.297 623.262 661.949 624.584 661.639C625.737 661.376 626.312 661.228 626.831 660.807C628.192 659.666 628.395 657.406 627.412 655.86C626.428 654.315 624.419 653.781 622.727 653.327C621.106 652.901 620.99 653.186 620.308 652.86C618.23 651.883 618.538 648.752 618.15 642.017C618.051 640.299 618.159 642.568 617.444 633.408C617.136 629.462 616.98 627.472 616.897 625.96C616.789 623.69 616.642 620.491 616.649 616.59"/><path fill="#E9FFC5" d="M685.589 610.933C686.769 632.242 687.658 647.602 687.956 650.099C687.98 650.408 688.135 651.5 687.719 652.81C687.582 653.269 687.051 654.864 685.421 656.096C684.411 656.865 683.395 657.117 681.432 657.616C678.353 658.408 676.072 658.379 674.65 658.283C673.435 658.205 672.81 658.151 672.231 657.816C670.673 656.868 670.116 654.598 670.88 652.882C671.643 651.165 673.577 650.29 675.213 649.575C676.78 648.866 676.975 649.161 677.598 648.733C679.531 647.408 678.137 637.956 677.403 628.555C677.087 624.506 676.926 622.448 676.774 620.941C676.526 618.647 676.166 615.362 675.547 611.406"/><path stroke="#303131" stroke-linecap="round" stroke-linejoin="round" stroke-width="3.786" d="M685.589 610.933C686.769 632.242 687.658 647.602 687.956 650.099C687.98 650.408 688.135 651.5 687.719 652.81C687.582 653.269 687.051 654.864 685.421 656.096C684.411 656.865 683.395 657.117 681.432 657.616C678.353 658.408 676.072 658.379 674.65 658.283C673.435 658.205 672.81 658.151 672.231 657.816C670.673 656.868 670.116 654.598 670.88 652.882C671.643 651.165 673.577 650.29 675.213 649.575C676.78 648.866 676.975 649.161 677.598 648.733C679.531 647.408 678.137 637.956 677.403 628.555C677.087 624.506 676.926 622.448 676.774 620.941C676.526 618.647 676.166 615.362 675.547 611.406"/><path fill="#E9FFC5" d="M767.502 606.954C768.609 626.888 769.454 641.251 769.705 643.578C769.726 643.853 769.875 644.877 769.454 646.118C769.315 646.543 768.81 648.032 767.278 649.187C766.334 649.917 765.386 650.163 763.523 650.619C760.647 651.362 758.507 651.356 757.187 651.252C756.041 651.169 755.453 651.146 754.943 650.806C753.459 649.921 752.949 647.82 753.652 646.212C754.355 644.604 756.157 643.807 757.727 643.133C759.196 642.5 759.352 642.73 759.943 642.338C761.747 641.127 760.433 632.255 759.747 623.472C759.453 619.698 759.303 617.777 759.156 616.338C758.953 614.179 758.577 611.137 758.011 607.418"/><path stroke="#303131" stroke-linecap="round" stroke-linejoin="round" stroke-width="3.786" d="M767.502 606.954C768.609 626.888 769.454 641.251 769.705 643.578C769.726 643.853 769.875 644.877 769.454 646.118C769.315 646.543 768.81 648.032 767.278 649.187C766.334 649.917 765.386 650.163 763.523 650.619C760.647 651.362 758.507 651.356 757.187 651.252C756.041 651.169 755.453 651.146 754.943 650.806C753.459 649.921 752.949 647.82 753.652 646.212C754.355 644.604 756.157 643.807 757.727 643.133C759.196 642.5 759.352 642.73 759.943 642.338C761.747 641.127 760.433 632.255 759.747 623.472C759.453 619.698 759.303 617.777 759.156 616.338C758.953 614.179 758.577 611.137 758.011 607.418"/><path stroke="#303131" stroke-linecap="round" stroke-linejoin="round" stroke-width="3.786" d="M487.226 476.695L495.069 482.538"/><path stroke="#303131" stroke-linecap="round" stroke-linejoin="round" stroke-width="3.786" d="M781.321 502.718C776.656 497.352 780.045 493.014 778.517 469.454"/><path fill="#8F209A" stroke="#303131" stroke-linecap="round" stroke-linejoin="round" stroke-width="3.786" d="M538.479 616.74C552.209 610.007 552.181 596.823 560.954 596C566.984 595.426 570.307 599.516 573.27 603.875C576.234 608.235 582.737 619.015 587.19 619.461C596.162 620.314 640.035 608.812 640.035 608.812C640.035 608.812 639.876 605.89 639.599 601.459C638.873 589.952 638.746 589.651 638.519 584.974C638.1 576.515 637.914 570.144 637.914 570.144C637.702 563.015 637.774 560.835 636.106 558.48C634.049 555.568 631.948 556.077 627.514 553.213C624.643 551.366 617.915 546.99 616.825 540.102C615.682 532.977 621.244 526.847 622.515 525.436C625.472 522.202 627.201 522.24 629.514 520.023C634.913 514.907 634.362 506.079 633.564 495.854C632.697 485.187 631.733 475.493 630.752 466.906L538.479 616.74Z"/><path fill="#DB3FEB" stroke="#303131" stroke-linecap="round" stroke-linejoin="round" stroke-width="3.786" d="M493.634 481.374L497.949 536.647L506.775 540.928C508.476 541.935 511.363 543.988 513.642 547.538C518.045 554.408 516.852 561.681 516.464 563.783C515.304 570.156 511.833 574.327 509.811 576.729C503.58 584.015 499.553 582.397 496.152 587.909C493.978 591.461 494.272 596.996 494.895 608.062C495.145 612.599 495.864 620.034 496.633 628.12C496.623 630.641 515.787 628.074 523.407 627.514C542.182 626.152 544.573 625.827 548.063 624.105C561.793 617.372 561.765 604.188 570.538 603.365C582.564 602.219 583.899 619.754 592.837 620.61C601.809 621.463 649.619 616.177 649.619 616.177C649.619 616.177 649.46 613.255 649.183 608.824C648.457 597.317 648.33 597.016 648.103 592.339C647.684 583.881 647.498 577.509 647.498 577.509C647.286 570.38 647.358 568.2 645.69 565.845C643.633 562.934 641.532 563.443 637.098 560.579C634.226 558.732 627.499 554.355 626.409 547.468C625.266 540.342 630.828 534.213 632.099 532.802C635.056 529.568 636.785 529.605 639.097 527.388C644.497 522.272 643.946 513.444 643.148 503.22C641.997 488.915 640.636 476.353 639.328 465.789C634.657 466.085 627.584 466.568 618.983 467.378C599.036 469.211 597.902 470.162 593.507 469.125C577.502 465.3 575.696 448.803 566.09 449.553C556.483 450.303 557.169 466.611 541.255 474.55C536.937 476.717 530.479 477.566 517.598 479.262C507.686 480.519 499.412 481.096 493.634 481.374Z"/><path fill="#303131" d="M599.154 542.752C597.396 544.548 594.516 544.578 592.721 542.82C590.925 541.062 590.895 538.182 592.653 536.386C594.411 534.591 597.291 534.561 599.086 536.319C600.882 538.076 600.912 540.957 599.154 542.752Z"/><path fill="#303131" d="M563.164 547.063C561.351 548.718 558.541 548.59 556.886 546.778C555.231 544.965 555.359 542.155 557.172 540.5C558.984 538.845 561.795 538.973 563.449 540.785C565.104 542.598 564.976 545.408 563.164 547.063Z"/><path stroke="#303131" stroke-linecap="round" stroke-linejoin="round" stroke-width="3.786" d="M580.659 545.909C580.659 545.909 582.96 549.619 582.067 550.442C581.17 551.261 578.986 551.607 578.986 551.607"/><path stroke="#303131" stroke-linecap="round" stroke-linejoin="round" stroke-width="4.13" d="M546.444 536.634C547.183 534.768 548.802 531.472 552.041 528.92C555.094 526.515 558.198 525.867 559.982 525.664"/><path stroke="#303131" stroke-linecap="round" stroke-linejoin="round" stroke-width="4.13" d="M606.335 524.949C604.887 523.771 602.074 521.833 598.277 521.229C594.698 520.661 591.875 521.537 590.329 522.178"/><path fill="#C2FA67" stroke="#303131" stroke-linecap="round" stroke-linejoin="round" stroke-width="3.786" d="M649.945 615.943C653.205 615.689 662.02 614.966 674.506 613.957C686.511 612.985 692.61 612.405 696.461 609.55C700.079 606.817 702.107 600.963 705.632 594.82C709.376 589.729 714.363 587.718 719.989 587.279C724.37 586.799 728.418 587.794 733.078 591.78C739.517 597.318 737.873 602.797 742.991 605.124C746.569 606.743 749.914 606.689 753.215 606.535C767 605.804 782.034 602.939 789.404 601.397C788.721 583.363 784.315 561.857 788.538 548.306C788.538 548.306 795.235 546.541 799.307 542.978C804.704 538.277 804.798 528.431 804.787 527.845C803.526 511.686 793.045 514.057 789.249 509.659C784.585 504.293 787.974 499.955 786.446 476.395C785.903 468.118 785.089 462.555 784.565 459.386C783.521 453.082 782.288 447.897 781.397 444.445C766.32 445.864 742.288 453.297 736.162 448.667C734.07 447.07 732.326 445.066 732.326 445.066C732.061 444.776 731.644 444.291 729.891 442.184C726.728 438.357 726.638 438.088 725.697 437.092C724.759 436.129 723.329 434.619 721.2 433.439C716.869 431.015 712.343 431.403 710.535 431.682C708.999 431.906 706.236 432.329 703.634 434.361C702.689 435.091 701.698 436.1 699.306 440.395C696.701 445.051 696.339 446.598 694.735 449.485C693.826 451.109 692.503 453.18 690.582 455.539C689.509 456.831 687.918 457.68 686.214 457.951C670.551 460.278 654.889 462.606 639.224 464.899C640.693 484.598 642.127 504.299 643.596 523.998C641.103 524.78 636.947 526.381 633.156 529.991C631.935 531.156 623.867 538.793 625.527 547.673C627.006 555.566 635.7 562.136 646.767 562.411L649.945 615.943Z"/><path stroke="#303131" stroke-linecap="round" stroke-linejoin="round" stroke-width="3.786" d="M486.86 475.515L492.704 480.961"/><path stroke="#303131" stroke-linecap="round" stroke-linejoin="round" stroke-width="3.786" d="M568.394 561.763C568.394 561.763 571.313 564.676 576.507 563.994C581.698 563.278 585.037 559.186 585.037 559.186"/><path fill="#CB9BC6" d="M500.219 491.421C499.993 492.509 499.962 493.443 500.318 498.006C500.581 501.369 500.615 500.917 500.589 501.472C500.583 503.612 500.249 504.639 500.934 505.898C501.093 506.161 501.662 507.256 502.454 507.229C503.177 507.207 503.688 506.235 503.896 505.805C504.67 504.225 504.486 502.755 504.039 499.235C503.937 498.38 503.583 495.611 503.741 492.32C503.779 491.488 503.913 490.546 504.585 489.872C504.904 489.537 505.339 489.365 507.559 489.053C509.915 488.731 510.575 488.783 511.182 488.149C511.567 487.774 511.927 487.09 511.742 486.483C511.692 486.28 511.488 485.881 510.49 485.476C508.602 484.726 506.802 485.108 506.055 485.27C505.343 485.429 504.258 485.686 503.114 486.501C502.098 487.201 501.54 488.004 501.387 488.258C501.081 488.765 500.531 489.671 500.219 491.421Z"/><path fill="#CB9BC6" d="M503.751 514.584C503.678 515.418 503.072 516.501 502.246 516.531C501.417 516.527 500.819 515.503 500.721 514.682C500.598 513.553 501.391 512.214 502.257 512.25C503.083 512.22 503.839 513.507 503.751 514.584Z"/><path fill="#CB9BC6" d="M641.746 584.308C641.673 585.142 641.067 586.225 640.241 586.255C639.413 586.251 638.815 585.227 638.716 584.407C638.594 583.277 639.387 581.938 640.252 581.974C641.078 581.944 641.835 583.231 641.746 584.308Z"/><path fill="#CB9BC6" d="M629.686 564.264C629.409 564.7 629.555 565.241 629.645 565.51C629.931 566.523 630.805 567.111 631.352 567.482C633.61 568.997 634.775 569.769 635.299 570.281C635.856 570.789 637.219 571.891 637.979 573.661C639.199 576.466 638.029 578.732 639.147 579.335C639.759 579.667 640.593 579.291 641.081 578.908C642.539 577.689 641.828 574.776 641.369 572.879C641.022 571.525 640.472 570.671 640.282 570.444C640.01 570.051 639.666 569.629 637.597 567.892C636.747 567.165 637.119 567.515 634.541 565.438C633.363 564.495 633.03 564.21 632.359 564.021C631.577 563.737 630.147 563.538 629.686 564.264Z"/><path fill="#E7EEB4" d="M655.649 471.901C656.689 471.509 657.573 471.337 662.101 470.983C665.429 470.723 664.989 470.827 665.532 470.715C667.612 470.38 668.575 469.891 669.924 470.373C670.209 470.488 671.347 470.917 671.443 471.704C671.536 472.456 670.656 473.111 670.297 473.381C668.86 474.425 667.411 474.435 663.898 474.537C663.037 474.569 660.282 474.646 657.091 475.344C656.31 475.509 655.4 475.787 654.873 476.553C654.628 476.952 654.489 477.377 654.528 479.652C654.578 482.064 654.732 482.708 654.234 483.403C653.923 483.841 653.306 484.338 652.712 484.246C652.504 484.228 652.079 484.089 651.521 483.131C650.487 481.383 650.579 479.477 650.623 478.714C650.67 477.985 650.756 476.874 651.38 475.583C651.915 474.471 652.618 473.76 652.811 473.573C653.23 473.195 654.005 472.513 655.649 471.901Z"/><path fill="#E7EEB4" d="M676.488 472.655C675.659 472.651 674.516 472.153 674.451 471.33C674.353 470.509 675.331 469.777 676.146 469.61C677.234 469.387 678.631 470.037 678.698 470.895C678.73 471.755 677.557 472.641 676.488 472.655Z"/><path fill="#E7EEB4" d="M777.807 591.257C777.964 590.174 777.96 589.242 777.395 584.661C776.996 581.309 776.996 581.758 776.953 581.209C776.856 579.077 777.153 578.018 776.402 576.799C776.243 576.536 775.609 575.481 774.82 575.542C774.099 575.598 773.625 576.602 773.451 577.03C772.748 578.638 773.001 580.103 773.62 583.61C773.755 584.462 774.247 587.22 774.229 590.535C774.225 591.364 774.16 592.301 773.491 593.009C773.172 593.344 772.773 593.548 770.562 593.962C768.213 594.387 767.556 594.369 766.987 595.035C766.639 595.442 766.278 596.126 766.498 596.73C766.582 596.931 766.786 597.329 767.816 597.698C769.733 598.376 771.525 597.891 772.269 597.695C772.944 597.504 774.026 597.213 775.165 596.33C776.141 595.563 776.665 594.763 776.818 594.509C777.084 593.936 777.566 593.036 777.807 591.257Z"/><path fill="#E7EEB4" d="M774.193 571.484C773.364 571.48 772.22 570.982 772.156 570.159C772.057 569.338 773.036 568.606 773.851 568.439C774.938 568.216 776.335 568.866 776.402 569.724C776.435 570.584 775.262 571.47 774.193 571.484Z"/><path fill="#303131" d="M690.001 532.07C692.016 533.57 694.866 533.153 696.367 531.138C697.868 529.123 697.451 526.273 695.435 524.772C693.42 523.271 690.57 523.688 689.069 525.703C687.568 527.719 687.985 530.569 690.001 532.07Z"/><path fill="#303131" d="M726.224 530.742C728.271 532.095 731.028 531.533 732.381 529.486C733.735 527.439 733.172 524.682 731.125 523.328C729.078 521.975 726.321 522.538 724.968 524.585C723.614 526.632 724.177 529.389 726.224 530.742Z"/><path stroke="#303131" stroke-linecap="round" stroke-linejoin="round" stroke-width="3.786" d="M709.469 527.209C709.469 527.209 707.065 536.339 708.075 537.013C709.088 537.683 711.299 537.686 711.299 537.686"/><path stroke="#303131" stroke-linecap="round" stroke-linejoin="round" stroke-width="4.13" d="M741.817 514.379C740.797 512.651 738.686 509.645 735.091 507.627C731.701 505.725 728.535 505.566 726.741 505.642"/><path stroke="#303131" stroke-linecap="round" stroke-linejoin="round" stroke-width="4.13" d="M681.774 510.692C683.022 509.304 685.501 506.952 689.157 505.767C692.604 504.649 695.529 505.077 697.156 505.47"/><path fill="#94B259" stroke="#303131" stroke-linecap="round" stroke-linejoin="round" stroke-width="3.786" d="M726.626 543.324C725.903 542.29 721.686 545.012 715.112 546.494C707.909 548.125 704.271 546.821 703.235 548.275C702.269 549.644 704.647 551.985 706.796 552.936C707.08 553.06 708.268 553.562 710.11 553.699C711.708 553.82 713.058 553.605 713.606 553.51C714.377 553.37 715.801 553.061 717.516 552.306C721.466 550.571 723.852 547.86 724.389 547.228C725.567 545.842 727.113 544.028 726.626 543.324Z"/><path fill="#000" fill-opacity=".17" d="M796.288 641.467C796.572 650.923 736.028 671.625 653.391 675.642C565.015 685.398 513.654 676.718 513.37 667.262C513.086 657.806 607.236 642.855 653.391 641.468C699.545 640.081 796.004 632.011 796.288 641.467Z"/><path fill="#D9D9D9" stroke="#fff" stroke-width="1.297" d="M642.943 623.187L642.92 622.539L642.885 622.54L642.851 622.545L642.943 623.187ZM642.943 623.187C642.851 622.545 642.85 622.545 642.849 622.546L642.845 622.546L642.827 622.549L642.754 622.559L642.467 622.6C642.213 622.637 641.836 622.69 641.343 622.76C640.357 622.899 638.907 623.103 637.054 623.359C633.346 623.871 628.023 624.594 621.559 625.438C608.63 627.126 591.141 629.297 572.894 631.227C554.646 633.157 535.65 634.846 519.706 635.572C511.733 635.935 504.532 636.057 498.574 635.849C492.612 635.641 487.951 635.105 485.008 634.175C481.794 632.919 479.681 630.488 478.291 627.158C476.891 623.801 476.24 619.56 475.963 614.774C475.708 610.38 475.771 605.578 475.835 600.641C475.841 600.205 475.847 599.769 475.852 599.331C475.92 593.971 475.956 588.487 475.554 583.286C475.895 580.946 476.913 578.821 478.279 576.689C479.157 575.318 480.15 573.984 481.184 572.595C481.793 571.777 482.416 570.939 483.039 570.063C486.367 565.383 489.436 559.917 488.816 551.975C488.259 544.845 485.077 540.844 481.69 536.586C481.299 536.096 480.907 535.602 480.515 535.099C476.74 530.259 472.898 524.468 471.958 512.901C471.596 508.441 470.925 503.706 470.255 498.973C470.04 497.456 469.826 495.939 469.621 494.431C468.775 488.197 468.101 482.111 468.281 476.707C468.461 471.296 469.497 466.657 471.992 463.259C474.465 459.89 478.444 457.645 484.733 457.154C487.998 456.899 491.017 456.726 493.855 456.564C505.99 455.869 514.81 455.364 525.31 449.449C530.132 446.732 533.701 442.515 537.107 438.49C537.897 437.557 538.678 436.635 539.463 435.744C543.679 430.962 548.071 427.011 554.828 426.483C557.785 426.252 559.618 426.45 561.085 426.969C562.559 427.491 563.72 428.354 565.336 429.595L565.501 429.721C568.745 432.214 573.531 435.892 585.316 440.267L585.365 440.285L585.416 440.295C589.563 441.115 595.488 441.358 602.256 441.239C609.035 441.119 616.702 440.634 624.351 439.982C639.652 438.679 654.914 436.707 662.93 435.648C668.141 434.959 671.627 433.261 674.276 430.981C676.827 428.785 678.57 426.07 680.32 423.345L680.476 423.101C682.292 420.275 684.155 417.426 686.994 414.916C689.802 412.433 693.593 410.258 699.277 408.832C706.937 409.817 711.718 411.028 715.07 412.387C718.422 413.746 720.372 415.262 722.382 416.911C722.52 417.024 722.659 417.138 722.798 417.253C724.7 418.82 726.748 420.507 730.091 422.217C733.67 424.048 738.712 425.896 746.652 427.703L746.713 427.716L746.774 427.718C755.492 428.017 761.793 427.234 767.004 426.586C768.259 426.43 769.451 426.282 770.599 426.159C776.445 425.531 781.151 425.541 787.367 428.375C795.284 437.322 798.243 451.039 799.674 464.417C800.227 469.585 800.55 474.673 800.849 479.39C800.937 480.789 801.024 482.155 801.114 483.482C801.505 489.255 801.961 494.305 802.946 497.888C804.917 505.063 808.172 508.706 811.578 512.061C811.915 512.393 812.253 512.722 812.591 513.051C815.626 516.003 818.655 518.95 821.044 524.254C821.352 528.069 821.54 531.935 820.216 536.022C818.885 540.136 815.997 544.541 809.997 549.317C807.244 551.508 804.964 552.779 803.104 553.683C802.479 553.987 801.909 554.246 801.376 554.489C801.106 554.612 800.846 554.73 800.592 554.848C799.851 555.192 799.176 555.529 798.592 555.924C797.373 556.747 796.586 557.801 796.2 559.61C795.828 561.358 795.828 563.827 796.115 567.508C796.397 571.12 797.21 574.97 798.073 578.82C798.175 579.279 798.279 579.738 798.382 580.197C799.15 583.601 799.914 586.989 800.365 590.25C801.391 597.665 800.764 604.166 795.121 608.481C794.472 608.978 793.317 609.503 791.648 610.034C789.996 610.561 787.901 611.076 785.422 611.578C780.464 612.581 774.014 613.523 766.591 614.4C751.747 616.154 733.06 617.644 714.734 618.85C696.41 620.056 678.457 620.978 665.083 621.599C658.396 621.909 652.855 622.144 648.986 622.302C647.051 622.381 645.534 622.44 644.501 622.48C643.985 622.499 643.589 622.514 643.323 622.524L643.021 622.535L642.945 622.538L642.926 622.539L642.921 622.539C642.92 622.539 642.92 622.539 642.943 623.187Z" opacity=".4"/><rect width="295.285" height="21.732" x="496.511" y="616.759" fill="#D9D9D9" stroke="#303131" stroke-width="4.673" rx="7.009" transform="rotate(-4.95536 496.511 616.759)"/><circle cx="759.076" cy="605.307" r="6.237" fill="#FF1A1A" transform="rotate(-4.46377 759.076 605.307)"/><circle cx="759.076" cy="605.307" r="6.237" fill="#FF1A1A" transform="rotate(-4.46377 759.076 605.307)"/><circle cx="759.076" cy="605.307" r="6.237" fill="#FF1A1A" transform="rotate(-4.46377 759.076 605.307)"/><circle cx="778.688" cy="604.139" r="6.237" fill="#2E5CFF" transform="rotate(-4.46377 778.688 604.139)"/><ellipse cx="511.491" cy="586.552" fill="#303131" rx="13.498" ry="4.96" transform="rotate(-33.8416 511.491 586.552)"/><path fill="#EB93F4" d="M508.278 591.137C509.621 593.759 510.275 595.054 511.02 596.204C513.228 599.725 515.179 601.713 516 602.512C517.684 604.176 518.661 604.755 519.165 605.027C520.137 605.538 521.648 606.317 523.741 606.154C524.804 606.071 526.625 605.963 527.69 604.568C528.597 603.358 528.415 601.923 528.373 601.822C528.219 600.73 527.614 600.052 527.347 599.728C527.043 599.372 526.496 599 525.368 598.26C524.75 597.859 524.351 597.614 523.881 597.341C523.411 597.067 523.052 596.887 523.015 596.856C520.022 595.225 517.188 591.201 517.188 591.201C515.052 588.157 513.748 585.153 513.748 585.153"/><path stroke="#303131" stroke-linecap="round" stroke-linejoin="round" stroke-width="3.786" d="M508.278 591.137C509.621 593.759 510.275 595.054 511.02 596.204C513.228 599.725 515.179 601.713 516 602.512C517.684 604.176 518.661 604.755 519.165 605.027C520.137 605.538 521.648 606.317 523.741 606.154C524.804 606.071 526.625 605.963 527.69 604.568C528.597 603.358 528.415 601.923 528.373 601.822C528.219 600.73 527.614 600.052 527.347 599.728C527.043 599.372 526.496 599 525.368 598.26C524.75 597.859 524.351 597.614 523.881 597.341C523.411 597.067 523.052 596.887 523.015 596.856C520.022 595.225 517.188 591.201 517.188 591.201C515.052 588.157 513.748 585.153 513.748 585.153"/><ellipse cx="792.185" cy="546.67" fill="#303131" rx="5.162" ry="13.07" transform="rotate(56.0567 792.185 546.67)"/><path fill="#E9FFC5" stroke="#303131" stroke-linecap="round" stroke-linejoin="round" stroke-width="3.786" d="M804.027 554.354C806.175 557.944 807.006 560.616 807.333 561.702C807.993 563.966 807.977 565.08 807.952 565.653C807.899 566.739 807.789 568.431 806.436 570.16C805.745 571.056 804.62 572.587 802.67 572.86C800.992 573.081 799.714 572.219 799.606 572.167C798.657 571.519 798.312 570.644 798.178 570.264C798.006 569.826 797.954 569.169 797.886 567.852C797.864 567.132 797.827 566.654 797.82 566.113C797.812 565.572 797.816 565.181 797.846 565.119C797.96 561.712 795.683 557.35 795.683 557.35C793.973 554.057 791.767 551.493 791.767 551.493C790.284 549.775 789.063 548.758 789.46 547.644C789.716 546.933 790.513 546.51 792.11 545.694C793.704 544.848 794.503 544.454 795.298 544.453C796.541 544.416 797.507 545.272 800.717 549.622C802.423 551.984 803.312 553.177 804.027 554.354Z"/><path fill="#000" fill-opacity=".17" d="M1001.27 821.218C1001.91 828.53 1044.3 846.478 1086.59 842.779C1128.88 839.079 1183.73 828.692 1183.09 821.38C1182.45 814.068 1133.07 815.376 1086.41 814.442C1044.12 818.142 1000.63 813.906 1001.27 821.218Z"/><path fill="#76D3EF" stroke="#303131" stroke-linecap="round" stroke-linejoin="round" stroke-width="3.948" d="M1184.43 724.339C1189.29 731.653 1184.34 741.173 1193.25 750.476C1199.75 757.262 1206.49 756.493 1209.11 763.306C1211.56 769.648 1208.9 778.607 1203.61 781.507C1198.17 784.478 1194.12 778.784 1188.25 780.952C1178.17 784.67 1181.72 804.562 1172.3 808.317C1165.89 810.862 1162.98 802.172 1151.89 802.205C1141.35 802.238 1130.34 810.136 1119.55 817.89C1115.99 820.458 1112.47 823.312 1107.63 823.043C1102.59 822.767 1098.02 819.202 1095.49 817.212C1092.13 814.594 1091.72 813.354 1089.65 811.543C1079.86 803.01 1067.25 811.416 1058.84 803.193C1056.84 801.241 1055.02 798.305 1052.95 794.929C1049.21 788.861 1049.37 787.193 1047.04 785.794C1043.64 783.761 1041.47 786.222 1034.15 785.764C1029.91 785.492 1024.06 785.252 1021.46 781.391C1020.15 779.445 1020.14 777.316 1020.13 773.551C1020.13 771.312 1020.12 767.27 1021.71 764.217C1024.66 758.57 1032.53 757.313 1034.7 756.913C1063.73 751.578 1167.37 698.684 1184.43 724.349L1184.43 724.339Z"/><path fill="#307C93" d="M1114.64 731.035C1119.81 743.623 1121.01 753.486 1121.1 760.35C1121.15 764.282 1120.85 769.4 1123.78 774.999C1125.37 778.068 1126.5 778.531 1133.68 785.471C1144.29 795.741 1145.41 798.205 1150.43 799.799C1154.68 801.141 1155.15 799.784 1159.18 801.526C1164.39 803.77 1167.2 807.608 1170.96 806.72C1171.94 806.492 1172.66 806.022 1173.11 805.676C1164.05 800.191 1152.58 791.067 1146.63 776.246C1145.5 773.455 1145.09 771.73 1144.44 769.672C1141.26 759.73 1133.78 746.187 1114.65 731.045L1114.64 731.035Z"/><path fill="#467C93" stroke="#303131" stroke-linecap="round" stroke-linejoin="round" stroke-width="2.972" d="M1030.71 691.854C1033.21 705.229 1032.38 715.142 1031.07 721.866C1030.31 725.725 1028.98 730.675 1030.7 736.754C1031.54 739.719 1033.78 742.815 1038.26 749.016C1039.53 750.784 1046.75 760.705 1051.36 762.753C1051.72 762.915 1053.23 763.548 1054.97 764.801C1055.32 765.052 1056.26 765.766 1057.39 766.873C1058.73 768.213 1059.46 769.279 1059.95 769.933C1063.67 774.763 1069.92 776.203 1070.31 776.284C1071.48 776.538 1072.45 776.608 1073.06 776.636C1065.17 769.482 1055.64 758.289 1052.81 742.623C1052.28 739.661 1052.22 737.879 1052 735.734C1050.92 725.353 1046.35 710.573 1030.71 691.844L1030.71 691.854Z"/><path fill="#307C93" d="M1150.22 716.653C1150.38 725.676 1150.97 734.729 1150.6 743.712C1150.42 747.787 1151.04 751.035 1152.4 753.781C1154.26 757.539 1157.05 759.791 1159.8 761.728C1174.83 772.305 1182.6 769.762 1190.81 776.494C1192.09 777.548 1196.07 781.025 1200.79 780.446C1201.47 780.363 1202.02 780.213 1202.37 780.097C1193.64 772.425 1183.89 762.802 1174.12 750.98C1164.02 738.748 1156.22 726.966 1150.22 716.653Z"/><path fill="#307C93" d="M1065.31 736.112C1067.81 749.486 1066.98 759.4 1065.66 766.124C1064.91 769.983 1063.58 774.933 1065.3 781.011C1066.14 783.977 1068.38 787.072 1072.85 793.274C1074.13 795.042 1081.35 804.963 1085.96 807.011C1086.32 807.172 1087.83 807.806 1089.57 809.059C1089.92 809.31 1090.86 810.024 1091.99 811.131C1093.33 812.471 1094.05 813.537 1094.55 814.19C1098.27 819.02 1104.52 820.461 1104.9 820.542C1106.08 820.796 1107.05 820.866 1107.66 820.893C1099.76 813.74 1090.24 802.547 1087.41 786.881C1086.87 783.919 1086.82 782.137 1086.6 779.992C1085.52 769.611 1080.95 754.831 1065.31 736.102L1065.31 736.112Z"/><path fill="#FFA295" d="M1115.94 777.469C1130.42 798.635 1140.82 813.913 1142.34 816.515C1142.52 816.821 1143.17 817.969 1144.62 818.936C1145.11 819.255 1146.85 820.382 1149.48 820.384C1151.13 820.39 1152.35 819.901 1154.83 818.938C1158.64 817.451 1161.06 815.766 1162.48 814.633C1163.69 813.667 1164.3 813.174 1164.65 812.434C1165.62 810.403 1164.52 807.839 1162.46 806.753C1160.39 805.66 1157.72 806.258 1155.45 806.767C1153.3 807.251 1153.3 807.638 1152.31 807.696C1149.3 807.863 1147.84 804.289 1143.47 797.233C1142.36 795.446 1143.79 797.824 1137.64 788.315C1134.99 784.223 1133.65 782.15 1132.7 780.591C1131.25 778.218 1129.23 774.83 1126.96 770.604"/><path stroke="#303131" stroke-linecap="round" stroke-linejoin="round" stroke-width="3.948" d="M1115.94 777.469C1130.42 798.635 1140.82 813.913 1142.34 816.515C1142.52 816.821 1143.17 817.969 1144.62 818.936C1145.11 819.255 1146.85 820.382 1149.48 820.384C1151.13 820.39 1152.35 819.901 1154.83 818.938C1158.64 817.451 1161.06 815.766 1162.48 814.633C1163.69 813.667 1164.3 813.174 1164.65 812.434C1165.62 810.403 1164.52 807.839 1162.46 806.753C1160.39 805.66 1157.72 806.258 1155.45 806.767C1153.3 807.251 1153.3 807.638 1152.31 807.696C1149.3 807.863 1147.84 804.289 1143.47 797.233C1142.36 795.446 1143.79 797.824 1137.64 788.315C1134.99 784.223 1133.65 782.15 1132.7 780.591C1131.25 778.218 1129.23 774.83 1126.96 770.604"/><path fill="#FFA295" d="M1066.62 780.684C1056.06 803.72 1048.49 820.336 1047.45 823.143C1047.33 823.467 1046.89 824.709 1045.63 825.861C1045.2 826.248 1043.68 827.61 1041.09 827.975C1039.46 828.205 1038.16 827.894 1035.56 827.28C1031.54 826.33 1028.86 824.988 1027.26 824.066C1025.89 823.278 1025.2 822.865 1024.73 822.179C1023.42 820.3 1024.05 817.592 1025.89 816.228C1027.74 814.853 1030.48 815.073 1032.8 815.269C1035.01 815.448 1035.09 815.833 1036.06 815.752C1039.05 815.502 1039.86 811.752 1042.94 804.136C1043.72 802.212 1042.73 804.766 1047.12 794.468C1049 790.037 1049.96 787.786 1050.63 786.107C1051.65 783.553 1053.04 779.899 1054.54 775.391"/><path stroke="#303131" stroke-linecap="round" stroke-linejoin="round" stroke-width="3.948" d="M1066.62 780.684C1056.06 803.72 1048.49 820.336 1047.45 823.143C1047.33 823.467 1046.89 824.709 1045.63 825.861C1045.2 826.248 1043.68 827.61 1041.09 827.975C1039.46 828.205 1038.16 827.894 1035.56 827.28C1031.54 826.33 1028.86 824.988 1027.26 824.066C1025.89 823.278 1025.2 822.865 1024.73 822.179C1023.42 820.3 1024.05 817.592 1025.89 816.228C1027.74 814.853 1030.48 815.073 1032.8 815.269C1035.01 815.448 1035.09 815.833 1036.06 815.752C1039.05 815.502 1039.86 811.752 1042.94 804.136C1043.72 802.212 1042.73 804.766 1047.12 794.468C1049 790.037 1049.96 787.786 1050.63 786.107C1051.65 783.553 1053.04 779.899 1054.54 775.391"/><path fill="#FE563E" stroke="#303131" stroke-linecap="round" stroke-linejoin="round" stroke-width="4.343" d="M1078.2 640.31C1077.11 638.529 1059.63 610.881 1029.84 611.446C1014.93 611.724 1004.45 618.938 1000.87 621.674C980.543 637.209 977.562 664.998 981.099 683.365C983.796 697.349 990.808 708.652 1006.16 725.098C1022.72 742.838 1050.35 768.024 1092.92 790.208L1154.8 740.902C1154.8 740.902 1190 714.312 1194.97 685.254C1195.96 679.429 1199.11 669.162 1197.3 655.912C1196.39 649.322 1193.74 631.552 1178.45 617.146C1174.58 613.488 1161.09 601.76 1140.52 600.824C1123.47 600.045 1111.2 607.106 1105.6 610.428C1089.13 620.198 1081.23 634.157 1078.2 640.31Z"/><path fill="#AF3322" d="M994.162 631.356C992.349 639.783 990.277 655.591 994.85 674.234C1000.45 697.028 1013.07 711.716 1019.24 718.062L1051.65 751.118L1092.65 787.738C1088.61 785.481 1084.58 783.233 1080.53 780.976C1069.55 774.528 1057.8 766.896 1045.67 757.865C1037.04 751.45 1029.18 745.028 1022.03 738.781C1014.04 730.52 1006.04 722.258 998.052 713.987C994.289 707.642 990.724 702.211 986.961 695.866C985.295 691.556 983.996 688.034 982.692 683.741C981.311 677.091 981.155 662.219 985.383 646.537C987.712 640.183 991.331 634.919 994.162 631.356Z"/><path fill="#F58E86" d="M1184.85 652.546C1186.49 651.798 1187.17 651.241 1186.81 649.545C1184.94 640.804 1180.31 633.675 1173.91 627.66C1170.48 624.449 1166.73 621.572 1163.07 618.613C1162.35 618.043 1161.4 617.666 1160.51 617.446C1158.08 616.841 1156.66 618.216 1157.57 620.526C1158.15 622.021 1160.63 623.198 1161.85 624.254C1165.63 627.537 1168.71 629.49 1172.5 633.518C1176.81 637.157 1179.43 642.133 1180.44 647.829C1180.88 650.287 1181.58 652.819 1184.85 652.546Z"/><path fill="#F58E86" d="M1147.73 611.505C1147.39 611.906 1147.33 613.334 1147.78 614.264C1148.91 616.592 1152.06 617.838 1153.38 616.677C1154.62 615.597 1155.12 614.725 1154.11 612.793C1152.07 611.111 1149.22 610.309 1147.95 611.291L1147.73 611.505Z"/><path stroke="#303131" stroke-linecap="round" stroke-linejoin="round" stroke-width="4.343" d="M1079.51 640.372C1078.42 638.59 1060.94 610.942 1031.15 611.507C1016.24 611.786 1005.76 618.999 1002.18 621.736C981.853 637.27 978.871 665.06 982.409 683.426C985.105 697.411 992.118 708.713 1007.47 725.16C1024.03 742.899 1051.66 768.086 1094.23 790.269L1156.11 740.964C1156.11 740.964 1191.31 714.373 1196.28 685.316C1197.27 679.49 1200.42 669.223 1198.61 655.974C1197.7 649.384 1195.05 631.614 1179.76 617.207C1175.89 613.55 1162.4 601.822 1141.83 600.885C1124.78 600.106 1112.51 607.168 1106.91 610.489C1090.44 620.26 1082.54 634.218 1079.51 640.372Z"/><path fill="#76D3EF" stroke="#303131" stroke-linecap="round" stroke-linejoin="round" stroke-width="3.948" d="M1182.2 722.601L1180.17 715.37L1132.67 732.636L1085.17 749.912L1134.71 739.867L1184.24 729.832L1182.2 722.601Z"/><path fill="#76D3EF" stroke="#303131" stroke-linecap="round" stroke-linejoin="round" stroke-width="3.948" d="M1002.65 723.473C1005.64 727.138 1008.64 730.794 1011.63 734.459C1022.88 736.949 1034.11 739.449 1045.36 741.939L1090.77 752.008L1048.07 733.543C1031.74 726.914 1015.42 720.275 999.09 713.647C997.435 713.105 996.454 713.095 996.137 713.607C995.485 714.66 997.651 717.955 1002.66 723.473L1002.65 723.473Z"/><path fill="#F2C639" stroke="#303131" stroke-linecap="round" stroke-linejoin="round" stroke-width="3.948" d="M1087.57 754.749C1093.53 754.659 1098.48 751.321 1098.53 747.357C1098.57 743.324 1093.12 739.638 1087.25 739.736C1081.9 739.833 1076.48 743.805 1076.52 747.608C1076.56 751.501 1081.72 754.836 1087.57 754.749Z"/><path stroke="#303131" stroke-linecap="round" stroke-linejoin="round" stroke-width="5.003" d="M1122 675.536C1120.32 674.057 1117.04 671.583 1112.41 670.557C1108.05 669.59 1104.48 670.35 1102.51 670.951"/><path stroke="#303131" stroke-linecap="round" stroke-linejoin="round" stroke-width="5.003" d="M1053.49 675.673C1055.31 674.252 1058.85 671.925 1063.56 671.286C1068 670.684 1071.46 671.855 1073.35 672.697"/><path fill="#303131" d="M1109.31 692.631C1106.26 692.692 1103.74 690.267 1103.68 687.215C1103.62 684.163 1106.04 681.639 1109.09 681.578C1112.14 681.517 1114.67 683.942 1114.73 686.994C1114.79 690.046 1112.36 692.57 1109.31 692.631Z"/><path fill="#303131" d="M1065.89 693.498C1062.84 693.559 1060.32 691.135 1060.26 688.082C1060.2 685.03 1062.62 682.507 1065.67 682.446C1068.72 682.385 1071.25 684.81 1071.31 687.862C1071.37 690.914 1068.95 693.437 1065.89 693.498Z"/><path fill="#F58E85" stroke="#303131" stroke-linecap="round" stroke-linejoin="round" stroke-width="4.343" d="M1101.54 706.919C1100.5 705.093 1095.82 708.002 1088.09 708.27C1079.61 708.569 1075 705.435 1073.98 707.37C1073.02 709.189 1076.28 713.533 1079.03 715.66C1079.4 715.942 1080.92 717.079 1083.17 717.858C1085.13 718.536 1086.73 718.626 1087.38 718.636C1088.29 718.663 1089.97 718.614 1091.92 717.98C1096.43 716.517 1098.89 713.066 1099.45 712.254C1100.66 710.483 1102.25 708.156 1101.54 706.919Z"/><path stroke="#303131" stroke-linecap="round" stroke-linejoin="round" stroke-width="4.343" d="M1085.22 692.322C1082.48 696.098 1085.8 698.1 1085.8 698.1"/><path fill="#fff" d="M1190.1 657.458C1192.38 658.376 1192.62 657.023 1192.86 655.366C1194.06 646.809 1192.25 638.81 1188.48 631.281C1186.46 627.248 1184.03 623.408 1181.72 619.538C1181.28 618.787 1180.53 618.142 1179.8 617.647C1177.81 616.313 1176.08 617.111 1176.13 619.5C1176.17 621.058 1176.68 622.718 1177.42 624.078C1179.73 628.287 1182.33 632.334 1184.7 636.52C1187.38 641.229 1188.66 646.234 1187.69 651.748C1187.28 654.129 1187.07 656.644 1190.1 657.458Z"/><path fill="#fff" d="M1189.62 667.924C1189.21 668.182 1188.06 668.485 1187.68 669.205C1186.74 671.003 1187.39 673.549 1188.73 673.837C1189.98 674.105 1191.42 674.309 1192.09 672.683C1192.8 670.967 1191.93 668.891 1189.64 667.93L1189.62 667.924Z"/><path fill="#D9D9D9" stroke="#fff" stroke-width="3.501" d="M1071.82 611.007L1071.82 611.006L1071.82 611.003L1071.8 610.987C1071.79 610.971 1071.76 610.946 1071.73 610.912C1071.67 610.845 1071.58 610.742 1071.45 610.607C1071.19 610.338 1070.81 609.939 1070.3 609.436C1069.28 608.429 1067.78 607.004 1065.84 605.346C1061.95 602.028 1056.34 597.798 1049.43 594.14C1035.6 586.824 1016.72 581.86 995.992 590.827C975.075 599.875 964.679 613.776 959.715 627.639C954.727 641.571 955.19 655.574 956.228 664.766C957.228 673.617 961.946 686.005 969.642 699.675C977.315 713.305 987.867 728.063 1000.38 741.635C1025.48 768.86 1058.13 790.948 1090.99 790.194C1124.16 789.432 1151.05 776.726 1171.2 755.616C1191.37 734.498 1204.87 704.89 1211.08 670.231C1212.6 641.578 1209.52 623.039 1202.22 609.933C1194.93 596.867 1183.29 588.928 1166.99 581.819C1141.39 570.651 1118.36 577.815 1101.58 587.919C1093.19 592.971 1086.4 598.737 1081.71 603.244C1079.37 605.495 1077.56 607.428 1076.33 608.793C1075.72 609.475 1075.25 610.015 1074.94 610.382C1074.79 610.565 1074.67 610.705 1074.6 610.798C1074.56 610.844 1074.53 610.878 1074.51 610.901L1074.5 610.925L1074.49 610.929L1074.49 610.93L1074.49 610.93L1073.2 612.547L1071.82 611.007L1071.82 611.007Z" opacity=".4"/><rect width="141.535" height="25.906" x="-1.282" y="1.343" fill="#D9D9D9" stroke="#303131" stroke-width="2.626" rx="7.44" transform="matrix(-0.999737 0.0229481 0.0229481 0.999737 1158.68 767.829)"/><circle r="6.007" fill="#FF1A1A" transform="matrix(-0.999737 0.0229481 0.0229481 0.999737 1052.03 785.328)"/><circle r="6.007" fill="#FF1A1A" transform="matrix(-0.999737 0.0229481 0.0229481 0.999737 1052.03 785.328)"/><circle r="6.007" fill="#FF1A1A" transform="matrix(-0.999737 0.0229481 0.0229481 0.999737 1052.03 785.328)"/><circle r="6.007" fill="#2E5CFF" transform="matrix(-0.999737 0.0229481 0.0229481 0.999737 1032.51 785.776)"/><ellipse fill="#303131" rx="8.183" ry="24.548" transform="matrix(-0.960344 -0.278818 -0.278818 0.960344 1176.3 716.765)"/><ellipse cx="1002.59" cy="725.796" fill="#303131" rx="8.183" ry="24.548" transform="rotate(-44.6552 1002.59 725.796)"/><path fill="#FFB9AF" stroke="#303131" stroke-linecap="round" stroke-linejoin="round" stroke-width="3.05" d="M1194.57 716.015C1199.39 713.572 1202.23 711.281 1203.36 710.327C1205.74 708.322 1206.59 707.141 1207.01 706.5C1207.78 705.3 1208.97 703.418 1209.03 700.67C1209.07 699.255 1209.18 696.882 1207.48 695.309C1206.03 693.973 1204.15 694.032 1204 694.036C1202.59 694.103 1201.6 694.82 1201.18 695.126C1200.68 695.484 1200.11 696.14 1199.05 697.51C1198.46 698.257 1198.06 698.766 1197.65 699.336C1197.24 699.906 1196.94 700.341 1196.89 700.413C1194.37 704.12 1188.83 707.304 1188.83 707.304C1184.64 709.711 1180.61 710.995 1180.59 711.006C1180.59 711.006 1178.08 711.833 1176.35 713.485C1176.17 713.652 1176.87 711.972 1175.89 713.995C1172.99 717.406 1174.02 715.941 1174.02 715.941C1171.84 718.825 1172.63 720.287 1172.74 720.508C1173.55 722.003 1177.42 722.673 1187.67 718.93C1189.58 718.229 1191.81 717.409 1194.56 716.006L1194.57 716.015Z"/><path fill="#FFB9AF" stroke="#303131" stroke-linecap="round" stroke-linejoin="round" stroke-width="3.05" d="M979.846 726.905C974.493 726.171 971.06 724.934 969.676 724.402C966.772 723.286 965.588 722.445 964.981 721.976C963.859 721.095 962.117 719.706 961.161 717.129C960.666 715.803 959.785 713.597 960.876 711.555C961.808 709.819 963.604 709.26 963.75 709.214C965.106 708.816 966.275 709.171 966.771 709.323C967.36 709.499 968.116 709.931 969.568 710.878C970.362 711.395 970.91 711.744 971.486 712.148C972.062 712.552 972.482 712.867 972.552 712.919C976.143 715.599 982.422 716.797 982.422 716.797C987.168 717.703 991.402 717.598 991.424 717.601C991.424 717.601 994.058 717.566 996.24 718.559C996.464 718.659 996.614 718.761 996.837 718.893C1000.69 721.168 1003.16 722.809 1003.16 722.809C1006.16 724.821 1007.67 725.827 1007.63 726.074C1007.36 727.749 998.23 727.593 987.322 727.404C985.284 727.368 982.911 727.32 979.853 726.893L979.846 726.905Z"/><path fill="#000" fill-opacity=".17" d="M516.028 775.377C519.055 782.191 486.705 805.837 453.448 820.612C420.191 835.387 382.336 841.931 379.309 835.118C376.282 828.304 409.23 810.713 442.487 795.938C475.744 781.163 513.001 768.564 516.028 775.377Z"/><path fill="#FFE89C" d="M421.825 751.689C419.622 785.327 418.079 809.577 418.079 813.561C418.077 814.029 418.106 815.775 417.169 817.786C416.856 818.46 415.71 820.854 412.924 822.505C411.184 823.542 409.568 823.75 406.365 824.168C401.402 824.814 397.8 824.37 395.601 823.945C393.71 823.582 392.759 823.379 391.935 822.745C389.65 820.996 389.22 817.324 390.731 814.769C392.243 812.2 395.44 811.228 398.158 810.41C400.747 809.626 400.987 810.081 402.058 809.526C405.356 807.852 404.675 802.774 404.938 791.843C405.002 789.082 404.966 792.724 405.583 777.831C405.852 771.424 405.976 768.171 406.031 765.764C406.097 762.095 406.132 756.907 405.914 750.582"/><path stroke="#303131" stroke-linecap="round" stroke-linejoin="round" stroke-width="4.423" d="M421.825 751.689C419.622 785.327 418.079 809.577 418.079 813.561C418.077 814.029 418.106 815.775 417.169 817.786C416.856 818.46 415.71 820.854 412.924 822.505C411.184 823.542 409.568 823.75 406.365 824.168C401.402 824.814 397.8 824.37 395.601 823.945C393.71 823.582 392.759 823.379 391.935 822.745C389.65 820.996 389.22 817.324 390.731 814.769C392.243 812.2 395.44 811.228 398.158 810.41C400.747 809.626 400.987 810.081 402.058 809.526C405.356 807.852 404.675 802.774 404.938 791.843C405.002 789.082 404.966 792.724 405.583 777.831C405.852 771.424 405.976 768.171 406.031 765.764C406.097 762.095 406.132 756.907 405.914 750.582"/><path fill="#FFE89C" d="M434.411 744.409C456.118 770.2 471.731 788.819 474.093 792.028C474.371 792.404 475.382 793.828 477.328 794.892C477.98 795.25 480.322 796.499 483.544 796.178C485.56 795.982 486.985 795.192 489.814 793.631C494.193 791.21 496.832 788.718 498.351 787.073C499.66 785.66 500.306 784.933 500.594 783.934C501.397 781.171 499.568 777.958 496.837 776.796C494.097 775.622 490.946 776.734 488.272 777.686C485.722 778.588 485.798 779.097 484.606 779.285C480.957 779.89 478.497 775.397 471.808 766.747C470.121 764.561 472.307 767.474 462.986 755.842C458.972 750.841 456.945 748.294 455.474 746.387C453.247 743.471 450.144 739.313 446.572 734.089"/><path stroke="#303131" stroke-linecap="round" stroke-linejoin="round" stroke-width="4.423" d="M434.411 744.409C456.118 770.2 471.731 788.819 474.093 792.028C474.371 792.404 475.382 793.828 477.328 794.892C477.98 795.25 480.322 796.499 483.544 796.178C485.56 795.982 486.985 795.192 489.814 793.631C494.193 791.21 496.832 788.718 498.351 787.073C499.66 785.66 500.306 784.933 500.594 783.934C501.397 781.171 499.568 777.958 496.837 776.796C494.097 775.622 490.946 776.734 488.272 777.686C485.722 778.588 485.798 779.097 484.606 779.285C480.957 779.89 478.497 775.397 471.808 766.747C470.121 764.561 472.307 767.474 462.986 755.842C458.972 750.841 456.945 748.294 455.474 746.387C453.247 743.471 450.144 739.313 446.572 734.089"/><path fill="#AE8C1D" stroke="#303131" stroke-linecap="round" stroke-linejoin="round" stroke-width="4.423" d="M445.259 763.587C406.784 784.811 359.353 772.574 339.318 736.255C319.283 699.936 334.232 653.288 372.707 632.064C411.182 610.84 458.613 623.077 478.648 659.396C498.682 695.716 483.734 742.363 445.259 763.587Z"/><path fill="#FFD13C" stroke="#303131" stroke-linecap="round" stroke-linejoin="round" stroke-width="4.423" d="M433.449 769.459C472.794 758.118 495.376 716.614 483.888 676.759C472.399 636.903 431.19 613.787 391.845 625.129C352.5 636.47 329.918 677.974 341.406 717.829C352.895 757.685 394.104 780.801 433.449 769.459Z"/><path stroke="#303131" stroke-linecap="round" stroke-linejoin="round" stroke-width="4.423" d="M338.334 700.016L333.328 700.434"/><path stroke="#303131" stroke-linecap="round" stroke-linejoin="round" stroke-width="4.423" d="M337.627 711.863L331.271 712.411"/><path stroke="#303131" stroke-linecap="round" stroke-linejoin="round" stroke-width="4.423" d="M342.048 723.099L335.552 723.66"/><path stroke="#303131" stroke-linecap="round" stroke-linejoin="round" stroke-width="4.423" d="M347.256 732.654L339.653 734.488"/><path stroke="#303131" stroke-linecap="round" stroke-linejoin="round" stroke-width="4.423" d="M353.285 742.274L344.807 744.155"/><path stroke="#303131" stroke-linecap="round" stroke-linejoin="round" stroke-width="4.423" d="M361.227 751.421L353.531 753.291"/><path fill="#A88E3F" stroke="#303131" stroke-linecap="round" stroke-linejoin="round" stroke-width="4.423" d="M425.815 729.813C418.209 737.661 405.359 737.329 400.386 729.838C399.733 728.848 399.807 727.471 399.548 726.265C400.236 726.199 400.949 726.067 401.656 725.966C402.634 725.832 403.383 725.925 403.682 725.942C406.633 726.063 409.37 726.158 410.91 724.654C411.093 724.469 410.879 724.648 412.153 722.425C413.301 720.43 413.974 719.544 415.092 718.927C415.307 718.806 415.538 718.739 415.797 718.665C417.578 718.151 418.334 719.598 421.317 719.371C422.009 719.319 423.164 719.236 424.387 718.575C426.526 717.413 426.367 715.839 428.02 715.186C428.142 715.15 428.266 715.07 428.466 714.998C429.785 714.618 430.918 715.175 432.574 715.861C434.129 716.503 434.917 716.835 435.331 716.893C438.232 717.352 441.493 715.072 443.181 713.879C444.186 713.177 444.985 712.372 445.735 712.774C446.533 713.192 447.198 714.223 447.284 715.082C448.048 723.507 437.978 731.594 428.424 730.283C427.52 730.161 426.651 729.955 425.824 729.795L425.815 729.813Z"/><path stroke="#303131" stroke-linecap="round" stroke-linejoin="round" stroke-width="4.423" d="M374.223 685.325C376.884 683.365 380.521 680.858 387.347 678.891C394.173 676.923 398.769 677.233 402.085 677.544"/><path stroke="#303131" stroke-linecap="round" stroke-linejoin="round" stroke-width="4.423" d="M420.85 702.343C421.253 702.475 421.95 702.782 422.524 703.449C423.72 704.832 423.938 707.23 422.766 708.627C422.274 709.22 421.639 709.49 421.199 709.62"/><path fill="#AE8C1D" d="M423.65 768.532C423.44 767.909 427.701 766.392 436.961 761.216C443.203 757.731 448.179 754.61 451.481 752.474L450.738 752.961C454.265 750.38 458.387 746.898 462.545 742.267C466.401 737.965 469.315 733.768 471.487 730.165C473.332 727.522 474.75 725.184 475.781 723.398C479.365 717.079 481.628 711.186 482.385 708.856C482.535 708.403 482.871 707.425 483.549 705.483C484.36 703.138 484.61 702.473 484.722 702.502C484.882 702.547 484.626 704.215 484.512 704.993C483.32 712.764 483.849 712.247 482.972 716.51C482.318 719.661 481.576 722.092 480.943 724.189C480.502 725.622 479.869 727.718 479.22 729.349C477.743 733.116 475.711 735.722 472.6 739.338C467.964 744.715 465.505 747.732 461.235 751.515C458.526 753.922 453.985 757.889 447.603 761.399C436.074 767.745 424.034 769.56 423.685 768.552L423.65 768.532Z"/><path fill="#303131" d="M361.042 712.215C361.064 712.209 361.074 712.173 361.063 712.135C361.052 712.098 361.025 712.073 361.003 712.079C360.98 712.086 360.97 712.121 360.981 712.159C360.992 712.197 361.019 712.222 361.042 712.215Z"/><path stroke="#303131" stroke-linecap="round" stroke-linejoin="round" stroke-width="4.423" d="M337.058 708.568C337.096 708.557 337.117 708.518 337.107 708.48C337.096 708.442 337.056 708.421 337.019 708.432C336.981 708.442 336.959 708.482 336.97 708.519C336.981 708.557 337.02 708.579 337.058 708.568Z"/><path stroke="#303131" stroke-linecap="round" stroke-linejoin="round" stroke-width="4.423" d="M398.216 715.705C404.697 713.837 408.415 706.995 406.521 700.424C404.627 693.853 397.837 690.04 391.356 691.908C384.875 693.777 381.157 700.618 383.051 707.189C384.945 713.761 391.735 717.573 398.216 715.705Z"/><path stroke="#303131" stroke-linecap="round" stroke-linejoin="round" stroke-width="4.423" d="M424.719 671C427.688 669.551 432.53 667.617 438.786 667.034C445.141 666.441 450.32 667.46 453.525 668.363"/><path fill="#FFE89C" d="M348.148 703.605C347.082 704.354 346.801 703.684 346.486 702.847C344.884 698.566 344.879 694.208 345.954 689.863C346.52 687.535 347.325 685.27 348.078 682.976C348.217 682.539 348.521 682.112 348.849 681.768C349.716 680.84 350.702 681.042 350.942 682.284C351.101 683.092 351.027 684.012 350.802 684.813C350.096 687.27 349.227 689.671 348.49 692.122C347.665 694.878 347.584 697.611 348.712 700.35C349.2 701.534 349.596 702.805 348.13 703.595L348.148 703.605Z"/><path fill="#FFE89C" d="M352.422 674.39C352.704 674.603 353.494 674.891 353.719 675.415C354.278 676.741 353.668 678.508 352.704 678.638C351.812 678.763 350.766 678.814 350.39 677.612C349.998 676.355 350.724 674.938 352.422 674.39Z"/><path stroke="#303131" stroke-linecap="round" stroke-linejoin="round" stroke-width="4.423" d="M371.854 760.169L363.807 761.812"/><path fill="#303131" d="M395.925 708.677C398.463 707.945 399.921 705.27 399.181 702.702C398.44 700.133 395.782 698.644 393.244 699.376C390.705 700.108 389.248 702.783 389.988 705.351C390.729 707.92 393.387 709.409 395.925 708.677Z"/><path fill="#303131" d="M380.707 722.433C382.027 722.053 382.785 720.662 382.4 719.327C382.015 717.992 380.633 717.218 379.314 717.598C377.994 717.979 377.237 719.369 377.622 720.704C378.006 722.039 379.388 722.813 380.707 722.433Z"/><path fill="#303131" d="M368.617 726.207C369.936 725.827 370.694 724.436 370.309 723.101C369.924 721.766 368.542 720.992 367.223 721.372C365.904 721.753 365.146 723.143 365.531 724.478C365.916 725.813 367.297 726.587 368.617 726.207Z"/><path fill="#303131" d="M356.222 725.481C357.542 725.101 358.299 723.711 357.914 722.375C357.53 721.04 356.148 720.266 354.829 720.647C353.509 721.027 352.751 722.418 353.136 723.753C353.521 725.088 354.903 725.862 356.222 725.481Z"/><path fill="#303131" d="M346.269 719.721C347.589 719.34 348.346 717.95 347.961 716.615C347.577 715.28 346.195 714.506 344.876 714.886C343.556 715.266 342.799 716.657 343.183 717.992C343.568 719.327 344.95 720.101 346.269 719.721Z"/><path fill="#303131" d="M439.821 698.486C442.359 697.754 443.817 695.079 443.077 692.51C442.336 689.942 439.678 688.453 437.14 689.184C434.601 689.916 433.144 692.591 433.884 695.16C434.625 697.728 437.283 699.217 439.821 698.486Z"/><path fill="#fff" d="M313.538 694.188C311.926 695.619 311.329 694.572 310.641 693.275C307.127 686.562 306.263 679.422 307.158 672.092C307.634 668.166 308.511 664.278 309.278 660.4C309.423 659.649 309.849 658.896 310.306 658.273C311.556 656.584 313.218 656.734 313.881 658.721C314.309 660.019 314.378 661.54 314.167 662.882C313.502 667.039 312.546 671.148 311.821 675.305C310.999 679.984 311.417 684.494 313.845 688.762C314.887 690.607 315.8 692.623 313.538 694.188Z"/><path fill="#fff" d="M317.018 702.692C317.433 702.785 318.473 702.696 318.998 703.178C320.309 704.384 320.521 706.68 319.498 707.312C318.549 707.901 317.419 708.495 316.384 707.35C315.294 706.141 315.397 704.172 317.008 702.702L317.018 702.692Z"/><circle cx="402.547" cy="672.351" r="106.431" fill="#D9D9D9" stroke="#fff" stroke-width="4.423" opacity=".4" transform="rotate(-18.3336 402.547 672.351)"/><rect width="121.997" height="20.598" x="372.676" y="778.222" fill="#D9D9D9" stroke="#303131" stroke-width="4.423" rx="6.634" transform="rotate(-18.3336 372.676 778.222)"/><circle cx="465.277" cy="759.08" r="5.268" fill="#FF1A1A" transform="rotate(-18.3336 465.277 759.08)"/><circle cx="465.277" cy="759.08" r="5.268" fill="#FF1A1A" transform="rotate(-18.3336 465.277 759.08)"/><circle cx="465.277" cy="759.08" r="5.268" fill="#FF1A1A" transform="rotate(-18.3336 465.277 759.08)"/><circle cx="481.527" cy="753.696" r="5.268" fill="#2E5CFF" transform="rotate(-18.3336 481.527 753.696)"/><ellipse cx="345.098" cy="746.456" fill="#303131" rx="7.176" ry="21.527" transform="rotate(-35.8382 345.098 746.456)"/><ellipse fill="#303131" rx="7.176" ry="21.527" transform="matrix(-0.906259 -0.422724 -0.422724 0.906259 491.735 714.068)"/><path fill="#FFE89C" stroke="#303131" stroke-linecap="round" stroke-linejoin="round" stroke-width="4.423" d="M507.57 708.789C512.561 705.353 515.376 702.399 516.496 701.172C518.847 698.604 519.605 697.179 519.986 696.399C520.673 694.966 521.725 692.697 521.403 689.674C521.233 688.118 521.025 685.487 518.914 684.032C517.121 682.784 515.039 683.147 514.876 683.177C513.321 683.461 512.329 684.401 511.911 684.808C511.415 685.278 510.872 686.087 509.883 687.762C509.352 688.677 508.973 689.292 508.593 689.988C508.213 690.685 507.962 691.209 507.91 691.288C505.649 695.754 499.982 700.109 499.982 700.109C498.742 701.046 497.347 702.024 495.811 702.985C494.683 703.693 493.576 704.322 492.521 704.873C492.521 704.873 491.988 708.199 491.283 710.838C490.07 715.33 488.737 716.387 489.314 717.066C490.281 718.19 494.811 716.07 500.37 713.073C502.938 711.689 504.948 710.614 507.59 708.794L507.57 708.789Z"/><path fill="#FFE89C" stroke="#303131" stroke-linecap="round" stroke-linejoin="round" stroke-width="4.423" d="M334.864 755.092C329.23 755.056 325.514 754.279 324.014 753.913C320.856 753.167 319.524 752.472 318.83 752.07C317.55 751.327 315.558 750.141 314.22 747.641C313.527 746.357 312.324 744.213 313.175 741.998C313.9 740.093 315.684 739.28 315.834 739.223C317.185 738.637 318.441 738.828 318.975 738.918C319.61 739.013 320.44 739.359 322.078 740.124C322.973 740.549 323.583 740.831 324.227 741.167C324.885 741.501 325.352 741.768 325.426 741.804C329.498 744.053 336.146 744.431 336.146 744.431C341.814 745.26 343.783 742.837 345.548 744.03C345.716 744.142 346.008 744.37 346.288 744.769C347.304 745.708 348.184 746.433 348.801 746.928C350.018 747.89 351.093 749.009 352.27 750.003C352.519 750.221 353.176 750.84 353.24 751.644C353.247 751.714 353.24 751.786 353.218 751.859C352.822 753.49 349.053 753.913 342.635 754.593C339.932 754.87 337.836 755.102 334.848 755.079L334.864 755.092Z"/><path fill="#AE8C1D" stroke="#303131" stroke-linecap="round" stroke-linejoin="round" stroke-width="4.423" d="M373.385 573.328C400.304 564.592 417.665 543.763 412.162 526.806C406.658 509.849 380.375 503.184 353.456 511.92C326.537 520.656 309.176 541.485 314.679 558.442C320.182 575.399 346.466 582.064 373.385 573.328Z"/><path fill="#AE8C1D" d="M315.576 560.613C318.325 568.157 321.077 575.714 323.826 583.258L303.456 589.13C303.456 589.13 302.644 596.021 308.656 599.045C314.668 602.069 318.367 601.003 318.367 601.003L436.466 566.96C437.522 565.92 439.811 563.389 440.628 559.428C440.865 558.255 441.37 555.664 440.35 552.586C439.594 550.27 438.319 548.709 437.52 547.878L426.682 551.002C423.617 551.915 420.542 552.846 417.477 553.759L413.624 532.115"/><path stroke="#303131" stroke-linecap="round" stroke-linejoin="round" stroke-width="4.423" d="M315.576 560.613C318.325 568.157 321.077 575.714 323.826 583.258L303.456 589.13C303.456 589.13 302.644 596.021 308.656 599.045C314.668 602.069 318.367 601.003 318.367 601.003L436.466 566.96C437.522 565.92 439.811 563.389 440.628 559.428C440.865 558.255 441.37 555.664 440.35 552.586C439.594 550.27 438.319 548.709 437.52 547.878L426.682 551.002C423.617 551.915 420.542 552.846 417.477 553.759L413.624 532.115"/><path fill="#AE8C1D" d="M525.629 671.529C525.568 671.669 525.528 671.805 525.479 671.954L511.244 719.206C510.387 722.035 512.033 725.092 514.887 725.966C517.754 726.848 520.789 725.26 521.633 722.421L535.869 675.169C535.869 675.169 535.887 675.091 535.9 675.046L535.336 676.931C536.676 672.306 537.8 668.278 538.605 665.103C539.077 663.245 540.44 657.852 544.765 655.85C548.655 654.055 554.45 655.206 556.908 658.536C558.896 661.23 558.561 665.224 558.038 671.819C557.712 675.746 557.135 677.86 558.567 679.547C559.836 681.049 562.304 681.745 564.22 681.164C568.899 679.754 569.811 670.896 569.755 666.758C569.719 664.347 569.609 657.038 564.037 651.086C557.851 644.471 547.748 642.548 540.724 645.261C531.689 648.744 528.799 659.45 524.935 673.707"/><path stroke="#303131" stroke-linecap="round" stroke-linejoin="round" stroke-width="4.423" d="M525.629 671.529C525.568 671.669 525.528 671.805 525.479 671.954L511.244 719.206C510.387 722.035 512.033 725.092 514.887 725.966C517.754 726.848 520.789 725.26 521.633 722.421L535.869 675.169C535.869 675.169 535.887 675.091 535.9 675.046L535.336 676.931C536.676 672.306 537.8 668.278 538.605 665.103C539.077 663.245 540.44 657.852 544.765 655.85C548.655 654.055 554.45 655.206 556.908 658.536C558.896 661.23 558.561 665.224 558.038 671.819C557.712 675.746 557.135 677.86 558.567 679.547C559.836 681.049 562.304 681.745 564.22 681.164C568.899 679.754 569.811 670.896 569.755 666.758C569.719 664.347 569.609 657.038 564.037 651.086C557.851 644.471 547.748 642.548 540.724 645.261C531.689 648.744 528.799 659.45 524.935 673.707"/></g><path fill="#F4F4F4" fill-rule="evenodd" stroke="#313131" stroke-width="7" d="M4 19C4 10.7157 10.7157 4 19 4H1518C1526.28 4 1533 10.7157 1533 19V1097C1533 1105.28 1526.28 1112 1518 1112H19C10.7157 1112 4 1105.28 4 1097V19ZM68.3226 56.7619C60.0383 56.7619 53.3226 63.4777 53.3226 71.7619V1044.24C53.3226 1052.52 60.0383 1059.24 68.3226 1059.24H1468.68C1476.96 1059.24 1483.68 1052.52 1483.68 1044.24V71.7619C1483.68 63.4776 1476.96 56.7619 1468.68 56.7619H68.3226Z" clip-rule="evenodd"/><defs><filter id="filter0_f_2848_1354" width="888" height="888" x="856" y="-249" color-interpolation-filters="sRGB" filterUnits="userSpaceOnUse"><feFlood flood-opacity="0" result="BackgroundImageFix"/><feBlend in="SourceGraphic" in2="BackgroundImageFix" mode="normal" result="shape"/><feGaussianBlur result="effect1_foregroundBlur_2848_1354" stdDeviation="150"/></filter><filter id="filter1_f_2848_1354" width="1088" height="1088" x="-331" y="-202" color-interpolation-filters="sRGB" filterUnits="userSpaceOnUse"><feFlood flood-opacity="0" result="BackgroundImageFix"/><feBlend in="SourceGraphic" in2="BackgroundImageFix" mode="normal" result="shape"/><feGaussianBlur result="effect1_foregroundBlur_2848_1354" stdDeviation="200"/></filter><linearGradient id="paint0_linear_2848_1354" x1="1071" x2="19" y1="716" y2="709" gradientUnits="userSpaceOnUse"><stop stop-color="#2E1838"/><stop offset="0" stop-color="#2E1838"/><stop offset="0" stop-color="#303131"/><stop offset=".774" stop-color="#2E1838"/></linearGradient><clipPath id="clip0_2848_1354"><rect width="1010" height="1431" fill="#fff" transform="translate(1484 51) rotate(90)"/></clipPath></defs></svg>