<svg xmlns="http://www.w3.org/2000/svg" width="913" height="924" fill="none" viewBox="0 0 913 924"><path fill="#FFD13C" stroke="#303131" stroke-linecap="round" stroke-linejoin="round" stroke-width="8.069" d="M460.417 137.23C456.972 138.412 443.121 123.35 439.268 122.79C435.415 122.23 417.376 133.513 415.369 132.04C413.362 130.568 422.791 112.115 422.559 107.459C422.326 102.803 404.809 90.7738 406.389 87.6034C407.968 84.433 429.277 88.697 431.984 86.837C434.691 84.977 441.906 66.6593 445.886 65.3143C449.865 63.9692 451.539 88.0473 454.515 89.4199C457.514 90.8062 477.903 91.9325 479.268 95.9863C480.633 100.04 459.52 108.544 459.003 111.669C458.487 114.793 463.873 136.085 460.404 137.253L460.417 137.23Z"/><path fill="#FFD13C" stroke="#303131" stroke-linecap="round" stroke-linejoin="round" stroke-width="8.069" d="M567.534 210.148C563.886 209.832 557.286 190.478 553.973 188.439C550.659 186.401 529.618 189.451 528.383 187.293C527.148 185.136 543.188 172.038 544.864 167.668C546.539 163.297 535.316 145.261 538.048 142.976C540.781 140.691 558.562 153.187 561.803 152.577C565.007 151.978 578.986 138.099 583.181 138.448C587.362 138.821 579.212 161.53 581.39 164.012C583.569 166.494 601.803 175.703 601.413 179.968C601.023 184.233 578.281 183.538 576.553 186.152C574.824 188.765 571.182 210.465 567.571 210.138L567.534 210.148Z"/><path fill="#FFD13C" stroke="#303131" stroke-linecap="round" stroke-linejoin="round" stroke-width="8.069" d="M345.669 203.667C342.223 204.849 328.373 189.787 324.52 189.227C320.667 188.667 302.628 199.95 300.62 198.477C298.613 197.005 308.042 178.552 307.81 173.896C307.578 169.24 290.061 157.211 291.64 154.04C293.219 150.87 314.529 155.134 317.235 153.274C319.942 151.414 327.158 133.096 331.137 131.751C335.117 130.406 336.791 154.484 339.766 155.857C342.742 157.23 363.155 158.37 364.519 162.423C365.884 166.477 344.771 174.981 344.255 178.106C343.752 181.207 349.125 202.522 345.655 203.69L345.669 203.667Z"/><path fill="#B5A9FF" d="M335.541 631.248C284.072 677.211 247.049 710.443 241.339 716.253C240.665 716.931 238.194 719.524 233.92 721.108C232.488 721.631 227.346 723.467 220.914 721.826C216.857 720.802 214.201 718.767 208.853 714.705C200.603 708.435 195.9 702.548 193.28 698.711C191.027 695.433 189.885 693.768 189.574 691.642C188.709 685.742 193.344 679.782 199.237 678.223C205.153 676.677 211.271 679.895 216.467 682.644C221.404 685.243 221.123 686.274 223.491 687.013C230.746 689.349 237.037 680.954 253.082 665.348C257.144 661.412 251.868 666.688 274.102 645.8C283.681 636.822 288.525 632.24 292.045 628.808C297.405 623.55 304.9 616.007 313.649 606.456"/><path stroke="#303131" stroke-linecap="round" stroke-linejoin="round" stroke-width="8.069" d="M335.541 631.248C284.072 677.211 247.049 710.443 241.339 716.253C240.665 716.931 238.194 719.524 233.92 721.108C232.488 721.631 227.346 723.467 220.914 721.826C216.857 720.802 214.201 718.767 208.853 714.705C200.603 708.435 195.9 702.548 193.28 698.711C191.027 695.433 189.885 693.768 189.574 691.642C188.709 685.742 193.344 679.782 199.237 678.223C205.153 676.677 211.271 679.895 216.467 682.644C221.404 685.243 221.123 686.274 223.491 687.013C230.746 689.349 237.037 680.954 253.082 665.348C257.144 661.412 251.868 666.688 274.102 645.8C283.681 636.822 288.525 632.24 292.045 628.808C297.405 623.55 304.9 616.007 313.649 606.456"/><path fill="#B5A9FF" d="M546.179 637.144C600.993 677.885 640.445 707.344 646.591 712.589C647.296 713.186 649.984 715.534 654.314 716.718C655.772 717.102 661.008 718.467 667.212 716.266C671.125 714.894 673.559 712.648 678.482 708.183C686.066 701.274 690.197 695.031 692.437 691.041C694.376 687.608 695.352 685.853 695.473 683.712C695.792 677.825 690.715 672.339 684.777 671.35C678.802 670.356 673.062 674.07 668.184 677.257C663.547 680.268 663.92 681.241 661.65 682.189C654.685 685.147 647.756 677.444 630.56 663.461C626.207 659.937 631.871 664.659 608.08 646.062C597.847 638.075 592.648 633.99 588.887 630.91C583.141 626.214 575.095 619.426 565.605 610.796"/><path stroke="#303131" stroke-linecap="round" stroke-linejoin="round" stroke-width="8.069" d="M546.179 637.144C600.993 677.885 640.445 707.344 646.591 712.589C647.296 713.186 649.984 715.534 654.314 716.718C655.772 717.102 661.008 718.467 667.212 716.266C671.125 714.894 673.559 712.648 678.482 708.183C686.066 701.274 690.197 695.031 692.437 691.041C694.376 687.608 695.352 685.853 695.473 683.712C695.792 677.825 690.715 672.339 684.777 671.35C678.802 670.356 673.062 674.07 668.184 677.257C663.547 680.268 663.92 681.241 661.65 682.189C654.685 685.147 647.756 677.444 630.56 663.461C626.207 659.937 631.871 664.659 608.08 646.062C597.847 638.075 592.648 633.99 588.887 630.91C583.141 626.214 575.095 619.426 565.605 610.796"/><path stroke="#303131" stroke-linecap="round" stroke-linejoin="round" stroke-width="8.069" d="M455.661 523.688C643.767 519.156 795.553 486.233 794.684 450.153C793.814 414.072 640.619 388.496 452.513 393.028C264.407 397.559 112.622 430.482 113.491 466.563C114.36 502.644 267.555 528.219 455.661 523.688Z"/><path fill="#FFD13C" d="M224.089 398.388C135.686 415.805 79.0562 441.171 79.7153 468.149C80.8049 514.342 249.322 547.764 456.086 542.789C662.85 537.813 829.6 496.358 828.51 450.165C827.82 421.065 760.681 397.03 659.371 384.479"/><path stroke="#303131" stroke-linecap="round" stroke-linejoin="round" stroke-width="8.069" d="M224.089 398.388C135.686 415.805 79.0562 441.171 79.7153 468.149C80.8049 514.342 249.322 547.764 456.086 542.789C662.85 537.813 829.6 496.358 828.51 450.165C827.82 421.065 760.681 397.03 659.371 384.479"/><path fill="#303131" d="M220.947 420.692C151.549 432.657 108.055 448.651 108.47 465.283C109.216 496.299 262.294 517.792 450.389 513.28C638.484 508.768 790.366 479.956 789.657 448.93C789.24 431.324 739.733 416.778 662.594 408.322"/><path stroke="#303131" stroke-linecap="round" stroke-linejoin="round" stroke-width="8.069" d="M220.947 420.692C151.549 432.657 108.055 448.651 108.47 465.283C109.216 496.299 262.294 517.792 450.389 513.28C638.484 508.768 790.366 479.956 789.657 448.93C789.24 431.324 739.733 416.778 662.594 408.322"/><path fill="#7A65FD" stroke="#303131" stroke-linecap="round" stroke-linejoin="round" stroke-width="8.069" d="M636.494 554.945C698.985 447.958 662.908 310.565 555.944 248.088C448.981 185.61 311.598 221.725 249.131 328.726C198.124 416.092 219.735 523.935 272.68 588.166C297.017 617.698 322.997 632.038 329.657 635.569C412.524 679.519 566.019 675.598 636.471 554.931L636.494 554.945Z"/><path fill="#B5A9FF" d="M259.256 398.662C253.556 399.234 250.546 395.641 251.182 390.733C254.401 365.523 263.918 344.577 277.541 326.693C284.829 317.116 292.852 308.496 300.693 299.646C302.222 297.922 304.302 296.768 306.258 296.045C311.603 294.075 314.421 297.287 312.631 303.978C310.499 307.669 307.875 310.281 304.691 314.159C296.647 323.96 294.768 325.578 286.623 335.225C277.43 346.09 266.059 367.476 264.413 383.923C263.707 391.02 264.737 394.444 259.325 398.703L259.256 398.662Z"/><path stroke="#303131" stroke-linecap="round" stroke-linejoin="round" stroke-width="8.069" d="M433.127 436.05C433.127 436.05 427.956 445.307 430.039 447C432.131 448.683 437.169 448.932 437.169 448.932"/><path fill="#B5A9FF" d="M331.548 280.043C332.387 280.476 332.609 284.136 331.702 286.175C329.42 291.248 323.34 294.539 320.837 292.429C318.508 290.484 316.055 287.96 318.405 283.749C320.893 279.301 326.794 276.255 331.514 280.055L331.548 280.043Z"/><path fill="#F8E6A2" d="M666.751 521.54C667.779 520.249 668.261 518.707 668.261 518.707L666.751 521.54Z"/><path stroke="#303131" stroke-linecap="round" stroke-linejoin="round" stroke-width="8.069" d="M666.751 521.54C667.779 520.249 668.261 518.707 668.261 518.707"/><path fill="#443D97" fill-rule="evenodd" d="M657.533 404.13C661.011 517.614 574.561 616.973 456.917 630.306C356.701 641.664 264.576 587.113 225.877 501.848C256.995 601.82 353.539 670.686 463.337 656.899C586.484 642.942 674.753 547.516 660.894 425.229C660.089 418.129 658.963 411.09 657.533 404.13Z" clip-rule="evenodd"/><path fill="#F8E6A2" d="M661.858 522.89C664.114 523.878 665.724 522.83 666.752 521.539L661.858 522.89Z"/><path stroke="#303131" stroke-linecap="round" stroke-linejoin="round" stroke-width="8.069" d="M661.858 522.89C664.114 523.878 665.724 522.83 666.752 521.539"/><path fill="#FCD61D" d="M669.85 496.699L670.319 495.18C612.418 509.859 563.561 516.161 527.506 519.053C492.001 521.918 461.326 522.075 438.658 522.176C416.233 522.292 384.744 522.388 344.424 519.615C314.406 517.545 275.521 513.59 230.225 505.62C233.284 514.954 236.379 524.277 239.438 533.611C279.992 538.372 315.159 540.934 343.291 542.354C369.626 543.679 397.08 545.023 432.735 544.129C433.686 544.113 452.475 543.279 490.025 541.659C502.484 541.127 514.346 540.596 530.247 539.163C542.361 538.087 551.47 536.94 556.539 536.318C599.922 530.905 655.728 523.716 661.881 522.903"/><path stroke="#303131" stroke-linecap="round" stroke-linejoin="round" stroke-width="8.069" d="M669.85 496.699L670.319 495.18C612.418 509.859 563.561 516.161 527.506 519.053C492.002 521.918 461.326 522.075 438.658 522.176C416.233 522.292 384.744 522.388 344.424 519.615C314.406 517.545 275.521 513.59 230.225 505.62C233.284 514.954 236.379 524.277 239.438 533.611C279.992 538.372 315.159 540.934 343.291 542.354C369.626 543.679 397.08 545.023 432.735 544.129C433.686 544.113 452.475 543.279 490.025 541.659C502.484 541.127 514.346 540.596 530.247 539.163C542.361 538.087 551.47 536.94 556.539 536.318C599.922 530.905 655.728 523.716 661.881 522.903"/><path stroke="#303131" stroke-linecap="round" stroke-linejoin="round" stroke-width="8.069" d="M662.979 523.068L668.596 522.857"/><path fill="#FFD13C" d="M244.237 528.345C240.178 527.761 236.015 527.084 231.772 526.33C228.011 525.666 224.361 524.972 220.798 524.234C221.484 519.511 222.17 514.788 222.855 510.066C223.327 510.118 224.079 510.176 224.972 510.315C226.169 510.472 227.049 510.634 227.47 510.72C229.772 511.139 229.921 511.099 232.728 511.621C234.356 511.901 235.475 512.139 238.367 512.678C240.786 513.165 243.557 513.696 246.64 514.283C245.847 518.975 245.054 523.667 244.274 528.335L244.237 528.345Z"/><path fill="#FCD61D" d="M678.647 502.097L662.559 503.559C661.078 503.693 659.987 505.003 660.121 506.483L660.882 514.852C661.016 516.333 662.326 517.424 663.806 517.29L679.894 515.829C681.375 515.694 682.466 514.385 682.332 512.904L681.571 504.535C681.437 503.054 680.127 501.963 678.647 502.097Z"/><path fill="#F8E6A2" d="M667.129 511.801L667.106 511.787L666.612 512.633L666.636 512.646L667.129 511.801Z"/><path fill="#FCD61D" d="M675.879 499.395L666.989 501.732L667.743 504.599L676.633 502.262L675.879 499.395Z"/><circle cx="443.662" cy="440.165" r="221.01" stroke="#303131" stroke-width="8.069" transform="rotate(30 443.662 440.165)"/><path stroke="#303131" stroke-linecap="round" stroke-width="5.197" d="M402.072 420.926C402.133 421.593 402.151 422.268 402.128 422.951C402.017 423.637 401.862 424.32 401.662 424.999C401.374 425.658 401.042 426.301 400.668 426.927C400.21 427.51 399.713 428.065 399.177 428.593C398.569 429.053 397.93 429.476 397.259 429.859C396.534 430.158 395.787 430.409 395.018 430.613C394.218 430.717 393.408 430.769 392.588 430.768C391.763 430.659 390.941 430.494 390.124 430.275C389.328 429.947 388.551 429.564 387.792 429.129C387.082 428.59 386.405 428.003 385.759 427.367C385.189 426.643 384.663 425.879 384.181 425.076C383.798 424.204 383.468 423.305 383.191 422.378C383.03 421.41 382.929 420.429 382.888 419.435C382.971 418.431 383.118 417.429 383.328 416.431C383.664 415.456 384.062 414.5 384.521 413.565C385.1 412.685 385.735 411.842 386.426 411.035C387.221 410.315 388.063 409.646 388.951 409.027C389.92 408.523 390.922 408.081 391.957 407.701C393.044 407.456 394.147 407.281 395.268 407.177C396.405 407.219 397.542 407.335 398.677 407.526C399.793 407.866 400.888 408.279 401.964 408.766C402.982 409.394 403.963 410.09 404.905 410.852C405.755 411.74 406.551 412.685 407.292 413.686C407.911 414.786 408.461 415.928 408.944 417.111C409.28 418.359 409.539 419.631 409.721 420.926C409.742 422.247 409.68 423.571 409.537 424.897C409.228 426.207 408.837 427.498 408.365 428.77C407.734 429.982 407.027 431.154 406.244 432.286C405.319 433.317 404.33 434.289 403.276 435.202C402.107 435.978 400.889 436.679 399.623 437.304C398.277 437.765 396.903 438.139 395.498 438.425C394.058 438.529 392.61 438.54 391.155 438.457C389.709 438.185 388.28 437.818 386.867 437.358C385.51 436.713 384.193 435.981 382.916 435.16C381.74 434.173 380.625 433.109 379.571 431.968C378.658 430.691 377.824 429.354 377.069 427.957C376.488 426.462 375.999 424.93 375.602 423.359C375.401 421.737 375.299 420.102 375.299 418.454C375.502 416.806 375.808 415.171 376.216 413.549C376.825 411.981 377.53 410.453 378.333 408.964C379.32 407.579 380.393 406.259 381.551 405.004C382.864 403.899 384.245 402.879 385.694 401.945C387.259 401.199 388.868 400.555 390.524 400.012C392.246 399.685 393.987 399.469 395.748 399.365C397.521 399.489 399.285 399.728 401.041 400.082C402.752 400.663 404.426 401.354 406.063 402.157C407.599 403.17 409.072 404.283 410.481 405.494C411.74 406.887 412.911 408.361 413.995 409.915C414.886 411.608 415.672 413.358 416.353 415.164C416.809 417.056 417.148 418.977 417.37 420.926"/><path stroke="#303131" stroke-linecap="round" stroke-width="5.197" d="M483.04 419.271C483.66 419.525 484.267 419.821 484.861 420.157C485.418 420.573 485.952 421.027 486.461 421.518C486.912 422.078 487.329 422.669 487.712 423.291C488.017 423.967 488.279 424.664 488.498 425.383C488.626 426.135 488.705 426.897 488.735 427.67C488.663 428.45 488.541 429.229 488.366 430.005C488.088 430.763 487.759 431.505 487.379 432.231C486.901 432.912 486.375 433.565 485.803 434.188C485.143 434.741 484.445 435.254 483.708 435.725C482.902 436.105 482.068 436.434 481.206 436.713C480.3 436.883 479.38 436.996 478.444 437.052C477.494 436.989 476.544 436.866 475.595 436.682C474.662 436.377 473.745 436.013 472.845 435.59C471.993 435.051 471.173 434.458 470.385 433.81C469.676 433.061 469.013 432.266 468.396 431.426C467.884 430.506 467.43 429.553 467.034 428.567C466.764 427.529 466.56 426.474 466.422 425.4C466.423 424.308 466.494 423.215 466.637 422.121C466.922 421.045 467.277 419.985 467.703 418.944C468.266 417.955 468.895 417.001 469.59 416.082C470.407 415.251 471.28 414.471 472.209 413.742C473.237 413.129 474.307 412.582 475.419 412.099C476.6 411.756 477.805 411.488 479.036 411.293C480.297 411.254 481.564 411.294 482.836 411.413C484.099 411.692 485.346 412.051 486.578 412.489C487.759 413.082 488.904 413.748 490.014 414.489C491.032 415.369 491.996 416.312 492.905 417.319C493.688 418.439 494.4 419.608 495.041 420.826C495.528 422.123 495.932 423.45 496.254 424.806C496.401 426.201 496.46 427.605 496.428 429.017C496.215 430.423 495.91 431.815 495.515 433.192C494.941 434.518 494.28 435.807 493.534 437.058C492.623 438.214 491.638 439.312 490.576 440.352C489.377 441.256 488.118 442.085 486.8 442.838C485.381 443.424 483.922 443.921 482.423 444.328C480.868 444.546 479.297 444.667 477.71 444.69C476.115 444.514 474.53 444.239 472.955 443.864C471.423 443.293 469.927 442.626 468.465 441.864C467.098 440.922 465.79 439.894 464.541 438.783C463.432 437.518 462.403 436.185 461.455 434.785C460.684 433.269 460.009 431.708 459.432 430.1C459.059 428.425 458.794 426.729 458.636 425.012C458.698 423.28 458.872 421.555 459.157 419.836C459.663 418.158 460.277 416.514 460.999 414.905C461.929 413.39 462.957 411.937 464.083 410.544C465.389 409.296 466.776 408.131 468.245 407.051C469.854 406.158 471.522 405.366 473.248 404.677C475.065 404.206 476.913 403.849 478.792 403.606C480.706 403.599 482.62 403.712 484.537 403.944C486.426 404.415 488.285 405.002 490.116 405.707"/><path fill="#B5A9FF" stroke="#303131" stroke-linecap="round" stroke-linejoin="round" stroke-width="8.662" d="M435.576 501.597C443.951 501.32 450.556 495.536 450.328 488.678C450.101 481.821 443.128 476.487 434.753 476.765C426.378 477.042 419.773 482.826 420 489.683C420.228 496.541 427.201 501.875 435.576 501.597Z"/><path fill="#FFD13C" d="M640.346 506.965L667.071 500.74L674.271 498.499L688.926 496.132L686.097 514.521L667.881 518.236L642.011 520.666L640.346 506.965Z"/><path fill="#FCD61D" d="M217.671 508.519L225.437 509.558L255.496 514.609L255.107 530.626L244.273 529.785L215.01 524.209L217.671 508.519Z"/><path stroke="#303131" stroke-linecap="round" stroke-linejoin="round" stroke-width="8.802" d="M526.746 397.161C522.563 393.085 514.342 386.258 502.705 383.335C491.734 380.58 482.721 382.551 477.742 384.134"/><path stroke="#303131" stroke-linecap="round" stroke-linejoin="round" stroke-width="8.802" d="M355.407 387.366C359.399 383.684 367.219 377.544 378.135 375.102C388.427 372.8 396.785 374.833 401.392 376.414"/><path fill="#B5A9FF" stroke="#303131" stroke-linecap="round" stroke-linejoin="round" stroke-width="8.069" d="M189.11 503.559C178.549 516.237 173.343 526.083 171.295 530.133C167.028 538.612 166.102 542.961 165.692 545.272C164.972 549.567 163.905 556.318 167.047 564.096C168.66 568.114 171.228 574.917 177.88 577.248C183.561 579.256 188.767 576.82 189.181 576.613C193.073 574.71 194.974 571.524 195.778 570.16C196.733 568.537 197.557 566.019 198.892 560.861C199.628 558.046 200.108 556.151 200.588 554.023C201.053 551.917 201.335 550.348 201.41 550.102C203.981 536.643 215.687 521.042 215.687 521.042C224.538 509.216 234.337 500.703 234.337 500.703C235.912 499.287 238.207 496.814 238.881 493.288C239.529 489.845 238.214 487.707 235.591 480.465C231.882 470.248 232.569 469.235 231.06 468.494C226.608 466.26 218.534 473.898 204.889 487.018C199.167 492.525 194.681 496.81 189.087 503.543L189.11 503.559Z"/><path fill="#B5A9FF" stroke="#303131" stroke-linecap="round" stroke-linejoin="round" stroke-width="8.069" d="M695.624 501.545C706.185 514.224 711.391 524.07 713.439 528.12C717.706 536.599 718.631 540.948 719.042 543.259C719.762 547.553 720.829 554.305 717.687 562.083C716.074 566.101 713.505 572.903 706.853 575.235C701.172 577.243 695.967 574.806 695.553 574.6C691.661 572.697 689.76 569.511 688.956 568.147C688.001 566.523 687.177 564.006 685.841 558.847C685.106 556.033 684.626 554.138 684.146 552.01C683.681 549.904 683.399 548.335 683.324 548.088C680.753 534.63 669.047 519.028 669.047 519.028C660.196 507.203 650.397 498.69 650.397 498.69C648.822 497.274 646.527 494.801 645.853 491.275C645.205 487.832 646.52 485.693 649.143 478.452C652.852 468.234 652.165 467.222 653.674 466.481C658.125 464.247 666.2 471.885 679.845 485.005C685.567 490.512 690.052 494.796 695.646 501.53L695.624 501.545Z"/></svg>