<svg width="372" height="463" viewBox="0 0 372 463" fill="none" xmlns="http://www.w3.org/2000/svg">
<path d="M291.181 357.664C290.144 403.838 289.485 437.146 289.705 442.591C289.725 443.229 289.864 445.623 288.707 448.435C288.329 449.373 286.892 452.723 283.183 455.137C280.849 456.653 278.675 457.032 274.307 457.789C267.566 458.966 262.579 458.567 259.548 458.109C256.935 457.71 255.618 457.51 254.442 456.692C251.21 454.419 250.413 449.412 252.327 445.842C254.242 442.232 258.57 440.736 262.24 439.44C265.731 438.223 266.09 438.822 267.526 438.004C271.934 435.511 270.717 428.61 270.418 413.631C270.338 409.841 270.517 414.827 270.478 394.423C270.478 385.648 270.458 381.18 270.378 377.889C270.258 372.863 269.999 365.742 269.321 357.106" fill="#EB93F4"/>
<path d="M291.181 357.664C290.144 403.838 289.485 437.146 289.705 442.591C289.725 443.229 289.864 445.623 288.707 448.435C288.329 449.373 286.892 452.723 283.183 455.137C280.849 456.653 278.675 457.032 274.307 457.789C267.566 458.966 262.579 458.567 259.548 458.109C256.935 457.71 255.618 457.51 254.442 456.692C251.21 454.419 250.413 449.412 252.327 445.842C254.242 442.232 258.57 440.736 262.24 439.44C265.731 438.223 266.09 438.822 267.526 438.004C271.934 435.511 270.717 428.61 270.418 413.631C270.338 409.841 270.517 414.827 270.478 394.423C270.478 385.648 270.458 381.18 270.378 377.889C270.258 372.863 269.999 365.742 269.321 357.106" stroke="#303131" stroke-width="7.35128" stroke-linecap="round" stroke-linejoin="round"/>
<path d="M123.282 360.218C122.305 404.038 121.667 435.631 121.886 440.797C121.906 441.395 122.046 443.669 120.929 446.342C120.57 447.239 119.193 450.41 115.683 452.704C113.469 454.14 111.395 454.499 107.246 455.217C100.844 456.334 96.1168 455.955 93.2447 455.516C90.7715 455.137 89.515 454.938 88.418 454.16C85.3464 452.006 84.5885 447.259 86.4035 443.868C88.2385 440.458 92.3272 439.022 95.8176 437.785C99.1285 436.628 99.4676 437.187 100.824 436.429C105.012 434.055 103.856 427.513 103.576 413.312C103.497 409.722 103.656 414.449 103.616 395.082C103.616 386.745 103.596 382.517 103.517 379.385C103.397 374.619 103.157 367.857 102.519 359.66" fill="#EB93F4"/>
<path d="M123.282 360.218C122.305 404.038 121.667 435.631 121.886 440.797C121.906 441.395 122.046 443.669 120.929 446.342C120.57 447.239 119.193 450.41 115.683 452.704C113.469 454.14 111.395 454.499 107.246 455.217C100.844 456.334 96.1168 455.955 93.2447 455.516C90.7715 455.137 89.515 454.938 88.418 454.16C85.3464 452.006 84.5885 447.259 86.4035 443.868C88.2385 440.458 92.3272 439.022 95.8176 437.785C99.1285 436.628 99.4676 437.187 100.824 436.429C105.012 434.055 103.856 427.513 103.576 413.312C103.497 409.722 103.656 414.449 103.616 395.082C103.616 386.745 103.596 382.517 103.517 379.385C103.397 374.619 103.157 367.857 102.519 359.66" stroke="#303131" stroke-width="7.35128" stroke-linecap="round" stroke-linejoin="round"/>
<path d="M56.3848 70.0542L41.007 85.432" stroke="#303131" stroke-width="7.35128" stroke-linecap="round" stroke-linejoin="round"/>
<path d="M337.991 67.3535L353.489 80.9163" stroke="#303131" stroke-width="7.35128" stroke-linecap="round" stroke-linejoin="round"/>
<path d="M366.22 63.5656C366.18 62.8675 366.16 62.1894 366.12 61.4913C356.267 61.3517 341.328 61.232 323.099 61.4913C280.934 62.0896 278.381 63.8648 269.306 60.9528C236.297 50.322 235.26 15.3779 214.956 15.3779C194.651 15.3779 193.415 49.7635 158.73 63.8049C149.276 67.6344 135.613 68.3524 108.288 69.8284C87.2462 70.9453 69.7543 70.8057 57.5278 70.4666V187.246L75.3389 197.697C78.7695 200.111 84.4938 204.838 88.6823 212.676C96.8 227.795 93.0702 242.933 91.9533 247.221C88.4828 260.445 80.5047 268.642 75.8575 273.29C61.5967 287.57 52.94 294.817 44.922 305.847C39.7761 312.947 39.9162 313.3 39.3777 336.636C39.1583 346.169 39.4375 361.926 39.7167 379.019C39.278 384.325 79.9862 382.031 96.062 382.111C135.713 382.33 140.799 382.031 148.418 379.019C178.376 367.152 180.45 339.468 199.019 339.149C224.469 338.71 224.37 375.728 243.058 379.019C261.767 382.31 363.009 379.019 363.009 379.019C363.009 379.019 363.129 372.856 363.268 363.482C363.627 339.209 363.408 338.57 363.687 328.717C364.206 310.906 364.864 297.483 364.864 297.483C365.622 282.504 366.1 277.937 363.009 272.691C359.199 266.249 354.672 266.967 345.816 260.226C340.112 255.877 326.669 245.586 325.512 230.926C324.315 215.748 336.94 203.84 339.892 201.048C346.614 194.705 350.284 195.104 355.509 190.856C367.676 180.963 368.015 162.334 367.975 140.734C367.935 118.196 366.858 84.8871 366.22 66.6372" fill="#8F209A"/>
<path d="M366.22 63.5656C366.18 62.8675 366.16 62.1894 366.12 61.4913C356.267 61.3517 341.328 61.232 323.099 61.4913C280.934 62.0896 278.381 63.8648 269.306 60.9528C236.297 50.322 235.26 15.3779 214.955 15.3779C194.651 15.3779 193.415 49.7635 158.73 63.8049C149.276 67.6344 135.613 68.3524 108.288 69.8284C87.2462 70.9453 69.7543 70.8057 57.5278 70.4666V187.246L75.3389 197.697C78.7695 200.111 84.4938 204.838 88.6823 212.676C96.8 227.795 93.0702 242.933 91.9533 247.221C88.4828 260.445 80.5047 268.642 75.8575 273.29C61.5967 287.57 52.94 294.817 44.922 305.847C39.7761 312.947 39.9162 313.3 39.3777 336.636C39.1583 346.169 39.4375 361.926 39.7167 379.019C39.278 384.325 79.9862 382.031 96.062 382.111C135.713 382.33 140.799 382.031 148.418 379.019C178.376 367.152 180.45 339.468 199.019 339.149C224.469 338.71 224.37 375.728 243.058 379.019C261.767 382.31 363.009 379.019 363.009 379.019C363.009 379.019 363.129 372.856 363.268 363.482C363.627 339.209 363.408 338.57 363.687 328.717C364.206 310.906 364.864 297.483 364.864 297.483C365.622 282.504 366.1 277.937 363.009 272.691C359.199 266.249 354.672 266.967 345.816 260.226C340.112 255.877 326.669 245.586 325.512 230.926C324.315 215.748 336.94 203.84 339.892 201.048C346.614 194.705 350.284 195.104 355.509 190.856C367.676 180.963 368.015 162.334 367.975 140.734C367.935 118.196 366.858 84.8871 366.22 66.6372" stroke="#303131" stroke-width="7.35128" stroke-linecap="round" stroke-linejoin="round"/>
<path d="M40.1489 87.499V204.278L57.96 214.73C61.3906 217.143 67.1149 221.87 71.3034 229.708C79.4211 244.827 75.6913 259.965 74.5744 264.254C71.1039 277.477 63.1258 285.675 58.4786 290.322C44.2178 304.603 35.9804 300.534 27.9624 311.564C22.8165 318.664 22.5373 330.332 21.9988 353.668C21.7794 363.202 22.0586 378.959 22.3378 396.052C21.899 401.357 62.6073 399.063 78.6831 399.143C118.334 399.363 123.42 399.063 131.039 396.052C160.997 384.184 163.071 356.5 181.64 356.181C207.09 355.742 206.991 392.761 225.679 396.052C244.388 399.343 345.63 396.052 345.63 396.052C345.63 396.052 345.75 389.889 345.889 380.514C346.248 356.241 346.029 355.603 346.308 345.75C346.827 327.939 347.485 314.516 347.485 314.516C348.243 299.537 348.721 294.969 345.63 289.724C341.82 283.281 337.293 284.019 328.437 277.258C322.733 272.91 309.29 262.618 308.133 247.958C306.936 232.78 319.562 220.873 322.513 218.08C329.235 211.738 332.905 212.137 338.131 207.888C350.297 197.996 350.636 179.367 350.596 157.766C350.537 127.529 349.759 100.942 348.741 78.5636C338.889 78.4239 323.95 78.3043 305.72 78.5636C263.555 79.1619 261.002 80.937 251.907 78.025C218.898 67.3942 217.861 32.4502 197.557 32.4502C177.252 32.4502 176.016 66.8358 141.331 80.8772C131.877 84.7067 118.215 85.4247 90.8896 86.9007C69.8474 88.0176 52.3554 87.878 40.129 87.5389L40.1489 87.499Z" fill="#DB3FEB" stroke="#303131" stroke-width="7.35128" stroke-linecap="round" stroke-linejoin="round"/>
<path d="M367.358 63.7847L346.854 80.8711" stroke="#303131" stroke-width="7.35128" stroke-linecap="round" stroke-linejoin="round"/>
<path d="M363.94 379.883L353.689 388.427L343.437 396.97" stroke="#303131" stroke-width="7.35128" stroke-linecap="round" stroke-linejoin="round"/>
<path d="M363.94 273.711L354.543 280.828L345.145 287.945" stroke="#303131" stroke-width="7.35128" stroke-linecap="round" stroke-linejoin="round"/>
<path d="M360.523 186.242L352.834 194.378L345.145 202.513" stroke="#303131" stroke-width="7.35128" stroke-linecap="round" stroke-linejoin="round"/>
<path d="M52.3355 109.679C51.7172 111.913 51.4978 113.887 51.4978 123.561C51.4978 130.681 51.6175 129.724 51.5178 130.9C51.1588 135.368 50.2812 137.502 51.5178 140.275C51.7771 140.853 52.8541 143.227 54.5096 143.306C56.0454 143.366 57.262 141.412 57.7806 140.554C59.6953 137.343 59.4959 134.231 59.1369 126.772C59.0571 124.937 58.7778 119.093 59.6754 112.172C59.8948 110.457 60.2937 108.462 61.8494 107.205C62.6073 106.587 63.5049 106.268 68.2518 105.989C73.278 105.69 74.6343 105.909 75.9906 104.712C76.8482 103.954 77.7458 102.598 77.4665 101.322C77.3668 100.903 77.0477 100.025 74.9734 98.9881C71.1638 97.0733 67.2546 97.6118 65.6589 97.8312C64.1631 98.0506 61.8494 98.4096 59.2765 99.9454C57.0426 101.282 55.7262 102.837 55.3273 103.336C54.5694 104.274 53.3129 106.069 52.3355 109.679Z" fill="#EB93F4"/>
<path d="M55.946 158.923C55.6668 160.699 54.2307 162.873 52.4755 162.733C50.7603 162.613 49.6433 160.32 49.5835 158.584C49.5037 156.171 51.3985 153.538 53.1936 153.698C54.9488 153.857 56.325 156.63 55.946 158.923Z" fill="#EB93F4"/>
<path d="M334.361 327.979C334.082 329.754 332.646 331.928 330.891 331.789C329.175 331.669 328.038 329.395 327.999 327.64C327.919 325.227 329.794 322.594 331.589 322.753C333.344 322.893 334.72 325.685 334.361 327.979Z" fill="#CB9BC6"/>
<path d="M312.283 283.881C311.624 284.719 311.884 285.935 311.983 286.474C312.422 288.668 314.157 290.024 315.235 290.882C319.762 294.452 322.016 296.247 323.073 297.404C324.15 298.6 326.843 301.094 328.159 304.923C330.253 310.986 327.441 315.574 329.695 317.05C330.911 317.848 332.766 317.209 333.804 316.491C337.095 314.178 336.077 307.935 335.419 303.846C334.94 300.934 333.863 299.059 333.564 298.541C333.026 297.643 332.387 296.726 328.378 292.757C326.723 291.121 327.461 291.919 322.335 287.092C320.021 284.938 319.343 284.28 318.007 283.741C316.391 283.103 313.42 282.465 312.303 283.901L312.283 283.881Z" fill="#CB9BC6"/>
<path d="M39.9285 315.101C39.4099 317.056 40.3473 320.287 43.8976 328.763C46.291 334.468 47.4678 337.34 48.8041 339.853C52.8929 347.592 56.6426 352.119 58.1983 353.934C61.4893 357.724 63.404 359.06 64.4412 359.718C66.3759 360.935 69.4474 362.81 73.8553 362.81C76.1291 362.81 79.9386 362.91 82.3919 360.097C84.4861 357.704 84.3266 354.652 84.3066 354.413C84.1471 352.119 82.9703 350.544 82.4717 349.865C81.8733 349.068 80.8162 348.17 78.5823 346.475C77.3657 345.557 76.528 344.919 75.6105 344.281C74.6731 343.623 73.975 343.164 73.8553 343.104C67.8319 339.155 62.5663 330.279 62.5663 330.279C58.5773 323.558 56.3634 317.036 56.3634 317.036C55.0669 313.186 54.4885 310.294 52.8131 309.117" fill="#EB93F4"/>
<path d="M322.576 308.639C324.059 311.349 323.789 311.89 320.238 320.367C317.845 326.071 316.668 328.943 315.332 331.456C311.243 339.195 307.493 343.723 305.938 345.538C302.647 349.327 300.732 350.664 299.695 351.322C297.76 352.538 294.689 354.413 290.281 354.413C288.007 354.413 284.197 354.513 281.744 351.701C279.65 349.307 279.809 346.256 279.829 346.016C279.989 343.723 281.166 342.147 281.664 341.469C282.263 340.671 283.32 339.773 285.554 338.078C286.77 337.161 287.608 336.522 288.526 335.884C289.463 335.226 290.161 334.767 290.281 334.707C296.304 330.758 301.57 321.883 301.57 321.883C305.559 315.161 307.773 308.639 307.773 308.639C309.069 304.79 309.647 301.897 311.323 300.721" fill="#EB93F4"/>
<path d="M39.9285 315.101C39.4099 317.056 40.3473 320.287 43.8976 328.763C46.291 334.468 47.4678 337.34 48.8041 339.853C52.8929 347.592 56.6426 352.119 58.1983 353.934C61.4893 357.724 63.404 359.06 64.4412 359.718C66.3759 360.935 69.4474 362.81 73.8553 362.81C76.1291 362.81 79.9386 362.91 82.3919 360.097C84.4861 357.704 84.3266 354.652 84.3066 354.413C84.1471 352.119 82.9703 350.544 82.4717 349.865C81.8733 349.068 80.8162 348.17 78.5823 346.475C77.3657 345.557 76.528 344.919 75.6105 344.281C74.6731 343.623 73.975 343.164 73.8553 343.104C67.8319 339.155 62.5663 330.279 62.5663 330.279C58.5773 323.558 56.3634 317.036 56.3634 317.036C55.0669 313.186 54.4885 310.294 52.8131 309.117M322.576 308.639C324.059 311.349 323.789 311.89 320.238 320.367C317.845 326.071 316.668 328.943 315.332 331.456C311.243 339.195 307.493 343.723 305.938 345.538C302.647 349.327 300.732 350.664 299.695 351.322C297.76 352.538 294.689 354.413 290.281 354.413C288.007 354.413 284.197 354.513 281.744 351.701C279.65 349.307 279.809 346.256 279.829 346.016C279.989 343.723 281.166 342.147 281.664 341.469C282.263 340.671 283.32 339.773 285.554 338.078C286.77 337.161 287.608 336.522 288.526 335.884C289.463 335.226 290.161 334.767 290.281 334.707C296.304 330.758 301.57 321.883 301.57 321.883C305.559 315.161 307.773 308.639 307.773 308.639C309.069 304.79 309.648 301.897 311.323 300.721" stroke="#303131" stroke-width="7.35128" stroke-linecap="round" stroke-linejoin="round"/>
<path d="M348.563 362.232H360.523V378.106L348.563 389.57V362.232Z" fill="#8F209A"/>
<path d="M56.3852 73.4717H82.0148V84.5779H46.1333L56.3852 73.4717Z" fill="#8F209A"/>
<path d="M138.24 245.674C141.877 248.852 147.402 248.479 150.58 244.841C153.757 241.204 153.385 235.679 149.747 232.502C146.11 229.324 140.585 229.697 137.408 233.334C134.23 236.972 134.603 242.496 138.24 245.674Z" fill="#303131"/>
<path d="M207.857 248.551C211.578 251.451 216.945 250.785 219.845 247.064C222.745 243.343 222.08 237.976 218.359 235.076C214.638 232.176 209.271 232.842 206.371 236.562C203.471 240.283 204.136 245.651 207.857 248.551Z" fill="#303131"/>
<path d="M174.158 248.955C174.158 248.955 170.303 256.409 172.138 257.852C173.98 259.287 178.217 259.624 178.217 259.624" stroke="#303131" stroke-width="7.35128" stroke-linecap="round" stroke-linejoin="round"/>
<path d="M242.874 215.06C241.178 211.594 237.583 205.519 230.994 201.114C224.782 196.961 218.738 196.183 215.289 196.06" stroke="#303131" stroke-width="7.35128" stroke-linecap="round" stroke-linejoin="round"/>
<path d="M123.799 210.383C125.769 207.384 129.799 202.199 136.404 198.887C142.632 195.766 148.314 195.732 151.519 196.009" stroke="#303131" stroke-width="7.35128" stroke-linecap="round" stroke-linejoin="round"/>
<path d="M195.282 277.715C195.282 277.715 190.093 284.166 179.981 283.599C169.869 282.961 162.818 275.091 162.818 275.091" stroke="#303131" stroke-width="7.35128" stroke-linecap="round" stroke-linejoin="round"/>
</svg>
