<svg width="1013" height="974" viewBox="0 0 1013 974" fill="none" xmlns="http://www.w3.org/2000/svg">
<path d="M885.267 604.032C881.724 605.402 866.691 590.263 862.654 589.834C858.617 589.404 840.274 601.883 838.124 600.429C835.974 598.974 845.059 579.371 844.631 574.53C844.203 569.688 825.47 557.856 826.989 554.49C828.507 551.123 850.88 554.713 853.625 552.667C856.371 550.621 863.156 531.247 867.248 529.686C871.341 528.126 874.048 553.145 877.204 554.456C880.384 555.78 901.672 556.138 903.256 560.307C904.841 564.476 883.184 574.181 882.771 577.457C882.357 580.733 888.822 602.701 885.254 604.057L885.267 604.032Z" fill="#FFD13C" stroke="#303131" stroke-width="7.35128" stroke-linecap="round" stroke-linejoin="round"/>
<path d="M751.558 309.365C747.745 309.182 740.094 289.281 736.56 287.29C733.026 285.298 711.226 289.319 709.852 287.12C708.479 284.922 724.667 270.634 726.238 266.013C727.809 261.392 715.394 243.05 718.149 240.56C720.904 238.07 739.931 250.377 743.283 249.612C746.597 248.859 760.606 233.84 764.99 234.036C769.361 234.257 761.78 258.243 764.148 260.742C766.517 263.241 785.884 272.105 785.648 276.565C785.413 281.024 761.69 281.211 759.994 284.003C758.298 286.794 755.372 309.549 751.597 309.353L751.558 309.365Z" fill="#FFD13C" stroke="#303131" stroke-width="7.35128" stroke-linecap="round" stroke-linejoin="round"/>
<path d="M245.846 303.209C242.303 304.579 227.269 289.44 223.233 289.011C219.196 288.581 200.853 301.06 198.703 299.605C196.552 298.151 205.638 278.548 205.209 273.706C204.781 268.865 186.049 257.033 187.567 253.667C189.086 250.3 211.458 253.89 214.204 251.844C216.95 249.797 223.734 230.424 227.827 228.863C231.919 227.302 234.627 252.322 237.782 253.633C240.938 254.944 262.251 255.314 263.835 259.483C265.419 263.652 243.762 273.358 243.349 276.634C242.949 279.885 249.401 301.878 245.833 303.234L245.846 303.209Z" fill="#FFD13C" stroke="#303131" stroke-width="7.35128" stroke-linecap="round" stroke-linejoin="round"/>
<path d="M448.601 652.691C452.115 724.553 454.78 776.357 455.747 784.795C455.855 785.786 456.337 789.489 454.818 793.992C454.303 795.497 452.42 800.869 446.872 805.007C443.383 807.625 439.991 808.443 433.192 810.116C422.699 812.693 414.843 812.646 410.015 812.254C405.88 811.931 403.781 811.766 401.853 810.623C396.504 807.455 394.71 799.791 397.31 793.991C399.937 788.181 406.557 785.332 412.192 782.922C417.536 780.624 418.188 781.527 420.34 780.092C426.991 775.742 424.31 765.138 422.178 741.898C421.651 736.025 422.469 743.761 420.113 712.039C419.117 698.388 418.578 691.456 418.104 686.352C417.355 678.559 416.154 667.538 414.148 654.183" fill="#B5A9FF"/>
<path d="M448.601 652.691C452.115 724.553 454.78 776.357 455.747 784.795C455.855 785.786 456.337 789.489 454.818 793.992C454.303 795.497 452.42 800.869 446.872 805.007C443.383 807.625 439.991 808.443 433.192 810.116C422.699 812.693 414.843 812.646 410.015 812.254C405.88 811.931 403.781 811.766 401.853 810.623C396.504 807.455 394.71 799.791 397.31 793.991C399.937 788.181 406.557 785.332 412.192 782.922C417.536 780.624 418.188 781.527 420.34 780.092C426.991 775.742 424.31 765.138 422.178 741.898C421.651 736.025 422.469 743.761 420.113 712.039C419.117 698.388 418.578 691.456 418.104 686.352C417.355 678.559 416.154 667.538 414.148 654.183" stroke="#303131" stroke-width="7.35128" stroke-linecap="round" stroke-linejoin="round"/>
<path d="M512.525 642.067C514.179 713.256 515.259 764.582 514.888 772.999C514.849 773.961 514.642 777.676 516.445 781.996C517.064 783.441 519.3 788.621 525.087 792.31C528.725 794.647 532.133 795.208 538.96 796.393C549.503 798.197 557.285 797.59 562.002 796.873C566.068 796.266 568.136 795.943 569.975 794.669C575.019 791.157 576.273 783.464 573.279 777.949C570.264 772.399 563.53 770.062 557.782 768.094C552.333 766.213 551.772 767.143 549.537 765.885C542.639 762.056 544.529 751.42 544.998 728.316C545.104 722.477 544.854 730.162 544.887 698.676C544.892 685.142 544.916 678.248 545.037 673.181C545.213 665.446 545.634 654.478 546.644 641.142" fill="#B5A9FF"/>
<path d="M512.525 642.067C514.179 713.256 515.259 764.582 514.888 772.999C514.849 773.961 514.642 777.676 516.445 781.996C517.064 783.441 519.3 788.621 525.087 792.31C528.725 794.647 532.133 795.208 538.96 796.393C549.503 798.197 557.285 797.59 562.002 796.873C566.068 796.266 568.136 795.943 569.975 794.669C575.019 791.157 576.273 783.464 573.279 777.949C570.264 772.399 563.53 770.062 557.782 768.094C552.333 766.213 551.772 767.143 549.537 765.885C542.639 762.056 544.529 751.42 544.998 728.316C545.104 722.477 544.854 730.162 544.887 698.676C544.892 685.142 544.916 678.248 545.037 673.181C545.213 665.446 545.634 654.478 546.644 641.142" stroke="#303131" stroke-width="7.35128" stroke-linecap="round" stroke-linejoin="round"/>
<path d="M499.438 525.782C695.241 513.531 852.066 473.153 849.717 435.596C847.367 398.039 686.732 377.524 490.928 389.776C295.125 402.027 138.299 442.404 140.649 479.961C142.999 517.518 303.634 538.033 499.438 525.782Z" stroke="#303131" stroke-width="7.35128" stroke-linecap="round" stroke-linejoin="round"/>
<path d="M253.151 404.504C161.742 426.189 103.756 454.885 105.523 482.966C108.507 531.05 285.421 559.127 500.646 545.666C715.871 532.206 887.945 482.339 884.961 434.255C883.077 403.964 812.163 381.61 706.108 372.589" fill="#FFD13C"/>
<path d="M253.151 404.504C161.742 426.189 103.756 454.885 105.523 482.966C108.507 531.05 285.421 559.127 500.646 545.666C715.871 532.206 887.945 482.339 884.961 434.255C883.077 403.964 812.163 381.61 706.108 372.589" stroke="#303131" stroke-width="7.35128" stroke-linecap="round" stroke-linejoin="round"/>
<path d="M250.769 427.867C178.944 443.112 134.269 461.517 135.367 478.828C137.386 511.113 297.735 527.38 493.528 515.149C689.321 502.919 846.411 466.821 844.431 434.524C843.291 416.197 791.128 403.023 710.42 397.301" fill="#303131"/>
<path d="M250.769 427.867C178.944 443.112 134.269 461.517 135.367 478.828C137.386 511.113 297.735 527.38 493.528 515.149C689.321 502.919 846.411 466.821 844.431 434.524C843.291 416.197 791.128 403.023 710.42 397.301" stroke="#303131" stroke-width="7.35128" stroke-linecap="round" stroke-linejoin="round"/>
<path d="M689.096 551.11C749.922 437.14 706.833 295.437 592.889 234.625C478.944 173.812 337.253 216.938 276.452 330.921C226.807 423.988 253.639 535.484 311.373 600.286C337.912 630.08 365.554 643.981 372.634 647.393C460.732 689.867 620.498 679.638 689.071 551.097L689.096 551.11Z" fill="#7A65FD" stroke="#303131" stroke-width="7.35128" stroke-linecap="round" stroke-linejoin="round"/>
<path d="M289.802 403.382C283.886 404.205 280.606 400.582 281.072 395.443C283.417 369.048 292.495 346.845 305.972 327.666C313.182 317.396 321.195 308.094 329.011 298.559C330.535 296.702 332.656 295.416 334.665 294.584C340.155 292.318 343.22 295.552 341.622 302.595C339.549 306.526 336.92 309.352 333.758 313.52C325.768 324.053 323.876 325.814 315.776 336.192C306.633 347.88 295.641 370.616 294.585 387.818C294.134 395.241 295.343 398.768 289.876 403.421L289.802 403.382Z" fill="#B5A9FF"/>
<path d="M416.4 428.876C422.255 433.759 430.96 432.971 435.842 427.116C440.725 421.262 439.938 412.557 434.083 407.674C428.228 402.791 419.524 403.579 414.641 409.434C409.758 415.289 410.546 423.993 416.4 428.876Z" fill="#303131"/>
<path d="M526.36 430.899C532.336 435.341 540.782 434.097 545.224 428.121C549.666 422.144 548.422 413.699 542.445 409.257C536.469 404.815 528.023 406.059 523.581 412.035C519.14 418.012 520.384 426.457 526.36 430.899Z" fill="#303131"/>
<path d="M472.451 435.376C472.451 435.376 467.434 445.227 469.673 446.908C471.919 448.577 477.179 448.635 477.179 448.635" stroke="#303131" stroke-width="7.35128" stroke-linecap="round" stroke-linejoin="round"/>
<path d="M503.576 467.884C502.794 468.67 499.52 471.898 494.315 474.609C489.797 476.968 485.914 477.829 484.337 478.15C482.117 478.582 478.005 479.192 472.974 478.562C461.383 477.127 454.039 470.316 452.382 468.705" stroke="#303131" stroke-width="7.35128" stroke-linecap="round" stroke-linejoin="round"/>
<path d="M360.373 276.901C361.265 277.319 361.643 281.123 360.779 283.283C358.605 288.66 352.402 292.333 349.709 290.235C347.205 288.301 344.548 285.77 346.828 281.288C349.242 276.554 355.268 273.145 360.338 276.915L360.373 276.901Z" fill="#B5A9FF"/>
<path d="M719.283 515.095C720.302 513.709 720.743 512.082 720.743 512.082L719.283 515.095Z" fill="#F8E6A2"/>
<path d="M719.283 515.095C720.302 513.709 720.743 512.082 720.743 512.082" stroke="#303131" stroke-width="7.35128" stroke-linecap="round" stroke-linejoin="round"/>
<path fill-rule="evenodd" clip-rule="evenodd" d="M704.979 393.136C713.146 511.234 627.052 618.216 505.014 636.816C401.056 652.661 302.889 599.514 259.156 512.227C295.579 615.141 398.923 683.025 512.768 664.266C640.514 644.796 728.66 541.839 709.325 414.985C708.203 407.62 706.748 400.33 704.979 393.136Z" fill="#443D97"/>
<path d="M714.24 516.697C716.629 517.636 718.265 516.479 719.284 515.093L714.24 516.697Z" fill="#F8E6A2"/>
<path d="M714.24 516.697C716.629 517.636 718.265 516.479 719.284 515.093" stroke="#303131" stroke-width="7.35128" stroke-linecap="round" stroke-linejoin="round"/>
<path d="M721.517 489.09L721.945 487.488C662.207 505.099 611.555 513.621 574.106 518.078C537.229 522.483 505.275 523.875 481.661 524.888C458.302 525.906 425.498 527.267 383.378 525.991C352.02 525.036 311.348 522.473 263.836 515.982C267.396 525.584 270.995 535.174 274.555 544.776C316.998 548.114 353.74 549.375 383.108 549.729C410.599 550.055 439.257 550.355 476.369 547.997C477.359 547.942 496.902 546.322 535.96 543.13C548.919 542.078 561.257 541.05 577.766 538.92C590.345 537.314 599.79 535.754 605.046 534.903C650.029 527.527 707.885 517.803 714.263 516.71" fill="#FCD61D"/>
<path d="M721.517 489.09L721.945 487.488C662.207 505.099 611.555 513.621 574.106 518.078C537.229 522.483 505.275 523.875 481.661 524.888C458.302 525.906 425.498 527.267 383.378 525.991C352.02 525.036 311.348 522.473 263.836 515.982C267.396 525.584 270.995 535.174 274.555 544.776C316.998 548.114 353.74 549.375 383.108 549.729C410.599 550.055 439.257 550.355 476.369 547.997C477.359 547.942 496.902 546.322 535.96 543.13C548.919 542.078 561.257 541.05 577.766 538.92C590.345 537.314 599.79 535.754 605.046 534.903C650.029 527.527 707.885 517.803 714.263 516.71" stroke="#303131" stroke-width="7.35128" stroke-linecap="round" stroke-linejoin="round"/>
<path d="M715.414 516.837L721.258 516.392" stroke="#303131" stroke-width="7.35128" stroke-linecap="round" stroke-linejoin="round"/>
<path d="M279.344 539.098C275.092 538.651 270.728 538.113 266.276 537.497C262.331 536.955 258.5 536.378 254.759 535.752C255.284 530.804 255.81 525.856 256.335 520.908C256.829 520.944 257.614 520.974 258.551 521.083C259.804 521.199 260.727 521.333 261.169 521.406C263.584 521.75 263.738 521.702 266.684 522.133C268.391 522.361 269.566 522.563 272.601 523.009C275.141 523.419 278.049 523.862 281.285 524.351C280.647 529.271 280.008 534.191 279.382 539.086L279.344 539.098Z" fill="#FFD13C"/>
<path d="M730.899 494.361L714.196 496.528C712.658 496.727 711.574 498.135 711.773 499.672L712.9 508.361C713.1 509.899 714.508 510.983 716.045 510.784L732.748 508.618C734.285 508.418 735.37 507.01 735.17 505.473L734.043 496.784C733.844 495.246 732.436 494.162 730.899 494.361Z" fill="#FCD61D"/>
<path d="M719.288 504.932L719.263 504.919L718.782 505.82L718.807 505.833L719.288 504.932Z" fill="#F8E6A2"/>
<path d="M727.906 491.656L718.738 494.447L719.638 497.403L728.806 494.613L727.906 491.656Z" fill="#FCD61D"/>
<path d="M201.993 499.403C186.211 492.557 176.741 485.833 172.933 483.024C164.981 477.132 162.078 473.518 160.611 471.559C157.925 467.899 153.763 462.114 153.037 453.398C152.652 448.9 151.851 441.361 156.95 436.068C161.296 431.532 167.287 431.357 167.769 431.354C172.285 431.299 175.551 433.374 176.94 434.266C178.591 435.329 180.54 437.286 184.204 441.462C186.21 443.738 187.547 445.276 188.993 447.032C190.414 448.775 191.413 450.103 191.599 450.297C200.309 461.621 218.531 470.651 218.531 470.651C232.322 477.506 245.442 480.833 245.442 480.833C247.573 481.411 250.869 482.636 253.152 485.603C255.372 488.505 255.151 491.113 256.108 499.086C257.451 510.34 258.567 510.96 257.509 512.358C254.413 516.527 243.311 513.206 224.449 507.396C216.536 504.955 210.349 503.071 201.98 499.428L201.993 499.403Z" fill="#B5A9FF" stroke="#303131" stroke-width="7.35128" stroke-linecap="round" stroke-linejoin="round"/>
<path d="M771.053 464.69C786.586 457.237 795.794 450.168 799.473 447.203C807.204 440.99 809.947 437.307 811.348 435.258C813.902 431.508 817.835 425.568 818.239 416.837C818.438 412.326 818.956 404.778 813.676 399.654C809.153 395.282 803.166 395.331 802.709 395.347C798.204 395.44 795.01 397.667 793.646 398.614C792.036 399.721 790.153 401.773 786.661 406.086C784.745 408.442 783.43 410.024 782.073 411.809C780.702 413.618 779.759 414.981 779.59 415.18C771.311 426.81 753.433 436.521 753.433 436.521C739.906 443.877 726.925 447.707 726.925 447.707C724.818 448.359 721.567 449.722 719.383 452.77C717.277 455.731 717.602 458.338 716.934 466.352C716.019 477.633 714.926 478.307 716.025 479.688C719.274 483.741 730.249 480.007 748.882 473.484C756.704 470.748 762.825 468.622 771.053 464.69Z" fill="#B5A9FF" stroke="#303131" stroke-width="7.35128" stroke-linecap="round" stroke-linejoin="round"/>
<circle cx="483.593" cy="439.241" r="230.967" transform="rotate(27.7998 483.593 439.241)" stroke="#303131" stroke-width="7.35128"/>
<path d="M691.189 500.966L718.784 493.411L726.196 490.787L741.37 487.735L739.159 507.007L720.328 511.607L693.472 515.174L691.189 500.966Z" fill="#FFD13C"/>
<path d="M250.872 519.505L259.005 520.276L290.525 524.335L290.761 541.039L279.44 540.596L248.728 535.958L250.872 519.505Z" fill="#FCD61D"/>
<path d="M568.435 391.111C563.914 387.031 555.075 380.247 542.833 377.667C531.292 375.236 521.981 377.65 516.857 379.499" stroke="#303131" stroke-width="7.35128" stroke-linecap="round" stroke-linejoin="round"/>
<path d="M389.527 387.763C393.54 383.767 401.441 377.057 412.717 374.076C423.347 371.265 432.137 373.049 437 374.511" stroke="#303131" stroke-width="7.35128" stroke-linecap="round" stroke-linejoin="round"/>
</svg>
