<svg width="954" height="656" viewBox="0 0 954 656" fill="none" xmlns="http://www.w3.org/2000/svg">
<path d="M777.604 462.857C731.704 466.057 735.504 455.157 689.604 458.357L723.004 515.357L744.404 534.057L777.604 462.857Z" fill="#94B259" stroke="#303131" stroke-width="11" stroke-linecap="round" stroke-linejoin="round"/>
<path d="M499.005 143.557L826.005 178.257L899.405 81.0569L874.905 59.2569C874.905 59.2569 762.605 75.9569 745.905 61.1569L729.805 36.8569L708.405 18.1569L702.705 13.5569C700.005 11.3569 697.005 9.55689 693.805 8.05689C685.905 5.75689 678.905 5.85688 675.305 6.15688C670.805 6.45688 662.705 7.05688 654.705 12.3569C651.805 14.2569 648.705 16.9569 640.805 28.8569C632.205 41.7569 630.805 46.1569 625.505 54.1569C622.505 58.6569 618.205 66.3569 612.105 72.7569C608.705 76.2569 603.905 78.3569 598.905 78.7569C553.005 81.9569 504.105 84.1569 458.205 87.2569L468.005 95.1569L489.405 113.857L499.005 143.557Z" fill="#94B259" stroke="#303131" stroke-width="11" stroke-linecap="round" stroke-linejoin="round"/>
<path d="M287.405 51.3568L291.405 65.5568C299.205 74.1568 309.105 82.0568 323.305 86.6568C335.805 90.6568 339.305 88.2568 397.505 87.3568C422.605 86.9568 443.305 87.1568 456.805 87.3568C456.905 88.3568 482.905 110.757 482.905 110.757L456.705 160.557L33.6047 550.457L6.60474 525.357C6.20474 501.757 5.80474 480.057 6.10474 466.857C6.80474 434.657 7.20474 418.557 14.3047 408.757C25.4047 393.557 36.7047 399.157 56.4047 379.457C62.8047 373.057 73.8047 361.757 78.6047 343.457C80.1047 337.557 85.3047 316.657 74.1047 295.757C68.3047 284.957 61.9047 287.357 57.2047 284.057L31.1047 260.757V99.7568C48.0047 100.257 72.1047 100.457 101.105 98.8568C138.805 96.8568 157.605 95.8568 170.705 90.5568C218.505 71.1568 220.205 23.7568 248.305 23.7568H250.505C253.805 23.7568 257.005 24.8568 259.705 26.8568L261.305 28.0568L287.405 51.3568Z" fill="#8F209A" stroke="#303131" stroke-width="11" stroke-linecap="round" stroke-linejoin="round"/>
<path d="M892.504 299.357C891.804 300.657 892.305 302.257 892.605 302.957C893.605 305.857 896.205 307.357 897.905 308.357C904.705 312.357 908.104 314.457 909.804 315.857C912.804 318.457 915.705 320.957 918.105 325.157C919.005 326.757 919.804 328.657 921.804 329.557C923.504 330.257 926.005 330.257 927.405 328.857C929.005 327.157 928.304 324.457 927.804 322.357C927.404 320.557 926.504 318.257 924.304 315.457C923.404 314.357 922.305 313.157 916.205 308.557C913.605 306.657 914.805 307.557 906.905 301.957C903.405 299.457 902.305 298.657 900.405 298.157C898.005 297.457 893.804 297.157 892.504 299.357Z" fill="#B0A8CF" stroke="#303131" stroke-width="11" stroke-linecap="round" stroke-linejoin="round"/>
<path d="M122.205 510.957C123.605 574.657 124.505 620.557 124.205 628.057C124.205 628.957 124.005 632.257 125.605 636.157C126.105 637.457 128.105 642.057 133.205 645.357C136.405 647.457 139.405 647.957 145.405 649.057C154.705 650.657 161.605 650.157 165.805 649.457C169.405 648.857 171.205 648.657 172.805 647.457C177.305 644.357 178.405 637.457 175.705 632.457C173.105 627.457 167.105 625.457 162.005 623.657C157.205 621.957 156.705 622.757 154.705 621.657C148.605 618.257 150.305 608.657 150.705 588.057C150.805 582.857 150.605 589.757 150.605 561.557C150.605 549.457 150.605 543.257 150.705 538.757C150.905 531.857 151.205 521.957 152.205 510.057" fill="#EB93F4"/>
<path d="M122.205 510.957C123.605 574.657 124.505 620.557 124.205 628.057C124.205 628.957 124.005 632.257 125.605 636.157C126.105 637.457 128.105 642.057 133.205 645.357C136.405 647.457 139.405 647.957 145.405 649.057C154.705 650.657 161.605 650.157 165.805 649.457C169.405 648.857 171.205 648.657 172.805 647.457C177.305 644.357 178.405 637.457 175.705 632.457C173.105 627.457 167.105 625.457 162.005 623.657C157.205 621.957 156.705 622.757 154.705 621.657C148.605 618.257 150.305 608.657 150.705 588.057C150.805 582.857 150.605 589.757 150.605 561.557C150.605 549.457 150.605 543.257 150.705 538.757C150.905 531.857 151.205 521.957 152.205 510.057" stroke="#303131" stroke-width="11" stroke-linecap="round" stroke-linejoin="round"/>
<path d="M353.805 514.557C355.105 574.957 356.005 618.557 355.705 625.657C355.705 626.457 355.505 629.657 357.005 633.257C357.505 634.457 359.405 638.857 364.205 642.057C367.305 644.057 370.105 644.557 375.805 645.557C384.605 647.057 391.205 646.557 395.105 645.957C398.505 645.457 400.205 645.157 401.805 644.057C406.005 641.057 407.105 634.557 404.605 629.857C402.105 625.157 396.405 623.157 391.605 621.457C387.005 619.857 386.605 620.657 384.705 619.557C378.905 616.257 380.505 607.257 380.905 587.657C381.005 582.657 380.805 589.257 380.805 562.557C380.805 551.057 380.805 545.257 380.905 540.857C381.105 534.257 381.405 524.957 382.305 513.657" fill="#EB93F4"/>
<path d="M353.805 514.557C355.105 574.957 356.005 618.557 355.705 625.657C355.705 626.457 355.505 629.657 357.005 633.257C357.505 634.457 359.405 638.857 364.205 642.057C367.305 644.057 370.105 644.557 375.805 645.557C384.605 647.057 391.205 646.557 395.105 645.957C398.505 645.457 400.205 645.157 401.805 644.057C406.005 641.057 407.105 634.557 404.605 629.857C402.105 625.157 396.405 623.157 391.605 621.457C387.005 619.857 386.605 620.657 384.705 619.557C378.905 616.257 380.505 607.257 380.905 587.657C381.005 582.657 380.805 589.257 380.805 562.557C380.805 551.057 380.805 545.257 380.905 540.857C381.105 534.257 381.405 524.957 382.305 513.657" stroke="#303131" stroke-width="11" stroke-linecap="round" stroke-linejoin="round"/>
<path d="M583.305 512.857C581.905 574.857 581.005 619.557 581.305 626.857C581.305 627.757 581.505 630.957 580.005 634.657C579.505 635.957 577.605 640.457 572.605 643.657C569.505 645.657 566.505 646.157 560.705 647.157C551.605 648.757 545.005 648.157 540.905 647.557C537.405 647.057 535.605 646.757 534.005 645.657C529.705 642.557 528.605 635.857 531.205 631.057C533.805 626.257 539.605 624.157 544.505 622.457C549.205 620.757 549.705 621.657 551.605 620.557C557.505 617.157 555.605 589.457 555.605 562.057C555.605 550.257 555.605 544.257 555.505 539.857C555.305 533.157 555.005 523.557 554.105 511.957" fill="#E9FFC5"/>
<path d="M583.305 512.857C581.905 574.857 581.005 619.557 581.305 626.857C581.305 627.757 581.505 630.957 580.005 634.657C579.505 635.957 577.605 640.457 572.605 643.657C569.505 645.657 566.505 646.157 560.705 647.157C551.605 648.757 545.005 648.157 540.905 647.557C537.405 647.057 535.605 646.757 534.005 645.657C529.705 642.557 528.605 635.857 531.205 631.057C533.805 626.257 539.605 624.157 544.505 622.457C549.205 620.757 549.705 621.657 551.605 620.557C557.505 617.157 555.605 589.457 555.605 562.057C555.605 550.257 555.605 544.257 555.505 539.857C555.305 533.157 555.005 523.557 554.105 511.957" stroke="#303131" stroke-width="11" stroke-linecap="round" stroke-linejoin="round"/>
<path d="M821.505 519.857C820.205 577.857 819.405 619.657 819.605 626.457C819.605 627.257 819.805 630.257 818.305 633.757C817.805 634.957 816.005 639.157 811.305 642.157C808.405 644.057 805.605 644.557 800.105 645.457C791.605 646.957 785.405 646.457 781.605 645.857C778.305 645.357 776.605 645.157 775.205 644.057C771.105 641.157 770.105 634.957 772.505 630.457C774.905 625.957 780.305 624.057 785.005 622.457C789.405 620.957 789.805 621.657 791.605 620.657C797.105 617.557 795.305 591.557 795.305 565.957C795.305 554.957 795.305 549.357 795.205 545.157C795.105 538.857 794.705 529.957 793.905 519.057" fill="#E9FFC5"/>
<path d="M821.505 519.857C820.205 577.857 819.405 619.657 819.605 626.457C819.605 627.257 819.805 630.257 818.305 633.757C817.805 634.957 816.005 639.157 811.305 642.157C808.405 644.057 805.605 644.557 800.105 645.457C791.605 646.957 785.405 646.457 781.605 645.857C778.305 645.357 776.605 645.157 775.205 644.057C771.105 641.157 770.105 634.957 772.505 630.457C774.905 625.957 780.305 624.057 785.005 622.457C789.405 620.957 789.805 621.657 791.605 620.657C797.105 617.557 795.305 591.557 795.305 565.957C795.305 554.957 795.305 549.357 795.205 545.157C795.105 538.857 794.705 529.957 793.905 519.057" stroke="#303131" stroke-width="11" stroke-linecap="round" stroke-linejoin="round"/>
<path d="M39.8047 108.057L61.2047 126.757" stroke="#303131" stroke-width="11" stroke-linecap="round" stroke-linejoin="round"/>
<path d="M885.905 249.957C873.605 233.357 884.405 221.557 885.305 152.957" stroke="#303131" stroke-width="11" stroke-linecap="round" stroke-linejoin="round"/>
<path d="M156.605 525.357C197.905 508.957 200.805 470.757 226.405 470.357C244.005 470.057 252.705 482.657 260.305 495.957C267.905 509.257 284.305 541.957 297.105 544.257C322.905 548.757 452.605 525.357 452.605 525.357C452.605 525.357 452.805 516.857 453.005 503.957C453.505 470.457 453.205 469.557 453.605 455.957C454.305 431.357 455.205 412.857 455.205 412.857C456.205 392.157 456.905 385.857 452.605 378.657C447.305 369.757 441.105 370.757 428.905 361.457C421.005 355.457 402.505 341.257 400.905 321.057C399.205 300.157 416.705 283.657 420.705 279.857C430.005 271.157 435.005 271.657 442.205 265.757C459.005 252.157 459.405 226.457 459.405 196.657C459.305 165.557 458.705 137.257 457.805 112.157L156.605 525.357Z" fill="#8F209A" stroke="#303131" stroke-width="11" stroke-linecap="round" stroke-linejoin="round"/>
<path d="M57.3047 123.057V284.157L81.9047 298.557C86.6047 301.857 94.5047 308.457 100.305 319.257C111.505 340.157 106.405 360.957 104.805 366.957C100.005 385.157 89.0047 396.457 82.6047 402.957C62.9047 422.657 51.6047 417.057 40.5047 432.257C33.4047 442.057 33.0047 458.157 32.3047 490.357C32.0047 503.557 32.4047 525.257 32.8047 548.857C32.2047 556.157 88.3047 553.057 110.505 553.157C165.205 553.457 172.205 553.057 182.705 548.857C224.005 532.457 226.905 494.257 252.505 493.857C287.605 493.257 287.505 544.357 313.205 548.857C339.005 553.357 478.705 548.857 478.705 548.857C478.705 548.857 478.905 540.357 479.105 527.457C479.605 493.957 479.305 493.057 479.705 479.457C480.405 454.857 481.305 436.357 481.305 436.357C482.305 415.657 483.005 409.357 478.705 402.157C473.405 393.257 467.205 394.257 455.005 384.957C447.105 378.957 428.605 364.757 427.005 344.557C425.305 323.657 442.805 307.157 446.805 303.357C456.105 294.657 461.105 295.157 468.305 289.257C485.105 275.657 485.505 249.957 485.505 220.157C485.405 178.457 484.305 141.757 482.905 110.857C469.305 110.657 448.705 110.457 423.605 110.857C365.405 111.657 361.905 114.157 349.405 110.157C303.905 95.4568 302.405 47.2568 274.405 47.2568C246.405 47.2568 244.705 94.6568 196.805 114.057C183.805 119.357 164.905 120.357 127.205 122.357C98.2047 123.757 74.1047 123.557 57.3047 123.057Z" fill="#DB3FEB" stroke="#303131" stroke-width="11" stroke-linecap="round" stroke-linejoin="round"/>
<path d="M349.117 324.739C343.618 329.542 335.267 328.979 330.463 323.48C325.66 317.982 326.223 309.63 331.722 304.827C337.22 300.023 345.572 300.587 350.375 306.085C355.179 311.584 354.615 319.935 349.117 324.739Z" fill="#303131"/>
<path d="M243.881 329.086C238.256 333.47 230.143 332.464 225.759 326.84C221.375 321.215 222.381 313.102 228.006 308.718C233.63 304.334 241.744 305.34 246.128 310.965C250.511 316.589 249.505 324.703 243.881 329.086Z" fill="#303131"/>
<path d="M294.822 329.697C294.822 329.697 300.648 340.966 297.875 343.148C295.091 345.317 288.686 345.826 288.686 345.826" stroke="#303131" stroke-width="11" stroke-linecap="round" stroke-linejoin="round"/>
<path d="M197.798 295.093C200.362 289.855 205.797 280.672 215.757 274.012C225.147 267.734 234.284 266.558 239.498 266.373" stroke="#303131" stroke-width="12" stroke-linecap="round" stroke-linejoin="round"/>
<path d="M373.945 274.786C370.016 271.048 362.303 264.797 351.442 262.189C341.203 259.732 332.826 261.632 328.202 263.139" stroke="#303131" stroke-width="12" stroke-linecap="round" stroke-linejoin="round"/>
<path d="M479.705 548.257C489.205 548.257 514.905 548.157 551.305 548.057C586.305 547.957 604.105 547.657 615.905 540.257C627.005 533.157 634.205 516.657 645.805 499.657C657.805 485.757 672.705 481.057 689.105 481.057C701.905 480.657 713.405 484.457 726.005 497.057C743.405 514.557 737.405 530.057 751.705 537.957C761.705 543.457 771.405 544.057 781.005 544.357C821.105 545.357 865.305 540.457 887.005 537.657C889.105 485.257 881.205 421.957 896.505 383.657C896.505 383.657 916.305 380.057 928.905 370.657C945.605 358.257 948.105 329.757 948.205 328.057C948.205 280.957 917.305 285.457 907.305 271.857C895.005 255.257 905.805 243.457 906.705 174.857C907.005 150.757 905.905 134.457 905.105 125.157C903.505 106.657 901.105 91.3567 899.305 81.1567C855.305 81.8567 784.005 97.9567 767.305 83.1567C761.605 78.0567 757.005 71.8567 757.005 71.8567C756.305 70.9567 755.205 69.4567 750.605 62.9567C742.305 51.1567 742.105 50.3567 739.605 47.2567C737.105 44.2567 733.305 39.5567 727.405 35.6567C715.405 27.6567 702.205 27.7567 696.905 28.1567C692.405 28.4567 684.305 29.0567 676.305 34.3567C673.405 36.2567 670.305 38.9567 662.405 50.8567C653.805 63.7567 652.405 68.1567 647.105 76.1567C644.105 80.6567 639.805 86.3567 633.705 92.7567C630.305 96.2567 625.505 98.3567 620.505 98.7567C574.605 101.957 528.705 105.157 482.805 108.257C482.605 165.657 482.305 223.057 482.105 280.457C474.705 282.157 462.305 285.857 450.505 295.457C446.705 298.557 421.605 318.857 424.405 344.957C426.905 368.157 450.605 389.157 482.605 392.457L479.705 548.257Z" fill="#C2FA67" stroke="#303131" stroke-width="11" stroke-linecap="round" stroke-linejoin="round"/>
<path d="M39.0048 104.557L54.7048 121.657" stroke="#303131" stroke-width="11" stroke-linecap="round" stroke-linejoin="round"/>
<path d="M255.705 372.857C255.705 372.857 263.505 381.957 278.705 381.157C293.905 380.257 304.505 369.157 304.505 369.157" stroke="#303131" stroke-width="11" stroke-linecap="round" stroke-linejoin="round"/>
<path d="M74.1046 153.657C73.2046 156.757 72.9047 159.457 72.9047 172.757C72.9047 182.557 73.1047 181.257 72.9047 182.857C72.4047 189.057 71.2047 191.957 72.9047 195.757C73.3047 196.557 74.7047 199.857 77.0047 199.957C79.1047 200.057 80.8047 197.357 81.5047 196.157C84.1047 191.757 83.9047 187.457 83.4047 177.157C83.3047 174.657 82.9046 166.557 84.1046 157.057C84.4046 154.657 85.0046 151.957 87.1046 150.157C88.1046 149.257 89.4047 148.857 95.9047 148.457C102.805 148.057 104.705 148.357 106.605 146.657C107.805 145.657 109.005 143.757 108.605 141.957C108.505 141.357 108.005 140.157 105.205 138.757C99.9047 136.157 94.6047 136.857 92.4047 137.157C90.3047 137.457 87.1046 137.957 83.6046 140.057C80.5046 141.857 78.7047 144.057 78.2047 144.757C77.2047 146.157 75.4046 148.657 74.1046 153.657Z" fill="#CB9BC6"/>
<path d="M79.1047 221.557C78.7047 223.957 76.7047 226.957 74.3047 226.857C71.9047 226.657 70.4047 223.557 70.3047 221.157C70.2047 217.857 72.8047 214.157 75.3047 214.457C77.7047 214.557 79.6047 218.457 79.1047 221.557Z" fill="#CB9BC6"/>
<path d="M463.105 454.757C462.705 457.157 460.705 460.157 458.305 460.057C455.905 459.857 454.405 456.757 454.305 454.357C454.205 451.057 456.805 447.357 459.305 447.657C461.705 447.757 463.605 451.657 463.105 454.757Z" fill="#CB9BC6"/>
<path d="M432.705 393.957C431.805 395.157 432.105 396.757 432.305 397.557C432.905 400.557 435.305 402.457 436.805 403.657C443.005 408.557 446.205 411.057 447.605 412.657C449.105 414.257 452.805 417.757 454.605 423.057C457.505 431.457 453.605 437.757 456.705 439.757C458.405 440.857 460.905 439.957 462.405 438.957C466.905 435.757 465.505 427.157 464.605 421.557C463.905 417.557 462.505 414.957 462.005 414.257C461.305 413.057 460.405 411.757 454.805 406.257C452.505 403.957 453.505 405.057 446.505 398.457C443.305 395.457 442.405 394.557 440.505 393.857C438.305 392.857 434.205 391.957 432.705 393.957Z" fill="#CB9BC6"/>
<path d="M528.805 132.257C531.905 131.357 534.505 131.057 547.705 131.057C557.405 131.057 556.105 131.257 557.705 131.057C563.805 130.557 566.705 129.357 570.505 131.057C571.305 131.457 574.505 132.957 574.605 135.257C574.705 137.457 572.005 139.157 570.905 139.857C566.505 142.557 562.305 142.257 552.105 141.757C549.605 141.657 541.605 141.257 532.205 142.557C529.905 142.857 527.205 143.457 525.505 145.557C524.705 146.657 524.205 147.857 523.805 154.457C523.405 161.457 523.705 163.357 522.105 165.257C521.105 166.457 519.205 167.757 517.505 167.357C516.905 167.257 515.705 166.757 514.305 163.857C511.705 158.557 512.405 153.057 512.705 150.857C513.005 148.757 513.505 145.557 515.605 141.957C517.405 138.857 519.605 136.957 520.205 136.457C521.505 135.457 523.905 133.657 528.805 132.257Z" fill="#E7EEB4"/>
<path d="M589.005 139.157C586.605 138.957 583.405 137.257 583.405 134.857C583.305 132.457 586.305 130.557 588.705 130.257C591.905 129.857 595.805 132.057 595.805 134.557C595.705 137.057 592.105 139.357 589.005 139.157Z" fill="#E7EEB4"/>
<path d="M855.705 505.657C856.405 502.557 856.605 499.857 856.005 486.457C855.605 476.657 855.505 477.957 855.505 476.357C855.705 470.157 856.805 467.157 854.905 463.457C854.505 462.657 852.905 459.457 850.605 459.457C848.505 459.457 846.905 462.257 846.305 463.457C843.905 467.957 844.305 472.257 845.305 482.557C845.505 485.057 846.305 493.157 845.505 502.757C845.305 505.157 844.905 507.857 842.805 509.757C841.805 510.657 840.605 511.157 834.105 511.857C827.205 512.557 825.305 512.357 823.505 514.157C822.405 515.257 821.205 517.157 821.705 518.957C821.905 519.557 822.405 520.757 825.305 522.057C830.705 524.457 836.005 523.457 838.205 523.057C840.205 522.657 843.405 522.057 846.905 519.757C849.905 517.757 851.605 515.557 852.105 514.857C853.005 513.257 854.605 510.757 855.705 505.657Z" fill="#E7EEB4"/>
<path d="M849.704 447.557C847.304 447.357 844.104 445.657 844.104 443.257C844.004 440.857 847.004 438.957 849.404 438.657C852.604 438.257 856.504 440.457 856.504 442.957C856.404 445.457 852.804 447.757 849.704 447.557Z" fill="#E7EEB4"/>
<path d="M939.504 414.857C944.904 427.357 946.704 436.457 947.404 440.157C948.804 447.857 948.504 451.557 948.304 453.457C947.904 457.057 947.204 462.657 942.904 468.057C940.704 470.857 937.104 475.657 931.404 476.057C926.504 476.357 923.004 473.157 922.704 472.957C920.104 470.557 919.304 467.557 919.004 466.257C918.604 464.757 918.604 462.557 918.704 458.157C918.804 455.757 918.804 454.157 918.904 452.357C919.004 450.557 919.104 449.257 919.204 449.057C920.304 437.757 914.704 422.657 914.704 422.657C910.504 411.257 904.704 402.157 904.704 402.157C900.804 396.057 897.504 392.357 898.904 388.757C899.804 386.457 902.204 385.257 907.004 382.957C911.804 380.557 914.204 379.457 916.504 379.657C920.104 379.857 922.704 382.957 931.004 398.257C935.404 406.557 937.704 410.757 939.504 414.857Z" fill="#E9FFC5" stroke="#303131" stroke-width="11" stroke-linecap="round" stroke-linejoin="round"/>
<path d="M74.9047 444.357C78.2047 452.257 79.8047 456.157 81.7047 459.657C87.3047 470.357 92.5047 476.557 94.7047 479.057C99.2047 484.257 101.905 486.157 103.305 487.057C106.005 488.757 110.205 491.357 116.305 491.357C119.405 491.357 124.705 491.457 128.105 487.657C131.005 484.357 130.805 480.157 130.705 479.857C130.505 476.657 128.905 474.557 128.205 473.557C127.405 472.457 125.905 471.257 122.805 468.857C121.105 467.557 120.005 466.757 118.705 465.857C117.405 464.957 116.405 464.357 116.305 464.257C108.005 458.857 100.705 446.557 100.705 446.557C95.2047 437.257 92.1047 428.257 92.1047 428.257" fill="#EB93F4"/>
<path d="M74.9047 444.357C78.2047 452.257 79.8047 456.157 81.7047 459.657C87.3047 470.357 92.5047 476.557 94.7047 479.057C99.2047 484.257 101.905 486.157 103.305 487.057C106.005 488.757 110.205 491.357 116.305 491.357C119.405 491.357 124.705 491.457 128.105 487.657C131.005 484.357 130.805 480.157 130.705 479.857C130.505 476.657 128.905 474.557 128.205 473.557C127.405 472.457 125.905 471.257 122.805 468.857C121.105 467.557 120.005 466.757 118.705 465.857C117.405 464.957 116.405 464.357 116.305 464.257C108.005 458.857 100.705 446.557 100.705 446.557C95.2047 437.257 92.1047 428.257 92.1047 428.257" stroke="#303131" stroke-width="11" stroke-linecap="round" stroke-linejoin="round"/>
<path d="M614.706 314.334C620.205 319.138 628.556 318.574 633.359 313.076C638.163 307.577 637.599 299.226 632.101 294.423C626.602 289.619 618.251 290.183 613.448 295.681C608.644 301.18 609.208 309.531 614.706 314.334Z" fill="#303131"/>
<path d="M719.942 318.682C725.567 323.066 733.68 322.06 738.064 316.435C742.448 310.811 741.442 302.697 735.817 298.314C730.192 293.93 722.079 294.936 717.695 300.56C713.311 306.185 714.317 314.298 719.942 318.682Z" fill="#303131"/>
<path d="M672.205 304.657C672.205 304.657 663.174 330.562 665.948 332.743C668.731 334.913 675.137 335.422 675.137 335.422" stroke="#303131" stroke-width="11" stroke-linecap="round" stroke-linejoin="round"/>
<path d="M768.819 274.805C766.255 269.567 760.82 260.383 750.86 253.724C741.47 247.446 732.333 246.27 727.119 246.085" stroke="#303131" stroke-width="12" stroke-linecap="round" stroke-linejoin="round"/>
<path d="M595.705 250.543C599.634 246.805 607.347 240.554 618.208 237.946C628.447 235.488 636.824 237.389 641.448 238.896" stroke="#303131" stroke-width="12" stroke-linecap="round" stroke-linejoin="round"/>
<path d="M718.269 355.222C716.41 352.062 703.577 358.994 684.198 361.802C662.962 364.897 652.718 360.296 649.387 364.276C646.279 368.023 652.637 375.342 658.648 378.583C659.443 379.006 662.773 380.729 668.076 381.543C672.679 382.254 676.64 381.937 678.248 381.785C680.512 381.556 684.708 380.98 689.846 379.181C701.684 375.048 709.208 367.735 710.906 366.025C714.631 362.277 719.523 357.37 718.269 355.222Z" fill="#94B259" stroke="#303131" stroke-width="11" stroke-linecap="round" stroke-linejoin="round"/>
</svg>
