<svg width="392" height="763" viewBox="0 0 392 763" fill="none" xmlns="http://www.w3.org/2000/svg">
<path d="M256.931 660.755C257.908 704.575 258.547 736.168 258.327 741.334C258.307 741.932 258.168 744.206 259.285 746.879C259.644 747.776 261.02 750.948 264.53 753.241C266.744 754.677 268.819 755.036 272.967 755.754C279.37 756.871 284.097 756.492 286.969 756.054C289.442 755.675 290.698 755.475 291.795 754.697C294.867 752.543 295.625 747.796 293.81 744.406C291.975 740.995 287.886 739.559 284.396 738.322C281.085 737.165 280.746 737.724 279.389 736.966C275.201 734.592 276.358 728.05 276.637 713.849C276.717 710.259 276.557 714.986 276.597 695.62C276.597 687.282 276.617 683.054 276.697 679.923C276.817 675.156 277.056 668.394 277.694 660.197" fill="#EB93F4"/>
<path d="M256.931 660.755C257.908 704.575 258.547 736.168 258.327 741.334C258.307 741.932 258.168 744.206 259.285 746.879C259.644 747.776 261.02 750.948 264.53 753.241C266.744 754.677 268.819 755.036 272.967 755.754C279.37 756.871 284.097 756.492 286.969 756.054C289.442 755.675 290.698 755.475 291.795 754.697C294.867 752.543 295.625 747.796 293.81 744.406C291.975 740.995 287.886 739.559 284.396 738.322C281.085 737.165 280.746 737.724 279.389 736.966C275.201 734.592 276.358 728.05 276.637 713.849C276.717 710.259 276.557 714.986 276.597 695.62C276.597 687.282 276.617 683.054 276.697 679.923C276.817 675.156 277.056 668.394 277.694 660.197" stroke="#303131" stroke-width="7.35128" stroke-linecap="round" stroke-linejoin="round"/>
<path d="M128.913 658.203C127.876 704.376 127.218 737.684 127.437 743.129C127.457 743.768 127.597 746.161 126.44 748.973C126.061 749.911 124.625 753.261 120.915 755.675C118.581 757.191 116.407 757.57 112.039 758.328C105.298 759.504 100.312 759.105 97.28 758.647C94.6671 758.248 93.3508 758.048 92.174 757.231C88.9429 754.957 88.145 749.951 90.0598 746.38C91.9745 742.77 96.3026 741.274 99.9726 739.978C103.463 738.761 103.822 739.36 105.258 738.542C109.666 736.049 108.449 729.148 108.15 714.169C108.07 710.379 108.25 715.366 108.21 694.962C108.21 686.186 108.19 681.718 108.11 678.427C107.991 673.401 107.731 666.28 107.053 657.644" fill="#EB93F4"/>
<path d="M128.913 658.203C127.876 704.376 127.218 737.684 127.437 743.129C127.457 743.768 127.597 746.161 126.44 748.973C126.061 749.911 124.625 753.261 120.915 755.675C118.581 757.191 116.407 757.57 112.039 758.328C105.298 759.504 100.312 759.105 97.28 758.647C94.6671 758.248 93.3508 758.048 92.174 757.231C88.9429 754.957 88.145 749.951 90.0598 746.38C91.9745 742.77 96.3026 741.274 99.9726 739.978C103.463 738.761 103.822 739.36 105.258 738.542C109.666 736.049 108.449 729.148 108.15 714.169C108.07 710.379 108.25 715.366 108.21 694.962C108.21 686.186 108.19 681.718 108.11 678.427C107.991 673.401 107.731 666.28 107.053 657.644" stroke="#303131" stroke-width="7.35128" stroke-linecap="round" stroke-linejoin="round"/>
<path d="M339.785 356.829L355.282 370.391" stroke="#303131" stroke-width="7.35128" stroke-linecap="round" stroke-linejoin="round"/>
<path d="M41.9424 376.974V493.753L59.7535 504.204C63.184 506.618 68.9083 511.345 73.0968 519.183C81.2145 534.302 77.4848 549.44 76.3678 553.728C72.8974 566.952 64.9193 575.149 60.272 579.797C46.0112 594.077 37.7738 590.009 29.7559 601.038C24.61 608.139 24.3307 619.807 23.7922 643.143C23.5728 652.677 23.8521 668.433 24.1313 685.526C23.6925 690.832 64.4007 688.538 80.4766 688.618C120.128 688.837 125.214 688.538 132.833 685.526C162.79 673.659 164.865 645.975 183.434 645.656C208.884 645.217 208.784 682.235 227.473 685.526C246.181 688.817 347.423 685.526 347.423 685.526C347.423 685.526 347.543 679.363 347.683 669.989C348.042 645.716 347.822 645.077 348.102 635.224C348.62 617.413 349.278 603.99 349.278 603.99C350.036 589.011 350.515 584.444 347.423 579.198C343.614 572.756 339.086 573.494 330.231 566.732C324.526 562.384 311.083 552.093 309.926 537.433C308.73 522.255 321.355 510.347 324.307 507.555C331.028 501.212 334.698 501.611 339.924 497.363C352.091 487.47 352.43 468.841 352.39 447.241C352.33 417.004 351.552 390.417 350.535 368.038C340.682 367.899 325.743 367.779 307.513 368.038C265.349 368.637 262.796 370.412 253.701 367.5C220.691 356.869 219.654 321.925 199.35 321.925C179.046 321.925 177.809 356.31 143.125 370.352C133.67 374.181 120.008 374.899 92.683 376.375C71.6408 377.492 54.1489 377.353 41.9224 377.014L41.9424 376.974Z" fill="#DB3FEB" stroke="#303131" stroke-width="7.35128" stroke-linecap="round" stroke-linejoin="round"/>
<path d="M155.725 488.33C159.363 491.508 164.888 491.135 168.065 487.498C171.243 483.86 170.87 478.336 167.233 475.158C163.595 471.98 158.07 472.353 154.893 475.99C151.715 479.628 152.088 485.153 155.725 488.33Z" fill="#303131"/>
<path d="M225.343 491.206C229.064 494.106 234.431 493.441 237.331 489.72C240.231 485.999 239.566 480.632 235.845 477.732C232.124 474.832 226.756 475.497 223.856 479.218C220.956 482.939 221.622 488.306 225.343 491.206Z" fill="#303131"/>
<path d="M201.357 491.095C201.357 491.095 205.211 498.549 203.376 499.992C201.535 501.428 197.297 501.764 197.297 501.764" stroke="#303131" stroke-width="7.35128" stroke-linecap="round" stroke-linejoin="round"/>
<path d="M260.36 474.802C258.664 471.336 255.068 465.261 248.479 460.856C242.268 456.703 236.223 455.925 232.774 455.802" stroke="#303131" stroke-width="7.35128" stroke-linecap="round" stroke-linejoin="round"/>
<path d="M141.284 470.125C143.254 467.127 147.284 461.941 153.89 458.63C160.117 455.508 165.8 455.474 169.005 455.751" stroke="#303131" stroke-width="7.35128" stroke-linecap="round" stroke-linejoin="round"/>
<path d="M132.388 377.827C115.72 416.417 103.782 444.29 102.109 448.95C101.91 449.493 101.205 451.553 99.259 453.541C98.6042 454.201 96.2567 456.542 92.2903 457.302C89.814 457.784 87.8382 457.349 83.8789 456.498C77.7809 455.19 73.7085 453.131 71.3073 451.728C69.2423 450.504 68.182 449.88 67.4869 448.781C65.5299 445.75 66.5721 441.266 69.4012 438.904C72.2562 436.532 76.4147 436.732 79.9621 436.899C83.3392 437.062 83.4253 437.7 84.9039 437.503C89.4734 436.901 90.8084 430.684 95.6725 417.935C96.9127 414.715 95.3345 418.982 102.296 401.746C105.3 394.333 106.802 390.573 107.858 387.752C109.481 383.481 111.693 377.383 114.079 369.849" fill="#E9FFC5"/>
<path d="M132.388 377.827C115.72 416.417 103.782 444.29 102.109 448.95C101.91 449.493 101.205 451.553 99.259 453.541C98.6042 454.201 96.2567 456.542 92.2903 457.302C89.814 457.784 87.8382 457.349 83.8789 456.498C77.7809 455.19 73.7085 453.131 71.3073 451.728C69.2423 450.504 68.182 449.88 67.4869 448.781C65.5299 445.75 66.5721 441.266 69.4012 438.904C72.2562 436.532 76.4147 436.732 79.9621 436.899C83.3392 437.062 83.4253 437.7 84.9039 437.503C89.4734 436.901 90.8084 430.684 95.6725 417.935C96.9127 414.715 95.3345 418.982 102.296 401.746C105.3 394.333 106.802 390.573 107.858 387.752C109.481 383.481 111.693 377.383 114.079 369.849" stroke="#303131" stroke-width="7.35128" stroke-linecap="round" stroke-linejoin="round"/>
<path d="M10.4916 284.334C6.60231 293.429 5.26601 299.971 4.78732 302.644C3.77011 308.249 3.96954 310.901 4.1291 312.318C4.42828 314.91 4.94687 318.979 8.01844 322.928C9.61406 324.963 12.187 328.453 16.3755 328.693C19.9457 328.892 22.4986 326.618 22.6981 326.419C24.5929 324.684 25.1514 322.51 25.3907 321.592C25.6699 320.495 25.7099 318.899 25.6101 315.708C25.5503 313.973 25.5303 312.776 25.4505 311.48C25.3708 310.183 25.271 309.226 25.2511 309.086C24.4732 300.909 28.5421 289.939 28.5421 289.939C31.6137 281.642 35.7623 275.08 35.7623 275.08C38.5745 270.652 40.9679 267.959 39.9707 265.347C39.3324 263.691 37.5972 262.833 34.1267 261.118C30.6363 259.383 28.8812 258.585 27.2257 258.705C24.6129 258.864 22.6981 261.098 16.7345 272.168C13.4236 278.331 11.7482 281.402 10.4916 284.354V284.334Z" fill="#E9FFC5" stroke="#303131" stroke-width="7.35128" stroke-linecap="round" stroke-linejoin="round"/>
<path d="M281.151 360.499C310.234 394.77 331.15 419.511 334.322 423.769C334.696 424.262 336.057 426.162 338.662 427.568C339.534 428.042 342.666 429.688 346.953 429.241C349.633 428.968 351.516 427.902 355.281 425.799C361.093 422.548 364.618 419.201 366.622 416.985C368.35 415.095 369.232 414.123 369.612 412.787C370.665 409.083 368.203 404.813 364.561 403.299C360.893 401.754 356.711 403.246 353.143 404.547C349.756 405.754 349.854 406.445 348.267 406.705C343.404 407.516 340.096 401.57 331.144 390.059C328.882 387.143 331.808 391.035 319.324 375.582C313.934 368.937 311.223 365.563 309.262 363.019C306.277 359.148 302.118 353.61 297.312 346.671" fill="#E9FFC5"/>
<path d="M281.151 360.499C310.234 394.77 331.15 419.511 334.322 423.769C334.696 424.262 336.057 426.162 338.662 427.568C339.534 428.042 342.666 429.688 346.953 429.241C349.633 428.968 351.516 427.902 355.281 425.799C361.093 422.548 364.618 419.201 366.622 416.985C368.35 415.095 369.232 414.123 369.612 412.787C370.665 409.083 368.203 404.813 364.561 403.299C360.893 401.754 356.711 403.246 353.143 404.547C349.756 405.754 349.854 406.445 348.267 406.705C343.404 407.516 340.096 401.57 331.144 390.059C328.882 387.143 331.808 391.035 319.324 375.582C313.934 368.937 311.223 365.563 309.262 363.019C306.277 359.148 302.118 353.61 297.312 346.671" stroke="#303131" stroke-width="7.35128" stroke-linecap="round" stroke-linejoin="round"/>
<path d="M48.455 381.295C55.3161 381.295 73.9849 381.255 100.372 381.155C125.763 381.056 138.627 380.896 147.184 375.471C155.262 370.345 153.885 367.234 172.514 349.243C188.75 333.566 193.437 332.409 196.867 332.31C206.162 332.05 213.502 339.39 222.597 348.525C235.242 361.19 235.302 368.091 245.614 373.776C252.894 377.785 259.874 378.224 266.875 378.403C295.955 379.141 328.007 375.551 343.724 373.556C345.26 335.541 339.496 289.647 350.625 261.943C350.625 261.943 364.966 259.33 374.141 252.489C386.247 243.474 388.042 222.81 388.142 221.634C389.219 210.305 384.392 207.153 382.059 203.104C374.061 189.183 365.764 190.738 358.484 180.905C349.568 168.858 357.387 160.282 358.045 110.559C358.284 93.0865 357.486 96.6368 356.908 89.9352C355.771 76.4921 354.036 65.4624 352.699 58.0228C320.807 58.5015 269.109 54.8116 257.002 44.0612C252.874 40.3912 249.503 35.8437 249.503 35.8437C248.964 35.1656 248.167 34.1284 244.876 29.4214C238.892 20.8649 238.732 20.2665 236.917 18.0725C235.122 15.8786 232.33 12.4879 228.042 9.65565C219.306 3.87153 209.772 3.95131 205.903 4.23055C202.671 4.46989 196.748 4.90868 190.964 8.75811C188.869 10.1543 186.635 12.089 180.891 20.7452C174.688 30.0796 173.631 33.2907 169.782 39.0948C167.628 42.3259 164.516 46.5144 160.088 51.1018C157.595 53.6748 154.165 55.1906 150.555 55.4299C117.286 57.7236 84.0173 60.0373 50.7287 62.3509C50.5492 103.977 50.3697 145.602 50.1902 187.208C44.8249 188.405 35.8695 191.157 27.2731 198.118C24.5007 200.372 6.33064 215.111 8.36505 234.039C10.1801 250.853 27.3928 266.072 50.5293 268.505L48.4151 381.295H48.455Z" fill="#C2FA67" stroke="#303131" stroke-width="7.35128" stroke-linecap="round" stroke-linejoin="round"/>
<path d="M247.433 226.683C243.274 229.886 237.306 229.111 234.104 224.952C230.901 220.793 231.677 214.826 235.835 211.623C239.994 208.42 245.962 209.196 249.164 213.354C252.367 217.513 251.592 223.481 247.433 226.683Z" fill="#303131"/>
<path d="M171.727 225.129C167.496 228.025 161.719 226.943 158.823 222.712C155.928 218.481 157.01 212.704 161.24 209.808C165.471 206.912 171.248 207.995 174.144 212.225C177.04 216.456 175.958 222.233 171.727 225.129Z" fill="#303131"/>
<path d="M204.569 217.185C204.569 217.185 199.24 236.175 201.327 237.617C203.42 239.05 208.04 239.131 208.04 239.131" stroke="#303131" stroke-width="7.35128" stroke-linecap="round" stroke-linejoin="round"/>
<path d="M138.603 198.309C140.675 194.663 144.983 188.315 152.426 183.979C159.442 179.892 166.051 179.453 169.8 179.552" stroke="#303131" stroke-width="7.35128" stroke-linecap="round" stroke-linejoin="round"/>
<path d="M263.9 188.587C261.246 185.731 255.99 180.902 248.312 178.549C241.074 176.331 234.979 177.322 231.594 178.198" stroke="#303131" stroke-width="7.35128" stroke-linecap="round" stroke-linejoin="round"/>
<path d="M180.33 263.314C182.091 260.214 190.792 264.831 204.852 264.87C220.257 264.929 228.42 259.441 230.416 262.614C232.275 265.604 226.672 273.05 221.816 276.76C221.175 277.246 218.494 279.235 214.456 280.657C210.951 281.895 208.047 282.119 206.87 282.19C205.215 282.274 202.168 282.295 198.566 281.33C190.268 279.118 185.558 273.47 184.502 272.142C182.185 269.23 179.14 265.42 180.33 263.314Z" fill="#E9FFC5" stroke="#303131" stroke-width="7.35128" stroke-linecap="round" stroke-linejoin="round"/>
<path d="M84.0777 78.0346C86.2916 77.4163 88.2263 77.177 97.78 77.177C104.821 77.177 103.863 77.2966 105.02 77.1969C109.428 76.8379 111.542 75.9404 114.275 77.1969C114.853 77.4562 117.187 78.5532 117.267 80.2286C117.326 81.8043 115.392 83.0209 114.554 83.5395C111.383 85.4742 108.311 85.2947 100.951 84.9157C99.1563 84.816 93.3722 84.5567 86.5309 85.4742C84.8356 85.6936 82.881 86.1124 81.6444 87.6682C81.046 88.446 80.7269 89.3436 80.4476 94.1504C80.1485 99.2563 80.3679 100.613 79.1911 101.989C78.4531 102.866 77.0968 103.784 75.8403 103.485C75.4214 103.385 74.5438 103.046 73.5266 100.972C71.6518 97.1023 72.1504 93.1531 72.3898 91.5375C72.6092 90.0217 72.9682 87.6682 74.484 85.0753C75.8004 82.8215 77.3561 81.4851 77.8348 81.0663C78.7523 80.3084 80.5274 79.0319 84.0976 78.0346H84.0777Z" fill="#E9FFC5"/>
<path d="M127.699 83.0409C125.924 82.9212 123.67 81.6846 123.61 79.9095C123.571 78.1543 125.705 76.8179 127.42 76.5985C129.773 76.2994 132.546 77.9349 132.566 79.7499C132.566 81.525 129.973 83.1805 127.699 83.0409Z" fill="#E9FFC5"/>
<path d="M321.087 348.712C321.586 346.438 321.745 344.484 321.307 334.81C320.987 327.69 320.908 328.667 320.948 327.491C321.107 323.023 321.885 320.829 320.529 318.136C320.25 317.578 319.053 315.244 317.397 315.244C315.842 315.244 314.725 317.279 314.266 318.156C312.511 321.447 312.83 324.559 313.528 331.978C313.707 333.793 314.226 339.637 313.648 346.598C313.508 348.333 313.189 350.328 311.693 351.644C310.955 352.282 310.077 352.661 305.35 353.16C300.344 353.699 298.968 353.539 297.671 354.796C296.854 355.593 296.016 356.99 296.355 358.266C296.475 358.685 296.834 359.543 298.948 360.48C302.857 362.195 306.727 361.497 308.302 361.198C309.778 360.919 312.092 360.44 314.585 358.785C316.759 357.349 317.996 355.713 318.375 355.214C319.093 354.257 320.269 352.402 321.067 348.752L321.087 348.712Z" fill="#E9FFC5"/>
<path d="M316.679 306.607C314.904 306.487 312.65 305.251 312.59 303.475C312.55 301.72 314.684 300.384 316.399 300.164C318.753 299.865 321.525 301.501 321.545 303.316C321.545 305.091 318.952 306.746 316.679 306.607Z" fill="#E9FFC5"/>
<path d="M381.8 282.872C385.69 291.967 387.026 298.509 387.505 301.182C388.522 306.787 388.322 309.439 388.163 310.855C387.864 313.448 387.345 317.517 384.274 321.466C382.678 323.501 380.105 326.991 375.916 327.23C372.346 327.43 369.793 325.156 369.594 324.957C367.699 323.221 367.141 321.047 366.901 320.13C366.622 319.033 366.582 317.437 366.682 314.246C366.742 312.511 366.762 311.314 366.841 310.018C366.921 308.721 367.021 307.764 367.041 307.624C367.819 299.447 363.75 288.477 363.75 288.477C360.678 280.18 356.53 273.618 356.53 273.618C353.717 269.19 351.324 266.497 352.321 263.884C352.96 262.229 354.695 261.371 358.165 259.656C361.656 257.921 363.411 257.123 365.066 257.243C367.679 257.402 369.594 259.636 375.557 270.706C378.868 276.869 380.544 279.94 381.8 282.892V282.872Z" fill="#E9FFC5" stroke="#303131" stroke-width="7.35128" stroke-linecap="round" stroke-linejoin="round"/>
<path d="M54.128 399.153C53.5097 401.387 53.2903 403.362 53.2903 413.035C53.2903 420.156 53.41 419.198 53.3103 420.375C52.9513 424.843 52.0737 426.977 53.3103 429.749C53.5696 430.328 54.6466 432.701 56.3021 432.781C57.8378 432.841 59.0545 430.886 59.5731 430.029C61.4878 426.817 61.2884 423.706 60.9293 416.246C60.8496 414.411 60.5703 408.567 61.4679 401.646C61.6873 399.931 62.0862 397.937 63.6419 396.68C64.3998 396.062 65.2974 395.743 70.0443 395.463C75.0705 395.164 76.4268 395.384 77.7831 394.187C78.6407 393.429 79.5382 392.073 79.259 390.796C79.1593 390.377 78.8402 389.5 76.7659 388.463C72.9563 386.548 69.047 387.086 67.4514 387.306C65.9555 387.525 63.6419 387.884 61.069 389.42C58.8351 390.756 57.5187 392.312 57.1198 392.811C56.3619 393.748 55.1053 395.543 54.128 399.153Z" fill="#EB93F4"/>
<path d="M57.739 448.399C57.4597 450.174 56.0237 452.348 54.2685 452.208C52.5532 452.088 51.4363 449.795 51.3765 448.06C51.2967 445.646 53.1915 443.013 54.9865 443.173C56.7417 443.332 58.1179 446.105 57.739 448.399Z" fill="#EB93F4"/>
<path d="M336.154 617.454C335.874 619.229 334.438 621.403 332.683 621.263C330.968 621.144 329.831 618.87 329.791 617.115C329.711 614.701 331.586 612.069 333.381 612.228C335.136 612.368 336.513 615.16 336.154 617.454Z" fill="#EB93F4"/>
<path d="M314.074 573.356C313.416 574.194 313.675 575.411 313.775 575.949C314.214 578.143 315.949 579.5 317.026 580.357C321.554 583.927 323.807 585.723 324.865 586.879C325.942 588.076 328.634 590.569 329.951 594.399C332.045 600.462 329.233 605.049 331.486 606.525C332.703 607.323 334.558 606.685 335.595 605.967C338.886 603.653 337.869 597.41 337.211 593.322C336.732 590.41 335.655 588.535 335.356 588.016C334.817 587.119 334.179 586.201 330.17 582.232C328.514 580.597 329.252 581.394 324.127 576.568C321.813 574.414 321.135 573.755 319.798 573.217C318.183 572.579 315.211 571.94 314.094 573.376L314.074 573.356Z" fill="#EB93F4"/>
<path d="M343.747 492.628C344.339 490.578 341.365 467.38 337.814 458.357C335.42 452.286 334.245 449.229 332.893 446.548C328.758 438.291 324.906 433.43 323.307 431.48C319.923 427.407 317.934 425.954 316.855 425.236C314.842 423.908 311.645 421.86 306.996 421.759C304.597 421.707 300.581 421.514 297.929 424.425C295.665 426.901 295.764 430.124 295.779 430.376C295.895 432.799 297.1 434.488 297.611 435.215C298.223 436.07 299.318 437.041 301.635 438.881C302.898 439.876 303.766 440.569 304.72 441.263C305.693 441.979 306.419 442.479 306.544 442.544C312.807 446.848 318.049 456.179 318.049 456.179C322.102 463.36 324.455 475.972 324.455 475.972C325.734 480.062 324.683 502.08 326.423 503.36" fill="#EB93F4"/>
<path d="M44.6751 492.111C44.1729 490.037 47.1258 486.083 51.0648 477.223C53.72 471.261 55.0271 468.259 56.4942 465.639C60.9843 457.57 65.0432 452.88 66.7258 451.001C70.2839 447.079 72.3341 445.714 73.4432 445.043C75.5118 443.804 78.7946 441.897 83.444 441.998C85.8423 442.05 89.8628 442.032 92.386 445.055C94.5401 447.627 94.3019 450.842 94.2753 451.094C94.0545 453.51 92.7771 455.145 92.2357 455.849C91.5862 456.677 90.4506 457.599 88.0555 459.336C86.7512 460.276 85.853 460.93 84.8706 461.582C83.8668 462.255 83.1199 462.723 82.9923 462.783C76.5484 466.811 71.524 475.604 71.524 475.604C67.1624 482.602 64.357 490.83 64.357 490.83C62.9013 494.86 60.7851 500.619 58.991 501.822" fill="#EB93F4"/>
<path d="M343.747 492.628C344.339 490.578 341.365 467.38 337.814 458.357C335.42 452.286 334.245 449.229 332.893 446.548C328.758 438.291 324.906 433.43 323.307 431.48C319.923 427.407 317.934 425.954 316.855 425.236C314.842 423.908 311.645 421.86 306.996 421.759C304.597 421.707 300.581 421.514 297.929 424.425C295.665 426.901 295.764 430.124 295.779 430.376C295.895 432.799 297.1 434.488 297.611 435.215C298.223 436.07 299.318 437.041 301.635 438.881C302.898 439.876 303.766 440.569 304.72 441.263C305.693 441.979 306.419 442.479 306.544 442.544C312.807 446.848 318.049 456.179 318.049 456.179C322.102 463.36 324.455 475.972 324.455 475.972C325.734 480.062 324.683 502.08 326.423 503.36M44.6751 492.111C44.1729 490.037 47.1258 486.083 51.0648 477.223C53.72 471.261 55.0271 468.259 56.4942 465.639C60.9844 457.57 65.0432 452.88 66.7258 451.001C70.2839 447.079 72.3342 445.714 73.4432 445.043C75.5118 443.804 78.7946 441.897 83.444 441.998C85.8423 442.05 89.8628 442.032 92.386 445.055C94.5401 447.627 94.3019 450.842 94.2753 451.094C94.0545 453.51 92.7771 455.145 92.2356 455.849C91.5862 456.677 90.4506 457.599 88.0555 459.336C86.7512 460.276 85.853 460.93 84.8706 461.582C83.8667 462.255 83.1199 462.723 82.9923 462.783C76.5484 466.811 71.524 475.604 71.524 475.604C67.1623 482.602 64.357 490.83 64.357 490.83C62.9013 494.86 60.7851 500.619 58.991 501.822" stroke="#303131" stroke-width="7.35128" stroke-linecap="round" stroke-linejoin="round"/>
<path d="M198.186 551.992C205.294 551.757 210.9 546.848 210.707 541.028C210.514 535.208 204.596 530.681 197.488 530.916C190.38 531.152 184.774 536.061 184.967 541.881C185.16 547.701 191.078 552.228 198.186 551.992Z" fill="#EB93F4" stroke="#303131" stroke-width="7.35128" stroke-linecap="round" stroke-linejoin="round"/>
</svg>
