<svg xmlns="http://www.w3.org/2000/svg" width="617" height="755" fill="none" viewBox="0 0 617 755"><mask id="path-1-outside-1_2848_1853" width="616" height="755" x=".352" y="0" fill="#000" maskUnits="userSpaceOnUse"><rect width="616" height="755" x=".352" fill="#fff"/><path d="M8.35156 734.575C8.35156 740.261 13.1473 744.888 18.6629 746.27C18.9524 746.342 19.2452 746.419 19.5408 746.5H57.8516C63.3744 746.5 67.928 741.966 69.4194 736.648C72.4087 725.99 81.0973 710.5 106.352 710.5C131.245 710.5 139.416 725.55 142.082 736.189C143.464 741.704 148.091 746.5 153.777 746.5H189.852C195.374 746.5 199.929 741.965 201.434 736.651C204.452 725.993 213.224 710.5 238.727 710.5C264.788 710.5 274.389 726.679 277.887 737.345C279.533 742.362 283.965 746.5 289.246 746.5H324.782C330.332 746.5 334.897 741.925 336.357 736.57C339.263 725.914 347.779 710.5 372.727 710.5C397.733 710.5 406.337 725.987 409.298 736.646C410.776 741.967 415.329 746.5 420.852 746.5H460.352C465.874 746.5 470.43 741.964 471.944 736.653C474.98 725.994 483.809 710.5 509.477 710.5C531.345 710.5 538.885 725.956 541.484 736.614C542.793 741.979 547.329 746.5 552.852 746.5H597.162C597.458 746.419 597.751 746.342 598.04 746.27C603.556 744.888 608.352 740.261 608.352 734.575V698.5C608.352 692.977 603.817 688.422 598.503 686.918C587.844 683.9 572.352 675.127 572.352 649.625C572.352 623.564 588.531 613.962 599.196 610.464C604.214 608.819 608.352 604.386 608.352 599.105V558.5C608.352 552.977 603.818 548.424 598.5 546.932C588.249 544.057 573.53 535.911 572.418 512.826C573.53 489.969 588.247 481.901 598.497 479.053C603.819 477.575 608.352 473.023 608.352 467.5V426.5C608.352 420.977 603.817 416.422 598.503 414.918C587.938 411.927 572.625 403.282 572.355 378.298C572.625 356.873 587.902 349.444 598.465 346.868C603.831 345.559 608.352 341.023 608.352 335.5V290C608.352 284.508 603.924 280.05 598.443 280L598.422 279.995C587.766 277.088 572.352 268.572 572.352 243.625C572.352 218.619 587.839 210.014 598.497 207.053C603.819 205.575 608.352 201.023 608.352 195.5V156C608.352 150.477 603.816 145.921 598.504 144.408C587.846 141.371 572.352 132.543 572.352 106.875C572.352 85.0063 587.808 77.4669 598.465 74.8676C603.831 73.559 608.352 69.0228 608.352 63.5V18C608.352 12.4772 603.874 8 598.352 8H546.748C544.17 9.82114 542.26 12.7052 541.484 15.8862C538.885 26.5436 531.345 42 509.477 42C483.809 42 474.98 26.5057 471.944 15.8471C471.046 12.6971 469.079 9.82 466.474 8H414.733C412.133 9.82022 410.175 12.6986 409.298 15.8543C406.337 26.5127 397.733 42 372.727 42C347.779 42 339.263 26.5856 336.357 15.9297C335.488 12.7443 333.521 9.83463 330.901 8H283.11C280.695 9.68413 278.832 12.2747 277.887 15.1553C274.389 25.8209 264.788 42 238.727 42C213.224 42 204.452 26.5075 201.434 15.8489C200.542 12.6975 198.577 9.82006 195.973 8H147.66C144.937 9.90785 142.917 12.9781 142.082 16.3113C139.416 26.9495 131.245 42 106.352 42C81.0973 42 72.4087 26.5101 69.4194 15.8516C68.535 12.698 66.5736 9.82014 63.9718 8H18.3516C12.8287 8 8.35156 12.4772 8.35156 18V63.5C8.35156 69.0228 12.8723 73.559 18.2378 74.8676C28.8952 77.4669 44.3516 85.0063 44.3516 106.875C44.3516 132.543 28.8573 141.371 18.1987 144.408C12.8871 145.921 8.35156 150.477 8.35156 156V195.5C8.35156 201.023 12.8845 205.575 18.2058 207.053C28.8642 210.014 44.3516 218.619 44.3516 243.625C44.3516 268.572 28.9372 277.088 18.2813 279.995L18.2599 280C12.7793 280.05 8.35156 284.508 8.35156 290V335.5C8.35156 341.023 12.8723 345.559 18.2378 346.868C28.8008 349.444 44.0783 356.873 44.348 378.298C44.0779 403.282 28.7648 411.927 18.2004 414.918C12.8865 416.422 8.35156 420.977 8.35156 426.5V467.5C8.35156 473.023 12.8845 477.575 18.2058 479.053C28.4564 481.901 43.1735 489.969 44.2847 512.826C43.1735 535.911 28.4539 544.057 18.2031 546.932C12.8855 548.424 8.35156 552.977 8.35156 558.5V599.105C8.35156 604.386 12.4891 608.819 17.5068 610.464C28.1725 613.962 44.3516 623.564 44.3516 649.625C44.3516 675.127 28.859 683.9 18.2004 686.918C12.8865 688.422 8.35156 692.977 8.35156 698.5V734.575Z"/></mask><path fill="#F4F4F4" d="M8.35156 734.575C8.35156 740.261 13.1473 744.888 18.6629 746.27C18.9524 746.342 19.2452 746.419 19.5408 746.5H57.8516C63.3744 746.5 67.928 741.966 69.4194 736.648C72.4087 725.99 81.0973 710.5 106.352 710.5C131.245 710.5 139.416 725.55 142.082 736.189C143.464 741.704 148.091 746.5 153.777 746.5H189.852C195.374 746.5 199.929 741.965 201.434 736.651C204.452 725.993 213.224 710.5 238.727 710.5C264.788 710.5 274.389 726.679 277.887 737.345C279.533 742.362 283.965 746.5 289.246 746.5H324.782C330.332 746.5 334.897 741.925 336.357 736.57C339.263 725.914 347.779 710.5 372.727 710.5C397.733 710.5 406.337 725.987 409.298 736.646C410.776 741.967 415.329 746.5 420.852 746.5H460.352C465.874 746.5 470.43 741.964 471.944 736.653C474.98 725.994 483.809 710.5 509.477 710.5C531.345 710.5 538.885 725.956 541.484 736.614C542.793 741.979 547.329 746.5 552.852 746.5H597.162C597.458 746.419 597.751 746.342 598.04 746.27C603.556 744.888 608.352 740.261 608.352 734.575V698.5C608.352 692.977 603.817 688.422 598.503 686.918C587.844 683.9 572.352 675.127 572.352 649.625C572.352 623.564 588.531 613.962 599.196 610.464C604.214 608.819 608.352 604.386 608.352 599.105V558.5C608.352 552.977 603.818 548.424 598.5 546.932C588.249 544.057 573.53 535.911 572.418 512.826C573.53 489.969 588.247 481.901 598.497 479.053C603.819 477.575 608.352 473.023 608.352 467.5V426.5C608.352 420.977 603.817 416.422 598.503 414.918C587.938 411.927 572.625 403.282 572.355 378.298C572.625 356.873 587.902 349.444 598.465 346.868C603.831 345.559 608.352 341.023 608.352 335.5V290C608.352 284.508 603.924 280.05 598.443 280L598.422 279.995C587.766 277.088 572.352 268.572 572.352 243.625C572.352 218.619 587.839 210.014 598.497 207.053C603.819 205.575 608.352 201.023 608.352 195.5V156C608.352 150.477 603.816 145.921 598.504 144.408C587.846 141.371 572.352 132.543 572.352 106.875C572.352 85.0063 587.808 77.4669 598.465 74.8676C603.831 73.559 608.352 69.0228 608.352 63.5V18C608.352 12.4772 603.874 8 598.352 8H546.748C544.17 9.82114 542.26 12.7052 541.484 15.8862C538.885 26.5436 531.345 42 509.477 42C483.809 42 474.98 26.5057 471.944 15.8471C471.046 12.6971 469.079 9.82 466.474 8H414.733C412.133 9.82022 410.175 12.6986 409.298 15.8543C406.337 26.5127 397.733 42 372.727 42C347.779 42 339.263 26.5856 336.357 15.9297C335.488 12.7443 333.521 9.83463 330.901 8H283.11C280.695 9.68413 278.832 12.2747 277.887 15.1553C274.389 25.8209 264.788 42 238.727 42C213.224 42 204.452 26.5075 201.434 15.8489C200.542 12.6975 198.577 9.82006 195.973 8H147.66C144.937 9.90785 142.917 12.9781 142.082 16.3113C139.416 26.9495 131.245 42 106.352 42C81.0973 42 72.4087 26.5101 69.4194 15.8516C68.535 12.698 66.5736 9.82014 63.9718 8H18.3516C12.8287 8 8.35156 12.4772 8.35156 18V63.5C8.35156 69.0228 12.8723 73.559 18.2378 74.8676C28.8952 77.4669 44.3516 85.0063 44.3516 106.875C44.3516 132.543 28.8573 141.371 18.1987 144.408C12.8871 145.921 8.35156 150.477 8.35156 156V195.5C8.35156 201.023 12.8845 205.575 18.2058 207.053C28.8642 210.014 44.3516 218.619 44.3516 243.625C44.3516 268.572 28.9372 277.088 18.2813 279.995L18.2599 280C12.7793 280.05 8.35156 284.508 8.35156 290V335.5C8.35156 341.023 12.8723 345.559 18.2378 346.868C28.8008 349.444 44.0783 356.873 44.348 378.298C44.0779 403.282 28.7648 411.927 18.2004 414.918C12.8865 416.422 8.35156 420.977 8.35156 426.5V467.5C8.35156 473.023 12.8845 477.575 18.2058 479.053C28.4564 481.901 43.1735 489.969 44.2847 512.826C43.1735 535.911 28.4539 544.057 18.2031 546.932C12.8855 548.424 8.35156 552.977 8.35156 558.5V599.105C8.35156 604.386 12.4891 608.819 17.5068 610.464C28.1725 613.962 44.3516 623.564 44.3516 649.625C44.3516 675.127 28.859 683.9 18.2004 686.918C12.8865 688.422 8.35156 692.977 8.35156 698.5V734.575Z"/><path fill="#222" d="M18.6629 746.27L20.6082 738.51L20.6076 738.51L18.6629 746.27ZM19.5408 746.5L17.4284 754.216L18.4655 754.5H19.5408V746.5ZM69.4194 736.648L77.1222 738.809L69.4194 736.648ZM142.082 736.189L149.842 734.244V734.244L142.082 736.189ZM201.434 736.651L193.737 734.472L201.434 736.651ZM277.887 737.345L270.286 739.838L277.887 737.345ZM336.357 736.57L344.075 738.675L336.357 736.57ZM409.298 736.646L417.006 734.504L409.298 736.646ZM471.944 736.653L464.25 734.461V734.461L471.944 736.653ZM541.484 736.614L533.712 738.509V738.509L541.484 736.614ZM597.162 746.5V754.5H598.238L599.275 754.216L597.162 746.5ZM598.04 746.27L596.096 738.51L596.095 738.51L598.04 746.27ZM598.503 686.918L600.682 679.22L598.503 686.918ZM599.196 610.464L596.703 602.863H596.703L599.196 610.464ZM598.5 546.932L600.66 539.229L600.66 539.229L598.5 546.932ZM572.418 512.826L564.428 512.438L564.409 512.824L564.428 513.211L572.418 512.826ZM598.497 479.053L596.356 471.345L598.497 479.053ZM598.503 414.918L596.323 422.615L598.503 414.918ZM572.355 378.298L564.356 378.197L564.355 378.291L564.356 378.384L572.355 378.298ZM598.465 346.868L600.361 354.64L598.465 346.868ZM598.443 280L596.327 287.715L597.331 287.991L598.371 288L598.443 280ZM598.422 279.995L600.538 272.28L600.527 272.277L598.422 279.995ZM598.497 207.053L600.639 214.761L598.497 207.053ZM598.504 144.408L596.312 152.102L598.504 144.408ZM598.465 74.8676L600.361 82.6398L598.465 74.8676ZM546.748 8V0H544.207L542.132 1.46615L546.748 8ZM541.484 15.8862L533.712 13.9906V13.9907L541.484 15.8862ZM471.944 15.8471L464.25 18.039L464.25 18.0391L471.944 15.8471ZM466.474 8L471.056 1.4422L468.992 0H466.474V8ZM414.733 8V0H412.211L410.145 1.44637L414.733 8ZM409.298 15.8543L417.006 17.9955V17.9955L409.298 15.8543ZM336.357 15.9297L344.075 13.8245V13.8245L336.357 15.9297ZM330.901 8L335.489 1.44686L333.423 0H330.901V8ZM283.11 8V0H280.596L278.534 1.4381L283.11 8ZM277.887 15.1553L270.286 12.6621L270.286 12.6622L277.887 15.1553ZM201.434 15.8489L193.736 18.0282L193.737 18.0282L201.434 15.8489ZM195.973 8L200.557 1.44325L198.492 0H195.973V8ZM147.66 8V0H145.136L143.069 1.44821L147.66 8ZM142.082 16.3113L149.842 18.2561V18.2561L142.082 16.3113ZM69.4194 15.8516L61.7166 18.0119L61.7166 18.0119L69.4194 15.8516ZM63.9718 8L68.5576 1.44481L66.4923 0H63.9718V8ZM18.2378 74.8676L16.3422 82.6398H16.3422L18.2378 74.8676ZM18.1987 144.408L20.3906 152.102H20.3906L18.1987 144.408ZM18.2058 207.053L16.0645 214.761H16.0645L18.2058 207.053ZM18.2813 279.995L16.1761 272.277L16.1652 272.28L18.2813 279.995ZM18.2599 280L18.3317 288L19.3724 287.991L20.3761 287.715L18.2599 280ZM18.2378 346.868L16.3422 354.64H16.3422L18.2378 346.868ZM44.348 378.298L52.3475 378.384L52.3485 378.291L52.3473 378.197L44.348 378.298ZM18.2004 414.918L20.3797 422.615H20.3798L18.2004 414.918ZM18.2058 479.053L20.3471 471.345H20.3471L18.2058 479.053ZM44.2847 512.826L52.2754 513.211L52.294 512.824L52.2752 512.438L44.2847 512.826ZM18.2031 546.932L16.0428 539.229L16.0428 539.229L18.2031 546.932ZM17.5068 610.464L19.9999 602.863H19.9999L17.5068 610.464ZM18.2004 686.918L16.0211 679.22H16.0211L18.2004 686.918ZM0.351562 734.575C0.351562 745.006 8.80579 752.047 16.7182 754.03L20.6076 738.51C19.2985 738.182 18.1032 737.459 17.31 736.602C16.5469 735.778 16.3516 735.071 16.3516 734.575H0.351562ZM16.7176 754.03C16.9532 754.089 17.1902 754.151 17.4284 754.216L21.6531 738.784C21.3001 738.687 20.9516 738.596 20.6082 738.51L16.7176 754.03ZM19.5408 754.5H57.8516V738.5H19.5408V754.5ZM57.8516 754.5C67.9724 754.5 74.966 746.497 77.1222 738.809L61.7166 734.488C61.3668 735.735 60.6519 736.858 59.821 737.599C59.0208 738.313 58.3363 738.5 57.8516 738.5V754.5ZM77.1222 738.809C78.3675 734.369 80.6902 729.355 84.9292 725.486C89.0069 721.764 95.5057 718.5 106.352 718.5V702.5C91.9432 702.5 81.4706 706.981 74.1431 713.668C66.9769 720.209 63.4607 728.27 61.7166 734.488L77.1222 738.809ZM106.352 718.5C117.052 718.5 123.29 721.674 127.11 725.219C131.09 728.913 133.22 733.737 134.322 738.133L149.842 734.244C148.278 728.002 144.989 719.982 137.994 713.491C130.838 706.851 120.544 702.5 106.352 702.5V718.5ZM134.322 738.133C136.305 746.046 143.346 754.5 153.777 754.5V738.5C153.28 738.5 152.574 738.305 151.749 737.542C150.892 736.748 150.17 735.553 149.842 734.244L134.322 738.133ZM189.852 754.5C199.972 754.5 206.961 746.497 209.131 738.83L193.737 734.472C193.382 735.725 192.662 736.852 191.827 737.596C191.022 738.313 190.336 738.5 189.852 738.5V754.5ZM209.131 738.83C210.385 734.401 212.727 729.388 217.013 725.513C221.144 721.779 227.735 718.5 238.727 718.5V702.5C224.216 702.5 213.67 706.967 206.284 713.644C199.054 720.18 195.5 728.243 193.737 734.472L209.131 738.83ZM238.727 718.5C249.947 718.5 256.943 721.922 261.475 725.922C266.164 730.058 268.814 735.352 270.286 739.838L285.489 734.852C283.462 728.672 279.563 720.543 272.061 713.924C264.403 707.167 253.567 702.5 238.727 702.5V718.5ZM270.286 739.838C272.695 747.185 279.598 754.5 289.246 754.5V738.5C288.769 738.5 288.115 738.323 287.355 737.684C286.567 737.02 285.868 736.008 285.489 734.852L270.286 739.838ZM324.782 754.5C334.954 754.5 341.962 746.423 344.075 738.675L328.639 734.465C328.297 735.717 327.586 736.846 326.755 737.593C325.956 738.312 325.27 738.5 324.782 738.5V754.5ZM344.075 738.675C345.287 734.231 347.558 729.248 351.706 725.414C355.688 721.734 362.051 718.5 372.727 718.5V702.5C358.455 702.5 348.086 706.973 340.847 713.664C333.774 720.201 330.333 728.253 328.639 734.465L344.075 738.675ZM372.727 718.5C383.426 718.5 389.833 721.749 393.858 725.459C398.05 729.322 400.354 734.336 401.59 738.787L417.006 734.504C415.282 728.297 411.803 720.238 404.701 713.693C397.432 706.994 387.033 702.5 372.727 702.5V718.5ZM401.59 738.787C403.732 746.497 410.73 754.5 420.852 754.5V738.5C420.366 738.5 419.684 738.313 418.888 737.602C418.061 736.864 417.351 735.746 417.006 734.504L401.59 738.787ZM460.352 754.5C470.472 754.5 477.457 746.498 479.637 738.845L464.25 734.461C463.892 735.718 463.168 736.848 462.33 737.594C461.523 738.313 460.835 738.5 460.352 738.5V754.5ZM479.637 738.845C480.897 734.422 483.252 729.41 487.57 725.531C491.735 721.789 498.388 718.5 509.477 718.5V702.5C494.897 702.5 484.302 706.958 476.877 713.628C469.605 720.161 466.026 728.225 464.25 734.461L479.637 738.845ZM509.477 718.5C518.282 718.5 523.519 721.51 526.91 725.074C530.53 728.879 532.592 733.92 533.712 738.509L549.256 734.718C547.776 728.65 544.77 720.634 538.503 714.046C532.007 707.218 522.54 702.5 509.477 702.5V718.5ZM533.712 738.509C535.659 746.491 542.731 754.5 552.852 754.5V738.5C552.358 738.5 551.699 738.311 550.958 737.64C550.187 736.941 549.541 735.887 549.256 734.718L533.712 738.509ZM552.852 754.5H597.162V738.5H552.852V754.5ZM599.275 754.216C599.513 754.151 599.75 754.089 599.986 754.03L596.095 738.51C595.751 738.596 595.403 738.687 595.05 738.784L599.275 754.216ZM599.985 754.03C607.897 752.047 616.352 745.006 616.352 734.575H600.352C600.352 735.071 600.156 735.778 599.393 736.602C598.6 737.459 597.405 738.182 596.096 738.51L599.985 754.03ZM616.352 698.5C616.352 688.379 608.349 681.391 600.682 679.22L596.323 694.615C597.576 694.97 598.703 695.69 599.448 696.525C600.165 697.33 600.352 698.016 600.352 698.5H616.352ZM600.682 679.22C596.253 677.966 591.24 675.624 587.365 671.338C583.631 667.208 580.352 660.616 580.352 649.625H564.352C564.352 664.136 568.819 674.682 575.496 682.068C582.032 689.298 590.094 692.851 596.323 694.615L600.682 679.22ZM580.352 649.625C580.352 638.404 583.774 631.409 587.773 626.876C591.91 622.188 597.203 619.537 601.689 618.066L596.703 602.863C590.524 604.889 582.395 608.788 575.776 616.291C569.019 623.949 564.352 634.785 564.352 649.625H580.352ZM601.689 618.066C609.037 615.656 616.352 608.753 616.352 599.105H600.352C600.352 599.583 600.175 600.236 599.535 600.996C598.872 601.784 597.859 602.484 596.703 602.863L601.689 618.066ZM616.352 558.5C616.352 548.379 608.348 541.386 600.66 539.229L596.34 554.635C597.587 554.985 598.709 555.7 599.451 556.531C600.165 557.331 600.352 558.015 600.352 558.5H616.352ZM600.66 539.229C596.394 538.033 591.589 535.838 587.787 531.901C584.126 528.11 580.878 522.182 580.409 512.442L564.428 513.211C565.07 526.555 569.737 536.242 576.277 543.015C582.675 549.641 590.355 552.957 596.34 554.635L600.66 539.229ZM580.409 513.215C580.876 503.609 584.108 497.765 587.758 494.021C591.556 490.126 596.362 487.949 600.639 486.761L596.356 471.345C590.382 473.005 582.704 476.286 576.303 482.851C569.754 489.568 565.072 499.186 564.428 512.438L580.409 513.215ZM600.639 486.761C608.348 484.62 616.352 477.621 616.352 467.5H600.352C600.352 467.985 600.165 468.668 599.454 469.464C598.715 470.29 597.598 471 596.356 471.345L600.639 486.761ZM616.352 426.5C616.352 416.379 608.349 409.391 600.682 407.22L596.323 422.615C597.576 422.97 598.703 423.69 599.448 424.525C600.165 425.33 600.352 426.016 600.352 426.5H616.352ZM600.682 407.22C596.293 405.977 591.328 403.666 587.468 399.452C583.748 395.391 580.471 388.937 580.355 378.211L564.356 378.384C564.51 392.643 569.024 403.004 575.669 410.259C582.174 417.361 590.148 420.867 596.323 422.615L600.682 407.22ZM580.355 378.398C580.463 369.819 583.467 364.688 587.026 361.347C590.82 357.785 595.814 355.749 600.361 354.64L596.57 339.095C590.554 340.563 582.628 343.529 576.074 349.682C569.286 356.056 564.517 365.351 564.356 378.197L580.355 378.398ZM600.361 354.64C608.343 352.693 616.352 345.621 616.352 335.5H600.352C600.352 335.993 600.163 336.652 599.492 337.393C598.792 338.165 597.739 338.81 596.57 339.095L600.361 354.64ZM616.352 290C616.352 280.113 608.382 272.089 598.515 272.001L598.371 288C599.466 288.01 600.352 288.902 600.352 290H616.352ZM600.559 272.285L600.538 272.28L596.306 287.71L596.327 287.715L600.559 272.285ZM600.527 272.277C596.083 271.064 591.1 268.794 587.266 264.645C583.586 260.664 580.352 254.301 580.352 243.625H564.352C564.352 257.896 568.824 268.265 575.516 275.505C582.053 282.578 590.105 286.018 596.317 287.713L600.527 272.277ZM580.352 243.625C580.352 232.925 583.601 226.519 587.31 222.494C591.174 218.302 596.188 215.998 600.639 214.761L596.356 199.345C590.148 201.07 582.09 204.549 575.545 211.651C568.846 218.92 564.352 229.319 564.352 243.625H580.352ZM600.639 214.761C608.348 212.62 616.352 205.621 616.352 195.5H600.352C600.352 195.985 600.165 196.668 599.454 197.464C598.715 198.29 597.598 199 596.356 199.345L600.639 214.761ZM616.352 156C616.352 145.88 608.349 138.894 600.696 136.714L596.312 152.102C597.569 152.46 598.699 153.183 599.446 154.021C600.165 154.829 600.352 155.516 600.352 156H616.352ZM600.696 136.714C596.274 135.454 591.261 133.1 587.382 128.782C583.64 124.616 580.352 117.963 580.352 106.875H564.352C564.352 121.455 568.81 132.05 575.48 139.474C582.013 146.747 590.076 150.325 596.312 152.102L600.696 136.714ZM580.352 106.875C580.352 98.0695 583.362 92.8324 586.926 89.4414C590.731 85.8219 595.771 83.7592 600.361 82.6398L596.57 67.0954C590.502 68.5753 582.486 71.5819 575.898 77.8491C569.07 84.3448 564.352 93.8118 564.352 106.875H580.352ZM600.361 82.6398C608.343 80.693 616.352 73.6207 616.352 63.5H600.352C600.352 63.9932 600.163 64.6524 599.492 65.3932C598.792 66.1648 597.739 66.8103 596.57 67.0954L600.361 82.6398ZM616.352 63.5V18H600.352V63.5H616.352ZM616.352 18C616.352 8.05886 608.293 0 598.352 0V16C599.456 16 600.352 16.8954 600.352 18H616.352ZM598.352 0H546.748V16H598.352V0ZM542.132 1.46615C537.886 4.4657 534.918 9.04382 533.712 13.9906L549.256 17.7819C549.601 16.3666 550.454 15.1766 551.364 14.5338L542.132 1.46615ZM533.712 13.9907C532.592 18.5803 530.53 23.6209 526.91 27.4256C523.519 30.9901 518.282 34 509.477 34V50C522.54 50 532.007 45.2818 538.503 38.4537C544.77 31.8658 547.776 23.8496 549.256 17.7818L533.712 13.9907ZM509.477 34C498.388 34 491.735 30.7113 487.57 26.9692C483.252 23.0903 480.897 18.0775 479.637 13.6551L464.25 18.0391C466.026 24.2753 469.605 32.3389 476.877 38.8719C484.302 45.5416 494.897 50 509.477 50V34ZM479.637 13.6552C478.276 8.87803 475.287 4.39824 471.056 1.4422L461.892 14.5578C462.871 15.2418 463.816 16.5162 464.25 18.039L479.637 13.6552ZM466.474 0H414.733V16H466.474V0ZM410.145 1.44637C405.911 4.4099 402.925 8.90647 401.59 13.713L417.006 17.9955C417.424 16.4907 418.354 15.2305 419.321 14.5536L410.145 1.44637ZM401.59 13.713C400.354 18.1638 398.05 23.1779 393.858 27.0412C389.833 30.7507 383.426 34 372.727 34V50C387.033 50 397.432 45.5056 404.701 38.8069C411.803 32.2619 415.282 24.2031 417.006 17.9955L401.59 13.713ZM372.727 34C362.051 34 355.688 30.7657 351.706 27.0858C347.558 23.2516 345.287 18.2686 344.075 13.8245L328.639 18.0349C330.333 24.2467 333.774 32.2989 340.847 38.8359C348.086 45.5271 358.455 50 372.727 50V34ZM344.075 13.8245C342.753 8.97663 339.755 4.43366 335.489 1.44686L326.312 14.5531C327.287 15.2356 328.224 16.512 328.639 18.0349L344.075 13.8245ZM330.901 0H283.11V16H330.901V0ZM278.534 1.4381C274.599 4.18224 271.733 8.24916 270.286 12.6621L285.489 17.6484C285.931 16.3002 286.791 15.186 287.686 14.5619L278.534 1.4381ZM270.286 12.6622C268.814 17.1482 266.163 22.4419 261.475 26.5785C256.943 30.5775 249.947 34 238.727 34V50C253.567 50 264.403 45.3329 272.061 38.576C279.563 31.9566 283.462 23.828 285.489 17.6483L270.286 12.6622ZM238.727 34C227.735 34 221.144 30.7208 217.013 26.9869C212.727 23.112 210.385 18.099 209.131 13.6696L193.737 18.0282C195.5 24.2574 199.054 32.3199 206.284 38.8559C213.67 45.5329 224.216 50 238.727 50V34ZM209.131 13.6696C207.777 8.88511 204.788 4.40116 200.557 1.44325L191.389 14.5567C192.365 15.239 193.307 16.5098 193.736 18.0282L209.131 13.6696ZM195.973 0H147.66V16H195.973V0ZM143.069 1.44821C138.643 4.54972 135.586 9.32302 134.322 14.3666L149.842 18.2561C150.248 16.6332 151.231 15.266 152.251 14.5518L143.069 1.44821ZM134.322 14.3666C133.22 18.7633 131.09 23.5873 127.11 27.2809C123.29 30.8256 117.052 34 106.352 34V50C120.544 50 130.838 45.6491 137.994 39.0091C144.989 32.5179 148.278 24.4975 149.842 18.2561L134.322 14.3666ZM106.352 34C95.5057 34 89.0069 30.7356 84.9292 27.0139C80.6902 23.1449 78.3675 18.1314 77.1222 13.6913L61.7166 18.0119C63.4607 24.2303 66.9769 32.291 74.1431 38.8316C81.4706 45.5195 91.9432 50 106.352 50V34ZM77.1222 13.6913C75.7773 8.89579 72.7898 4.40553 68.5576 1.44481L59.386 14.5552C60.3574 15.2347 61.2927 16.5003 61.7166 18.0119L77.1222 13.6913ZM63.9718 0H18.3516V16H63.9718V0ZM18.3516 0C8.41047 0 0.351562 8.05886 0.351562 18H16.3516C16.3516 16.8954 17.247 16 18.3516 16V0ZM0.351562 18V63.5H16.3516V18H0.351562ZM0.351562 63.5C0.351562 73.6207 8.36018 80.693 16.3422 82.6398L20.1334 67.0954C18.9643 66.8103 17.9106 66.1648 17.2116 65.3932C16.5406 64.6524 16.3516 63.9932 16.3516 63.5H0.351562ZM16.3422 82.6398C20.9319 83.7592 25.9725 85.8219 29.7772 89.4414C33.3416 92.8324 36.3516 98.0695 36.3516 106.875H52.3516C52.3516 93.8118 47.6333 84.3448 40.8052 77.8491C34.2174 71.5819 26.2011 68.5753 20.1334 67.0954L16.3422 82.6398ZM36.3516 106.875C36.3516 117.963 33.0628 124.616 29.3208 128.782C25.4419 133.1 20.4291 135.454 16.0067 136.714L20.3906 152.102C26.6269 150.325 34.6905 146.747 41.2234 139.474C47.8932 132.05 52.3516 121.455 52.3516 106.875H36.3516ZM16.0067 136.714C8.3539 138.894 0.351562 145.88 0.351562 156H16.3516C16.3516 155.516 16.5381 154.829 17.2573 154.021C18.0037 153.183 19.134 152.46 20.3906 152.102L16.0067 136.714ZM0.351562 195.5C0.351562 205.621 8.35507 212.62 16.0645 214.761L20.3471 199.345C19.1052 199 17.9878 198.29 17.2494 197.464C16.5385 196.668 16.3516 195.985 16.3516 195.5H0.351562ZM16.0645 214.761C20.5153 215.998 25.5295 218.302 29.3927 222.494C33.1023 226.519 36.3516 232.925 36.3516 243.625H52.3516C52.3516 229.319 47.8572 218.92 41.1584 211.651C34.6134 204.549 26.5547 201.07 20.3471 199.345L16.0645 214.761ZM36.3516 243.625C36.3516 254.301 33.1173 260.664 29.4374 264.645C25.6032 268.794 20.6202 271.064 16.1761 272.277L20.3865 287.713C26.5983 286.018 34.6505 282.578 41.1874 275.505C47.8786 268.265 52.3516 257.896 52.3516 243.625H36.3516ZM16.1652 272.28L16.1438 272.285L20.3761 287.715L20.3974 287.71L16.1652 272.28ZM18.1882 272.001C8.32138 272.089 0.351562 280.113 0.351562 290H16.3516C16.3516 288.902 17.2372 288.01 18.3317 288L18.1882 272.001ZM0.351562 335.5C0.351562 345.621 8.36017 352.693 16.3422 354.64L20.1334 339.095C18.9643 338.81 17.9106 338.165 17.2116 337.393C16.5406 336.652 16.3516 335.993 16.3516 335.5H0.351562ZM16.3422 354.64C20.8891 355.749 25.8833 357.785 29.677 361.347C33.236 364.688 36.2406 369.819 36.3486 378.398L52.3473 378.197C52.1856 365.351 47.4167 356.056 40.6288 349.682C34.0755 343.529 26.1496 340.563 20.1334 339.095L16.3422 354.64ZM36.3484 378.211C36.2325 388.937 32.955 395.391 29.2353 399.452C25.3752 403.666 20.4106 405.977 16.0211 407.22L20.3798 422.615C26.5547 420.867 34.5288 417.361 41.0339 410.259C47.6793 403.004 52.1934 392.643 52.3475 378.384L36.3484 378.211ZM16.0211 407.22C8.35418 409.391 0.351562 416.379 0.351562 426.5H16.3516C16.3516 426.016 16.5382 425.33 17.2553 424.525C17.9997 423.69 19.1268 422.97 20.3797 422.615L16.0211 407.22ZM0.351562 467.5C0.351562 477.621 8.35506 484.62 16.0645 486.761L20.3471 471.345C19.1052 471 17.9877 470.29 17.2494 469.464C16.5385 468.668 16.3516 467.985 16.3516 467.5H0.351562ZM16.0645 486.761C20.3407 487.949 25.1471 490.126 28.9446 494.021C32.5949 497.765 35.8272 503.609 36.2941 513.215L52.2752 512.438C51.631 499.186 46.9491 489.568 40.4005 482.851C33.999 476.286 26.3215 473.005 20.3471 471.345L16.0645 486.761ZM36.2939 512.442C35.8251 522.182 32.5767 528.11 28.9164 531.901C25.1142 535.838 20.3091 538.033 16.0428 539.229L20.3634 554.635C26.3479 552.957 34.028 549.641 40.426 543.015C46.966 536.242 51.6331 526.555 52.2754 513.211L36.2939 512.442ZM16.0428 539.229C8.35467 541.386 0.351562 548.379 0.351562 558.5H16.3516C16.3516 558.015 16.5383 557.331 17.2523 556.531C17.9938 555.7 19.1161 554.985 20.3635 554.635L16.0428 539.229ZM0.351562 599.105C0.351562 608.753 7.66604 615.656 15.0138 618.066L19.9999 602.863C18.8437 602.484 17.8313 601.784 17.1679 600.996C16.5283 600.236 16.3516 599.583 16.3516 599.105H0.351562ZM15.0138 618.066C19.4998 619.537 24.7935 622.188 28.93 626.876C32.9291 631.409 36.3516 638.404 36.3516 649.625H52.3516C52.3516 634.785 47.6845 623.949 40.9276 616.291C34.3082 608.788 26.1795 604.889 19.9999 602.863L15.0138 618.066ZM36.3516 649.625C36.3516 660.616 33.0724 667.208 29.3385 671.338C25.4636 675.624 20.4506 677.966 16.0211 679.22L20.3798 694.615C26.6089 692.851 34.6714 689.298 41.2074 682.068C47.8845 674.682 52.3516 664.136 52.3516 649.625H36.3516ZM16.0211 679.22C8.35417 681.391 0.351562 688.379 0.351562 698.5H16.3516C16.3516 698.016 16.5382 697.33 17.2553 696.525C17.9997 695.69 19.1269 694.97 20.3798 694.615L16.0211 679.22ZM153.777 754.5H189.852V738.5H153.777V754.5ZM289.246 754.5H324.782V738.5H289.246V754.5ZM420.852 754.5H460.352V738.5H420.852V754.5ZM616.352 734.575V698.5H600.352V734.575H616.352ZM616.352 599.105V558.5H600.352V599.105H616.352ZM616.352 467.5V426.5H600.352V467.5H616.352ZM616.352 335.5V290H600.352V335.5H616.352ZM616.352 195.5V156H600.352V195.5H616.352ZM0.351562 156V195.5H16.3516V156H0.351562ZM0.351562 290V335.5H16.3516V290H0.351562ZM0.351562 426.5V467.5H16.3516V426.5H0.351562ZM0.351562 558.5V599.105H16.3516V558.5H0.351562ZM0.351562 698.5V734.575H16.3516V698.5H0.351562Z" mask="url(#path-1-outside-1_2848_1853)"/><rect width="414" height="541" x="101.352" y="106" fill="#EB93F4" stroke="#222" stroke-width="8" rx="11"/><mask id="mask0_2848_1853" style="mask-type:alpha" width="423" height="549" x="97" y="102" maskUnits="userSpaceOnUse"><rect width="414" height="541" x="101.352" y="106" fill="#EB93F4" stroke="#222" stroke-width="8" rx="11"/></mask><g mask="url(#mask0_2848_1853)"><g clip-path="url(#clip0_2848_1853)"><path fill="#88D1DB" stroke="#303131" stroke-linecap="round" stroke-linejoin="round" stroke-width="8" d="M149.909 528.047C137.3 550.399 153.763 577.089 129.769 606.105C112.286 627.267 92.4746 626.465 86.2849 646.882C80.5127 665.884 90.1611 691.43 106.203 698.751C122.689 706.251 133.297 688.788 150.871 693.854C181.014 702.541 174.92 761.272 203.192 770.203C222.413 776.254 229.033 750.307 261.348 748.038C292.075 745.882 325.87 766.549 358.95 786.848C369.887 793.571 380.754 801.138 394.802 799.319C409.427 797.44 421.982 786.076 428.95 779.734C438.158 771.39 439.092 767.688 444.758 761.966C471.47 735.009 509.993 756.816 532.768 731.053C538.182 724.939 542.837 715.996 548.175 705.712C557.772 687.23 556.935 682.405 563.446 677.827C572.918 671.178 579.768 677.887 601.005 674.989C613.292 673.292 630.29 671.345 637.054 659.536C640.448 653.587 640.031 647.377 639.244 636.404C638.781 629.878 637.952 618.096 632.656 609.537C622.858 593.71 598.092 562.424 591.678 561.722C505.933 552.368 192.587 420.333 148.352 498.773L149.909 528.047Z"/><path fill="#33647A" d="M358.869 512.531C346.473 550.321 345.087 579.323 346.297 599.346C346.994 610.816 348.943 625.669 341.612 642.61C337.613 651.895 334.422 653.485 314.999 675.243C286.247 707.439 283.511 714.86 269.235 720.576C257.143 725.393 255.46 721.541 244.094 727.478C229.4 735.129 222.026 746.913 210.859 745.13C207.965 744.675 205.755 743.459 204.373 742.547C229.624 724.625 261.095 695.588 275.281 651.123C277.966 642.748 278.795 637.632 280.266 631.495C287.414 601.839 306.303 560.776 358.842 512.561L358.869 512.531Z"/><path fill="#467C93" stroke="#303131" stroke-linecap="round" stroke-linejoin="round" stroke-width="8" d="M545.438 402.954C541.017 442.465 545.559 471.181 550.818 490.496C553.842 501.581 558.768 515.725 555.063 533.807C553.242 542.628 547.37 552.129 535.658 571.158C532.323 576.582 513.391 607.039 500.398 613.99C499.384 614.537 495.122 616.706 490.322 620.729C489.35 621.535 486.747 623.818 483.714 627.284C480.082 631.477 478.197 634.737 476.884 636.748C467.094 651.617 449.185 657.149 448.072 657.469C444.704 658.46 441.885 658.871 440.128 659.08C461.597 636.547 486.972 601.893 491.875 555.631C492.801 546.886 492.582 541.68 492.769 535.38C493.698 504.896 503.849 460.848 545.436 402.925L545.438 402.954Z"/><path fill="#33647A" d="M271.766 477.239C273.224 503.568 273.446 530.078 276.457 556.18C277.84 568.019 276.727 577.615 273.342 585.911C268.728 597.258 261.08 604.418 253.469 610.649C211.945 644.684 188.74 638.932 166.253 660.303C162.75 663.648 151.884 674.632 138.022 673.949C136.016 673.853 134.376 673.534 133.319 673.271C157.133 649.048 183.502 618.921 209.443 582.381C236.274 544.577 256.505 508.573 271.766 477.239Z"/><path fill="#33647A" d="M496.388 525.208C491.968 564.719 496.509 593.434 501.768 612.749C504.793 623.835 509.719 637.979 506.014 656.06C504.193 664.882 498.321 674.383 486.608 693.412C483.273 698.836 464.342 729.292 451.349 736.244C450.335 736.791 446.073 738.959 441.272 742.983C440.301 743.788 437.697 746.072 434.664 749.537C431.032 753.731 429.148 756.99 427.834 759.002C418.045 773.871 400.136 779.403 399.023 779.723C395.655 780.714 392.836 781.124 391.079 781.334C412.548 758.801 437.923 724.146 442.825 677.885C443.752 669.14 443.533 663.934 443.719 657.634C444.649 627.149 454.8 583.101 496.387 525.179L496.388 525.208Z"/><path fill="#FFB9AF" d="M359.525 667.948C337.485 738.599 321.73 789.554 319.689 798.039C319.452 799.038 318.607 802.764 315.536 806.608C314.502 807.881 310.8 812.396 303.952 814.442C299.644 815.743 296.086 815.324 288.914 814.546C277.864 813.336 270.292 810.492 265.747 808.415C261.856 806.651 259.894 805.741 258.436 803.934C254.405 798.989 255.368 790.938 259.932 786.289C264.524 781.61 271.924 781.217 278.225 780.882C284.208 780.564 284.498 781.65 287.103 781.047C295.091 779.173 296.236 768.011 302.394 744.813C303.966 738.932 302.003 746.718 310.968 715.255C314.827 701.717 316.782 694.859 318.104 689.745C320.125 681.956 322.869 670.883 325.652 657.256"/><path stroke="#303131" stroke-linecap="round" stroke-linejoin="round" stroke-width="8" d="M359.525 667.948C337.485 738.599 321.73 789.554 319.689 798.039C319.452 799.038 318.607 802.764 315.536 806.608C314.502 807.881 310.8 812.396 303.952 814.442C299.644 815.743 296.086 815.324 288.914 814.546C277.864 813.336 270.292 810.492 265.747 808.415C261.856 806.651 259.894 805.741 258.436 803.934C254.405 798.989 255.368 790.938 259.932 786.289C264.524 781.61 271.924 781.217 278.225 780.882C284.208 780.564 284.498 781.65 287.103 781.047C295.091 779.173 296.236 768.011 302.394 744.813C303.966 738.932 302.003 746.718 310.968 715.255C314.827 701.717 316.782 694.859 318.104 689.745C320.125 681.956 322.869 670.883 325.652 657.256"/><path fill="#FFB9AF" d="M411.042 653.381C423.644 726.306 432.614 778.873 433.512 787.579C433.623 788.588 433.972 792.425 436.513 796.608C437.371 798.012 440.447 802.979 446.979 805.907C451.077 807.747 454.675 807.817 461.872 807.985C472.987 808.234 480.861 806.395 485.625 804.953C489.704 803.722 491.785 803.061 493.468 801.464C498.106 797.101 498.225 788.979 494.295 783.767C490.364 778.527 483.074 777.147 476.867 775.998C470.982 774.891 470.545 775.929 468.06 774.988C460.399 772.091 460.73 760.885 457.638 737.078C456.854 731.062 457.77 739.013 453.006 706.657C450.961 692.737 449.918 685.662 449.263 680.421C448.259 672.445 447.017 661.091 446.019 647.231"/><path stroke="#303131" stroke-linecap="round" stroke-linejoin="round" stroke-width="8" d="M411.042 653.381C423.644 726.306 432.614 778.873 433.512 787.579C433.623 788.588 433.972 792.425 436.513 796.608C437.371 798.012 440.447 802.979 446.979 805.907C451.077 807.747 454.675 807.817 461.872 807.985C472.987 808.234 480.861 806.395 485.625 804.953C489.704 803.722 491.785 803.061 493.468 801.464C498.106 797.101 498.225 788.979 494.295 783.767C490.364 778.527 483.074 777.147 476.867 775.998C470.982 774.891 470.545 775.929 468.06 774.988C460.399 772.091 460.73 760.885 457.638 737.078C456.854 731.062 457.77 739.013 453.006 706.657C450.961 692.737 449.918 685.662 449.263 680.421C448.259 672.445 447.017 661.091 446.019 647.231"/><path fill="#FE563E" stroke="#303131" stroke-linecap="round" stroke-linejoin="round" stroke-width="8" d="M396.042 262.867C398.827 257.443 443.88 173.133 530.82 168.423C574.346 166.05 606.418 184.838 617.44 192.049C679.994 232.984 694.615 313.339 688.227 367.621C683.352 408.954 665.328 443.391 624.108 494.598C579.624 549.834 504.478 629.136 385.122 702.875L194.266 572.385C194.266 572.385 85.9923 502.402 65.3131 418.776C61.1751 402.01 49.8223 372.758 52.2701 333.758C53.4995 314.359 57.4401 262.003 98.9186 216.753C109.438 205.266 146.251 168.207 205.989 161.088C255.502 155.179 292.777 173.139 309.808 181.625C359.89 206.586 385.906 245.58 396.042 262.867Z"/><path fill="#AF3322" d="M639.488 219.66C646.571 243.835 656.306 288.999 646.957 344.309C635.51 411.933 601.871 457.433 585.243 477.245L497.834 580.503L386.147 695.981C397.432 688.54 408.719 681.128 420.034 673.686C450.65 652.55 483.276 627.8 516.696 598.892C540.474 578.352 562.027 557.959 581.529 538.226C603.057 512.443 624.585 486.66 646.111 460.849C655.723 441.554 665.333 422.231 674.945 402.937C677.83 390.146 680.714 377.326 683.599 364.535C686.205 344.859 688.799 303.156 667.119 259.583C658.65 242.584 648.527 229.383 639.514 219.601L639.488 219.66Z"/><path fill="#FFB9AF" d="M87.8407 321.288C80.3791 322.149 80.7952 317.982 81.4847 312.959C85.0655 287.087 97.0386 265.32 114.411 246.425C123.701 236.336 134.024 227.15 144.075 217.745C146.036 215.931 148.721 214.629 151.285 213.797C158.236 211.514 162.665 215.221 160.512 222.147C159.127 226.626 156.234 231.099 152.904 234.436C142.586 244.811 131.594 254.497 121.124 264.735C109.331 276.261 101.412 289.783 99.6686 306.601C98.9241 313.858 97.4099 321.359 87.8392 321.259L87.8407 321.288Z"/><path fill="#FFB9AF" d="M181.199 189.827C182.404 191.212 186.184 193.62 186.691 196.608C188.014 204.045 182.689 212.386 177.562 211.905C172.785 211.463 167.312 210.479 166.82 203.954C166.308 197.054 171.765 190.648 181.201 189.856L181.199 189.827Z"/><path fill="#88D1DB" stroke="#303131" stroke-linecap="round" stroke-linejoin="round" stroke-width="8" d="M110.493 524.896L114.885 503.387L256.996 543.57L399.136 583.78L252.603 565.079L106.1 546.405L110.493 524.896Z"/><path fill="#88D1DB" stroke="#303131" stroke-linecap="round" stroke-linejoin="round" stroke-width="8" d="M633.99 489.117C626.041 500.439 618.091 511.731 610.142 523.053C577.901 532.709 545.691 542.393 513.451 552.05L383.235 591.091L503.745 528.16C549.925 505.356 596.074 482.525 642.253 459.721C646.962 457.789 649.819 457.551 650.851 458.974C652.978 461.904 647.368 471.971 633.961 489.119L633.99 489.117Z"/><path fill="#FFB9AF" stroke="#303131" stroke-linecap="round" stroke-linejoin="round" stroke-width="8" d="M465.73 522.793C453.019 514.131 443.408 510.195 439.468 508.677C431.204 505.496 427.099 505.013 424.921 504.844C420.868 504.565 414.538 504.176 407.602 507.797C404.027 509.653 397.956 512.633 396.365 519.029C395.023 524.475 397.752 529.083 397.971 529.457C400.077 532.887 403.223 534.367 404.561 534.992C406.141 535.745 408.563 536.273 413.439 537.043C416.1 537.465 417.923 537.774 419.911 538.019C421.899 538.265 423.387 538.401 423.635 538.424C436.335 539.614 451.887 549.062 451.887 549.062C463.641 556.204 472.385 564.503 472.439 564.539C472.439 564.539 477.937 569.639 484.442 571.703C485.104 571.919 485.615 571.989 486.338 572.137C498.829 574.69 507.161 575.92 507.161 575.92C517.351 577.405 522.446 578.147 522.835 577.551C525.462 573.5 505.881 556.416 482.475 536.002C478.1 532.19 472.996 527.764 465.719 522.832L465.73 522.793Z"/><path fill="#FFB9AF" stroke="#303131" stroke-linecap="round" stroke-linejoin="round" stroke-width="8" d="M305.172 533.665C316.892 523.704 326.032 518.771 329.789 516.843C337.669 512.804 341.7 511.888 343.847 511.49C347.848 510.782 354.101 509.724 361.382 512.589C365.134 514.055 371.486 516.375 373.746 522.566C375.658 527.838 373.434 532.71 373.256 533.106C371.525 536.739 368.554 538.544 367.29 539.308C365.799 540.224 363.447 541.007 358.68 542.289C356.078 542.991 354.298 543.491 352.347 543.946C350.396 544.401 348.931 544.694 348.687 544.743C336.185 547.274 321.723 558.318 321.723 558.318C310.792 566.666 302.979 575.846 302.928 575.887C302.928 575.887 298.003 581.542 291.753 584.284C291.117 584.569 296.3 584.576 289.913 584.916C277.763 588.779 282.743 587.692 282.743 587.692C272.768 590.249 269.8 586.562 269.35 586.01C266.308 582.26 268.814 571.356 289.922 548.576C293.869 544.321 298.474 539.379 305.187 533.703L305.172 533.665Z"/><path stroke="#303131" stroke-linecap="round" stroke-linejoin="round" stroke-width="8" d="M287.861 379.561C292 375.474 300.187 368.572 312.073 365.242C323.279 362.103 332.672 363.57 337.883 364.852"/><path stroke="#303131" stroke-linecap="round" stroke-linejoin="round" stroke-width="8" d="M466.038 370.123C461.087 366.69 451.559 361.145 439.222 360.156C427.591 359.224 418.758 362.765 413.963 365.225"/><path fill="#303131" d="M323.291 422.205C331.237 421.927 337.453 415.261 337.175 407.315C336.897 399.37 330.231 393.154 322.286 393.432C314.34 393.709 308.124 400.376 308.402 408.321C308.68 416.267 315.346 422.483 323.291 422.205Z"/><path fill="#303131" d="M436.33 418.253C444.276 417.975 450.492 411.309 450.214 403.363C449.936 395.418 443.27 389.202 435.324 389.48C427.379 389.758 421.163 396.424 421.441 404.369C421.718 412.315 428.385 418.531 436.33 418.253Z"/><path fill="#F58E85" stroke="#303131" stroke-linecap="round" stroke-linejoin="round" stroke-width="8" d="M345.545 458.253C347.989 453.358 360.569 460.252 380.72 459.845C402.804 459.411 414.356 450.6 417.289 455.486C420.028 460.081 412.189 471.842 405.324 477.766C404.413 478.553 400.638 481.726 394.882 484.073C389.889 486.116 385.743 486.579 384.053 486.698C381.685 486.9 377.305 487.013 372.138 485.644C360.204 482.483 353.31 473.861 351.747 471.829C348.351 467.396 343.893 461.57 345.545 458.253Z"/><path stroke="#303131" stroke-linecap="round" stroke-linejoin="round" stroke-width="8" d="M385.905 417.958C393.559 427.387 385.228 433.067 385.228 433.067"/></g><path fill="#FFED47" stroke="#303131" stroke-linecap="round" stroke-linejoin="round" stroke-width="8" d="M393.027 556.951C393.362 556.289 398.796 545.989 409.431 545.327C414.755 544.994 418.697 547.247 420.052 548.112C427.745 553.027 429.609 562.784 428.878 569.393C428.321 574.425 426.147 578.631 421.151 584.901C415.76 591.664 406.639 601.386 392.102 610.476L368.626 594.801C368.626 594.801 355.311 586.4 352.702 576.251C352.18 574.216 350.764 570.67 351.027 565.924C351.159 563.564 351.592 557.192 356.625 551.647C357.902 550.239 362.372 545.694 369.675 544.767C375.728 543.998 380.306 546.144 382.398 547.159C388.55 550.143 391.77 554.859 393.027 556.951Z"/></g><rect width="414" height="541" x="101.352" y="106" stroke="#222" stroke-width="8" rx="11"/><defs><clipPath id="clip0_2848_1853"><rect width="675.55" height="668.834" fill="#fff" transform="translate(8.35156 166.874) rotate(-3.04399)"/></clipPath></defs></svg>