<svg xmlns="http://www.w3.org/2000/svg" width="617" height="755" fill="none" viewBox="0 0 617 755"><mask id="path-1-outside-1_2848_1936" width="616" height="755" x=".352" y=".5" fill="#000" maskUnits="userSpaceOnUse"><rect width="616" height="755" x=".352" y=".5" fill="#fff"/><path d="M8.35156 735.075C8.35156 740.761 13.1473 745.388 18.6629 746.77C18.9524 746.842 19.2452 746.919 19.5408 747H57.8516C63.3744 747 67.928 742.466 69.4194 737.148C72.4087 726.49 81.0973 711 106.352 711C131.245 711 139.416 726.05 142.082 736.689C143.464 742.204 148.091 747 153.777 747H189.852C195.374 747 199.929 742.465 201.434 737.151C204.452 726.493 213.224 711 238.727 711C264.788 711 274.389 727.179 277.887 737.845C279.533 742.862 283.965 747 289.246 747H324.782C330.332 747 334.897 742.425 336.357 737.07C339.263 726.414 347.779 711 372.727 711C397.733 711 406.337 726.487 409.298 737.146C410.776 742.467 415.329 747 420.852 747H460.352C465.874 747 470.43 742.464 471.944 737.153C474.98 726.494 483.809 711 509.477 711C531.345 711 538.885 726.456 541.484 737.114C542.793 742.479 547.329 747 552.852 747H597.162C597.458 746.919 597.751 746.842 598.04 746.77C603.556 745.388 608.352 740.761 608.352 735.075V699C608.352 693.477 603.817 688.922 598.503 687.418C587.844 684.4 572.352 675.627 572.352 650.125C572.352 624.064 588.531 614.462 599.196 610.964C604.214 609.319 608.352 604.886 608.352 599.605V559C608.352 553.477 603.818 548.924 598.5 547.432C588.249 544.557 573.53 536.411 572.418 513.326C573.53 490.469 588.247 482.401 598.497 479.553C603.819 478.075 608.352 473.523 608.352 468V427C608.352 421.477 603.817 416.922 598.503 415.418C587.938 412.427 572.625 403.782 572.355 378.798C572.625 357.373 587.902 349.944 598.465 347.368C603.831 346.059 608.352 341.523 608.352 336V290.5C608.352 285.008 603.924 280.55 598.443 280.5L598.422 280.495C587.766 277.588 572.352 269.072 572.352 244.125C572.352 219.119 587.839 210.514 598.497 207.553C603.819 206.075 608.352 201.523 608.352 196V156.5C608.352 150.977 603.816 146.421 598.504 144.908C587.846 141.871 572.352 133.043 572.352 107.375C572.352 85.5063 587.808 77.9669 598.465 75.3676C603.831 74.059 608.352 69.5228 608.352 64V18.5C608.352 12.9772 603.874 8.5 598.352 8.5H546.748C544.17 10.3211 542.26 13.2052 541.484 16.3862C538.885 27.0436 531.345 42.5 509.477 42.5C483.809 42.5 474.98 27.0057 471.944 16.3471C471.046 13.1971 469.079 10.32 466.474 8.5H414.733C412.133 10.3202 410.175 13.1986 409.298 16.3543C406.337 27.0127 397.733 42.5 372.727 42.5C347.779 42.5 339.263 27.0856 336.357 16.4297C335.488 13.2443 333.521 10.3346 330.901 8.5H283.11C280.695 10.1841 278.832 12.7747 277.887 15.6553C274.389 26.3209 264.788 42.5 238.727 42.5C213.224 42.5 204.452 27.0075 201.434 16.3489C200.542 13.1975 198.577 10.3201 195.973 8.5H147.66C144.937 10.4078 142.917 13.4781 142.082 16.8113C139.416 27.4495 131.245 42.5 106.352 42.5C81.0973 42.5 72.4087 27.0101 69.4194 16.3516C68.535 13.198 66.5736 10.3201 63.9718 8.5H18.3516C12.8287 8.5 8.35156 12.9772 8.35156 18.5V64C8.35156 69.5228 12.8723 74.059 18.2378 75.3676C28.8952 77.9669 44.3516 85.5063 44.3516 107.375C44.3516 133.043 28.8573 141.871 18.1987 144.908C12.8871 146.421 8.35156 150.977 8.35156 156.5V196C8.35156 201.523 12.8845 206.075 18.2058 207.553C28.8642 210.514 44.3516 219.119 44.3516 244.125C44.3516 269.072 28.9372 277.588 18.2813 280.495L18.2599 280.5C12.7793 280.55 8.35156 285.008 8.35156 290.5V336C8.35156 341.523 12.8723 346.059 18.2378 347.368C28.8008 349.944 44.0783 357.373 44.348 378.798C44.0779 403.782 28.7648 412.427 18.2004 415.418C12.8865 416.922 8.35156 421.477 8.35156 427V468C8.35156 473.523 12.8845 478.075 18.2058 479.553C28.4564 482.401 43.1735 490.469 44.2847 513.326C43.1735 536.411 28.4539 544.557 18.2031 547.432C12.8855 548.924 8.35156 553.477 8.35156 559V599.605C8.35156 604.886 12.4891 609.319 17.5068 610.964C28.1725 614.462 44.3516 624.064 44.3516 650.125C44.3516 675.627 28.859 684.4 18.2004 687.418C12.8865 688.922 8.35156 693.477 8.35156 699V735.075Z"/></mask><path fill="#F4F4F4" d="M8.35156 735.075C8.35156 740.761 13.1473 745.388 18.6629 746.77C18.9524 746.842 19.2452 746.919 19.5408 747H57.8516C63.3744 747 67.928 742.466 69.4194 737.148C72.4087 726.49 81.0973 711 106.352 711C131.245 711 139.416 726.05 142.082 736.689C143.464 742.204 148.091 747 153.777 747H189.852C195.374 747 199.929 742.465 201.434 737.151C204.452 726.493 213.224 711 238.727 711C264.788 711 274.389 727.179 277.887 737.845C279.533 742.862 283.965 747 289.246 747H324.782C330.332 747 334.897 742.425 336.357 737.07C339.263 726.414 347.779 711 372.727 711C397.733 711 406.337 726.487 409.298 737.146C410.776 742.467 415.329 747 420.852 747H460.352C465.874 747 470.43 742.464 471.944 737.153C474.98 726.494 483.809 711 509.477 711C531.345 711 538.885 726.456 541.484 737.114C542.793 742.479 547.329 747 552.852 747H597.162C597.458 746.919 597.751 746.842 598.04 746.77C603.556 745.388 608.352 740.761 608.352 735.075V699C608.352 693.477 603.817 688.922 598.503 687.418C587.844 684.4 572.352 675.627 572.352 650.125C572.352 624.064 588.531 614.462 599.196 610.964C604.214 609.319 608.352 604.886 608.352 599.605V559C608.352 553.477 603.818 548.924 598.5 547.432C588.249 544.557 573.53 536.411 572.418 513.326C573.53 490.469 588.247 482.401 598.497 479.553C603.819 478.075 608.352 473.523 608.352 468V427C608.352 421.477 603.817 416.922 598.503 415.418C587.938 412.427 572.625 403.782 572.355 378.798C572.625 357.373 587.902 349.944 598.465 347.368C603.831 346.059 608.352 341.523 608.352 336V290.5C608.352 285.008 603.924 280.55 598.443 280.5L598.422 280.495C587.766 277.588 572.352 269.072 572.352 244.125C572.352 219.119 587.839 210.514 598.497 207.553C603.819 206.075 608.352 201.523 608.352 196V156.5C608.352 150.977 603.816 146.421 598.504 144.908C587.846 141.871 572.352 133.043 572.352 107.375C572.352 85.5063 587.808 77.9669 598.465 75.3676C603.831 74.059 608.352 69.5228 608.352 64V18.5C608.352 12.9772 603.874 8.5 598.352 8.5H546.748C544.17 10.3211 542.26 13.2052 541.484 16.3862C538.885 27.0436 531.345 42.5 509.477 42.5C483.809 42.5 474.98 27.0057 471.944 16.3471C471.046 13.1971 469.079 10.32 466.474 8.5H414.733C412.133 10.3202 410.175 13.1986 409.298 16.3543C406.337 27.0127 397.733 42.5 372.727 42.5C347.779 42.5 339.263 27.0856 336.357 16.4297C335.488 13.2443 333.521 10.3346 330.901 8.5H283.11C280.695 10.1841 278.832 12.7747 277.887 15.6553C274.389 26.3209 264.788 42.5 238.727 42.5C213.224 42.5 204.452 27.0075 201.434 16.3489C200.542 13.1975 198.577 10.3201 195.973 8.5H147.66C144.937 10.4078 142.917 13.4781 142.082 16.8113C139.416 27.4495 131.245 42.5 106.352 42.5C81.0973 42.5 72.4087 27.0101 69.4194 16.3516C68.535 13.198 66.5736 10.3201 63.9718 8.5H18.3516C12.8287 8.5 8.35156 12.9772 8.35156 18.5V64C8.35156 69.5228 12.8723 74.059 18.2378 75.3676C28.8952 77.9669 44.3516 85.5063 44.3516 107.375C44.3516 133.043 28.8573 141.871 18.1987 144.908C12.8871 146.421 8.35156 150.977 8.35156 156.5V196C8.35156 201.523 12.8845 206.075 18.2058 207.553C28.8642 210.514 44.3516 219.119 44.3516 244.125C44.3516 269.072 28.9372 277.588 18.2813 280.495L18.2599 280.5C12.7793 280.55 8.35156 285.008 8.35156 290.5V336C8.35156 341.523 12.8723 346.059 18.2378 347.368C28.8008 349.944 44.0783 357.373 44.348 378.798C44.0779 403.782 28.7648 412.427 18.2004 415.418C12.8865 416.922 8.35156 421.477 8.35156 427V468C8.35156 473.523 12.8845 478.075 18.2058 479.553C28.4564 482.401 43.1735 490.469 44.2847 513.326C43.1735 536.411 28.4539 544.557 18.2031 547.432C12.8855 548.924 8.35156 553.477 8.35156 559V599.605C8.35156 604.886 12.4891 609.319 17.5068 610.964C28.1725 614.462 44.3516 624.064 44.3516 650.125C44.3516 675.627 28.859 684.4 18.2004 687.418C12.8865 688.922 8.35156 693.477 8.35156 699V735.075Z"/><path fill="#222" d="M18.6629 746.77L20.6082 739.01L20.6076 739.01L18.6629 746.77ZM19.5408 747L17.4284 754.716L18.4655 755H19.5408V747ZM69.4194 737.148L77.1222 739.309L69.4194 737.148ZM142.082 736.689L149.842 734.744V734.744L142.082 736.689ZM201.434 737.151L193.737 734.972L201.434 737.151ZM277.887 737.845L270.286 740.338L277.887 737.845ZM336.357 737.07L344.075 739.175L336.357 737.07ZM409.298 737.146L417.006 735.004L409.298 737.146ZM471.944 737.153L464.25 734.961V734.961L471.944 737.153ZM541.484 737.114L533.712 739.009V739.009L541.484 737.114ZM597.162 747V755H598.238L599.275 754.716L597.162 747ZM598.04 746.77L596.096 739.01L596.095 739.01L598.04 746.77ZM598.503 687.418L600.682 679.72L598.503 687.418ZM599.196 610.964L596.703 603.363H596.703L599.196 610.964ZM598.5 547.432L600.66 539.729L600.66 539.729L598.5 547.432ZM572.418 513.326L564.428 512.938L564.409 513.324L564.428 513.711L572.418 513.326ZM598.497 479.553L596.356 471.845L598.497 479.553ZM598.503 415.418L596.323 423.115L598.503 415.418ZM572.355 378.798L564.356 378.697L564.355 378.791L564.356 378.884L572.355 378.798ZM598.465 347.368L600.361 355.14L598.465 347.368ZM598.443 280.5L596.327 288.215L597.331 288.491L598.371 288.5L598.443 280.5ZM598.422 280.495L600.538 272.78L600.527 272.777L598.422 280.495ZM598.497 207.553L600.639 215.261L598.497 207.553ZM598.504 144.908L596.312 152.602L598.504 144.908ZM598.465 75.3676L600.361 83.1398L598.465 75.3676ZM546.748 8.5V0.5H544.207L542.132 1.96615L546.748 8.5ZM541.484 16.3862L533.712 14.4906V14.4907L541.484 16.3862ZM471.944 16.3471L464.25 18.539L464.25 18.5391L471.944 16.3471ZM466.474 8.5L471.056 1.9422L468.992 0.5H466.474V8.5ZM414.733 8.5V0.5H412.211L410.145 1.94637L414.733 8.5ZM409.298 16.3543L417.006 18.4955V18.4955L409.298 16.3543ZM336.357 16.4297L344.075 14.3245V14.3245L336.357 16.4297ZM330.901 8.5L335.489 1.94686L333.423 0.5H330.901V8.5ZM283.11 8.5V0.5H280.596L278.534 1.9381L283.11 8.5ZM277.887 15.6553L270.286 13.1621L270.286 13.1622L277.887 15.6553ZM201.434 16.3489L193.736 18.5282L193.737 18.5282L201.434 16.3489ZM195.973 8.5L200.557 1.94325L198.492 0.5H195.973V8.5ZM147.66 8.5V0.5H145.136L143.069 1.94821L147.66 8.5ZM142.082 16.8113L149.842 18.7561V18.7561L142.082 16.8113ZM69.4194 16.3516L61.7166 18.5119L61.7166 18.5119L69.4194 16.3516ZM63.9718 8.5L68.5576 1.94481L66.4923 0.5H63.9718V8.5ZM18.2378 75.3676L16.3422 83.1398H16.3422L18.2378 75.3676ZM18.1987 144.908L20.3906 152.602H20.3906L18.1987 144.908ZM18.2058 207.553L16.0645 215.261H16.0645L18.2058 207.553ZM18.2813 280.495L16.1761 272.777L16.1652 272.78L18.2813 280.495ZM18.2599 280.5L18.3317 288.5L19.3724 288.491L20.3761 288.215L18.2599 280.5ZM18.2378 347.368L16.3422 355.14H16.3422L18.2378 347.368ZM44.348 378.798L52.3475 378.884L52.3485 378.791L52.3473 378.697L44.348 378.798ZM18.2004 415.418L20.3797 423.115H20.3798L18.2004 415.418ZM18.2058 479.553L20.3471 471.845H20.3471L18.2058 479.553ZM44.2847 513.326L52.2754 513.711L52.294 513.324L52.2752 512.938L44.2847 513.326ZM18.2031 547.432L16.0428 539.729L16.0428 539.729L18.2031 547.432ZM17.5068 610.964L19.9999 603.363H19.9999L17.5068 610.964ZM18.2004 687.418L16.0211 679.72H16.0211L18.2004 687.418ZM0.351562 735.075C0.351562 745.506 8.80579 752.547 16.7182 754.53L20.6076 739.01C19.2985 738.682 18.1032 737.959 17.31 737.102C16.5469 736.278 16.3516 735.571 16.3516 735.075H0.351562ZM16.7176 754.53C16.9532 754.589 17.1902 754.651 17.4284 754.716L21.6531 739.284C21.3001 739.187 20.9516 739.096 20.6082 739.01L16.7176 754.53ZM19.5408 755H57.8516V739H19.5408V755ZM57.8516 755C67.9724 755 74.966 746.997 77.1222 739.309L61.7166 734.988C61.3668 736.235 60.6519 737.358 59.821 738.099C59.0208 738.813 58.3363 739 57.8516 739V755ZM77.1222 739.309C78.3675 734.869 80.6902 729.855 84.9292 725.986C89.0069 722.264 95.5057 719 106.352 719V703C91.9432 703 81.4706 707.481 74.1431 714.168C66.9769 720.709 63.4607 728.77 61.7166 734.988L77.1222 739.309ZM106.352 719C117.052 719 123.29 722.174 127.11 725.719C131.09 729.413 133.22 734.237 134.322 738.633L149.842 734.744C148.278 728.502 144.989 720.482 137.994 713.991C130.838 707.351 120.544 703 106.352 703V719ZM134.322 738.633C136.305 746.546 143.346 755 153.777 755V739C153.28 739 152.574 738.805 151.749 738.042C150.892 737.248 150.17 736.053 149.842 734.744L134.322 738.633ZM189.852 755C199.972 755 206.961 746.997 209.131 739.33L193.737 734.972C193.382 736.225 192.662 737.352 191.827 738.096C191.022 738.813 190.336 739 189.852 739V755ZM209.131 739.33C210.385 734.901 212.727 729.888 217.013 726.013C221.144 722.279 227.735 719 238.727 719V703C224.216 703 213.67 707.467 206.284 714.144C199.054 720.68 195.5 728.743 193.737 734.972L209.131 739.33ZM238.727 719C249.947 719 256.943 722.422 261.475 726.422C266.164 730.558 268.814 735.852 270.286 740.338L285.489 735.352C283.462 729.172 279.563 721.043 272.061 714.424C264.403 707.667 253.567 703 238.727 703V719ZM270.286 740.338C272.695 747.685 279.598 755 289.246 755V739C288.769 739 288.115 738.823 287.355 738.184C286.567 737.52 285.868 736.508 285.489 735.352L270.286 740.338ZM324.782 755C334.954 755 341.962 746.923 344.075 739.175L328.639 734.965C328.297 736.217 327.586 737.346 326.755 738.093C325.956 738.812 325.27 739 324.782 739V755ZM344.075 739.175C345.287 734.731 347.558 729.748 351.706 725.914C355.688 722.234 362.051 719 372.727 719V703C358.455 703 348.086 707.473 340.847 714.164C333.774 720.701 330.333 728.753 328.639 734.965L344.075 739.175ZM372.727 719C383.426 719 389.833 722.249 393.858 725.959C398.05 729.822 400.354 734.836 401.59 739.287L417.006 735.004C415.282 728.797 411.803 720.738 404.701 714.193C397.432 707.494 387.033 703 372.727 703V719ZM401.59 739.287C403.732 746.997 410.73 755 420.852 755V739C420.366 739 419.684 738.813 418.888 738.102C418.061 737.364 417.351 736.246 417.006 735.004L401.59 739.287ZM460.352 755C470.472 755 477.457 746.998 479.637 739.345L464.25 734.961C463.892 736.218 463.168 737.348 462.33 738.094C461.523 738.813 460.835 739 460.352 739V755ZM479.637 739.345C480.897 734.922 483.252 729.91 487.57 726.031C491.735 722.289 498.388 719 509.477 719V703C494.897 703 484.302 707.458 476.877 714.128C469.605 720.661 466.026 728.725 464.25 734.961L479.637 739.345ZM509.477 719C518.282 719 523.519 722.01 526.91 725.574C530.53 729.379 532.592 734.42 533.712 739.009L549.256 735.218C547.776 729.15 544.77 721.134 538.503 714.546C532.007 707.718 522.54 703 509.477 703V719ZM533.712 739.009C535.659 746.991 542.731 755 552.852 755V739C552.358 739 551.699 738.811 550.958 738.14C550.187 737.441 549.541 736.387 549.256 735.218L533.712 739.009ZM552.852 755H597.162V739H552.852V755ZM599.275 754.716C599.513 754.651 599.75 754.589 599.986 754.53L596.095 739.01C595.751 739.096 595.403 739.187 595.05 739.284L599.275 754.716ZM599.985 754.53C607.897 752.547 616.352 745.506 616.352 735.075H600.352C600.352 735.571 600.156 736.278 599.393 737.102C598.6 737.959 597.405 738.682 596.096 739.01L599.985 754.53ZM616.352 699C616.352 688.879 608.349 681.891 600.682 679.72L596.323 695.115C597.576 695.47 598.703 696.19 599.448 697.025C600.165 697.83 600.352 698.516 600.352 699H616.352ZM600.682 679.72C596.253 678.466 591.24 676.124 587.365 671.838C583.631 667.708 580.352 661.116 580.352 650.125H564.352C564.352 664.636 568.819 675.182 575.496 682.568C582.032 689.798 590.094 693.351 596.323 695.115L600.682 679.72ZM580.352 650.125C580.352 638.904 583.774 631.909 587.773 627.376C591.91 622.688 597.203 620.037 601.689 618.566L596.703 603.363C590.524 605.389 582.395 609.288 575.776 616.791C569.019 624.449 564.352 635.285 564.352 650.125H580.352ZM601.689 618.566C609.037 616.156 616.352 609.253 616.352 599.605H600.352C600.352 600.083 600.175 600.736 599.535 601.496C598.872 602.284 597.859 602.984 596.703 603.363L601.689 618.566ZM616.352 559C616.352 548.879 608.348 541.886 600.66 539.729L596.34 555.135C597.587 555.485 598.709 556.2 599.451 557.031C600.165 557.831 600.352 558.515 600.352 559H616.352ZM600.66 539.729C596.394 538.533 591.589 536.338 587.787 532.401C584.126 528.61 580.878 522.682 580.409 512.942L564.428 513.711C565.07 527.055 569.737 536.742 576.277 543.515C582.675 550.141 590.355 553.457 596.34 555.135L600.66 539.729ZM580.409 513.715C580.876 504.109 584.108 498.265 587.758 494.521C591.556 490.626 596.362 488.449 600.639 487.261L596.356 471.845C590.382 473.505 582.704 476.786 576.303 483.351C569.754 490.068 565.072 499.686 564.428 512.938L580.409 513.715ZM600.639 487.261C608.348 485.12 616.352 478.121 616.352 468H600.352C600.352 468.485 600.165 469.168 599.454 469.964C598.715 470.79 597.598 471.5 596.356 471.845L600.639 487.261ZM616.352 427C616.352 416.879 608.349 409.891 600.682 407.72L596.323 423.115C597.576 423.47 598.703 424.19 599.448 425.025C600.165 425.83 600.352 426.516 600.352 427H616.352ZM600.682 407.72C596.293 406.477 591.328 404.166 587.468 399.952C583.748 395.891 580.471 389.437 580.355 378.711L564.356 378.884C564.51 393.143 569.024 403.504 575.669 410.759C582.174 417.861 590.148 421.367 596.323 423.115L600.682 407.72ZM580.355 378.898C580.463 370.319 583.467 365.188 587.026 361.847C590.82 358.285 595.814 356.249 600.361 355.14L596.57 339.595C590.554 341.063 582.628 344.029 576.074 350.182C569.286 356.556 564.517 365.851 564.356 378.697L580.355 378.898ZM600.361 355.14C608.343 353.193 616.352 346.121 616.352 336H600.352C600.352 336.493 600.163 337.152 599.492 337.893C598.792 338.665 597.739 339.31 596.57 339.595L600.361 355.14ZM616.352 290.5C616.352 280.613 608.382 272.589 598.515 272.501L598.371 288.5C599.466 288.51 600.352 289.402 600.352 290.5H616.352ZM600.559 272.785L600.538 272.78L596.306 288.21L596.327 288.215L600.559 272.785ZM600.527 272.777C596.083 271.564 591.1 269.294 587.266 265.145C583.586 261.164 580.352 254.801 580.352 244.125H564.352C564.352 258.396 568.824 268.765 575.516 276.005C582.053 283.078 590.105 286.518 596.317 288.213L600.527 272.777ZM580.352 244.125C580.352 233.425 583.601 227.019 587.31 222.994C591.174 218.802 596.188 216.498 600.639 215.261L596.356 199.845C590.148 201.57 582.09 205.049 575.545 212.151C568.846 219.42 564.352 229.819 564.352 244.125H580.352ZM600.639 215.261C608.348 213.12 616.352 206.121 616.352 196H600.352C600.352 196.485 600.165 197.168 599.454 197.964C598.715 198.79 597.598 199.5 596.356 199.845L600.639 215.261ZM616.352 156.5C616.352 146.38 608.349 139.394 600.696 137.214L596.312 152.602C597.569 152.96 598.699 153.683 599.446 154.521C600.165 155.329 600.352 156.016 600.352 156.5H616.352ZM600.696 137.214C596.274 135.954 591.261 133.6 587.382 129.282C583.64 125.116 580.352 118.463 580.352 107.375H564.352C564.352 121.955 568.81 132.55 575.48 139.974C582.013 147.247 590.076 150.825 596.312 152.602L600.696 137.214ZM580.352 107.375C580.352 98.5695 583.362 93.3324 586.926 89.9414C590.731 86.3219 595.771 84.2592 600.361 83.1398L596.57 67.5954C590.502 69.0753 582.486 72.0819 575.898 78.3491C569.07 84.8448 564.352 94.3118 564.352 107.375H580.352ZM600.361 83.1398C608.343 81.193 616.352 74.1207 616.352 64H600.352C600.352 64.4932 600.163 65.1524 599.492 65.8932C598.792 66.6648 597.739 67.3103 596.57 67.5954L600.361 83.1398ZM616.352 64V18.5H600.352V64H616.352ZM616.352 18.5C616.352 8.55886 608.293 0.5 598.352 0.5V16.5C599.456 16.5 600.352 17.3954 600.352 18.5H616.352ZM598.352 0.5H546.748V16.5H598.352V0.5ZM542.132 1.96615C537.886 4.9657 534.918 9.54382 533.712 14.4906L549.256 18.2819C549.601 16.8666 550.454 15.6766 551.364 15.0338L542.132 1.96615ZM533.712 14.4907C532.592 19.0803 530.53 24.1209 526.91 27.9256C523.519 31.4901 518.282 34.5 509.477 34.5V50.5C522.54 50.5 532.007 45.7818 538.503 38.9537C544.77 32.3658 547.776 24.3496 549.256 18.2818L533.712 14.4907ZM509.477 34.5C498.388 34.5 491.735 31.2113 487.57 27.4692C483.252 23.5903 480.897 18.5775 479.637 14.1551L464.25 18.5391C466.026 24.7753 469.605 32.8389 476.877 39.3719C484.302 46.0416 494.897 50.5 509.477 50.5V34.5ZM479.637 14.1552C478.276 9.37803 475.287 4.89824 471.056 1.9422L461.892 15.0578C462.871 15.7418 463.816 17.0162 464.25 18.539L479.637 14.1552ZM466.474 0.5H414.733V16.5H466.474V0.5ZM410.145 1.94637C405.911 4.9099 402.925 9.40647 401.59 14.213L417.006 18.4955C417.424 16.9907 418.354 15.7305 419.321 15.0536L410.145 1.94637ZM401.59 14.213C400.354 18.6638 398.05 23.6779 393.858 27.5412C389.833 31.2507 383.426 34.5 372.727 34.5V50.5C387.033 50.5 397.432 46.0056 404.701 39.3069C411.803 32.7619 415.282 24.7031 417.006 18.4955L401.59 14.213ZM372.727 34.5C362.051 34.5 355.688 31.2657 351.706 27.5858C347.558 23.7516 345.287 18.7686 344.075 14.3245L328.639 18.5349C330.333 24.7467 333.774 32.7989 340.847 39.3359C348.086 46.0271 358.455 50.5 372.727 50.5V34.5ZM344.075 14.3245C342.753 9.47663 339.755 4.93366 335.489 1.94686L326.312 15.0531C327.287 15.7356 328.224 17.012 328.639 18.5349L344.075 14.3245ZM330.901 0.5H283.11V16.5H330.901V0.5ZM278.534 1.9381C274.599 4.68224 271.733 8.74916 270.286 13.1621L285.489 18.1484C285.931 16.8002 286.791 15.686 287.686 15.0619L278.534 1.9381ZM270.286 13.1622C268.814 17.6482 266.163 22.9419 261.475 27.0785C256.943 31.0775 249.947 34.5 238.727 34.5V50.5C253.567 50.5 264.403 45.8329 272.061 39.076C279.563 32.4566 283.462 24.328 285.489 18.1483L270.286 13.1622ZM238.727 34.5C227.735 34.5 221.144 31.2208 217.013 27.4869C212.727 23.612 210.385 18.599 209.131 14.1696L193.737 18.5282C195.5 24.7574 199.054 32.8199 206.284 39.3559C213.67 46.0329 224.216 50.5 238.727 50.5V34.5ZM209.131 14.1696C207.777 9.38511 204.788 4.90116 200.557 1.94325L191.389 15.0567C192.365 15.739 193.307 17.0098 193.736 18.5282L209.131 14.1696ZM195.973 0.5H147.66V16.5H195.973V0.5ZM143.069 1.94821C138.643 5.04972 135.586 9.82302 134.322 14.8666L149.842 18.7561C150.248 17.1332 151.231 15.766 152.251 15.0518L143.069 1.94821ZM134.322 14.8666C133.22 19.2633 131.09 24.0873 127.11 27.7809C123.29 31.3256 117.052 34.5 106.352 34.5V50.5C120.544 50.5 130.838 46.1491 137.994 39.5091C144.989 33.0179 148.278 24.9975 149.842 18.7561L134.322 14.8666ZM106.352 34.5C95.5057 34.5 89.0069 31.2356 84.9292 27.5139C80.6902 23.6449 78.3675 18.6314 77.1222 14.1913L61.7166 18.5119C63.4607 24.7303 66.9769 32.791 74.1431 39.3316C81.4706 46.0195 91.9432 50.5 106.352 50.5V34.5ZM77.1222 14.1913C75.7773 9.39579 72.7898 4.90553 68.5576 1.94481L59.386 15.0552C60.3574 15.7347 61.2927 17.0003 61.7166 18.5119L77.1222 14.1913ZM63.9718 0.5H18.3516V16.5H63.9718V0.5ZM18.3516 0.5C8.41047 0.5 0.351562 8.55886 0.351562 18.5H16.3516C16.3516 17.3954 17.247 16.5 18.3516 16.5V0.5ZM0.351562 18.5V64H16.3516V18.5H0.351562ZM0.351562 64C0.351562 74.1207 8.36018 81.193 16.3422 83.1398L20.1334 67.5954C18.9643 67.3103 17.9106 66.6648 17.2116 65.8932C16.5406 65.1524 16.3516 64.4932 16.3516 64H0.351562ZM16.3422 83.1398C20.9319 84.2592 25.9725 86.3219 29.7772 89.9414C33.3416 93.3324 36.3516 98.5695 36.3516 107.375H52.3516C52.3516 94.3118 47.6333 84.8448 40.8052 78.3491C34.2174 72.0819 26.2011 69.0753 20.1334 67.5954L16.3422 83.1398ZM36.3516 107.375C36.3516 118.463 33.0628 125.116 29.3208 129.282C25.4419 133.6 20.4291 135.954 16.0067 137.214L20.3906 152.602C26.6269 150.825 34.6905 147.247 41.2234 139.974C47.8932 132.55 52.3516 121.955 52.3516 107.375H36.3516ZM16.0067 137.214C8.3539 139.394 0.351562 146.38 0.351562 156.5H16.3516C16.3516 156.016 16.5381 155.329 17.2573 154.521C18.0037 153.683 19.134 152.96 20.3906 152.602L16.0067 137.214ZM0.351562 196C0.351562 206.121 8.35507 213.12 16.0645 215.261L20.3471 199.845C19.1052 199.5 17.9878 198.79 17.2494 197.964C16.5385 197.168 16.3516 196.485 16.3516 196H0.351562ZM16.0645 215.261C20.5153 216.498 25.5295 218.802 29.3927 222.994C33.1023 227.019 36.3516 233.425 36.3516 244.125H52.3516C52.3516 229.819 47.8572 219.42 41.1584 212.151C34.6134 205.049 26.5547 201.57 20.3471 199.845L16.0645 215.261ZM36.3516 244.125C36.3516 254.801 33.1173 261.164 29.4374 265.145C25.6032 269.294 20.6202 271.564 16.1761 272.777L20.3865 288.213C26.5983 286.518 34.6505 283.078 41.1874 276.005C47.8786 268.765 52.3516 258.396 52.3516 244.125H36.3516ZM16.1652 272.78L16.1438 272.785L20.3761 288.215L20.3974 288.21L16.1652 272.78ZM18.1882 272.501C8.32138 272.589 0.351562 280.613 0.351562 290.5H16.3516C16.3516 289.402 17.2372 288.51 18.3317 288.5L18.1882 272.501ZM0.351562 336C0.351562 346.121 8.36017 353.193 16.3422 355.14L20.1334 339.595C18.9643 339.31 17.9106 338.665 17.2116 337.893C16.5406 337.152 16.3516 336.493 16.3516 336H0.351562ZM16.3422 355.14C20.8891 356.249 25.8833 358.285 29.677 361.847C33.236 365.188 36.2406 370.319 36.3486 378.898L52.3473 378.697C52.1856 365.851 47.4167 356.556 40.6288 350.182C34.0755 344.029 26.1496 341.063 20.1334 339.595L16.3422 355.14ZM36.3484 378.711C36.2325 389.437 32.955 395.891 29.2353 399.952C25.3752 404.166 20.4106 406.477 16.0211 407.72L20.3798 423.115C26.5547 421.367 34.5288 417.861 41.0339 410.759C47.6793 403.504 52.1934 393.143 52.3475 378.884L36.3484 378.711ZM16.0211 407.72C8.35418 409.891 0.351562 416.879 0.351562 427H16.3516C16.3516 426.516 16.5382 425.83 17.2553 425.025C17.9997 424.19 19.1268 423.47 20.3797 423.115L16.0211 407.72ZM0.351562 468C0.351562 478.121 8.35506 485.12 16.0645 487.261L20.3471 471.845C19.1052 471.5 17.9877 470.79 17.2494 469.964C16.5385 469.168 16.3516 468.485 16.3516 468H0.351562ZM16.0645 487.261C20.3407 488.449 25.1471 490.626 28.9446 494.521C32.5949 498.265 35.8272 504.109 36.2941 513.715L52.2752 512.938C51.631 499.686 46.9491 490.068 40.4005 483.351C33.999 476.786 26.3215 473.505 20.3471 471.845L16.0645 487.261ZM36.2939 512.942C35.8251 522.682 32.5767 528.61 28.9164 532.401C25.1142 536.338 20.3091 538.533 16.0428 539.729L20.3634 555.135C26.3479 553.457 34.028 550.141 40.426 543.515C46.966 536.742 51.6331 527.055 52.2754 513.711L36.2939 512.942ZM16.0428 539.729C8.35467 541.886 0.351562 548.879 0.351562 559H16.3516C16.3516 558.515 16.5383 557.831 17.2523 557.031C17.9938 556.2 19.1161 555.485 20.3635 555.135L16.0428 539.729ZM0.351562 599.605C0.351562 609.253 7.66604 616.156 15.0138 618.566L19.9999 603.363C18.8437 602.984 17.8313 602.284 17.1679 601.496C16.5283 600.736 16.3516 600.083 16.3516 599.605H0.351562ZM15.0138 618.566C19.4998 620.037 24.7935 622.688 28.93 627.376C32.9291 631.909 36.3516 638.904 36.3516 650.125H52.3516C52.3516 635.285 47.6845 624.449 40.9276 616.791C34.3082 609.288 26.1795 605.389 19.9999 603.363L15.0138 618.566ZM36.3516 650.125C36.3516 661.116 33.0724 667.708 29.3385 671.838C25.4636 676.124 20.4506 678.466 16.0211 679.72L20.3798 695.115C26.6089 693.351 34.6714 689.798 41.2074 682.568C47.8845 675.182 52.3516 664.636 52.3516 650.125H36.3516ZM16.0211 679.72C8.35417 681.891 0.351562 688.879 0.351562 699H16.3516C16.3516 698.516 16.5382 697.83 17.2553 697.025C17.9997 696.19 19.1269 695.47 20.3798 695.115L16.0211 679.72ZM153.777 755H189.852V739H153.777V755ZM289.246 755H324.782V739H289.246V755ZM420.852 755H460.352V739H420.852V755ZM616.352 735.075V699H600.352V735.075H616.352ZM616.352 599.605V559H600.352V599.605H616.352ZM616.352 468V427H600.352V468H616.352ZM616.352 336V290.5H600.352V336H616.352ZM616.352 196V156.5H600.352V196H616.352ZM0.351562 156.5V196H16.3516V156.5H0.351562ZM0.351562 290.5V336H16.3516V290.5H0.351562ZM0.351562 427V468H16.3516V427H0.351562ZM0.351562 559V599.605H16.3516V559H0.351562ZM0.351562 699V735.075H16.3516V699H0.351562Z" mask="url(#path-1-outside-1_2848_1936)"/><rect width="414" height="541" x="101.352" y="106.5" fill="#302C40" stroke="#222" stroke-width="8" rx="11"/><mask id="mask0_2848_1936" style="mask-type:alpha" width="423" height="550" x="97" y="102" maskUnits="userSpaceOnUse"><rect width="414" height="541" x="101.352" y="106.5" fill="#D9D9D9" stroke="#222" stroke-width="8" rx="11"/></mask><g mask="url(#mask0_2848_1936)"><path fill="#BFF0FF" stroke="#313131" stroke-linecap="round" stroke-linejoin="round" stroke-width="5.454" d="M227.39 443.613C216.56 439.924 209.872 436.139 207.174 434.541C201.523 431.198 199.363 429.095 198.247 427.947C196.21 425.808 193.057 422.423 191.901 417.14C191.31 414.411 190.2 409.871 193.111 406.474C195.595 403.575 199.478 403.298 199.798 403.271C202.73 403.096 205.026 404.262 206.003 404.764C207.167 405.353 208.577 406.497 211.295 408.91C212.768 410.226 213.78 411.12 214.855 412.137C215.93 413.153 216.676 413.93 216.797 414.042C223.35 420.643 235.93 425.588 235.93 425.588C245.447 429.324 254.267 430.949 254.267 430.949C260.219 432.049 264.359 432.2 265.885 434.871C266.863 436.576 266.318 438.545 265.229 442.483C264.128 446.45 263.525 448.38 262.202 449.56C260.115 451.456 256.749 451.286 242.636 447.738C234.807 445.762 230.887 444.789 227.363 443.587L227.39 443.613Z"/><mask id="path-6-outside-2_2848_1936" width="34.643" height="29.035" x="114.305" y="336.61" fill="#000" maskUnits="userSpaceOnUse"><rect width="34.643" height="29.035" x="114.305" y="336.61" fill="#fff"/><path fill-rule="evenodd" d="M140.643 342.185C141.149 342.219 141.627 342.251 142.07 342.279C143.272 342.356 144.185 343.392 144.109 344.595C144.033 345.797 142.996 346.71 141.793 346.634C141.322 346.604 140.823 346.571 140.303 346.536C138.116 346.389 135.547 346.216 133.003 346.178C129.798 346.13 126.945 346.308 125.112 346.886C124.188 347.177 123.832 347.478 123.73 347.611C123.698 347.652 123.695 347.669 123.691 347.693C123.686 347.729 123.676 347.863 123.762 348.136C123.948 348.726 124.499 349.693 125.79 351.094C127.057 352.468 128.918 354.134 131.527 356.133C132.484 356.865 132.665 358.235 131.933 359.191C131.2 360.148 129.831 360.329 128.874 359.597C126.151 357.511 124.079 355.675 122.582 354.052C121.11 352.455 120.067 350.928 119.6 349.447C119.098 347.852 119.264 346.261 120.27 344.952C121.169 343.783 122.527 343.126 123.8 342.724C126.362 341.916 129.838 341.767 133.068 341.815C135.738 341.855 138.452 342.038 140.643 342.185Z" clip-rule="evenodd"/></mask><path fill="#979797" fill-rule="evenodd" d="M140.643 342.185C141.149 342.219 141.627 342.251 142.07 342.279C143.272 342.356 144.185 343.392 144.109 344.595C144.033 345.797 142.996 346.71 141.793 346.634C141.322 346.604 140.823 346.571 140.303 346.536C138.116 346.389 135.547 346.216 133.003 346.178C129.798 346.13 126.945 346.308 125.112 346.886C124.188 347.177 123.832 347.478 123.73 347.611C123.698 347.652 123.695 347.669 123.691 347.693C123.686 347.729 123.676 347.863 123.762 348.136C123.948 348.726 124.499 349.693 125.79 351.094C127.057 352.468 128.918 354.134 131.527 356.133C132.484 356.865 132.665 358.235 131.933 359.191C131.2 360.148 129.831 360.329 128.874 359.597C126.151 357.511 124.079 355.675 122.582 354.052C121.11 352.455 120.067 350.928 119.6 349.447C119.098 347.852 119.264 346.261 120.27 344.952C121.169 343.783 122.527 343.126 123.8 342.724C126.362 341.916 129.838 341.767 133.068 341.815C135.738 341.855 138.452 342.038 140.643 342.185Z" clip-rule="evenodd"/><path fill="#313131" d="M140.643 342.185L140.911 338.194L140.911 338.194L140.643 342.185ZM140.303 346.536L140.572 342.545L140.572 342.545L140.303 346.536ZM133.003 346.178L132.943 350.177L133.003 346.178ZM125.112 346.886L126.315 350.7L126.315 350.7L125.112 346.886ZM123.73 347.611L126.901 350.049L126.901 350.049L123.73 347.611ZM123.691 347.693L127.653 348.243L127.653 348.243L123.691 347.693ZM123.762 348.136L127.577 346.933L127.577 346.933L123.762 348.136ZM125.79 351.094L128.731 348.383L128.731 348.383L125.79 351.094ZM131.527 356.133L129.095 359.308L129.095 359.308L131.527 356.133ZM131.933 359.191L128.757 356.759L128.757 356.759L131.933 359.191ZM128.874 359.597L131.306 356.421L131.306 356.421L128.874 359.597ZM122.582 354.052L119.641 356.763L119.641 356.763L122.582 354.052ZM119.6 349.447L123.416 348.245L123.416 348.245L119.6 349.447ZM120.27 344.952L123.441 347.39L120.27 344.952ZM123.8 342.724L125.003 346.539L123.8 342.724ZM133.068 341.815L133.009 345.815L133.068 341.815ZM142.323 338.287C141.889 338.26 141.419 338.228 140.911 338.194L140.374 346.176C140.878 346.21 141.364 346.243 141.816 346.271L142.323 338.287ZM148.101 344.848C148.317 341.441 145.73 338.504 142.323 338.287L141.816 346.271C140.814 346.208 140.053 345.344 140.117 344.342L148.101 344.848ZM141.54 350.626C144.947 350.842 147.885 348.255 148.101 344.848L140.117 344.342C140.18 343.339 141.044 342.578 142.047 342.642L141.54 350.626ZM140.035 350.527C140.554 350.561 141.06 350.596 141.54 350.626L142.047 342.642C141.584 342.613 141.093 342.58 140.572 342.545L140.035 350.527ZM132.943 350.177C135.366 350.214 137.833 350.379 140.035 350.527L140.572 342.545C138.398 342.399 135.727 342.218 133.063 342.178L132.943 350.177ZM126.315 350.7C127.478 350.334 129.76 350.13 132.943 350.177L133.063 342.178C129.837 342.13 126.411 342.282 123.909 343.071L126.315 350.7ZM126.901 350.049C126.703 350.306 126.52 350.473 126.409 350.564C126.289 350.664 126.195 350.723 126.146 350.752C126.051 350.808 126.081 350.774 126.315 350.7L123.909 343.071C122.664 343.464 121.39 344.091 120.558 345.173L126.901 350.049ZM127.653 348.243C127.643 348.32 127.589 348.734 127.383 349.219C127.203 349.644 126.989 349.934 126.901 350.049L120.558 345.173C120.438 345.329 120.207 345.648 120.017 346.098C119.801 346.608 119.743 347.041 119.729 347.142L127.653 348.243ZM127.577 346.933C127.634 347.115 127.745 347.585 127.653 348.243L119.729 347.142C119.628 347.873 119.718 348.612 119.947 349.338L127.577 346.933ZM128.731 348.383C128.199 347.806 127.883 347.385 127.705 347.115C127.517 346.83 127.528 346.777 127.577 346.933L119.947 349.338C120.39 350.745 121.393 352.226 122.849 353.805L128.731 348.383ZM133.96 352.957C131.454 351.038 129.787 349.528 128.731 348.383L122.849 353.805C124.327 355.408 126.382 357.23 129.095 359.308L133.96 352.957ZM135.108 361.624C137.184 358.913 136.67 355.033 133.96 352.957L129.095 359.308C128.298 358.698 128.147 357.556 128.757 356.759L135.108 361.624ZM126.442 362.772C129.152 364.848 133.032 364.334 135.108 361.624L128.757 356.759C129.368 355.962 130.509 355.811 131.306 356.421L126.442 362.772ZM119.641 356.763C121.349 358.616 123.615 360.607 126.442 362.772L131.306 356.421C128.688 354.415 126.809 352.735 125.523 351.34L119.641 356.763ZM115.785 350.65C116.509 352.945 118.003 354.985 119.641 356.763L125.523 351.34C124.217 349.924 123.625 348.91 123.416 348.245L115.785 350.65ZM117.099 342.514C115.161 345.036 114.963 348.038 115.785 350.65L123.416 348.245C123.316 347.93 123.319 347.732 123.332 347.637C123.343 347.558 123.367 347.487 123.441 347.39L117.099 342.514ZM122.596 338.91C121.004 339.412 118.728 340.395 117.099 342.514L123.441 347.39C123.515 347.294 123.657 347.155 123.928 346.995C124.204 346.832 124.562 346.678 125.003 346.539L122.596 338.91ZM133.128 337.816C129.871 337.767 125.826 337.891 122.596 338.91L125.003 346.539C126.897 345.942 129.804 345.767 133.009 345.815L133.128 337.816ZM140.911 338.194C138.735 338.048 135.919 337.857 133.128 337.816L133.009 345.815C135.558 345.853 138.17 346.028 140.374 346.176L140.911 338.194Z" mask="url(#path-6-outside-2_2848_1936)"/><mask id="path-8-outside-3_2848_1936" width="34.271" height="28.569" x="114.986" y="323.275" fill="#000" maskUnits="userSpaceOnUse"><rect width="34.271" height="28.569" x="114.986" y="323.275" fill="#fff"/><path fill-rule="evenodd" d="M141.005 328.484C141.511 328.511 141.99 328.536 142.433 328.557C143.637 328.616 144.565 329.639 144.506 330.842C144.448 332.046 143.425 332.974 142.221 332.916C141.75 332.893 141.251 332.867 140.73 332.839C138.54 332.725 135.969 332.59 133.425 332.59C130.22 332.59 127.369 332.809 125.546 333.414C124.626 333.72 124.274 334.026 124.174 334.161C124.143 334.202 124.14 334.219 124.137 334.242C124.133 334.279 124.124 334.413 124.214 334.684C124.409 335.272 124.974 336.231 126.286 337.612C127.573 338.968 129.459 340.606 132.097 342.565C133.065 343.284 133.266 344.65 132.548 345.618C131.829 346.585 130.463 346.787 129.496 346.068C126.742 344.023 124.643 342.219 123.122 340.617C121.626 339.042 120.561 337.531 120.073 336.057C119.546 334.47 119.689 332.876 120.676 331.553C121.557 330.371 122.905 329.694 124.172 329.273C126.721 328.427 130.195 328.226 133.426 328.227C136.096 328.227 138.812 328.369 141.005 328.484Z" clip-rule="evenodd"/></mask><path fill="#979797" fill-rule="evenodd" d="M141.005 328.484C141.511 328.511 141.99 328.536 142.433 328.557C143.637 328.616 144.565 329.639 144.506 330.842C144.448 332.046 143.425 332.974 142.221 332.916C141.75 332.893 141.251 332.867 140.73 332.839C138.54 332.725 135.969 332.59 133.425 332.59C130.22 332.59 127.369 332.809 125.546 333.414C124.626 333.72 124.274 334.026 124.174 334.161C124.143 334.202 124.14 334.219 124.137 334.242C124.133 334.279 124.124 334.413 124.214 334.684C124.409 335.272 124.974 336.231 126.286 337.612C127.573 338.968 129.459 340.606 132.097 342.565C133.065 343.284 133.266 344.65 132.548 345.618C131.829 346.585 130.463 346.787 129.496 346.068C126.742 344.023 124.643 342.219 123.122 340.617C121.626 339.042 120.561 337.531 120.073 336.057C119.546 334.47 119.689 332.876 120.676 331.553C121.557 330.371 122.905 329.694 124.172 329.273C126.721 328.427 130.195 328.226 133.426 328.227C136.096 328.227 138.812 328.369 141.005 328.484Z" clip-rule="evenodd"/><path fill="#313131" d="M141.005 328.484L141.214 324.49L141.214 324.49L141.005 328.484ZM140.73 332.839L140.939 328.845L140.939 328.845L140.73 332.839ZM133.425 332.59L133.425 336.59L133.425 332.59ZM125.546 333.414L126.805 337.211L126.805 337.211L125.546 333.414ZM124.174 334.161L127.381 336.551L127.381 336.551L124.174 334.161ZM124.137 334.242L128.107 334.734L128.107 334.734L124.137 334.242ZM124.214 334.684L128.011 333.426L128.011 333.426L124.214 334.684ZM126.286 337.612L129.187 334.858L129.187 334.858L126.286 337.612ZM132.097 342.565L129.712 345.777L129.712 345.777L132.097 342.565ZM132.548 345.618L129.337 343.233L129.337 343.233L132.548 345.618ZM129.496 346.068L131.881 342.857L131.881 342.857L129.496 346.068ZM123.122 340.617L120.222 343.372L120.222 343.372L123.122 340.617ZM120.073 336.057L123.869 334.799L120.073 336.057ZM120.676 331.553L117.469 329.162L117.469 329.162L120.676 331.553ZM124.172 329.273L125.431 333.07L124.172 329.273ZM133.426 328.227L133.425 332.227L133.426 328.227ZM142.627 324.562C142.193 324.541 141.723 324.516 141.214 324.49L140.795 332.479C141.3 332.505 141.786 332.531 142.239 332.553L142.627 324.562ZM148.502 331.036C148.667 327.626 146.037 324.728 142.627 324.562L142.239 332.553C141.236 332.504 140.462 331.651 140.511 330.648L148.502 331.036ZM142.027 336.911C145.437 337.077 148.336 334.446 148.502 331.036L140.511 330.648C140.56 329.645 141.412 328.872 142.415 328.92L142.027 336.911ZM140.521 336.834C141.04 336.861 141.547 336.888 142.027 336.911L142.415 328.92C141.952 328.898 141.461 328.872 140.939 328.845L140.521 336.834ZM133.425 336.59C135.848 336.59 138.317 336.719 140.521 336.834L140.939 328.845C138.764 328.731 136.09 328.59 133.426 328.59L133.425 336.59ZM126.805 337.211C127.962 336.827 130.241 336.59 133.425 336.59L133.426 328.59C130.2 328.59 126.776 328.792 124.286 329.618L126.805 337.211ZM127.381 336.551C127.187 336.811 127.006 336.98 126.897 337.073C126.778 337.175 126.685 337.236 126.637 337.265C126.543 337.323 126.572 337.288 126.805 337.211L124.286 329.618C123.047 330.029 121.783 330.675 120.967 331.77L127.381 336.551ZM128.107 334.734C128.097 334.812 128.049 335.226 127.851 335.714C127.677 336.142 127.468 336.434 127.381 336.551L120.967 331.77C120.849 331.928 120.623 332.25 120.439 332.703C120.231 333.215 120.18 333.65 120.167 333.751L128.107 334.734ZM128.011 333.426C128.071 333.606 128.188 334.074 128.107 334.734L120.167 333.751C120.077 334.483 120.178 335.221 120.417 335.943L128.011 333.426ZM129.187 334.858C128.646 334.289 128.323 333.873 128.141 333.605C127.95 333.323 127.959 333.27 128.011 333.426L120.417 335.943C120.882 337.344 121.906 338.809 123.386 340.367L129.187 334.858ZM134.482 339.354C131.949 337.472 130.259 335.987 129.187 334.858L123.386 340.367C124.887 341.948 126.968 343.739 129.712 345.777L134.482 339.354ZM135.759 348.003C137.795 345.262 137.223 341.39 134.482 339.354L129.712 345.777C128.906 345.178 128.738 344.039 129.337 343.233L135.759 348.003ZM127.11 349.279C129.851 351.315 133.723 350.744 135.759 348.003L129.337 343.233C129.935 342.426 131.074 342.258 131.881 342.857L127.11 349.279ZM120.222 343.372C121.957 345.199 124.252 347.156 127.11 349.279L131.881 342.857C129.232 340.89 127.329 339.238 126.023 337.863L120.222 343.372ZM116.276 337.316C117.033 339.601 118.557 341.619 120.222 343.372L126.023 337.863C124.696 336.466 124.089 335.46 123.869 334.799L116.276 337.316ZM117.469 329.162C115.568 331.712 115.414 334.717 116.276 337.316L123.869 334.799C123.765 334.485 123.766 334.287 123.777 334.192C123.787 334.113 123.809 334.042 123.883 333.943L117.469 329.162ZM122.912 325.477C121.327 326.003 119.066 327.019 117.469 329.162L123.883 333.943C123.955 333.846 124.095 333.705 124.363 333.541C124.637 333.374 124.993 333.215 125.431 333.07L122.912 325.477ZM133.426 324.227C130.169 324.226 126.126 324.41 122.912 325.477L125.431 333.07C127.316 332.444 130.22 332.226 133.425 332.227L133.426 324.227ZM141.214 324.49C139.036 324.376 136.217 324.227 133.426 324.227L133.425 332.227C135.975 332.227 138.589 332.363 140.795 332.479L141.214 324.49Z" mask="url(#path-8-outside-3_2848_1936)"/><mask id="path-10-outside-4_2848_1936" width="42.465" height="40.864" x="217.553" y="353.188" fill="#000" maskUnits="userSpaceOnUse"><rect width="42.465" height="40.864" x="217.553" y="353.188" fill="#fff"/><path fill-rule="evenodd" d="M237.132 361.029C236.711 360.746 236.313 360.479 235.946 360.23C234.948 359.554 233.592 359.814 232.916 360.812C232.24 361.809 232.5 363.166 233.498 363.842C233.889 364.107 234.304 364.385 234.736 364.676C236.556 365.899 238.693 367.336 240.727 368.863C243.29 370.787 245.438 372.675 246.533 374.254C247.085 375.05 247.183 375.506 247.182 375.674C247.182 375.725 247.174 375.741 247.162 375.762C247.144 375.793 247.07 375.906 246.835 376.069C246.327 376.422 245.299 376.849 243.42 377.166C241.578 377.477 239.086 377.655 235.799 377.637C234.594 377.631 233.612 378.603 233.606 379.808C233.6 381.012 234.571 381.994 235.776 382.001C239.206 382.019 241.968 381.836 244.146 381.469C246.288 381.107 248.047 380.539 249.323 379.654C250.696 378.7 251.54 377.34 251.545 375.69C251.551 374.215 250.879 372.864 250.119 371.767C248.588 369.56 245.931 367.313 243.347 365.374C241.211 363.77 238.954 362.253 237.132 361.029Z" clip-rule="evenodd"/></mask><path fill="#979797" fill-rule="evenodd" d="M237.132 361.029C236.711 360.746 236.313 360.479 235.946 360.23C234.948 359.554 233.592 359.814 232.916 360.812C232.24 361.809 232.5 363.166 233.498 363.842C233.889 364.107 234.304 364.385 234.736 364.676C236.556 365.899 238.693 367.336 240.727 368.863C243.29 370.787 245.438 372.675 246.533 374.254C247.085 375.05 247.183 375.506 247.182 375.674C247.182 375.725 247.174 375.741 247.162 375.762C247.144 375.793 247.07 375.906 246.835 376.069C246.327 376.422 245.299 376.849 243.42 377.166C241.578 377.477 239.086 377.655 235.799 377.637C234.594 377.631 233.612 378.603 233.606 379.808C233.6 381.012 234.571 381.994 235.776 382.001C239.206 382.019 241.968 381.836 244.146 381.469C246.288 381.107 248.047 380.539 249.323 379.654C250.696 378.7 251.54 377.34 251.545 375.69C251.551 374.215 250.879 372.864 250.119 371.767C248.588 369.56 245.931 367.313 243.347 365.374C241.211 363.77 238.954 362.253 237.132 361.029Z" clip-rule="evenodd"/><path fill="#313131" d="M237.132 361.029L239.363 357.709L239.363 357.709L237.132 361.029ZM234.736 364.676L236.968 361.356L236.968 361.356L234.736 364.676ZM240.727 368.863L238.326 372.062L240.727 368.863ZM246.533 374.254L249.82 371.974L246.533 374.254ZM247.182 375.674L243.182 375.66L243.182 375.66L247.182 375.674ZM247.162 375.762L243.693 373.771L243.693 373.771L247.162 375.762ZM246.835 376.069L244.555 372.782L244.555 372.782L246.835 376.069ZM243.42 377.166L244.086 381.11L244.086 381.11L243.42 377.166ZM235.799 377.637L235.778 381.637L235.778 381.637L235.799 377.637ZM233.606 379.808L237.606 379.829L237.606 379.829L233.606 379.808ZM235.776 382.001L235.797 378.001L235.797 378.001L235.776 382.001ZM244.146 381.469L244.812 385.413L244.812 385.413L244.146 381.469ZM249.323 379.654L251.603 382.94L249.323 379.654ZM251.545 375.69L247.545 375.675L247.545 375.675L251.545 375.69ZM250.119 371.767L246.832 374.047L246.832 374.047L250.119 371.767ZM243.347 365.374L240.945 368.572L243.347 365.374ZM238.189 356.918C238.549 357.162 238.94 357.425 239.363 357.709L234.901 364.349C234.481 364.067 234.077 363.795 233.702 363.541L238.189 356.918ZM229.604 358.568C231.52 355.742 235.363 355.003 238.189 356.918L233.702 363.541C234.533 364.104 235.664 363.887 236.227 363.056L229.604 358.568ZM231.254 367.153C228.428 365.238 227.689 361.394 229.604 358.568L236.227 363.056C236.79 362.224 236.573 361.094 235.742 360.53L231.254 367.153ZM232.505 367.996C232.074 367.706 231.653 367.423 231.254 367.153L235.742 360.53C236.125 360.79 236.534 361.065 236.968 361.356L232.505 367.996ZM238.326 372.062C236.388 370.607 234.337 369.227 232.505 367.996L236.968 361.356C238.775 362.572 240.998 364.064 243.129 365.664L238.326 372.062ZM243.246 376.533C242.551 375.531 240.872 373.974 238.326 372.062L243.129 365.664C245.709 367.601 248.325 369.818 249.82 371.974L243.246 376.533ZM243.182 375.66C243.181 375.984 243.224 376.228 243.255 376.368C243.29 376.521 243.327 376.625 243.348 376.678C243.389 376.78 243.386 376.735 243.246 376.533L249.82 371.974C250.564 373.047 251.187 374.323 251.182 375.688L243.182 375.66ZM243.693 373.771C243.654 373.839 243.444 374.199 243.309 374.708C243.191 375.155 243.183 375.515 243.182 375.66L251.182 375.688C251.181 375.885 251.169 376.278 251.044 376.751C250.903 377.286 250.683 377.664 250.632 377.752L243.693 373.771ZM244.555 372.782C244.399 372.891 244.024 373.195 243.693 373.771L250.632 377.752C250.265 378.392 249.741 378.921 249.116 379.355L244.555 372.782ZM242.755 373.222C243.529 373.091 244.037 372.953 244.343 372.848C244.666 372.737 244.69 372.689 244.555 372.782L249.116 379.355C247.903 380.196 246.204 380.753 244.086 381.11L242.755 373.222ZM235.82 373.637C238.976 373.654 241.219 373.481 242.755 373.222L244.086 381.11C241.936 381.473 239.196 381.655 235.778 381.637L235.82 373.637ZM229.606 379.787C229.624 376.373 232.406 373.62 235.82 373.637L235.778 381.637C236.782 381.643 237.601 380.833 237.606 379.829L229.606 379.787ZM235.755 386.001C232.341 385.983 229.588 383.201 229.606 379.787L237.606 379.829C237.611 378.824 236.802 378.006 235.797 378.001L235.755 386.001ZM244.812 385.413C242.327 385.832 239.316 386.019 235.755 386.001L235.797 378.001C239.096 378.018 241.61 377.84 243.481 377.524L244.812 385.413ZM251.603 382.94C249.625 384.312 247.195 385.011 244.812 385.413L243.481 377.524C245.381 377.204 246.47 376.765 247.042 376.367L251.603 382.94ZM255.545 375.704C255.534 378.884 253.852 381.379 251.603 382.94L247.042 376.367C247.314 376.179 247.433 376.021 247.481 375.937C247.52 375.869 247.545 375.798 247.545 375.675L255.545 375.704ZM253.406 369.488C254.357 370.86 255.555 373.031 255.545 375.704L247.545 375.675C247.546 375.554 247.519 375.358 247.403 375.066C247.284 374.767 247.095 374.426 246.832 374.047L253.406 369.488ZM245.749 362.175C248.353 364.13 251.476 366.705 253.406 369.488L246.832 374.047C245.7 372.415 243.508 370.497 240.945 368.572L245.749 362.175ZM239.363 357.709C241.174 358.926 243.516 360.499 245.749 362.175L240.945 368.572C238.906 367.042 236.734 365.581 234.901 364.349L239.363 357.709Z" mask="url(#path-10-outside-4_2848_1936)"/><mask id="path-12-outside-5_2848_1936" width="42.264" height="40.313" x="222.306" y="343.604" fill="#000" maskUnits="userSpaceOnUse"><rect width="42.264" height="40.313" x="222.306" y="343.604" fill="#fff"/><path fill-rule="evenodd" d="M241.253 351.25C240.821 350.986 240.412 350.735 240.035 350.502C239.009 349.869 237.665 350.187 237.032 351.212C236.399 352.237 236.717 353.581 237.742 354.215C238.144 354.463 238.57 354.724 239.014 354.996C240.884 356.141 243.08 357.486 245.177 358.926C247.819 360.74 250.045 362.535 251.206 364.066C251.791 364.839 251.907 365.29 251.914 365.458C251.916 365.509 251.909 365.525 251.898 365.546C251.881 365.579 251.812 365.694 251.584 365.867C251.091 366.241 250.082 366.711 248.219 367.108C246.391 367.496 243.909 367.779 240.624 367.901C239.42 367.945 238.48 368.958 238.525 370.162C238.57 371.366 239.582 372.306 240.786 372.261C244.213 372.134 246.966 371.835 249.126 371.376C251.25 370.924 252.984 370.281 254.221 369.343C255.553 368.333 256.338 366.938 256.274 365.289C256.217 363.815 255.489 362.494 254.683 361.43C253.06 359.29 250.31 357.158 247.647 355.329C245.445 353.817 243.126 352.397 241.253 351.25Z" clip-rule="evenodd"/></mask><path fill="#979797" fill-rule="evenodd" d="M241.253 351.25C240.821 350.986 240.412 350.735 240.035 350.502C239.009 349.869 237.665 350.187 237.032 351.212C236.399 352.237 236.717 353.581 237.742 354.215C238.144 354.463 238.57 354.724 239.014 354.996C240.884 356.141 243.08 357.486 245.177 358.926C247.819 360.74 250.045 362.535 251.206 364.066C251.791 364.839 251.907 365.29 251.914 365.458C251.916 365.509 251.909 365.525 251.898 365.546C251.881 365.579 251.812 365.694 251.584 365.867C251.091 366.241 250.082 366.711 248.219 367.108C246.391 367.496 243.909 367.779 240.624 367.901C239.42 367.945 238.48 368.958 238.525 370.162C238.57 371.366 239.582 372.306 240.786 372.261C244.213 372.134 246.966 371.835 249.126 371.376C251.25 370.924 252.984 370.281 254.221 369.343C255.553 368.333 256.338 366.938 256.274 365.289C256.217 363.815 255.489 362.494 254.683 361.43C253.06 359.29 250.31 357.158 247.647 355.329C245.445 353.817 243.126 352.397 241.253 351.25Z" clip-rule="evenodd"/><path fill="#313131" d="M241.253 351.25L243.342 347.839L243.342 347.839L241.253 351.25ZM239.014 354.996L241.103 351.585L241.103 351.585L239.014 354.996ZM245.177 358.926L242.913 362.223L245.177 358.926ZM251.206 364.066L254.393 361.65L251.206 364.066ZM251.914 365.458L255.911 365.303L255.911 365.303L251.914 365.458ZM251.898 365.546L248.347 363.704L248.347 363.704L251.898 365.546ZM251.584 365.867L249.167 362.68L249.167 362.68L251.584 365.867ZM248.219 367.108L247.387 363.195L247.387 363.195L248.219 367.108ZM240.624 367.901L240.773 371.898L240.773 371.898L240.624 367.901ZM238.525 370.162L242.522 370.013L242.522 370.013L238.525 370.162ZM240.786 372.261L240.638 368.264L240.638 368.264L240.786 372.261ZM249.126 371.376L249.957 375.288L249.957 375.288L249.126 371.376ZM254.221 369.343L251.804 366.156L251.804 366.156L254.221 369.343ZM256.274 365.289L252.277 365.444L256.274 365.289ZM254.683 361.43L257.87 359.014L254.683 361.43ZM247.647 355.329L245.383 358.626L247.647 355.329ZM242.137 347.099C242.506 347.327 242.908 347.573 243.342 347.839L239.165 354.662C238.734 354.398 238.318 354.144 237.933 353.905L242.137 347.099ZM233.629 349.11C235.423 346.205 239.232 345.305 242.137 347.099L237.933 353.905C238.787 354.433 239.908 354.168 240.435 353.314L233.629 349.11ZM235.64 357.618C232.735 355.824 231.835 352.015 233.629 349.11L240.435 353.314C240.963 352.459 240.698 351.339 239.844 350.811L235.64 357.618ZM236.925 358.407C236.482 358.136 236.049 357.871 235.64 357.618L239.844 350.811C240.238 351.055 240.657 351.312 241.103 351.585L236.925 358.407ZM242.913 362.223C240.915 360.852 238.807 359.56 236.925 358.407L241.103 351.585C242.961 352.722 245.245 354.12 247.441 355.628L242.913 362.223ZM248.018 366.483C247.281 365.511 245.538 364.026 242.913 362.223L247.441 355.628C250.101 357.454 252.808 359.559 254.393 361.65L248.018 366.483ZM247.917 365.613C247.93 365.936 247.983 366.179 248.02 366.317C248.061 366.468 248.103 366.571 248.126 366.623C248.171 366.723 248.166 366.678 248.018 366.483L254.393 361.65C255.182 362.69 255.858 363.939 255.911 365.303L247.917 365.613ZM248.347 363.704C248.311 363.774 248.117 364.142 248.004 364.656C247.905 365.108 247.911 365.467 247.917 365.613L255.911 365.303C255.919 365.499 255.923 365.893 255.818 366.37C255.699 366.911 255.496 367.298 255.449 367.388L248.347 363.704ZM249.167 362.68C249.015 362.795 248.654 363.114 248.347 363.704L255.449 367.388C255.109 368.043 254.608 368.594 254.001 369.054L249.167 362.68ZM247.387 363.195C248.155 363.032 248.656 362.872 248.958 362.754C249.276 362.63 249.298 362.581 249.167 362.68L254.001 369.054C252.826 369.945 251.152 370.574 249.05 371.02L247.387 363.195ZM240.476 363.903C243.63 363.786 245.864 363.519 247.387 363.195L249.05 371.02C246.918 371.474 244.188 371.771 240.773 371.898L240.476 363.903ZM234.528 370.31C234.401 366.898 237.065 364.03 240.476 363.903L240.773 371.898C241.776 371.861 242.559 371.017 242.522 370.013L234.528 370.31ZM240.934 376.258C237.522 376.385 234.654 373.721 234.528 370.31L242.522 370.013C242.485 369.01 241.641 368.227 240.638 368.264L240.934 376.258ZM249.957 375.288C247.493 375.812 244.492 376.126 240.934 376.258L240.638 368.264C243.934 368.142 246.439 367.857 248.294 367.463L249.957 375.288ZM256.638 372.53C254.72 373.985 252.322 374.786 249.957 375.288L248.294 367.463C250.179 367.062 251.248 366.578 251.804 366.156L256.638 372.53ZM260.271 365.134C260.394 368.312 258.819 370.876 256.638 372.53L251.804 366.156C252.067 365.957 252.179 365.793 252.223 365.708C252.26 365.638 252.282 365.567 252.277 365.444L260.271 365.134ZM257.87 359.014C258.879 360.345 260.167 362.463 260.271 365.134L252.277 365.444C252.272 365.322 252.237 365.128 252.109 364.84C251.977 364.548 251.774 364.215 251.495 363.847L257.87 359.014ZM249.911 352.031C252.596 353.875 255.825 356.315 257.87 359.014L251.495 363.847C250.295 362.264 248.025 360.44 245.383 358.626L249.911 352.031ZM243.342 347.839C245.203 348.978 247.61 350.451 249.911 352.031L245.383 358.626C243.281 357.183 241.049 355.815 239.165 354.662L243.342 347.839Z" mask="url(#path-12-outside-5_2848_1936)"/><path fill="#C5C0B8" stroke="#313131" stroke-linecap="round" stroke-linejoin="round" stroke-width="5.454" d="M208.25 395.58C232.675 383.817 242.939 354.481 231.176 330.056C219.413 305.631 190.077 295.367 165.652 307.13C141.227 318.893 130.963 348.229 142.726 372.654C154.489 397.079 183.825 407.343 208.25 395.58Z"/><path fill="#E4E4E4" stroke="#313131" stroke-linecap="round" stroke-linejoin="round" stroke-width="4" d="M195.175 384.875C199.592 382.748 201.449 377.442 199.321 373.025C197.194 368.608 191.889 366.752 187.472 368.879C183.054 371.006 181.198 376.312 183.325 380.729C185.453 385.146 190.758 387.002 195.175 384.875Z"/><path fill="#313131" d="M171.587 351.74C173.481 350.827 174.277 348.552 173.365 346.658C172.453 344.764 170.178 343.968 168.283 344.88C166.389 345.792 165.593 348.068 166.506 349.962C167.418 351.856 169.693 352.652 171.587 351.74Z"/><path fill="#313131" d="M204.47 350.257C206.364 349.345 207.16 347.07 206.247 345.176C205.335 343.282 203.06 342.486 201.166 343.398C199.272 344.31 198.476 346.585 199.388 348.479C200.3 350.374 202.575 351.17 204.47 350.257Z"/><path stroke="#313131" stroke-linecap="round" stroke-linejoin="round" stroke-width="4" d="M184.06 351.567C184.06 351.567 180.741 357.356 181.178 358.583C181.615 359.809 187.253 360.72 187.253 360.72"/><path stroke="#313131" stroke-linecap="round" stroke-linejoin="round" stroke-width="4" d="M157.136 334.839C157.136 334.839 160.809 331.137 163.149 329.993C165.489 328.849 171.314 327.942 171.314 327.942"/><path stroke="#313131" stroke-linecap="round" stroke-linejoin="round" stroke-width="4" d="M199.558 325.852C199.558 325.852 204.777 325.784 207.24 326.6C209.702 327.415 214.504 330.85 214.504 330.85"/><path fill="#fff" d="M158.175 375.287C157.494 376.642 156.847 376.115 156.078 375.442C152.117 371.978 149.749 367.559 148.494 362.536C147.816 359.852 147.409 357.088 146.933 354.358C146.844 353.82 146.922 353.235 147.061 352.706C147.454 351.285 148.555 350.943 149.49 352.067C150.099 352.799 150.519 353.777 150.726 354.704C151.331 357.595 151.763 360.517 152.32 363.413C152.968 366.676 154.366 369.509 157.009 371.658C158.154 372.578 159.247 373.676 158.169 375.273L158.175 375.287Z"/><path fill="#fff" d="M149.94 342.203C150.336 342.457 151.434 342.784 151.789 343.485C152.631 345.235 151.927 347.678 150.62 347.914C149.397 348.144 147.981 348.295 147.391 346.715C146.775 345.045 147.673 343.073 149.94 342.203Z"/><path fill="#76D3EF" stroke="#313131" stroke-linecap="round" stroke-linejoin="round" stroke-width="5.454" d="M514.194 719.095C655.003 719.095 769.152 604.947 769.152 464.138C769.152 323.329 655.003 209.181 514.194 209.181C373.385 209.181 259.237 323.329 259.237 464.138C259.237 604.947 373.385 719.095 514.194 719.095Z"/><path fill="#307C93" d="M482.506 715.011C514.023 711.666 587.152 699.398 651.096 642.205C663.687 630.939 687.314 609.44 706.394 574.347C738.912 514.488 745.432 445.135 745.432 361.896C745.432 361.896 763.695 406.05 767.578 440.249C775.084 506.366 754.001 556.115 749.315 566.687C723.1 625.9 679.423 657.663 661.823 670.47C654.687 675.664 648.877 679.332 647.49 680.195C626.221 693.542 590.713 711.281 544.308 716.321C529.481 717.923 508.136 718.833 482.522 714.98L482.506 715.011Z"/><path fill="#EAF0C8" d="M358.475 288.058C356.333 287.581 356.841 286.471 357.504 285.161C360.956 278.364 366.335 273.479 372.931 269.919C376.46 268.008 380.19 266.466 383.858 264.817C384.567 264.494 385.43 264.401 386.231 264.417C388.374 264.447 389.237 265.896 387.988 267.607C387.172 268.717 385.954 269.672 384.721 270.273C380.884 272.153 376.923 273.787 373.07 275.606C368.724 277.655 365.241 280.645 363.16 285.13C362.266 287.057 361.141 288.983 358.506 288.058H358.475Z"/><path fill="#EAF0C8" d="M349.519 290.325C349.812 290.695 350.752 291.373 350.844 292.143C351.075 294.07 349.596 296.135 348.286 295.95C347.068 295.765 345.666 295.441 345.635 293.762C345.589 291.989 347.084 290.417 349.519 290.325Z"/><path fill="#E9FFC5" d="M320.452 333.584C318.079 333.846 318.202 332.536 318.433 330.933C319.574 322.688 323.396 315.753 328.929 309.742C331.888 306.521 335.186 303.608 338.391 300.618C339.008 300.033 339.871 299.632 340.688 299.37C342.907 298.646 344.31 299.832 343.631 302.036C343.185 303.469 342.26 304.887 341.196 305.951C337.914 309.249 334.4 312.347 331.071 315.599C327.31 319.267 324.783 323.566 324.228 328.93C323.981 331.242 323.504 333.63 320.452 333.6V333.584Z"/><path stroke="#313131" stroke-linecap="round" stroke-linejoin="round" stroke-width="5.454" d="M411.155 495.121C411.155 495.121 421.759 502.242 430.959 502.242C440.16 502.242 450.856 496.863 450.856 496.863"/><path fill="#C2FA67" stroke="#313131" stroke-linecap="round" stroke-linejoin="round" stroke-width="5.454" d="M334.591 507.953C334.714 507.984 334.56 509.479 334.344 511.097C334.56 510.096 334.776 508.524 334.437 506.736C333.019 499.369 324.342 499.122 320.073 491C317.776 486.639 317.884 482.169 317.992 477.484C318.177 470.009 320.35 469.378 320.073 464.076C319.718 457.48 315.696 457.125 312.059 446.614C308.853 437.352 310.086 435.888 306.957 429.153C302.889 420.368 299.852 420.846 297.494 413.864C294.998 406.497 296.123 399.346 297.494 394.214C298.851 389.144 301.101 380.775 308.945 376.105C310.363 375.258 317.329 371.112 325.143 373.84C326.453 374.302 332.017 376.429 334.606 381.854C337.195 387.264 333.912 390.253 336.055 398.591C336.317 399.593 338.444 407.9 341.88 408.054C344.038 408.147 345.795 405.003 347.706 401.504C351.574 394.415 350.742 391.502 353.532 385.491C354.04 384.382 356.891 378.402 362.84 373.316C366.324 370.341 369.961 368.723 377.081 365.625C389.981 360.016 391.198 361.449 393.602 358.505C398.935 351.971 394.388 343.016 400.045 339.518C400.353 339.333 400.291 339.395 406.456 337.823C412.251 336.343 415.148 335.603 416.134 335.28C422.114 333.322 421.729 331.442 428.618 328.067C434.721 325.077 435.677 326.217 442.905 322.811C449.193 319.852 452.368 318.357 452.938 315.475C453.909 310.713 446.973 306.105 448.669 303.377C449.193 302.545 450.241 302.345 451.119 302.19C465.19 299.601 463.803 299.663 464.897 299.601C477.92 299 478.753 299.54 480.91 298.153C484.655 295.748 485.996 291.68 486.736 289.414C487.013 288.566 489.294 281.277 485.719 274.079C483.715 270.057 482.544 271.428 478.136 265.541C473.744 259.685 473.05 255.878 468.411 252.826C466.932 251.856 465.221 251.07 463.156 250.992C462.478 250.962 460.366 250.915 458.409 252.133C456.652 253.243 456.082 254.722 454.571 258.066C452.229 263.214 451.042 265.788 450.071 266.882C448.576 268.562 446.465 269.672 442.257 271.891C439.452 273.37 437.927 274.172 435.584 274.973C433.195 275.79 432.348 275.805 431.007 276.776C429.065 278.179 429.265 279.335 427.508 281.385C425.875 283.296 422.253 286.316 419.171 285.33C416.997 284.636 416.011 282.263 415.842 281.816C414.624 278.687 416.72 276.946 417.182 272.276C417.676 267.283 415.61 266.913 415.687 261.056C415.703 259.407 415.765 255.477 417.938 252.087C418.693 250.9 420.665 248.295 429.157 245.352C437.11 242.593 439.237 243.533 448.222 240.867C453.878 239.187 456.775 238.309 459.811 236.012C462 234.363 467.826 230.171 468.411 223.297C468.504 222.157 468.843 218.597 467.286 216.562C460.89 208.209 423.517 226.411 413.561 231.25C399.181 238.247 382.629 246.307 362.578 261.704C353.362 268.778 331.616 286.455 310.795 314.905C301.317 327.851 292.254 340.427 285.812 359.507C281.389 372.592 279.94 383.58 278.831 391.933C277.259 403.862 276.057 413.541 278.461 425.963C279.879 433.299 282.036 439.016 282.946 441.297C287.353 452.378 290.343 453.041 294.905 463.737C298.866 473.03 297.032 473.523 301.64 484.681C304.229 490.954 306.526 496.425 311.365 502.636C317.252 510.203 320.812 514.765 326.7 516.091C328.426 516.491 330.969 516.738 331.554 518.341C332.356 520.483 328.657 522.271 328.565 526.201C328.503 529.021 330.383 529.653 331.185 532.936C332.217 537.112 330.352 540.919 329.32 543.031C325.76 550.32 320.92 549.319 318.1 555.375C315.264 561.494 317.591 568.121 318.1 569.585C320.304 575.858 323.679 575.611 327.825 582.67C331.678 589.251 329.597 590.9 333.435 599.869C334.914 603.337 335.099 602.782 343.16 615.574C351.713 629.136 351.852 630.323 355.119 633.143C359.08 636.565 361.13 636.796 365.584 641.373C369.329 645.211 371.517 648.771 372.689 650.728C376.387 656.847 375.971 659.421 379.793 667.558C381.674 672.197 384.294 677.468 387.993 682.908C389.457 685.05 390.961 686.389 392.426 688.162C404.491 694.194 414.009 698.613 420.778 701.433C428.017 704.449 429.827 705.053 436.463 706.862C438.759 707.109 445.17 708.584 455.512 707.32C455.512 707.32 463.711 706.319 469.906 703.853C469.906 703.853 474.283 702.034 476.703 699.029C476.826 698.875 476.919 698.736 477.011 698.613C478.46 696.532 478.09 695.638 479.261 694.498C481.804 692.032 486.289 693.573 490.481 694.128C499.034 695.237 506.108 692.14 511.795 689.643C518.13 686.853 523.385 684.557 526.375 679.178C527.901 676.435 528.255 673.954 531.23 670.209C533.357 667.527 535.453 665.924 537.21 664.599C544.391 659.189 546.981 660.623 551.049 656.369C553.854 653.441 555.087 650.189 556.289 647.014C560.728 639.724 560.574 636.349 559.372 634.623C557.538 631.987 552.621 632.311 546.195 629.075C540.215 626.054 539.937 625.175 535.73 623.465C530.49 621.338 528.81 621.769 518.9 619.35C512.443 617.778 509.206 616.992 506.941 615.99C498.202 612.122 498.88 608.454 490.481 605.14C487.445 603.938 483.176 602.012 477.766 602.15C473.898 602.243 471.478 603.291 470.954 602.335C470.476 601.457 472.357 600.347 473.281 597.665C474.607 593.782 472.788 589.913 472.526 589.436C470.353 585.382 467.564 586.153 465.051 581.961C463.063 578.632 464.373 577.383 462.431 574.856C461.615 573.793 460.166 572.421 452.707 570.371C446.496 568.66 444.831 568.876 439.252 567.381C434.012 565.979 431.408 565.285 429.527 564.021C425.227 561.109 425.459 558.103 419.802 547.947C416.705 542.383 414.686 538.808 410.833 534.862C409.631 533.629 406.533 530.609 401.863 527.758C400.538 526.941 395.868 524.182 389.148 522.148C383.693 520.483 382.044 520.868 379.054 518.788C376.511 517.015 377.389 516.522 373.444 512.808C369.791 509.356 367.171 506.89 363.349 506.073C362.178 505.827 360.976 505.749 359.234 504.948C357.046 503.946 356.861 503.099 355.119 502.328C352.33 501.08 349.525 501.773 348.769 501.958C346.997 502.39 345.733 503.206 342.79 505.703C336.764 510.805 334.637 513.671 333.82 513.178C332.864 512.623 334.375 508.046 334.606 508.092L334.591 507.953Z"/><path stroke="#313131" stroke-linecap="round" stroke-linejoin="round" stroke-width="6.545" d="M514.432 719.095C655.241 719.095 769.389 604.947 769.389 464.138C769.389 323.329 655.241 209.181 514.432 209.181C373.623 209.181 259.475 323.329 259.475 464.138C259.475 604.947 373.623 719.095 514.432 719.095Z"/><path fill="#313131" d="M470.723 457.762C466.872 460.249 461.733 459.143 459.246 455.291C456.759 451.44 457.865 446.301 461.717 443.814C465.568 441.327 470.707 442.433 473.194 446.285C475.681 450.136 474.575 455.275 470.723 457.762Z"/><path fill="#313131" d="M404.934 450.936C401.042 453.151 396.091 451.791 393.876 447.899C391.661 444.007 393.021 439.056 396.913 436.842C400.805 434.627 405.756 435.986 407.971 439.878C410.186 443.77 408.826 448.721 404.934 450.936Z"/><path stroke="#313131" stroke-linecap="round" stroke-linejoin="round" stroke-width="5.454" d="M427.48 454.114C427.48 454.114 422.839 460.589 424.366 462.196C425.899 463.796 429.833 464.692 429.833 464.692"/><path stroke="#313131" stroke-linecap="round" stroke-linejoin="round" stroke-width="5.454" d="M382.731 430.734C384.799 427.711 389.008 422.497 395.8 419.26C402.203 416.209 407.988 416.305 411.244 416.662"/><path stroke="#313131" stroke-linecap="round" stroke-linejoin="round" stroke-width="5.454" d="M486.78 442.638C485.34 439.551 482.264 434.129 476.512 430.114C471.089 426.33 465.756 425.52 462.708 425.341"/><rect width="414" height="541" x="101.352" y="106.5" stroke="#222" stroke-width="8" rx="11"/><circle cx="173.852" cy="192" r="5.5" fill="#777" stroke="#313131" stroke-width="5"/><circle cx="407.852" cy="129" r="5.5" fill="#777" stroke="#313131" stroke-width="5"/><circle cx="132.852" cy="135" r="5.5" fill="#F4F4F4" stroke="#313131" stroke-width="5"/><circle cx="321.852" cy="222" r="5.5" fill="#F4F4F4" stroke="#313131" stroke-width="5"/><circle cx="260.852" cy="325" r="5.5" fill="#777" stroke="#313131" stroke-width="5"/><circle cx="221.852" cy="245" r="5.5" fill="#F4F4F4" stroke="#313131" stroke-width="5"/><circle cx="118.852" cy="295" r="5.5" fill="#F4F4F4" stroke="#313131" stroke-width="5"/><circle cx="232.852" cy="471" r="5.5" fill="#F4F4F4" stroke="#313131" stroke-width="5"/><circle cx="295.852" cy="141" r="5.5" fill="#F4F4F4" stroke="#313131" stroke-width="5"/><circle cx="454.852" cy="167" r="5.5" fill="#F4F4F4" stroke="#313131" stroke-width="5"/><circle cx="161.852" cy="512" r="5.5" fill="#777" stroke="#313131" stroke-width="5"/><circle cx="219.852" cy="550" r="5.5" fill="#F4F4F4" stroke="#313131" stroke-width="5"/><circle cx="135.852" cy="606" r="5.5" fill="#F4F4F4" stroke="#313131" stroke-width="5"/><circle cx="274.852" cy="618" r="5.5" fill="#F4F4F4" stroke="#313131" stroke-width="5"/><circle cx="239.352" cy="362.5" r="4" fill="#313131"/></g></svg>