<svg xmlns="http://www.w3.org/2000/svg" width="616" height="755" fill="none" viewBox="0 0 616 755"><mask id="path-1-outside-1_2848_1885" width="616" height="755" x="0" y=".5" fill="#000" maskUnits="userSpaceOnUse"><rect width="616" height="755" y=".5" fill="#fff"/><path d="M8 735.075C8 740.761 12.7957 745.388 18.3113 746.77C18.6008 746.842 18.8936 746.919 19.1892 747H57.5C63.0228 747 67.5765 742.466 69.0679 737.148C72.0572 726.49 80.7458 711 106 711C130.893 711 139.064 726.05 141.73 736.689C143.112 742.204 147.739 747 153.425 747H189.5C195.023 747 199.578 742.465 201.082 737.151C204.1 726.493 212.873 711 238.375 711C264.436 711 274.038 727.179 277.536 737.845C279.181 742.862 283.614 747 288.895 747H324.43C329.98 747 334.545 742.425 336.005 737.07C338.912 726.414 347.428 711 372.375 711C397.381 711 405.986 726.487 408.947 737.146C410.425 742.467 414.977 747 420.5 747H460C465.523 747 470.079 742.464 471.592 737.153C474.629 726.494 483.457 711 509.125 711C530.994 711 538.533 726.456 541.132 737.114C542.441 742.479 546.977 747 552.5 747H596.811C597.106 746.919 597.399 746.842 597.689 746.77C603.204 745.388 608 740.761 608 735.075V699C608 693.477 603.465 688.922 598.151 687.418C587.493 684.4 572 675.627 572 650.125C572 624.064 588.179 614.462 598.845 610.964C603.862 609.319 608 604.886 608 599.605V559C608 553.477 603.466 548.924 598.148 547.432C587.898 544.557 573.178 536.411 572.067 513.326C573.178 490.469 587.895 482.401 598.146 479.553C603.467 478.075 608 473.523 608 468V427C608 421.477 603.465 416.922 598.151 415.418C587.587 412.427 572.274 403.782 572.004 378.798C572.273 357.373 587.551 349.944 598.114 347.368C603.479 346.059 608 341.523 608 336V290.5C608 285.008 603.572 280.55 598.092 280.5L598.07 280.495C587.414 277.588 572 269.072 572 244.125C572 219.119 587.487 210.514 598.146 207.553C603.467 206.075 608 201.523 608 196V156.5C608 150.977 603.464 146.421 598.153 144.908C587.494 141.871 572 133.043 572 107.375C572 85.5063 587.456 77.9669 598.114 75.3676C603.479 74.059 608 69.5228 608 64V18.5C608 12.9772 603.523 8.5 598 8.5H546.396C543.819 10.3211 541.908 13.2052 541.132 16.3862C538.533 27.0436 530.994 42.5 509.125 42.5C483.457 42.5 474.629 27.0057 471.592 16.3471C470.695 13.1971 468.727 10.32 466.122 8.5H414.381C411.781 10.3202 409.823 13.1986 408.947 16.3543C405.986 27.0127 397.381 42.5 372.375 42.5C347.428 42.5 338.912 27.0856 336.005 16.4297C335.137 13.2443 333.169 10.3346 330.549 8.5H282.759C280.344 10.1841 278.48 12.7747 277.536 15.6553C274.038 26.3209 264.436 42.5 238.375 42.5C212.873 42.5 204.1 27.0075 201.082 16.3489C200.19 13.1975 198.225 10.3201 195.621 8.5H147.309C144.586 10.4078 142.565 13.4781 141.73 16.8113C139.064 27.4495 130.893 42.5 106 42.5C80.7458 42.5 72.0572 27.0101 69.0679 16.3516C68.1834 13.198 66.222 10.3201 63.6202 8.5H18C12.4772 8.5 8 12.9772 8 18.5V64C8 69.5228 12.5207 74.059 17.8862 75.3676C28.5436 77.9669 44 85.5063 44 107.375C44 133.043 28.5057 141.871 17.8471 144.908C12.5356 146.421 8 150.977 8 156.5V196C8 201.523 12.5329 206.075 17.8542 207.553C28.5126 210.514 44 219.119 44 244.125C44 269.072 28.5856 277.588 17.9297 280.495L17.9084 280.5C12.4277 280.55 8 285.008 8 290.5V336C8 341.523 12.5207 346.059 17.8862 347.368C28.4493 349.944 43.7267 357.373 43.9964 378.798C43.7264 403.782 28.4132 412.427 17.8489 415.418C12.5349 416.922 8 421.477 8 427V468C8 473.523 12.5329 478.075 17.8542 479.553C28.1049 482.401 42.822 490.469 43.9331 513.326C42.8219 536.411 28.1023 544.557 17.8516 547.432C12.5339 548.924 8 553.477 8 559V599.605C8 604.886 12.1376 609.319 17.1553 610.964C27.8209 614.462 44 624.064 44 650.125C44 675.627 28.5074 684.4 17.8489 687.418C12.5349 688.922 8 693.477 8 699V735.075Z"/></mask><path fill="#F4F4F4" d="M8 735.075C8 740.761 12.7957 745.388 18.3113 746.77C18.6008 746.842 18.8936 746.919 19.1892 747H57.5C63.0228 747 67.5765 742.466 69.0679 737.148C72.0572 726.49 80.7458 711 106 711C130.893 711 139.064 726.05 141.73 736.689C143.112 742.204 147.739 747 153.425 747H189.5C195.023 747 199.578 742.465 201.082 737.151C204.1 726.493 212.873 711 238.375 711C264.436 711 274.038 727.179 277.536 737.845C279.181 742.862 283.614 747 288.895 747H324.43C329.98 747 334.545 742.425 336.005 737.07C338.912 726.414 347.428 711 372.375 711C397.381 711 405.986 726.487 408.947 737.146C410.425 742.467 414.977 747 420.5 747H460C465.523 747 470.079 742.464 471.592 737.153C474.629 726.494 483.457 711 509.125 711C530.994 711 538.533 726.456 541.132 737.114C542.441 742.479 546.977 747 552.5 747H596.811C597.106 746.919 597.399 746.842 597.689 746.77C603.204 745.388 608 740.761 608 735.075V699C608 693.477 603.465 688.922 598.151 687.418C587.493 684.4 572 675.627 572 650.125C572 624.064 588.179 614.462 598.845 610.964C603.862 609.319 608 604.886 608 599.605V559C608 553.477 603.466 548.924 598.148 547.432C587.898 544.557 573.178 536.411 572.067 513.326C573.178 490.469 587.895 482.401 598.146 479.553C603.467 478.075 608 473.523 608 468V427C608 421.477 603.465 416.922 598.151 415.418C587.587 412.427 572.274 403.782 572.004 378.798C572.273 357.373 587.551 349.944 598.114 347.368C603.479 346.059 608 341.523 608 336V290.5C608 285.008 603.572 280.55 598.092 280.5L598.07 280.495C587.414 277.588 572 269.072 572 244.125C572 219.119 587.487 210.514 598.146 207.553C603.467 206.075 608 201.523 608 196V156.5C608 150.977 603.464 146.421 598.153 144.908C587.494 141.871 572 133.043 572 107.375C572 85.5063 587.456 77.9669 598.114 75.3676C603.479 74.059 608 69.5228 608 64V18.5C608 12.9772 603.523 8.5 598 8.5H546.396C543.819 10.3211 541.908 13.2052 541.132 16.3862C538.533 27.0436 530.994 42.5 509.125 42.5C483.457 42.5 474.629 27.0057 471.592 16.3471C470.695 13.1971 468.727 10.32 466.122 8.5H414.381C411.781 10.3202 409.823 13.1986 408.947 16.3543C405.986 27.0127 397.381 42.5 372.375 42.5C347.428 42.5 338.912 27.0856 336.005 16.4297C335.137 13.2443 333.169 10.3346 330.549 8.5H282.759C280.344 10.1841 278.48 12.7747 277.536 15.6553C274.038 26.3209 264.436 42.5 238.375 42.5C212.873 42.5 204.1 27.0075 201.082 16.3489C200.19 13.1975 198.225 10.3201 195.621 8.5H147.309C144.586 10.4078 142.565 13.4781 141.73 16.8113C139.064 27.4495 130.893 42.5 106 42.5C80.7458 42.5 72.0572 27.0101 69.0679 16.3516C68.1834 13.198 66.222 10.3201 63.6202 8.5H18C12.4772 8.5 8 12.9772 8 18.5V64C8 69.5228 12.5207 74.059 17.8862 75.3676C28.5436 77.9669 44 85.5063 44 107.375C44 133.043 28.5057 141.871 17.8471 144.908C12.5356 146.421 8 150.977 8 156.5V196C8 201.523 12.5329 206.075 17.8542 207.553C28.5126 210.514 44 219.119 44 244.125C44 269.072 28.5856 277.588 17.9297 280.495L17.9084 280.5C12.4277 280.55 8 285.008 8 290.5V336C8 341.523 12.5207 346.059 17.8862 347.368C28.4493 349.944 43.7267 357.373 43.9964 378.798C43.7264 403.782 28.4132 412.427 17.8489 415.418C12.5349 416.922 8 421.477 8 427V468C8 473.523 12.5329 478.075 17.8542 479.553C28.1049 482.401 42.822 490.469 43.9331 513.326C42.8219 536.411 28.1023 544.557 17.8516 547.432C12.5339 548.924 8 553.477 8 559V599.605C8 604.886 12.1376 609.319 17.1553 610.964C27.8209 614.462 44 624.064 44 650.125C44 675.627 28.5074 684.4 17.8489 687.418C12.5349 688.922 8 693.477 8 699V735.075Z"/><path fill="#222" d="M18.3113 746.77L20.2566 739.01L20.2561 739.01L18.3113 746.77ZM19.1892 747L17.0769 754.716L18.114 755H19.1892V747ZM69.0679 737.148L76.7707 739.309L69.0679 737.148ZM141.73 736.689L149.49 734.744V734.744L141.73 736.689ZM201.082 737.151L193.385 734.972L201.082 737.151ZM277.536 737.845L269.934 740.338L277.536 737.845ZM336.005 737.07L343.723 739.175L336.005 737.07ZM408.947 737.146L416.655 735.004L408.947 737.146ZM471.592 737.153L463.898 734.961V734.961L471.592 737.153ZM541.132 737.114L533.36 739.009V739.009L541.132 737.114ZM596.811 747V755H597.886L598.923 754.716L596.811 747ZM597.689 746.77L595.744 739.01L595.743 739.01L597.689 746.77ZM598.151 687.418L600.33 679.72L598.151 687.418ZM598.845 610.964L596.352 603.363H596.352L598.845 610.964ZM598.148 547.432L600.309 539.729L600.309 539.729L598.148 547.432ZM572.067 513.326L564.076 512.938L564.058 513.324L564.076 513.711L572.067 513.326ZM598.146 479.553L596.004 471.845L598.146 479.553ZM598.151 415.418L595.972 423.115L598.151 415.418ZM572.004 378.798L564.004 378.697L564.003 378.791L564.004 378.884L572.004 378.798ZM598.114 347.368L600.009 355.14L598.114 347.368ZM598.092 280.5L595.975 288.215L596.979 288.491L598.02 288.5L598.092 280.5ZM598.07 280.495L600.186 272.78L600.175 272.777L598.07 280.495ZM598.146 207.553L600.287 215.261L598.146 207.553ZM598.153 144.908L595.961 152.602L598.153 144.908ZM598.114 75.3676L600.009 83.1398L598.114 75.3676ZM546.396 8.5V0.5H543.855L541.78 1.96615L546.396 8.5ZM541.132 16.3862L533.36 14.4906V14.4907L541.132 16.3862ZM471.592 16.3471L463.898 18.539L463.898 18.5391L471.592 16.3471ZM466.122 8.5L470.704 1.9422L468.64 0.5H466.122V8.5ZM414.381 8.5V0.5H411.859L409.793 1.94637L414.381 8.5ZM408.947 16.3543L416.655 18.4955V18.4955L408.947 16.3543ZM336.005 16.4297L343.723 14.3245V14.3245L336.005 16.4297ZM330.549 8.5L335.138 1.94686L333.072 0.5H330.549V8.5ZM282.759 8.5V0.5H280.245L278.182 1.9381L282.759 8.5ZM277.536 15.6553L269.934 13.1621L269.934 13.1622L277.536 15.6553ZM201.082 16.3489L193.385 18.5282L193.385 18.5282L201.082 16.3489ZM195.621 8.5L200.205 1.94325L198.14 0.5H195.621V8.5ZM147.309 8.5V0.5H144.785L142.718 1.94821L147.309 8.5ZM141.73 16.8113L149.49 18.7561V18.7561L141.73 16.8113ZM69.0679 16.3516L61.3651 18.5119L61.3651 18.5119L69.0679 16.3516ZM63.6202 8.5L68.206 1.94481L66.1407 0.5H63.6202V8.5ZM17.8862 75.3676L15.9906 83.1398H15.9907L17.8862 75.3676ZM17.8471 144.908L20.0391 152.602H20.0391L17.8471 144.908ZM17.8542 207.553L15.713 215.261H15.713L17.8542 207.553ZM17.9297 280.495L15.8246 272.777L15.8136 272.78L17.9297 280.495ZM17.9084 280.5L17.9801 288.5L19.0208 288.491L20.0245 288.215L17.9084 280.5ZM17.8862 347.368L15.9906 355.14H15.9907L17.8862 347.368ZM43.9964 378.798L51.9959 378.884L51.9969 378.791L51.9958 378.697L43.9964 378.798ZM17.8489 415.418L20.0282 423.115H20.0282L17.8489 415.418ZM17.8542 479.553L19.9955 471.845H19.9955L17.8542 479.553ZM43.9331 513.326L51.9239 513.711L51.9425 513.324L51.9237 512.938L43.9331 513.326ZM17.8516 547.432L15.6913 539.729L15.6912 539.729L17.8516 547.432ZM17.1553 610.964L19.6484 603.363H19.6483L17.1553 610.964ZM17.8489 687.418L15.6695 679.72H15.6695L17.8489 687.418ZM0 735.075C0 745.506 8.45423 752.547 16.3666 754.53L20.2561 739.01C18.947 738.682 17.7516 737.959 16.9585 737.102C16.1953 736.278 16 735.571 16 735.075H0ZM16.3661 754.53C16.6016 754.589 16.8386 754.651 17.0769 754.716L21.3016 739.284C20.9485 739.187 20.6 739.096 20.2566 739.01L16.3661 754.53ZM19.1892 755H57.5V739H19.1892V755ZM57.5 755C67.6208 755 74.6144 746.997 76.7707 739.309L61.3651 734.988C61.0152 736.235 60.3003 737.358 59.4694 738.099C58.6692 738.813 57.9848 739 57.5 739V755ZM76.7707 739.309C78.0159 734.869 80.3386 729.855 84.5777 725.986C88.6553 722.264 95.1542 719 106 719V703C91.5916 703 81.119 707.481 73.7915 714.168C66.6254 720.709 63.1091 728.77 61.3651 734.988L76.7707 739.309ZM106 719C116.701 719 122.939 722.174 126.759 725.719C130.739 729.413 132.868 734.237 133.97 738.633L149.49 734.744C147.926 728.502 144.637 720.482 137.642 713.991C130.487 707.351 120.193 703 106 703V719ZM133.97 738.633C135.953 746.546 142.994 755 153.425 755V739C152.929 739 152.222 738.805 151.398 738.042C150.541 737.248 149.818 736.053 149.49 734.744L133.97 738.633ZM189.5 755C199.621 755 206.609 746.997 208.78 739.33L193.385 734.972C193.03 736.225 192.31 737.352 191.475 738.096C190.67 738.813 189.984 739 189.5 739V755ZM208.78 739.33C210.034 734.901 212.376 729.888 216.662 726.013C220.792 722.279 227.384 719 238.375 719V703C223.864 703 213.318 707.467 205.932 714.144C198.702 720.68 195.149 728.743 193.385 734.972L208.78 739.33ZM238.375 719C249.596 719 256.591 722.422 261.124 726.422C265.812 730.558 268.463 735.852 269.934 740.338L285.137 735.352C283.111 729.172 279.212 721.043 271.709 714.424C264.051 707.667 253.215 703 238.375 703V719ZM269.934 740.338C272.344 747.685 279.247 755 288.895 755V739C288.417 739 287.764 738.823 287.004 738.184C286.216 737.52 285.516 736.508 285.137 735.352L269.934 740.338ZM324.43 755C334.602 755 341.61 746.923 343.723 739.175L328.287 734.965C327.946 736.217 327.235 737.346 326.404 738.093C325.604 738.812 324.918 739 324.43 739V755ZM343.723 739.175C344.936 734.731 347.206 729.748 351.355 725.914C355.336 722.234 361.699 719 372.375 719V703C358.104 703 347.735 707.473 340.495 714.164C333.422 720.701 329.982 728.753 328.287 734.965L343.723 739.175ZM372.375 719C383.075 719 389.481 722.249 393.506 725.959C397.698 729.822 400.002 734.836 401.239 739.287L416.655 735.004C414.93 728.797 411.451 720.738 404.349 714.193C397.08 707.494 386.681 703 372.375 703V719ZM401.239 739.287C403.38 746.997 410.379 755 420.5 755V739C420.015 739 419.332 738.813 418.536 738.102C417.71 737.364 417 736.246 416.655 735.004L401.239 739.287ZM460 755C470.12 755 477.106 746.998 479.286 739.345L463.898 734.961C463.54 736.218 462.817 737.348 461.979 738.094C461.171 738.813 460.484 739 460 739V755ZM479.286 739.345C480.546 734.922 482.9 729.91 487.218 726.031C491.384 722.289 498.037 719 509.125 719V703C494.545 703 483.95 707.458 476.526 714.128C469.253 720.661 465.675 728.725 463.898 734.961L479.286 739.345ZM509.125 719C517.931 719 523.168 722.01 526.559 725.574C530.178 729.379 532.241 734.42 533.36 739.009L548.905 735.218C547.425 729.15 544.418 721.134 538.151 714.546C531.655 707.718 522.188 703 509.125 703V719ZM533.36 739.009C535.307 746.991 542.379 755 552.5 755V739C552.007 739 551.348 738.811 550.607 738.14C549.835 737.441 549.19 736.387 548.905 735.218L533.36 739.009ZM552.5 755H596.811V739H552.5V755ZM598.923 754.716C599.161 754.651 599.399 754.589 599.634 754.53L595.743 739.01C595.4 739.096 595.051 739.187 594.699 739.284L598.923 754.716ZM599.633 754.53C607.546 752.547 616 745.506 616 735.075H600C600 735.571 599.805 736.278 599.042 737.102C598.248 737.959 597.053 738.682 595.744 739.01L599.633 754.53ZM616 699C616 688.879 607.997 681.891 600.33 679.72L595.972 695.115C597.225 695.47 598.352 696.19 599.096 697.025C599.813 697.83 600 698.516 600 699H616ZM600.33 679.72C595.901 678.466 590.888 676.124 587.013 671.838C583.279 667.708 580 661.116 580 650.125H564C564 664.636 568.467 675.182 575.144 682.568C581.68 689.798 589.743 693.351 595.972 695.115L600.33 679.72ZM580 650.125C580 638.904 583.422 631.909 587.422 627.376C591.558 622.688 596.852 620.037 601.338 618.566L596.352 603.363C590.172 605.389 582.043 609.288 575.424 616.791C568.667 624.449 564 635.285 564 650.125H580ZM601.338 618.566C608.686 616.156 616 609.253 616 599.605H600C600 600.083 599.823 600.736 599.184 601.496C598.52 602.284 597.508 602.984 596.352 603.363L601.338 618.566ZM616 559C616 548.879 607.997 541.886 600.309 539.729L595.988 555.135C597.235 555.485 598.358 556.2 599.099 557.031C599.813 557.831 600 558.515 600 559H616ZM600.309 539.729C596.042 538.533 591.237 536.338 587.435 532.401C583.775 528.61 580.526 522.682 580.058 512.942L564.076 513.711C564.719 527.055 569.386 536.742 575.926 543.515C582.324 550.141 590.004 553.457 595.988 555.135L600.309 539.729ZM580.057 513.715C580.524 504.109 583.757 498.265 587.407 494.521C591.204 490.626 596.011 488.449 600.287 487.261L596.004 471.845C590.03 473.505 582.353 476.786 575.951 483.351C569.402 490.068 564.721 499.686 564.076 512.938L580.057 513.715ZM600.287 487.261C607.997 485.12 616 478.121 616 468H600C600 468.485 599.813 469.168 599.102 469.964C598.364 470.79 597.246 471.5 596.004 471.845L600.287 487.261ZM616 427C616 416.879 607.997 409.891 600.33 407.72L595.972 423.115C597.225 423.47 598.352 424.19 599.096 425.025C599.813 425.83 600 426.516 600 427H616ZM600.33 407.72C595.941 406.477 590.976 404.166 587.116 399.952C583.397 395.891 580.119 389.437 580.003 378.711L564.004 378.884C564.158 393.143 568.672 403.504 575.318 410.759C581.823 417.861 589.797 421.367 595.972 423.115L600.33 407.72ZM580.003 378.898C580.111 370.319 583.116 365.188 586.675 361.847C590.468 358.285 595.463 356.249 600.009 355.14L596.218 339.595C590.202 341.063 582.276 344.029 575.723 350.182C568.935 356.556 564.166 365.851 564.004 378.697L580.003 378.898ZM600.009 355.14C607.991 353.193 616 346.121 616 336H600C600 336.493 599.811 337.152 599.14 337.893C598.441 338.665 597.387 339.31 596.218 339.595L600.009 355.14ZM616 290.5C616 280.613 608.03 272.589 598.163 272.501L598.02 288.5C599.114 288.51 600 289.402 600 290.5H616ZM600.208 272.785L600.186 272.78L595.954 288.21L595.975 288.215L600.208 272.785ZM600.175 272.777C595.731 271.564 590.748 269.294 586.914 265.145C583.234 261.164 580 254.801 580 244.125H564C564 258.396 568.473 268.765 575.164 276.005C581.701 283.078 589.753 286.518 595.965 288.213L600.175 272.777ZM580 244.125C580 233.425 583.249 227.019 586.959 222.994C590.822 218.802 595.836 216.498 600.287 215.261L596.004 199.845C589.797 201.57 581.738 205.049 575.193 212.151C568.494 219.42 564 229.819 564 244.125H580ZM600.287 215.261C607.997 213.12 616 206.121 616 196H600C600 196.485 599.813 197.168 599.102 197.964C598.364 198.79 597.246 199.5 596.004 199.845L600.287 215.261ZM616 156.5C616 146.38 607.998 139.394 600.345 137.214L595.961 152.602C597.218 152.96 598.348 153.683 599.094 154.521C599.813 155.329 600 156.016 600 156.5H616ZM600.345 137.214C595.922 135.954 590.91 133.6 587.031 129.282C583.289 125.116 580 118.463 580 107.375H564C564 121.955 568.458 132.55 575.128 139.974C581.661 147.247 589.725 150.825 595.961 152.602L600.345 137.214ZM580 107.375C580 98.5695 583.01 93.3324 586.574 89.9414C590.379 86.3219 595.42 84.2592 600.009 83.1398L596.218 67.5954C590.15 69.0753 582.134 72.0819 575.546 78.3491C568.718 84.8448 564 94.3118 564 107.375H580ZM600.009 83.1398C607.991 81.193 616 74.1207 616 64H600C600 64.4932 599.811 65.1524 599.14 65.8932C598.441 66.6648 597.387 67.3103 596.218 67.5954L600.009 83.1398ZM616 64V18.5H600V64H616ZM616 18.5C616 8.55886 607.941 0.5 598 0.5V16.5C599.105 16.5 600 17.3954 600 18.5H616ZM598 0.5H546.396V16.5H598V0.5ZM541.78 1.96615C537.534 4.9657 534.567 9.54382 533.36 14.4906L548.905 18.2819C549.25 16.8666 550.103 15.6766 551.012 15.0338L541.78 1.96615ZM533.36 14.4907C532.241 19.0803 530.178 24.1209 526.559 27.9256C523.168 31.4901 517.931 34.5 509.125 34.5V50.5C522.188 50.5 531.655 45.7818 538.151 38.9537C544.418 32.3658 547.425 24.3496 548.905 18.2818L533.36 14.4907ZM509.125 34.5C498.037 34.5 491.384 31.2113 487.218 27.4692C482.9 23.5903 480.546 18.5775 479.286 14.1551L463.898 18.5391C465.675 24.7753 469.253 32.8389 476.526 39.3719C483.95 46.0416 494.545 50.5 509.125 50.5V34.5ZM479.286 14.1552C477.925 9.37803 474.935 4.89824 470.704 1.9422L461.54 15.0578C462.519 15.7418 463.464 17.0162 463.898 18.539L479.286 14.1552ZM466.122 0.5H414.381V16.5H466.122V0.5ZM409.793 1.94637C405.56 4.9099 402.574 9.40647 401.239 14.213L416.655 18.4955C417.073 16.9907 418.002 15.7305 418.969 15.0536L409.793 1.94637ZM401.239 14.213C400.002 18.6638 397.698 23.6779 393.506 27.5412C389.481 31.2507 383.075 34.5 372.375 34.5V50.5C386.681 50.5 397.08 46.0056 404.349 39.3069C411.451 32.7619 414.93 24.7031 416.655 18.4955L401.239 14.213ZM372.375 34.5C361.699 34.5 355.336 31.2657 351.355 27.5858C347.206 23.7516 344.936 18.7686 343.723 14.3245L328.287 18.5349C329.982 24.7467 333.422 32.7989 340.495 39.3359C347.735 46.0271 358.104 50.5 372.375 50.5V34.5ZM343.723 14.3245C342.401 9.47663 339.403 4.93366 335.138 1.94686L325.96 15.0531C326.935 15.7356 327.872 17.012 328.287 18.5349L343.723 14.3245ZM330.549 0.5H282.759V16.5H330.549V0.5ZM278.182 1.9381C274.247 4.68224 271.381 8.74916 269.934 13.1621L285.137 18.1484C285.579 16.8002 286.44 15.686 287.335 15.0619L278.182 1.9381ZM269.934 13.1622C268.463 17.6482 265.812 22.9419 261.124 27.0785C256.591 31.0775 249.596 34.5 238.375 34.5V50.5C253.215 50.5 264.051 45.8329 271.709 39.076C279.212 32.4566 283.111 24.328 285.137 18.1483L269.934 13.1622ZM238.375 34.5C227.384 34.5 220.792 31.2208 216.662 27.4869C212.376 23.612 210.034 18.599 208.78 14.1696L193.385 18.5282C195.149 24.7574 198.702 32.8199 205.932 39.3559C213.318 46.0329 223.864 50.5 238.375 50.5V34.5ZM208.78 14.1696C207.425 9.38511 204.436 4.90116 200.205 1.94325L191.038 15.0567C192.014 15.739 192.955 17.0098 193.385 18.5282L208.78 14.1696ZM195.621 0.5H147.309V16.5H195.621V0.5ZM142.718 1.94821C138.291 5.04972 135.234 9.82302 133.97 14.8666L149.49 18.7561C149.897 17.1332 150.88 15.766 151.899 15.0518L142.718 1.94821ZM133.97 14.8666C132.868 19.2633 130.739 24.0873 126.759 27.7809C122.939 31.3256 116.701 34.5 106 34.5V50.5C120.193 50.5 130.487 46.1491 137.642 39.5091C144.637 33.0179 147.926 24.9975 149.49 18.7561L133.97 14.8666ZM106 34.5C95.1542 34.5 88.6553 31.2356 84.5777 27.5139C80.3386 23.6449 78.0159 18.6314 76.7707 14.1913L61.3651 18.5119C63.1091 24.7303 66.6254 32.791 73.7915 39.3316C81.119 46.0195 91.5916 50.5 106 50.5V34.5ZM76.7707 14.1913C75.4257 9.39579 72.4383 4.90553 68.206 1.94481L59.0344 15.0552C60.0058 15.7347 60.9411 17.0003 61.3651 18.5119L76.7707 14.1913ZM63.6202 0.5H18V16.5H63.6202V0.5ZM18 0.5C8.05891 0.5 0 8.55886 0 18.5H16C16 17.3954 16.8954 16.5 18 16.5V0.5ZM0 18.5V64H16V18.5H0ZM0 64C0 74.1207 8.00861 81.193 15.9906 83.1398L19.7818 67.5954C18.6128 67.3103 17.5591 66.6648 16.86 65.8932C16.189 65.1524 16 64.4932 16 64H0ZM15.9907 83.1398C20.5803 84.2592 25.6209 86.3219 29.4256 89.9414C32.9901 93.3324 36 98.5695 36 107.375H52C52 94.3118 47.2818 84.8448 40.4537 78.3491C33.8658 72.0819 25.8496 69.0753 19.7818 67.5954L15.9907 83.1398ZM36 107.375C36 118.463 32.7113 125.116 28.9692 129.282C25.0903 133.6 20.0775 135.954 15.6552 137.214L20.0391 152.602C26.2753 150.825 34.339 147.247 40.8719 139.974C47.5416 132.55 52 121.955 52 107.375H36ZM15.6552 137.214C8.00233 139.394 0 146.38 0 156.5H16C16 156.016 16.1865 155.329 16.9057 154.521C17.6521 153.683 18.7824 152.96 20.0391 152.602L15.6552 137.214ZM0 196C0 206.121 8.0035 213.12 15.713 215.261L19.9955 199.845C18.7537 199.5 17.6362 198.79 16.8978 197.964C16.1869 197.168 16 196.485 16 196H0ZM15.713 215.261C20.1638 216.498 25.1779 218.802 29.0412 222.994C32.7507 227.019 36 233.425 36 244.125H52C52 229.819 47.5056 219.42 40.8069 212.151C34.2618 205.049 26.2031 201.57 19.9955 199.845L15.713 215.261ZM36 244.125C36 254.801 32.7657 261.164 29.0858 265.145C25.2516 269.294 20.2687 271.564 15.8246 272.777L20.0349 288.213C26.2467 286.518 34.2989 283.078 40.8359 276.005C47.5271 268.765 52 258.396 52 244.125H36ZM15.8136 272.78L15.7923 272.785L20.0245 288.215L20.0459 288.21L15.8136 272.78ZM17.8366 272.501C7.96982 272.589 0 280.613 0 290.5H16C16 289.402 16.8857 288.51 17.9801 288.5L17.8366 272.501ZM0 336C0 346.121 8.00861 353.193 15.9906 355.14L19.7818 339.595C18.6128 339.31 17.5591 338.665 16.86 337.893C16.189 337.152 16 336.493 16 336H0ZM15.9907 355.14C20.5375 356.249 25.5318 358.285 29.3254 361.847C32.8844 365.188 35.8891 370.319 35.997 378.898L51.9958 378.697C51.8341 365.851 47.0652 356.556 40.2773 350.182C33.724 344.029 25.798 341.063 19.7818 339.595L15.9907 355.14ZM35.9969 378.711C35.8809 389.437 32.6035 395.891 28.8837 399.952C25.0236 404.166 20.059 406.477 15.6695 407.72L20.0282 423.115C26.2031 421.367 34.1772 417.861 40.6823 410.759C47.3277 403.504 51.8418 393.143 51.9959 378.884L35.9969 378.711ZM15.6696 407.72C8.00262 409.891 0 416.879 0 427H16C16 426.516 16.1866 425.83 16.9037 425.025C17.6481 424.19 18.7753 423.47 20.0282 423.115L15.6696 407.72ZM0 468C0 478.121 8.0035 485.12 15.713 487.261L19.9955 471.845C18.7536 471.5 17.6362 470.79 16.8978 469.964C16.1869 469.168 16 468.485 16 468H0ZM15.713 487.261C19.9892 488.449 24.7955 490.626 28.5931 494.521C32.2434 498.265 35.4756 504.109 35.9425 513.715L51.9237 512.938C51.2795 499.686 46.5976 490.068 40.0489 483.351C33.6474 476.786 25.9699 473.505 19.9955 471.845L15.713 487.261ZM35.9424 512.942C35.4735 522.682 32.2252 528.61 28.5648 532.401C24.7626 536.338 19.9575 538.533 15.6913 539.729L20.0119 555.135C25.9964 553.457 33.6764 550.141 40.0745 543.515C46.6144 536.742 51.2815 527.055 51.9239 513.711L35.9424 512.942ZM15.6912 539.729C8.0031 541.886 0 548.879 0 559H16C16 558.515 16.1867 557.831 16.9008 557.031C17.6422 556.2 18.7645 555.485 20.0119 555.135L15.6912 539.729ZM0 599.605C0 609.253 7.31448 616.156 14.6622 618.566L19.6483 603.363C18.4921 602.984 17.4798 602.284 16.8163 601.496C16.1767 600.736 16 600.083 16 599.605H0ZM14.6622 618.566C19.1482 620.037 24.4419 622.688 28.5785 627.376C32.5775 631.909 36 638.904 36 650.125H52C52 635.285 47.3329 624.449 40.576 616.791C33.9567 609.288 25.828 605.389 19.6484 603.363L14.6622 618.566ZM36 650.125C36 661.116 32.7208 667.708 28.9869 671.838C25.112 676.124 20.099 678.466 15.6695 679.72L20.0282 695.115C26.2573 693.351 34.3198 689.798 40.8559 682.568C47.5329 675.182 52 664.636 52 650.125H36ZM15.6695 679.72C8.00261 681.891 0 688.879 0 699H16C16 698.516 16.1866 697.83 16.9037 697.025C17.6482 696.19 18.7753 695.47 20.0282 695.115L15.6695 679.72ZM153.425 755H189.5V739H153.425V755ZM288.895 755H324.43V739H288.895V755ZM420.5 755H460V739H420.5V755ZM616 735.075V699H600V735.075H616ZM616 599.605V559H600V599.605H616ZM616 468V427H600V468H616ZM616 336V290.5H600V336H616ZM616 196V156.5H600V196H616ZM0 156.5V196H16V156.5H0ZM0 290.5V336H16V290.5H0ZM0 427V468H16V427H0ZM0 559V599.605H16V559H0ZM0 699V735.075H16V699H0Z" mask="url(#path-1-outside-1_2848_1885)"/><rect width="414" height="541" x="101" y="106.5" fill="#4130A7" stroke="#222" stroke-width="8" rx="11"/><mask id="mask0_2848_1885" style="mask-type:alpha" width="422" height="550" x="97" y="102" maskUnits="userSpaceOnUse"><rect width="414" height="541" x="101" y="106.5" fill="#EB93F4" stroke="#222" stroke-width="8" rx="11"/></mask><g mask="url(#mask0_2848_1885)"><path stroke="#313131" stroke-linecap="round" stroke-linejoin="round" stroke-width="7.844" d="M208.761 604.394C383.192 559.429 517.605 495.854 508.98 462.396C500.355 428.938 351.959 438.267 177.528 483.233C3.09646 528.199 -131.316 591.774 -122.691 625.232C-114.066 658.689 34.33 649.36 208.761 604.394Z"/><path fill="#FFD13C" d="M-34.3227 537.705C-112.988 573.092 -160.302 609.012 -153.845 634.026C-142.824 676.866 21.5601 671.536 213.294 622.115C405.028 572.694 551.546 497.922 540.526 455.082C533.58 428.095 465.765 420.223 368.574 430.461"/><path stroke="#313131" stroke-linecap="round" stroke-linejoin="round" stroke-width="7.844" d="M-34.3227 537.705C-112.988 573.092 -160.302 609.012 -153.845 634.026C-142.824 676.866 21.5601 671.536 213.294 622.115C405.028 572.694 551.546 497.922 540.526 455.082C533.58 428.095 465.765 420.223 368.574 430.461"/><path fill="#4130A7" d="M-32.4228 559.183C-94.5461 585.372 -131.641 609.706 -127.652 625.125C-120.239 653.887 27.1643 640.776 201.589 595.831C376.015 550.886 511.407 491.124 504.027 462.345C499.825 446.017 450.508 443.175 376.743 451.997"/><path stroke="#313131" stroke-linecap="round" stroke-linejoin="round" stroke-width="7.844" d="M-32.4228 559.183C-94.5461 585.372 -131.641 609.706 -127.652 625.125C-120.239 653.887 27.1643 640.776 201.589 595.831C376.015 550.886 511.407 491.124 504.027 462.345C499.824 446.017 450.508 443.175 376.743 451.997"/><path fill="#7A65FD" stroke="#313131" stroke-linecap="round" stroke-linejoin="round" stroke-width="7.844" d="M384.16 594.378C419.263 481.076 355.863 360.769 242.586 325.673C129.309 290.578 9.019 354.01 -26.0591 467.319C-54.7014 559.837 -11.1925 655.723 52.091 704.152C81.182 726.421 108.515 734.166 115.49 736.017C202.284 759.053 344.571 722.153 384.135 594.37L384.16 594.378Z"/><path fill="#313131" d="M235.653 493.182C242.441 494.888 249.328 490.768 251.034 483.979C252.74 477.19 248.62 470.304 241.831 468.597C235.042 466.891 228.156 471.011 226.45 477.8C224.744 484.589 228.864 491.475 235.653 493.182Z"/><path stroke="#313131" stroke-linecap="round" stroke-linejoin="round" stroke-width="7.844" d="M293.238 474.577C293.238 474.577 303.338 475.591 303.525 478.155C303.7 480.719 301.134 484.81 301.134 484.81"/><path stroke="#313131" stroke-linecap="round" stroke-linejoin="round" stroke-width="7.844" d="M323.308 500.712C322.975 501.673 321.553 505.648 318.327 509.965C315.53 513.717 312.661 515.976 311.484 516.87C309.82 518.111 306.662 520.255 302.249 521.739C292.089 525.17 283.3 522.463 281.287 521.79"/><path fill="#F8E6A2" d="M405.14 556.675C405.819 555.248 405.935 553.705 405.935 553.705L405.14 556.675Z"/><path stroke="#313131" stroke-linecap="round" stroke-linejoin="round" stroke-width="7.844" d="M405.14 556.675C405.819 555.248 405.935 553.705 405.935 553.705"/><path fill="#443D97" fill-rule="evenodd" d="M371.116 449.18C398.94 554.254 339.843 665.634 233.024 703.547C142.032 735.843 44.3117 704.927 -10.2434 633.8C40.4279 720.284 145.37 763.591 244.771 726.955C356.586 687.269 418.23 579.165 378.821 468.131C376.533 461.684 373.958 455.362 371.116 449.18Z" clip-rule="evenodd"/><path fill="#F8E6A2" d="M400.871 558.992C403.188 559.425 404.463 558.099 405.142 556.673L400.871 558.992Z"/><path stroke="#313131" stroke-linecap="round" stroke-linejoin="round" stroke-width="7.844" d="M400.871 558.992C403.188 559.425 404.463 558.099 405.142 556.673"/><path fill="#FCD61D" d="M402.651 532.839L402.759 531.32C351.944 557.548 307.749 574.007 274.754 584.513C242.265 594.874 213.693 601.664 192.577 606.668C171.69 611.633 142.347 618.542 104.148 624.688C75.7066 629.259 38.5895 633.993 -5.3759 636.371C-0.502471 644.413 4.40342 652.437 9.27685 660.478C48.1255 656.135 81.4741 650.907 108.016 646.139C132.86 641.671 158.753 636.977 191.808 628.422C192.692 628.201 210.032 623.354 244.697 613.71C256.2 610.516 267.147 607.452 281.664 602.672C292.728 599.045 300.974 596.002 305.567 594.325C344.849 579.881 395.333 561.091 400.894 559"/><path stroke="#313131" stroke-linecap="round" stroke-linejoin="round" stroke-width="7.844" d="M402.651 532.839L402.759 531.32C351.944 557.548 307.749 574.007 274.754 584.513C242.265 594.874 213.693 601.664 192.577 606.668C171.69 611.633 142.347 618.542 104.148 624.688C75.7066 629.259 38.5895 633.993 -5.3759 636.371C-0.502472 644.413 4.40342 652.437 9.27684 660.478C48.1255 656.135 81.4741 650.907 108.016 646.139C132.86 641.671 158.753 636.977 191.808 628.422C192.692 628.201 210.032 623.354 244.697 613.71C256.2 610.516 267.147 607.452 281.664 602.672C292.728 599.045 300.974 596.002 305.567 594.325C344.849 579.881 395.333 561.091 400.894 559"/><path stroke="#313131" stroke-linecap="round" stroke-linejoin="round" stroke-width="7.844" d="M401.953 558.916L407.146 557.502"/><path fill="#FCD61D" d="M412.022 535.967L397.337 540.814C395.985 541.26 395.251 542.718 395.697 544.069L398.219 551.709C398.665 553.06 400.122 553.795 401.474 553.348L416.159 548.502C417.511 548.056 418.245 546.598 417.799 545.246L415.278 537.607C414.832 536.255 413.374 535.521 412.022 535.967Z"/><path fill="#F8E6A2" d="M403.384 547.51L403.359 547.502L403.082 548.398L403.107 548.405L403.384 547.51Z"/><path fill="#FCD61D" d="M408.855 534.046L401.071 538.151L402.395 540.661L410.179 536.556L408.855 534.046Z"/><path fill="#B5A9FF" stroke="#313131" stroke-linecap="round" stroke-linejoin="round" stroke-width="7.844" d="M434.847 468.243C445.891 456.918 451.602 447.918 453.839 444.201C458.546 436.405 459.75 432.364 460.312 430.155C461.332 426.116 462.85 419.753 460.445 412.098C459.193 408.145 457.259 401.473 451.09 398.72C445.812 396.376 440.664 398.306 440.275 398.464C436.419 399.965 434.368 402.892 433.49 404.14C432.451 405.601 431.474 407.965 429.823 412.786C428.915 415.421 428.28 417.201 427.672 419.168C427.061 421.16 426.677 422.632 426.594 422.857C423.123 435.497 410.77 449.509 410.77 449.509C401.425 460.119 391.439 467.516 391.439 467.516C389.828 468.742 387.454 470.943 386.532 474.26C385.65 477.477 386.752 479.623 388.704 486.744C391.473 496.761 390.743 497.687 392.126 498.531C396.206 501.001 404.493 494.32 418.503 482.818C424.384 477.992 428.992 474.229 434.847 468.243Z"/><circle cx="179.481" cy="529.107" r="211.522" stroke="#313131" stroke-width="7.844" transform="rotate(16.9247 179.481 529.107)"/><path stroke="#313131" stroke-linecap="round" stroke-linejoin="round" stroke-width="8" d="M312.665 432.5L300.351 449.751L321.851 453.609"/><path fill="#B5A9FF" stroke="#313131" stroke-linecap="round" stroke-linejoin="round" stroke-width="7.844" d="M284.243 587.285C300.002 585.906 310.201 582.81 314.322 581.453C322.975 578.615 326.523 576.338 328.391 575.03C331.799 572.634 337.1 568.802 340.271 561.431C341.901 557.619 344.788 551.3 341.909 545.189C339.437 539.969 334.276 538.074 333.878 537.939C329.977 536.562 326.513 537.443 325.033 537.815C323.292 538.245 321.01 539.4 316.614 541.976C314.206 543.381 312.564 544.315 310.82 545.41C309.057 546.521 307.806 547.387 307.596 547.503C296.72 554.818 278.216 557.379 278.216 557.379C264.213 559.325 251.818 558.416 251.818 558.416C249.797 558.294 246.563 558.414 243.7 560.327C240.933 562.189 240.368 564.535 237.202 571.205C232.766 580.603 231.609 580.829 232.106 582.371C233.587 586.904 244.226 587.247 262.348 587.669C269.953 587.848 275.901 588.002 284.243 587.285Z"/><path fill="#FFD13C" d="M377.361 548.802L400.935 537.208L407.163 533.559L420.317 528.178L421.662 545.939L405.479 553.349L381.881 561.217L377.361 548.802Z"/><path stroke="#313131" stroke-linecap="round" stroke-linejoin="round" stroke-width="7.844" d="M316.367 411.36C311.001 409.787 300.986 407.697 289.832 410.441C279.317 413.029 272.576 418.736 269.074 422.307"/><path stroke="#313131" stroke-linecap="round" stroke-linejoin="round" stroke-width="7.844" d="M207.04 469.882C208.767 464.977 212.629 456.278 220.768 449.319C228.442 442.758 236.423 440.731 241.029 440.003"/><path fill="#FFD13C" stroke="#313131" stroke-linecap="round" stroke-linejoin="round" stroke-width="7.844" d="M349.238 292.301C346.261 294.146 329.903 283.061 326.157 283.367C322.411 283.672 307.957 298.087 305.744 297.143C303.531 296.2 308.302 276.943 307.051 272.646C305.801 268.349 286.669 260.885 287.45 257.585C288.232 254.285 309.206 253.684 311.338 251.365C313.47 249.046 316.191 230.392 319.633 228.281C323.075 226.169 329.987 248.29 333.089 248.932C336.215 249.581 355.629 246.248 357.811 249.74C359.993 253.231 342.033 265.711 342.241 268.74C342.448 271.768 352.232 290.489 349.23 292.326L349.238 292.301Z"/><path fill="#FFD13C" stroke="#313131" stroke-linecap="round" stroke-linejoin="round" stroke-width="7.844" d="M435.023 209.212C431.521 209.043 424.497 190.771 421.252 188.942C418.007 187.114 397.99 190.805 396.73 188.786C395.469 186.768 410.332 173.649 411.774 169.406C413.217 165.163 401.817 148.322 404.347 146.036C406.877 143.75 424.347 155.05 427.425 154.348C430.467 153.656 443.33 139.866 447.356 140.046C451.369 140.249 444.408 162.272 446.583 164.566C448.758 166.861 466.54 175 466.324 179.095C466.107 183.19 444.326 183.361 442.769 185.924C441.211 188.487 438.525 209.38 435.058 209.201L435.023 209.212Z"/><path fill="#FFD13C" stroke="#313131" stroke-linecap="round" stroke-linejoin="round" stroke-width="7.844" d="M198.69 216.346C195.437 217.603 181.634 203.704 177.927 203.309C174.221 202.915 157.379 214.372 155.405 213.037C153.43 211.702 161.772 193.703 161.379 189.257C160.986 184.812 143.786 173.948 145.18 170.857C146.575 167.766 167.117 171.062 169.638 169.183C172.159 167.304 178.388 149.516 182.146 148.083C185.903 146.65 188.389 169.622 191.286 170.826C194.184 172.03 213.753 172.37 215.207 176.198C216.662 180.026 196.777 188.937 196.398 191.945C196.031 194.93 201.954 215.123 198.678 216.369L198.69 216.346Z"/></g><rect width="414" height="541" x="101" y="106.5" stroke="#222" stroke-width="8" rx="11"/><rect width="100.541" height="60.103" x="357.845" y="386.048" fill="#989898" stroke="#313131" stroke-width="8" rx="16" transform="rotate(-28.7176 357.845 386.048)"/><rect width="34.592" height="85.849" x="442.433" y="324.552" fill="#F4F4F4" stroke="#313131" stroke-width="8" rx="6" transform="rotate(-28.7176 442.433 324.552)"/><rect width="16.044" height="85.849" x="432.191" y="330.163" fill="#5A5A5A" stroke="#313131" stroke-width="8" rx="8.022" transform="rotate(-28.7176 432.191 330.163)"/><path fill="#F4F4F4" stroke="#313131" stroke-width="8" d="M322.321 418.239L356.25 381.677C360.892 376.675 369.071 377.689 372.35 383.674L384.241 405.379L396.364 427.505C399.575 433.367 396.243 440.668 389.711 442.083L341.477 452.534C337.148 453.472 332.718 451.45 330.59 447.565L320.882 429.846C318.813 426.071 319.393 421.395 322.321 418.239Z"/><rect width="13.983" height="53.459" x="303.411" y="419.659" fill="#5A5A5A" stroke="#313131" stroke-width="8" rx="6" transform="rotate(-28.7176 303.411 419.659)"/></svg>