<svg width="617" height="755" viewBox="0 0 617 755" fill="none" xmlns="http://www.w3.org/2000/svg">
<mask id="path-1-outside-1_2848_1803" maskUnits="userSpaceOnUse" x="0.351562" y="0.5" width="616" height="755" fill="black">
<rect fill="white" x="0.351562" y="0.5" width="616" height="755"/>
<path d="M8.35156 735.075C8.35156 740.761 13.1473 745.388 18.6629 746.77C18.9524 746.842 19.2452 746.919 19.5408 747H57.8516C63.3744 747 67.928 742.466 69.4194 737.148C72.4087 726.49 81.0973 711 106.352 711C131.245 711 139.416 726.05 142.082 736.689C143.464 742.204 148.091 747 153.777 747H189.852C195.374 747 199.929 742.465 201.434 737.151C204.452 726.493 213.224 711 238.727 711C264.788 711 274.389 727.179 277.887 737.845C279.533 742.862 283.965 747 289.246 747H324.782C330.332 747 334.897 742.425 336.357 737.07C339.263 726.414 347.779 711 372.727 711C397.733 711 406.337 726.487 409.298 737.146C410.776 742.467 415.329 747 420.852 747H460.352C465.874 747 470.43 742.464 471.944 737.153C474.98 726.494 483.809 711 509.477 711C531.345 711 538.885 726.456 541.484 737.114C542.793 742.479 547.329 747 552.852 747H597.162C597.458 746.919 597.751 746.842 598.04 746.77C603.556 745.388 608.352 740.761 608.352 735.075V699C608.352 693.477 603.817 688.922 598.503 687.418C587.844 684.4 572.352 675.627 572.352 650.125C572.352 624.064 588.531 614.462 599.196 610.964C604.214 609.319 608.352 604.886 608.352 599.605V559C608.352 553.477 603.818 548.924 598.5 547.432C588.249 544.557 573.53 536.411 572.418 513.326C573.53 490.469 588.247 482.401 598.497 479.553C603.819 478.075 608.352 473.523 608.352 468V427C608.352 421.477 603.817 416.922 598.503 415.418C587.938 412.427 572.625 403.782 572.355 378.798C572.625 357.373 587.902 349.944 598.465 347.368C603.831 346.059 608.352 341.523 608.352 336V290.5C608.352 285.008 603.924 280.55 598.443 280.5L598.422 280.495C587.766 277.588 572.352 269.072 572.352 244.125C572.352 219.119 587.839 210.514 598.497 207.553C603.819 206.075 608.352 201.523 608.352 196V156.5C608.352 150.977 603.816 146.421 598.504 144.908C587.846 141.871 572.352 133.043 572.352 107.375C572.352 85.5063 587.808 77.9669 598.465 75.3676C603.831 74.059 608.352 69.5228 608.352 64V18.5C608.352 12.9772 603.874 8.5 598.352 8.5H546.748C544.17 10.3211 542.26 13.2052 541.484 16.3862C538.885 27.0436 531.345 42.5 509.477 42.5C483.809 42.5 474.98 27.0057 471.944 16.3471C471.046 13.1971 469.079 10.32 466.474 8.5H414.733C412.133 10.3202 410.175 13.1986 409.298 16.3543C406.337 27.0127 397.733 42.5 372.727 42.5C347.779 42.5 339.263 27.0856 336.357 16.4297C335.488 13.2443 333.521 10.3346 330.901 8.5H283.11C280.695 10.1841 278.832 12.7747 277.887 15.6553C274.389 26.3209 264.788 42.5 238.727 42.5C213.224 42.5 204.452 27.0075 201.434 16.3489C200.542 13.1975 198.577 10.3201 195.973 8.5H147.66C144.937 10.4078 142.917 13.4781 142.082 16.8113C139.416 27.4495 131.245 42.5 106.352 42.5C81.0973 42.5 72.4087 27.0101 69.4194 16.3516C68.535 13.198 66.5736 10.3201 63.9718 8.5H18.3516C12.8287 8.5 8.35156 12.9772 8.35156 18.5V64C8.35156 69.5228 12.8723 74.059 18.2378 75.3676C28.8952 77.9669 44.3516 85.5063 44.3516 107.375C44.3516 133.043 28.8573 141.871 18.1987 144.908C12.8871 146.421 8.35156 150.977 8.35156 156.5V196C8.35156 201.523 12.8845 206.075 18.2058 207.553C28.8642 210.514 44.3516 219.119 44.3516 244.125C44.3516 269.072 28.9372 277.588 18.2813 280.495L18.2599 280.5C12.7793 280.55 8.35156 285.008 8.35156 290.5V336C8.35156 341.523 12.8723 346.059 18.2378 347.368C28.8008 349.944 44.0783 357.373 44.348 378.798C44.0779 403.782 28.7648 412.427 18.2004 415.418C12.8865 416.922 8.35156 421.477 8.35156 427V468C8.35156 473.523 12.8845 478.075 18.2058 479.553C28.4564 482.401 43.1735 490.469 44.2847 513.326C43.1735 536.411 28.4539 544.557 18.2031 547.432C12.8855 548.924 8.35156 553.477 8.35156 559V599.605C8.35156 604.886 12.4891 609.319 17.5068 610.964C28.1725 614.462 44.3516 624.064 44.3516 650.125C44.3516 675.627 28.859 684.4 18.2004 687.418C12.8865 688.922 8.35156 693.477 8.35156 699V735.075Z"/>
</mask>
<path d="M8.35156 735.075C8.35156 740.761 13.1473 745.388 18.6629 746.77C18.9524 746.842 19.2452 746.919 19.5408 747H57.8516C63.3744 747 67.928 742.466 69.4194 737.148C72.4087 726.49 81.0973 711 106.352 711C131.245 711 139.416 726.05 142.082 736.689C143.464 742.204 148.091 747 153.777 747H189.852C195.374 747 199.929 742.465 201.434 737.151C204.452 726.493 213.224 711 238.727 711C264.788 711 274.389 727.179 277.887 737.845C279.533 742.862 283.965 747 289.246 747H324.782C330.332 747 334.897 742.425 336.357 737.07C339.263 726.414 347.779 711 372.727 711C397.733 711 406.337 726.487 409.298 737.146C410.776 742.467 415.329 747 420.852 747H460.352C465.874 747 470.43 742.464 471.944 737.153C474.98 726.494 483.809 711 509.477 711C531.345 711 538.885 726.456 541.484 737.114C542.793 742.479 547.329 747 552.852 747H597.162C597.458 746.919 597.751 746.842 598.04 746.77C603.556 745.388 608.352 740.761 608.352 735.075V699C608.352 693.477 603.817 688.922 598.503 687.418C587.844 684.4 572.352 675.627 572.352 650.125C572.352 624.064 588.531 614.462 599.196 610.964C604.214 609.319 608.352 604.886 608.352 599.605V559C608.352 553.477 603.818 548.924 598.5 547.432C588.249 544.557 573.53 536.411 572.418 513.326C573.53 490.469 588.247 482.401 598.497 479.553C603.819 478.075 608.352 473.523 608.352 468V427C608.352 421.477 603.817 416.922 598.503 415.418C587.938 412.427 572.625 403.782 572.355 378.798C572.625 357.373 587.902 349.944 598.465 347.368C603.831 346.059 608.352 341.523 608.352 336V290.5C608.352 285.008 603.924 280.55 598.443 280.5L598.422 280.495C587.766 277.588 572.352 269.072 572.352 244.125C572.352 219.119 587.839 210.514 598.497 207.553C603.819 206.075 608.352 201.523 608.352 196V156.5C608.352 150.977 603.816 146.421 598.504 144.908C587.846 141.871 572.352 133.043 572.352 107.375C572.352 85.5063 587.808 77.9669 598.465 75.3676C603.831 74.059 608.352 69.5228 608.352 64V18.5C608.352 12.9772 603.874 8.5 598.352 8.5H546.748C544.17 10.3211 542.26 13.2052 541.484 16.3862C538.885 27.0436 531.345 42.5 509.477 42.5C483.809 42.5 474.98 27.0057 471.944 16.3471C471.046 13.1971 469.079 10.32 466.474 8.5H414.733C412.133 10.3202 410.175 13.1986 409.298 16.3543C406.337 27.0127 397.733 42.5 372.727 42.5C347.779 42.5 339.263 27.0856 336.357 16.4297C335.488 13.2443 333.521 10.3346 330.901 8.5H283.11C280.695 10.1841 278.832 12.7747 277.887 15.6553C274.389 26.3209 264.788 42.5 238.727 42.5C213.224 42.5 204.452 27.0075 201.434 16.3489C200.542 13.1975 198.577 10.3201 195.973 8.5H147.66C144.937 10.4078 142.917 13.4781 142.082 16.8113C139.416 27.4495 131.245 42.5 106.352 42.5C81.0973 42.5 72.4087 27.0101 69.4194 16.3516C68.535 13.198 66.5736 10.3201 63.9718 8.5H18.3516C12.8287 8.5 8.35156 12.9772 8.35156 18.5V64C8.35156 69.5228 12.8723 74.059 18.2378 75.3676C28.8952 77.9669 44.3516 85.5063 44.3516 107.375C44.3516 133.043 28.8573 141.871 18.1987 144.908C12.8871 146.421 8.35156 150.977 8.35156 156.5V196C8.35156 201.523 12.8845 206.075 18.2058 207.553C28.8642 210.514 44.3516 219.119 44.3516 244.125C44.3516 269.072 28.9372 277.588 18.2813 280.495L18.2599 280.5C12.7793 280.55 8.35156 285.008 8.35156 290.5V336C8.35156 341.523 12.8723 346.059 18.2378 347.368C28.8008 349.944 44.0783 357.373 44.348 378.798C44.0779 403.782 28.7648 412.427 18.2004 415.418C12.8865 416.922 8.35156 421.477 8.35156 427V468C8.35156 473.523 12.8845 478.075 18.2058 479.553C28.4564 482.401 43.1735 490.469 44.2847 513.326C43.1735 536.411 28.4539 544.557 18.2031 547.432C12.8855 548.924 8.35156 553.477 8.35156 559V599.605C8.35156 604.886 12.4891 609.319 17.5068 610.964C28.1725 614.462 44.3516 624.064 44.3516 650.125C44.3516 675.627 28.859 684.4 18.2004 687.418C12.8865 688.922 8.35156 693.477 8.35156 699V735.075Z" fill="#F4F4F4"/>
<path d="M18.6629 746.77L20.6082 739.01L20.6076 739.01L18.6629 746.77ZM19.5408 747L17.4284 754.716L18.4655 755H19.5408V747ZM69.4194 737.148L77.1222 739.309L69.4194 737.148ZM142.082 736.689L149.842 734.744V734.744L142.082 736.689ZM201.434 737.151L193.737 734.972L201.434 737.151ZM277.887 737.845L270.286 740.338L277.887 737.845ZM336.357 737.07L344.075 739.175L336.357 737.07ZM409.298 737.146L417.006 735.004L409.298 737.146ZM471.944 737.153L464.25 734.961V734.961L471.944 737.153ZM541.484 737.114L533.712 739.009V739.009L541.484 737.114ZM597.162 747V755H598.238L599.275 754.716L597.162 747ZM598.04 746.77L596.096 739.01L596.095 739.01L598.04 746.77ZM598.503 687.418L600.682 679.72L598.503 687.418ZM599.196 610.964L596.703 603.363H596.703L599.196 610.964ZM598.5 547.432L600.66 539.729L600.66 539.729L598.5 547.432ZM572.418 513.326L564.428 512.938L564.409 513.324L564.428 513.711L572.418 513.326ZM598.497 479.553L596.356 471.845L598.497 479.553ZM598.503 415.418L596.323 423.115L598.503 415.418ZM572.355 378.798L564.356 378.697L564.355 378.791L564.356 378.884L572.355 378.798ZM598.465 347.368L600.361 355.14L598.465 347.368ZM598.443 280.5L596.327 288.215L597.331 288.491L598.371 288.5L598.443 280.5ZM598.422 280.495L600.538 272.78L600.527 272.777L598.422 280.495ZM598.497 207.553L600.639 215.261L598.497 207.553ZM598.504 144.908L596.312 152.602L598.504 144.908ZM598.465 75.3676L600.361 83.1398L598.465 75.3676ZM546.748 8.5V0.5H544.207L542.132 1.96615L546.748 8.5ZM541.484 16.3862L533.712 14.4906V14.4907L541.484 16.3862ZM471.944 16.3471L464.25 18.539L464.25 18.5391L471.944 16.3471ZM466.474 8.5L471.056 1.9422L468.992 0.5H466.474V8.5ZM414.733 8.5V0.5H412.211L410.145 1.94637L414.733 8.5ZM409.298 16.3543L417.006 18.4955V18.4955L409.298 16.3543ZM336.357 16.4297L344.075 14.3245V14.3245L336.357 16.4297ZM330.901 8.5L335.489 1.94686L333.423 0.5H330.901V8.5ZM283.11 8.5V0.5H280.596L278.534 1.9381L283.11 8.5ZM277.887 15.6553L270.286 13.1621L270.286 13.1622L277.887 15.6553ZM201.434 16.3489L193.736 18.5282L193.737 18.5282L201.434 16.3489ZM195.973 8.5L200.557 1.94325L198.492 0.5H195.973V8.5ZM147.66 8.5V0.5H145.136L143.069 1.94821L147.66 8.5ZM142.082 16.8113L149.842 18.7561V18.7561L142.082 16.8113ZM69.4194 16.3516L61.7166 18.5119L61.7166 18.5119L69.4194 16.3516ZM63.9718 8.5L68.5576 1.94481L66.4923 0.5H63.9718V8.5ZM18.2378 75.3676L16.3422 83.1398H16.3422L18.2378 75.3676ZM18.1987 144.908L20.3906 152.602H20.3906L18.1987 144.908ZM18.2058 207.553L16.0645 215.261H16.0645L18.2058 207.553ZM18.2813 280.495L16.1761 272.777L16.1652 272.78L18.2813 280.495ZM18.2599 280.5L18.3317 288.5L19.3724 288.491L20.3761 288.215L18.2599 280.5ZM18.2378 347.368L16.3422 355.14H16.3422L18.2378 347.368ZM44.348 378.798L52.3475 378.884L52.3485 378.791L52.3473 378.697L44.348 378.798ZM18.2004 415.418L20.3797 423.115H20.3798L18.2004 415.418ZM18.2058 479.553L20.3471 471.845H20.3471L18.2058 479.553ZM44.2847 513.326L52.2754 513.711L52.294 513.324L52.2752 512.938L44.2847 513.326ZM18.2031 547.432L16.0428 539.729L16.0428 539.729L18.2031 547.432ZM17.5068 610.964L19.9999 603.363H19.9999L17.5068 610.964ZM18.2004 687.418L16.0211 679.72H16.0211L18.2004 687.418ZM0.351562 735.075C0.351562 745.506 8.80579 752.547 16.7182 754.53L20.6076 739.01C19.2985 738.682 18.1032 737.959 17.31 737.102C16.5469 736.278 16.3516 735.571 16.3516 735.075H0.351562ZM16.7176 754.53C16.9532 754.589 17.1902 754.651 17.4284 754.716L21.6531 739.284C21.3001 739.187 20.9516 739.096 20.6082 739.01L16.7176 754.53ZM19.5408 755H57.8516V739H19.5408V755ZM57.8516 755C67.9724 755 74.966 746.997 77.1222 739.309L61.7166 734.988C61.3668 736.235 60.6519 737.358 59.821 738.099C59.0208 738.813 58.3363 739 57.8516 739V755ZM77.1222 739.309C78.3675 734.869 80.6902 729.855 84.9292 725.986C89.0069 722.264 95.5057 719 106.352 719V703C91.9432 703 81.4706 707.481 74.1431 714.168C66.9769 720.709 63.4607 728.77 61.7166 734.988L77.1222 739.309ZM106.352 719C117.052 719 123.29 722.174 127.11 725.719C131.09 729.413 133.22 734.237 134.322 738.633L149.842 734.744C148.278 728.502 144.989 720.482 137.994 713.991C130.838 707.351 120.544 703 106.352 703V719ZM134.322 738.633C136.305 746.546 143.346 755 153.777 755V739C153.28 739 152.574 738.805 151.749 738.042C150.892 737.248 150.17 736.053 149.842 734.744L134.322 738.633ZM189.852 755C199.972 755 206.961 746.997 209.131 739.33L193.737 734.972C193.382 736.225 192.662 737.352 191.827 738.096C191.022 738.813 190.336 739 189.852 739V755ZM209.131 739.33C210.385 734.901 212.727 729.888 217.013 726.013C221.144 722.279 227.735 719 238.727 719V703C224.216 703 213.67 707.467 206.284 714.144C199.054 720.68 195.5 728.743 193.737 734.972L209.131 739.33ZM238.727 719C249.947 719 256.943 722.422 261.475 726.422C266.164 730.558 268.814 735.852 270.286 740.338L285.489 735.352C283.462 729.172 279.563 721.043 272.061 714.424C264.403 707.667 253.567 703 238.727 703V719ZM270.286 740.338C272.695 747.685 279.598 755 289.246 755V739C288.769 739 288.115 738.823 287.355 738.184C286.567 737.52 285.868 736.508 285.489 735.352L270.286 740.338ZM324.782 755C334.954 755 341.962 746.923 344.075 739.175L328.639 734.965C328.297 736.217 327.586 737.346 326.755 738.093C325.956 738.812 325.27 739 324.782 739V755ZM344.075 739.175C345.287 734.731 347.558 729.748 351.706 725.914C355.688 722.234 362.051 719 372.727 719V703C358.455 703 348.086 707.473 340.847 714.164C333.774 720.701 330.333 728.753 328.639 734.965L344.075 739.175ZM372.727 719C383.426 719 389.833 722.249 393.858 725.959C398.05 729.822 400.354 734.836 401.59 739.287L417.006 735.004C415.282 728.797 411.803 720.738 404.701 714.193C397.432 707.494 387.033 703 372.727 703V719ZM401.59 739.287C403.732 746.997 410.73 755 420.852 755V739C420.366 739 419.684 738.813 418.888 738.102C418.061 737.364 417.351 736.246 417.006 735.004L401.59 739.287ZM460.352 755C470.472 755 477.457 746.998 479.637 739.345L464.25 734.961C463.892 736.218 463.168 737.348 462.33 738.094C461.523 738.813 460.835 739 460.352 739V755ZM479.637 739.345C480.897 734.922 483.252 729.91 487.57 726.031C491.735 722.289 498.388 719 509.477 719V703C494.897 703 484.302 707.458 476.877 714.128C469.605 720.661 466.026 728.725 464.25 734.961L479.637 739.345ZM509.477 719C518.282 719 523.519 722.01 526.91 725.574C530.53 729.379 532.592 734.42 533.712 739.009L549.256 735.218C547.776 729.15 544.77 721.134 538.503 714.546C532.007 707.718 522.54 703 509.477 703V719ZM533.712 739.009C535.659 746.991 542.731 755 552.852 755V739C552.358 739 551.699 738.811 550.958 738.14C550.187 737.441 549.541 736.387 549.256 735.218L533.712 739.009ZM552.852 755H597.162V739H552.852V755ZM599.275 754.716C599.513 754.651 599.75 754.589 599.986 754.53L596.095 739.01C595.751 739.096 595.403 739.187 595.05 739.284L599.275 754.716ZM599.985 754.53C607.897 752.547 616.352 745.506 616.352 735.075H600.352C600.352 735.571 600.156 736.278 599.393 737.102C598.6 737.959 597.405 738.682 596.096 739.01L599.985 754.53ZM616.352 699C616.352 688.879 608.349 681.891 600.682 679.72L596.323 695.115C597.576 695.47 598.703 696.19 599.448 697.025C600.165 697.83 600.352 698.516 600.352 699H616.352ZM600.682 679.72C596.253 678.466 591.24 676.124 587.365 671.838C583.631 667.708 580.352 661.116 580.352 650.125H564.352C564.352 664.636 568.819 675.182 575.496 682.568C582.032 689.798 590.094 693.351 596.323 695.115L600.682 679.72ZM580.352 650.125C580.352 638.904 583.774 631.909 587.773 627.376C591.91 622.688 597.203 620.037 601.689 618.566L596.703 603.363C590.524 605.389 582.395 609.288 575.776 616.791C569.019 624.449 564.352 635.285 564.352 650.125H580.352ZM601.689 618.566C609.037 616.156 616.352 609.253 616.352 599.605H600.352C600.352 600.083 600.175 600.736 599.535 601.496C598.872 602.284 597.859 602.984 596.703 603.363L601.689 618.566ZM616.352 559C616.352 548.879 608.348 541.886 600.66 539.729L596.34 555.135C597.587 555.485 598.709 556.2 599.451 557.031C600.165 557.831 600.352 558.515 600.352 559H616.352ZM600.66 539.729C596.394 538.533 591.589 536.338 587.787 532.401C584.126 528.61 580.878 522.682 580.409 512.942L564.428 513.711C565.07 527.055 569.737 536.742 576.277 543.515C582.675 550.141 590.355 553.457 596.34 555.135L600.66 539.729ZM580.409 513.715C580.876 504.109 584.108 498.265 587.758 494.521C591.556 490.626 596.362 488.449 600.639 487.261L596.356 471.845C590.382 473.505 582.704 476.786 576.303 483.351C569.754 490.068 565.072 499.686 564.428 512.938L580.409 513.715ZM600.639 487.261C608.348 485.12 616.352 478.121 616.352 468H600.352C600.352 468.485 600.165 469.168 599.454 469.964C598.715 470.79 597.598 471.5 596.356 471.845L600.639 487.261ZM616.352 427C616.352 416.879 608.349 409.891 600.682 407.72L596.323 423.115C597.576 423.47 598.703 424.19 599.448 425.025C600.165 425.83 600.352 426.516 600.352 427H616.352ZM600.682 407.72C596.293 406.477 591.328 404.166 587.468 399.952C583.748 395.891 580.471 389.437 580.355 378.711L564.356 378.884C564.51 393.143 569.024 403.504 575.669 410.759C582.174 417.861 590.148 421.367 596.323 423.115L600.682 407.72ZM580.355 378.898C580.463 370.319 583.467 365.188 587.026 361.847C590.82 358.285 595.814 356.249 600.361 355.14L596.57 339.595C590.554 341.063 582.628 344.029 576.074 350.182C569.286 356.556 564.517 365.851 564.356 378.697L580.355 378.898ZM600.361 355.14C608.343 353.193 616.352 346.121 616.352 336H600.352C600.352 336.493 600.163 337.152 599.492 337.893C598.792 338.665 597.739 339.31 596.57 339.595L600.361 355.14ZM616.352 290.5C616.352 280.613 608.382 272.589 598.515 272.501L598.371 288.5C599.466 288.51 600.352 289.402 600.352 290.5H616.352ZM600.559 272.785L600.538 272.78L596.306 288.21L596.327 288.215L600.559 272.785ZM600.527 272.777C596.083 271.564 591.1 269.294 587.266 265.145C583.586 261.164 580.352 254.801 580.352 244.125H564.352C564.352 258.396 568.824 268.765 575.516 276.005C582.053 283.078 590.105 286.518 596.317 288.213L600.527 272.777ZM580.352 244.125C580.352 233.425 583.601 227.019 587.31 222.994C591.174 218.802 596.188 216.498 600.639 215.261L596.356 199.845C590.148 201.57 582.09 205.049 575.545 212.151C568.846 219.42 564.352 229.819 564.352 244.125H580.352ZM600.639 215.261C608.348 213.12 616.352 206.121 616.352 196H600.352C600.352 196.485 600.165 197.168 599.454 197.964C598.715 198.79 597.598 199.5 596.356 199.845L600.639 215.261ZM616.352 156.5C616.352 146.38 608.349 139.394 600.696 137.214L596.312 152.602C597.569 152.96 598.699 153.683 599.446 154.521C600.165 155.329 600.352 156.016 600.352 156.5H616.352ZM600.696 137.214C596.274 135.954 591.261 133.6 587.382 129.282C583.64 125.116 580.352 118.463 580.352 107.375H564.352C564.352 121.955 568.81 132.55 575.48 139.974C582.013 147.247 590.076 150.825 596.312 152.602L600.696 137.214ZM580.352 107.375C580.352 98.5695 583.362 93.3324 586.926 89.9414C590.731 86.3219 595.771 84.2592 600.361 83.1398L596.57 67.5954C590.502 69.0753 582.486 72.0819 575.898 78.3491C569.07 84.8448 564.352 94.3118 564.352 107.375H580.352ZM600.361 83.1398C608.343 81.193 616.352 74.1207 616.352 64H600.352C600.352 64.4932 600.163 65.1524 599.492 65.8932C598.792 66.6648 597.739 67.3103 596.57 67.5954L600.361 83.1398ZM616.352 64V18.5H600.352V64H616.352ZM616.352 18.5C616.352 8.55886 608.293 0.5 598.352 0.5V16.5C599.456 16.5 600.352 17.3954 600.352 18.5H616.352ZM598.352 0.5H546.748V16.5H598.352V0.5ZM542.132 1.96615C537.886 4.9657 534.918 9.54382 533.712 14.4906L549.256 18.2819C549.601 16.8666 550.454 15.6766 551.364 15.0338L542.132 1.96615ZM533.712 14.4907C532.592 19.0803 530.53 24.1209 526.91 27.9256C523.519 31.4901 518.282 34.5 509.477 34.5V50.5C522.54 50.5 532.007 45.7818 538.503 38.9537C544.77 32.3658 547.776 24.3496 549.256 18.2818L533.712 14.4907ZM509.477 34.5C498.388 34.5 491.735 31.2113 487.57 27.4692C483.252 23.5903 480.897 18.5775 479.637 14.1551L464.25 18.5391C466.026 24.7753 469.605 32.8389 476.877 39.3719C484.302 46.0416 494.897 50.5 509.477 50.5V34.5ZM479.637 14.1552C478.276 9.37803 475.287 4.89824 471.056 1.9422L461.892 15.0578C462.871 15.7418 463.816 17.0162 464.25 18.539L479.637 14.1552ZM466.474 0.5H414.733V16.5H466.474V0.5ZM410.145 1.94637C405.911 4.9099 402.925 9.40647 401.59 14.213L417.006 18.4955C417.424 16.9907 418.354 15.7305 419.321 15.0536L410.145 1.94637ZM401.59 14.213C400.354 18.6638 398.05 23.6779 393.858 27.5412C389.833 31.2507 383.426 34.5 372.727 34.5V50.5C387.033 50.5 397.432 46.0056 404.701 39.3069C411.803 32.7619 415.282 24.7031 417.006 18.4955L401.59 14.213ZM372.727 34.5C362.051 34.5 355.688 31.2657 351.706 27.5858C347.558 23.7516 345.287 18.7686 344.075 14.3245L328.639 18.5349C330.333 24.7467 333.774 32.7989 340.847 39.3359C348.086 46.0271 358.455 50.5 372.727 50.5V34.5ZM344.075 14.3245C342.753 9.47663 339.755 4.93366 335.489 1.94686L326.312 15.0531C327.287 15.7356 328.224 17.012 328.639 18.5349L344.075 14.3245ZM330.901 0.5H283.11V16.5H330.901V0.5ZM278.534 1.9381C274.599 4.68224 271.733 8.74916 270.286 13.1621L285.489 18.1484C285.931 16.8002 286.791 15.686 287.686 15.0619L278.534 1.9381ZM270.286 13.1622C268.814 17.6482 266.163 22.9419 261.475 27.0785C256.943 31.0775 249.947 34.5 238.727 34.5V50.5C253.567 50.5 264.403 45.8329 272.061 39.076C279.563 32.4566 283.462 24.328 285.489 18.1483L270.286 13.1622ZM238.727 34.5C227.735 34.5 221.144 31.2208 217.013 27.4869C212.727 23.612 210.385 18.599 209.131 14.1696L193.737 18.5282C195.5 24.7574 199.054 32.8199 206.284 39.3559C213.67 46.0329 224.216 50.5 238.727 50.5V34.5ZM209.131 14.1696C207.777 9.38511 204.788 4.90116 200.557 1.94325L191.389 15.0567C192.365 15.739 193.307 17.0098 193.736 18.5282L209.131 14.1696ZM195.973 0.5H147.66V16.5H195.973V0.5ZM143.069 1.94821C138.643 5.04972 135.586 9.82302 134.322 14.8666L149.842 18.7561C150.248 17.1332 151.231 15.766 152.251 15.0518L143.069 1.94821ZM134.322 14.8666C133.22 19.2633 131.09 24.0873 127.11 27.7809C123.29 31.3256 117.052 34.5 106.352 34.5V50.5C120.544 50.5 130.838 46.1491 137.994 39.5091C144.989 33.0179 148.278 24.9975 149.842 18.7561L134.322 14.8666ZM106.352 34.5C95.5057 34.5 89.0069 31.2356 84.9292 27.5139C80.6902 23.6449 78.3675 18.6314 77.1222 14.1913L61.7166 18.5119C63.4607 24.7303 66.9769 32.791 74.1431 39.3316C81.4706 46.0195 91.9432 50.5 106.352 50.5V34.5ZM77.1222 14.1913C75.7773 9.39579 72.7898 4.90553 68.5576 1.94481L59.386 15.0552C60.3574 15.7347 61.2927 17.0003 61.7166 18.5119L77.1222 14.1913ZM63.9718 0.5H18.3516V16.5H63.9718V0.5ZM18.3516 0.5C8.41047 0.5 0.351562 8.55886 0.351562 18.5H16.3516C16.3516 17.3954 17.247 16.5 18.3516 16.5V0.5ZM0.351562 18.5V64H16.3516V18.5H0.351562ZM0.351562 64C0.351562 74.1207 8.36018 81.193 16.3422 83.1398L20.1334 67.5954C18.9643 67.3103 17.9106 66.6648 17.2116 65.8932C16.5406 65.1524 16.3516 64.4932 16.3516 64H0.351562ZM16.3422 83.1398C20.9319 84.2592 25.9725 86.3219 29.7772 89.9414C33.3416 93.3324 36.3516 98.5695 36.3516 107.375H52.3516C52.3516 94.3118 47.6333 84.8448 40.8052 78.3491C34.2174 72.0819 26.2011 69.0753 20.1334 67.5954L16.3422 83.1398ZM36.3516 107.375C36.3516 118.463 33.0628 125.116 29.3208 129.282C25.4419 133.6 20.4291 135.954 16.0067 137.214L20.3906 152.602C26.6269 150.825 34.6905 147.247 41.2234 139.974C47.8932 132.55 52.3516 121.955 52.3516 107.375H36.3516ZM16.0067 137.214C8.3539 139.394 0.351562 146.38 0.351562 156.5H16.3516C16.3516 156.016 16.5381 155.329 17.2573 154.521C18.0037 153.683 19.134 152.96 20.3906 152.602L16.0067 137.214ZM0.351562 196C0.351562 206.121 8.35507 213.12 16.0645 215.261L20.3471 199.845C19.1052 199.5 17.9878 198.79 17.2494 197.964C16.5385 197.168 16.3516 196.485 16.3516 196H0.351562ZM16.0645 215.261C20.5153 216.498 25.5295 218.802 29.3927 222.994C33.1023 227.019 36.3516 233.425 36.3516 244.125H52.3516C52.3516 229.819 47.8572 219.42 41.1584 212.151C34.6134 205.049 26.5547 201.57 20.3471 199.845L16.0645 215.261ZM36.3516 244.125C36.3516 254.801 33.1173 261.164 29.4374 265.145C25.6032 269.294 20.6202 271.564 16.1761 272.777L20.3865 288.213C26.5983 286.518 34.6505 283.078 41.1874 276.005C47.8786 268.765 52.3516 258.396 52.3516 244.125H36.3516ZM16.1652 272.78L16.1438 272.785L20.3761 288.215L20.3974 288.21L16.1652 272.78ZM18.1882 272.501C8.32138 272.589 0.351562 280.613 0.351562 290.5H16.3516C16.3516 289.402 17.2372 288.51 18.3317 288.5L18.1882 272.501ZM0.351562 336C0.351562 346.121 8.36017 353.193 16.3422 355.14L20.1334 339.595C18.9643 339.31 17.9106 338.665 17.2116 337.893C16.5406 337.152 16.3516 336.493 16.3516 336H0.351562ZM16.3422 355.14C20.8891 356.249 25.8833 358.285 29.677 361.847C33.236 365.188 36.2406 370.319 36.3486 378.898L52.3473 378.697C52.1856 365.851 47.4167 356.556 40.6288 350.182C34.0755 344.029 26.1496 341.063 20.1334 339.595L16.3422 355.14ZM36.3484 378.711C36.2325 389.437 32.955 395.891 29.2353 399.952C25.3752 404.166 20.4106 406.477 16.0211 407.72L20.3798 423.115C26.5547 421.367 34.5288 417.861 41.0339 410.759C47.6793 403.504 52.1934 393.143 52.3475 378.884L36.3484 378.711ZM16.0211 407.72C8.35418 409.891 0.351562 416.879 0.351562 427H16.3516C16.3516 426.516 16.5382 425.83 17.2553 425.025C17.9997 424.19 19.1268 423.47 20.3797 423.115L16.0211 407.72ZM0.351562 468C0.351562 478.121 8.35506 485.12 16.0645 487.261L20.3471 471.845C19.1052 471.5 17.9877 470.79 17.2494 469.964C16.5385 469.168 16.3516 468.485 16.3516 468H0.351562ZM16.0645 487.261C20.3407 488.449 25.1471 490.626 28.9446 494.521C32.5949 498.265 35.8272 504.109 36.2941 513.715L52.2752 512.938C51.631 499.686 46.9491 490.068 40.4005 483.351C33.999 476.786 26.3215 473.505 20.3471 471.845L16.0645 487.261ZM36.2939 512.942C35.8251 522.682 32.5767 528.61 28.9164 532.401C25.1142 536.338 20.3091 538.533 16.0428 539.729L20.3634 555.135C26.3479 553.457 34.028 550.141 40.426 543.515C46.966 536.742 51.6331 527.055 52.2754 513.711L36.2939 512.942ZM16.0428 539.729C8.35467 541.886 0.351562 548.879 0.351562 559H16.3516C16.3516 558.515 16.5383 557.831 17.2523 557.031C17.9938 556.2 19.1161 555.485 20.3635 555.135L16.0428 539.729ZM0.351562 599.605C0.351562 609.253 7.66604 616.156 15.0138 618.566L19.9999 603.363C18.8437 602.984 17.8313 602.284 17.1679 601.496C16.5283 600.736 16.3516 600.083 16.3516 599.605H0.351562ZM15.0138 618.566C19.4998 620.037 24.7935 622.688 28.93 627.376C32.9291 631.909 36.3516 638.904 36.3516 650.125H52.3516C52.3516 635.285 47.6845 624.449 40.9276 616.791C34.3082 609.288 26.1795 605.389 19.9999 603.363L15.0138 618.566ZM36.3516 650.125C36.3516 661.116 33.0724 667.708 29.3385 671.838C25.4636 676.124 20.4506 678.466 16.0211 679.72L20.3798 695.115C26.6089 693.351 34.6714 689.798 41.2074 682.568C47.8845 675.182 52.3516 664.636 52.3516 650.125H36.3516ZM16.0211 679.72C8.35417 681.891 0.351562 688.879 0.351562 699H16.3516C16.3516 698.516 16.5382 697.83 17.2553 697.025C17.9997 696.19 19.1269 695.47 20.3798 695.115L16.0211 679.72ZM153.777 755H189.852V739H153.777V755ZM289.246 755H324.782V739H289.246V755ZM420.852 755H460.352V739H420.852V755ZM616.352 735.075V699H600.352V735.075H616.352ZM616.352 599.605V559H600.352V599.605H616.352ZM616.352 468V427H600.352V468H616.352ZM616.352 336V290.5H600.352V336H616.352ZM616.352 196V156.5H600.352V196H616.352ZM0.351562 156.5V196H16.3516V156.5H0.351562ZM0.351562 290.5V336H16.3516V290.5H0.351562ZM0.351562 427V468H16.3516V427H0.351562ZM0.351562 559V599.605H16.3516V559H0.351562ZM0.351562 699V735.075H16.3516V699H0.351562Z" fill="#222222" mask="url(#path-1-outside-1_2848_1803)"/>
<rect x="101.352" y="106.5" width="414" height="541" rx="11" fill="#FFEDB0" stroke="#222222" stroke-width="8"/>
<mask id="mask0_2848_1803" style="mask-type:alpha" maskUnits="userSpaceOnUse" x="97" y="102" width="423" height="550">
<rect x="101.352" y="106.5" width="414" height="541" rx="11" fill="#FFEDB0" stroke="#222222" stroke-width="8"/>
</mask>
<g mask="url(#mask0_2848_1803)">
<path d="M446.297 290.694L413.63 284.934L409.88 306.2L442.547 311.96L446.297 290.694Z" fill="#DF614A" stroke="#313131" stroke-width="5.45762" stroke-linecap="round" stroke-linejoin="round"/>
<path d="M391.896 325.278C391.896 325.278 358.019 346.596 355.157 347.274C352.295 347.951 333.134 340.142 331.583 337.224C330.032 334.305 332.087 301.149 333.67 299.052C335.253 296.954 372.41 291.939 372.41 291.939L331.919 285.689C331.919 285.689 314.461 272.543 313.812 270.966C313.164 269.389 321.777 255.105 323.805 253.385C325.833 251.664 352.174 244.12 353.865 244.76C355.562 245.4 375.328 267.82 375.328 267.82C375.328 267.82 360.892 240.026 360.909 238.238C360.925 236.449 374.731 223.855 375.579 223.608C376.421 223.36 382.659 225.21 387.128 225.645C391.598 226.079 396.358 225.212 397.066 225.38C398.574 225.743 416.128 240.905 416.339 241.783C416.55 242.655 412.283 253.342 412.283 253.342C412.283 253.342 420.967 240.387 421.924 240.208C422.882 240.03 447.717 246.487 449.44 247.26C451.162 248.033 462.406 263.21 462.568 264.226C462.724 265.24 447.056 292.992 447.056 292.992C447.056 292.992 457.522 322.322 457.251 323.859C456.98 325.396 442.27 343.669 439.386 343.745C436.503 343.822 400.353 332.442 400.353 332.442L393.184 311.524" fill="#FE5139"/>
<path d="M447.056 292.992C447.056 292.992 462.724 265.24 462.568 264.226C462.406 263.21 451.162 248.033 449.44 247.26C447.717 246.487 422.882 240.03 421.924 240.208C420.967 240.387 412.283 253.342 412.283 253.342C412.283 253.342 416.55 242.655 416.339 241.783C416.128 240.905 398.574 225.743 397.066 225.38C396.358 225.212 391.598 226.079 387.128 225.645C382.659 225.21 376.421 223.36 375.579 223.608C374.731 223.855 360.925 236.449 360.909 238.238C360.892 240.026 375.328 267.82 375.328 267.82C375.328 267.82 355.562 245.4 353.865 244.76C352.174 244.12 325.833 251.664 323.805 253.385C321.777 255.105 313.164 269.389 313.812 270.966C314.461 272.543 331.919 285.689 331.919 285.689L372.41 291.939C372.41 291.939 335.253 296.954 333.67 299.052C332.087 301.149 330.032 334.305 331.583 337.224C333.134 340.142 352.295 347.951 355.157 347.274C358.019 346.596 391.896 325.278 391.896 325.278L393.184 311.524L400.353 332.442C400.353 332.442 436.503 343.822 439.386 343.745C442.27 343.669 456.98 325.396 457.251 323.859C457.522 322.322 447.056 292.992 447.056 292.992ZM447.056 292.992L426.911 290.902" stroke="#313131" stroke-width="5.45762" stroke-linecap="round" stroke-linejoin="round"/>
<path d="M393.153 303.189L392.237 312.261C392.23 312.331 392.24 312.402 392.267 312.467L400.359 332.268C400.408 332.388 400.508 332.479 400.632 332.517L422.263 339.115C422.748 339.263 423.044 338.596 422.609 338.335L405.578 328.144C405.504 328.099 405.445 328.033 405.409 327.954L393.971 303.053C393.788 302.655 393.197 302.753 393.153 303.189Z" fill="#AF3322" fill-opacity="0.6"/>
<path d="M403.075 269.779L413.077 253.705C413.103 253.664 413.121 253.619 413.132 253.572L415.834 241.609C415.867 241.459 415.819 241.303 415.706 241.198L410.041 235.978C409.737 235.698 409.251 235.966 409.327 236.373L410.943 245.045C410.957 245.12 410.951 245.197 410.925 245.268L402.305 269.408C402.132 269.892 402.803 270.216 403.075 269.779Z" fill="#AF3322" fill-opacity="0.6"/>
<path d="M376.111 267.514L382.029 280.846C382.224 281.284 381.662 281.663 381.328 281.319L361.573 260.967L352.046 244.9L354.011 245.247L375.934 267.256C376.008 267.33 376.068 267.418 376.111 267.514Z" fill="#AF3322" fill-opacity="0.6"/>
<path d="M446.952 293.882L410.908 290.148C410.425 290.098 410.383 289.411 410.855 289.302L426.629 285.649C426.694 285.634 426.76 285.634 426.824 285.649L447.543 290.489C447.765 290.541 447.908 290.758 447.868 290.982L447.419 293.529C447.38 293.751 447.176 293.905 446.952 293.882Z" fill="#AF3322" fill-opacity="0.6"/>
<path d="M382.21 292.444L372.553 291.066C372.504 291.059 372.454 291.06 372.406 291.07L334.077 298.966C333.904 299.002 333.771 299.139 333.74 299.312L333.098 302.955L331.905 309.719C331.837 310.106 332.281 310.374 332.592 310.132L342.905 302.123C342.955 302.084 343.013 302.057 343.075 302.043L382.243 293.288C382.709 293.184 382.682 292.511 382.21 292.444Z" fill="#AF3322" fill-opacity="0.6"/>
<path d="M447.056 292.992C447.056 292.992 462.724 265.24 462.568 264.226C462.406 263.21 451.162 248.033 449.44 247.26C447.717 246.487 422.882 240.03 421.924 240.208C420.967 240.387 412.283 253.342 412.283 253.342C412.283 253.342 416.55 242.655 416.339 241.783C416.128 240.905 398.574 225.743 397.066 225.38C396.358 225.212 391.598 226.079 387.128 225.645C382.659 225.21 376.421 223.36 375.579 223.608C374.731 223.855 360.925 236.449 360.909 238.238C360.892 240.026 375.328 267.82 375.328 267.82C375.328 267.82 355.562 245.4 353.865 244.76C352.174 244.12 325.833 251.664 323.805 253.385C321.777 255.105 313.164 269.389 313.812 270.966C314.461 272.543 331.919 285.689 331.919 285.689L372.41 291.939C372.41 291.939 335.253 296.954 333.67 299.052C332.087 301.149 330.032 334.305 331.583 337.224C333.134 340.142 352.295 347.951 355.157 347.274C358.019 346.596 391.896 325.278 391.896 325.278L393.184 311.524L400.353 332.442C400.353 332.442 436.503 343.822 439.386 343.745C442.27 343.669 456.98 325.396 457.251 323.859C457.522 322.322 447.056 292.992 447.056 292.992ZM447.056 292.992L426.911 290.902" stroke="#313131" stroke-width="5.45762" stroke-linecap="round" stroke-linejoin="round"/>
<path d="M386.397 276.152L388.155 289.547C388.155 289.547 388.919 290.187 390.282 289.922C391.646 289.656 391.898 288.226 391.898 288.226C391.898 288.226 390.253 279.026 390.097 276.805C389.94 274.583 386.397 276.152 386.397 276.152Z" fill="#FFD13C" stroke="#313131" stroke-width="5.45762" stroke-linecap="round" stroke-linejoin="round"/>
<path d="M395.602 264.579C396.206 261.156 393.92 257.891 390.497 257.288C387.073 256.684 383.808 258.97 383.205 262.393L382.232 267.912C381.628 271.335 383.914 274.6 387.337 275.204C390.761 275.807 394.026 273.521 394.629 270.098L395.602 264.579Z" fill="#FFD13C" stroke="#313131" stroke-width="5.45762" stroke-linecap="round" stroke-linejoin="round"/>
<path d="M390.943 259.354C391.111 259.195 392.013 259.737 392.646 260.488C393.642 261.657 393.773 263.082 393.826 263.763C393.884 264.488 393.733 265.347 393.44 267.037C393.131 268.786 392.975 269.672 392.67 270.319C392.36 270.993 391.579 272.673 390.211 273.052C389.858 273.151 388.812 273.345 388.812 273.345C390.406 270.861 390.613 270.453 390.613 270.453C391.42 268.868 391.655 267.456 391.798 266.591C391.929 265.767 392.175 264.239 391.877 262.572C391.648 261.282 391.359 260.54 391.359 260.54C391.081 259.819 390.832 259.458 390.943 259.359L390.943 259.354Z" fill="#AE8C1D"/>
<path d="M395.602 264.579C396.206 261.156 393.92 257.891 390.497 257.288C387.073 256.684 383.808 258.97 383.205 262.393L382.232 267.912C381.628 271.335 383.914 274.6 387.337 275.204C390.761 275.807 394.026 273.521 394.629 270.098L395.602 264.579Z" stroke="#313131" stroke-width="5.45762" stroke-linecap="round" stroke-linejoin="round"/>
<path d="M163.531 357.626L166.028 356.132L163.531 357.626C164.492 359.232 165.913 360.511 167.61 361.299L168.837 358.655L167.61 361.299C168.837 361.869 170.106 362.042 171.401 362.083C172.634 362.122 174.129 362.044 175.884 361.952L176.002 361.945L192.207 361.096L192.325 361.09C194.079 360.998 195.575 360.92 196.797 360.752C198.081 360.575 199.324 360.271 200.485 359.576L198.988 357.075L200.485 359.576C202.091 358.615 203.37 357.194 204.158 355.497C204.728 354.27 204.901 353.002 204.942 351.706C204.981 350.473 204.903 348.978 204.811 347.223L204.804 347.105L202.742 307.753C202.731 307.542 202.722 307.363 202.714 307.204C202.873 307.195 203.052 307.185 203.263 307.174L245.282 304.972C245.493 304.961 245.672 304.952 245.831 304.944C245.84 305.103 245.85 305.282 245.861 305.493L247.923 344.845L247.929 344.964C248.021 346.718 248.1 348.214 248.268 349.435C248.444 350.72 248.749 351.963 249.443 353.124C250.404 354.729 251.825 356.009 253.522 356.796L254.75 354.152L253.522 356.796C254.75 357.366 256.018 357.539 257.314 357.58C258.546 357.62 260.042 357.541 261.796 357.449L261.914 357.443L278.119 356.594L278.237 356.587C279.992 356.496 281.487 356.417 282.709 356.249C283.993 356.073 285.237 355.768 286.398 355.073L284.901 352.572L286.398 355.073C288.003 354.113 289.282 352.692 290.07 350.995C290.64 349.767 290.813 348.499 290.854 347.203C290.893 345.971 290.815 344.475 290.723 342.721L290.717 342.603L284.668 227.186L284.662 227.068C284.57 225.314 284.492 223.818 284.324 222.597C284.147 221.312 283.843 220.069 283.148 218.908C282.187 217.303 280.766 216.023 279.069 215.235C277.842 214.666 276.573 214.493 275.278 214.452C274.045 214.412 272.55 214.491 270.795 214.583L270.677 214.589L254.472 215.438L254.354 215.444C252.599 215.536 251.104 215.615 249.882 215.782C248.598 215.959 247.355 216.263 246.194 216.958L247.685 219.451L246.194 216.958C244.588 217.919 243.309 219.34 242.521 221.037C241.951 222.265 241.778 223.533 241.737 224.829C241.698 226.061 241.776 227.556 241.868 229.311L241.875 229.429L243.937 268.781C243.948 268.992 243.957 269.172 243.965 269.33C243.806 269.34 243.627 269.349 243.416 269.36L201.397 271.562C201.186 271.573 201.007 271.583 200.848 271.59C200.839 271.431 200.829 271.252 200.818 271.041L198.756 231.689L198.75 231.571C198.658 229.816 198.579 228.321 198.411 227.099C198.235 225.815 197.93 224.572 197.236 223.411C196.275 221.805 194.854 220.526 193.157 219.738C191.929 219.168 190.661 218.995 189.365 218.954C188.133 218.915 186.638 218.993 184.883 219.085L184.765 219.091L168.56 219.941L168.442 219.947C166.687 220.039 165.192 220.117 163.97 220.285C162.686 220.461 161.442 220.766 160.281 221.461C158.676 222.422 157.397 223.843 156.609 225.54C156.039 226.767 155.866 228.035 155.825 229.331C155.786 230.563 155.864 232.059 155.956 233.813L155.962 233.932L162.011 349.348L162.017 349.466C162.109 351.221 162.187 352.716 162.355 353.938C162.532 355.222 162.836 356.465 163.531 357.626Z" fill="#76D3EF" stroke="#313131" stroke-width="5.82988"/>
<path d="M232.556 427.269L232.565 427.274L232.574 427.28C233.615 427.867 234.517 428.579 235.293 429.416C238.46 432.833 243.571 437.125 249.759 435.996L269.964 432.308C276.203 431.169 281.048 424.887 278.564 418.251C276.355 412.349 273.138 407.183 268.911 402.784C262.675 396.2 254.718 391.723 245.155 389.302C235.571 386.876 224.842 386.8 213.03 388.956C201.442 391.071 191.406 394.916 182.993 400.554L182.988 400.557C174.634 406.179 168.432 413.088 164.504 421.301L164.502 421.305C160.578 429.537 159.554 438.481 161.345 448.027C163.447 459.804 169.047 468.684 178.273 474.282L178.281 474.287L178.289 474.292C187.275 479.661 198.573 482.471 212.018 482.904L212.021 482.905L226.755 483.363C226.757 483.363 226.759 483.363 226.76 483.363C232.164 483.55 236.379 484.02 239.472 484.733L239.49 484.737L239.508 484.741C242.622 485.418 244.584 486.348 245.712 487.318L245.746 487.347L245.78 487.375C246.915 488.292 247.622 489.436 247.937 490.921C248.195 492.584 247.932 494.107 247.137 495.587C246.345 497.062 244.937 498.504 242.672 499.833C240.461 501.131 237.453 502.181 233.54 502.895C228.916 503.739 224.945 503.723 221.569 502.958C218.275 502.194 215.652 500.717 213.592 498.563C212.959 497.901 212.377 497.167 211.847 496.356C208.997 491.994 203.762 487.715 197.437 488.869L177.72 492.468C171.423 493.617 166.777 499.845 168.84 506.431C171.402 514.611 175.227 521.432 180.383 526.791L180.391 526.798L180.398 526.805C187.324 533.904 196.032 538.473 206.405 540.552L206.41 540.553C216.739 542.604 228.255 542.428 240.909 540.118C253.216 537.872 263.592 534.202 271.943 529.025C280.351 523.833 286.509 517.305 290.244 509.404C294.001 501.456 294.922 492.502 293.179 482.675L293.175 482.656L293.172 482.636C292.082 476.946 290.182 471.796 287.442 467.217C284.721 462.583 281.066 458.653 276.516 455.433C271.944 452.156 266.444 449.655 260.079 447.883C253.688 446.103 246.297 445.119 237.941 444.89C237.939 444.89 237.938 444.89 237.937 444.89L225.805 444.529L225.792 444.529L225.78 444.528C222.365 444.455 219.443 444.211 216.996 443.81C214.551 443.409 212.617 442.866 211.138 442.223C209.702 441.556 208.729 440.808 208.088 440.043C207.496 439.239 207.095 438.252 206.936 437.001L206.93 436.955L206.923 436.909C206.682 435.401 206.89 434.054 207.522 432.778C208.113 431.587 209.259 430.352 211.263 429.167L211.275 429.16L211.288 429.152C213.252 427.964 216.058 426.972 219.843 426.281C225.786 425.196 229.877 425.731 232.556 427.269Z" fill="#7A65FD" stroke="#313131" stroke-width="5.82988"/>
<path d="M412.337 435.766L412.343 435.786L412.35 435.806C412.452 436.113 412.546 436.423 412.634 436.738C414.05 441.79 417.959 447.095 424.186 447.75L445.591 449.999C452.305 450.705 458.752 445.458 457.979 438.191C457.395 432.706 456.199 427.544 454.379 422.719C451.506 415.1 447.334 408.472 441.856 402.867C436.403 397.236 429.869 392.725 422.291 389.324C414.708 385.922 406.291 383.751 397.065 382.781C383.879 381.395 371.547 383.053 360.126 387.805C348.651 392.536 339.135 400.313 331.593 411.043C323.997 421.811 319.416 435.421 317.703 451.719C316 467.919 317.584 482.141 322.62 494.273L322.624 494.282C327.676 506.343 335.295 515.949 345.486 523.006L345.491 523.01C355.683 530.04 367.544 534.237 380.998 535.651C391.682 536.774 401.362 536.12 409.985 533.602C418.49 531.119 425.87 527.407 432.069 522.43L432.069 522.429C438.227 517.485 443.204 511.885 446.963 505.625L446.967 505.618C448.808 502.532 450.344 499.426 451.568 496.3C454.282 489.367 448.951 482.916 442.364 482.176L420.391 479.707C414.431 479.038 409.615 483.031 407.004 487.285C406.827 487.573 406.644 487.855 406.455 488.131L406.449 488.139L406.444 488.148C405.104 490.127 403.47 491.753 401.531 493.045C399.608 494.327 397.373 495.264 394.787 495.831C392.226 496.347 389.304 496.456 385.995 496.108C380.234 495.503 375.626 493.654 372.016 490.679C368.43 487.674 365.783 483.439 364.176 477.787C362.617 472.083 362.223 465.013 363.118 456.492C363.963 448.452 365.769 441.834 368.448 436.553C371.161 431.303 374.639 427.575 378.83 425.196C383.026 422.845 388.037 421.9 394.008 422.528C397.424 422.887 400.325 423.693 402.76 424.892L402.779 424.901L402.797 424.91C405.257 426.079 407.225 427.584 408.758 429.406L408.78 429.432L408.802 429.458C410.403 431.273 411.581 433.366 412.337 435.766Z" fill="#DB3FEB" stroke="#313131" stroke-width="5.82988"/>
<circle cx="306.852" cy="633" r="68" fill="#FFDB66" stroke="#FFD23C" stroke-width="5"/>
<circle cx="512.852" cy="579" r="68" fill="#FFDB66" stroke="#FFD23C" stroke-width="5"/>
<circle cx="97.8516" cy="140" r="68" fill="#FFDB66" stroke="#FFD23C" stroke-width="5"/>
<circle cx="266.852" cy="79" r="68" fill="#FFDB66" stroke="#FFD23C" stroke-width="5"/>
<circle cx="448.852" cy="128" r="68" fill="#FFDB66" stroke="#FFD23C" stroke-width="5"/>
<circle cx="547.852" cy="343" r="68" fill="#FFDB66" stroke="#FFD23C" stroke-width="5"/>
<circle cx="78.8516" cy="569" r="68" fill="#FFDB66" stroke="#FFD23C" stroke-width="5"/>
<circle cx="56.8516" cy="353" r="68" fill="#FFDB66" stroke="#FFD23C" stroke-width="5"/>
<circle cx="177.852" cy="651" r="43" fill="#FFDB66" stroke="#FFD23C" stroke-width="5"/>
<circle cx="73.8516" cy="445" r="43" fill="#FFDB66" stroke="#FFD23C" stroke-width="5"/>
<circle cx="425.852" cy="669" r="43" fill="#FFDB66" stroke="#FFD23C" stroke-width="5"/>
<circle cx="526.852" cy="456" r="43" fill="#FFDB66" stroke="#FFD23C" stroke-width="5"/>
<circle cx="517.352" cy="229.5" r="40.5" fill="#FFDB66" stroke="#FFD23C" stroke-width="5"/>
<circle cx="356.352" cy="94.5" r="22.5" fill="#FFDB66" stroke="#FFD23C" stroke-width="5"/>
<circle cx="182.352" cy="92.5" r="22.5" fill="#FFDB66" stroke="#FFD23C" stroke-width="5"/>
<circle cx="196.352" cy="148.5" r="19.5" fill="#FFDB66" stroke="#FFD23C" stroke-width="5"/>
<circle cx="132.352" cy="487.5" r="16.5" fill="#FFDB66" stroke="#FFD23C" stroke-width="5"/>
<circle cx="168.852" cy="585" r="13" fill="#FFDB66" stroke="#FFD23C" stroke-width="5"/>
<circle cx="406.352" cy="588.5" r="27.5" fill="#FFDB66" stroke="#FFD23C" stroke-width="5"/>
<circle cx="129.852" cy="409" r="13" fill="#FFDB66" stroke="#FFD23C" stroke-width="5"/>
<circle cx="453.852" cy="220" r="13" fill="#FFDB66" stroke="#FFD23C" stroke-width="5"/>
<circle cx="482.852" cy="407" r="13" fill="#FFDB66" stroke="#FFD23C" stroke-width="5"/>
<circle cx="343.852" cy="160" r="30" fill="#FFDB66" stroke="#FFD23C" stroke-width="5"/>
<circle cx="217.352" cy="586.5" r="20.5" fill="#FFDB66" stroke="#FFD23C" stroke-width="5"/>
<circle cx="105.352" cy="255.5" r="35.5" fill="#FFDB66" stroke="#FFD23C" stroke-width="5"/>
<rect x="101.352" y="106.5" width="414" height="541" rx="11" stroke="#222222" stroke-width="8"/>
</g>
</svg>
