<svg xmlns="http://www.w3.org/2000/svg" width="617" height="755" fill="none" viewBox="0 0 617 755"><mask id="path-1-outside-1_2848_1758" width="616" height="755" x=".352" y="0" fill="#000" maskUnits="userSpaceOnUse"><rect width="616" height="755" x=".352" fill="#fff"/><path d="M8.35156 734.575C8.35156 740.261 13.1473 744.888 18.6629 746.27C18.9524 746.342 19.2452 746.419 19.5408 746.5H57.8516C63.3744 746.5 67.928 741.966 69.4194 736.648C72.4087 725.99 81.0973 710.5 106.352 710.5C131.245 710.5 139.416 725.55 142.082 736.189C143.464 741.704 148.091 746.5 153.777 746.5H189.852C195.374 746.5 199.929 741.965 201.434 736.651C204.452 725.993 213.224 710.5 238.727 710.5C264.788 710.5 274.389 726.679 277.887 737.345C279.533 742.362 283.965 746.5 289.246 746.5H324.782C330.332 746.5 334.897 741.925 336.357 736.57C339.263 725.914 347.779 710.5 372.727 710.5C397.733 710.5 406.337 725.987 409.298 736.646C410.776 741.967 415.329 746.5 420.852 746.5H460.352C465.874 746.5 470.43 741.964 471.944 736.653C474.98 725.994 483.809 710.5 509.477 710.5C531.345 710.5 538.885 725.956 541.484 736.614C542.793 741.979 547.329 746.5 552.852 746.5H597.162C597.458 746.419 597.751 746.342 598.04 746.27C603.556 744.888 608.352 740.261 608.352 734.575V698.5C608.352 692.977 603.817 688.422 598.503 686.918C587.844 683.9 572.352 675.127 572.352 649.625C572.352 623.564 588.531 613.962 599.196 610.464C604.214 608.819 608.352 604.386 608.352 599.105V558.5C608.352 552.977 603.818 548.424 598.5 546.932C588.249 544.057 573.53 535.911 572.418 512.826C573.53 489.969 588.247 481.901 598.497 479.053C603.819 477.575 608.352 473.023 608.352 467.5V426.5C608.352 420.977 603.817 416.422 598.503 414.918C587.938 411.927 572.625 403.282 572.355 378.298C572.625 356.873 587.902 349.444 598.465 346.868C603.831 345.559 608.352 341.023 608.352 335.5V290C608.352 284.508 603.924 280.05 598.443 280L598.422 279.995C587.766 277.088 572.352 268.572 572.352 243.625C572.352 218.619 587.839 210.014 598.497 207.053C603.819 205.575 608.352 201.023 608.352 195.5V156C608.352 150.477 603.816 145.921 598.504 144.408C587.846 141.371 572.352 132.543 572.352 106.875C572.352 85.0063 587.808 77.4669 598.465 74.8676C603.831 73.559 608.352 69.0228 608.352 63.5V18C608.352 12.4772 603.874 8 598.352 8H546.748C544.17 9.82114 542.26 12.7052 541.484 15.8862C538.885 26.5436 531.345 42 509.477 42C483.809 42 474.98 26.5057 471.944 15.8471C471.046 12.6971 469.079 9.82 466.474 8H414.733C412.133 9.82022 410.175 12.6986 409.298 15.8543C406.337 26.5127 397.733 42 372.727 42C347.779 42 339.263 26.5856 336.357 15.9297C335.488 12.7443 333.521 9.83463 330.901 8H283.11C280.695 9.68413 278.832 12.2747 277.887 15.1553C274.389 25.8209 264.788 42 238.727 42C213.224 42 204.452 26.5075 201.434 15.8489C200.542 12.6975 198.577 9.82006 195.973 8H147.66C144.937 9.90785 142.917 12.9781 142.082 16.3113C139.416 26.9495 131.245 42 106.352 42C81.0973 42 72.4087 26.5101 69.4194 15.8516C68.535 12.698 66.5736 9.82014 63.9718 8H18.3516C12.8287 8 8.35156 12.4772 8.35156 18V63.5C8.35156 69.0228 12.8723 73.559 18.2378 74.8676C28.8952 77.4669 44.3516 85.0063 44.3516 106.875C44.3516 132.543 28.8573 141.371 18.1987 144.408C12.8871 145.921 8.35156 150.477 8.35156 156V195.5C8.35156 201.023 12.8845 205.575 18.2058 207.053C28.8642 210.014 44.3516 218.619 44.3516 243.625C44.3516 268.572 28.9372 277.088 18.2813 279.995L18.2599 280C12.7793 280.05 8.35156 284.508 8.35156 290V335.5C8.35156 341.023 12.8723 345.559 18.2378 346.868C28.8008 349.444 44.0783 356.873 44.348 378.298C44.0779 403.282 28.7648 411.927 18.2004 414.918C12.8865 416.422 8.35156 420.977 8.35156 426.5V467.5C8.35156 473.023 12.8845 477.575 18.2058 479.053C28.4564 481.901 43.1735 489.969 44.2847 512.826C43.1735 535.911 28.4539 544.057 18.2031 546.932C12.8855 548.424 8.35156 552.977 8.35156 558.5V599.105C8.35156 604.386 12.4891 608.819 17.5068 610.464C28.1725 613.962 44.3516 623.564 44.3516 649.625C44.3516 675.127 28.859 683.9 18.2004 686.918C12.8865 688.422 8.35156 692.977 8.35156 698.5V734.575Z"/></mask><path fill="#F4F4F4" d="M8.35156 734.575C8.35156 740.261 13.1473 744.888 18.6629 746.27C18.9524 746.342 19.2452 746.419 19.5408 746.5H57.8516C63.3744 746.5 67.928 741.966 69.4194 736.648C72.4087 725.99 81.0973 710.5 106.352 710.5C131.245 710.5 139.416 725.55 142.082 736.189C143.464 741.704 148.091 746.5 153.777 746.5H189.852C195.374 746.5 199.929 741.965 201.434 736.651C204.452 725.993 213.224 710.5 238.727 710.5C264.788 710.5 274.389 726.679 277.887 737.345C279.533 742.362 283.965 746.5 289.246 746.5H324.782C330.332 746.5 334.897 741.925 336.357 736.57C339.263 725.914 347.779 710.5 372.727 710.5C397.733 710.5 406.337 725.987 409.298 736.646C410.776 741.967 415.329 746.5 420.852 746.5H460.352C465.874 746.5 470.43 741.964 471.944 736.653C474.98 725.994 483.809 710.5 509.477 710.5C531.345 710.5 538.885 725.956 541.484 736.614C542.793 741.979 547.329 746.5 552.852 746.5H597.162C597.458 746.419 597.751 746.342 598.04 746.27C603.556 744.888 608.352 740.261 608.352 734.575V698.5C608.352 692.977 603.817 688.422 598.503 686.918C587.844 683.9 572.352 675.127 572.352 649.625C572.352 623.564 588.531 613.962 599.196 610.464C604.214 608.819 608.352 604.386 608.352 599.105V558.5C608.352 552.977 603.818 548.424 598.5 546.932C588.249 544.057 573.53 535.911 572.418 512.826C573.53 489.969 588.247 481.901 598.497 479.053C603.819 477.575 608.352 473.023 608.352 467.5V426.5C608.352 420.977 603.817 416.422 598.503 414.918C587.938 411.927 572.625 403.282 572.355 378.298C572.625 356.873 587.902 349.444 598.465 346.868C603.831 345.559 608.352 341.023 608.352 335.5V290C608.352 284.508 603.924 280.05 598.443 280L598.422 279.995C587.766 277.088 572.352 268.572 572.352 243.625C572.352 218.619 587.839 210.014 598.497 207.053C603.819 205.575 608.352 201.023 608.352 195.5V156C608.352 150.477 603.816 145.921 598.504 144.408C587.846 141.371 572.352 132.543 572.352 106.875C572.352 85.0063 587.808 77.4669 598.465 74.8676C603.831 73.559 608.352 69.0228 608.352 63.5V18C608.352 12.4772 603.874 8 598.352 8H546.748C544.17 9.82114 542.26 12.7052 541.484 15.8862C538.885 26.5436 531.345 42 509.477 42C483.809 42 474.98 26.5057 471.944 15.8471C471.046 12.6971 469.079 9.82 466.474 8H414.733C412.133 9.82022 410.175 12.6986 409.298 15.8543C406.337 26.5127 397.733 42 372.727 42C347.779 42 339.263 26.5856 336.357 15.9297C335.488 12.7443 333.521 9.83463 330.901 8H283.11C280.695 9.68413 278.832 12.2747 277.887 15.1553C274.389 25.8209 264.788 42 238.727 42C213.224 42 204.452 26.5075 201.434 15.8489C200.542 12.6975 198.577 9.82006 195.973 8H147.66C144.937 9.90785 142.917 12.9781 142.082 16.3113C139.416 26.9495 131.245 42 106.352 42C81.0973 42 72.4087 26.5101 69.4194 15.8516C68.535 12.698 66.5736 9.82014 63.9718 8H18.3516C12.8287 8 8.35156 12.4772 8.35156 18V63.5C8.35156 69.0228 12.8723 73.559 18.2378 74.8676C28.8952 77.4669 44.3516 85.0063 44.3516 106.875C44.3516 132.543 28.8573 141.371 18.1987 144.408C12.8871 145.921 8.35156 150.477 8.35156 156V195.5C8.35156 201.023 12.8845 205.575 18.2058 207.053C28.8642 210.014 44.3516 218.619 44.3516 243.625C44.3516 268.572 28.9372 277.088 18.2813 279.995L18.2599 280C12.7793 280.05 8.35156 284.508 8.35156 290V335.5C8.35156 341.023 12.8723 345.559 18.2378 346.868C28.8008 349.444 44.0783 356.873 44.348 378.298C44.0779 403.282 28.7648 411.927 18.2004 414.918C12.8865 416.422 8.35156 420.977 8.35156 426.5V467.5C8.35156 473.023 12.8845 477.575 18.2058 479.053C28.4564 481.901 43.1735 489.969 44.2847 512.826C43.1735 535.911 28.4539 544.057 18.2031 546.932C12.8855 548.424 8.35156 552.977 8.35156 558.5V599.105C8.35156 604.386 12.4891 608.819 17.5068 610.464C28.1725 613.962 44.3516 623.564 44.3516 649.625C44.3516 675.127 28.859 683.9 18.2004 686.918C12.8865 688.422 8.35156 692.977 8.35156 698.5V734.575Z"/><path fill="#222" d="M18.6629 746.27L20.6082 738.51L20.6076 738.51L18.6629 746.27ZM19.5408 746.5L17.4284 754.216L18.4655 754.5H19.5408V746.5ZM69.4194 736.648L77.1222 738.809L69.4194 736.648ZM142.082 736.189L149.842 734.244V734.244L142.082 736.189ZM201.434 736.651L193.737 734.472L201.434 736.651ZM277.887 737.345L270.286 739.838L277.887 737.345ZM336.357 736.57L344.075 738.675L336.357 736.57ZM409.298 736.646L417.006 734.504L409.298 736.646ZM471.944 736.653L464.25 734.461V734.461L471.944 736.653ZM541.484 736.614L533.712 738.509V738.509L541.484 736.614ZM597.162 746.5V754.5H598.238L599.275 754.216L597.162 746.5ZM598.04 746.27L596.096 738.51L596.095 738.51L598.04 746.27ZM598.503 686.918L600.682 679.22L598.503 686.918ZM599.196 610.464L596.703 602.863H596.703L599.196 610.464ZM598.5 546.932L600.66 539.229L600.66 539.229L598.5 546.932ZM572.418 512.826L564.428 512.438L564.409 512.824L564.428 513.211L572.418 512.826ZM598.497 479.053L596.356 471.345L598.497 479.053ZM598.503 414.918L596.323 422.615L598.503 414.918ZM572.355 378.298L564.356 378.197L564.355 378.291L564.356 378.384L572.355 378.298ZM598.465 346.868L600.361 354.64L598.465 346.868ZM598.443 280L596.327 287.715L597.331 287.991L598.371 288L598.443 280ZM598.422 279.995L600.538 272.28L600.527 272.277L598.422 279.995ZM598.497 207.053L600.639 214.761L598.497 207.053ZM598.504 144.408L596.312 152.102L598.504 144.408ZM598.465 74.8676L600.361 82.6398L598.465 74.8676ZM546.748 8V0H544.207L542.132 1.46615L546.748 8ZM541.484 15.8862L533.712 13.9906V13.9907L541.484 15.8862ZM471.944 15.8471L464.25 18.039L464.25 18.0391L471.944 15.8471ZM466.474 8L471.056 1.4422L468.992 0H466.474V8ZM414.733 8V0H412.211L410.145 1.44637L414.733 8ZM409.298 15.8543L417.006 17.9955V17.9955L409.298 15.8543ZM336.357 15.9297L344.075 13.8245V13.8245L336.357 15.9297ZM330.901 8L335.489 1.44686L333.423 0H330.901V8ZM283.11 8V0H280.596L278.534 1.4381L283.11 8ZM277.887 15.1553L270.286 12.6621L270.286 12.6622L277.887 15.1553ZM201.434 15.8489L193.736 18.0282L193.737 18.0282L201.434 15.8489ZM195.973 8L200.557 1.44325L198.492 0H195.973V8ZM147.66 8V0H145.136L143.069 1.44821L147.66 8ZM142.082 16.3113L149.842 18.2561V18.2561L142.082 16.3113ZM69.4194 15.8516L61.7166 18.0119L61.7166 18.0119L69.4194 15.8516ZM63.9718 8L68.5576 1.44481L66.4923 0H63.9718V8ZM18.2378 74.8676L16.3422 82.6398H16.3422L18.2378 74.8676ZM18.1987 144.408L20.3906 152.102H20.3906L18.1987 144.408ZM18.2058 207.053L16.0645 214.761H16.0645L18.2058 207.053ZM18.2813 279.995L16.1761 272.277L16.1652 272.28L18.2813 279.995ZM18.2599 280L18.3317 288L19.3724 287.991L20.3761 287.715L18.2599 280ZM18.2378 346.868L16.3422 354.64H16.3422L18.2378 346.868ZM44.348 378.298L52.3475 378.384L52.3485 378.291L52.3473 378.197L44.348 378.298ZM18.2004 414.918L20.3797 422.615H20.3798L18.2004 414.918ZM18.2058 479.053L20.3471 471.345H20.3471L18.2058 479.053ZM44.2847 512.826L52.2754 513.211L52.294 512.824L52.2752 512.438L44.2847 512.826ZM18.2031 546.932L16.0428 539.229L16.0428 539.229L18.2031 546.932ZM17.5068 610.464L19.9999 602.863H19.9999L17.5068 610.464ZM18.2004 686.918L16.0211 679.22H16.0211L18.2004 686.918ZM0.351562 734.575C0.351562 745.006 8.80579 752.047 16.7182 754.03L20.6076 738.51C19.2985 738.182 18.1032 737.459 17.31 736.602C16.5469 735.778 16.3516 735.071 16.3516 734.575H0.351562ZM16.7176 754.03C16.9532 754.089 17.1902 754.151 17.4284 754.216L21.6531 738.784C21.3001 738.687 20.9516 738.596 20.6082 738.51L16.7176 754.03ZM19.5408 754.5H57.8516V738.5H19.5408V754.5ZM57.8516 754.5C67.9724 754.5 74.966 746.497 77.1222 738.809L61.7166 734.488C61.3668 735.735 60.6519 736.858 59.821 737.599C59.0208 738.313 58.3363 738.5 57.8516 738.5V754.5ZM77.1222 738.809C78.3675 734.369 80.6902 729.355 84.9292 725.486C89.0069 721.764 95.5057 718.5 106.352 718.5V702.5C91.9432 702.5 81.4706 706.981 74.1431 713.668C66.9769 720.209 63.4607 728.27 61.7166 734.488L77.1222 738.809ZM106.352 718.5C117.052 718.5 123.29 721.674 127.11 725.219C131.09 728.913 133.22 733.737 134.322 738.133L149.842 734.244C148.278 728.002 144.989 719.982 137.994 713.491C130.838 706.851 120.544 702.5 106.352 702.5V718.5ZM134.322 738.133C136.305 746.046 143.346 754.5 153.777 754.5V738.5C153.28 738.5 152.574 738.305 151.749 737.542C150.892 736.748 150.17 735.553 149.842 734.244L134.322 738.133ZM189.852 754.5C199.972 754.5 206.961 746.497 209.131 738.83L193.737 734.472C193.382 735.725 192.662 736.852 191.827 737.596C191.022 738.313 190.336 738.5 189.852 738.5V754.5ZM209.131 738.83C210.385 734.401 212.727 729.388 217.013 725.513C221.144 721.779 227.735 718.5 238.727 718.5V702.5C224.216 702.5 213.67 706.967 206.284 713.644C199.054 720.18 195.5 728.243 193.737 734.472L209.131 738.83ZM238.727 718.5C249.947 718.5 256.943 721.922 261.475 725.922C266.164 730.058 268.814 735.352 270.286 739.838L285.489 734.852C283.462 728.672 279.563 720.543 272.061 713.924C264.403 707.167 253.567 702.5 238.727 702.5V718.5ZM270.286 739.838C272.695 747.185 279.598 754.5 289.246 754.5V738.5C288.769 738.5 288.115 738.323 287.355 737.684C286.567 737.02 285.868 736.008 285.489 734.852L270.286 739.838ZM324.782 754.5C334.954 754.5 341.962 746.423 344.075 738.675L328.639 734.465C328.297 735.717 327.586 736.846 326.755 737.593C325.956 738.312 325.27 738.5 324.782 738.5V754.5ZM344.075 738.675C345.287 734.231 347.558 729.248 351.706 725.414C355.688 721.734 362.051 718.5 372.727 718.5V702.5C358.455 702.5 348.086 706.973 340.847 713.664C333.774 720.201 330.333 728.253 328.639 734.465L344.075 738.675ZM372.727 718.5C383.426 718.5 389.833 721.749 393.858 725.459C398.05 729.322 400.354 734.336 401.59 738.787L417.006 734.504C415.282 728.297 411.803 720.238 404.701 713.693C397.432 706.994 387.033 702.5 372.727 702.5V718.5ZM401.59 738.787C403.732 746.497 410.73 754.5 420.852 754.5V738.5C420.366 738.5 419.684 738.313 418.888 737.602C418.061 736.864 417.351 735.746 417.006 734.504L401.59 738.787ZM460.352 754.5C470.472 754.5 477.457 746.498 479.637 738.845L464.25 734.461C463.892 735.718 463.168 736.848 462.33 737.594C461.523 738.313 460.835 738.5 460.352 738.5V754.5ZM479.637 738.845C480.897 734.422 483.252 729.41 487.57 725.531C491.735 721.789 498.388 718.5 509.477 718.5V702.5C494.897 702.5 484.302 706.958 476.877 713.628C469.605 720.161 466.026 728.225 464.25 734.461L479.637 738.845ZM509.477 718.5C518.282 718.5 523.519 721.51 526.91 725.074C530.53 728.879 532.592 733.92 533.712 738.509L549.256 734.718C547.776 728.65 544.77 720.634 538.503 714.046C532.007 707.218 522.54 702.5 509.477 702.5V718.5ZM533.712 738.509C535.659 746.491 542.731 754.5 552.852 754.5V738.5C552.358 738.5 551.699 738.311 550.958 737.64C550.187 736.941 549.541 735.887 549.256 734.718L533.712 738.509ZM552.852 754.5H597.162V738.5H552.852V754.5ZM599.275 754.216C599.513 754.151 599.75 754.089 599.986 754.03L596.095 738.51C595.751 738.596 595.403 738.687 595.05 738.784L599.275 754.216ZM599.985 754.03C607.897 752.047 616.352 745.006 616.352 734.575H600.352C600.352 735.071 600.156 735.778 599.393 736.602C598.6 737.459 597.405 738.182 596.096 738.51L599.985 754.03ZM616.352 698.5C616.352 688.379 608.349 681.391 600.682 679.22L596.323 694.615C597.576 694.97 598.703 695.69 599.448 696.525C600.165 697.33 600.352 698.016 600.352 698.5H616.352ZM600.682 679.22C596.253 677.966 591.24 675.624 587.365 671.338C583.631 667.208 580.352 660.616 580.352 649.625H564.352C564.352 664.136 568.819 674.682 575.496 682.068C582.032 689.298 590.094 692.851 596.323 694.615L600.682 679.22ZM580.352 649.625C580.352 638.404 583.774 631.409 587.773 626.876C591.91 622.188 597.203 619.537 601.689 618.066L596.703 602.863C590.524 604.889 582.395 608.788 575.776 616.291C569.019 623.949 564.352 634.785 564.352 649.625H580.352ZM601.689 618.066C609.037 615.656 616.352 608.753 616.352 599.105H600.352C600.352 599.583 600.175 600.236 599.535 600.996C598.872 601.784 597.859 602.484 596.703 602.863L601.689 618.066ZM616.352 558.5C616.352 548.379 608.348 541.386 600.66 539.229L596.34 554.635C597.587 554.985 598.709 555.7 599.451 556.531C600.165 557.331 600.352 558.015 600.352 558.5H616.352ZM600.66 539.229C596.394 538.033 591.589 535.838 587.787 531.901C584.126 528.11 580.878 522.182 580.409 512.442L564.428 513.211C565.07 526.555 569.737 536.242 576.277 543.015C582.675 549.641 590.355 552.957 596.34 554.635L600.66 539.229ZM580.409 513.215C580.876 503.609 584.108 497.765 587.758 494.021C591.556 490.126 596.362 487.949 600.639 486.761L596.356 471.345C590.382 473.005 582.704 476.286 576.303 482.851C569.754 489.568 565.072 499.186 564.428 512.438L580.409 513.215ZM600.639 486.761C608.348 484.62 616.352 477.621 616.352 467.5H600.352C600.352 467.985 600.165 468.668 599.454 469.464C598.715 470.29 597.598 471 596.356 471.345L600.639 486.761ZM616.352 426.5C616.352 416.379 608.349 409.391 600.682 407.22L596.323 422.615C597.576 422.97 598.703 423.69 599.448 424.525C600.165 425.33 600.352 426.016 600.352 426.5H616.352ZM600.682 407.22C596.293 405.977 591.328 403.666 587.468 399.452C583.748 395.391 580.471 388.937 580.355 378.211L564.356 378.384C564.51 392.643 569.024 403.004 575.669 410.259C582.174 417.361 590.148 420.867 596.323 422.615L600.682 407.22ZM580.355 378.398C580.463 369.819 583.467 364.688 587.026 361.347C590.82 357.785 595.814 355.749 600.361 354.64L596.57 339.095C590.554 340.563 582.628 343.529 576.074 349.682C569.286 356.056 564.517 365.351 564.356 378.197L580.355 378.398ZM600.361 354.64C608.343 352.693 616.352 345.621 616.352 335.5H600.352C600.352 335.993 600.163 336.652 599.492 337.393C598.792 338.165 597.739 338.81 596.57 339.095L600.361 354.64ZM616.352 290C616.352 280.113 608.382 272.089 598.515 272.001L598.371 288C599.466 288.01 600.352 288.902 600.352 290H616.352ZM600.559 272.285L600.538 272.28L596.306 287.71L596.327 287.715L600.559 272.285ZM600.527 272.277C596.083 271.064 591.1 268.794 587.266 264.645C583.586 260.664 580.352 254.301 580.352 243.625H564.352C564.352 257.896 568.824 268.265 575.516 275.505C582.053 282.578 590.105 286.018 596.317 287.713L600.527 272.277ZM580.352 243.625C580.352 232.925 583.601 226.519 587.31 222.494C591.174 218.302 596.188 215.998 600.639 214.761L596.356 199.345C590.148 201.07 582.09 204.549 575.545 211.651C568.846 218.92 564.352 229.319 564.352 243.625H580.352ZM600.639 214.761C608.348 212.62 616.352 205.621 616.352 195.5H600.352C600.352 195.985 600.165 196.668 599.454 197.464C598.715 198.29 597.598 199 596.356 199.345L600.639 214.761ZM616.352 156C616.352 145.88 608.349 138.894 600.696 136.714L596.312 152.102C597.569 152.46 598.699 153.183 599.446 154.021C600.165 154.829 600.352 155.516 600.352 156H616.352ZM600.696 136.714C596.274 135.454 591.261 133.1 587.382 128.782C583.64 124.616 580.352 117.963 580.352 106.875H564.352C564.352 121.455 568.81 132.05 575.48 139.474C582.013 146.747 590.076 150.325 596.312 152.102L600.696 136.714ZM580.352 106.875C580.352 98.0695 583.362 92.8324 586.926 89.4414C590.731 85.8219 595.771 83.7592 600.361 82.6398L596.57 67.0954C590.502 68.5753 582.486 71.5819 575.898 77.8491C569.07 84.3448 564.352 93.8118 564.352 106.875H580.352ZM600.361 82.6398C608.343 80.693 616.352 73.6207 616.352 63.5H600.352C600.352 63.9932 600.163 64.6524 599.492 65.3932C598.792 66.1648 597.739 66.8103 596.57 67.0954L600.361 82.6398ZM616.352 63.5V18H600.352V63.5H616.352ZM616.352 18C616.352 8.05886 608.293 0 598.352 0V16C599.456 16 600.352 16.8954 600.352 18H616.352ZM598.352 0H546.748V16H598.352V0ZM542.132 1.46615C537.886 4.4657 534.918 9.04382 533.712 13.9906L549.256 17.7819C549.601 16.3666 550.454 15.1766 551.364 14.5338L542.132 1.46615ZM533.712 13.9907C532.592 18.5803 530.53 23.6209 526.91 27.4256C523.519 30.9901 518.282 34 509.477 34V50C522.54 50 532.007 45.2818 538.503 38.4537C544.77 31.8658 547.776 23.8496 549.256 17.7818L533.712 13.9907ZM509.477 34C498.388 34 491.735 30.7113 487.57 26.9692C483.252 23.0903 480.897 18.0775 479.637 13.6551L464.25 18.0391C466.026 24.2753 469.605 32.3389 476.877 38.8719C484.302 45.5416 494.897 50 509.477 50V34ZM479.637 13.6552C478.276 8.87803 475.287 4.39824 471.056 1.4422L461.892 14.5578C462.871 15.2418 463.816 16.5162 464.25 18.039L479.637 13.6552ZM466.474 0H414.733V16H466.474V0ZM410.145 1.44637C405.911 4.4099 402.925 8.90647 401.59 13.713L417.006 17.9955C417.424 16.4907 418.354 15.2305 419.321 14.5536L410.145 1.44637ZM401.59 13.713C400.354 18.1638 398.05 23.1779 393.858 27.0412C389.833 30.7507 383.426 34 372.727 34V50C387.033 50 397.432 45.5056 404.701 38.8069C411.803 32.2619 415.282 24.2031 417.006 17.9955L401.59 13.713ZM372.727 34C362.051 34 355.688 30.7657 351.706 27.0858C347.558 23.2516 345.287 18.2686 344.075 13.8245L328.639 18.0349C330.333 24.2467 333.774 32.2989 340.847 38.8359C348.086 45.5271 358.455 50 372.727 50V34ZM344.075 13.8245C342.753 8.97663 339.755 4.43366 335.489 1.44686L326.312 14.5531C327.287 15.2356 328.224 16.512 328.639 18.0349L344.075 13.8245ZM330.901 0H283.11V16H330.901V0ZM278.534 1.4381C274.599 4.18224 271.733 8.24916 270.286 12.6621L285.489 17.6484C285.931 16.3002 286.791 15.186 287.686 14.5619L278.534 1.4381ZM270.286 12.6622C268.814 17.1482 266.163 22.4419 261.475 26.5785C256.943 30.5775 249.947 34 238.727 34V50C253.567 50 264.403 45.3329 272.061 38.576C279.563 31.9566 283.462 23.828 285.489 17.6483L270.286 12.6622ZM238.727 34C227.735 34 221.144 30.7208 217.013 26.9869C212.727 23.112 210.385 18.099 209.131 13.6696L193.737 18.0282C195.5 24.2574 199.054 32.3199 206.284 38.8559C213.67 45.5329 224.216 50 238.727 50V34ZM209.131 13.6696C207.777 8.88511 204.788 4.40116 200.557 1.44325L191.389 14.5567C192.365 15.239 193.307 16.5098 193.736 18.0282L209.131 13.6696ZM195.973 0H147.66V16H195.973V0ZM143.069 1.44821C138.643 4.54972 135.586 9.32302 134.322 14.3666L149.842 18.2561C150.248 16.6332 151.231 15.266 152.251 14.5518L143.069 1.44821ZM134.322 14.3666C133.22 18.7633 131.09 23.5873 127.11 27.2809C123.29 30.8256 117.052 34 106.352 34V50C120.544 50 130.838 45.6491 137.994 39.0091C144.989 32.5179 148.278 24.4975 149.842 18.2561L134.322 14.3666ZM106.352 34C95.5057 34 89.0069 30.7356 84.9292 27.0139C80.6902 23.1449 78.3675 18.1314 77.1222 13.6913L61.7166 18.0119C63.4607 24.2303 66.9769 32.291 74.1431 38.8316C81.4706 45.5195 91.9432 50 106.352 50V34ZM77.1222 13.6913C75.7773 8.89579 72.7898 4.40553 68.5576 1.44481L59.386 14.5552C60.3574 15.2347 61.2927 16.5003 61.7166 18.0119L77.1222 13.6913ZM63.9718 0H18.3516V16H63.9718V0ZM18.3516 0C8.41047 0 0.351562 8.05886 0.351562 18H16.3516C16.3516 16.8954 17.247 16 18.3516 16V0ZM0.351562 18V63.5H16.3516V18H0.351562ZM0.351562 63.5C0.351562 73.6207 8.36018 80.693 16.3422 82.6398L20.1334 67.0954C18.9643 66.8103 17.9106 66.1648 17.2116 65.3932C16.5406 64.6524 16.3516 63.9932 16.3516 63.5H0.351562ZM16.3422 82.6398C20.9319 83.7592 25.9725 85.8219 29.7772 89.4414C33.3416 92.8324 36.3516 98.0695 36.3516 106.875H52.3516C52.3516 93.8118 47.6333 84.3448 40.8052 77.8491C34.2174 71.5819 26.2011 68.5753 20.1334 67.0954L16.3422 82.6398ZM36.3516 106.875C36.3516 117.963 33.0628 124.616 29.3208 128.782C25.4419 133.1 20.4291 135.454 16.0067 136.714L20.3906 152.102C26.6269 150.325 34.6905 146.747 41.2234 139.474C47.8932 132.05 52.3516 121.455 52.3516 106.875H36.3516ZM16.0067 136.714C8.3539 138.894 0.351562 145.88 0.351562 156H16.3516C16.3516 155.516 16.5381 154.829 17.2573 154.021C18.0037 153.183 19.134 152.46 20.3906 152.102L16.0067 136.714ZM0.351562 195.5C0.351562 205.621 8.35507 212.62 16.0645 214.761L20.3471 199.345C19.1052 199 17.9878 198.29 17.2494 197.464C16.5385 196.668 16.3516 195.985 16.3516 195.5H0.351562ZM16.0645 214.761C20.5153 215.998 25.5295 218.302 29.3927 222.494C33.1023 226.519 36.3516 232.925 36.3516 243.625H52.3516C52.3516 229.319 47.8572 218.92 41.1584 211.651C34.6134 204.549 26.5547 201.07 20.3471 199.345L16.0645 214.761ZM36.3516 243.625C36.3516 254.301 33.1173 260.664 29.4374 264.645C25.6032 268.794 20.6202 271.064 16.1761 272.277L20.3865 287.713C26.5983 286.018 34.6505 282.578 41.1874 275.505C47.8786 268.265 52.3516 257.896 52.3516 243.625H36.3516ZM16.1652 272.28L16.1438 272.285L20.3761 287.715L20.3974 287.71L16.1652 272.28ZM18.1882 272.001C8.32138 272.089 0.351562 280.113 0.351562 290H16.3516C16.3516 288.902 17.2372 288.01 18.3317 288L18.1882 272.001ZM0.351562 335.5C0.351562 345.621 8.36017 352.693 16.3422 354.64L20.1334 339.095C18.9643 338.81 17.9106 338.165 17.2116 337.393C16.5406 336.652 16.3516 335.993 16.3516 335.5H0.351562ZM16.3422 354.64C20.8891 355.749 25.8833 357.785 29.677 361.347C33.236 364.688 36.2406 369.819 36.3486 378.398L52.3473 378.197C52.1856 365.351 47.4167 356.056 40.6288 349.682C34.0755 343.529 26.1496 340.563 20.1334 339.095L16.3422 354.64ZM36.3484 378.211C36.2325 388.937 32.955 395.391 29.2353 399.452C25.3752 403.666 20.4106 405.977 16.0211 407.22L20.3798 422.615C26.5547 420.867 34.5288 417.361 41.0339 410.259C47.6793 403.004 52.1934 392.643 52.3475 378.384L36.3484 378.211ZM16.0211 407.22C8.35418 409.391 0.351562 416.379 0.351562 426.5H16.3516C16.3516 426.016 16.5382 425.33 17.2553 424.525C17.9997 423.69 19.1268 422.97 20.3797 422.615L16.0211 407.22ZM0.351562 467.5C0.351562 477.621 8.35506 484.62 16.0645 486.761L20.3471 471.345C19.1052 471 17.9877 470.29 17.2494 469.464C16.5385 468.668 16.3516 467.985 16.3516 467.5H0.351562ZM16.0645 486.761C20.3407 487.949 25.1471 490.126 28.9446 494.021C32.5949 497.765 35.8272 503.609 36.2941 513.215L52.2752 512.438C51.631 499.186 46.9491 489.568 40.4005 482.851C33.999 476.286 26.3215 473.005 20.3471 471.345L16.0645 486.761ZM36.2939 512.442C35.8251 522.182 32.5767 528.11 28.9164 531.901C25.1142 535.838 20.3091 538.033 16.0428 539.229L20.3634 554.635C26.3479 552.957 34.028 549.641 40.426 543.015C46.966 536.242 51.6331 526.555 52.2754 513.211L36.2939 512.442ZM16.0428 539.229C8.35467 541.386 0.351562 548.379 0.351562 558.5H16.3516C16.3516 558.015 16.5383 557.331 17.2523 556.531C17.9938 555.7 19.1161 554.985 20.3635 554.635L16.0428 539.229ZM0.351562 599.105C0.351562 608.753 7.66604 615.656 15.0138 618.066L19.9999 602.863C18.8437 602.484 17.8313 601.784 17.1679 600.996C16.5283 600.236 16.3516 599.583 16.3516 599.105H0.351562ZM15.0138 618.066C19.4998 619.537 24.7935 622.188 28.93 626.876C32.9291 631.409 36.3516 638.404 36.3516 649.625H52.3516C52.3516 634.785 47.6845 623.949 40.9276 616.291C34.3082 608.788 26.1795 604.889 19.9999 602.863L15.0138 618.066ZM36.3516 649.625C36.3516 660.616 33.0724 667.208 29.3385 671.338C25.4636 675.624 20.4506 677.966 16.0211 679.22L20.3798 694.615C26.6089 692.851 34.6714 689.298 41.2074 682.068C47.8845 674.682 52.3516 664.136 52.3516 649.625H36.3516ZM16.0211 679.22C8.35417 681.391 0.351562 688.379 0.351562 698.5H16.3516C16.3516 698.016 16.5382 697.33 17.2553 696.525C17.9997 695.69 19.1269 694.97 20.3798 694.615L16.0211 679.22ZM153.777 754.5H189.852V738.5H153.777V754.5ZM289.246 754.5H324.782V738.5H289.246V754.5ZM420.852 754.5H460.352V738.5H420.852V754.5ZM616.352 734.575V698.5H600.352V734.575H616.352ZM616.352 599.105V558.5H600.352V599.105H616.352ZM616.352 467.5V426.5H600.352V467.5H616.352ZM616.352 335.5V290H600.352V335.5H616.352ZM616.352 195.5V156H600.352V195.5H616.352ZM0.351562 156V195.5H16.3516V156H0.351562ZM0.351562 290V335.5H16.3516V290H0.351562ZM0.351562 426.5V467.5H16.3516V426.5H0.351562ZM0.351562 558.5V599.105H16.3516V558.5H0.351562ZM0.351562 698.5V734.575H16.3516V698.5H0.351562Z" mask="url(#path-1-outside-1_2848_1758)"/><rect width="414" height="541" x="101.352" y="106" fill="#85DBF4" stroke="#222" stroke-width="8" rx="11"/><mask id="mask0_2848_1758" style="mask-type:alpha" width="423" height="549" x="97" y="102" maskUnits="userSpaceOnUse"><rect width="414" height="541" x="101.352" y="106" fill="#BFF0FF" stroke="#222" stroke-width="8" rx="11"/></mask><g mask="url(#mask0_2848_1758)"><path fill="#BFF0FF" d="M522.5 704.218L82 163.218L116.5 87.2179L530.5 694.218L522.5 704.218Z"/><path fill="#BFF0FF" d="M532.52 697.445L-163.727 653.161L-196.059 576.214L530.617 684.781L532.52 697.445Z"/><path fill="#BFF0FF" d="M522.455 702.253L192.924 87.3299L241.253 19.2815L532.211 693.958L522.455 702.253Z"/><path fill="#BFF0FF" d="M531.048 696.144L-144.058 520.208L-161.16 438.515L531.589 683.349L531.048 696.144Z"/><path fill="#BFF0FF" d="M515.864 702.615L329.613 30.2818L391.722 -25.4742L527.206 696.668L515.864 702.615Z"/><path fill="#BFF0FF" d="M526.835 701.225L-93.0618 381.149L-91.7825 297.694L530.176 688.863L526.835 701.225Z"/><path fill="#BFF0FF" d="M519.353 701.032L465.27 5.47734L536.904 -37.3561L531.624 697.366L519.353 701.032Z"/><path fill="#BFF0FF" d="M528.043 697.59L-19.1058 264.751L-1.87242 183.085L533.689 686.095L528.043 697.59Z"/><path stroke="#76D3EF" stroke-linecap="round" stroke-linejoin="round" stroke-width="5" d="M522.5 704.218L82 163.218L116.5 87.2179L530.5 694.218L522.5 704.218Z"/><path stroke="#76D3EF" stroke-linecap="round" stroke-linejoin="round" stroke-width="5" d="M532.52 697.445L-163.727 653.161L-196.059 576.214L530.617 684.781L532.52 697.445Z"/><path stroke="#76D3EF" stroke-linecap="round" stroke-linejoin="round" stroke-width="5" d="M522.455 702.253L192.924 87.3299L241.253 19.2815L532.211 693.958L522.455 702.253Z"/><path stroke="#76D3EF" stroke-linecap="round" stroke-linejoin="round" stroke-width="5" d="M531.048 696.144L-144.058 520.208L-161.16 438.515L531.589 683.349L531.048 696.144Z"/><path stroke="#76D3EF" stroke-linecap="round" stroke-linejoin="round" stroke-width="5" d="M515.864 702.615L329.613 30.2818L391.722 -25.4742L527.206 696.668L515.864 702.615Z"/><path stroke="#76D3EF" stroke-linecap="round" stroke-linejoin="round" stroke-width="5" d="M526.835 701.225L-93.0618 381.149L-91.7825 297.694L530.176 688.863L526.835 701.225Z"/><path stroke="#76D3EF" stroke-linecap="round" stroke-linejoin="round" stroke-width="5" d="M519.353 701.032L465.27 5.47734L536.904 -37.3561L531.624 697.366L519.353 701.032Z"/><path stroke="#76D3EF" stroke-linecap="round" stroke-linejoin="round" stroke-width="5" d="M528.043 697.59L-19.1058 264.751L-1.87242 183.085L533.689 686.095L528.043 697.59Z"/><path fill="#EB93F4" d="M460.036 648.102C468.554 678.063 474.649 699.676 475.423 703.268C475.517 703.683 475.828 705.272 477.075 706.91C477.482 707.463 478.996 709.398 481.821 710.347C483.601 710.938 485.092 710.813 488.074 710.564C492.677 710.186 495.86 709.079 497.756 708.263C499.389 707.56 500.218 707.198 500.833 706.466C502.56 704.435 502.231 701.034 500.376 699.028C498.503 697.01 495.434 696.755 492.812 696.529C490.328 696.327 490.195 696.771 489.126 696.493C485.821 695.611 485.445 690.904 483.094 681.088C482.506 678.605 483.243 681.884 479.803 668.558C478.31 662.824 477.567 659.913 477.061 657.745C476.29 654.445 475.244 649.752 474.215 644"/><path stroke="#303131" stroke-linecap="round" stroke-linejoin="round" stroke-width="7" d="M460.036 648.102C468.554 678.063 474.649 699.676 475.423 703.268C475.517 703.683 475.828 705.272 477.075 706.91C477.482 707.463 478.996 709.398 481.821 710.347C483.601 710.938 485.092 710.813 488.074 710.564C492.677 710.186 495.86 709.079 497.756 708.263C499.389 707.56 500.218 707.198 500.833 706.466C502.56 704.435 502.231 701.034 500.376 699.028C498.503 697.01 495.434 696.755 492.812 696.529C490.328 696.327 490.195 696.771 489.126 696.493C485.821 695.611 485.445 690.904 483.094 681.088C482.506 678.605 483.243 681.884 479.803 668.558C478.31 662.824 477.567 659.913 477.061 657.745C476.29 654.445 475.244 649.752 474.215 644"/><path stroke="#303131" stroke-linecap="round" stroke-linejoin="round" stroke-width="7" d="M462.598 424.247L475.684 430.8"/><path fill="#DB3FEB" stroke="#303131" stroke-linecap="round" stroke-linejoin="round" stroke-width="7" d="M261.37 491.43L282.279 571.743L296.399 575.741C299.191 576.787 303.974 579.013 308.258 583.653C316.548 592.597 316.693 603.676 316.693 606.826C316.674 616.541 312.655 623.607 310.291 627.636C303.04 640.01 296.647 638.687 293.107 647.708C290.84 653.513 292.737 661.587 296.545 677.732C298.101 684.328 301.114 695.115 304.367 706.82C305.015 710.547 332.6 701.681 343.671 698.858C370.979 691.909 374.423 690.793 379.124 687.357C397.602 673.832 394.072 654.421 406.785 650.877C424.209 646.018 430.769 671.495 444.211 670.412C457.667 669.325 526.705 648.935 526.705 648.935C526.705 648.935 525.684 644.675 524.101 638.203C520.002 621.445 519.737 621.045 518.165 614.219C515.332 601.877 513.381 592.528 513.381 592.528C511.221 582.091 510.732 578.864 507.667 575.81C503.893 572.061 500.912 573.379 493.611 570.315C488.909 568.346 477.821 563.675 474.401 553.8C470.86 543.576 477.411 533.126 478.941 530.677C482.428 525.112 485.023 524.729 487.857 520.872C494.453 511.89 491.35 499.017 487.455 484.169C482 463.385 476.705 445.239 471.998 430.031C465.197 431.699 454.902 434.292 442.411 437.734C413.52 445.695 412.083 447.373 405.306 446.999C380.701 445.598 373.731 421.752 359.767 425.387C345.803 429.023 351.11 452.892 329.77 468.759C323.954 473.085 314.686 476.026 296.158 481.933C281.887 486.469 269.832 489.505 261.363 491.461L261.37 491.43Z"/><path fill="#303131" d="M359.561 547.64C362.631 549.174 366.364 547.928 367.898 544.858C369.432 541.787 368.187 538.054 365.116 536.52C362.046 534.986 358.313 536.232 356.779 539.302C355.245 542.373 356.49 546.106 359.561 547.64Z"/><path fill="#303131" d="M407.953 537.153C411.031 538.481 414.603 537.063 415.931 533.985C417.259 530.906 415.841 527.334 412.763 526.006C409.684 524.678 406.112 526.096 404.784 529.175C403.456 532.253 404.874 535.825 407.953 537.153Z"/><path stroke="#303131" stroke-linecap="round" stroke-linejoin="round" stroke-width="7" d="M391.437 541.371C391.437 541.371 395.423 545.808 394.419 547.129C393.41 548.445 390.556 549.436 390.556 549.436"/><path stroke="#303131" stroke-linecap="round" stroke-linejoin="round" stroke-width="7" d="M429.097 519.601C427.31 517.522 423.75 513.988 418.43 512.138C413.414 510.394 409.118 510.941 406.724 511.474"/><path stroke="#303131" stroke-linecap="round" stroke-linejoin="round" stroke-width="7" d="M346.368 537.706C347.186 535.291 349.029 531.003 352.979 527.543C356.703 524.281 360.605 523.24 362.858 522.857"/><path fill="#E9FFC5" d="M323.725 475.823C319.171 505.346 315.951 526.653 315.635 530.157C315.596 530.567 315.479 532.11 314.497 533.825C314.165 534.396 312.97 536.427 310.378 537.66C308.761 538.434 307.325 538.489 304.449 538.613C300.021 538.805 296.852 538.118 294.949 537.583C293.31 537.111 292.469 536.872 291.794 536.24C289.906 534.506 289.82 531.236 291.342 529.105C292.881 526.962 295.777 526.355 298.246 525.835C300.598 525.343 300.771 525.766 301.753 525.365C304.788 524.133 304.593 519.619 305.655 509.98C305.932 507.543 305.61 510.76 307.312 497.66C308.05 492.024 308.41 489.17 308.632 487.04C308.983 483.812 309.413 479.223 309.704 473.614"/><path stroke="#303131" stroke-linecap="round" stroke-linejoin="round" stroke-width="7" d="M323.725 475.823C319.171 505.346 315.951 526.653 315.635 530.157C315.596 530.567 315.479 532.11 314.497 533.825C314.165 534.396 312.97 536.427 310.378 537.66C308.761 538.434 307.325 538.489 304.449 538.613C300.021 538.805 296.852 538.118 294.949 537.583C293.31 537.111 292.469 536.872 291.794 536.24C289.906 534.506 289.82 531.236 291.342 529.105C292.881 526.962 295.777 526.355 298.246 525.835C300.598 525.343 300.771 525.766 301.753 525.365C304.788 524.133 304.593 519.619 305.655 509.98C305.932 507.543 305.61 510.76 307.312 497.66C308.05 492.024 308.41 489.17 308.632 487.04C308.983 483.812 309.413 479.223 309.704 473.614"/><path fill="#E9FFC5" stroke="#303131" stroke-linecap="round" stroke-linejoin="round" stroke-width="7" d="M223.153 433.35C222.107 440.301 222.359 445.04 222.509 446.963C222.812 451 223.425 452.789 223.788 453.734C224.458 455.464 225.543 458.169 228.363 460.335C229.824 461.449 232.219 463.388 235.142 462.803C237.633 462.301 238.982 460.28 239.083 460.107C240.076 458.575 240.07 456.979 240.071 456.306C240.066 455.501 239.808 454.397 239.168 452.22C238.816 451.037 238.588 450.218 238.301 449.34C238.014 448.463 237.774 447.822 237.736 447.73C235.736 442.245 236.571 433.972 236.571 433.972C237.197 427.716 238.876 422.461 238.876 422.461C240.017 418.912 241.181 416.632 240.027 415.013C239.292 413.989 237.945 413.71 235.251 413.152C232.54 412.583 231.19 412.349 230.073 412.727C228.304 413.305 227.388 415.184 225.268 423.865C224.095 428.696 223.492 431.109 223.157 433.364L223.153 433.35Z"/><path fill="#E9FFC5" d="M422.931 437.269C449.068 455.631 467.882 468.901 470.826 471.262C471.172 471.534 472.448 472.597 474.491 473.098C475.176 473.268 477.625 473.838 480.493 472.764C482.287 472.096 483.391 471.026 485.604 468.905C489.019 465.629 490.844 462.696 491.825 460.813C492.676 459.204 493.108 458.378 493.13 457.391C493.191 454.655 490.733 452.159 487.957 451.77C485.158 451.364 482.549 453.139 480.329 454.673C478.215 456.109 478.406 456.567 477.362 457.029C474.162 458.458 470.823 454.961 462.605 448.647C460.527 447.047 463.236 449.2 451.884 440.808C446.987 437.203 444.519 435.368 442.715 433.969C439.969 431.842 436.117 428.777 431.569 424.866"/><path stroke="#303131" stroke-linecap="round" stroke-linejoin="round" stroke-width="7" d="M422.931 437.269C449.068 455.631 467.882 468.902 470.826 471.262C471.172 471.534 472.448 472.597 474.491 473.098C475.176 473.268 477.625 473.838 480.493 472.764C482.287 472.096 483.391 471.026 485.604 468.905C489.019 465.629 490.844 462.696 491.825 460.813C492.676 459.204 493.108 458.378 493.13 457.391C493.191 454.655 490.733 452.159 487.957 451.77C485.158 451.364 482.549 453.139 480.329 454.673C478.215 456.109 478.406 456.567 477.362 457.029C474.162 458.458 470.823 454.961 462.605 448.647C460.527 447.047 463.236 449.2 451.884 440.808C446.987 437.203 444.519 435.368 442.715 433.969C439.969 431.842 436.117 428.777 431.569 424.866"/><path fill="#C2FA67" stroke="#303131" stroke-linecap="round" stroke-linejoin="round" stroke-width="7" d="M266.622 493.236C271.341 492.007 284.173 488.637 302.302 483.844C319.746 479.229 328.565 476.816 333.478 471.553C338.116 466.581 336.612 464.688 346.203 448.98C354.561 435.291 357.578 433.656 359.919 432.974C366.265 431.131 372.627 434.865 380.518 439.519C391.482 445.965 392.759 450.7 400.868 452.763C406.593 454.217 411.472 453.269 416.319 452.139C436.45 447.439 457.851 439.231 468.302 435.046C462.552 408.626 450.37 378.095 453.064 357.05C453.064 357.05 462.459 352.685 467.544 346.338C474.256 337.97 471.79 323.438 471.648 322.611C470.361 314.626 466.477 313.323 464.147 310.957C456.154 302.814 450.726 305.37 443.959 299.911C435.67 293.222 439.512 285.924 431.062 251.61C428.098 239.551 428.185 242.135 426.587 237.63C423.398 228.588 420.23 221.313 417.979 216.436C396.131 222.476 359.916 229.195 349.665 223.969C346.169 222.184 343.036 219.66 343.036 219.66C342.544 219.29 341.81 218.72 338.704 216.072C333.057 211.259 332.84 210.876 331.199 209.692C329.571 208.505 327.044 206.673 323.588 205.493C316.544 203.079 310.002 204.841 307.391 205.726C305.211 206.469 301.216 207.831 297.927 211.514C296.737 212.849 295.547 214.58 293.146 221.562C290.552 229.092 290.4 231.489 288.792 236.17C287.889 238.778 286.499 242.216 284.275 246.163C283.021 248.379 280.933 250.036 278.493 250.847C256.024 258.381 233.558 265.929 211.079 273.481C218.409 302.14 225.738 330.8 233.064 359.445C229.589 361.229 223.923 364.725 219.257 371.052C217.754 373.098 207.897 386.488 212.685 399.141C216.944 410.38 231.506 417.764 247.854 415.295L266.595 493.243L266.622 493.236Z"/><path fill="#303131" d="M375.783 351.277C373.496 354.225 369.253 354.76 366.306 352.473C363.359 350.186 362.824 345.943 365.11 342.996C367.397 340.049 371.64 339.514 374.587 341.801C377.534 344.087 378.07 348.33 375.783 351.277Z"/><path fill="#303131" d="M323.44 363.764C321.049 366.513 316.882 366.803 314.133 364.412C311.384 362.021 311.094 357.854 313.485 355.105C315.876 352.356 320.043 352.065 322.792 354.456C325.541 356.848 325.831 361.014 323.44 363.764Z"/><path stroke="#303131" stroke-linecap="round" stroke-linejoin="round" stroke-width="7" d="M344.604 352.42C344.604 352.42 344.339 366.434 346.032 367.052C347.729 367.663 350.92 366.891 350.92 366.891"/><path stroke="#303131" stroke-linecap="round" stroke-linejoin="round" stroke-width="7" d="M295.857 351.249C296.629 348.371 298.456 343.234 302.798 338.919C306.891 334.852 311.358 333.367 313.954 332.764"/><path stroke="#303131" stroke-linecap="round" stroke-linejoin="round" stroke-width="7" d="M380.286 322.129C377.95 320.64 373.47 318.26 367.769 318.016C362.394 317.787 358.379 319.56 356.208 320.769"/><path fill="#E9FFC5" stroke="#303131" stroke-linecap="round" stroke-linejoin="round" stroke-width="7" d="M336.192 388.484C336.848 386.037 343.659 387.654 353.336 385.164C363.941 382.447 368.572 377.21 370.513 379.035C372.327 380.759 369.806 386.883 367.131 390.304C366.777 390.753 365.29 392.601 362.767 394.301C360.578 395.78 358.621 396.455 357.824 396.714C356.702 397.068 354.609 397.628 351.96 397.609C345.857 397.574 341.606 394.533 340.642 393.809C338.527 392.221 335.751 390.146 336.192 388.484Z"/><path fill="#E9FFC5" d="M236.821 278.296C238.233 277.474 239.521 276.963 246.091 275.253C250.933 273.992 250.296 274.246 251.074 273.97C254.041 272.934 255.335 271.938 257.439 272.313C257.883 272.388 259.684 272.724 260.039 273.862C260.362 274.935 259.25 276.118 258.766 276.625C256.932 278.523 254.787 278.95 249.658 280.007C248.405 280.26 244.381 281.117 239.84 282.973C238.714 283.427 237.445 284.065 236.873 285.357C236.6 285.999 236.542 286.673 237.21 290.029C237.919 293.594 238.312 294.488 237.75 295.645C237.399 296.38 236.631 297.254 235.713 297.274C235.407 297.28 234.743 297.204 233.672 295.959C231.69 293.634 231.325 290.829 231.201 289.675C231.08 288.593 230.906 286.91 231.484 284.856C231.986 283.07 232.816 281.872 233.071 281.499C233.566 280.813 234.558 279.617 236.835 278.292L236.821 278.296Z"/><path fill="#E9FFC5" d="M267.719 273.929C266.477 274.164 264.706 273.717 264.347 272.507C264.005 271.307 265.233 270.006 266.374 269.548C267.939 268.921 270.138 269.549 270.477 270.794C270.795 272.015 269.308 273.617 267.719 273.929Z"/><path fill="#E9FFC5" d="M448.285 422.013C448.221 420.36 447.981 418.987 445.947 412.413C444.453 407.573 444.573 408.26 444.389 407.443C443.699 404.342 443.841 402.694 442.427 401.085C442.135 400.751 440.894 399.36 439.755 399.657C438.685 399.935 438.281 401.534 438.123 402.22C437.505 404.797 438.282 406.88 440.09 411.858C440.539 413.074 441.942 417 442.79 421.891C443.005 423.109 443.143 424.538 442.35 425.711C441.956 426.282 441.421 426.7 438.259 427.889C434.912 429.156 433.937 429.293 433.271 430.389C432.851 431.084 432.525 432.194 432.987 433.012C433.144 433.278 433.545 433.804 435.166 434.07C438.162 434.55 440.698 433.377 441.728 432.889C442.693 432.433 444.199 431.689 445.617 430.104C446.855 428.727 447.413 427.381 447.584 426.97C447.906 426.183 448.384 424.697 448.279 422.044L448.285 422.013Z"/><path fill="#E9FFC5" d="M437.716 393.845C436.474 394.08 434.703 393.633 434.344 392.423C434.002 391.223 435.23 389.922 436.371 389.464C437.936 388.837 440.135 389.465 440.474 390.71C440.792 391.931 439.305 393.534 437.716 393.845Z"/><path fill="#E9FFC5" stroke="#303131" stroke-linecap="round" stroke-linejoin="round" stroke-width="7" d="M478.252 365.862C482.555 371.421 484.645 375.68 485.453 377.433C487.156 381.105 487.494 382.965 487.638 383.968C487.896 385.804 488.268 388.696 486.863 391.961C486.13 393.646 484.985 396.507 482.148 397.422C479.728 398.198 477.565 397.092 477.392 396.99C475.778 396.136 475.005 394.741 474.676 394.153C474.288 393.448 473.975 392.358 473.472 390.146C473.202 388.942 473.002 388.115 472.824 387.209C472.647 386.303 472.544 385.627 472.533 385.527C471.604 379.764 466.841 372.948 466.841 372.948C463.243 367.792 459.215 364.022 459.215 364.022C456.488 361.48 454.36 360.057 454.578 358.082C454.721 356.829 455.761 355.928 457.84 354.127C459.93 352.309 460.994 351.446 462.154 351.232C463.98 350.874 465.697 352.067 471.78 358.612C475.16 362.258 476.863 364.071 478.255 365.876L478.252 365.862Z"/><path fill="#EB93F4" d="M273.721 504.502C273.696 506.149 273.899 507.546 275.631 514.199C276.906 519.096 276.817 518.416 276.959 519.243C277.512 522.38 277.29 524.005 278.637 525.69C278.919 526.041 280.085 527.481 281.238 527.239C282.304 527.006 282.791 525.443 282.994 524.761C283.736 522.21 283.042 520.105 281.459 515.04C281.076 513.792 279.838 509.823 279.216 504.902C279.059 503.683 278.977 502.24 279.822 501.098C280.232 500.537 280.792 500.156 284.007 499.114C287.41 498.009 288.382 497.917 289.1 496.851C289.555 496.176 289.929 495.083 289.508 494.255C289.365 493.985 288.988 493.438 287.376 493.096C284.413 492.462 281.821 493.532 280.763 493.968C279.773 494.387 278.247 495.048 276.752 496.565C275.455 497.884 274.828 499.19 274.643 499.604C274.29 500.385 273.747 501.844 273.721 504.502Z"/><path fill="#EB93F4" d="M285.021 537.723C285.147 538.993 284.549 540.746 283.317 540.964C282.115 541.189 280.937 539.811 280.585 538.629C280.098 536.983 280.929 534.833 282.193 534.622C283.428 534.417 284.871 536.077 285.021 537.723Z"/><path fill="#EB93F4" d="M506.765 604.137C506.891 605.408 506.293 607.16 505.061 607.379C503.86 607.603 502.671 606.243 502.329 605.043C501.842 603.398 502.66 601.252 503.923 601.04C505.155 600.822 506.602 602.496 506.765 604.137Z"/><path fill="#EB93F4" d="M483.686 577.763C483.383 578.457 483.779 579.248 483.944 579.6C484.639 581.031 486.075 581.653 486.969 582.05C490.722 583.694 492.594 584.525 493.528 585.132C494.483 585.762 496.781 586.994 498.372 589.392C500.898 593.187 499.785 596.846 501.599 597.457C502.579 597.788 503.74 597.017 504.325 596.337C506.174 594.157 504.357 590.046 503.172 587.352C502.321 585.435 501.245 584.338 500.946 584.035C500.415 583.514 499.812 582.997 496.344 580.986C494.913 580.157 495.563 580.574 491.174 578.172C489.197 577.105 488.613 576.774 487.597 576.643C486.372 576.493 484.214 576.586 483.703 577.774L483.686 577.763Z"/><path fill="#EB93F4" d="M489.637 516.931C489.677 515.415 483.478 499.994 479.421 494.424C476.687 490.677 475.332 488.786 473.922 487.184C469.599 482.246 466.08 479.592 464.631 478.537C461.574 476.342 459.946 475.699 459.076 475.398C457.454 474.846 454.888 474.009 451.673 474.772C450.014 475.166 447.218 475.753 445.915 478.229C444.801 480.338 445.446 482.536 445.502 482.707C446.015 484.353 447.147 485.299 447.628 485.707C448.202 486.185 449.129 486.657 451.052 487.507C452.098 487.966 452.82 488.287 453.6 488.593C454.397 488.911 454.986 489.125 455.084 489.148C460.162 490.986 465.437 496.465 465.437 496.465C469.511 500.678 473.387 508.931 473.387 508.931C474.999 511.515 478.218 526.845 479.644 527.413"/><path fill="#EB93F4" d="M283.863 570.124C283.147 568.788 284.469 565.54 285.592 558.741C286.351 554.166 286.712 551.867 287.252 549.802C288.895 543.449 290.847 539.497 291.667 537.903C293.412 534.569 294.578 533.263 295.22 532.603C296.421 531.381 298.337 529.481 301.553 528.718C303.212 528.325 305.974 527.593 308.25 529.22C310.192 530.603 310.604 532.857 310.631 533.035C310.911 534.736 310.326 536.089 310.079 536.67C309.781 537.356 309.165 538.193 307.829 539.817C307.1 540.697 306.6 541.307 306.041 541.932C305.471 542.574 305.041 543.03 304.964 543.094C301.253 547.018 299.372 553.964 299.372 553.964C297.626 559.558 297.17 565.719 297.17 565.719C296.89 568.751 296.466 573.091 295.447 574.239"/><path stroke="#303131" stroke-linecap="round" stroke-linejoin="round" stroke-width="7" d="M489.637 516.931C489.677 515.415 483.478 499.994 479.421 494.424C476.687 490.677 475.332 488.786 473.922 487.184C469.599 482.246 466.08 479.592 464.631 478.537C461.574 476.342 459.946 475.699 459.076 475.398C457.454 474.846 454.888 474.009 451.673 474.772C450.014 475.166 447.218 475.753 445.915 478.229C444.801 480.338 445.446 482.536 445.502 482.707C446.015 484.353 447.147 485.299 447.628 485.707C448.202 486.185 449.129 486.657 451.052 487.507C452.098 487.966 452.82 488.287 453.6 488.593C454.397 488.911 454.986 489.125 455.084 489.148C460.162 490.986 465.437 496.465 465.437 496.465C469.511 500.678 473.387 508.931 473.387 508.931C474.999 511.515 478.218 526.845 479.644 527.413M283.863 570.124C283.147 568.788 284.469 565.54 285.592 558.741C286.351 554.166 286.712 551.867 287.252 549.802C288.895 543.449 290.847 539.497 291.667 537.903C293.412 534.569 294.578 533.263 295.22 532.603C296.421 531.381 298.337 529.481 301.553 528.718C303.212 528.325 305.974 527.593 308.25 529.22C310.192 530.603 310.604 532.857 310.631 533.035C310.911 534.736 310.326 536.089 310.079 536.67C309.781 537.356 309.165 538.193 307.829 539.817C307.1 540.697 306.6 541.307 306.041 541.932C305.471 542.574 305.041 543.03 304.964 543.094C301.253 547.018 299.372 553.964 299.372 553.964C297.626 559.558 297.17 565.719 297.17 565.719C296.89 568.751 296.466 573.091 295.447 574.239"/><path fill="#EB93F4" stroke="#303131" stroke-linecap="round" stroke-linejoin="round" stroke-width="7" d="M400.161 583.82C405.007 582.386 407.983 578.006 406.808 574.038C405.634 570.07 400.753 568.016 395.907 569.451C391.06 570.885 388.084 575.265 389.259 579.233C390.434 583.201 395.314 585.255 400.161 583.82Z"/><rect width="414" height="541" x="101.352" y="106" stroke="#222" stroke-width="8" rx="11"/></g></svg>