<svg width="627" height="755" viewBox="0 0 627 755" fill="none" xmlns="http://www.w3.org/2000/svg">
<mask id="path-1-outside-1_2848_1711" maskUnits="userSpaceOnUse" x="10.3516" y="0" width="616" height="755" fill="black">
<rect fill="white" x="10.3516" width="616" height="755"/>
<path d="M18.3516 734.575C18.3516 740.261 23.1473 744.888 28.6629 746.27C28.9524 746.342 29.2452 746.419 29.5408 746.5H67.8516C73.3744 746.5 77.928 741.966 79.4194 736.648C82.4087 725.99 91.0973 710.5 116.352 710.5C141.245 710.5 149.416 725.55 152.082 736.189C153.464 741.704 158.091 746.5 163.777 746.5H199.852C205.374 746.5 209.929 741.965 211.434 736.651C214.452 725.993 223.224 710.5 248.727 710.5C274.788 710.5 284.389 726.679 287.887 737.345C289.533 742.362 293.965 746.5 299.246 746.5H334.782C340.332 746.5 344.897 741.925 346.357 736.57C349.263 725.914 357.779 710.5 382.727 710.5C407.733 710.5 416.337 725.987 419.298 736.646C420.776 741.967 425.329 746.5 430.852 746.5H470.352C475.874 746.5 480.43 741.964 481.944 736.653C484.98 725.994 493.809 710.5 519.477 710.5C541.345 710.5 548.885 725.956 551.484 736.614C552.793 741.979 557.329 746.5 562.852 746.5H607.162C607.458 746.419 607.751 746.342 608.04 746.27C613.556 744.888 618.352 740.261 618.352 734.575V698.5C618.352 692.977 613.817 688.422 608.503 686.918C597.844 683.9 582.352 675.127 582.352 649.625C582.352 623.564 598.531 613.962 609.196 610.464C614.214 608.819 618.352 604.386 618.352 599.105V558.5C618.352 552.977 613.818 548.424 608.5 546.932C598.249 544.057 583.53 535.911 582.418 512.826C583.53 489.969 598.247 481.901 608.497 479.053C613.819 477.575 618.352 473.023 618.352 467.5V426.5C618.352 420.977 613.817 416.422 608.503 414.918C597.938 411.927 582.625 403.282 582.355 378.298C582.625 356.873 597.902 349.444 608.465 346.868C613.831 345.559 618.352 341.023 618.352 335.5V290C618.352 284.508 613.924 280.05 608.443 280L608.422 279.995C597.766 277.088 582.352 268.572 582.352 243.625C582.352 218.619 597.839 210.014 608.497 207.053C613.819 205.575 618.352 201.023 618.352 195.5V156C618.352 150.477 613.816 145.921 608.504 144.408C597.846 141.371 582.352 132.543 582.352 106.875C582.352 85.0063 597.808 77.4669 608.465 74.8676C613.831 73.559 618.352 69.0228 618.352 63.5V18C618.352 12.4772 613.874 8 608.352 8H556.748C554.17 9.82114 552.26 12.7052 551.484 15.8862C548.885 26.5436 541.345 42 519.477 42C493.809 42 484.98 26.5057 481.944 15.8471C481.046 12.6971 479.079 9.82 476.474 8H424.733C422.133 9.82022 420.175 12.6986 419.298 15.8543C416.337 26.5127 407.733 42 382.727 42C357.779 42 349.263 26.5856 346.357 15.9297C345.488 12.7443 343.521 9.83463 340.901 8H293.11C290.695 9.68413 288.832 12.2747 287.887 15.1553C284.389 25.8209 274.788 42 248.727 42C223.224 42 214.452 26.5075 211.434 15.8489C210.542 12.6975 208.577 9.82006 205.973 8H157.66C154.937 9.90785 152.917 12.9781 152.082 16.3113C149.416 26.9495 141.245 42 116.352 42C91.0973 42 82.4087 26.5101 79.4194 15.8516C78.535 12.698 76.5736 9.82014 73.9718 8H28.3516C22.8287 8 18.3516 12.4772 18.3516 18V63.5C18.3516 69.0228 22.8723 73.559 28.2378 74.8676C38.8952 77.4669 54.3516 85.0063 54.3516 106.875C54.3516 132.543 38.8573 141.371 28.1987 144.408C22.8871 145.921 18.3516 150.477 18.3516 156V195.5C18.3516 201.023 22.8845 205.575 28.2058 207.053C38.8642 210.014 54.3516 218.619 54.3516 243.625C54.3516 268.572 38.9372 277.088 28.2813 279.995L28.2599 280C22.7793 280.05 18.3516 284.508 18.3516 290V335.5C18.3516 341.023 22.8723 345.559 28.2378 346.868C38.8008 349.444 54.0783 356.873 54.348 378.298C54.0779 403.282 38.7648 411.927 28.2004 414.918C22.8865 416.422 18.3516 420.977 18.3516 426.5V467.5C18.3516 473.023 22.8845 477.575 28.2058 479.053C38.4564 481.901 53.1735 489.969 54.2847 512.826C53.1735 535.911 38.4539 544.057 28.2031 546.932C22.8855 548.424 18.3516 552.977 18.3516 558.5V599.105C18.3516 604.386 22.4891 608.819 27.5068 610.464C38.1725 613.962 54.3516 623.564 54.3516 649.625C54.3516 675.127 38.859 683.9 28.2004 686.918C22.8865 688.422 18.3516 692.977 18.3516 698.5V734.575Z"/>
</mask>
<path d="M18.3516 734.575C18.3516 740.261 23.1473 744.888 28.6629 746.27C28.9524 746.342 29.2452 746.419 29.5408 746.5H67.8516C73.3744 746.5 77.928 741.966 79.4194 736.648C82.4087 725.99 91.0973 710.5 116.352 710.5C141.245 710.5 149.416 725.55 152.082 736.189C153.464 741.704 158.091 746.5 163.777 746.5H199.852C205.374 746.5 209.929 741.965 211.434 736.651C214.452 725.993 223.224 710.5 248.727 710.5C274.788 710.5 284.389 726.679 287.887 737.345C289.533 742.362 293.965 746.5 299.246 746.5H334.782C340.332 746.5 344.897 741.925 346.357 736.57C349.263 725.914 357.779 710.5 382.727 710.5C407.733 710.5 416.337 725.987 419.298 736.646C420.776 741.967 425.329 746.5 430.852 746.5H470.352C475.874 746.5 480.43 741.964 481.944 736.653C484.98 725.994 493.809 710.5 519.477 710.5C541.345 710.5 548.885 725.956 551.484 736.614C552.793 741.979 557.329 746.5 562.852 746.5H607.162C607.458 746.419 607.751 746.342 608.04 746.27C613.556 744.888 618.352 740.261 618.352 734.575V698.5C618.352 692.977 613.817 688.422 608.503 686.918C597.844 683.9 582.352 675.127 582.352 649.625C582.352 623.564 598.531 613.962 609.196 610.464C614.214 608.819 618.352 604.386 618.352 599.105V558.5C618.352 552.977 613.818 548.424 608.5 546.932C598.249 544.057 583.53 535.911 582.418 512.826C583.53 489.969 598.247 481.901 608.497 479.053C613.819 477.575 618.352 473.023 618.352 467.5V426.5C618.352 420.977 613.817 416.422 608.503 414.918C597.938 411.927 582.625 403.282 582.355 378.298C582.625 356.873 597.902 349.444 608.465 346.868C613.831 345.559 618.352 341.023 618.352 335.5V290C618.352 284.508 613.924 280.05 608.443 280L608.422 279.995C597.766 277.088 582.352 268.572 582.352 243.625C582.352 218.619 597.839 210.014 608.497 207.053C613.819 205.575 618.352 201.023 618.352 195.5V156C618.352 150.477 613.816 145.921 608.504 144.408C597.846 141.371 582.352 132.543 582.352 106.875C582.352 85.0063 597.808 77.4669 608.465 74.8676C613.831 73.559 618.352 69.0228 618.352 63.5V18C618.352 12.4772 613.874 8 608.352 8H556.748C554.17 9.82114 552.26 12.7052 551.484 15.8862C548.885 26.5436 541.345 42 519.477 42C493.809 42 484.98 26.5057 481.944 15.8471C481.046 12.6971 479.079 9.82 476.474 8H424.733C422.133 9.82022 420.175 12.6986 419.298 15.8543C416.337 26.5127 407.733 42 382.727 42C357.779 42 349.263 26.5856 346.357 15.9297C345.488 12.7443 343.521 9.83463 340.901 8H293.11C290.695 9.68413 288.832 12.2747 287.887 15.1553C284.389 25.8209 274.788 42 248.727 42C223.224 42 214.452 26.5075 211.434 15.8489C210.542 12.6975 208.577 9.82006 205.973 8H157.66C154.937 9.90785 152.917 12.9781 152.082 16.3113C149.416 26.9495 141.245 42 116.352 42C91.0973 42 82.4087 26.5101 79.4194 15.8516C78.535 12.698 76.5736 9.82014 73.9718 8H28.3516C22.8287 8 18.3516 12.4772 18.3516 18V63.5C18.3516 69.0228 22.8723 73.559 28.2378 74.8676C38.8952 77.4669 54.3516 85.0063 54.3516 106.875C54.3516 132.543 38.8573 141.371 28.1987 144.408C22.8871 145.921 18.3516 150.477 18.3516 156V195.5C18.3516 201.023 22.8845 205.575 28.2058 207.053C38.8642 210.014 54.3516 218.619 54.3516 243.625C54.3516 268.572 38.9372 277.088 28.2813 279.995L28.2599 280C22.7793 280.05 18.3516 284.508 18.3516 290V335.5C18.3516 341.023 22.8723 345.559 28.2378 346.868C38.8008 349.444 54.0783 356.873 54.348 378.298C54.0779 403.282 38.7648 411.927 28.2004 414.918C22.8865 416.422 18.3516 420.977 18.3516 426.5V467.5C18.3516 473.023 22.8845 477.575 28.2058 479.053C38.4564 481.901 53.1735 489.969 54.2847 512.826C53.1735 535.911 38.4539 544.057 28.2031 546.932C22.8855 548.424 18.3516 552.977 18.3516 558.5V599.105C18.3516 604.386 22.4891 608.819 27.5068 610.464C38.1725 613.962 54.3516 623.564 54.3516 649.625C54.3516 675.127 38.859 683.9 28.2004 686.918C22.8865 688.422 18.3516 692.977 18.3516 698.5V734.575Z" fill="#F4F4F4"/>
<path d="M28.6629 746.27L30.6082 738.51L30.6076 738.51L28.6629 746.27ZM29.5408 746.5L27.4284 754.216L28.4655 754.5H29.5408V746.5ZM79.4194 736.648L87.1222 738.809L79.4194 736.648ZM152.082 736.189L159.842 734.244V734.244L152.082 736.189ZM211.434 736.651L203.737 734.472L211.434 736.651ZM287.887 737.345L280.286 739.838L287.887 737.345ZM346.357 736.57L354.075 738.675L346.357 736.57ZM419.298 736.646L427.006 734.504L419.298 736.646ZM481.944 736.653L474.25 734.461V734.461L481.944 736.653ZM551.484 736.614L543.712 738.509V738.509L551.484 736.614ZM607.162 746.5V754.5H608.238L609.275 754.216L607.162 746.5ZM608.04 746.27L606.096 738.51L606.095 738.51L608.04 746.27ZM608.503 686.918L610.682 679.22L608.503 686.918ZM609.196 610.464L606.703 602.863H606.703L609.196 610.464ZM608.5 546.932L610.66 539.229L610.66 539.229L608.5 546.932ZM582.418 512.826L574.428 512.438L574.409 512.824L574.428 513.211L582.418 512.826ZM608.497 479.053L606.356 471.345L608.497 479.053ZM608.503 414.918L606.323 422.615L608.503 414.918ZM582.355 378.298L574.356 378.197L574.355 378.291L574.356 378.384L582.355 378.298ZM608.465 346.868L610.361 354.64L608.465 346.868ZM608.443 280L606.327 287.715L607.331 287.991L608.371 288L608.443 280ZM608.422 279.995L610.538 272.28L610.527 272.277L608.422 279.995ZM608.497 207.053L610.639 214.761L608.497 207.053ZM608.504 144.408L606.312 152.102L608.504 144.408ZM608.465 74.8676L610.361 82.6398L608.465 74.8676ZM556.748 8V0H554.207L552.132 1.46615L556.748 8ZM551.484 15.8862L543.712 13.9906V13.9907L551.484 15.8862ZM481.944 15.8471L474.25 18.039L474.25 18.0391L481.944 15.8471ZM476.474 8L481.056 1.4422L478.992 0H476.474V8ZM424.733 8V0H422.211L420.145 1.44637L424.733 8ZM419.298 15.8543L427.006 17.9955V17.9955L419.298 15.8543ZM346.357 15.9297L354.075 13.8245V13.8245L346.357 15.9297ZM340.901 8L345.489 1.44686L343.423 0H340.901V8ZM293.11 8V0H290.596L288.534 1.4381L293.11 8ZM287.887 15.1553L280.286 12.6621L280.286 12.6622L287.887 15.1553ZM211.434 15.8489L203.736 18.0282L203.737 18.0282L211.434 15.8489ZM205.973 8L210.557 1.44325L208.492 0H205.973V8ZM157.66 8V0H155.136L153.069 1.44821L157.66 8ZM152.082 16.3113L159.842 18.2561V18.2561L152.082 16.3113ZM79.4194 15.8516L71.7166 18.0119L71.7166 18.0119L79.4194 15.8516ZM73.9718 8L78.5576 1.44481L76.4923 0H73.9718V8ZM28.2378 74.8676L26.3422 82.6398H26.3422L28.2378 74.8676ZM28.1987 144.408L30.3906 152.102H30.3906L28.1987 144.408ZM28.2058 207.053L26.0645 214.761H26.0645L28.2058 207.053ZM28.2813 279.995L26.1761 272.277L26.1652 272.28L28.2813 279.995ZM28.2599 280L28.3317 288L29.3724 287.991L30.3761 287.715L28.2599 280ZM28.2378 346.868L26.3422 354.64H26.3422L28.2378 346.868ZM54.348 378.298L62.3475 378.384L62.3485 378.291L62.3473 378.197L54.348 378.298ZM28.2004 414.918L30.3797 422.615H30.3798L28.2004 414.918ZM28.2058 479.053L30.3471 471.345H30.3471L28.2058 479.053ZM54.2847 512.826L62.2754 513.211L62.294 512.824L62.2752 512.438L54.2847 512.826ZM28.2031 546.932L26.0428 539.229L26.0428 539.229L28.2031 546.932ZM27.5068 610.464L29.9999 602.863H29.9999L27.5068 610.464ZM28.2004 686.918L26.0211 679.22H26.0211L28.2004 686.918ZM10.3516 734.575C10.3516 745.006 18.8058 752.047 26.7182 754.03L30.6076 738.51C29.2985 738.182 28.1032 737.459 27.31 736.602C26.5469 735.778 26.3516 735.071 26.3516 734.575H10.3516ZM26.7176 754.03C26.9532 754.089 27.1902 754.151 27.4284 754.216L31.6531 738.784C31.3001 738.687 30.9516 738.596 30.6082 738.51L26.7176 754.03ZM29.5408 754.5H67.8516V738.5H29.5408V754.5ZM67.8516 754.5C77.9724 754.5 84.966 746.497 87.1222 738.809L71.7166 734.488C71.3668 735.735 70.6519 736.858 69.821 737.599C69.0208 738.313 68.3363 738.5 67.8516 738.5V754.5ZM87.1222 738.809C88.3675 734.369 90.6902 729.355 94.9292 725.486C99.0069 721.764 105.506 718.5 116.352 718.5V702.5C101.943 702.5 91.4706 706.981 84.1431 713.668C76.9769 720.209 73.4607 728.27 71.7166 734.488L87.1222 738.809ZM116.352 718.5C127.052 718.5 133.29 721.674 137.11 725.219C141.09 728.913 143.22 733.737 144.322 738.133L159.842 734.244C158.278 728.002 154.989 719.982 147.994 713.491C140.838 706.851 130.544 702.5 116.352 702.5V718.5ZM144.322 738.133C146.305 746.046 153.346 754.5 163.777 754.5V738.5C163.28 738.5 162.574 738.305 161.749 737.542C160.892 736.748 160.17 735.553 159.842 734.244L144.322 738.133ZM199.852 754.5C209.972 754.5 216.961 746.497 219.131 738.83L203.737 734.472C203.382 735.725 202.662 736.852 201.827 737.596C201.022 738.313 200.336 738.5 199.852 738.5V754.5ZM219.131 738.83C220.385 734.401 222.727 729.388 227.013 725.513C231.144 721.779 237.735 718.5 248.727 718.5V702.5C234.216 702.5 223.67 706.967 216.284 713.644C209.054 720.18 205.5 728.243 203.737 734.472L219.131 738.83ZM248.727 718.5C259.947 718.5 266.943 721.922 271.475 725.922C276.164 730.058 278.814 735.352 280.286 739.838L295.489 734.852C293.462 728.672 289.563 720.543 282.061 713.924C274.403 707.167 263.567 702.5 248.727 702.5V718.5ZM280.286 739.838C282.695 747.185 289.598 754.5 299.246 754.5V738.5C298.769 738.5 298.115 738.323 297.355 737.684C296.567 737.02 295.868 736.008 295.489 734.852L280.286 739.838ZM334.782 754.5C344.954 754.5 351.962 746.423 354.075 738.675L338.639 734.465C338.297 735.717 337.586 736.846 336.755 737.593C335.956 738.312 335.27 738.5 334.782 738.5V754.5ZM354.075 738.675C355.287 734.231 357.558 729.248 361.706 725.414C365.688 721.734 372.051 718.5 382.727 718.5V702.5C368.455 702.5 358.086 706.973 350.847 713.664C343.774 720.201 340.333 728.253 338.639 734.465L354.075 738.675ZM382.727 718.5C393.426 718.5 399.833 721.749 403.858 725.459C408.05 729.322 410.354 734.336 411.59 738.787L427.006 734.504C425.282 728.297 421.803 720.238 414.701 713.693C407.432 706.994 397.033 702.5 382.727 702.5V718.5ZM411.59 738.787C413.732 746.497 420.73 754.5 430.852 754.5V738.5C430.366 738.5 429.684 738.313 428.888 737.602C428.061 736.864 427.351 735.746 427.006 734.504L411.59 738.787ZM470.352 754.5C480.472 754.5 487.457 746.498 489.637 738.845L474.25 734.461C473.892 735.718 473.168 736.848 472.33 737.594C471.523 738.313 470.835 738.5 470.352 738.5V754.5ZM489.637 738.845C490.897 734.422 493.252 729.41 497.57 725.531C501.735 721.789 508.388 718.5 519.477 718.5V702.5C504.897 702.5 494.302 706.958 486.877 713.628C479.605 720.161 476.026 728.225 474.25 734.461L489.637 738.845ZM519.477 718.5C528.282 718.5 533.519 721.51 536.91 725.074C540.53 728.879 542.592 733.92 543.712 738.509L559.256 734.718C557.776 728.65 554.77 720.634 548.503 714.046C542.007 707.218 532.54 702.5 519.477 702.5V718.5ZM543.712 738.509C545.659 746.491 552.731 754.5 562.852 754.5V738.5C562.358 738.5 561.699 738.311 560.958 737.64C560.187 736.941 559.541 735.887 559.256 734.718L543.712 738.509ZM562.852 754.5H607.162V738.5H562.852V754.5ZM609.275 754.216C609.513 754.151 609.75 754.089 609.986 754.03L606.095 738.51C605.751 738.596 605.403 738.687 605.05 738.784L609.275 754.216ZM609.985 754.03C617.897 752.047 626.352 745.006 626.352 734.575H610.352C610.352 735.071 610.156 735.778 609.393 736.602C608.6 737.459 607.405 738.182 606.096 738.51L609.985 754.03ZM626.352 698.5C626.352 688.379 618.349 681.391 610.682 679.22L606.323 694.615C607.576 694.97 608.703 695.69 609.448 696.525C610.165 697.33 610.352 698.016 610.352 698.5H626.352ZM610.682 679.22C606.253 677.966 601.24 675.624 597.365 671.338C593.631 667.208 590.352 660.616 590.352 649.625H574.352C574.352 664.136 578.819 674.682 585.496 682.068C592.032 689.298 600.094 692.851 606.323 694.615L610.682 679.22ZM590.352 649.625C590.352 638.404 593.774 631.409 597.773 626.876C601.91 622.188 607.203 619.537 611.689 618.066L606.703 602.863C600.524 604.889 592.395 608.788 585.776 616.291C579.019 623.949 574.352 634.785 574.352 649.625H590.352ZM611.689 618.066C619.037 615.656 626.352 608.753 626.352 599.105H610.352C610.352 599.583 610.175 600.236 609.535 600.996C608.872 601.784 607.859 602.484 606.703 602.863L611.689 618.066ZM626.352 558.5C626.352 548.379 618.348 541.386 610.66 539.229L606.34 554.635C607.587 554.985 608.709 555.7 609.451 556.531C610.165 557.331 610.352 558.015 610.352 558.5H626.352ZM610.66 539.229C606.394 538.033 601.589 535.838 597.787 531.901C594.126 528.11 590.878 522.182 590.409 512.442L574.428 513.211C575.07 526.555 579.737 536.242 586.277 543.015C592.675 549.641 600.355 552.957 606.34 554.635L610.66 539.229ZM590.409 513.215C590.876 503.609 594.108 497.765 597.758 494.021C601.556 490.126 606.362 487.949 610.639 486.761L606.356 471.345C600.382 473.005 592.704 476.286 586.303 482.851C579.754 489.568 575.072 499.186 574.428 512.438L590.409 513.215ZM610.639 486.761C618.348 484.62 626.352 477.621 626.352 467.5H610.352C610.352 467.985 610.165 468.668 609.454 469.464C608.715 470.29 607.598 471 606.356 471.345L610.639 486.761ZM626.352 426.5C626.352 416.379 618.349 409.391 610.682 407.22L606.323 422.615C607.576 422.97 608.703 423.69 609.448 424.525C610.165 425.33 610.352 426.016 610.352 426.5H626.352ZM610.682 407.22C606.293 405.977 601.328 403.666 597.468 399.452C593.748 395.391 590.471 388.937 590.355 378.211L574.356 378.384C574.51 392.643 579.024 403.004 585.669 410.259C592.174 417.361 600.148 420.867 606.323 422.615L610.682 407.22ZM590.355 378.398C590.463 369.819 593.467 364.688 597.026 361.347C600.82 357.785 605.814 355.749 610.361 354.64L606.57 339.095C600.554 340.563 592.628 343.529 586.074 349.682C579.286 356.056 574.517 365.351 574.356 378.197L590.355 378.398ZM610.361 354.64C618.343 352.693 626.352 345.621 626.352 335.5H610.352C610.352 335.993 610.163 336.652 609.492 337.393C608.792 338.165 607.739 338.81 606.57 339.095L610.361 354.64ZM626.352 290C626.352 280.113 618.382 272.089 608.515 272.001L608.371 288C609.466 288.01 610.352 288.902 610.352 290H626.352ZM610.559 272.285L610.538 272.28L606.306 287.71L606.327 287.715L610.559 272.285ZM610.527 272.277C606.083 271.064 601.1 268.794 597.266 264.645C593.586 260.664 590.352 254.301 590.352 243.625H574.352C574.352 257.896 578.824 268.265 585.516 275.505C592.053 282.578 600.105 286.018 606.317 287.713L610.527 272.277ZM590.352 243.625C590.352 232.925 593.601 226.519 597.31 222.494C601.174 218.302 606.188 215.998 610.639 214.761L606.356 199.345C600.148 201.07 592.09 204.549 585.545 211.651C578.846 218.92 574.352 229.319 574.352 243.625H590.352ZM610.639 214.761C618.348 212.62 626.352 205.621 626.352 195.5H610.352C610.352 195.985 610.165 196.668 609.454 197.464C608.715 198.29 607.598 199 606.356 199.345L610.639 214.761ZM626.352 156C626.352 145.88 618.349 138.894 610.696 136.714L606.312 152.102C607.569 152.46 608.699 153.183 609.446 154.021C610.165 154.829 610.352 155.516 610.352 156H626.352ZM610.696 136.714C606.274 135.454 601.261 133.1 597.382 128.782C593.64 124.616 590.352 117.963 590.352 106.875H574.352C574.352 121.455 578.81 132.05 585.48 139.474C592.013 146.747 600.076 150.325 606.312 152.102L610.696 136.714ZM590.352 106.875C590.352 98.0695 593.362 92.8324 596.926 89.4414C600.731 85.8219 605.771 83.7592 610.361 82.6398L606.57 67.0954C600.502 68.5753 592.486 71.5819 585.898 77.8491C579.07 84.3448 574.352 93.8118 574.352 106.875H590.352ZM610.361 82.6398C618.343 80.693 626.352 73.6207 626.352 63.5H610.352C610.352 63.9932 610.163 64.6524 609.492 65.3932C608.792 66.1648 607.739 66.8103 606.57 67.0954L610.361 82.6398ZM626.352 63.5V18H610.352V63.5H626.352ZM626.352 18C626.352 8.05886 618.293 0 608.352 0V16C609.456 16 610.352 16.8954 610.352 18H626.352ZM608.352 0H556.748V16H608.352V0ZM552.132 1.46615C547.886 4.4657 544.918 9.04382 543.712 13.9906L559.256 17.7819C559.601 16.3666 560.454 15.1766 561.364 14.5338L552.132 1.46615ZM543.712 13.9907C542.592 18.5803 540.53 23.6209 536.91 27.4256C533.519 30.9901 528.282 34 519.477 34V50C532.54 50 542.007 45.2818 548.503 38.4537C554.77 31.8658 557.776 23.8496 559.256 17.7818L543.712 13.9907ZM519.477 34C508.388 34 501.735 30.7113 497.57 26.9692C493.252 23.0903 490.897 18.0775 489.637 13.6551L474.25 18.0391C476.026 24.2753 479.605 32.3389 486.877 38.8719C494.302 45.5416 504.897 50 519.477 50V34ZM489.637 13.6552C488.276 8.87803 485.287 4.39824 481.056 1.4422L471.892 14.5578C472.871 15.2418 473.816 16.5162 474.25 18.039L489.637 13.6552ZM476.474 0H424.733V16H476.474V0ZM420.145 1.44637C415.911 4.4099 412.925 8.90647 411.59 13.713L427.006 17.9955C427.424 16.4907 428.354 15.2305 429.321 14.5536L420.145 1.44637ZM411.59 13.713C410.354 18.1638 408.05 23.1779 403.858 27.0412C399.833 30.7507 393.426 34 382.727 34V50C397.033 50 407.432 45.5056 414.701 38.8069C421.803 32.2619 425.282 24.2031 427.006 17.9955L411.59 13.713ZM382.727 34C372.051 34 365.688 30.7657 361.706 27.0858C357.558 23.2516 355.287 18.2686 354.075 13.8245L338.639 18.0349C340.333 24.2467 343.774 32.2989 350.847 38.8359C358.086 45.5271 368.455 50 382.727 50V34ZM354.075 13.8245C352.753 8.97663 349.755 4.43366 345.489 1.44686L336.312 14.5531C337.287 15.2356 338.224 16.512 338.639 18.0349L354.075 13.8245ZM340.901 0H293.11V16H340.901V0ZM288.534 1.4381C284.599 4.18224 281.733 8.24916 280.286 12.6621L295.489 17.6484C295.931 16.3002 296.791 15.186 297.686 14.5619L288.534 1.4381ZM280.286 12.6622C278.814 17.1482 276.163 22.4419 271.475 26.5785C266.943 30.5775 259.947 34 248.727 34V50C263.567 50 274.403 45.3329 282.061 38.576C289.563 31.9566 293.462 23.828 295.489 17.6483L280.286 12.6622ZM248.727 34C237.735 34 231.144 30.7208 227.013 26.9869C222.727 23.112 220.385 18.099 219.131 13.6696L203.737 18.0282C205.5 24.2574 209.054 32.3199 216.284 38.8559C223.67 45.5329 234.216 50 248.727 50V34ZM219.131 13.6696C217.777 8.88511 214.788 4.40116 210.557 1.44325L201.389 14.5567C202.365 15.239 203.307 16.5098 203.736 18.0282L219.131 13.6696ZM205.973 0H157.66V16H205.973V0ZM153.069 1.44821C148.643 4.54972 145.586 9.32302 144.322 14.3666L159.842 18.2561C160.248 16.6332 161.231 15.266 162.251 14.5518L153.069 1.44821ZM144.322 14.3666C143.22 18.7633 141.09 23.5873 137.11 27.2809C133.29 30.8256 127.052 34 116.352 34V50C130.544 50 140.838 45.6491 147.994 39.0091C154.989 32.5179 158.278 24.4975 159.842 18.2561L144.322 14.3666ZM116.352 34C105.506 34 99.0069 30.7356 94.9292 27.0139C90.6902 23.1449 88.3675 18.1314 87.1222 13.6913L71.7166 18.0119C73.4607 24.2303 76.9769 32.291 84.1431 38.8316C91.4706 45.5195 101.943 50 116.352 50V34ZM87.1222 13.6913C85.7773 8.89579 82.7898 4.40553 78.5576 1.44481L69.386 14.5552C70.3574 15.2347 71.2927 16.5003 71.7166 18.0119L87.1222 13.6913ZM73.9718 0H28.3516V16H73.9718V0ZM28.3516 0C18.4105 0 10.3516 8.05886 10.3516 18H26.3516C26.3516 16.8954 27.247 16 28.3516 16V0ZM10.3516 18V63.5H26.3516V18H10.3516ZM10.3516 63.5C10.3516 73.6207 18.3602 80.693 26.3422 82.6398L30.1334 67.0954C28.9643 66.8103 27.9106 66.1648 27.2116 65.3932C26.5406 64.6524 26.3516 63.9932 26.3516 63.5H10.3516ZM26.3422 82.6398C30.9319 83.7592 35.9725 85.8219 39.7772 89.4414C43.3416 92.8324 46.3516 98.0695 46.3516 106.875H62.3516C62.3516 93.8118 57.6333 84.3448 50.8052 77.8491C44.2174 71.5819 36.2011 68.5753 30.1334 67.0954L26.3422 82.6398ZM46.3516 106.875C46.3516 117.963 43.0628 124.616 39.3208 128.782C35.4419 133.1 30.4291 135.454 26.0067 136.714L30.3906 152.102C36.6269 150.325 44.6905 146.747 51.2234 139.474C57.8932 132.05 62.3516 121.455 62.3516 106.875H46.3516ZM26.0067 136.714C18.3539 138.894 10.3516 145.88 10.3516 156H26.3516C26.3516 155.516 26.5381 154.829 27.2573 154.021C28.0037 153.183 29.134 152.46 30.3906 152.102L26.0067 136.714ZM10.3516 195.5C10.3516 205.621 18.3551 212.62 26.0645 214.761L30.3471 199.345C29.1052 199 27.9878 198.29 27.2494 197.464C26.5385 196.668 26.3516 195.985 26.3516 195.5H10.3516ZM26.0645 214.761C30.5153 215.998 35.5295 218.302 39.3927 222.494C43.1023 226.519 46.3516 232.925 46.3516 243.625H62.3516C62.3516 229.319 57.8572 218.92 51.1584 211.651C44.6134 204.549 36.5547 201.07 30.3471 199.345L26.0645 214.761ZM46.3516 243.625C46.3516 254.301 43.1173 260.664 39.4374 264.645C35.6032 268.794 30.6202 271.064 26.1761 272.277L30.3865 287.713C36.5983 286.018 44.6505 282.578 51.1874 275.505C57.8786 268.265 62.3516 257.896 62.3516 243.625H46.3516ZM26.1652 272.28L26.1438 272.285L30.3761 287.715L30.3974 287.71L26.1652 272.28ZM28.1882 272.001C18.3214 272.089 10.3516 280.113 10.3516 290H26.3516C26.3516 288.902 27.2372 288.01 28.3317 288L28.1882 272.001ZM10.3516 335.5C10.3516 345.621 18.3602 352.693 26.3422 354.64L30.1334 339.095C28.9643 338.81 27.9106 338.165 27.2116 337.393C26.5406 336.652 26.3516 335.993 26.3516 335.5H10.3516ZM26.3422 354.64C30.8891 355.749 35.8833 357.785 39.677 361.347C43.236 364.688 46.2406 369.819 46.3486 378.398L62.3473 378.197C62.1856 365.351 57.4167 356.056 50.6288 349.682C44.0755 343.529 36.1496 340.563 30.1334 339.095L26.3422 354.64ZM46.3484 378.211C46.2325 388.937 42.955 395.391 39.2353 399.452C35.3752 403.666 30.4106 405.977 26.0211 407.22L30.3798 422.615C36.5547 420.867 44.5288 417.361 51.0339 410.259C57.6793 403.004 62.1934 392.643 62.3475 378.384L46.3484 378.211ZM26.0211 407.22C18.3542 409.391 10.3516 416.379 10.3516 426.5H26.3516C26.3516 426.016 26.5382 425.33 27.2553 424.525C27.9997 423.69 29.1268 422.97 30.3797 422.615L26.0211 407.22ZM10.3516 467.5C10.3516 477.621 18.3551 484.62 26.0645 486.761L30.3471 471.345C29.1052 471 27.9877 470.29 27.2494 469.464C26.5385 468.668 26.3516 467.985 26.3516 467.5H10.3516ZM26.0645 486.761C30.3407 487.949 35.1471 490.126 38.9446 494.021C42.5949 497.765 45.8272 503.609 46.2941 513.215L62.2752 512.438C61.631 499.186 56.9491 489.568 50.4005 482.851C43.999 476.286 36.3215 473.005 30.3471 471.345L26.0645 486.761ZM46.2939 512.442C45.8251 522.182 42.5767 528.11 38.9164 531.901C35.1142 535.838 30.3091 538.033 26.0428 539.229L30.3634 554.635C36.3479 552.957 44.028 549.641 50.426 543.015C56.966 536.242 61.6331 526.555 62.2754 513.211L46.2939 512.442ZM26.0428 539.229C18.3547 541.386 10.3516 548.379 10.3516 558.5H26.3516C26.3516 558.015 26.5383 557.331 27.2523 556.531C27.9938 555.7 29.1161 554.985 30.3635 554.635L26.0428 539.229ZM10.3516 599.105C10.3516 608.753 17.666 615.656 25.0138 618.066L29.9999 602.863C28.8437 602.484 27.8313 601.784 27.1679 600.996C26.5283 600.236 26.3516 599.583 26.3516 599.105H10.3516ZM25.0138 618.066C29.4998 619.537 34.7935 622.188 38.93 626.876C42.9291 631.409 46.3516 638.404 46.3516 649.625H62.3516C62.3516 634.785 57.6845 623.949 50.9276 616.291C44.3082 608.788 36.1795 604.889 29.9999 602.863L25.0138 618.066ZM46.3516 649.625C46.3516 660.616 43.0724 667.208 39.3385 671.338C35.4636 675.624 30.4506 677.966 26.0211 679.22L30.3798 694.615C36.6089 692.851 44.6714 689.298 51.2074 682.068C57.8845 674.682 62.3516 664.136 62.3516 649.625H46.3516ZM26.0211 679.22C18.3542 681.391 10.3516 688.379 10.3516 698.5H26.3516C26.3516 698.016 26.5382 697.33 27.2553 696.525C27.9997 695.69 29.1269 694.97 30.3798 694.615L26.0211 679.22ZM163.777 754.5H199.852V738.5H163.777V754.5ZM299.246 754.5H334.782V738.5H299.246V754.5ZM430.852 754.5H470.352V738.5H430.852V754.5ZM626.352 734.575V698.5H610.352V734.575H626.352ZM626.352 599.105V558.5H610.352V599.105H626.352ZM626.352 467.5V426.5H610.352V467.5H626.352ZM626.352 335.5V290H610.352V335.5H626.352ZM626.352 195.5V156H610.352V195.5H626.352ZM10.3516 156V195.5H26.3516V156H10.3516ZM10.3516 290V335.5H26.3516V290H10.3516ZM10.3516 426.5V467.5H26.3516V426.5H10.3516ZM10.3516 558.5V599.105H26.3516V558.5H10.3516ZM10.3516 698.5V734.575H26.3516V698.5H10.3516Z" fill="#222222" mask="url(#path-1-outside-1_2848_1711)"/>
<rect x="111.352" y="106" width="414" height="541" rx="11" fill="#E9FFC5" stroke="#222222" stroke-width="8"/>
<g style="mix-blend-mode:multiply">
<ellipse cx="191.351" cy="607" rx="19" ry="8" fill="black" fill-opacity="0.4"/>
</g>
<g style="mix-blend-mode:multiply">
<path d="M437.352 604.5C437.352 606.512 432.231 608.392 423.352 609.989C406.64 612.995 376.614 615 342.352 615C289.885 615 247.352 615 247.352 604.5C247.352 594 289.885 594 342.352 594C376.614 594 406.64 596.005 423.352 599.011C432.231 600.608 437.352 602.488 437.352 604.5Z" fill="black" fill-opacity="0.25"/>
<path d="M423.352 599.011C432.231 600.608 437.352 602.488 437.352 604.5C437.352 606.512 432.231 608.392 423.352 609.989C449.352 606.916 452.852 607.989 463.852 607.989C472.588 607.989 473.352 602.5 463.852 602.5C454.234 602.5 432.685 600.681 423.352 599.011Z" fill="black" fill-opacity="0.25"/>
</g>
<path d="M251.185 466.089C243.975 470.777 238.588 472.909 236.368 473.703C231.717 475.406 229.435 475.64 228.214 475.71C225.957 475.84 222.422 476.002 218.617 473.939C216.654 472.886 213.319 471.166 212.543 467.627C211.866 464.591 213.456 462.056 213.6 461.856C214.829 459.974 216.59 459.162 217.347 458.828C218.236 458.415 219.584 458.159 222.315 457.757C223.812 457.547 224.826 457.394 225.929 457.28C227.048 457.153 227.868 457.102 227.993 457.085C235.072 456.53 243.862 451.426 243.862 451.426C251.782 447.719 252.254 442.976 255.507 443.014C255.814 443.016 256.378 443.06 257.071 443.334C259.154 443.677 260.886 443.861 262.087 443.973C264.446 444.177 266.757 444.699 269.093 444.978C269.592 445.046 270.95 445.282 271.707 446.253C271.775 446.337 271.826 446.435 271.86 446.546C272.726 448.957 268.277 452.664 260.67 458.923C257.458 461.547 254.982 463.604 251.155 466.085L251.185 466.089Z" fill="#FFE89C" stroke="#303131" stroke-width="8.47405" stroke-linecap="round" stroke-linejoin="round"/>
<path d="M343.967 391.256C361.92 439.48 374.925 474.217 377.414 479.767C377.704 480.42 378.837 482.833 378.788 486.219C378.774 487.354 378.673 491.404 375.824 495.444C374.049 497.975 371.929 499.275 367.729 501.859C361.221 505.86 355.927 507.492 352.599 508.275C349.739 508.952 348.287 509.263 346.743 508.895C342.468 507.886 339.574 503.041 340.082 498.539C340.583 494.016 344.427 490.665 347.702 487.827C350.817 485.118 351.436 485.601 352.581 484.159C356.128 479.766 352.007 473.119 345.541 457.732C343.905 453.846 346.131 458.941 337.683 437.815C334.054 428.723 332.194 424.115 330.766 420.728C328.565 415.577 325.372 408.33 321.117 399.658" fill="#FFE89C"/>
<path d="M343.967 391.256C361.92 439.48 374.925 474.217 377.414 479.767C377.704 480.42 378.837 482.833 378.788 486.219C378.774 487.354 378.673 491.404 375.824 495.444C374.049 497.975 371.929 499.275 367.729 501.859C361.221 505.86 355.927 507.492 352.599 508.275C349.739 508.952 348.287 509.263 346.743 508.895C342.468 507.886 339.574 503.041 340.082 498.539C340.583 494.016 344.427 490.665 347.702 487.827C350.817 485.118 351.436 485.601 352.581 484.159C356.128 479.766 352.007 473.119 345.541 457.732C343.905 453.846 346.131 458.941 337.683 437.815C334.054 428.723 332.194 424.115 330.766 420.728C328.565 415.577 325.372 408.33 321.117 399.658" stroke="#303131" stroke-width="8.47405" stroke-linecap="round" stroke-linejoin="round"/>
<path d="M365.638 401.081C411.986 423.435 445.365 439.609 450.66 442.603C451.283 442.952 453.581 444.304 456.956 444.569C458.088 444.661 462.13 444.937 466.417 442.475C469.102 440.943 470.593 438.952 473.557 435.01C478.144 428.902 480.261 423.783 481.349 420.542C482.289 417.757 482.734 416.34 482.511 414.768C481.903 410.419 477.348 407.087 472.818 407.175C468.268 407.253 464.575 410.77 461.445 413.767C458.458 416.618 458.882 417.279 457.339 418.284C452.636 421.408 446.401 416.687 431.68 408.821C427.963 406.831 432.829 409.521 412.579 399.147C403.864 394.69 399.448 392.41 396.208 390.674C391.284 388.004 384.364 384.152 376.125 379.109" fill="#FFE89C"/>
<path d="M365.638 401.081C411.986 423.435 445.365 439.609 450.66 442.603C451.283 442.952 453.581 444.304 456.956 444.569C458.088 444.661 462.13 444.937 466.417 442.475C469.102 440.943 470.593 438.952 473.557 435.01C478.144 428.902 480.261 423.783 481.349 420.542C482.289 417.757 482.734 416.34 482.511 414.768C481.903 410.419 477.348 407.087 472.818 407.175C468.268 407.253 464.575 410.77 461.445 413.767C458.458 416.618 458.882 417.279 457.339 418.284C452.636 421.408 446.401 416.687 431.68 408.821C427.963 406.831 432.829 409.521 412.579 399.147C403.864 394.69 399.448 392.41 396.208 390.674C391.284 388.004 384.364 384.152 376.125 379.109" stroke="#303131" stroke-width="8.47405" stroke-linecap="round" stroke-linejoin="round"/>
<path d="M390.356 423.48C441.553 380.145 449.894 305.837 408.987 257.509C368.08 209.181 293.415 205.134 242.219 248.469C191.023 291.804 182.681 366.111 223.588 414.439C264.495 462.767 339.16 466.815 390.356 423.48Z" fill="#AE8C1D" stroke="#303131" stroke-width="8.47405" stroke-linecap="round" stroke-linejoin="round"/>
<path d="M385.95 427.436C433.658 387.053 439.172 315.139 398.265 266.811C357.358 218.483 285.521 212.043 237.812 252.425C190.104 292.808 184.59 364.722 225.497 413.05C266.404 461.378 338.241 467.819 385.95 427.436Z" fill="#FFD13C" stroke="#303131" stroke-width="8.47405" stroke-linecap="round" stroke-linejoin="round"/>
<path d="M357.831 236.395L361.15 229.482" stroke="#303131" stroke-width="8.47405" stroke-linecap="round" stroke-linejoin="round"/>
<path d="M375.114 241.832L379.353 233.064" stroke="#303131" stroke-width="8.47405" stroke-linecap="round" stroke-linejoin="round"/>
<path d="M388.734 254.247L393.066 245.288" stroke="#303131" stroke-width="8.47405" stroke-linecap="round" stroke-linejoin="round"/>
<path d="M399.534 266.872L406.284 257.025" stroke="#303131" stroke-width="8.47405" stroke-linecap="round" stroke-linejoin="round"/>
<path d="M409.261 281.306L417.267 269.633" stroke="#303131" stroke-width="8.47405" stroke-linecap="round" stroke-linejoin="round"/>
<path d="M418.702 297.005L425.554 287.044" stroke="#303131" stroke-width="8.47405" stroke-linecap="round" stroke-linejoin="round"/>
<path d="M371.719 432.268C371.038 431.53 376.025 426.755 385.686 413.761C392.201 405.006 397.182 397.55 400.445 392.511L399.715 393.654C403.014 387.855 406.579 380.431 409.476 371.381C412.158 362.981 413.594 355.315 414.367 348.939C415.284 344.105 415.798 339.963 416.118 336.831C417.16 325.791 416.63 316.17 416.228 312.452C416.153 311.728 416.01 310.155 415.74 307.027C415.405 303.254 415.338 302.172 415.511 302.142C415.762 302.105 416.449 304.588 416.775 305.742C419.972 317.31 420.385 316.26 421.828 322.745C422.887 327.541 423.373 331.392 423.801 334.707C424.083 336.979 424.511 340.294 424.626 342.97C424.924 349.14 423.722 354.039 421.649 361.019C418.552 371.405 417.014 377.144 413.43 385.081C411.162 390.125 407.316 398.488 400.622 407.365C388.531 423.408 372.897 433.459 371.781 432.274L371.719 432.268Z" fill="#AE8C1D"/>
<path d="M249.334 392.961C249.361 392.937 249.352 392.882 249.313 392.836C249.275 392.79 249.221 392.772 249.194 392.795C249.166 392.819 249.176 392.874 249.214 392.92C249.253 392.965 249.306 392.984 249.334 392.961Z" fill="#303131"/>
<path d="M213.653 402.869C213.698 402.83 213.704 402.762 213.665 402.716C213.627 402.671 213.559 402.665 213.513 402.704C213.467 402.742 213.462 402.811 213.5 402.856C213.539 402.902 213.607 402.907 213.653 402.869Z" stroke="#303131" stroke-width="8.47405" stroke-linecap="round" stroke-linejoin="round"/>
<path d="M292.071 241.564C334.4 232.93 364.306 204.314 358.866 177.649C353.427 150.984 314.703 136.368 272.373 145.002C230.044 153.637 200.138 182.253 205.578 208.918C211.017 235.583 249.742 250.199 292.071 241.564Z" fill="#AE8C1D" stroke="#303131" stroke-width="8.47405" stroke-linecap="round" stroke-linejoin="round"/>
<path d="M206.565 212.365C209.441 224.279 212.321 236.214 215.197 248.128L183.292 253.541C183.292 253.541 180.879 263.854 189.479 269.472C198.079 275.091 203.872 274.108 203.872 274.108L388.846 242.723C390.625 241.326 394.532 237.88 396.451 232.011C397.01 230.273 398.221 226.43 397.202 221.586C396.452 217.944 394.786 215.356 393.717 213.96L376.742 216.84C371.936 217.699 367.112 218.584 362.306 219.443L360.173 185.952" fill="#AE8C1D"/>
<path d="M206.565 212.365C209.441 224.279 212.321 236.214 215.197 248.128L183.292 253.541C183.292 253.541 180.879 263.854 189.479 269.472C198.079 275.091 203.872 274.108 203.872 274.108L388.846 242.723C390.625 241.326 394.532 237.88 396.451 232.011C397.01 230.273 398.221 226.43 397.202 221.586C396.452 217.944 394.786 215.356 393.717 213.96L376.742 216.84C371.936 217.699 367.112 218.584 362.306 219.443L360.173 185.952" stroke="#303131" stroke-width="8.47405" stroke-linecap="round" stroke-linejoin="round"/>
<path d="M214.923 207.651C211.632 207.71 211.98 205.903 212.469 203.716C215.058 192.443 221.143 183.306 229.459 175.694C233.908 171.615 238.785 167.976 243.523 164.241C244.438 163.514 245.679 163.063 246.827 162.794C249.954 162.077 251.732 163.901 250.528 166.863C249.736 168.794 248.307 170.626 246.728 171.972C241.831 176.132 236.644 179.948 231.676 184.05C226.079 188.659 222.086 194.304 220.665 201.664C220.042 204.838 219.099 208.082 214.923 207.651Z" fill="#FFE89C"/>
<path d="M220.436 213.538C220.906 213.984 222.339 214.683 222.648 215.726C223.419 218.334 221.897 221.507 220.061 221.533C218.357 221.56 216.41 221.452 215.952 219.141C215.473 216.703 217.153 214.205 220.414 213.542L220.436 213.538Z" fill="#FFE89C"/>
<path d="M214.221 360.746C212.756 362.09 212.198 361.132 211.556 359.927C208.285 353.764 207.417 347.168 208.184 340.379C208.581 336.743 209.352 333.156 210.038 329.535C210.162 328.845 210.538 328.14 210.966 327.553C212.095 325.978 213.627 326.089 214.236 327.921C214.637 329.113 214.707 330.519 214.524 331.777C213.942 335.635 213.101 339.441 212.47 343.296C211.765 347.632 212.182 351.785 214.431 355.707C215.405 357.403 216.255 359.248 214.192 360.735L214.221 360.746Z" fill="#FFE89C"/>
<path d="M215.335 308.596C215.804 308.863 217.057 309.143 217.5 309.892C218.609 311.789 218.034 314.583 216.601 314.972C215.276 315.336 213.703 315.62 212.896 313.875C212.055 312.05 212.873 309.762 215.335 308.596Z" fill="#FFE89C"/>
<path d="M435.488 311.912C440.443 304.101 442.631 298.269 443.469 295.877C445.236 290.863 445.448 288.408 445.517 287.086C445.625 284.662 445.746 280.846 443.485 276.793C442.316 274.71 440.45 271.139 436.615 270.358C433.351 269.678 430.643 271.432 430.432 271.571C428.419 272.9 427.587 274.813 427.245 275.635C426.829 276.591 426.549 278.053 426.161 280.996C425.964 282.6 425.799 283.689 425.682 284.895C425.566 286.101 425.525 286.987 425.5 287.129C424.995 294.752 419.64 304.259 419.64 304.259C418.459 306.315 417.084 308.523 415.502 310.793C414.341 312.46 413.163 314.007 412.01 315.411C412.01 315.411 413.25 320.401 413.838 324.529C414.822 331.564 413.581 333.845 414.797 334.454C416.827 335.454 421.923 329.768 427.937 322.234C430.716 318.755 432.897 316.043 435.518 311.907L435.488 311.912Z" fill="#FFE89C" stroke="#303131" stroke-width="8.47405" stroke-linecap="round" stroke-linejoin="round"/>
<path d="M326.887 397.984C318.679 411.595 300.362 415.331 290.863 406.343C289.613 405.154 289.268 403.18 288.505 401.555C289.459 401.236 290.426 400.816 291.395 400.442C292.736 399.931 293.828 399.819 294.258 399.744C298.479 398.95 302.389 398.188 304.079 395.553C304.276 395.231 304.033 395.555 305.11 391.988C306.084 388.785 306.746 387.309 308.129 386.069C308.395 385.827 308.701 385.657 309.042 385.467C311.398 384.156 312.943 385.958 317.096 384.66C318.059 384.36 319.668 383.865 321.185 382.527C323.836 380.181 323.095 378.002 325.224 376.536C325.385 376.446 325.535 376.292 325.795 376.123C327.54 375.153 329.327 375.572 331.898 376.002C334.311 376.402 335.537 376.616 336.142 376.561C340.404 376.263 344.278 371.965 346.28 369.721C347.474 368.397 348.343 366.995 349.537 367.32C350.804 367.651 352.084 368.894 352.487 370.083C356.328 381.771 344.706 396.527 330.739 397.796C329.418 397.919 328.118 397.912 326.895 397.956L326.887 397.984Z" fill="#A88E3F" stroke="#303131" stroke-width="8.07355" stroke-linecap="round" stroke-linejoin="round"/>
<path d="M236.73 366.063C239.858 362.415 244.191 357.672 253.22 352.65C262.249 347.627 268.863 346.562 273.663 345.917" stroke="#303131" stroke-width="8.07355" stroke-linecap="round" stroke-linejoin="round"/>
<path d="M306.072 363.237C305.717 363.741 305.17 364.705 305.078 365.98C304.882 368.633 306.709 371.621 309.288 372.235C310.378 372.5 311.353 372.264 311.979 372.033" stroke="#303131" stroke-width="8.07355" stroke-linecap="round" stroke-linejoin="round"/>
<path d="M277.507 395.332C286.08 390.563 289.109 379.651 284.274 370.96C279.439 362.268 268.57 359.088 259.998 363.857C251.425 368.626 248.396 379.538 253.231 388.229C258.066 396.921 268.935 400.101 277.507 395.332Z" stroke="#303131" stroke-width="8.07355" stroke-linecap="round" stroke-linejoin="round"/>
<path d="M306.057 329.804C309.186 326.156 314.532 320.779 322.548 316.391C330.689 311.932 338.191 310.303 342.99 309.658" stroke="#303131" stroke-width="8.07355" stroke-linecap="round" stroke-linejoin="round"/>
<path d="M271.962 386.124C275.32 384.256 276.509 379.988 274.619 376.591C272.729 373.194 268.476 371.954 265.118 373.822C261.761 375.689 260.571 379.957 262.461 383.355C264.351 386.752 268.605 387.992 271.962 386.124Z" fill="#303131"/>
<path d="M337.454 332.516L330.404 344.753L344.912 345.921" stroke="#303131" stroke-width="8.07355" stroke-linecap="round" stroke-linejoin="round"/>
<circle cx="215.018" cy="393.1" r="3.22942" transform="rotate(-9.96012 215.018 393.1)" fill="#303131"/>
<circle cx="226.43" cy="392.736" r="3.22942" transform="rotate(-9.96012 226.43 392.736)" fill="#303131"/>
<circle cx="237.562" cy="390.781" r="3.22942" transform="rotate(-9.96012 237.562 390.781)" fill="#303131"/>
<circle cx="247.105" cy="389.105" r="3.22942" transform="rotate(-9.96012 247.105 389.105)" fill="#303131"/>
<path d="M224.062 531.435C224.012 531.649 223.94 531.841 223.868 532.055L199.483 599.026C198.026 603.04 193.48 605.153 189.423 603.696C185.344 602.238 183.206 597.777 184.684 593.764L209.069 526.792C209.069 526.792 209.116 526.686 209.14 526.622L208.162 529.29C210.612 522.781 212.793 517.15 214.607 512.781C215.668 510.223 218.753 502.807 215.481 496.751C212.533 491.311 204.834 487.632 199.112 489.359C194.482 490.757 191.417 495.667 186.32 503.749C183.301 508.574 182.141 511.517 179.026 512.232C176.259 512.872 172.803 511.543 171.089 509.215C166.895 503.537 173.499 492.502 177.141 487.763C179.267 485.005 185.714 476.645 197.306 474.578C210.181 472.274 223.532 478.783 229.312 487.995C236.753 499.836 230.839 514.721 222.983 534.553" fill="#AE8C1D"/>
<path d="M224.062 531.435C224.012 531.649 223.94 531.841 223.868 532.055L199.483 599.026C198.026 603.04 193.48 605.154 189.423 603.696C185.344 602.238 183.206 597.777 184.684 593.763L209.069 526.792C209.069 526.792 209.116 526.686 209.14 526.622L208.162 529.29C210.612 522.781 212.793 517.15 214.607 512.781C215.668 510.223 218.753 502.807 215.481 496.751C212.533 491.311 204.834 487.632 199.112 489.359C194.482 490.757 191.417 495.667 186.32 503.749C183.301 508.574 182.141 511.517 179.026 512.232C176.259 512.872 172.803 511.543 171.089 509.215C166.895 503.537 173.499 492.502 177.141 487.763C179.267 485.005 185.714 476.645 197.306 474.578C210.181 472.274 223.532 478.783 229.312 487.995C236.753 499.836 230.839 514.721 222.983 534.553" stroke="#303131" stroke-width="8.47405" stroke-linecap="round" stroke-linejoin="round"/>
<path d="M466.852 385.5C475.852 383.167 495.152 383.9 500.352 405.5M477.352 374.5C489.018 372.5 511.952 374.2 510.352 397M168.352 474C160.352 477.667 145.752 489.8 151.352 509M139.852 499.5C137.518 489.5 137.952 468.5 158.352 464.5" stroke="black" stroke-opacity="0.3" stroke-width="5" stroke-linecap="round" stroke-linejoin="round"/>
</svg>
