<svg width="588" height="982" viewBox="0 0 588 982" fill="none" xmlns="http://www.w3.org/2000/svg">
<g clip-path="url(#clip0_1036_640)">
<g clip-path="url(#clip1_1036_640)">
<rect x="569.65" y="-143.375" width="387.385" height="548.859" transform="rotate(81.8827 569.65 -143.375)" fill="url(#paint0_radial_1036_640)"/>
<ellipse rx="83.7528" ry="75.2236" transform="matrix(-0.989981 0.1412 0.1412 0.989981 85.2333 169.459)" fill="#C9E5F8"/>
<ellipse rx="83.7528" ry="75.2236" transform="matrix(-0.989981 0.1412 0.1412 0.989981 85.2333 169.459)" fill="#C9E5F8"/>
<ellipse rx="54.1329" ry="48.6201" transform="matrix(-0.989981 0.1412 0.1412 0.989981 6.0749 207.623)" fill="#C9E5F8"/>
<ellipse rx="54.1329" ry="48.6201" transform="matrix(-0.989981 0.1412 0.1412 0.989981 6.0749 207.623)" fill="#C9E5F8"/>
<ellipse rx="54.1329" ry="48.6201" transform="matrix(-0.989981 0.1412 0.1412 0.989981 171.903 183.971)" fill="#C9E5F8"/>
<ellipse rx="54.1329" ry="48.6201" transform="matrix(-0.989981 0.1412 0.1412 0.989981 171.903 183.971)" fill="#C9E5F8"/>
<rect width="161.377" height="48.6201" transform="matrix(-0.989981 0.1412 0.1412 0.989981 165.836 184.836)" fill="#C9E5F8"/>
<ellipse rx="114.072" ry="102.455" transform="matrix(-0.989981 0.1412 0.1412 0.989981 613.806 1.47327)" fill="#C9E5F8"/>
<ellipse rx="114.072" ry="102.455" transform="matrix(-0.989981 0.1412 0.1412 0.989981 613.806 1.47327)" fill="#C9E5F8"/>
<ellipse rx="73.7297" ry="66.2212" transform="matrix(-0.989981 0.1412 0.1412 0.989981 505.992 53.4523)" fill="#C9E5F8"/>
<ellipse rx="73.7297" ry="66.2212" transform="matrix(-0.989981 0.1412 0.1412 0.989981 505.992 53.4523)" fill="#C9E5F8"/>
<rect width="219.798" height="66.2212" transform="matrix(-0.989981 0.1412 0.1412 0.989981 723.589 22.416)" fill="#C9E5F8"/>
<g filter="url(#filter0_d_1036_640)">
<path d="M199.054 164.8C124.059 212.69 7.81496 243.733 -40.9327 253.269L5.03382 390.837L676.354 295.087C671.236 219.364 657.572 67.7874 643.86 67.2636C626.72 66.6088 510.425 66.1489 451.191 74.5974C391.957 83.046 292.797 104.938 199.054 164.8Z" fill="#478D3B"/>
</g>
<g style="mix-blend-mode:multiply">
<ellipse cx="129.612" cy="230.13" rx="34.6049" ry="7.09566" transform="rotate(-9.74757 129.612 230.13)" fill="#727272" fill-opacity="0.5"/>
</g>
<g style="mix-blend-mode:multiply">
<ellipse cx="187.059" cy="211.863" rx="34.6049" ry="7.09566" transform="rotate(-9.74757 187.059 211.863)" fill="#727272" fill-opacity="0.5"/>
</g>
<g style="mix-blend-mode:multiply">
<ellipse cx="240.22" cy="193.433" rx="34.6049" ry="7.09566" transform="rotate(-9.74757 240.22 193.433)" fill="#727272" fill-opacity="0.5"/>
</g>
<g style="mix-blend-mode:multiply">
<ellipse cx="289.475" cy="177.497" rx="34.6049" ry="7.09566" transform="rotate(-9.74757 289.475 177.497)" fill="#727272" fill-opacity="0.5"/>
</g>
<g style="mix-blend-mode:multiply">
<ellipse cx="343.67" cy="147.296" rx="34.6049" ry="7.09566" transform="rotate(-9.74757 343.67 147.296)" fill="#727272" fill-opacity="0.5"/>
</g>
<g style="mix-blend-mode:multiply">
<ellipse cx="395.582" cy="136.405" rx="34.6049" ry="7.09566" transform="rotate(-9.74757 395.582 136.405)" fill="#727272" fill-opacity="0.5"/>
</g>
<g style="mix-blend-mode:multiply">
<ellipse cx="101.556" cy="293.674" rx="11.1712" ry="3.5461" transform="rotate(-13.8462 101.556 293.674)" fill="#CACACA" fill-opacity="0.25"/>
</g>
<g style="mix-blend-mode:multiply">
<ellipse cx="120.571" cy="280.161" rx="5.41312" ry="1.7183" transform="rotate(-13.8462 120.571 280.161)" fill="#CACACA" fill-opacity="0.25"/>
</g>
<g style="mix-blend-mode:multiply">
<ellipse rx="15.9529" ry="5.06398" transform="matrix(-0.946474 0.322779 0.322779 0.946474 584.092 144.505)" fill="#CACACA" fill-opacity="0.25"/>
</g>
<g style="mix-blend-mode:multiply">
<ellipse rx="7.73017" ry="2.45381" transform="matrix(-0.946474 0.322779 0.322779 0.946474 550.817 142.923)" fill="#CACACA" fill-opacity="0.25"/>
</g>
<g style="mix-blend-mode:multiply">
<ellipse rx="29.1705" ry="9.25968" transform="matrix(-0.962395 0.271655 0.271655 0.962395 364.503 224.61)" fill="#CACACA" fill-opacity="0.25"/>
</g>
<g style="mix-blend-mode:multiply">
<ellipse rx="14.1349" ry="4.48689" transform="matrix(-0.962395 0.271655 0.271655 0.962395 303.901 218.465)" fill="#CACACA" fill-opacity="0.25"/>
</g>
<g style="mix-blend-mode:multiply">
<ellipse rx="8.1795" ry="4.48689" transform="matrix(-0.962395 0.271655 0.271655 0.962395 412.294 199.305)" fill="#CACACA" fill-opacity="0.25"/>
</g>
<g style="mix-blend-mode:multiply">
<ellipse cx="481.506" cy="115.508" rx="44.4917" ry="7.09566" transform="rotate(-3.00911 481.506 115.508)" fill="#727272" fill-opacity="0.5"/>
</g>
<g style="mix-blend-mode:multiply">
<ellipse cx="520.143" cy="177.274" rx="50.4406" ry="7.09566" transform="rotate(-6.72138 520.143 177.274)" fill="#727272" fill-opacity="0.5"/>
</g>
<rect x="107.168" y="215.958" width="6.90388" height="18.4104" transform="rotate(-8.81511 107.168 215.958)" fill="#303131"/>
<rect x="107.168" y="215.958" width="6.90388" height="18.4104" transform="rotate(-8.81511 107.168 215.958)" fill="#303131"/>
<rect x="107.168" y="215.958" width="6.90388" height="18.4104" transform="rotate(-8.81511 107.168 215.958)" fill="#303131"/>
<rect x="143.295" y="208.481" width="6.90388" height="18.4104" transform="rotate(-8.81511 143.295 208.481)" fill="#303131"/>
<rect x="143.295" y="208.481" width="6.90388" height="18.4104" transform="rotate(-8.81511 143.295 208.481)" fill="#303131"/>
<rect x="143.295" y="208.481" width="6.90388" height="18.4104" transform="rotate(-8.81511 143.295 208.481)" fill="#303131"/>
<rect x="162.721" y="197.997" width="6.90388" height="18.4104" transform="rotate(-12.2899 162.721 197.997)" fill="#303131"/>
<rect x="162.721" y="197.997" width="6.90388" height="18.4104" transform="rotate(-12.2899 162.721 197.997)" fill="#303131"/>
<rect x="162.721" y="197.997" width="6.90388" height="18.4104" transform="rotate(-12.2899 162.721 197.997)" fill="#303131"/>
<rect x="196.624" y="191.224" width="6.90388" height="18.4104" transform="rotate(-12.2899 196.624 191.224)" fill="#303131"/>
<rect x="196.624" y="191.224" width="6.90388" height="18.4104" transform="rotate(-12.2899 196.624 191.224)" fill="#303131"/>
<rect x="196.624" y="191.224" width="6.90388" height="18.4104" transform="rotate(-12.2899 196.624 191.224)" fill="#303131"/>
<rect x="218.161" y="179.242" width="6.90388" height="18.4104" transform="rotate(-12.2899 218.161 179.242)" fill="#303131"/>
<rect x="218.161" y="179.242" width="6.90388" height="18.4104" transform="rotate(-12.2899 218.161 179.242)" fill="#303131"/>
<rect x="218.161" y="179.242" width="6.90388" height="18.4104" transform="rotate(-12.2899 218.161 179.242)" fill="#303131"/>
<rect x="241.106" y="174.419" width="6.90388" height="18.4104" transform="rotate(-12.2899 241.106 174.419)" fill="#303131"/>
<rect x="241.106" y="174.419" width="6.90388" height="18.4104" transform="rotate(-12.2899 241.106 174.419)" fill="#303131"/>
<rect x="241.106" y="174.419" width="6.90388" height="18.4104" transform="rotate(-12.2899 241.106 174.419)" fill="#303131"/>
<rect x="265.027" y="165.682" width="6.90388" height="18.4104" transform="rotate(-11.8687 265.027 165.682)" fill="#303131"/>
<rect x="265.027" y="165.682" width="6.90388" height="18.4104" transform="rotate(-11.8687 265.027 165.682)" fill="#303131"/>
<rect x="265.027" y="165.682" width="6.90388" height="18.4104" transform="rotate(-11.8687 265.027 165.682)" fill="#303131"/>
<rect x="294.639" y="157.415" width="6.90388" height="18.4104" transform="rotate(-11.8687 294.639 157.415)" fill="#303131"/>
<rect x="294.639" y="157.415" width="6.90388" height="18.4104" transform="rotate(-11.8687 294.639 157.415)" fill="#303131"/>
<rect x="294.639" y="157.415" width="6.90388" height="18.4104" transform="rotate(-11.8687 294.639 157.415)" fill="#303131"/>
<rect x="347.983" y="127.674" width="6.90388" height="18.4104" transform="rotate(-8.03208 347.983 127.674)" fill="#303131"/>
<rect x="347.983" y="127.674" width="6.90388" height="18.4104" transform="rotate(-8.03208 347.983 127.674)" fill="#303131"/>
<rect x="347.983" y="127.674" width="6.90388" height="18.4104" transform="rotate(-8.03208 347.983 127.674)" fill="#303131"/>
<rect x="330.499" y="130.23" width="6.90388" height="18.4104" transform="rotate(-8.63135 330.499 130.23)" fill="#303131"/>
<rect x="330.499" y="130.23" width="6.90388" height="18.4104" transform="rotate(-8.63135 330.499 130.23)" fill="#303131"/>
<rect x="330.499" y="130.23" width="6.90388" height="18.4104" transform="rotate(-8.63135 330.499 130.23)" fill="#303131"/>
<g style="mix-blend-mode:screen" opacity="0.5">
<path d="M181.906 237.371C182.137 238.994 182.369 240.617 182.6 242.241C182.685 242.836 183.089 246.371 183.374 245.007" stroke="#E4FFAA" stroke-width="1.5342" stroke-linecap="round"/>
</g>
<g style="mix-blend-mode:screen" opacity="0.5">
<path d="M188.677 238.729L189.111 241.767" stroke="#E4FFAA" stroke-width="1.5342" stroke-linecap="round"/>
</g>
<g style="mix-blend-mode:screen" opacity="0.5">
<path d="M216.507 221.975L216.941 225.013" stroke="#E4FFAA" stroke-width="1.5342" stroke-linecap="round"/>
</g>
<g style="mix-blend-mode:screen" opacity="0.5">
<path d="M219.762 220.348L219.979 221.867" stroke="#E4FFAA" stroke-width="1.5342" stroke-linecap="round"/>
</g>
<g style="mix-blend-mode:screen" opacity="0.5">
<path d="M265.328 211.137L265.815 214.555" stroke="#E4FFAA" stroke-width="1.5342" stroke-linecap="round"/>
</g>
<g style="mix-blend-mode:screen" opacity="0.5">
<path d="M276.286 201.051L277.098 206.747" stroke="#E4FFAA" stroke-width="1.5342" stroke-linecap="round"/>
</g>
<g style="mix-blend-mode:screen" opacity="0.5">
<path d="M280.462 203.167L280.787 205.445" stroke="#E4FFAA" stroke-width="1.5342" stroke-linecap="round"/>
</g>
<g style="mix-blend-mode:screen" opacity="0.5">
<path d="M96.5132 268.922L97.2172 273.858" stroke="#E4FFAA" stroke-width="1.5342" stroke-linecap="round"/>
</g>
<g style="mix-blend-mode:screen" opacity="0.5">
<path d="M100.472 272.231L101.014 276.028" stroke="#E4FFAA" stroke-width="1.5342" stroke-linecap="round"/>
</g>
<g style="mix-blend-mode:screen" opacity="0.5">
<path d="M364.355 244.182C364.662 245.793 364.969 247.403 365.276 249.014C365.388 249.605 366.152 253.08 365.441 251.882" stroke="#E4FFAA" stroke-width="1.5342" stroke-linecap="round"/>
</g>
<g style="mix-blend-mode:screen" opacity="0.5">
<path d="M358.389 247.661L358.963 250.675" stroke="#E4FFAA" stroke-width="1.5342" stroke-linecap="round"/>
</g>
<g style="mix-blend-mode:screen" opacity="0.5">
<path d="M326.632 240.827L327.206 243.842" stroke="#E4FFAA" stroke-width="1.5342" stroke-linecap="round"/>
</g>
<g style="mix-blend-mode:screen" opacity="0.5">
<path d="M323.025 240.343L323.313 241.85" stroke="#E4FFAA" stroke-width="1.5342" stroke-linecap="round"/>
</g>
<g style="mix-blend-mode:screen" opacity="0.5">
<path d="M276.934 246.392L277.58 249.783" stroke="#E4FFAA" stroke-width="1.5342" stroke-linecap="round"/>
</g>
<g style="mix-blend-mode:screen" opacity="0.5">
<path d="M263.298 240.401L264.375 246.052" stroke="#E4FFAA" stroke-width="1.5342" stroke-linecap="round"/>
</g>
<g style="mix-blend-mode:screen" opacity="0.5">
<path d="M260.033 243.756L260.463 246.016" stroke="#E4FFAA" stroke-width="1.5342" stroke-linecap="round"/>
</g>
<g style="mix-blend-mode:screen" opacity="0.5">
<path d="M455.364 246.364L456.297 251.262" stroke="#E4FFAA" stroke-width="1.5342" stroke-linecap="round"/>
</g>
<g style="mix-blend-mode:screen" opacity="0.5">
<path d="M452.691 250.777L453.409 254.545" stroke="#E4FFAA" stroke-width="1.5342" stroke-linecap="round"/>
</g>
<g style="mix-blend-mode:screen" opacity="0.5">
<path d="M483.808 190.725C484.115 192.336 484.422 193.947 484.728 195.558C484.841 196.148 485.604 199.623 484.893 198.425" stroke="#E4FFAA" stroke-width="1.5342" stroke-linecap="round"/>
</g>
<g style="mix-blend-mode:screen" opacity="0.5">
<path d="M477.842 194.205L478.416 197.219" stroke="#E4FFAA" stroke-width="1.5342" stroke-linecap="round"/>
</g>
<g style="mix-blend-mode:screen" opacity="0.5">
<path d="M446.084 187.371L446.659 190.385" stroke="#E4FFAA" stroke-width="1.5342" stroke-linecap="round"/>
</g>
<g style="mix-blend-mode:screen" opacity="0.5">
<path d="M442.479 186.887L442.766 188.394" stroke="#E4FFAA" stroke-width="1.5342" stroke-linecap="round"/>
</g>
<g style="mix-blend-mode:screen" opacity="0.5">
<path d="M396.387 192.936L397.033 196.327" stroke="#E4FFAA" stroke-width="1.5342" stroke-linecap="round"/>
</g>
<g style="mix-blend-mode:screen" opacity="0.5">
<path d="M382.751 186.945L383.828 192.596" stroke="#E4FFAA" stroke-width="1.5342" stroke-linecap="round"/>
</g>
<g style="mix-blend-mode:screen" opacity="0.5">
<path d="M379.485 190.3L379.916 192.56" stroke="#E4FFAA" stroke-width="1.5342" stroke-linecap="round"/>
</g>
<g style="mix-blend-mode:screen" opacity="0.5">
<path d="M574.817 192.907L575.75 197.805" stroke="#E4FFAA" stroke-width="1.5342" stroke-linecap="round"/>
</g>
<g style="mix-blend-mode:screen" opacity="0.5">
<path d="M572.144 197.321L572.861 201.089" stroke="#E4FFAA" stroke-width="1.5342" stroke-linecap="round"/>
</g>
<g style="mix-blend-mode:screen" opacity="0.5">
<path d="M493.659 127.817C493.891 129.441 494.122 131.064 494.354 132.687C494.439 133.282 494.842 136.817 495.127 135.454" stroke="#E4FFAA" stroke-width="1.5342" stroke-linecap="round"/>
</g>
<g style="mix-blend-mode:screen" opacity="0.5">
<path d="M500.431 129.176L500.864 132.214" stroke="#E4FFAA" stroke-width="1.5342" stroke-linecap="round"/>
</g>
<g style="mix-blend-mode:screen" opacity="0.5">
<path d="M528.26 112.421L528.694 115.459" stroke="#E4FFAA" stroke-width="1.5342" stroke-linecap="round"/>
</g>
<g style="mix-blend-mode:screen" opacity="0.5">
<path d="M531.515 110.795L531.732 112.314" stroke="#E4FFAA" stroke-width="1.5342" stroke-linecap="round"/>
</g>
<g style="mix-blend-mode:screen" opacity="0.5">
<path d="M577.081 101.584L577.568 105.001" stroke="#E4FFAA" stroke-width="1.5342" stroke-linecap="round"/>
</g>
<g style="mix-blend-mode:screen" opacity="0.5">
<path d="M588.04 91.4973L588.852 97.1929" stroke="#E4FFAA" stroke-width="1.5342" stroke-linecap="round"/>
</g>
<g style="mix-blend-mode:screen" opacity="0.5">
<path d="M408.267 159.368L408.971 164.304" stroke="#E4FFAA" stroke-width="1.5342" stroke-linecap="round"/>
</g>
<g style="mix-blend-mode:screen" opacity="0.5">
<path d="M412.226 162.678L412.767 166.475" stroke="#E4FFAA" stroke-width="1.5342" stroke-linecap="round"/>
</g>
<rect x="378.015" y="118.396" width="6.90388" height="18.4104" transform="rotate(-8.46361 378.015 118.396)" fill="#303131"/>
<rect x="378.015" y="118.396" width="6.90388" height="18.4104" transform="rotate(-8.46361 378.015 118.396)" fill="#303131"/>
<rect x="378.015" y="118.396" width="6.90388" height="18.4104" transform="rotate(-8.46361 378.015 118.396)" fill="#303131"/>
<rect x="398.898" y="115.417" width="6.90388" height="18.4104" transform="rotate(-8.46361 398.898 115.417)" fill="#303131"/>
<rect x="398.898" y="115.417" width="6.90388" height="18.4104" transform="rotate(-8.46361 398.898 115.417)" fill="#303131"/>
<rect x="398.898" y="115.417" width="6.90388" height="18.4104" transform="rotate(-8.46361 398.898 115.417)" fill="#303131"/>
<rect x="454.415" y="102.033" width="6.90388" height="18.4104" transform="rotate(-4.26889 454.415 102.033)" fill="#303131"/>
<rect x="454.415" y="102.033" width="6.90388" height="18.4104" transform="rotate(-4.26889 454.415 102.033)" fill="#303131"/>
<rect x="454.415" y="102.033" width="6.90388" height="18.4104" transform="rotate(-4.26889 454.415 102.033)" fill="#303131"/>
<rect x="478.771" y="98.9465" width="6.90388" height="18.4104" transform="rotate(-4.26889 478.771 98.9465)" fill="#303131"/>
<rect x="478.771" y="98.9465" width="6.90388" height="18.4104" transform="rotate(-4.26889 478.771 98.9465)" fill="#303131"/>
<rect x="478.771" y="98.9465" width="6.90388" height="18.4104" transform="rotate(-4.26889 478.771 98.9465)" fill="#303131"/>
<rect x="503.126" y="95.8599" width="6.90388" height="18.4104" transform="rotate(-4.26889 503.126 95.8599)" fill="#303131"/>
<rect x="503.126" y="95.8599" width="6.90388" height="18.4104" transform="rotate(-4.26889 503.126 95.8599)" fill="#303131"/>
<rect x="503.126" y="95.8599" width="6.90388" height="18.4104" transform="rotate(-4.26889 503.126 95.8599)" fill="#303131"/>
<rect x="527.481" y="92.7737" width="6.90388" height="18.4104" transform="rotate(-4.26889 527.481 92.7737)" fill="#303131"/>
<rect x="527.481" y="92.7737" width="6.90388" height="18.4104" transform="rotate(-4.26889 527.481 92.7737)" fill="#303131"/>
<rect x="527.481" y="92.7737" width="6.90388" height="18.4104" transform="rotate(-4.26889 527.481 92.7737)" fill="#303131"/>
<rect x="485.747" y="112.054" width="6.90388" height="18.4104" transform="rotate(-4.26889 485.747 112.054)" fill="#303131"/>
<rect x="485.747" y="112.054" width="6.90388" height="18.4104" transform="rotate(-4.26889 485.747 112.054)" fill="#303131"/>
<rect x="485.747" y="112.054" width="6.90388" height="18.4104" transform="rotate(-4.26889 485.747 112.054)" fill="#303131"/>
<rect x="524.223" y="110.673" width="6.90388" height="18.4104" transform="rotate(-4.26889 524.223 110.673)" fill="#303131"/>
<rect x="524.223" y="110.673" width="6.90388" height="18.4104" transform="rotate(-4.26889 524.223 110.673)" fill="#303131"/>
<rect x="524.223" y="110.673" width="6.90388" height="18.4104" transform="rotate(-4.26889 524.223 110.673)" fill="#303131"/>
<circle cx="451.223" cy="-70.5" r="32.0263" transform="rotate(-8.1173 451.223 -70.5)" fill="#FFEAA7"/>
<g filter="url(#filter2_d_1036_640)">
<path d="M111.418 27.5838L111.663 29.3035C109.493 31.7317 107.333 34.0703 105.182 36.3193C103.028 38.5467 100.387 41.0752 97.2591 43.9049C95.831 46.5805 94.5883 48.7772 93.5312 50.495C92.4771 52.2344 91.5575 53.6787 90.7724 54.828C89.9873 55.9773 89.5855 56.5643 89.5669 56.589C89.3166 56.9999 88.8607 57.4402 88.1993 57.9097C87.538 58.3792 86.9694 58.6479 86.4935 58.7158C85.823 58.8114 85.2251 58.6429 84.6999 58.2102C84.1994 57.796 83.9013 57.2537 83.8057 56.5831C83.5589 54.8527 84.2036 52.8737 85.7398 50.6462C87.2791 48.4403 89.6543 46.06 92.8653 43.5053C94.2409 40.771 95.5393 38.0367 96.7605 35.3024C97.9785 32.5464 99.0235 30.0469 99.8954 27.8037C100.789 25.5575 101.59 23.3577 102.298 21.2041C100.925 22.7241 99.5578 24.1992 98.1948 25.6296C96.8288 27.0383 95.489 28.3991 94.1754 29.7121C92.8588 31.0034 92.046 31.8035 91.7369 32.1124C91.4279 32.4213 91.1574 32.6916 90.9256 32.9233C87.6309 36.748 85.0534 38.793 83.1932 39.0583C81.4195 39.3113 79.8067 38.6805 78.3547 37.1661C76.9028 35.6517 75.9932 33.6075 75.6261 31.0335C75.3947 29.4112 75.4137 27.687 75.6829 25.8609C75.949 24.0132 76.4794 22.0836 77.274 20.0722C78.0902 18.0578 79.1211 16.0789 80.3668 14.1356C81.6125 12.1923 83.0296 10.368 84.6183 8.66266C87.0723 6.06147 89.8955 3.65038 93.0879 1.42942C96.2772 -0.81318 99.2888 -2.60005 102.123 -3.93119C104.953 -5.28396 107.072 -6.06061 108.478 -6.26114C109.3 -6.37838 109.978 -6.26544 110.512 -5.92234C111.065 -5.60395 111.489 -5.11255 111.782 -4.44814C112.094 -3.80845 112.304 -3.11007 112.412 -2.35301C112.511 -1.66084 112.393 -0.937812 112.059 -0.183937C111.564 0.835639 110.602 1.97716 109.171 3.24064C107.737 4.48248 106.276 5.61771 104.79 6.64634C103.3 7.65333 102.437 8.1738 102.199 8.20773C102.069 8.22624 101.998 8.19224 101.985 8.10572C101.958 7.91104 102.162 7.56192 102.598 7.05836C103.033 6.55479 103.522 6.0327 104.063 5.49208C105.259 4.28417 105.894 3.09004 105.968 1.90969C103.953 2.79297 101.976 3.85857 100.035 5.10648C98.0941 6.35439 96.2012 7.78307 94.3561 9.39253C92.511 11.002 90.6922 12.7953 88.8996 14.7725C86.8813 17.0246 85.2107 19.3154 83.8877 21.645C82.5832 23.9498 81.6357 26.0492 81.045 27.9432C80.4761 29.8341 80.2595 31.2555 80.3952 32.2072C80.497 32.921 80.8136 33.5159 81.345 33.9919C81.8733 34.4462 82.5267 34.6179 83.3054 34.5068C84.2139 34.3772 85.2816 33.8166 86.5086 32.825C87.8344 31.7531 89.2669 30.4232 90.806 28.8353C92.3637 27.2227 93.7916 25.7058 95.0897 24.2847C96.3878 22.8637 97.7879 21.3066 99.29 19.6137C100.681 18.069 101.752 16.8348 102.503 15.9111C103.272 14.9626 103.83 14.1547 104.177 13.4874C104.906 12.1032 105.7 11.2506 106.56 10.9294C107.44 10.6052 108.234 10.6795 108.942 11.1524C109.668 11.6006 110.088 12.2249 110.202 13.0252C110.239 13.2848 109.908 14.3693 109.21 16.2787C108.529 18.1635 107.455 20.921 105.986 24.5514C104.536 28.157 102.719 32.4331 100.533 37.3797C102.851 35.6807 106.479 32.4154 111.418 27.5838ZM111.338 30.2767L111.038 28.1678C112.008 26.6168 112.727 25.3115 113.194 24.2517C112.468 24.1125 111.918 23.893 111.544 23.5932C111.192 23.2903 110.966 22.7928 110.868 22.1006C110.756 21.3219 110.941 20.2914 111.42 19.0092C111.899 17.727 112.54 16.4989 113.344 15.3249C114.148 14.1508 114.917 13.3569 115.653 12.943C115.934 12.7484 116.215 12.6311 116.496 12.5909C116.929 12.5292 117.175 12.7039 117.233 13.1149C117.286 13.4826 117.057 14.2766 116.547 15.4971C120.904 14.1694 123.667 13.4222 124.835 13.2556C125.289 13.1908 125.609 13.1893 125.794 13.2512C126.19 13.3934 126.557 13.8045 126.897 14.4843C127.237 15.1642 127.457 15.861 127.559 16.5748C127.624 17.0291 127.489 17.5559 127.156 18.1553C126.84 18.7299 126.268 19.595 125.44 20.7504C124.47 22.1469 123.698 23.6253 123.126 25.1856C122.554 26.7459 122.321 27.8937 122.426 28.6292C122.571 29.6458 123.27 30.0646 124.525 29.8857C125.844 29.6975 127.946 28.0294 130.83 24.8814L131.14 27.0552C129.613 29.1931 128.342 30.8861 127.329 32.1343C126.315 33.3824 125.357 34.4019 124.454 35.1927C123.549 35.9619 122.707 36.402 121.928 36.5131C121.019 36.6427 120.204 36.3397 119.481 35.6041C118.755 34.8469 118.279 33.6788 118.054 32.0997C117.921 31.1696 118.008 30.0758 118.314 28.8183C118.621 27.5607 119.129 26.175 119.84 24.6611C120.57 23.1224 121.409 21.5792 122.358 20.0313C121.771 20.2475 121.11 20.4853 120.374 20.7447C119.636 20.9824 118.855 21.2372 118.033 21.5089C117.211 21.7806 116.579 21.9922 116.137 22.1435C115.179 25.0169 113.579 27.728 111.338 30.2767ZM136.067 25.3924L136.183 26.2035C136.365 27.4797 136.82 28.43 137.549 29.0543C138.278 29.6787 139.151 29.9183 140.168 29.7733C141.228 29.6221 142.285 29.2176 143.338 28.5597C144.414 27.8987 145.455 27.077 146.463 26.0946C147.471 25.1122 148.687 23.8131 150.112 22.1974L150.394 24.1766C148.369 27.4669 146.399 30.0544 144.483 31.9388C142.563 33.8016 140.5 34.8904 138.294 35.205C136.369 35.4796 134.738 34.9509 133.4 33.6188C132.062 32.2867 131.208 30.3229 130.838 27.7272C130.514 25.456 130.751 23.3256 131.549 21.3358C132.343 19.3244 133.795 17.1201 135.903 14.7227C137.346 13.0823 138.828 11.7895 140.348 10.8443C141.869 9.89908 143.267 9.33548 144.543 9.15345C145.56 9.00845 146.394 9.13224 147.046 9.52481C147.716 9.89266 148.118 10.5416 148.251 11.4718C148.445 12.8345 148.131 14.2697 147.309 15.7774C146.483 17.2635 145.117 18.8267 143.211 20.467C141.322 22.0827 138.941 23.7244 136.067 25.3924ZM136.091 23.2371C137.929 22.2024 139.461 21.0239 140.685 19.7017C141.909 18.3795 142.772 17.1638 143.276 16.0546C143.799 14.9207 144.026 14.1158 143.958 13.6399C143.887 13.1424 143.625 12.9261 143.17 12.9909C142.781 13.0464 142.179 13.3862 141.363 14.0102C140.568 14.6311 139.774 15.4065 138.98 16.3364C138.207 17.2632 137.541 18.3183 136.981 19.5016C136.422 20.6849 136.125 21.9301 136.091 23.2371ZM155.469 22.625L155.585 23.4362C155.767 24.7124 156.223 25.6626 156.952 26.287C157.681 26.9113 158.554 27.151 159.57 27.006C160.63 26.8548 161.687 26.4502 162.741 25.7923C163.816 25.1313 164.858 24.3096 165.865 23.3272C166.873 22.3448 168.089 21.0458 169.514 19.4301L169.796 21.4092C167.772 24.6996 165.801 27.287 163.885 29.1714C161.966 31.0343 159.903 32.123 157.697 32.4377C155.772 32.7123 154.14 32.1835 152.803 30.8514C151.465 29.5194 150.611 27.5555 150.241 24.9599C149.917 22.6887 150.154 20.5582 150.951 18.5684C151.746 16.5571 153.197 14.3527 155.305 11.9554C156.748 10.3149 158.23 9.0221 159.751 8.07691C161.271 7.13172 162.67 6.56812 163.946 6.3861C164.962 6.24109 165.797 6.36488 166.449 6.75745C167.119 7.12531 167.521 7.77429 167.653 8.70439C167.848 10.0671 167.534 11.5023 166.711 13.01C165.886 14.4961 164.52 16.0593 162.613 17.6997C160.725 19.3153 158.343 20.9571 155.469 22.625ZM155.493 20.4698C157.332 19.4351 158.863 18.2566 160.087 16.9344C161.311 15.6121 162.175 14.3964 162.679 13.2872C163.201 12.1533 163.429 11.3485 163.361 10.8726C163.29 10.3751 163.027 10.1587 162.573 10.2235C162.184 10.2791 161.581 10.6188 160.765 11.2428C159.971 11.8637 159.177 12.6391 158.382 13.569C157.61 14.4958 156.943 15.5509 156.384 16.7342C155.824 17.9176 155.527 19.1627 155.493 20.4698ZM178.501 0.96647L179.896 0.767479C180.749 -1.45092 181.581 -3.04824 182.39 -4.02449C183.197 -5.02237 184.195 -5.60615 185.385 -5.77583C186.575 -5.94551 187.208 -5.75997 187.285 -5.21921C187.322 -4.95965 186.957 -4.19033 186.191 -2.91126C185.424 -1.63218 184.859 -0.569364 184.494 0.277203C185.242 0.258831 185.901 0.241983 186.473 0.226661C187.066 0.208254 187.528 0.197543 187.859 0.194526C186.953 2.6632 185.741 5.23069 184.223 7.89698C183.611 7.9401 183.098 7.98016 182.684 8.01715C182.267 8.0325 181.841 8.06022 181.405 8.10029C180.988 8.11565 180.474 8.14489 179.862 8.18801C178.962 10.2365 178.219 12.064 177.631 13.6706C177.062 15.2526 176.649 16.6909 176.393 17.9855C176.157 19.277 176.119 20.4744 176.276 21.5775C176.489 23.07 177.19 23.7315 178.38 23.5618C179.202 23.4445 180.211 22.8592 181.407 21.8058C182.621 20.7277 184.213 19.1213 186.182 16.9865L186.492 19.1604C181.556 26.3311 177.692 30.1154 174.902 30.5134C173.929 30.6522 173.085 30.3863 172.371 29.7156C171.679 29.0419 171.249 28.1101 171.079 26.9205C170.965 26.1201 170.991 25.1453 171.158 23.9958C171.347 22.8433 171.715 21.0914 172.263 18.7401C171.997 19.0428 171.742 19.344 171.498 19.6437C171.272 19.9187 171.056 20.1813 170.849 20.4315C170.66 20.657 170.453 20.9073 170.227 21.1822C169.999 21.4355 169.772 21.6997 169.546 21.9746L169.227 19.7359C171.226 17.5085 173.497 13.7748 176.038 8.53477C175.71 8.55942 175.406 8.5918 175.125 8.6319C174.84 8.65038 174.504 8.68738 174.114 8.74292C172.838 8.92494 171.899 9.14721 171.296 9.40972C171.046 9.51163 170.808 9.62282 170.582 9.74327C170.375 9.83902 170.228 9.89306 170.142 9.9054C170.055 9.91774 170.003 9.85902 169.984 9.72924C169.883 9.01543 170.173 7.88148 170.856 6.32739C171.397 5.01427 171.94 4.02097 172.484 3.34748C173.05 2.67091 173.773 2.1705 174.653 1.84625C175.553 1.49728 176.835 1.20402 178.501 0.96647ZM197.36 0.660143C196.82 0.737271 196.271 0.605825 195.715 0.265805C195.18 -0.0772994 194.869 -0.562493 194.779 -1.18977C194.643 -2.14151 194.946 -3.26619 195.688 -4.56381C196.43 -5.86142 197.288 -6.57965 198.261 -6.71848C198.91 -6.81103 199.48 -6.68267 199.971 -6.3334C200.459 -6.00575 200.758 -5.4634 200.866 -4.70633C200.998 -3.77623 200.701 -2.68554 199.975 -1.43427C199.248 -0.182994 198.377 0.515142 197.36 0.660143ZM201.635 14.8486L201.973 17.2172C200.26 20.2202 198.594 22.5435 196.975 24.187C195.352 25.8089 193.903 26.7108 192.627 26.8928C190.853 27.1458 189.401 26.4039 188.27 24.6671C187.14 22.9303 186.417 20.9587 186.103 18.7524C185.982 17.9088 185.955 17.0962 186.02 16.3144C186.082 15.5111 186.196 14.8436 186.363 14.3122C186.53 13.7808 186.863 12.9388 187.36 11.7864C189.75 6.56799 192.221 3.77676 194.773 3.41272C196.093 3.22453 196.825 3.63874 196.97 4.65537C197.069 5.34755 196.79 6.49077 196.135 8.08504C195.501 9.67623 194.894 10.8333 194.313 11.5562C192.69 13.6416 191.638 15.0828 191.155 15.8799C190.695 16.6739 190.529 17.5252 190.659 18.4336C190.77 19.2123 191.154 19.8196 191.813 20.2554C192.471 20.6913 193.265 20.8428 194.195 20.7102C195.211 20.5652 196.273 20.0386 197.379 19.1304C198.504 18.1975 199.923 16.7702 201.635 14.8486ZM222.406 5.89395C219.204 10.6765 217.722 13.9005 217.959 15.5661C218.092 16.4962 218.537 16.9072 219.294 16.7993C219.921 16.7098 220.686 16.2696 221.588 15.4788C222.509 14.6633 223.92 13.2592 225.821 11.2666L226.14 13.5054C223.501 16.9717 221.455 19.4926 220.002 21.0682C218.549 22.6438 217.304 23.5056 216.266 23.6537C214.492 23.9066 213.439 22.8651 213.105 20.529C213.007 19.8368 213.018 19.1401 213.138 18.4387C213.259 17.7373 213.452 17.0034 213.718 16.2372C214.003 15.4462 214.439 14.3247 215.026 12.8725C215.61 11.3987 216.289 9.73495 217.062 7.88114C215.918 8.68428 214.549 10.1486 212.954 12.2741C211.91 13.615 211.041 14.8755 210.349 16.0557C209.653 17.2143 208.911 18.5119 208.123 19.9485C207.353 21.3605 206.774 22.3259 206.384 22.845C206.013 23.3393 205.601 23.6188 205.146 23.6836C204.454 23.7823 203.713 23.1487 202.922 21.7828C202.131 20.4169 201.599 18.7713 201.324 16.8462C201.155 15.6566 201.152 14.7079 201.316 14.0004C201.501 13.2897 201.906 12.2609 202.531 10.9138C203.696 8.40809 204.744 6.54816 205.674 5.33402C206.602 4.09824 207.563 3.4094 208.558 3.26748C209.25 3.16876 209.818 3.20905 210.263 3.38837C210.73 3.5646 210.999 3.90147 211.07 4.39897C211.1 4.61527 211.068 4.85165 210.972 5.10809C210.876 5.36454 210.756 5.60244 210.61 5.82179C210.487 6.03806 210.206 6.46441 209.767 7.10084C206.889 11.3736 205.53 14.0724 205.691 15.1972C205.78 15.8245 206.03 16.1088 206.441 16.0502C206.701 16.0131 207.14 15.5312 207.758 14.6044C208.395 13.6528 209.201 12.4232 210.178 10.9155C211.174 9.38309 212.367 7.76731 213.757 6.06815C215.17 4.36589 216.806 2.68687 218.667 1.03106C219.699 0.0672277 220.594 -0.46868 221.351 -0.57666C221.697 -0.626022 222.1 -0.197972 222.56 0.707489C223.042 1.60986 223.353 2.54774 223.491 3.5211C223.559 3.99697 223.198 4.78792 222.406 5.89395ZM251.749 9.919L242.241 20.313C239.959 25.9795 237.758 30.2772 235.638 33.206C233.52 36.1564 231.856 37.718 230.645 37.8908C229.996 37.9833 229.614 37.6294 229.5 36.8291C229.278 35.2717 229.784 33.1691 231.017 30.5213C231.509 29.4801 232.09 28.4482 232.761 27.4256C233.453 26.3998 234.108 25.5008 234.726 24.7285C235.369 23.9747 236.215 23.0154 237.262 21.8507C238.313 20.7077 239.029 19.9214 239.409 19.492C240.943 14.7709 242.019 11.1744 242.637 8.70261C240.912 11.1557 239.392 13.1823 238.075 14.7826C236.758 16.3829 235.516 17.6526 234.348 18.5917C233.198 19.5061 232.115 20.0358 231.098 20.1808C229.995 20.3381 228.854 19.6071 227.674 17.9877C226.49 16.3466 225.766 14.596 225.501 12.7358C225.378 11.8706 225.443 10.9344 225.696 9.92708C225.971 8.91673 226.454 7.81063 227.143 6.60879C227.854 5.40386 228.789 4.14492 229.948 2.83194C231.104 1.49734 232.492 0.162785 234.111 -1.17172C237.165 -3.74806 239.621 -5.16889 241.482 -5.43421C242.866 -5.63166 243.631 -5.22207 243.776 -4.20544C243.976 -2.79946 242.669 -1.21152 239.853 0.5584C238.129 1.62096 236.452 2.94154 234.824 4.52015C233.217 6.09567 231.957 7.70989 231.045 9.36281C230.152 10.991 229.79 12.4 229.96 13.5896C230.043 14.1737 230.25 14.6187 230.58 14.9246C230.911 15.2306 231.303 15.3512 231.758 15.2864C232.515 15.1784 233.33 14.709 234.205 13.878C235.08 13.0469 236.344 11.6197 237.997 9.59612C238.749 8.67239 239.711 7.22186 240.886 5.24455C242.079 3.24253 243.074 1.71013 243.872 0.647362C244.688 -0.440121 245.474 -1.03785 246.231 -1.14583C246.664 -1.20753 247.03 -1.1163 247.33 -0.872125C247.648 -0.652667 247.844 -0.283373 247.918 0.235757C248.06 1.23076 247.867 2.73707 247.338 4.75469C246.828 6.7476 245.852 10.0428 244.411 14.6404L251.448 7.81003L251.749 9.919ZM251.212 8.70453L251.101 7.92583C255.842 1.2464 259.094 -3.4218 260.856 -6.07877C260.952 -8.80719 261.909 -10.301 263.726 -10.5601C264.18 -10.6249 264.685 -10.5645 265.241 -10.379L265.524 -9.79032C265.475 -9.51841 265.484 -9.14452 265.552 -8.66865C265.61 -8.25768 265.871 -7.51139 266.334 -6.4298C266.816 -5.37293 267.198 -4.4783 267.479 -3.74592C267.76 -3.01354 267.968 -2.17148 268.104 -1.21974C268.307 0.207868 268.179 1.62768 267.718 3.03968C267.254 4.43006 266.492 5.81883 265.432 7.20598C264.369 8.57151 262.953 10.0204 261.186 11.5526C261.983 11.5713 262.609 11.5483 263.063 11.4835C263.95 11.357 264.87 11.005 265.825 10.4274C266.799 9.82503 267.763 9.08056 268.718 8.19396C269.692 7.28264 270.807 6.13033 272.065 4.73704L272.375 6.9109C269.992 10.0096 267.809 12.4177 265.825 14.1353C263.837 15.8312 262.054 16.7918 260.475 17.017C258.442 17.307 256.437 16.7102 254.459 15.2266C253.295 14.3334 252.515 13.4294 252.119 12.5146C251.746 11.5968 251.443 10.3268 251.212 8.70453ZM262.606 2.01422L261.346 -2.63954C260.221 -0.934133 257.77 2.38393 253.993 7.31467C255.331 7.41075 256.272 7.66279 256.816 8.07079C257.359 8.47879 258.161 9.30244 259.221 10.5418C260.605 9.72631 261.613 8.74393 262.243 7.59461C262.892 6.42057 263.087 4.92507 262.828 3.10812C262.797 2.89181 262.759 2.69868 262.713 2.52872C262.688 2.35568 262.652 2.18418 262.606 2.01422ZM308.738 -0.427355L309.057 1.81139C307.945 3.29432 307.095 4.37562 306.507 5.05528C305.92 5.73494 305.086 6.46089 304.004 7.23314C304.285 9.20151 304.427 10.8917 304.429 12.3039C304.432 13.716 304.206 15.2269 303.752 16.8367C303.3 18.4681 302.501 20.2925 301.354 22.31C300.226 24.3028 299.059 25.8707 297.854 27.0137C296.652 28.1783 295.672 28.8146 294.915 28.9226C294.071 29.0429 293.194 28.4618 292.283 27.1793C291.371 25.8968 290.769 24.228 290.476 22.1732C290.195 20.2048 290.234 18.0805 290.593 15.8001C290.952 13.5198 291.588 10.549 292.5 6.88758C291.243 5.65441 290.517 4.35646 290.323 2.99375C290.165 1.8906 290.326 1.00691 290.805 0.342673C291.284 -0.321562 292.009 -0.965656 292.98 -1.58961C293.567 -2.88726 294.137 -3.99489 294.691 -4.91248C295.262 -5.85479 296.034 -7.10142 297.004 -8.65236C298.464 -14.5106 300.332 -20.2946 302.607 -26.0043C303.241 -27.5955 303.706 -28.6661 304.003 -29.216C304.297 -29.7876 304.649 -30.1027 305.06 -30.1613C305.428 -30.2138 305.791 -29.9897 306.149 -29.489C306.507 -28.9883 306.748 -28.3054 306.872 -27.4402C307.023 -26.3803 307.043 -25.39 306.931 -24.4692C306.841 -23.5515 306.645 -22.6075 306.342 -21.6374C306.057 -20.6919 305.626 -19.5379 305.048 -18.1754C304.492 -16.8159 304.148 -15.9724 304.019 -15.6449C303.208 -13.5872 302.287 -11.3039 301.255 -8.79509C300.222 -6.28628 299.401 -4.30425 298.792 -2.84902C298.205 -1.39687 297.786 -0.310839 297.535 0.409066C298.848 1.2591 299.893 2.00401 300.668 2.64381C301.465 3.28052 302.185 4.07171 302.827 5.01738C303.523 4.63129 304.145 4.20038 304.696 3.72465C305.246 3.24892 305.884 2.61716 306.61 1.82938C307.333 1.01998 308.043 0.26773 308.738 -0.427355ZM300.277 9.65175L300.115 8.97964C299.519 9.13092 299.035 9.22196 298.664 9.25278C298.29 9.26197 297.844 9.22633 297.325 9.14588C296.827 9.06234 296.429 8.97573 296.129 8.88605C295.851 8.79329 295.54 8.70516 295.197 8.62165C294.127 12.8794 293.782 16.3385 294.162 18.9991C294.35 20.3185 294.705 21.4155 295.227 22.2901C295.77 23.1616 296.313 23.5588 296.853 23.4816C297.416 23.4014 298.048 22.8037 298.75 21.6883C299.473 20.5699 300.009 18.9926 300.359 16.9564C300.709 14.9202 300.681 12.4853 300.277 9.65175ZM308.738 2.12186L308.437 0.0128974C309.407 -1.53805 310.126 -2.84339 310.593 -3.90314C309.867 -4.04235 309.317 -4.26186 308.943 -4.56167C308.591 -4.86457 308.365 -5.3621 308.267 -6.05428C308.156 -6.83297 308.34 -7.86343 308.819 -9.14566C309.298 -10.4279 309.94 -11.656 310.743 -12.83C311.547 -14.004 312.316 -14.798 313.052 -15.2118C313.333 -15.4064 313.614 -15.5238 313.896 -15.5639C314.328 -15.6256 314.574 -15.451 314.632 -15.04C314.685 -14.6723 314.456 -13.8782 313.946 -12.6578C318.303 -13.9855 321.066 -14.7327 322.234 -14.8993C322.688 -14.964 323.008 -14.9655 323.193 -14.9037C323.589 -14.7614 323.956 -14.3504 324.296 -13.6705C324.636 -12.9907 324.856 -12.2938 324.958 -11.58C325.023 -11.1258 324.889 -10.599 324.555 -9.9996C324.239 -9.42494 323.668 -8.55988 322.839 -7.40442C321.869 -6.00798 321.097 -4.5296 320.525 -2.9693C319.953 -1.409 319.72 -0.261133 319.825 0.474301C319.97 1.49093 320.669 1.90978 321.924 1.73084C323.243 1.54265 325.345 -0.125462 328.229 -3.27349L328.539 -1.09963C327.012 1.03828 325.741 2.73129 324.728 3.97941C323.714 5.22753 322.756 6.247 321.853 7.03783C320.948 7.80702 320.106 8.24716 319.327 8.35822C318.419 8.4878 317.603 8.1848 316.88 7.44923C316.154 6.69202 315.678 5.52391 315.453 3.94489C315.321 3.01479 315.407 1.92096 315.713 0.663415C316.02 -0.59413 316.528 -1.97986 317.239 -3.49378C317.969 -5.03242 318.808 -6.57567 319.757 -8.12353C319.17 -7.90736 318.509 -7.66958 317.773 -7.41019C317.035 -7.17243 316.254 -6.91768 315.432 -6.64595C314.61 -6.37421 313.978 -6.16269 313.537 -6.01138C312.578 -3.13794 310.978 -0.426854 308.738 2.12186ZM348.961 -6.23058L349.271 -4.05672C348.029 -2.55528 347.006 -1.52655 346.202 -0.970538C345.399 -0.414525 344.18 -0.0640874 342.545 0.0807754C340.208 3.81292 337.969 5.83171 335.828 6.13714C334.617 6.30991 333.456 6.06708 332.347 5.40868C331.238 4.75027 330.282 3.77208 329.479 2.47412C328.697 1.17307 328.185 -0.331853 327.941 -2.04065C327.744 -3.425 327.979 -5.02555 328.647 -6.84229C329.336 -8.66213 330.302 -10.4 331.545 -12.056C332.806 -13.7366 334.206 -15.1391 335.745 -16.2635C337.281 -17.4096 338.763 -18.0844 340.19 -18.288C341.207 -18.433 342.03 -18.3849 342.661 -18.1438C343.288 -17.9242 343.641 -17.5333 343.722 -16.9709C343.783 -16.5383 343.606 -16.0053 343.188 -15.372C344.035 -15.3162 344.639 -15.1044 345 -14.7366C345.359 -14.3904 345.614 -13.6874 345.765 -12.6275C345.913 -11.5892 345.851 -10.2451 345.578 -8.59515C345.328 -6.94826 344.879 -5.37248 344.233 -3.86782L344.901 -3.36709L345.387 -3.43651C345.755 -3.48896 346.1 -3.62638 346.421 -3.84879C346.761 -4.09591 347.058 -4.33686 347.311 -4.57164C347.561 -4.82805 348.111 -5.38103 348.961 -6.23058ZM341.061 -13.8105C339.419 -12.4729 338.024 -11.2697 336.874 -10.2008C335.722 -9.15355 334.767 -8.11244 334.009 -7.07748C333.249 -6.06414 332.782 -5.08164 332.609 -4.12997C332.414 -1.63024 332.33 -0.283033 332.358 -0.0883589C332.561 1.33925 333.658 1.91114 335.648 1.6273C336.578 1.49464 338.021 0.472189 339.978 -1.44006C339.465 -2.40424 339.142 -3.35138 339.01 -4.28149C338.815 -5.64421 338.899 -7.06866 339.261 -8.55485C339.62 -10.0627 340.22 -11.8145 341.061 -13.8105ZM364.4 -3.83087C367.008 -6.89552 369.245 -9.55393 371.108 -11.8061C372.969 -14.0799 374.425 -15.8656 375.476 -17.1631C376.548 -18.4637 377.494 -19.5697 378.313 -20.4811C379.132 -21.3924 379.671 -21.8666 379.931 -21.9037C380.425 -21.9962 380.975 -21.545 381.581 -20.5499C382.183 -19.5764 382.529 -18.776 382.618 -18.1488C382.677 -17.7378 382.124 -16.6657 380.958 -14.9325C379.812 -13.224 378.957 -11.8661 378.394 -10.8589C377.853 -9.85482 377.654 -8.85527 377.796 -7.86027C377.879 -7.27625 378.142 -6.82814 378.583 -6.51596C379.022 -6.22541 379.512 -6.11869 380.053 -6.19582C380.68 -6.28529 381.38 -6.71618 382.152 -7.4885C382.947 -8.2639 384.166 -9.61858 385.81 -11.5525L386.139 -9.24889C384.51 -7.20679 383.02 -5.4273 381.67 -3.91044C380.316 -2.4152 379.112 -1.26137 378.058 -0.448943C377.023 0.338765 376.127 0.786609 375.37 0.894588C374.699 0.990227 374.101 0.821691 373.576 0.388979C373.048 -0.0653628 372.73 -0.671066 372.622 -1.42813C372.517 -2.16356 372.54 -2.92832 372.692 -3.72241C372.843 -4.51649 373.115 -5.47123 373.508 -6.58662C373.901 -7.70201 374.437 -9.04756 375.117 -10.6233C375.794 -12.2206 376.414 -13.6774 376.977 -14.9936C375.027 -12.8836 373.316 -10.874 371.845 -8.96471C370.373 -7.05545 369.187 -5.3964 368.284 -3.98759C367.378 -2.6004 366.663 -1.50517 366.137 -0.701894C365.117 0.811958 364.088 1.64293 363.05 1.79101C361.925 1.95144 361.248 1.23133 361.02 -0.369321C360.928 -1.01823 361.184 -2.23562 361.79 -4.02148C362.393 -5.82897 363.288 -8.14161 364.476 -10.9594C364.581 -11.1509 364.607 -11.4306 364.555 -11.7983C364.493 -12.2309 364.246 -12.4164 363.813 -12.3546C363.337 -12.2868 362.71 -11.7338 361.931 -10.6958C361.171 -9.68242 359.707 -7.56458 357.54 -4.34224C356.941 -3.44011 356.279 -2.27534 355.556 -0.847941C354.851 0.554743 354.335 1.50015 354.007 1.9883C353.679 2.47644 353.321 2.74827 352.932 2.8038C352.153 2.91487 351.329 2.32605 350.461 1.03734C349.594 -0.251366 349.028 -1.81501 348.766 -3.6536C348.575 -4.99468 348.626 -6.18276 348.92 -7.21783C349.235 -8.25599 349.755 -9.56601 350.478 -11.1479C351.628 -13.4528 352.594 -15.1134 353.376 -16.1298C354.177 -17.171 355.085 -17.764 356.102 -17.909C356.729 -17.9985 357.278 -17.9443 357.747 -17.7464C358.214 -17.5702 358.478 -17.2658 358.54 -16.8332C358.604 -16.3789 358.311 -15.5756 357.658 -14.4232C357.028 -13.2739 356.185 -12.0613 355.132 -10.7853C354.572 -10.0655 354.067 -9.19889 353.615 -8.18548C353.161 -7.19371 352.963 -6.49233 353.022 -6.08135C353.105 -5.49733 353.374 -5.23772 353.828 -5.3025C354.196 -5.35495 355.018 -6.24467 356.294 -7.97168C357.571 -9.69868 358.969 -11.5755 360.49 -13.6022C362.029 -15.6536 363.473 -17.3713 364.82 -18.7553C366.186 -20.164 367.399 -20.9439 368.459 -21.0951C369.108 -21.1877 369.674 -21.0145 370.156 -20.5756C370.656 -20.1614 370.957 -19.5975 371.059 -18.8837C371.127 -18.4078 370.926 -17.4963 370.456 -16.1492C369.983 -14.8237 369.25 -13.1522 368.258 -11.1347C367.284 -9.14186 365.998 -6.70726 364.4 -3.83087Z" fill="#FFC83C"/>
</g>
<path d="M430.618 231.752L435.389 265.205L453.32 262.648L454.874 273.546L426.046 277.657L419.72 233.306L430.618 231.752ZM485.657 238.447C485.061 234.266 482.574 223.178 467.558 225.32C452.542 227.461 453.255 238.802 453.851 242.984L456.11 258.824C456.707 263.005 459.193 274.093 474.209 271.952C489.225 269.81 488.513 258.469 487.917 254.287L485.657 238.447ZM476.54 252.483C477.236 257.362 477.344 260.385 472.655 261.054C467.967 261.723 467.225 258.79 466.529 253.911L465.228 244.788C464.532 239.909 464.424 236.886 469.113 236.217C473.801 235.549 474.543 238.481 475.239 243.36L476.54 252.483ZM521.838 231.477C521.042 225.901 516.681 218.442 503.376 220.34C489.184 222.364 489.643 233.742 489.977 235.633C492.056 250.206 511.272 246.237 513.244 251.451C513.868 253.107 511.849 255.27 508.744 255.713C505.64 256.155 503.151 255.476 502.184 250.959L491.747 254.84C492.542 260.415 496.74 268.544 510.299 266.61C525.315 264.469 525.87 252.947 525.598 251.046C523.52 236.473 503.2 239.501 501.608 234.686C501.147 233.264 502.459 231.59 504.93 231.238C508.035 230.795 510.406 231.556 511.464 235.348L521.838 231.477ZM581.636 255.466L570.739 257.02L569.41 247.706L560.16 249.026L561.488 258.339L550.591 259.894L546.452 230.875C545.313 222.892 545.369 214.221 559.625 212.188C573.881 210.155 576.359 218.464 577.498 226.447L581.636 255.466ZM566.6 228.002C566.166 224.96 565.506 223.503 561.324 224.1C557.142 224.696 556.916 226.28 557.349 229.321L558.597 238.065L567.847 236.745L566.6 228.002ZM594.133 208.43L607.605 231.269L604.144 207.002L615.042 205.448L621.367 249.799L608.569 251.624L595.07 228.596L598.558 253.052L587.66 254.607L581.335 210.255L594.133 208.43ZM654.636 214.346C654.04 210.164 651.49 199.086 636.474 201.227C621.458 203.369 622.17 214.71 622.767 218.892L625.026 234.731C625.622 238.913 628.109 250.001 643.125 247.859C658.141 245.718 657.428 234.377 656.832 230.195L655.341 219.741L638.868 222.09L640.133 230.96L645.708 230.165C646.151 233.27 646.259 236.293 641.571 236.962C636.882 237.63 636.141 234.698 635.445 229.819L634.143 220.695C633.448 215.817 633.34 212.794 638.028 212.125C642.717 211.456 643.576 213.855 644.453 218.191L654.636 214.346ZM688.532 194.966L690.087 205.864L670.952 208.593L671.784 214.422L685.406 212.479L686.96 223.376L673.338 225.319L674.169 231.148L693.304 228.419L694.858 239.317L664.446 243.655L658.12 199.304L688.532 194.966ZM704.286 192.719L709.057 226.172L726.988 223.615L728.542 234.513L699.714 238.624L693.388 194.273L704.286 192.719ZM756.532 185.267L758.086 196.165L738.952 198.894L739.783 204.723L753.405 202.78L754.959 213.678L741.337 215.621L742.169 221.45L761.303 218.721L762.857 229.618L732.445 233.956L726.119 189.605L756.532 185.267ZM792.659 192.85C791.864 187.274 787.503 179.815 774.198 181.713C760.005 183.737 760.464 195.115 760.799 197.006C762.877 211.579 782.094 207.61 784.065 212.823C784.69 214.48 782.671 216.643 779.566 217.085C776.462 217.528 773.973 216.849 773.005 212.332L762.569 216.213C763.364 221.788 767.562 229.917 781.121 227.983C796.137 225.841 796.691 214.32 796.42 212.419C794.342 197.846 774.022 200.874 772.43 196.058C771.968 194.637 773.281 192.963 775.752 192.611C778.857 192.168 781.228 192.929 782.286 196.721L792.659 192.85ZM812.062 211.481L813.346 220.478C814.087 225.673 812.266 229.682 806.121 230.559C808.42 227.645 808.385 225.129 808.168 223.156L802.719 223.933L801.165 213.035L812.062 211.481ZM843.834 190.787C843.138 185.909 843.03 182.886 847.719 182.217C852.407 181.548 853.266 183.947 854.143 188.283L864.327 184.438C863.73 180.257 861.18 169.178 846.164 171.319C831.148 173.461 831.861 184.802 832.457 188.984L834.716 204.823C835.313 209.005 837.799 220.093 852.815 217.951C867.831 215.81 867.182 204.46 866.586 200.278L855.734 199.434C856.104 203.842 855.95 206.385 851.261 207.054C846.572 207.722 845.831 204.79 845.135 199.911L843.834 190.787ZM903.566 209.549L892.668 211.104L891.34 201.79L882.089 203.109L883.418 212.423L872.52 213.977L868.381 184.959C867.243 176.976 867.299 168.305 881.555 166.272C895.81 164.238 898.288 172.548 899.427 180.531L903.566 209.549ZM888.529 182.085C888.096 179.044 887.435 177.587 883.253 178.183C879.072 178.779 878.845 180.363 879.279 183.405L880.526 192.148L889.776 190.829L888.529 182.085Z" fill="#FFD13C"/>
<path d="M148.219 212.283C150.606 211.942 152.328 209.759 151.984 207.345L141.425 133.313C141.08 130.899 138.817 129.284 136.43 129.625L124.763 131.289C122.376 131.629 120.654 133.813 120.998 136.226L124.857 163.285L116.087 164.536L112.228 137.477C111.883 135.064 109.62 133.449 107.233 133.789L95.5655 135.453C93.1787 135.794 91.4568 137.977 91.8011 140.391L102.36 214.423C102.704 216.837 104.968 218.452 107.355 218.111L119.022 216.447C121.409 216.107 123.131 213.923 122.787 211.51L118.943 184.562L127.714 183.312L131.557 210.259C131.902 212.672 134.165 214.287 136.552 213.947L148.219 212.283Z" fill="#F4F4F4" stroke="#313131" stroke-width="2.94925"/>
<path d="M176.787 152.957L181.329 167.505L176.525 168.19L176.787 152.957ZM204.995 195.941C207.609 195.568 209.079 192.851 208.282 190.416L184.663 118.234C184.041 116.336 182.186 115.071 180.177 115.358L163.058 117.8C161.048 118.086 159.619 119.82 159.555 121.818L157.106 197.718C157.024 200.278 159.194 202.473 161.807 202.1L172.395 200.59C174.427 200.3 175.861 198.534 175.899 196.515L176.055 188.437L187.392 186.82L189.799 194.532C190.401 196.46 192.271 197.755 194.303 197.465L204.995 195.941Z" fill="#F4F4F4" stroke="#313131" stroke-width="2.73419"/>
<path d="M200.296 116.301L201.395 116.931L200.296 116.301C199.774 117.214 199.623 118.305 199.837 119.337L211.028 173.394C211.243 174.433 211.82 175.38 212.67 176.009L223.161 183.783C224.006 184.409 225.063 184.675 226.101 184.46L243.969 180.761C245.008 180.546 245.872 179.883 246.399 178.973L252.941 167.673C253.471 166.757 253.625 165.659 253.41 164.62L250.737 151.707C250.303 149.609 248.36 147.958 246.154 148.414L236.19 150.477C233.984 150.934 232.857 153.221 233.291 155.318L234.786 162.543L227.296 164.093L218.473 121.477L225.964 119.927L227.448 127.096C227.883 129.194 229.825 130.845 232.031 130.389L241.996 128.326C244.201 127.869 245.328 125.582 244.894 123.484L242.219 110.563C242.006 109.531 241.434 108.589 240.592 107.959L230.073 100.085C229.226 99.4506 228.163 99.1798 227.118 99.3961L209.264 103.092C208.219 103.309 207.35 103.979 206.824 104.898L200.296 116.301Z" fill="#F4F4F4" stroke="#313131" stroke-width="2.54654"/>
<path d="M272.206 86.109L273.439 86.2278L272.206 86.109L269.943 109.594L265.538 88.9115C265.092 86.8165 263.14 85.1761 260.937 85.6453L250.984 87.7652C248.781 88.2344 247.667 90.5279 248.113 92.6229L263.693 165.768C264.139 167.863 266.091 169.503 268.294 169.034L278.247 166.914C280.45 166.445 281.564 164.151 281.118 162.056L276.739 141.499L288.349 161.905C289.173 163.355 290.788 164.243 292.462 163.886L302.107 161.832C304.878 161.242 305.779 157.959 304.492 155.692L286.157 123.407C285.962 123.063 285.875 122.655 285.913 122.262L289.481 85.194C289.73 82.6004 287.57 79.9727 284.801 80.5625L275.155 82.6169C273.479 82.974 272.366 84.4467 272.206 86.109Z" fill="#F4F4F4" stroke="#313131" stroke-width="2.54654"/>
<path d="M319.608 56.17L319.608 56.17L312.379 67.1305C311.8 68.0076 311.581 69.0865 311.73 70.1298L315.05 93.4054C315.198 94.4486 315.71 95.4232 316.511 96.1037L317.336 95.1334L316.511 96.1037L326.516 104.606C327.322 105.291 328.366 105.626 329.422 105.476L342.234 103.649L343.904 115.363L336.332 116.443L336.1 114.823C335.798 112.703 333.961 110.937 331.733 111.255L321.659 112.692C319.431 113.009 318.161 115.218 318.463 117.338L319.515 124.711C319.664 125.755 320.176 126.729 320.976 127.41L330.981 135.912C331.787 136.597 332.831 136.932 333.887 136.782L351.937 134.207C352.993 134.057 353.902 133.442 354.484 132.56L361.713 121.599C362.292 120.722 362.511 119.643 362.362 118.6L359.043 95.3284C358.894 94.2819 358.379 93.3045 357.574 92.6239L347.58 84.1725C346.775 83.4919 345.734 83.1589 344.682 83.309L331.866 85.1368L330.196 73.4228L337.769 72.3427L337.992 73.9069C338.294 76.027 340.131 77.7929 342.359 77.4751L352.433 76.0382C354.661 75.7204 355.931 73.5114 355.629 71.3913L354.577 64.0185C354.429 62.9752 353.917 62.0006 353.116 61.3202L343.111 52.8178C342.305 52.1331 341.261 51.7974 340.205 51.948L322.155 54.5224C321.099 54.673 320.19 55.2873 319.608 56.17Z" fill="#F4F4F4" stroke="#313131" stroke-width="2.54654"/>
<path d="M412.869 110.92C413.455 110.04 413.677 108.953 413.527 107.903L411.665 94.8482C411.363 92.7277 409.527 90.9581 407.297 91.2761L397.223 92.713C394.993 93.031 393.726 95.2433 394.028 97.3638L395.07 104.667L387.497 105.747L381.352 62.664L388.925 61.5839L389.959 68.8317C390.261 70.9523 392.097 72.7219 394.326 72.4039L404.401 70.967C406.63 70.649 407.898 68.4367 407.596 66.3162L405.733 53.2533C405.584 52.2095 405.072 51.2341 404.271 50.5528L394.264 42.0369C393.459 41.3512 392.414 41.0146 391.358 41.1652L373.308 43.7397C372.251 43.8904 371.342 44.5056 370.76 45.3892L363.533 56.3633C362.955 57.2412 362.736 58.3208 362.885 59.3646L370.68 114.014C370.83 115.065 371.347 116.046 372.156 116.727L382.141 125.141C382.945 125.818 383.983 126.15 385.033 126L403.098 123.424C404.147 123.274 405.051 122.665 405.634 121.79L412.869 110.92Z" fill="#F4F4F4" stroke="#313131" stroke-width="2.54654"/>
<path d="M536.981 85.3656C537.559 84.4885 537.779 83.4096 537.63 82.3663L535.04 64.2122C534.891 63.1643 534.375 62.1857 533.568 61.505L528.29 57.0506C527.634 56.4976 527.477 55.4094 527.95 54.6924L531.778 48.8884C532.357 48.0113 532.576 46.9324 532.427 45.8891L529.845 27.7848C529.696 26.7415 529.184 25.7669 528.383 25.0865L518.378 16.5842C517.572 15.8994 516.528 15.5637 515.472 15.7143L497.373 18.2958C496.317 18.4464 495.408 19.0607 494.826 19.9434L487.597 30.9038C487.018 31.781 486.799 32.8599 486.948 33.9031L488 41.276C488.302 43.3961 490.139 45.1619 492.367 44.8441L502.49 43.4002C504.719 43.0824 505.989 40.8734 505.686 38.7534L505.455 37.1335L512.979 36.0604L514.65 47.7744L508.386 48.6677C506.158 48.9855 504.888 51.1945 505.191 53.3146L506.813 64.6915C507.116 66.8116 508.953 68.5774 511.181 68.2596L517.444 67.3663L519.115 79.0803L511.591 80.1534L511.368 78.5892C511.065 76.4691 509.229 74.7032 507 75.021L495.892 76.6054C493.664 76.9232 492.394 79.1322 492.697 81.2522L493.582 87.4611C493.73 88.5013 494.24 89.4734 495.037 90.1536L506.196 99.6791C507.003 100.368 508.05 100.706 509.109 100.555L527.205 97.9736C528.261 97.823 529.169 97.2088 529.752 96.326L536.981 85.3656Z" fill="#F4F4F4" stroke="#313131" stroke-width="2.54654"/>
<path d="M471.02 23.3386L471.02 23.3386C470.214 22.6538 469.17 22.3181 468.114 22.4687L450.064 25.0432C449.008 25.1938 448.099 25.8081 447.517 26.6908L440.288 37.6512C439.709 38.5284 439.49 39.6073 439.639 40.6505L440.691 48.0234C440.993 50.1435 442.83 51.9093 445.058 51.5915L455.132 50.1547C457.36 49.8369 458.63 47.6279 458.328 45.5078L458.105 43.9435L465.678 42.8634L467.348 54.5774L454.533 56.4052C453.481 56.5553 452.574 57.1662 451.992 58.0447L444.759 68.9531C444.176 69.8316 443.955 70.914 444.105 71.9605L448.812 104.963C449.114 107.083 450.951 108.849 453.179 108.532L488.464 103.499C490.692 103.181 491.962 100.972 491.659 98.8521L490.037 87.4752C489.734 85.3552 487.898 83.5893 485.669 83.9071L464.241 86.9634L462.57 75.2494L475.381 73.4221C476.437 73.2716 477.346 72.6573 477.928 71.7746L485.157 60.8141C485.736 59.937 485.955 58.8581 485.806 57.8148L482.487 34.5392C482.338 33.496 481.826 32.5213 481.025 31.8409L480.201 32.8112L481.025 31.8409L471.02 23.3386Z" fill="#F4F4F4" stroke="#313131" stroke-width="2.54654"/>
<path d="M424.416 38.2544C424.02 38.7296 423.563 39.2678 423.075 39.8428C422.065 41.0331 420.921 42.3811 419.905 43.6539C419.145 44.605 418.429 45.549 417.862 46.3972C417.326 47.2004 416.817 48.0698 416.617 48.8347C416.516 49.2188 416.498 49.6529 416.5 50.0301C416.503 50.4349 416.533 50.8973 416.581 51.3909C416.677 52.3794 416.852 53.5753 417.067 54.8407C417.497 57.3759 418.101 60.2784 418.603 62.5401C418.958 64.1362 420.408 65.4339 422.254 65.2032C426.269 64.7014 429.781 64.1996 433.28 63.6997C434.068 63.587 434.893 63.2577 435.531 62.6791C436.197 62.0752 436.682 61.1624 436.558 60.0492C436.18 56.6408 435.799 54.0726 435.423 51.5324C435.299 50.6958 435.175 49.8621 435.053 49.0026C434.911 48.011 434.38 47.2609 433.661 46.7955C432.987 46.3593 432.22 46.2148 431.568 46.2148C431.218 46.2148 430.797 46.2846 430.504 46.3331C430.481 46.3369 430.458 46.3406 430.437 46.3441C430.075 46.4036 429.768 46.452 429.496 46.4676C429.482 46.4684 429.468 46.4691 429.455 46.4696C429.283 45.4703 429.18 44.386 429.074 43.2679C429.069 43.2237 429.065 43.1794 429.061 43.135C428.939 41.8514 428.805 40.4816 428.523 39.351C428.291 38.4219 427.535 37.8712 426.914 37.6496C426.307 37.4331 425.184 37.333 424.416 38.2544Z" fill="#F4F4F4" stroke="#313131" stroke-width="3"/>
<path d="M549.557 151.643C544.498 152.737 544.746 151.463 539.687 152.556L544.321 158.366L547.005 160.104L549.557 151.643Z" fill="#94B259" stroke="#303131" stroke-width="1.23741" stroke-linecap="round" stroke-linejoin="round"/>
<path d="M513.407 120.57L550.373 119.179L556.983 107.177L553.905 105.144C553.905 105.144 541.67 108.808 539.573 107.428L537.39 104.981L534.707 103.243L533.998 102.823C533.662 102.621 533.299 102.469 532.919 102.353C532.002 102.224 531.224 102.348 530.828 102.439C530.332 102.545 529.44 102.742 528.634 103.46C528.342 103.718 528.04 104.069 527.352 105.521C526.602 107.095 526.517 107.608 526.055 108.583C525.793 109.133 525.438 110.059 524.862 110.87C524.54 111.314 524.039 111.625 523.489 111.75C518.43 112.844 513.021 113.874 507.96 114.957L509.178 115.679L511.861 117.417L513.407 120.57Z" fill="#94B259" stroke="#303131" stroke-width="1.23741" stroke-linecap="round" stroke-linejoin="round"/>
<path d="M488.366 113.705L489.04 115.222C490.046 116.054 491.275 116.774 492.93 117.058C494.386 117.303 494.737 116.979 501.203 115.944C503.991 115.496 506.299 115.186 507.805 114.991C507.832 115.101 511.087 117.177 511.087 117.177L508.97 123.143L468.129 173.352L464.719 170.992C464.295 168.371 463.902 165.961 463.723 164.486C463.284 160.89 463.07 159.091 463.703 157.886C464.694 156.015 466.042 156.457 467.919 153.947C468.529 153.132 469.572 151.697 469.812 149.582C469.885 148.901 470.128 146.491 468.545 144.344C467.726 143.234 467.052 143.605 466.475 143.313L463.195 141.138L460.608 123.212C462.497 122.996 465.184 122.631 468.387 121.987C472.552 121.159 474.629 120.745 476.003 119.945C481.013 117.017 480.441 111.712 483.569 111.26L483.814 111.225C484.182 111.172 484.555 111.243 484.888 111.422L485.086 111.53L488.366 113.705Z" fill="#8F209A" stroke="#303131" stroke-width="1.23741" stroke-linecap="round" stroke-linejoin="round"/>
<path d="M559.722 131.594C559.665 131.75 559.746 131.92 559.791 131.993C559.949 132.3 560.262 132.425 560.468 132.509C561.289 132.845 561.701 133.024 561.913 133.153C562.289 133.394 562.652 133.626 562.987 134.055C563.113 134.218 563.232 134.417 563.469 134.485C563.67 134.536 563.948 134.496 564.082 134.317C564.232 134.102 564.111 133.813 564.022 133.587C563.948 133.393 563.811 133.152 563.521 132.875C563.403 132.767 563.262 132.651 562.508 132.237C562.188 132.067 562.336 132.148 561.367 131.652C560.937 131.43 560.802 131.358 560.582 131.333C560.304 131.294 559.831 131.328 559.722 131.594Z" fill="#B0A8CF" stroke="#303131" stroke-width="1.23741" stroke-linecap="round" stroke-linejoin="round"/>
<path d="M477.358 167.531C478.538 174.601 479.375 179.697 479.463 180.536C479.477 180.637 479.508 181.007 479.749 181.416C479.825 181.553 480.122 182.033 480.743 182.318C481.133 182.5 481.475 182.508 482.16 182.534C483.222 182.563 483.982 182.396 484.438 182.251C484.829 182.126 485.027 182.075 485.185 181.915C485.637 181.498 485.648 180.712 485.267 180.199C484.897 179.684 484.197 179.558 483.601 179.439C483.039 179.327 482.996 179.424 482.756 179.334C482.022 179.053 482.057 177.957 481.77 175.657C481.698 175.077 481.786 175.848 481.333 172.708C481.139 171.361 481.039 170.671 480.978 170.168C480.889 169.397 480.764 168.29 480.684 166.949" fill="#EB93F4"/>
<path d="M477.358 167.531C478.538 174.601 479.375 179.697 479.463 180.536C479.477 180.637 479.508 181.007 479.749 181.416C479.825 181.553 480.122 182.033 480.743 182.318C481.133 182.5 481.475 182.508 482.16 182.534C483.222 182.563 483.982 182.396 484.438 182.251C484.829 182.126 485.027 182.075 485.185 181.915C485.637 181.498 485.648 180.712 485.267 180.199C484.897 179.684 484.197 179.558 483.601 179.439C483.039 179.327 482.996 179.424 482.756 179.334C482.022 179.053 482.057 177.957 481.77 175.657C481.698 175.077 481.786 175.848 481.333 172.708C481.139 171.361 481.039 170.671 480.978 170.168C480.889 169.397 480.764 168.29 480.684 166.949" stroke="#303131" stroke-width="1.23741" stroke-linecap="round" stroke-linejoin="round"/>
<path d="M503.202 164.21C504.318 170.914 505.119 175.754 505.199 176.549C505.212 176.638 505.241 176.998 505.466 177.375C505.541 177.5 505.823 177.959 506.409 178.239C506.787 178.411 507.106 178.422 507.757 178.442C508.761 178.467 509.488 178.306 509.912 178.176C510.283 178.066 510.467 178.005 510.628 177.857C511.047 177.456 511.065 176.714 510.711 176.231C510.357 175.748 509.691 175.617 509.129 175.505C508.591 175.401 508.559 175.496 508.33 175.404C507.631 175.13 507.665 174.102 507.394 171.913C507.325 171.355 507.409 172.093 506.98 169.12C506.795 167.84 506.702 167.194 506.642 166.703C506.559 165.965 506.443 164.924 506.361 163.652" fill="#EB93F4"/>
<path d="M503.202 164.21C504.318 170.914 505.119 175.754 505.199 176.549C505.212 176.638 505.241 176.998 505.466 177.375C505.541 177.5 505.823 177.959 506.409 178.239C506.787 178.411 507.106 178.422 507.757 178.442C508.761 178.467 509.488 178.306 509.912 178.176C510.283 178.066 510.467 178.005 510.628 177.857C511.047 177.456 511.065 176.714 510.711 176.231C510.357 175.748 509.691 175.617 509.129 175.505C508.591 175.401 508.559 175.496 508.33 175.404C507.631 175.13 507.665 174.102 507.394 171.913C507.325 171.355 507.409 172.093 506.98 169.12C506.795 167.84 506.702 167.194 506.642 166.703C506.559 165.965 506.443 164.924 506.361 163.652" stroke="#303131" stroke-width="1.23741" stroke-linecap="round" stroke-linejoin="round"/>
<path d="M528.727 160.333C529.568 167.258 530.186 172.249 530.336 173.057C530.351 173.158 530.424 173.511 530.317 173.947C530.282 174.099 530.143 174.631 529.638 175.068C529.325 175.34 528.999 175.444 528.369 175.649C527.381 175.973 526.637 176.012 526.171 176.011C525.773 176.012 525.568 176.007 525.372 175.911C524.844 175.635 524.613 174.906 524.826 174.33C525.038 173.754 525.65 173.427 526.168 173.159C526.664 172.894 526.734 172.986 526.928 172.833C527.531 172.36 526.874 169.306 526.434 166.256C526.244 164.942 526.148 164.274 526.066 163.786C525.936 163.043 525.748 161.979 525.462 160.702" fill="#E9FFC5"/>
<path d="M528.727 160.333C529.568 167.258 530.186 172.249 530.336 173.057C530.351 173.158 530.424 173.511 530.317 173.947C530.282 174.099 530.143 174.631 529.638 175.068C529.325 175.34 528.999 175.444 528.369 175.649C527.381 175.973 526.637 176.012 526.171 176.011C525.773 176.012 525.568 176.007 525.372 175.911C524.844 175.635 524.613 174.906 524.826 174.33C525.038 173.754 525.65 173.427 526.168 173.159C526.664 172.894 526.734 172.986 526.928 172.833C527.531 172.36 526.874 169.306 526.434 166.256C526.244 164.942 526.148 164.274 526.066 163.786C525.936 163.043 525.748 161.979 525.462 160.702" stroke="#303131" stroke-width="1.23741" stroke-linecap="round" stroke-linejoin="round"/>
<path d="M555.36 157.284C556.148 163.763 556.73 168.43 556.862 169.184C556.875 169.273 556.945 169.604 556.834 170.017C556.798 170.159 556.665 170.656 556.19 171.065C555.898 171.323 555.594 171.424 554.996 171.612C554.074 171.916 553.375 171.96 552.943 171.954C552.567 171.952 552.375 171.957 552.201 171.857C551.698 171.6 551.487 170.925 551.682 170.386C551.877 169.846 552.448 169.548 552.945 169.294C553.411 169.057 553.467 169.128 553.651 168.988C554.214 168.554 553.596 165.688 553.184 162.838C553.007 161.613 552.917 160.99 552.839 160.524C552.726 159.824 552.539 158.84 552.275 157.639" fill="#E9FFC5"/>
<path d="M555.36 157.284C556.148 163.763 556.73 168.43 556.862 169.184C556.875 169.273 556.945 169.604 556.834 170.017C556.798 170.159 556.665 170.656 556.19 171.065C555.898 171.323 555.594 171.424 554.996 171.612C554.074 171.916 553.375 171.96 552.943 171.954C552.567 171.952 552.375 171.957 552.201 171.857C551.698 171.6 551.487 170.925 551.682 170.386C551.877 169.846 552.448 169.548 552.945 169.294C553.411 169.057 553.467 169.128 553.651 168.988C554.214 168.554 553.596 165.688 553.184 162.838C553.007 161.613 552.917 160.99 552.839 160.524C552.726 159.824 552.539 158.84 552.275 157.639" stroke="#303131" stroke-width="1.23741" stroke-linecap="round" stroke-linejoin="round"/>
<path d="M461.709 123.997L464.393 125.735" stroke="#303131" stroke-width="1.23741" stroke-linecap="round" stroke-linejoin="round"/>
<path d="M558.194 126.199C556.557 124.549 557.57 123.061 556.568 115.409" stroke="#303131" stroke-width="1.23741" stroke-linecap="round" stroke-linejoin="round"/>
<path d="M481.42 168.581C485.754 166.092 485.463 161.792 488.307 161.336C490.262 161.02 491.433 162.283 492.493 163.642C493.553 165 495.904 168.377 497.366 168.428C500.311 168.514 514.376 163.825 514.376 163.825C514.376 163.825 514.262 162.875 514.076 161.436C513.594 157.698 513.546 157.602 513.372 156.082C513.055 153.332 512.858 151.257 512.858 151.257C512.636 148.937 512.613 148.224 512.018 147.491C511.285 146.586 510.611 146.797 509.103 145.957C508.127 145.416 505.839 144.132 505.337 141.909C504.812 139.609 506.495 137.491 506.879 137.004C507.775 135.886 508.339 135.861 509.046 135.088C510.698 133.304 510.33 130.436 509.851 127.118C509.34 123.657 508.818 120.516 508.315 117.736L481.42 168.581Z" fill="#8F209A" stroke="#303131" stroke-width="1.23741" stroke-linecap="round" stroke-linejoin="round"/>
<path d="M463.899 125.385L466.488 143.322L469.459 144.53C470.035 144.822 471.02 145.43 471.84 146.539C473.423 148.686 473.189 151.084 473.107 151.778C472.865 153.881 471.822 155.316 471.214 156.143C469.337 158.652 467.989 158.211 466.998 160.081C466.365 161.286 466.579 163.085 467.018 166.682C467.197 168.156 467.59 170.566 468.014 173.187C468.064 174.009 474.261 172.763 476.734 172.417C482.829 171.572 483.602 171.415 484.704 170.778C489.038 168.289 488.747 163.989 491.591 163.533C495.49 162.902 496.3 168.593 499.233 168.681C502.178 168.768 517.66 166.022 517.66 166.022C517.66 166.022 517.545 165.072 517.36 163.633C516.878 159.895 516.83 159.799 516.656 158.279C516.339 155.529 516.141 153.454 516.141 153.454C515.92 151.134 515.897 150.421 515.302 149.688C514.569 148.783 513.895 148.994 512.387 148.154C511.411 147.613 509.123 146.329 508.621 144.106C508.096 141.806 509.779 139.688 510.163 139.201C511.059 138.083 511.623 138.058 512.33 137.285C513.982 135.501 513.614 132.633 513.135 129.315C512.454 124.674 511.741 120.606 511.089 117.188C509.572 117.384 507.275 117.693 504.487 118.141C498.02 119.165 497.67 119.5 496.214 119.255C490.912 118.35 489.97 113.007 486.853 113.457C483.735 113.907 484.308 119.212 479.287 122.142C477.924 122.941 475.836 123.356 471.671 124.184C468.464 124.806 465.778 125.171 463.899 125.385Z" fill="#DB3FEB" stroke="#303131" stroke-width="1.23741" stroke-linecap="round" stroke-linejoin="round"/>
<path d="M499.63 143.151C499.095 143.774 498.156 143.846 497.533 143.311C496.91 142.776 496.838 141.837 497.373 141.214C497.908 140.591 498.847 140.519 499.47 141.054C500.093 141.589 500.165 142.528 499.63 143.151Z" fill="#303131"/>
<path d="M487.983 145.326C487.427 145.905 486.508 145.923 485.929 145.367C485.351 144.812 485.332 143.892 485.888 143.314C486.444 142.735 487.363 142.717 487.942 143.272C488.52 143.828 488.539 144.748 487.983 145.326Z" fill="#303131"/>
<path d="M493.665 144.575C493.665 144.575 494.494 145.736 494.221 146.024C493.946 146.31 493.24 146.47 493.24 146.47" stroke="#303131" stroke-width="1.23741" stroke-linecap="round" stroke-linejoin="round"/>
<path d="M482.306 142.282C482.508 141.657 482.965 140.547 483.967 139.646C484.912 138.796 485.91 138.518 486.488 138.414" stroke="#303131" stroke-width="1.34991" stroke-linecap="round" stroke-linejoin="round"/>
<path d="M501.592 137.19C501.094 136.837 500.135 136.265 498.884 136.149C497.704 136.04 496.802 136.386 496.311 136.628" stroke="#303131" stroke-width="1.34991" stroke-linecap="round" stroke-linejoin="round"/>
<path d="M517.761 165.939C518.819 165.786 521.679 165.362 525.73 164.766C529.625 164.193 531.602 163.873 532.797 162.86C533.919 161.891 534.455 159.938 535.474 157.859C536.586 156.118 538.17 155.356 539.996 155.092C541.415 154.842 542.756 155.08 544.361 156.281C546.58 157.949 546.161 159.772 547.88 160.421C549.082 160.873 550.171 160.784 551.245 160.663C555.726 160.13 560.568 158.874 562.939 158.214C562.331 152.346 560.434 145.425 561.522 140.915C561.522 140.915 563.669 140.196 564.921 138.947C566.581 137.298 566.401 134.085 566.385 133.894C565.628 128.65 562.26 129.647 560.928 128.294C559.292 126.643 560.305 125.156 559.303 117.504C558.949 114.816 558.564 113.018 558.326 111.996C557.85 109.962 557.337 108.297 556.973 107.19C552.085 107.975 544.406 110.913 542.309 109.534C541.592 109.058 540.98 108.441 540.98 108.441C540.888 108.352 540.741 108.203 540.125 107.553C539.011 106.373 538.976 106.287 538.648 105.982C538.321 105.688 537.822 105.226 537.103 104.887C535.638 104.189 534.17 104.412 533.586 104.542C533.09 104.647 532.198 104.844 531.393 105.563C531.1 105.821 530.798 106.172 530.11 107.623C529.36 109.198 529.275 109.71 528.813 110.686C528.551 111.235 528.164 111.939 527.588 112.75C527.266 113.194 526.765 113.505 526.215 113.63C521.156 114.724 516.097 115.818 511.036 116.9C511.936 123.294 512.825 129.69 513.725 136.084C512.929 136.392 511.608 137.003 510.448 138.262C510.075 138.668 507.606 141.332 508.337 144.193C508.989 146.735 511.965 148.693 515.581 148.546L517.761 165.939Z" fill="#C2FA67" stroke="#303131" stroke-width="1.23741" stroke-linecap="round" stroke-linejoin="round"/>
<path d="M461.564 123.62L463.587 125.271" stroke="#303131" stroke-width="1.23741" stroke-linecap="round" stroke-linejoin="round"/>
<path d="M490.003 150.01C490.003 150.01 491.017 150.897 492.697 150.564C494.375 150.22 495.377 148.813 495.377 148.813" stroke="#303131" stroke-width="1.23741" stroke-linecap="round" stroke-linejoin="round"/>
<path d="M466.261 128.522C466.211 128.882 466.221 129.187 466.434 130.668C466.592 131.759 466.593 131.611 466.597 131.793C466.641 132.491 466.554 132.833 466.804 133.229C466.861 133.312 467.07 133.657 467.328 133.631C467.563 133.608 467.709 133.28 467.768 133.135C467.987 132.604 467.895 132.128 467.674 130.989C467.623 130.713 467.448 129.817 467.429 128.74C467.424 128.468 467.447 128.158 467.652 127.924C467.749 127.808 467.887 127.742 468.605 127.593C469.366 127.438 469.583 127.441 469.767 127.221C469.885 127.09 469.988 126.859 469.914 126.665C469.893 126.6 469.818 126.475 469.484 126.364C468.852 126.159 468.273 126.323 468.033 126.391C467.804 126.458 467.456 126.566 467.1 126.856C466.784 127.106 466.619 127.38 466.574 127.466C466.486 127.638 466.325 127.945 466.261 128.522Z" fill="#CB9BC6"/>
<path d="M467.909 136.002C467.903 136.276 467.728 136.642 467.46 136.67C467.189 136.686 466.972 136.365 466.923 136.099C466.859 135.733 467.089 135.28 467.372 135.273C467.641 135.245 467.915 135.649 467.909 136.002Z" fill="#CB9BC6"/>
<path d="M514.41 155.795C514.404 156.069 514.23 156.435 513.961 156.463C513.691 156.479 513.474 156.158 513.424 155.892C513.36 155.527 513.59 155.073 513.873 155.066C514.142 155.039 514.416 155.442 514.41 155.795Z" fill="#CB9BC6"/>
<path d="M510.048 149.515C509.967 149.663 510.027 149.836 510.062 149.922C510.177 150.246 510.474 150.419 510.661 150.529C511.43 150.975 511.826 151.202 512.008 151.357C512.201 151.511 512.669 151.842 512.954 152.403C513.412 153.291 513.079 154.055 513.457 154.228C513.663 154.324 513.927 154.183 514.078 154.048C514.528 153.619 514.234 152.684 514.044 152.075C513.901 151.641 513.704 151.374 513.637 151.304C513.54 151.182 513.419 151.051 512.707 150.529C512.414 150.31 512.543 150.416 511.657 149.794C511.253 149.511 511.138 149.426 510.915 149.378C510.654 149.302 510.183 149.268 510.048 149.515Z" fill="#CB9BC6"/>
<path d="M516.543 118.833C516.873 118.683 517.158 118.608 518.628 118.396C519.708 118.24 519.566 118.283 519.741 118.235C520.412 118.081 520.716 117.901 521.166 118.029C521.262 118.061 521.642 118.177 521.69 118.431C521.737 118.674 521.463 118.907 521.352 119.003C520.906 119.374 520.433 119.408 519.29 119.516C519.01 119.545 518.113 119.629 517.087 119.925C516.836 119.995 516.545 120.106 516.389 120.367C516.318 120.502 516.281 120.644 516.343 121.385C516.411 122.171 516.475 122.378 516.327 122.615C516.235 122.764 516.044 122.94 515.849 122.923C515.78 122.921 515.639 122.885 515.436 122.584C515.061 122.036 515.051 121.412 515.049 121.163C515.049 120.924 515.053 120.56 515.229 120.125C515.38 119.751 515.594 119.504 515.653 119.439C515.781 119.307 516.02 119.068 516.543 118.833Z" fill="#E7EEB4"/>
<path d="M523.356 118.634C523.086 118.65 522.702 118.512 522.664 118.245C522.614 117.98 522.918 117.72 523.18 117.648C523.53 117.552 523.999 117.734 524.04 118.013C524.069 118.292 523.705 118.606 523.356 118.634Z" fill="#E7EEB4"/>
<path d="M558.94 155.154C558.968 154.798 558.947 154.494 558.665 153.011C558.463 151.927 558.472 152.073 558.447 151.895C558.369 151.201 558.444 150.85 558.173 150.468C558.115 150.386 557.886 150.055 557.63 150.092C557.396 150.126 557.263 150.463 557.215 150.607C557.02 151.146 557.134 151.618 557.411 152.749C557.473 153.024 557.692 153.913 557.758 154.995C557.774 155.265 557.773 155.572 557.569 155.818C557.473 155.934 557.347 156.009 556.635 156.191C555.878 156.38 555.663 156.388 555.491 156.618C555.387 156.758 555.283 156.989 555.368 157.181C555.4 157.245 555.475 157.37 555.819 157.468C556.458 157.649 557.033 157.452 557.271 157.372C557.487 157.296 557.834 157.178 558.187 156.865C558.489 156.594 558.642 156.322 558.687 156.236C558.761 156.044 558.899 155.739 558.94 155.154Z" fill="#E7EEB4"/>
<path d="M557.338 148.781C557.068 148.798 556.684 148.66 556.646 148.393C556.596 148.127 556.9 147.867 557.162 147.795C557.512 147.699 557.981 147.882 558.022 148.16C558.051 148.44 557.687 148.754 557.338 148.781Z" fill="#E7EEB4"/>
<path d="M566.811 143.698C567.613 145.003 567.96 145.987 568.097 146.388C568.377 147.223 568.403 147.639 568.411 147.854C568.424 148.261 568.436 148.896 568.044 149.566C567.844 149.914 567.521 150.506 566.892 150.642C566.352 150.754 565.911 150.454 565.874 150.437C565.546 150.211 565.409 149.89 565.354 149.75C565.286 149.589 565.25 149.345 565.191 148.853C565.163 148.584 565.138 148.406 565.12 148.204C565.102 148.002 565.092 147.856 565.1 147.832C565.041 146.556 564.175 144.965 564.175 144.965C563.524 143.763 562.732 142.843 562.732 142.843C562.2 142.227 561.773 141.868 561.871 141.444C561.934 141.174 562.182 141.002 562.68 140.668C563.176 140.324 563.425 140.163 563.684 140.148C564.088 140.113 564.428 140.416 565.598 141.986C566.221 142.84 566.545 143.27 566.811 143.698Z" fill="#E9FFC5" stroke="#303131" stroke-width="1.23741" stroke-linecap="round" stroke-linejoin="round"/>
<path d="M471.021 160.876C471.516 161.703 471.757 162.111 472.024 162.47C472.82 163.572 473.498 164.178 473.784 164.421C474.368 164.928 474.699 165.096 474.87 165.174C475.198 165.32 475.707 165.542 476.386 165.444C476.731 165.394 477.323 165.32 477.64 164.842C477.91 164.428 477.821 163.964 477.805 163.932C477.731 163.579 477.519 163.371 477.425 163.271C477.318 163.161 477.132 163.052 476.748 162.834C476.538 162.717 476.403 162.645 476.244 162.566C476.084 162.487 475.963 162.436 475.951 162.426C474.94 161.959 473.929 160.706 473.929 160.706C473.167 159.759 472.678 158.807 472.678 158.807" fill="#EB93F4"/>
<path d="M471.021 160.876C471.516 161.703 471.757 162.111 472.024 162.47C472.82 163.572 473.498 164.178 473.784 164.421C474.368 164.928 474.699 165.096 474.87 165.174C475.198 165.32 475.707 165.542 476.386 165.444C476.731 165.394 477.323 165.32 477.64 164.842C477.91 164.428 477.821 163.964 477.805 163.932C477.731 163.579 477.519 163.371 477.425 163.271C477.318 163.161 477.132 163.052 476.748 162.834C476.538 162.717 476.403 162.645 476.244 162.566C476.084 162.487 475.963 162.436 475.951 162.426C474.94 161.959 473.929 160.706 473.929 160.706C473.167 159.759 472.678 158.807 472.678 158.807" stroke="#303131" stroke-width="1.23741" stroke-linecap="round" stroke-linejoin="round"/>
<path d="M529.033 137.725C529.723 138.172 530.644 137.975 531.09 137.285C531.536 136.596 531.339 135.675 530.65 135.229C529.961 134.782 529.04 134.979 528.593 135.669C528.147 136.358 528.344 137.279 529.033 137.725Z" fill="#303131"/>
<path d="M540.819 136.518C541.516 136.916 542.403 136.673 542.801 135.977C543.199 135.28 542.956 134.393 542.26 133.995C541.563 133.598 540.676 133.84 540.278 134.537C539.88 135.233 540.123 136.12 540.819 136.518Z" fill="#303131"/>
<path d="M535.279 135.723C535.279 135.723 534.69 138.753 535.034 138.951C535.379 139.148 536.1 139.102 536.1 139.102" stroke="#303131" stroke-width="1.23741" stroke-linecap="round" stroke-linejoin="round"/>
<path d="M545.556 130.848C545.187 130.306 544.434 129.37 543.218 128.789C542.072 128.241 541.036 128.257 540.452 128.32" stroke="#303131" stroke-width="1.34991" stroke-linecap="round" stroke-linejoin="round"/>
<path d="M525.892 130.928C526.27 130.449 527.028 129.629 528.195 129.164C529.296 128.726 530.259 128.803 530.798 128.896" stroke="#303131" stroke-width="1.34991" stroke-linecap="round" stroke-linejoin="round"/>
<path d="M541.221 140.613C540.963 140.292 539.646 141.269 537.533 141.894C535.218 142.579 534.004 142.232 533.697 142.728C533.411 143.196 534.237 143.908 534.958 144.173C535.053 144.207 535.452 144.345 536.055 144.351C536.579 144.356 537.015 144.257 537.192 144.214C537.44 144.152 537.898 144.021 538.441 143.738C539.693 143.087 540.413 142.152 540.575 141.935C540.929 141.457 541.395 140.833 541.221 140.613Z" fill="#94B259" stroke="#303131" stroke-width="1.23741" stroke-linecap="round" stroke-linejoin="round"/>
</g>
<rect x="569.324" y="-142.941" width="386.617" height="548.092" transform="rotate(81.8827 569.324 -142.941)" stroke="black" stroke-width="0.767098"/>
<path fill-rule="evenodd" clip-rule="evenodd" d="M4.81236 -72.498C4.3637 -75.6436 6.55 -78.5573 9.69559 -79.006L578.875 -160.188C582.021 -160.636 584.935 -158.45 585.383 -155.304L643.548 252.5C643.997 255.646 641.81 258.559 638.665 259.008L69.4851 340.19C66.3395 340.638 63.4258 338.452 62.9772 335.307L4.81236 -72.498ZM31.2708 -61.7154C28.1252 -61.2668 25.9389 -58.3531 26.3876 -55.2075L78.8581 312.674C79.3068 315.819 82.2205 318.006 85.3661 317.557L617.09 241.718C620.235 241.269 622.421 238.355 621.973 235.21L569.502 -132.671C569.054 -135.817 566.14 -138.003 562.994 -137.555L31.2708 -61.7154Z" fill="#F4F4F4" stroke="#313131" stroke-width="2.68484"/>
</g>
<defs>
<filter id="filter0_d_1036_640" x="-98.465" y="7.87852" width="832.352" height="438.957" filterUnits="userSpaceOnUse" color-interpolation-filters="sRGB">
<feFlood flood-opacity="0" result="BackgroundImageFix"/>
<feColorMatrix in="SourceAlpha" type="matrix" values="0 0 0 0 0 0 0 0 0 0 0 0 0 0 0 0 0 0 127 0" result="hardAlpha"/>
<feOffset dy="-1.5342"/>
<feGaussianBlur stdDeviation="28.7662"/>
<feComposite in2="hardAlpha" operator="out"/>
<feColorMatrix type="matrix" values="0 0 0 0 0.184314 0 0 0 0 0.686275 0 0 0 0 1 0 0 0 0.75 0"/>
<feBlend mode="normal" in2="BackgroundImageFix" result="effect1_dropShadow_1036_640"/>
<feBlend mode="normal" in="SourceGraphic" in2="effect1_dropShadow_1036_640" result="shape"/>
</filter>
<filter id="filter2_d_1036_640" x="71.0679" y="-45.1338" width="321.666" height="107.885" filterUnits="userSpaceOnUse" color-interpolation-filters="sRGB">
<feFlood flood-opacity="0" result="BackgroundImageFix"/>
<feColorMatrix in="SourceAlpha" type="matrix" values="0 0 0 0 0 0 0 0 0 0 0 0 0 0 0 0 0 0 127 0" result="hardAlpha"/>
<feOffset dx="1.5342" dy="1.5342"/>
<feGaussianBlur stdDeviation="0.767098"/>
<feComposite in2="hardAlpha" operator="out"/>
<feColorMatrix type="matrix" values="0 0 0 0 0 0 0 0 0 0 0 0 0 0 0 0 0 0 0.25 0"/>
<feBlend mode="normal" in2="BackgroundImageFix" result="effect1_dropShadow_1036_640"/>
<feBlend mode="normal" in="SourceGraphic" in2="effect1_dropShadow_1036_640" result="shape"/>
</filter>
<radialGradient id="paint0_radial_1036_640" cx="0" cy="0" r="1" gradientUnits="userSpaceOnUse" gradientTransform="translate(826.052 150.04) rotate(168.084) scale(391.016 422.313)">
<stop stop-color="#7ECDFF"/>
<stop offset="1" stop-color="#25ABFF"/>
</radialGradient>
<clipPath id="clip0_1036_640">
<rect width="588" height="982" fill="white"/>
</clipPath>
<clipPath id="clip1_1036_640">
<rect x="569.65" y="-143.375" width="387.385" height="548.859" transform="rotate(81.8827 569.65 -143.375)" fill="white"/>
</clipPath>
</defs>
</svg>
