<svg width="362" height="456" viewBox="0 0 362 456" fill="none" xmlns="http://www.w3.org/2000/svg">
<path d="M179.829 306.165C179.746 371.736 179.774 419.001 180.269 426.737C180.324 427.645 180.6 431.031 179.031 435.05C178.508 436.399 176.581 441.189 171.378 444.74C168.13 446.97 165.019 447.575 158.853 448.786C149.301 450.658 142.254 450.245 137.932 449.695C134.215 449.227 132.344 448.952 130.664 447.823C126.012 444.712 124.718 437.638 127.334 432.49C129.949 427.315 136.032 425.03 141.208 423.103C146.135 421.259 146.658 422.112 148.668 420.901C154.861 417.24 152.907 407.467 152.053 386.216C151.833 380.848 152.219 387.923 151.558 358.936C151.283 346.466 151.118 340.134 150.925 335.455C150.595 328.325 150.016 318.25 148.805 306" fill="#FAEA84"/>
<path d="M179.829 306.165C179.746 371.736 179.774 419.001 180.269 426.737C180.324 427.645 180.6 431.031 179.031 435.05C178.508 436.399 176.581 441.189 171.378 444.74C168.13 446.97 165.019 447.575 158.853 448.786C149.301 450.658 142.254 450.245 137.932 449.695C134.215 449.227 132.344 448.952 130.664 447.823C126.012 444.712 124.718 437.638 127.334 432.49C129.949 427.315 136.032 425.03 141.208 423.103C146.135 421.259 146.658 422.112 148.668 420.901C154.861 417.24 152.907 407.467 152.053 386.216C151.833 380.848 152.219 387.923 151.558 358.936C151.283 346.466 151.118 340.134 150.925 335.455C150.595 328.325 150.016 318.25 148.805 306" stroke="#303131" stroke-width="10" stroke-linecap="round" stroke-linejoin="round"/>
<path d="M195.473 307.165C195.552 372.664 195.525 419.877 195.051 427.604C194.998 428.511 194.735 431.893 196.237 435.908C196.737 437.255 198.582 442.04 203.562 445.587C206.672 447.814 209.649 448.419 215.552 449.629C224.696 451.499 231.441 451.086 235.578 450.536C239.136 450.069 240.928 449.794 242.535 448.667C246.988 445.559 248.227 438.493 245.723 433.351C243.22 428.181 237.397 425.899 232.443 423.974C227.726 422.132 227.225 422.984 225.302 421.774C219.373 418.117 221.244 408.355 222.06 387.127C222.271 381.765 221.902 388.832 222.535 359.878C222.798 347.421 222.956 341.097 223.141 336.422C223.457 329.3 224.011 319.236 225.17 307" fill="#FAEA84"/>
<path d="M195.473 307.165C195.552 372.664 195.525 419.877 195.051 427.604C194.998 428.511 194.735 431.893 196.237 435.908C196.737 437.255 198.582 442.04 203.562 445.587C206.672 447.814 209.649 448.419 215.552 449.629C224.696 451.499 231.441 451.086 235.578 450.536C239.136 450.069 240.928 449.794 242.535 448.667C246.988 445.559 248.227 438.493 245.723 433.351C243.22 428.181 237.397 425.899 232.443 423.974C227.726 422.132 227.225 422.984 225.302 421.774C219.373 418.117 221.244 408.355 222.06 387.127C222.271 381.765 221.902 388.832 222.535 359.878C222.798 347.421 222.956 341.097 223.141 336.422C223.457 329.3 224.011 319.236 225.17 307" stroke="#303131" stroke-width="10" stroke-linecap="round" stroke-linejoin="round"/>
<path d="M193.891 384.795C279.363 384.795 348.652 319.389 348.652 238.705C348.652 158.022 279.363 92.6157 193.891 92.6157C108.419 92.6157 39.1299 158.022 39.1299 238.705C39.1299 319.389 108.419 384.795 193.891 384.795Z" fill="#AE8C1D" stroke="#303131" stroke-width="10" stroke-linecap="round" stroke-linejoin="round"/>
<path d="M186.348 385.014C265.997 385.014 330.566 319.608 330.566 238.925C330.566 158.242 265.997 92.835 186.348 92.835C106.698 92.835 42.1299 158.242 42.1299 238.925C42.1299 319.608 106.698 385.014 186.348 385.014Z" fill="#FFD13C" stroke="#303131" stroke-width="10" stroke-linecap="round" stroke-linejoin="round"/>
<path d="M316.278 176.053L325.197 172.062" stroke="#303131" stroke-width="10" stroke-linecap="round" stroke-linejoin="round"/>
<path d="M328.612 195.57L339.954 190.533" stroke="#303131" stroke-width="10" stroke-linecap="round" stroke-linejoin="round"/>
<path d="M331.64 218.859L343.229 213.711" stroke="#303131" stroke-width="10" stroke-linecap="round" stroke-linejoin="round"/>
<path d="M331.75 240.029L346.422 236.01" stroke="#303131" stroke-width="10" stroke-linecap="round" stroke-linejoin="round"/>
<path d="M329.327 262.076L346.725 257.314" stroke="#303131" stroke-width="10" stroke-linecap="round" stroke-linejoin="round"/>
<path d="M325.583 285.117L340.448 281.07" stroke="#303131" stroke-width="10" stroke-linecap="round" stroke-linejoin="round"/>
<path d="M175.286 301.782C158.584 311.354 136.996 304.524 132.235 289.417C131.612 287.423 132.409 285.13 132.559 282.961C133.755 283.185 135.027 283.31 136.273 283.484C137.993 283.734 139.215 284.257 139.713 284.432C144.649 286.077 149.236 287.572 152.576 285.778C152.975 285.553 152.526 285.753 155.767 282.612C158.684 279.795 160.254 278.623 162.448 278.125C162.872 278.025 163.295 278.025 163.769 278.025C167.035 278.025 167.608 280.842 172.768 281.914C173.965 282.163 175.959 282.587 178.352 282.063C182.54 281.141 183.039 278.399 186.155 278.1C186.379 278.1 186.628 278.025 187.002 278C189.42 278 191.066 279.496 193.534 281.465C195.852 283.31 197.024 284.257 197.697 284.556C202.383 286.75 209.014 284.481 212.454 283.285C214.498 282.587 216.243 281.615 217.315 282.662C218.462 283.758 219.085 285.828 218.811 287.323C215.994 301.956 195.004 310.731 179.474 303.851C178.003 303.203 176.632 302.43 175.311 301.757L175.286 301.782Z" fill="#A88E3F" stroke="#303131" stroke-width="9.05571" stroke-linecap="round" stroke-linejoin="round"/>
<path d="M101.134 210.768C105.247 208.59 110.814 205.914 120.381 205.633C129.947 205.353 135.861 207.998 140.099 210.057" stroke="#303131" stroke-width="10" stroke-linecap="round" stroke-linejoin="round"/>
<path d="M191 210.569C195.179 208.513 200.826 206 210.405 206C219.983 206 225.821 208.817 230 211" stroke="#303131" stroke-width="10" stroke-linecap="round" stroke-linejoin="round"/>
<path d="M170.694 250C169.874 250.355 168.477 251.119 167.445 252.538C165.288 255.485 165.501 260.125 168.386 262.499C169.601 263.509 171.028 263.864 172 264" stroke="#303131" stroke-width="10" stroke-linecap="round" stroke-linejoin="round"/>
<path d="M121 266C133.15 266 143 255.926 143 243.5C143 231.074 133.15 221 121 221C108.85 221 99 231.074 99 243.5C99 255.926 108.85 266 121 266Z" stroke="#303131" stroke-width="10" stroke-linecap="round" stroke-linejoin="round"/>
<path d="M189.255 130.817C244.275 128.992 287.946 99.4155 286.796 64.7562C285.647 30.0969 240.112 3.47956 185.091 5.30478C130.071 7.12999 86.4003 36.7065 87.5501 71.3659C88.6999 106.025 134.235 132.642 189.255 130.817Z" fill="#AE8C1D" stroke="#303131" stroke-width="10" stroke-linecap="round" stroke-linejoin="round"/>
<path d="M88.0571 75.907C89.1306 91.4877 90.2042 107.096 91.2778 122.677H50.0413C50.0413 122.677 44.811 135.119 54.4182 144.011C64.0253 152.902 71.5129 152.902 71.5129 152.902H310.591C313.124 151.526 318.767 148.03 322.428 141.065C323.502 139.001 325.842 134.431 325.594 128.127C325.429 123.392 323.887 119.786 322.841 117.804H300.901C294.68 117.859 288.431 117.942 282.21 117.997L286.67 75.4666" fill="#AE8C1D"/>
<path d="M88.0571 75.907C89.1306 91.4877 90.2042 107.096 91.2778 122.677H50.0413C50.0413 122.677 44.811 135.119 54.4182 144.011C64.0253 152.902 71.5129 152.902 71.5129 152.902H310.591C313.124 151.526 318.767 148.03 322.428 141.065C323.502 139.001 325.842 134.431 325.594 128.127C325.429 123.392 323.887 119.786 322.841 117.804H300.901C294.68 117.859 288.431 117.942 282.21 117.997L286.67 75.4666" stroke="#303131" stroke-width="10" stroke-linecap="round" stroke-linejoin="round"/>
<path d="M102.987 76.5C100.289 74.6574 99.963 73.9152 100.003 71.5C104.49 57.4609 108.101 47.7813 119.47 39C125.554 34.2928 135.728 28.9992 142.142 24.76C143.38 23.9341 146.484 23.2202 147.97 23C150.758 24 152.602 25.2004 150.758 28.8341C149.546 31.2015 142.758 33 140.503 34.5C133.758 38 133.503 38 123.503 46C117.481 51.8458 111.723 60.6562 109.136 69.8504C108.007 73.8144 108.245 77.491 102.987 76.5Z" fill="#FAEA84"/>
<path fill-rule="evenodd" clip-rule="evenodd" d="M325.548 241.43C319.763 275.47 301.555 308.948 271.885 334.569C233.933 367.341 185.962 379.711 143.39 371.903C187.264 389.058 239.128 382.174 277.953 349.531C311.063 321.694 327.32 281.32 325.548 241.43Z" fill="#A37B2C"/>
<path d="M104.688 80.4776C105.7 80.4327 107.131 81.6907 107.572 83.005C108.674 86.2909 106.882 90.4006 104.545 90.5188C102.376 90.6305 99.892 90.5824 99.2029 87.6609C98.4804 84.5777 99.8456 81.6204 103.969 80.6264L104.688 80.4776Z" fill="#FAEA84"/>
<path d="M77.0906 340.697C77.3658 340.752 77.6136 340.834 77.8889 340.917L164.243 369.05C169.419 370.729 172.309 376.428 170.63 381.658C168.951 386.916 163.363 389.834 158.187 388.127L71.8328 359.994C71.8328 359.994 71.6952 359.939 71.6126 359.911L75.0535 361.04C66.6576 358.204 59.3903 355.672 53.7471 353.552C50.4438 352.313 40.8641 348.707 33.294 353.139C26.4947 357.131 22.1453 367.096 24.5952 374.308C26.5772 380.144 32.9636 383.833 43.4792 389.971C49.7555 393.605 53.5544 394.954 54.6005 398.89C55.5364 402.386 53.9949 406.846 51.1045 409.131C44.0574 414.719 29.7154 406.791 23.5216 402.359C19.9155 399.771 8.98702 391.926 5.84885 377.254C2.35283 360.957 10.0605 343.67 21.5396 335.907C36.2945 325.914 55.5089 332.796 81.1097 341.935" fill="#A37B2C"/>
<path d="M77.0906 340.697C77.3658 340.752 77.6136 340.834 77.8889 340.917L164.243 369.05C169.419 370.729 172.309 376.428 170.63 381.658C168.951 386.916 163.363 389.834 158.187 388.127L71.8328 359.994C71.8328 359.994 71.6952 359.939 71.6126 359.911L75.0535 361.04C66.6576 358.204 59.3903 355.672 53.7471 353.552C50.4438 352.313 40.8641 348.707 33.294 353.139C26.4947 357.131 22.1453 367.096 24.5952 374.308C26.5772 380.144 32.9636 383.833 43.4792 389.971C49.7555 393.605 53.5544 394.954 54.6005 398.89C55.5364 402.386 53.9949 406.846 51.1045 409.131C44.0574 414.719 29.7154 406.791 23.5216 402.359C19.9155 399.771 8.98702 391.926 5.84885 377.254C2.35283 360.957 10.0605 343.67 21.5396 335.907C36.2945 325.914 55.5089 332.796 81.1097 341.935" stroke="#303131" stroke-width="10" stroke-linecap="round" stroke-linejoin="round"/>
<path d="M317 308L331 305" stroke="#303131" stroke-width="10" stroke-linecap="round" stroke-linejoin="round"/>
<path d="M302 333L314 330" stroke="#303131" stroke-width="10" stroke-linecap="round" stroke-linejoin="round"/>
<path d="M313.3 337.967C312.997 348.652 311.172 355.672 310.361 358.514C308.672 364.478 307.154 366.984 306.288 368.305C304.682 370.716 302.102 374.478 296.833 376.963C294.117 378.234 289.609 380.503 284.997 378.829C281.061 377.418 279.443 374.007 279.318 373.739C278.131 371.18 278.609 368.806 278.83 367.794C279.069 366.607 279.81 365.018 281.49 361.928C282.419 360.254 283.018 359.097 283.75 357.858C284.482 356.619 285.069 355.738 285.143 355.584C290.02 347.898 291.102 335.322 291.102 335.322C291.313 332.587 291.425 329.582 291.363 326.388C291.318 324.041 291.169 321.801 290.946 319.714C290.946 319.714 295.799 315.678 299.353 312.062C305.386 305.889 306.325 303.037 308.044 303.219C310.901 303.539 311.624 312.122 312.638 323.211C313.109 328.332 313.491 332.334 313.329 337.99L313.3 337.967Z" fill="#FAEA84" stroke="#303131" stroke-width="10" stroke-linecap="round" stroke-linejoin="round"/>
<path d="M59.473 346.809C60.6016 357.71 62.8038 364.757 63.7948 367.593C65.8319 373.566 67.4285 376.016 68.3369 377.282C70.0161 379.622 72.6862 383.256 77.7789 385.376C80.394 386.477 84.7709 388.404 88.9001 386.339C92.4512 384.577 93.69 380.971 93.7726 380.668C94.6535 377.943 94.0478 375.548 93.7726 374.53C93.4698 373.318 92.6439 371.777 90.8546 368.749C89.8636 367.097 89.203 365.969 88.4322 364.785C87.6614 363.574 87.0558 362.72 86.9732 362.583C81.8531 355.123 79.871 342.322 79.871 342.322C77.2008 331.504 81.5227 327.237 78.8801 324.044C78.6323 323.741 78.1368 323.218 77.311 322.75C75.3014 320.961 73.7323 319.392 72.6588 318.291C70.5667 316.116 68.1993 314.244 66.0521 312.152C65.5841 311.711 64.2628 310.555 62.6937 310.583C62.5561 310.583 62.4185 310.61 62.2808 310.665C59.1977 311.739 59.0876 319.116 58.9775 331.669C58.9499 336.954 58.8949 341.056 59.5005 346.837L59.473 346.809Z" fill="#FAEA84" stroke="#303131" stroke-width="10" stroke-linecap="round" stroke-linejoin="round"/>
<circle cx="49.7994" cy="228.622" r="4.31934" transform="rotate(15.8575 49.7994 228.622)" fill="#303131"/>
<circle cx="63.3351" cy="234.335" r="4.31934" transform="rotate(15.8575 63.3351 234.335)" fill="#303131"/>
<circle cx="77.3351" cy="238.335" r="4.31934" transform="rotate(15.8575 77.3351 238.335)" fill="#303131"/>
<circle cx="90.7594" cy="242.501" r="4.31934" transform="rotate(15.8575 90.7594 242.501)" fill="#303131"/>
<path d="M120.5 253C125.747 253 130 248.747 130 243.5C130 238.253 125.747 234 120.5 234C115.253 234 111 238.253 111 243.5C111 248.747 115.253 253 120.5 253Z" fill="#303131"/>
<path d="M208.5 253C214.299 253 219 248.299 219 242.5C219 236.701 214.299 232 208.5 232C202.701 232 198 236.701 198 242.5C198 248.299 202.701 253 208.5 253Z" fill="#303131"/>
</svg>
