<svg xmlns="http://www.w3.org/2000/svg" width="372" height="318" fill="none" viewBox="0 0 372 318"><path fill="#C8E9F1" stroke="#303131" stroke-linecap="round" stroke-linejoin="round" stroke-width="3.976" d="M227.02 261.592C229.629 286.855 231.467 305.09 231.615 308.085C231.645 308.441 231.675 309.745 232.357 311.257C232.594 311.761 233.424 313.511 235.351 314.638C236.537 315.349 237.634 315.438 239.769 315.616C243.09 315.913 245.492 315.408 246.915 314.993C248.16 314.638 248.783 314.43 249.317 313.926C251.244 312.206 251.6 308.292 249.702 306.157C249.702 306.157 248.338 304.645 245.877 304.319C245.759 304.289 245.433 304.26 245.047 304.26C244.721 304.23 244.454 304.23 244.187 304.26C243.327 304.378 243.031 304.616 242.527 304.527C241.875 304.408 241.37 303.785 241.133 303.459C240.036 301.888 240.066 298.389 240.066 298.063C239.799 295.246 239.651 292.963 239.562 291.421C239.384 288.752 239.414 288.1 239.236 285.847C239.058 283.267 238.969 283.386 238.643 279.679C238.494 278.138 238.257 275.202 238.02 271.555C237.901 269.776 237.842 268.442 237.842 268.145C237.694 265.091 237.634 262.393 237.575 260.11L227.02 261.592Z"/><path fill="#C5C0B8" stroke="#303131" stroke-linecap="round" stroke-linejoin="round" stroke-width="3.976" d="M28.063 134.568C13.6824 134.568 1.99995 122.916 1.99995 108.505C1.99995 94.1248 13.6527 82.4424 28.063 82.4424C42.4436 82.4424 54.126 94.0951 54.126 108.505C54.126 122.886 42.4436 134.568 28.063 134.568Z"/><path fill="#E4E4E4" stroke="#303131" stroke-linecap="round" stroke-linejoin="round" stroke-width="3.976" d="M31.8583 126.445C29.249 126.445 27.1438 124.339 27.1438 121.73C27.1438 119.121 29.249 117.016 31.8583 117.016C34.4675 117.016 36.5728 119.121 36.5728 121.73C36.5728 124.339 34.4379 126.445 31.8583 126.445Z"/><path fill="#000" d="M35.5053 105.155C34.3786 105.155 33.4891 104.236 33.4891 103.139C33.4891 102.042 34.4082 101.123 35.5053 101.123C36.6024 101.123 37.5215 102.042 37.5215 103.139C37.5215 104.236 36.6024 105.155 35.5053 105.155Z"/><path fill="#000" d="M19.4346 112.034C18.3079 112.034 17.4183 111.115 17.4183 110.018C17.4183 108.891 18.3375 108.002 19.4346 108.002C20.5613 108.002 21.4509 108.891 21.4509 110.018C21.4509 111.115 20.5613 112.034 19.4346 112.034Z"/><path stroke="#303131" stroke-linecap="round" stroke-linejoin="round" stroke-width="3.976" d="M29.4862 107.942C29.4862 107.942 32.4216 109.958 32.4809 110.64C32.5402 111.322 30.0792 113.072 30.0792 113.072"/><path stroke="#303131" stroke-linecap="round" stroke-linejoin="round" stroke-width="3.976" d="M38.5297 93.74C38.5297 93.74 35.9204 92.8208 34.5268 92.8208C33.1332 92.8208 30.1385 93.7103 30.1385 93.7103"/><path stroke="#303131" stroke-linecap="round" stroke-linejoin="round" stroke-width="3.976" d="M16.173 99.2247C16.173 99.2247 13.6526 100.381 12.6742 101.36C11.6957 102.308 10.1835 105.066 10.1835 105.066"/><path fill="#fff" d="M47.3359 113.339C47.9882 113.843 48.1661 113.428 48.3737 112.924C49.4708 110.344 49.5894 107.705 49.026 105.007C48.7295 103.554 48.2847 102.16 47.8993 100.737C47.8103 100.47 47.6324 100.203 47.4545 99.9662C46.9505 99.3732 46.3278 99.4622 46.1499 100.233C46.0313 100.737 46.0609 101.301 46.1795 101.775C46.565 103.287 47.0098 104.799 47.4249 106.311C47.8696 108.031 47.84 109.692 47.0691 111.322C46.7132 112.034 46.4464 112.805 47.3359 113.339Z"/><path fill="#fff" d="M43.6593 95.6077C43.5407 95.8153 43.0662 96.2304 43.0662 96.6455C43.0662 97.6833 43.9558 98.6914 44.6377 98.4838C45.2604 98.3059 46.0017 98.0687 45.9127 97.1792C45.8238 96.2304 44.9342 95.5188 43.6593 95.6077Z"/><path fill="#C8E9F1" stroke="#303131" stroke-linecap="round" stroke-linejoin="round" stroke-width="3.976" d="M348.083 163.152C353.569 163.36 357.216 162.737 358.698 162.44C361.812 161.847 363.116 161.195 363.828 160.839C365.103 160.157 367.09 159.06 368.513 156.659C369.254 155.413 370.499 153.367 369.788 151.144C369.165 149.246 367.475 148.356 367.327 148.297C366.052 147.645 364.806 147.793 364.302 147.882C363.68 147.941 362.85 148.267 361.219 148.949C360.329 149.335 359.736 149.572 359.084 149.869C358.432 150.165 357.957 150.402 357.898 150.462C353.836 152.507 347.372 152.596 347.372 152.596C342.479 152.656 338.239 151.825 338.239 151.825C335.393 151.262 333.495 150.551 332.369 151.588C331.627 152.241 331.538 153.338 331.36 155.502C331.183 157.667 331.123 158.764 331.509 159.594C332.131 160.928 333.673 161.462 340.582 162.381C344.377 162.826 346.304 163.093 348.083 163.152Z"/><mask id="mask0_222_517" style="mask-type:alpha" width="276" height="275" x="61" y="0" maskUnits="userSpaceOnUse"><path fill="#76D3EF" stroke="#303131" stroke-linecap="round" stroke-linejoin="round" stroke-width="3.976" d="M198.762 272.652C124.013 272.652 63.4363 212.076 63.4363 137.326C63.4363 62.5765 124.042 2 198.762 2C273.482 2 334.088 62.5765 334.088 137.326C334.088 212.076 273.512 272.652 198.762 272.652Z"/></mask><g mask="url(#mask0_222_517)"><path fill="#76D3EF" stroke="#303131" stroke-linecap="round" stroke-linejoin="round" stroke-width="3.976" d="M198.762 272.652C124.013 272.652 63.4363 212.076 63.4363 137.326C63.4363 62.5765 124.042 2 198.762 2C273.482 2 334.088 62.5765 334.088 137.326C334.088 212.076 273.512 272.652 198.762 272.652Z"/><path fill="#C2FA67" stroke="#303131" stroke-linecap="round" stroke-linejoin="round" stroke-width="3.976" d="M113.338 34.7638C112.686 35.505 112.182 36.3649 111.174 38.1143C110.64 39.0631 110.344 39.6561 110.166 40.4567C110.077 40.8718 109.929 41.7317 110.166 42.6212C110.462 43.6886 111.085 44.0741 111.826 44.9636C112.716 46.0014 113.249 47.395 114.317 50.1228C114.969 51.8129 114.851 51.8426 115.473 53.2955C116.066 54.6594 116.392 55.4303 116.985 56.4681C117.401 57.2094 117.697 57.6245 117.994 58.4844C118.26 59.2256 118.438 59.789 118.32 60.5006C118.172 61.3308 117.638 61.8349 116.985 62.5169C116.719 62.7837 115.977 63.4953 114.643 64.1773C113.012 65.0372 112.627 64.7703 111.797 65.5116C111.589 65.7191 110.729 66.4901 110.462 67.6761C110.284 68.5063 110.284 69.6923 110.284 69.6923C110.344 70.1964 110.551 70.8784 111.115 71.3528C111.826 71.9458 112.479 71.6493 114.287 72.0347C115.444 72.2719 116.363 72.4795 117.134 73.1911C117.312 73.3394 117.964 73.962 118.142 74.8516C118.498 76.6603 116.481 77.4905 114.791 80.841C113.902 82.6201 114.258 82.8276 113.131 85.0218C112.597 86.0595 112.004 87.1566 110.966 88.3723C110.136 89.3211 109.098 90.5072 107.29 91.2188C106.4 91.5746 104.651 92.2566 102.783 91.5449C101.182 90.9223 100.351 89.5583 99.6102 88.3723C98.9875 87.3642 98.5427 86.6526 98.4538 85.7037C98.098 82.8276 101.063 81.7898 100.944 78.7062C100.885 77.4015 100.381 77.5794 99.9363 75.0295C99.8177 74.4068 99.7584 73.3394 99.6102 71.2045C99.5212 69.9295 99.3729 68.6546 99.284 67.3796C99.1357 65.5412 99.1061 64.9186 98.602 64.5331C97.8608 63.9994 96.734 64.4145 96.4375 64.5331C95.0736 65.0372 94.866 65.9563 93.2649 67.7057C92.1382 68.9511 92.1678 68.5656 89.7661 70.8784C89.0545 71.5603 88.4615 72.183 87.2754 73.369C85.6743 74.9702 85.3778 75.326 84.429 76.2155C83.8953 76.6899 82.7685 77.7277 82.7685 77.7277C82.6499 77.9056 82.1459 78.5579 81.2563 78.7358C80.3372 78.9137 79.3883 78.4986 78.9139 77.9056C78.1134 76.8975 78.5878 75.3853 78.9139 74.4068C79.418 72.8057 80.1 72.2719 81.2563 70.5819C82.7982 68.3284 82.1162 68.5063 84.1028 65.2447C84.3697 64.8 86.0005 62.1017 86.5935 60.5599C86.6824 60.3523 87.0679 59.8483 87.0975 59.1367C87.1272 58.4547 86.801 58.0692 86.6824 57.7134C86.208 56.3495 88.2539 54.6001 90.1219 52.3763C91.3079 50.9827 92.2271 49.3519 93.2945 47.8694C96.823 43.0067 96.4079 43.2735 97.4753 42.0282C99.2247 39.923 99.4619 40.1898 103.465 36.3649C105.6 34.319 105.362 34.4079 109.306 30.5237C112.716 27.1732 113.635 26.3726 114.969 25.5127C115.977 24.8604 117.49 24.0005 118.972 23.1703C121.759 21.5988 121.73 21.7174 122.471 21.1541C123.331 20.5017 123.864 19.9977 124.131 20.1459C124.339 20.2645 124.28 20.6797 123.953 22.4883C123.687 24.0005 123.538 24.7418 123.449 24.979C122.975 26.1354 122.204 26.5505 121.107 27.4697C118.735 29.5156 119.417 30.1086 117.282 31.9766C115.325 33.6667 114.762 33.1626 113.279 34.8231L113.338 34.7638Z"/><path fill="#C2FA67" d="M238.049 267.7C238.049 267.7 228.65 265.862 225.359 264.528C225.359 264.528 223.046 263.549 221.742 261.978C221.682 261.889 221.623 261.829 221.564 261.77C220.793 260.673 221 260.199 220.378 259.576C219.014 258.271 216.642 259.072 214.418 259.368C209.881 259.961 206.116 258.301 203.091 256.996C199.741 255.514 196.954 254.298 195.352 251.452C194.552 249.999 194.344 248.664 192.773 246.678C191.646 245.255 190.519 244.395 189.6 243.713C185.775 240.837 184.411 241.608 182.247 239.354C180.764 237.812 180.112 236.063 179.46 234.402C177.117 230.548 177.177 228.739 177.829 227.82C178.807 226.426 181.417 226.604 184.826 224.885C187.999 223.283 188.147 222.809 190.371 221.919C193.158 220.793 194.048 221.03 199.296 219.725C202.735 218.895 204.455 218.48 205.641 217.946C210.267 215.9 209.911 213.943 214.388 212.194C215.989 211.542 218.272 210.534 221.149 210.593C223.194 210.652 224.499 211.186 224.766 210.682C225.033 210.207 224.025 209.614 223.521 208.191C222.809 206.116 223.787 204.07 223.936 203.832C225.092 201.668 226.575 202.083 227.909 199.859C228.976 198.08 228.265 197.428 229.303 196.094C229.747 195.53 230.518 194.789 234.462 193.722C237.753 192.802 238.642 192.921 241.608 192.12C244.395 191.379 245.759 190.994 246.767 190.341C249.05 188.8 248.931 187.198 251.926 181.802C253.557 178.837 254.654 176.939 256.7 174.864C257.352 174.211 258.983 172.61 261.474 171.098C262.185 170.653 264.646 169.2 268.234 168.133C271.14 167.243 272 167.451 273.601 166.354C274.965 165.405 274.49 165.138 276.566 163.181C278.493 161.343 279.887 160.038 281.933 159.594C282.555 159.475 283.178 159.416 284.127 159.001C285.283 158.467 285.372 158.022 286.321 157.607C287.803 156.955 289.286 157.31 289.701 157.399C290.65 157.637 291.302 158.052 292.874 159.386C296.076 162.084 297.203 163.626 297.647 163.359C298.152 163.063 297.351 160.631 297.232 160.661V160.602C297.173 160.631 297.262 161.402 297.351 162.262C297.232 161.728 297.114 160.898 297.292 159.949C298.033 156.035 302.658 155.917 304.912 151.588C306.128 149.275 306.068 146.903 306.009 144.412C305.92 140.439 304.764 140.113 304.912 137.296C305.09 133.797 307.225 133.62 309.152 128.016C310.842 123.094 310.19 122.323 311.85 118.735C314.015 114.08 315.616 114.317 316.861 110.611C318.195 106.697 317.602 102.901 316.861 100.173C316.15 97.4753 314.934 93.0277 310.783 90.5666C310.041 90.1219 306.335 87.9277 302.184 89.351C301.502 89.5882 298.537 90.7149 297.173 93.591C295.809 96.4671 297.529 98.0386 296.402 102.486C296.254 103.02 295.127 107.438 293.318 107.497C292.162 107.557 291.243 105.866 290.235 104.028C288.189 100.262 288.634 98.7206 287.151 95.5183C286.884 94.9253 285.372 91.7527 282.199 89.0545C280.361 87.483 278.434 86.6231 274.638 84.9626C267.789 81.9976 267.137 82.7388 265.862 81.197C263.045 77.7279 265.447 72.9838 262.452 71.1158C262.274 71.0268 262.333 71.0565 259.042 70.2262C255.959 69.4553 254.417 69.0402 253.913 68.8623C250.74 67.8245 250.948 66.8164 247.301 65.0374C244.069 63.4362 243.565 64.0589 239.71 62.2502C236.359 60.6787 234.699 59.8781 234.373 58.3659C233.869 55.8456 237.545 53.3846 236.626 51.9317C236.359 51.487 235.796 51.398 235.322 51.3091C227.85 49.9451 228.591 49.9748 227.998 49.9451C221.089 49.619 220.645 49.9155 219.488 49.1742C217.502 47.8992 216.79 45.7347 216.404 44.5487C216.256 44.1039 215.04 40.2197 216.938 36.3947C218.006 34.2599 218.628 35.0011 220.971 31.8582C223.313 28.7448 223.669 26.7286 226.13 25.0978C226.901 24.5937 227.82 24.1786 228.917 24.1193C229.273 24.0897 230.4 24.0897 231.437 24.7123C232.357 25.3054 232.683 26.0763 233.483 27.8553C234.729 30.5832 235.351 31.9471 235.885 32.5401C236.686 33.4297 237.812 34.0227 240.036 35.2087C241.519 35.9796 242.349 36.4244 243.565 36.8395C244.84 37.2843 245.284 37.2843 245.996 37.7883C247.034 38.5296 246.915 39.1523 247.864 40.2197C248.724 41.2278 250.651 42.8289 252.282 42.3249C253.438 41.9691 253.972 40.6941 254.061 40.4569C254.713 38.7964 253.586 37.8773 253.349 35.3866C253.082 32.7477 254.179 32.5401 254.15 29.4268C254.15 28.5373 254.12 26.4617 252.964 24.653C252.549 24.0304 251.511 22.6368 247.004 21.0653C242.794 19.6124 241.667 20.0868 236.893 18.6932C233.898 17.8037 232.357 17.3293 230.755 16.1136C229.599 15.2241 226.515 13.0003 226.189 9.35326C226.13 8.76024 225.952 6.8626 226.782 5.76552C230.162 1.31791 249.999 10.984 255.306 13.5637C262.926 17.27 271.733 21.5694 282.377 29.7233C287.27 33.489 298.804 42.8586 309.864 57.9508C314.904 64.8298 319.708 71.5012 323.117 81.6121C325.46 88.5504 326.231 94.3916 326.824 98.8095C327.654 105.155 328.306 110.284 327.031 116.867C326.29 120.751 325.134 123.805 324.659 124.991C322.317 130.862 320.745 131.218 318.314 136.911C316.209 141.833 317.187 142.1 314.726 148.03C313.362 151.351 312.147 154.256 309.567 157.548C306.454 161.551 304.556 163.982 301.443 164.693C300.524 164.901 299.189 165.049 298.863 165.88C298.448 167.006 300.405 167.955 300.464 170.06C300.494 171.543 299.486 171.899 299.071 173.648C298.537 175.872 299.515 177.888 300.049 179.015C301.947 182.869 304.497 182.365 306.009 185.568C307.521 188.829 306.276 192.328 306.009 193.099C304.853 196.42 303.044 196.301 300.85 200.037C298.804 203.536 299.901 204.396 297.885 209.17C297.114 211.008 296.995 210.711 292.725 217.501C288.189 224.707 288.1 225.329 286.38 226.841C284.275 228.65 283.178 228.769 280.835 231.2C278.849 233.246 277.693 235.114 277.07 236.152C275.113 239.413 275.32 240.777 273.304 245.077C272.296 247.538 270.902 250.325 268.946 253.231C268.175 254.357 267.374 255.395 266.603 256.344C260.139 259.161 255.099 261.681 251.6 263.549"/><path stroke="#303131" stroke-linecap="round" stroke-linejoin="round" stroke-width="3.976" d="M238.049 267.7C238.049 267.7 228.65 265.862 225.359 264.528C225.359 264.528 223.046 263.549 221.742 261.978C221.682 261.889 221.623 261.829 221.564 261.77C220.793 260.673 221 260.199 220.378 259.576C219.014 258.271 216.642 259.072 214.418 259.368C209.881 259.961 206.116 258.301 203.091 256.996C199.741 255.514 196.954 254.298 195.352 251.452C194.552 249.999 194.344 248.664 192.773 246.678C191.646 245.255 190.519 244.395 189.6 243.713C185.775 240.837 184.411 241.608 182.247 239.354C180.764 237.812 180.112 236.063 179.46 234.402C177.117 230.548 177.177 228.739 177.829 227.82C178.807 226.426 181.417 226.604 184.826 224.885C187.999 223.283 188.147 222.809 190.371 221.919C193.158 220.793 194.048 221.03 199.296 219.725C202.735 218.895 204.455 218.48 205.641 217.946C210.267 215.9 209.911 213.943 214.388 212.194C215.989 211.542 218.272 210.534 221.149 210.593C223.194 210.652 224.499 211.186 224.766 210.682C225.033 210.207 224.025 209.614 223.521 208.191C222.809 206.116 223.787 204.07 223.936 203.832C225.092 201.668 226.575 202.083 227.909 199.859C228.976 198.08 228.265 197.428 229.303 196.094C229.747 195.53 230.518 194.789 234.462 193.722C237.753 192.802 238.642 192.921 241.608 192.12C244.395 191.379 245.759 190.994 246.767 190.341C249.05 188.8 248.931 187.198 251.926 181.802C253.557 178.837 254.654 176.939 256.7 174.864C257.352 174.211 258.983 172.61 261.474 171.098C262.185 170.653 264.646 169.2 268.234 168.133C271.14 167.243 272 167.451 273.601 166.354C274.965 165.405 274.49 165.138 276.566 163.181C278.493 161.343 279.887 160.038 281.933 159.594C282.555 159.475 283.178 159.416 284.127 159.001C285.283 158.467 285.372 158.022 286.321 157.607C287.803 156.955 289.286 157.31 289.701 157.399C290.65 157.637 291.302 158.052 292.874 159.386C296.076 162.084 297.203 163.626 297.647 163.359C298.152 163.063 297.351 160.631 297.232 160.661V160.602C297.173 160.631 297.262 161.402 297.351 162.262C297.232 161.728 297.114 160.898 297.292 159.949C298.033 156.035 302.658 155.917 304.912 151.588C306.128 149.275 306.068 146.903 306.009 144.412C305.92 140.439 304.764 140.113 304.912 137.296C305.09 133.797 307.225 133.62 309.152 128.016C310.842 123.094 310.19 122.323 311.85 118.735C314.015 114.08 315.616 114.317 316.861 110.611C318.195 106.697 317.602 102.901 316.861 100.173C316.15 97.4753 314.934 93.0277 310.783 90.5666C310.041 90.1219 306.335 87.9277 302.184 89.351C301.502 89.5882 298.537 90.7149 297.173 93.591C295.809 96.4671 297.529 98.0386 296.402 102.486C296.254 103.02 295.127 107.438 293.318 107.497C292.162 107.557 291.243 105.866 290.235 104.028C288.189 100.262 288.634 98.7206 287.151 95.5183C286.884 94.9253 285.372 91.7527 282.199 89.0545C280.361 87.483 278.434 86.6231 274.638 84.9626C267.789 81.9976 267.137 82.7388 265.862 81.197C263.045 77.7279 265.447 72.9838 262.452 71.1158C262.274 71.0268 262.333 71.0565 259.042 70.2262C255.959 69.4553 254.417 69.0402 253.913 68.8623C250.74 67.8245 250.948 66.8164 247.301 65.0374C244.069 63.4362 243.565 64.0589 239.71 62.2502C236.359 60.6787 234.699 59.8781 234.373 58.3659C233.869 55.8456 237.545 53.3846 236.626 51.9317C236.359 51.487 235.796 51.398 235.322 51.3091C227.85 49.9451 228.591 49.9748 227.998 49.9451C221.089 49.619 220.644 49.9155 219.488 49.1742C217.502 47.8992 216.79 45.7347 216.404 44.5487C216.256 44.1039 215.04 40.2197 216.938 36.3947C218.006 34.2599 218.628 35.0011 220.971 31.8582C223.313 28.7448 223.669 26.7286 226.13 25.0978C226.901 24.5937 227.82 24.1786 228.917 24.1193C229.273 24.0897 230.4 24.0897 231.437 24.7123C232.357 25.3054 232.683 26.0763 233.483 27.8553C234.729 30.5832 235.351 31.9471 235.885 32.5401C236.686 33.4297 237.812 34.0227 240.036 35.2087C241.519 35.9796 242.349 36.4244 243.565 36.8395C244.839 37.2843 245.284 37.2843 245.996 37.7883C247.034 38.5296 246.915 39.1523 247.864 40.2197C248.724 41.2278 250.651 42.8289 252.282 42.3249C253.438 41.9691 253.972 40.6941 254.061 40.4569C254.713 38.7964 253.586 37.8773 253.349 35.3866C253.082 32.7477 254.179 32.5401 254.15 29.4268C254.15 28.5373 254.12 26.4617 252.964 24.653C252.549 24.0304 251.511 22.6368 247.004 21.0653C242.794 19.6124 241.667 20.0868 236.893 18.6932C233.898 17.8037 232.357 17.3293 230.755 16.1136C229.599 15.2241 226.515 13.0003 226.189 9.35326C226.13 8.76024 225.952 6.8626 226.782 5.76552C230.162 1.31791 249.999 10.984 255.306 13.5637C262.926 17.27 271.733 21.5694 282.377 29.7233C287.27 33.489 298.804 42.8586 309.864 57.9508C314.904 64.8298 319.708 71.5012 323.117 81.6121C325.46 88.5504 326.231 94.3916 326.824 98.8095C327.654 105.155 328.306 110.284 327.031 116.867C326.29 120.751 325.134 123.805 324.659 124.991C322.317 130.862 320.745 131.218 318.314 136.911C316.209 141.833 317.187 142.1 314.726 148.03C313.362 151.351 312.147 154.256 309.567 157.548C306.454 161.551 304.556 163.982 301.443 164.694C300.524 164.901 299.189 165.049 298.863 165.88C298.448 167.006 300.405 167.955 300.464 170.06C300.494 171.543 299.486 171.899 299.071 173.648C298.537 175.872 299.515 177.888 300.049 179.015C301.947 182.869 304.497 182.365 306.009 185.568C307.521 188.829 306.276 192.328 306.009 193.099C304.853 196.42 303.044 196.301 300.85 200.037C298.804 203.536 299.901 204.396 297.885 209.17C297.114 211.008 296.995 210.711 292.725 217.501C288.189 224.707 288.1 225.329 286.38 226.841C284.275 228.65 283.178 228.769 280.835 231.2C278.849 233.246 277.693 235.114 277.07 236.152C275.113 239.413 275.32 240.777 273.304 245.077C272.296 247.538 270.902 250.325 268.946 253.231C268.175 254.357 267.374 255.395 266.603 256.344C260.139 259.161 255.099 261.681 251.6 263.549"/><path stroke="#303131" stroke-linecap="round" stroke-linejoin="round" stroke-width="3.976" d="M254.417 152.329C254.417 152.329 248.783 156.095 243.891 156.095C238.998 156.095 233.335 153.248 233.335 153.248"/><path fill="#EAF0C8" d="M281.429 43.8667C282.555 43.5999 282.288 43.0365 281.933 42.3249C280.094 38.7075 277.248 36.1279 273.749 34.2302C271.881 33.2221 269.894 32.3919 267.937 31.532C267.552 31.3541 267.107 31.3245 266.692 31.3245C265.565 31.3541 265.091 32.0954 265.773 33.0146C266.218 33.6076 266.84 34.1116 267.493 34.4378C269.539 35.4459 271.644 36.3058 273.69 37.2546C276.002 38.3517 277.841 39.9232 278.938 42.2952C279.412 43.333 280.005 44.3708 281.429 43.8667Z"/><path fill="#EAF0C8" d="M286.173 45.0532C286.024 45.2608 285.52 45.6166 285.461 46.0317C285.342 47.0398 286.113 48.1369 286.825 48.0479C287.477 47.959 288.219 47.7811 288.219 46.8916C288.248 45.9427 287.448 45.1125 286.173 45.0532Z"/><path fill="#EAF0C8" d="M301.591 68.0321C302.836 68.1804 302.777 67.4687 302.658 66.6385C302.065 62.2502 300.02 58.5735 297.084 55.4009C295.513 53.6811 293.763 52.1393 292.073 50.5678C291.747 50.2713 291.302 50.0341 290.857 49.9155C289.671 49.53 288.93 50.1527 289.286 51.3387C289.523 52.1096 290.027 52.8509 290.591 53.4143C292.34 55.1637 294.208 56.7945 295.957 58.5439C297.944 60.5008 299.308 62.7839 299.575 65.6304C299.723 66.7868 299.99 68.0618 301.591 68.0321Z"/><path fill="#C2FA67" stroke="#303131" stroke-linecap="round" stroke-linejoin="round" stroke-width="3.976" d="M69.6925 94.0358C70.3745 94.0655 71.0861 95.5777 71.2937 96.5858C71.5902 97.9497 71.0861 98.691 71.7088 99.8177C71.8274 100.025 72.2128 100.796 73.0431 101.182C74.3477 101.775 75.8302 100.974 77.2238 100.233C78.2913 99.6695 79.0325 99.0172 79.5069 98.6317C80.011 98.2166 80.5744 97.7125 81.1081 97.0306C82.4127 95.3405 81.9679 94.4509 83.2726 92.5829C83.8063 91.812 84.34 91.0708 85.2888 90.715C86.2969 90.3295 87.2458 90.537 87.987 90.715C89.4696 91.0708 90.4481 91.8417 91.9009 92.9981C93.4724 94.273 94.3026 94.8661 94.4509 95.548C94.6585 96.5265 94.0951 97.2381 94.5992 98.3055C94.8364 98.8096 95.1922 99.1654 95.459 99.373C95.5776 99.4619 95.7555 99.5805 95.9927 99.6695C96.2893 99.7881 96.7933 99.9363 97.5642 99.8474C99.3433 99.6398 100.737 98.3055 101.864 98.6317C102.219 98.7503 102.783 99.0765 103.465 101.063C104.503 104.087 103.85 105.333 104.265 109.958C104.502 112.419 104.769 112.894 104.799 115.206C104.829 116.956 104.71 117.282 104.918 118.172C105.422 120.01 106.548 120.722 108.15 122.471C109.425 123.894 110.166 125.11 111.648 127.571C112.508 129.024 113.813 131.188 114.88 134.153C116.007 137.267 116.333 139.668 116.748 142.782C117.223 146.191 117.46 147.882 117.104 149.631C116.778 151.262 116.274 152.181 116.066 154.494C115.977 155.709 115.948 157.488 115.948 157.844C115.918 159.119 115.948 160.068 115.948 160.276C115.977 163.181 115.177 168.163 113.783 173.055C112.745 176.732 111.915 178.54 111.5 179.371C110.522 181.357 109.869 182.632 108.535 183.67C107.349 184.589 106.044 185.034 102.486 185.419C97.2381 186.012 94.5991 186.309 92.1085 185.686C89.7661 185.123 85.9115 184.174 83.5098 180.972C82.2348 179.282 81.8197 177.592 79.5959 176.139C78.8546 175.664 77.3721 174.686 76.0971 175.19C74.7925 175.724 74.4366 177.473 74.2291 178.54C73.8436 180.408 74.1401 181.476 74.9111 186.072C75.4151 189.126 75.2372 188.473 75.7116 191.32C75.7116 191.32 75.9488 192.684 76.3936 196.153C76.5122 197.013 76.4826 197.665 76.5122 198.97C76.5715 200.838 76.6012 201.757 76.4826 201.816C75.9488 201.994 73.6064 197.161 71.5309 191.705C69.9001 187.465 68.7437 183.878 66.8164 175.961C62.5764 158.497 62.2205 156.629 61.9833 153.486C61.9537 152.982 61.924 149.068 61.8647 141.24C61.7461 128.164 61.8351 125.644 62.2502 122.145C62.5171 119.951 63.2287 116.63 64.6815 110.018C67.7356 96.0817 68.8623 93.9765 69.6925 94.0358Z"/><path fill="#fff" d="M264.35 128.431C264.439 128.431 264.587 128.401 264.706 128.312C264.824 128.223 265.18 127.927 264.913 126.444C264.646 124.991 264.498 124.072 263.638 123.212C263.638 123.212 262.511 122.086 260.05 121.967C259.754 121.967 259.487 122.056 259.457 122.056C259.339 122.115 259.19 122.145 259.131 122.293C259.013 122.471 259.102 122.708 259.131 122.738C259.25 123.064 259.606 123.212 259.724 123.272C261.325 123.954 262.067 123.983 262.6 124.576C263.134 125.169 263.253 126.207 263.282 126.385C263.342 126.83 263.401 127.067 263.52 127.571C263.608 127.956 263.668 128.223 264.35 128.431Z"/><path fill="#fff" d="M226.841 130.121C226.93 130.121 227.079 130.091 227.197 130.002C227.316 129.913 227.642 129.587 227.375 128.134C227.108 126.681 226.93 125.762 226.041 124.932C226.041 124.932 224.885 123.805 222.453 123.746C222.157 123.746 221.89 123.835 221.86 123.864C221.742 123.924 221.593 123.983 221.534 124.101C221.415 124.279 221.504 124.517 221.534 124.546C221.653 124.872 222.008 125.021 222.127 125.08C223.728 125.732 224.469 125.762 225.003 126.325C225.567 126.918 225.685 127.926 225.715 128.134C225.774 128.579 225.833 128.816 225.952 129.32C226.071 129.676 226.16 129.943 226.841 130.121Z"/><path fill="#303131" d="M270.665 119.091C269.361 118.883 268.056 118.765 266.751 118.587C263.994 118.201 261.77 118.142 260.554 118.083C259.131 118.053 256.907 117.994 254.031 118.29C251.481 118.557 250.028 118.705 248.072 119.298C246.589 119.743 245.699 120.188 244.039 120.277C243.268 120.307 242.942 120.247 241.252 120.247C239.799 120.247 239.058 120.307 238.405 120.336C236.122 120.395 234.462 120.04 232.979 119.773C230.133 119.298 227.939 119.328 224.618 119.358C224.025 119.358 219.34 119.417 214.566 120.247C212.787 120.544 211.364 120.9 211.067 120.988C209.97 121.255 208.933 121.522 207.598 121.997C205.967 122.56 206.145 122.679 205.582 122.738C204.07 122.945 203.625 122.115 201.342 121.789C200.186 121.611 199.118 121.493 198.495 122.115C197.902 122.738 198.11 123.746 198.11 123.776C198.436 125.258 200.452 125.94 201.134 126.177C201.816 126.415 201.876 126.296 204.604 126.8C205.641 126.978 206.175 127.097 206.294 127.156C207.628 127.956 206.976 129.795 208.073 132.849C208.695 134.598 209.555 135.814 210.03 136.407C211.127 137.8 212.283 138.66 212.876 139.075C214.329 140.113 215.604 140.647 216.167 140.854C218.45 141.744 220.378 141.774 221.771 141.803C222.335 141.803 224.321 141.833 226.842 141.24C227.672 141.032 229.036 140.706 230.696 139.906C231.378 139.579 232.327 139.105 233.424 138.245C233.839 137.919 234.818 137.089 235.796 135.814C236.419 134.984 237.279 133.827 237.783 132.167C238.257 130.506 238.494 129.646 238.554 129.083C238.554 129.083 238.643 128.253 239.117 127.63C239.176 127.541 239.325 127.363 239.562 127.245C239.769 127.126 239.977 127.067 240.066 127.067C241.044 126.859 241.815 127.274 241.815 127.274C242.408 127.601 242.912 128.372 243.891 129.943C243.891 129.973 243.891 129.913 243.891 129.943C243.92 129.973 245.136 132.285 246.767 134.094C248.22 135.725 249.702 136.614 250.414 137.03C252.816 138.423 254.95 138.809 256.285 139.046C258.005 139.342 259.309 139.342 259.724 139.313C260.199 139.313 261.355 139.253 262.749 138.957C266.07 138.275 268.412 136.614 269.183 136.051C270.576 135.013 272.741 133.382 273.868 130.566C274.401 129.202 274.935 127.867 274.905 126.088C274.876 125.495 275.054 122.59 274.223 121.018C273.393 119.447 271.466 119.239 270.665 119.091Z"/><path fill="#fff" d="M270.576 127.541C270.665 127.541 270.814 127.512 270.932 127.423C271.051 127.334 271.407 127.037 271.14 125.555C270.873 124.102 270.725 123.183 269.865 122.323C269.865 122.323 268.738 121.196 266.277 121.078C265.981 121.078 265.714 121.166 265.684 121.166C265.565 121.226 265.417 121.255 265.358 121.404C265.239 121.582 265.328 121.819 265.358 121.848C265.476 122.175 265.832 122.323 265.951 122.382C267.552 123.064 268.293 123.094 268.827 123.687C269.361 124.28 269.479 125.318 269.509 125.495C269.568 125.94 269.628 126.177 269.746 126.682C269.835 127.067 269.894 127.334 270.576 127.541Z"/><path fill="#fff" d="M233.661 128.935C233.75 128.935 233.898 128.905 234.017 128.816C234.136 128.727 234.462 128.401 234.195 126.948C233.928 125.495 233.75 124.576 232.861 123.746C232.861 123.746 231.704 122.619 229.273 122.56C228.976 122.56 228.709 122.649 228.68 122.679C228.561 122.738 228.413 122.797 228.354 122.916C228.235 123.094 228.324 123.331 228.354 123.361C228.472 123.687 228.828 123.835 228.947 123.894C230.548 124.547 231.289 124.576 231.823 125.14C232.386 125.733 232.505 126.741 232.534 126.948C232.594 127.393 232.653 127.63 232.772 128.134C232.89 128.49 232.979 128.757 233.661 128.935Z"/><path fill="#33637C" d="M215.604 270.458C198.881 268.678 160.068 262.185 126.118 231.823C119.447 225.833 106.904 214.418 96.7637 195.797C79.507 164.041 76.0379 127.215 76.0379 83.0352C76.0379 83.0352 66.3421 106.459 64.2962 124.635C60.323 159.742 71.5013 186.131 73.9919 191.735C87.8981 223.165 111.085 240.036 120.425 246.826C124.22 249.583 127.304 251.54 128.045 251.985C139.342 259.072 158.17 268.471 182.81 271.169C190.668 272.029 201.994 272.503 215.604 270.458Z" opacity=".4"/><path stroke="#303131" stroke-linecap="round" stroke-linejoin="round" stroke-width="3.976" d="M243.229 137.207C243.229 137.207 246.929 139.623 246.463 140.76C245.992 141.895 244.137 143.149 244.137 143.149"/><path stroke="#303131" stroke-linecap="round" stroke-linejoin="round" stroke-width="4.338" d="M206.907 106.442C208.068 104.774 210.426 101.901 214.208 100.137C217.774 98.4732 220.982 98.5527 222.786 98.7654"/><path stroke="#303131" stroke-linecap="round" stroke-linejoin="round" stroke-width="4.338" d="M270.145 103.308C269.028 101.784 266.769 99.1655 263.206 97.6021C259.847 96.1284 256.858 96.2636 255.18 96.4953"/></g><path stroke="#303131" stroke-linecap="round" stroke-linejoin="round" stroke-width="3.976" d="M198.762 272.652C124.013 272.652 63.4363 212.076 63.4363 137.326C63.4363 62.5765 124.042 2 198.762 2C273.482 2 334.088 62.5765 334.088 137.326C334.088 212.076 273.512 272.652 198.762 272.652Z"/><path fill="#C5C0B8" stroke="#303131" stroke-linecap="round" stroke-linejoin="round" stroke-width="3.976" d="M126.646 213.536L123.368 218.935L113.23 212.779L116.508 207.381L126.646 213.536Z"/><path fill="#FE563E" stroke="#303131" stroke-linecap="round" stroke-linejoin="round" stroke-width="3.976" d="M81.8861 241.236L93.1902 248.1L84.9264 261.71L73.6224 254.847L81.8861 241.236Z"/><path fill="#C5C0B8" stroke="#303131" stroke-linecap="round" stroke-linejoin="round" stroke-width="3.976" d="M121.128 210.418L126.526 213.695L104.566 249.863L99.1678 246.586L121.128 210.418Z"/><path fill="#FE563E" stroke="#303131" stroke-linecap="round" stroke-linejoin="round" stroke-width="3.976" d="M70.3028 253.511L82.7474 261.066L65.7737 289.022L53.3291 281.467L70.3028 253.511Z"/><path fill="#C5C0B8" stroke="#303131" stroke-linecap="round" stroke-linejoin="round" stroke-width="3.976" d="M65.3636 294.178L60.3527 299.427L56.2312 298.507L58.2178 289.612L65.3636 294.178Z"/><path fill="#C5C0B8" stroke="#303131" stroke-linecap="round" stroke-linejoin="round" stroke-width="3.976" d="M57.2393 306.068C54.6683 306.068 52.5842 303.984 52.5842 301.413C52.5842 298.842 54.6683 296.758 57.2393 296.758C59.8103 296.758 61.8945 298.842 61.8945 301.413C61.8945 303.984 59.8103 306.068 57.2393 306.068Z"/><path fill="#C5C0B8" stroke="#303131" stroke-linecap="round" stroke-linejoin="round" stroke-width="3.976" d="M77.7873 300.879L72.7763 306.157L68.6549 305.238L70.6415 296.343L77.7873 300.879Z"/><path fill="#FE563E" stroke="#303131" stroke-linecap="round" stroke-linejoin="round" stroke-width="3.976" d="M61.8945 295.275L70.6711 300.613C74.1402 302.718 78.6768 301.621 80.782 298.151L106.222 256.255C108.328 252.786 107.23 248.249 103.761 246.144L94.9847 240.807C91.5156 238.702 86.979 239.799 84.8738 243.268L59.4335 285.164C57.2986 288.634 58.4253 293.17 61.8945 295.275Z"/><path fill="#C5C0B8" stroke="#303131" stroke-linecap="round" stroke-linejoin="round" stroke-width="3.976" d="M69.663 312.799C67.092 312.799 65.0078 310.715 65.0078 308.144C65.0078 305.573 67.092 303.488 69.663 303.488C72.2339 303.488 74.3181 305.573 74.3181 308.144C74.3181 310.715 72.2339 312.799 69.663 312.799Z"/><path fill="#F4807F" d="M103.732 253.082C103.643 253.378 103.554 253.616 102.901 254.713C102.427 255.513 102.486 255.395 102.397 255.543C102.131 256.077 102.101 256.373 101.775 256.61C101.715 256.67 101.419 256.848 101.241 256.759C101.063 256.67 101.063 256.343 101.063 256.225C101.063 255.721 101.3 255.395 101.834 254.594C101.982 254.387 102.397 253.764 102.753 252.904C102.842 252.696 102.931 252.43 102.842 252.192C102.783 252.074 102.724 251.985 102.19 251.629C101.626 251.244 101.478 251.184 101.389 250.947C101.33 250.799 101.33 250.591 101.449 250.473C101.478 250.443 101.567 250.354 101.893 250.384C102.457 250.443 102.872 250.739 103.02 250.888C103.168 251.006 103.406 251.214 103.613 251.57C103.791 251.866 103.821 252.133 103.821 252.222C103.85 252.311 103.88 252.607 103.732 253.082Z"/><path fill="#C8E9F1" d="M158.17 253.171C143.137 276.358 132.285 293.052 130.358 295.691C130.15 295.987 129.261 297.143 128.846 298.863C128.698 299.456 128.223 301.502 129.053 303.756C129.587 305.179 130.447 305.979 132.137 307.61C134.746 310.101 137.118 311.346 138.601 311.969C139.906 312.532 140.558 312.769 141.358 312.71C144.175 312.562 147.14 309.478 146.992 306.394C146.992 306.394 146.873 304.2 145.005 302.214C144.917 302.125 144.65 301.858 144.353 301.591C144.086 301.354 143.879 301.176 143.612 300.998C142.811 300.494 142.396 300.524 142.011 300.079C141.536 299.515 141.536 298.656 141.566 298.241C141.714 296.165 144.116 293.23 144.353 292.963C146.043 290.413 147.466 288.367 148.445 287.003C150.135 284.631 150.58 284.097 151.973 282.051C153.575 279.738 153.426 279.798 155.68 276.418C156.629 274.994 158.408 272.355 160.691 269.094C161.817 267.522 162.648 266.366 162.855 266.069C164.812 263.401 166.591 261.058 168.133 259.072"/><path stroke="#303131" stroke-linecap="round" stroke-linejoin="round" stroke-width="3.976" d="M158.17 253.171C143.137 276.358 132.285 293.052 130.358 295.691C130.15 295.987 129.261 297.143 128.846 298.863C128.698 299.456 128.223 301.502 129.053 303.756C129.587 305.179 130.447 305.979 132.137 307.61C134.746 310.101 137.118 311.346 138.601 311.969C139.906 312.532 140.558 312.769 141.358 312.71C144.175 312.562 147.14 309.478 146.992 306.394C146.992 306.394 146.873 304.2 145.005 302.214C144.917 302.125 144.65 301.858 144.353 301.591C144.086 301.354 143.879 301.176 143.612 300.998C142.811 300.494 142.396 300.524 142.011 300.079C141.536 299.515 141.536 298.656 141.566 298.241C141.714 296.165 144.116 293.23 144.353 292.963C146.043 290.413 147.466 288.367 148.445 287.003C150.135 284.631 150.58 284.097 151.973 282.051C153.575 279.738 153.426 279.798 155.68 276.418C156.629 274.994 158.408 272.355 160.691 269.094C161.817 267.522 162.648 266.366 162.855 266.069C164.812 263.401 166.591 261.058 168.133 259.072"/><path fill="#C8E9F1" d="M127.334 164.901C123.865 167.362 121.107 169.468 119.15 171.009C116.897 172.789 115.592 173.915 114.762 174.627C114.258 175.072 113.754 175.576 113.161 175.991C112.864 176.198 112.004 177.384 111.975 177.533C111.767 178.6 112.152 179.875 112.182 179.934C112.864 182.04 114.02 184.649 114.109 184.797L120.633 198.199C124.428 206.205 126.948 211.483 127.689 212.787C127.838 213.054 128.401 214.092 128.549 215.545C128.609 216.049 128.727 217.769 127.749 219.548C127.126 220.674 126.296 221.267 124.695 222.424C122.174 224.262 120.069 225.033 118.705 225.419C117.549 225.745 116.956 225.923 116.304 225.774C114.495 225.419 113.072 223.373 113.072 221.416C113.072 219.459 114.525 217.976 115.74 216.672C116.897 215.456 117.193 215.663 117.579 215.011C118.854 213.054 116.837 210.267 113.487 203.744L107.023 190.431C107.023 190.431 103.02 180.735 102.753 178.6C102.516 176.436 102.635 174.805 103.05 173.293C103.465 171.81 106.074 169.823 106.074 169.823C110.344 166.176 115.236 161.966 120.603 157.37"/><path stroke="#303131" stroke-linecap="round" stroke-linejoin="round" stroke-width="3.976" d="M127.334 164.901C123.865 167.362 121.107 169.468 119.15 171.009C116.897 172.789 115.592 173.915 114.762 174.627C114.258 175.072 113.754 175.576 113.161 175.991C112.864 176.198 112.004 177.384 111.975 177.533C111.767 178.6 112.152 179.875 112.182 179.934C112.864 182.04 114.02 184.649 114.109 184.797L120.633 198.199C124.428 206.205 126.948 211.483 127.689 212.787C127.838 213.054 128.401 214.092 128.549 215.545C128.609 216.049 128.727 217.769 127.749 219.548C127.126 220.674 126.296 221.267 124.695 222.424C122.174 224.262 120.069 225.033 118.705 225.419C117.549 225.745 116.956 225.923 116.304 225.774C114.495 225.419 113.072 223.373 113.072 221.416C113.072 219.459 114.525 217.976 115.74 216.672C116.897 215.456 117.193 215.663 117.579 215.011C118.854 213.054 116.837 210.267 113.487 203.744L107.023 190.431C107.023 190.431 103.02 180.735 102.753 178.6C102.516 176.436 102.635 174.805 103.05 173.293C103.465 171.81 106.074 169.823 106.074 169.823C110.344 166.176 115.236 161.966 120.603 157.37"/></svg>