<svg width="359" height="355" viewBox="0 0 359 355" fill="none" xmlns="http://www.w3.org/2000/svg">
<g clip-path="url(#clip0_3040_533)">
<path d="M41.1943 195.384C33.8872 206.866 41.8544 221.465 28.3301 236.156C18.4747 246.871 8.00522 245.889 4.15209 256.527C0.559928 266.429 4.95035 280.229 13.2399 284.558C21.7598 288.995 27.8696 280.045 37.0342 283.223C52.7537 288.672 47.8721 319.605 62.5938 325.131C72.6027 328.877 76.8396 315.322 94.0175 315.03C110.351 314.754 127.667 326.651 144.615 338.333C150.218 342.202 155.76 346.515 163.251 345.947C171.049 345.364 178.019 339.699 181.887 336.537C186.999 332.377 187.598 330.443 190.76 327.572C205.666 314.048 225.454 326.682 238.241 313.679C241.281 310.594 243.998 305.988 247.114 300.692C252.717 291.175 252.41 288.596 255.987 286.354C261.191 283.1 264.63 286.846 275.959 285.909C282.514 285.356 291.571 284.804 295.486 278.74C297.45 275.685 297.404 272.385 297.297 266.551C297.236 263.082 297.128 256.819 294.564 252.137C289.821 243.479 277.586 241.775 274.209 241.222C229.061 233.853 66.8307 155.102 41.1943 195.399V195.384Z" fill="#76D3EF" stroke="#303131" stroke-width="6.1188" stroke-linecap="round" stroke-linejoin="round"/>
<path d="M149.544 203.596C141.914 223.26 140.364 238.581 140.441 249.219C140.487 255.314 141.101 263.235 136.741 272C134.361 276.805 132.627 277.557 121.728 288.533C105.593 304.775 103.936 308.628 96.214 311.253C89.6744 313.464 88.8915 311.376 82.705 314.2C74.7071 317.839 70.4702 323.872 64.606 322.613C63.0863 322.291 61.9503 321.584 61.2441 321.062C75.1215 312.282 92.6065 297.79 101.372 274.641C103.03 270.281 103.613 267.594 104.565 264.386C109.186 248.881 120.346 227.666 149.528 203.611L149.544 203.596Z" fill="#307C93"/>
<path d="M278.37 140.289C274.916 161.09 276.513 176.425 278.754 186.803C280.044 192.759 282.254 200.388 279.783 209.86C278.57 214.481 275.193 219.347 268.454 229.095C266.535 231.874 255.651 247.47 248.574 250.786C248.021 251.047 245.703 252.076 243.047 254.071C242.51 254.47 241.067 255.606 239.363 257.356C237.322 259.475 236.232 261.148 235.479 262.177C229.876 269.775 220.236 272.201 219.637 272.339C217.826 272.769 216.321 272.907 215.385 272.968C227.389 261.639 241.804 244.001 245.703 219.639C246.44 215.033 246.471 212.27 246.747 208.939C248.098 192.82 254.714 169.778 278.37 140.273V140.289Z" fill="#467C93" stroke="#303131" stroke-width="4.60533" stroke-linecap="round" stroke-linejoin="round"/>
<path d="M93.9585 182.412C93.9893 196.397 93.3599 210.443 94.2195 224.351C94.6186 230.661 93.759 235.711 91.7326 240.009C88.9694 245.889 84.7172 249.466 80.511 252.551C57.5611 269.407 45.4337 265.707 32.9225 276.392C30.9729 278.065 24.9092 283.576 17.5868 282.824C16.5275 282.716 15.6679 282.501 15.1152 282.332C28.4093 270.174 43.2231 254.961 57.9909 236.341C73.2653 217.075 84.9935 198.577 93.9585 182.412Z" fill="#307C93"/>
<path d="M226.13 209.935C222.676 230.736 224.273 246.072 226.514 256.449C227.803 262.405 230.014 270.035 227.542 279.507C226.33 284.127 222.952 288.994 216.213 298.741C214.294 301.52 203.41 317.117 196.334 320.433C195.781 320.694 193.463 321.722 190.807 323.718C190.27 324.117 188.827 325.253 187.123 327.003C185.081 329.121 183.991 330.795 183.239 331.823C177.636 339.422 167.995 341.847 167.397 341.986C165.585 342.415 164.081 342.554 163.145 342.615C175.149 331.286 189.564 313.647 193.463 289.285C194.2 284.68 194.231 281.917 194.507 278.585C195.858 262.467 202.474 239.425 226.13 209.92V209.935Z" fill="#307C93"/>
<path d="M172.514 275.387C157.797 312.31 147.264 338.944 145.842 343.396C145.677 343.919 145.082 345.876 143.213 347.832C142.585 348.479 140.336 350.774 136.368 351.668C133.871 352.237 131.853 351.914 127.786 351.298C121.519 350.343 117.286 348.618 114.756 347.385C112.59 346.338 111.498 345.799 110.721 344.797C108.571 342.055 109.365 337.804 112.11 335.463C114.871 333.106 119.105 333.106 122.709 333.106C126.132 333.106 126.264 333.691 127.769 333.445C132.382 332.674 133.375 326.775 137.591 314.621C138.666 311.54 137.31 315.622 143.379 299.155C145.991 292.07 147.314 288.481 148.223 285.8C149.612 281.718 151.514 275.911 153.515 268.748" fill="#FFA295"/>
<path d="M172.514 275.387C157.797 312.31 147.264 338.944 145.842 343.396C145.677 343.919 145.082 345.876 143.213 347.832C142.585 348.479 140.336 350.774 136.368 351.668C133.871 352.237 131.853 351.914 127.786 351.298C121.519 350.343 117.286 348.618 114.756 347.385C112.59 346.338 111.498 345.799 110.721 344.797C108.571 342.055 109.365 337.804 112.11 335.463C114.871 333.106 119.105 333.106 122.709 333.106C126.132 333.106 126.264 333.691 127.769 333.445C132.382 332.674 133.375 326.775 137.591 314.621C138.666 311.54 137.31 315.622 143.379 299.155C145.991 292.07 147.314 288.481 148.223 285.8C149.612 281.718 151.514 275.911 153.515 268.748" stroke="#303131" stroke-width="6.1188" stroke-linecap="round" stroke-linejoin="round"/>
<path d="M200.049 269.185C205.069 308.137 208.622 336.212 208.872 340.845C208.905 341.382 208.989 343.422 210.323 345.708C210.773 346.475 212.391 349.191 216.06 350.924C218.362 352.014 220.43 352.152 224.566 352.443C230.954 352.888 235.541 352.136 238.326 351.507C240.711 350.97 241.929 350.679 242.946 349.881C245.748 347.703 246.065 343.407 243.964 340.538C241.862 337.654 237.709 336.718 234.173 335.936C230.821 335.184 230.537 335.721 229.136 335.153C224.817 333.404 225.35 327.482 224.3 314.795C224.033 311.589 224.316 315.823 222.565 298.564C221.815 291.138 221.431 287.364 221.214 284.572C220.881 280.323 220.514 274.278 220.363 266.914" fill="#FFA295"/>
<path d="M200.049 269.185C205.069 308.137 208.622 336.212 208.872 340.845C208.905 341.382 208.989 343.422 210.323 345.708C210.773 346.475 212.391 349.191 216.06 350.924C218.362 352.014 220.43 352.152 224.566 352.443C230.954 352.888 235.541 352.136 238.326 351.507C240.711 350.97 241.929 350.679 242.946 349.881C245.748 347.703 246.065 343.407 243.964 340.538C241.862 337.654 237.709 336.718 234.173 335.936C230.821 335.184 230.537 335.721 229.136 335.153C224.817 333.404 225.35 327.482 224.3 314.795C224.033 311.589 224.316 315.823 222.565 298.564C221.815 291.138 221.431 287.364 221.214 284.572C220.881 280.323 220.514 274.278 220.363 266.914" stroke="#303131" stroke-width="6.1188" stroke-linecap="round" stroke-linejoin="round"/>
<path d="M203.196 61.889C204.823 59.0951 231.058 15.7129 277.234 15.6668C300.353 15.6361 316.81 26.4893 322.444 30.6188C354.42 54.0599 359.9 97.0277 354.988 125.596C351.242 147.349 340.727 165.079 317.454 191.038C292.34 219.038 250.309 258.921 185.02 294.612L87.6175 220.128C87.6175 220.128 32.2461 180.016 23.6494 135.145C21.9301 126.149 16.7414 110.337 19.1362 89.7513C20.3336 79.5121 23.8951 51.8954 47.1367 29.099C53.0315 23.3117 73.5713 4.72146 105.409 2.63371C131.798 0.899037 151.033 11.4606 159.814 16.4344C185.634 31.064 198.314 52.4481 203.196 61.889Z" fill="#FE563E" stroke="#303131" stroke-width="6.73068" stroke-linecap="round" stroke-linejoin="round"/>
<path d="M333.132 45.4121C336.203 58.4145 339.903 82.8453 333.394 111.874C325.427 147.366 306.33 170.516 296.966 180.54L247.766 232.764L185.363 290.776C191.55 287.153 197.736 283.546 203.938 279.923C220.748 269.592 238.724 257.403 257.237 243.034C270.408 232.826 282.398 222.633 293.282 212.731C305.409 199.683 317.536 186.634 329.664 173.57C335.298 163.623 340.654 155.096 346.288 145.149C348.735 138.418 350.64 132.921 352.528 126.228C354.462 115.881 354.242 92.8328 347.206 68.6636C343.4 58.8903 337.63 50.8464 333.132 45.4121Z" fill="#AF3322"/>
<path d="M38.3261 84.1507C35.7603 83.0429 34.6879 82.2012 35.1945 79.5608C37.8196 65.9597 44.7736 54.7687 54.5062 45.251C59.7102 40.1698 65.4362 35.5952 71.024 30.8977C72.1139 29.992 73.5723 29.378 74.9539 29.0095C78.6996 27.9964 80.9408 30.0841 79.6053 33.6916C78.7456 36.025 74.9425 37.9261 73.085 39.5994C67.3283 44.8034 62.6194 47.925 56.8702 54.2845C50.2999 60.0565 46.4008 67.8479 45.0039 76.7055C44.4052 80.5279 43.392 84.4731 38.3261 84.1507Z" fill="#F58E86"/>
<path d="M94.5698 19.407C95.1131 20.0189 95.2512 22.2286 94.5698 23.6841C92.9005 27.3259 88.06 29.3542 85.97 27.5961C84.0207 25.9607 83.2123 24.6262 84.7188 21.6014C87.8374 18.932 92.2191 17.6008 94.2157 19.0827L94.5698 19.407Z" fill="#F58E86"/>
<path d="M53.8751 229.6C50.6207 237.092 49.5154 242.48 49.1163 244.675C48.272 249.296 48.4255 251.476 48.5637 252.627C48.8093 254.761 49.2391 258.107 51.8181 261.362C53.1383 263.035 55.3028 265.906 58.7875 266.105C61.7656 266.274 63.8841 264.386 64.0529 264.232C65.6341 262.789 66.0946 261.024 66.2942 260.256C66.5245 259.351 66.5552 258.046 66.4784 255.421C66.4324 253.993 66.4017 253.011 66.3402 251.951C66.2788 250.877 66.1867 250.109 66.1867 249.986C65.542 243.247 68.9346 234.221 68.9346 234.221C71.4982 227.39 74.9676 221.986 74.9676 221.986C77.3163 218.333 79.2966 216.122 78.483 213.973C77.961 212.607 76.5027 211.9 73.6013 210.488C70.6846 209.06 69.2263 208.416 67.86 208.492C65.6802 208.631 64.0836 210.457 59.1099 219.576C56.3467 224.642 54.9497 227.175 53.9058 229.6H53.8751Z" fill="#FFA295" stroke="#303131" stroke-width="6.1188" stroke-linecap="round" stroke-linejoin="round"/>
<path d="M327.079 214.204C334.447 210.704 338.822 207.357 340.572 205.96C344.241 203.028 345.561 201.278 346.221 200.326C347.434 198.546 349.307 195.752 349.506 191.607C349.614 189.473 349.875 185.896 347.373 183.455C345.239 181.383 342.399 181.398 342.169 181.398C340.035 181.444 338.515 182.488 337.87 182.934C337.103 183.455 336.212 184.423 334.554 186.449C333.649 187.554 333.019 188.306 332.375 189.151C331.73 189.995 331.269 190.64 331.193 190.747C327.247 196.243 318.758 200.833 318.758 200.833C312.341 204.302 306.201 206.083 306.17 206.098C306.17 206.098 302.363 207.25 299.677 209.675C299.4 209.921 299.232 210.136 298.971 210.427C294.457 215.463 291.663 218.947 291.663 218.947C288.256 223.215 286.552 225.349 286.72 225.686C287.872 227.974 300.936 223.583 316.548 218.333C319.464 217.351 322.857 216.199 327.063 214.188L327.079 214.204Z" fill="#FFA295" stroke="#303131" stroke-width="6.1188" stroke-linecap="round" stroke-linejoin="round"/>
<path d="M201.165 62.0257C202.792 59.2318 229.027 15.8496 275.203 15.8035C298.322 15.7728 314.778 26.6261 320.412 30.7555C352.389 54.1967 357.869 97.1644 352.957 125.733C349.211 147.485 338.695 165.216 315.423 191.175C290.309 219.175 248.277 259.057 182.989 294.749L85.5863 220.265C85.5863 220.265 30.2148 180.153 21.6182 135.281C19.8989 126.285 14.7102 110.474 17.105 89.888C18.3024 79.6488 21.8638 52.0322 45.1054 29.2357C51.0002 23.4484 71.54 4.85818 103.378 2.77043C129.767 1.03576 149.002 11.5973 157.783 16.5711C183.603 31.2007 196.283 52.5848 201.165 62.0257Z" stroke="#303131" stroke-width="6.73068" stroke-linecap="round" stroke-linejoin="round"/>
<path d="M44.5864 192.619L47.5184 181.352L121.649 206.635L195.795 231.933L118.717 217.903L41.6543 203.887L44.5864 192.619Z" fill="#76D3EF" stroke="#303131" stroke-width="6.1188" stroke-linecap="round" stroke-linejoin="round"/>
<path d="M322.843 188.415C318.314 194.187 313.786 199.944 309.257 205.716C291.911 209.922 274.579 214.144 257.232 218.35L187.17 235.359L252.765 205.424C277.864 194.648 302.948 183.856 328.047 173.08C330.595 172.189 332.115 172.143 332.622 172.926C333.666 174.538 330.411 179.711 322.828 188.415H322.843Z" fill="#76D3EF" stroke="#303131" stroke-width="6.1188" stroke-linecap="round" stroke-linejoin="round"/>
<path d="M192.22 239.503C182.979 239.549 175.211 234.529 175.011 228.389C174.812 222.141 183.147 216.261 192.251 216.23C200.54 216.215 209.06 222.202 209.122 228.097C209.183 234.13 201.277 239.457 192.22 239.503Z" fill="#F2C639" stroke="#303131" stroke-width="6.1188" stroke-linecap="round" stroke-linejoin="round"/>
</g>
<path d="M136.422 117.826C138.968 115.481 143.98 111.546 151.118 109.813C157.848 108.18 163.404 109.247 166.476 110.118" stroke="#303131" stroke-width="7.75407" stroke-linecap="round" stroke-linejoin="round"/>
<path d="M242.58 115.917C239.708 113.772 234.157 110.277 226.84 109.432C219.943 108.636 214.616 110.558 211.713 111.921" stroke="#303131" stroke-width="7.75407" stroke-linecap="round" stroke-linejoin="round"/>
<path d="M156.605 143.922C161.336 143.922 165.172 140.086 165.172 135.355C165.172 130.624 161.336 126.789 156.605 126.789C151.874 126.789 148.039 130.624 148.039 135.355C148.039 140.086 151.874 143.922 156.605 143.922Z" fill="#303131"/>
<path d="M223.912 143.922C228.643 143.922 232.478 140.086 232.478 135.355C232.478 130.624 228.643 126.789 223.912 126.789C219.181 126.789 215.346 130.624 215.346 135.355C215.346 140.086 219.181 143.922 223.912 143.922Z" fill="#303131"/>
<path d="M169.091 165.823C170.646 162.963 177.984 167.324 189.976 167.501C203.119 167.702 210.172 162.703 211.815 165.669C213.348 168.459 208.442 175.29 204.236 178.671C203.677 179.12 201.367 180.928 197.895 182.205C194.883 183.316 192.408 183.505 191.4 183.54C189.987 183.611 187.381 183.587 184.336 182.665C177.305 180.538 173.384 175.267 172.497 174.026C170.569 171.319 168.039 167.761 169.091 165.823Z" fill="#F58E85" stroke="#303131" stroke-width="6.73068" stroke-linecap="round" stroke-linejoin="round"/>
<path d="M193.93 142.698C198.286 148.465 193.214 151.669 193.214 151.669" stroke="#303131" stroke-width="6.73068" stroke-linecap="round" stroke-linejoin="round"/>
<defs>
<clipPath id="clip0_3040_533">
<rect width="358.28" height="354.718" fill="white" transform="translate(0.576172 0.132812)"/>
</clipPath>
</defs>
</svg>
