<svg width="124" height="123" viewBox="0 0 124 123" fill="none" xmlns="http://www.w3.org/2000/svg">
<g clip-path="url(#clip0_222_706)">
<path d="M14.1708 67.4174C11.6477 71.3822 14.3987 76.423 9.72892 81.4955C6.32599 85.1953 2.71104 84.8561 1.38061 88.5293C0.140285 91.9482 1.65623 96.7133 4.51851 98.2081C7.4603 99.7399 9.56991 96.6497 12.7343 97.7469C18.1621 99.6286 16.4765 110.309 21.5597 112.217C25.0156 113.511 26.4786 108.83 32.4098 108.73C38.0496 108.634 44.0286 112.742 49.8804 116.776C51.815 118.112 53.7285 119.601 56.3152 119.405C59.0079 119.203 61.4143 117.248 62.75 116.156C64.5151 114.719 64.7218 114.051 65.8137 113.06C70.9605 108.39 77.7929 112.753 82.2082 108.263C83.2577 107.198 84.1959 105.608 85.2719 103.779C87.2066 100.493 87.1006 99.6021 88.3356 98.8282C90.1325 97.7045 91.3198 98.9979 95.2316 98.6745C97.4949 98.4837 100.622 98.2929 101.974 96.1992C102.652 95.1444 102.636 94.0048 102.599 91.9906C102.578 90.7927 102.541 88.63 101.656 87.0134C100.018 84.0239 95.7934 83.4355 94.6273 83.2447C79.0385 80.7005 23.0226 53.5088 14.1708 67.4227V67.4174Z" fill="#76D3EF" stroke="#303131" stroke-width="3.1001" stroke-linecap="round" stroke-linejoin="round"/>
<path d="M51.5818 70.2532C48.9474 77.0431 48.412 82.3331 48.4385 86.0063C48.4544 88.1106 48.6665 90.8457 47.1611 93.8723C46.3395 95.5314 45.7406 95.7911 41.9772 99.5809C36.4064 105.189 35.8339 106.519 33.1678 107.426C30.9097 108.189 30.6394 107.468 28.5033 108.443C25.7417 109.7 24.2788 111.783 22.254 111.348C21.7292 111.237 21.337 110.993 21.0932 110.813C25.8848 107.781 31.9221 102.777 34.9487 94.784C35.5212 93.2786 35.7226 92.351 36.0512 91.2432C37.6467 85.8897 41.5002 78.5644 51.5765 70.2585L51.5818 70.2532Z" fill="#307C93"/>
<path d="M96.064 48.394C94.8713 55.5762 95.4226 60.8714 96.1965 64.4545C96.6417 66.5111 97.405 69.1455 96.5516 72.4159C96.1329 74.0114 94.9667 75.6916 92.6398 79.0575C91.9773 80.0169 88.2192 85.4022 85.7756 86.5471C85.5848 86.6372 84.7844 86.9923 83.8675 87.6814C83.6819 87.8192 83.1837 88.2115 82.5953 88.8157C81.8904 89.5472 81.514 90.125 81.2543 90.4801C79.3196 93.1038 75.9909 93.9413 75.7842 93.989C75.1587 94.1375 74.6392 94.1852 74.3159 94.2064C78.4609 90.2946 83.4381 84.2043 84.7844 75.7924C85.0389 74.2022 85.0495 73.2481 85.1449 72.0979C85.6113 66.5324 87.8959 58.5763 96.064 48.3887V48.394Z" fill="#467C93" stroke="#303131" stroke-width="2.33329" stroke-linecap="round" stroke-linejoin="round"/>
<path d="M32.3888 62.9388C32.3994 67.7676 32.1821 72.6176 32.4789 77.4199C32.6168 79.5984 32.3199 81.3422 31.6203 82.8264C30.6662 84.8565 29.1979 86.0915 27.7456 87.1569C19.8213 92.9769 15.6339 91.6995 11.314 95.3886C10.6408 95.9664 8.54709 97.8693 6.01874 97.6095C5.65301 97.5724 5.35618 97.4982 5.16536 97.4399C9.75561 93.2419 14.8706 87.9891 19.9697 81.5596C25.2437 74.9074 29.2933 68.5203 32.3888 62.9388Z" fill="#307C93"/>
<path d="M78.026 72.4423C76.8334 79.6245 77.3846 84.9197 78.1585 88.5029C78.6037 90.5595 79.367 93.1938 78.5136 96.4643C78.0949 98.0597 76.9288 99.74 74.6019 103.106C73.9393 104.065 70.1812 109.451 67.7377 110.595C67.5469 110.686 66.7465 111.041 65.8295 111.73C65.644 111.868 65.1457 112.26 64.5574 112.864C63.8524 113.596 63.4761 114.173 63.2163 114.528C61.2816 117.152 57.9529 117.99 57.7462 118.037C57.1207 118.186 56.6013 118.234 56.278 118.255C60.423 114.343 65.4001 108.253 66.7465 99.8407C67.0009 98.2505 67.0115 97.2964 67.1069 96.1462C67.5734 90.5807 69.8579 82.6246 78.026 72.437V72.4423Z" fill="#307C93"/>
<path d="M59.5134 95.0414C54.432 107.79 50.7951 116.987 50.3041 118.524C50.247 118.705 50.0415 119.38 49.3963 120.056C49.1794 120.279 48.4029 121.071 47.0326 121.38C46.1705 121.577 45.4739 121.465 44.0694 121.252C41.9055 120.923 40.4439 120.327 39.5704 119.901C38.8224 119.54 38.4456 119.353 38.1773 119.008C37.435 118.061 37.7091 116.593 38.6569 115.785C39.6103 114.971 41.072 114.971 42.3166 114.971C43.4985 114.971 43.5441 115.173 44.0637 115.088C45.6566 114.822 45.9992 112.785 47.4551 108.588C47.8262 107.525 47.358 108.934 49.4534 103.248C50.3555 100.802 50.8123 99.5624 51.1263 98.6369C51.6059 97.2274 52.2625 95.2222 52.9533 92.749" fill="#FFA295"/>
<path d="M59.5134 95.0414C54.432 107.79 50.7951 116.987 50.3041 118.524C50.247 118.705 50.0415 119.38 49.3963 120.056C49.1794 120.279 48.4029 121.071 47.0326 121.38C46.1705 121.577 45.4739 121.465 44.0694 121.252C41.9055 120.923 40.4439 120.327 39.5704 119.901C38.8224 119.54 38.4456 119.353 38.1773 119.008C37.435 118.061 37.7091 116.593 38.6569 115.785C39.6103 114.971 41.072 114.971 42.3166 114.971C43.4985 114.971 43.5441 115.173 44.0637 115.088C45.6566 114.822 45.9992 112.785 47.4551 108.588C47.8262 107.525 47.358 108.934 49.4534 103.248C50.3555 100.802 50.8123 99.5624 51.1263 98.6369C51.6059 97.2274 52.2625 95.2222 52.9533 92.749" stroke="#303131" stroke-width="3.1001" stroke-linecap="round" stroke-linejoin="round"/>
<path d="M69.0208 92.8992C70.7542 106.349 71.9808 116.043 72.0672 117.643C72.0787 117.828 72.1075 118.532 72.5682 119.322C72.7237 119.587 73.2823 120.524 74.5493 121.123C75.344 121.499 76.0581 121.547 77.4863 121.647C79.692 121.801 81.2757 121.541 82.2374 121.324C83.061 121.139 83.4814 121.038 83.8327 120.763C84.8002 120.01 84.9096 118.527 84.184 117.537C83.4583 116.541 82.0244 116.218 80.8035 115.947C79.6459 115.688 79.548 115.873 79.0643 115.677C77.5727 115.073 77.757 113.029 77.3942 108.648C77.3021 107.541 77.4 109.003 76.7953 103.043C76.5361 100.48 76.4037 99.1764 76.3288 98.2123C76.2136 96.745 76.0869 94.6579 76.0351 92.1152" fill="#FFA295"/>
<path d="M69.0208 92.8992C70.7542 106.349 71.9808 116.043 72.0672 117.643C72.0787 117.828 72.1075 118.532 72.5682 119.322C72.7237 119.587 73.2823 120.524 74.5493 121.123C75.344 121.499 76.0581 121.547 77.4863 121.647C79.692 121.801 81.2757 121.541 82.2374 121.324C83.061 121.139 83.4814 121.038 83.8327 120.763C84.8002 120.01 84.9096 118.527 84.184 117.537C83.4583 116.541 82.0244 116.218 80.8035 115.947C79.6459 115.688 79.548 115.873 79.0643 115.677C77.5727 115.073 77.757 113.029 77.3942 108.648C77.3021 107.541 77.4 109.003 76.7953 103.043C76.5361 100.48 76.4037 99.1764 76.3288 98.2123C76.2136 96.745 76.0869 94.6579 76.0351 92.1152" stroke="#303131" stroke-width="3.1001" stroke-linecap="round" stroke-linejoin="round"/>
<path d="M70.107 21.3238C70.6689 20.3591 79.7275 5.37986 95.6714 5.36396C103.654 5.35336 109.336 9.10083 111.281 10.5267C122.322 18.6206 124.215 33.4567 122.519 43.321C121.225 50.8318 117.594 56.9539 109.559 65.9171C100.887 75.5852 86.3743 89.356 63.8312 101.68L30.1994 75.9616C30.1994 75.9616 11.0804 62.1113 8.11213 46.6179C7.51847 43.5118 5.72689 38.0523 6.55378 30.9443C6.96722 27.4088 8.19694 17.8732 16.2219 10.0019C18.2573 8.00362 25.3494 1.58469 36.3427 0.863822C45.4543 0.264863 52.0958 3.91162 55.1277 5.62899C64.0432 10.6804 68.4215 18.064 70.107 21.3238Z" fill="#FE563E" stroke="#303131" stroke-width="3.4101" stroke-linecap="round" stroke-linejoin="round"/>
<path d="M114.973 15.6342C116.033 20.1237 117.311 28.5593 115.063 38.5826C112.312 50.8374 105.718 58.8306 102.485 62.2918L85.4968 80.3242L63.9502 100.355C66.0863 99.1039 68.2224 97.8583 70.3638 96.6074C76.1679 93.0401 82.3748 88.8315 88.7672 83.8702C93.3151 80.3454 97.4548 76.8258 101.213 73.407C105.4 68.9016 109.588 64.3961 113.775 59.8854C115.72 56.4506 117.57 53.5065 119.515 50.0717C120.36 47.7477 121.018 45.8497 121.67 43.5387C122.338 39.9662 122.262 32.0079 119.832 23.6625C118.518 20.288 116.526 17.5105 114.973 15.6342Z" fill="#AF3322"/>
<path d="M13.1798 29.0101C12.2938 28.6275 11.9235 28.3369 12.0985 27.4252C13.0048 22.7289 15.406 18.8649 18.7665 15.5785C20.5634 13.8241 22.5405 12.2445 24.4699 10.6226C24.8462 10.3098 25.3498 10.0978 25.8268 9.97059C27.1201 9.62076 27.894 10.3416 27.4329 11.5873C27.136 12.3929 25.8229 13.0494 25.1815 13.6271C23.1938 15.424 21.5679 16.5018 19.5828 18.6977C17.3141 20.6907 15.9678 23.3809 15.4855 26.4393C15.2788 27.7591 14.9289 29.1214 13.1798 29.0101Z" fill="#F58E86"/>
<path d="M32.5997 6.65509C32.7873 6.86636 32.835 7.62933 32.5998 8.1319C32.0234 9.38936 30.352 10.0897 29.6304 9.48265C28.9573 8.918 28.6782 8.45721 29.1983 7.41277C30.2751 6.49108 31.7881 6.03143 32.4775 6.5431L32.5997 6.65509Z" fill="#F58E86"/>
<path d="M47.0509 40.6383C47.9302 39.8288 49.6609 38.4702 52.1255 37.8717C54.4491 37.3077 56.3674 37.6762 57.4282 37.9769" stroke="#303131" stroke-width="3.9286" stroke-linecap="round" stroke-linejoin="round"/>
<path d="M83.7061 39.9794C82.7142 39.2388 80.7975 38.0319 78.2713 37.7402C75.8896 37.4653 74.0503 38.1291 73.048 38.5996" stroke="#303131" stroke-width="3.9286" stroke-linecap="round" stroke-linejoin="round"/>
<path d="M54.0203 49.6493C55.6539 49.6493 56.9782 48.325 56.9782 46.6915C56.9782 45.0579 55.6539 43.7336 54.0203 43.7336C52.3868 43.7336 51.0625 45.0579 51.0625 46.6915C51.0625 48.325 52.3868 49.6493 54.0203 49.6493Z" fill="#303131"/>
<path d="M77.2604 49.6493C78.894 49.6493 80.2183 48.325 80.2183 46.6915C80.2183 45.0579 78.894 43.7336 77.2604 43.7336C75.6269 43.7336 74.3026 45.0579 74.3026 46.6915C74.3026 48.325 75.6269 49.6493 77.2604 49.6493Z" fill="#303131"/>
<path d="M58.331 57.2113C58.868 56.2237 61.4017 57.7296 65.5426 57.7908C70.0805 57.8602 72.5159 56.1339 73.0831 57.1582C73.6125 58.1213 71.9184 60.4802 70.4662 61.6473C70.2734 61.8024 69.4755 62.4268 68.2767 62.8675C67.2367 63.2511 66.3821 63.3164 66.0342 63.3287C65.5464 63.3532 64.6463 63.345 63.595 63.0267C61.1672 62.2921 59.8134 60.472 59.5071 60.0435C58.8415 59.1089 57.968 57.8806 58.331 57.2113Z" fill="#F58E85" stroke="#303131" stroke-width="3.4101" stroke-linecap="round" stroke-linejoin="round"/>
<path d="M18.549 79.2317C17.4253 81.8184 17.0436 83.6789 16.9058 84.4368C16.6143 86.0323 16.6673 86.785 16.715 87.1825C16.7998 87.9193 16.9482 89.0748 17.8387 90.1985C18.2946 90.7763 19.0419 91.7675 20.2451 91.8364C21.2734 91.8947 22.0049 91.2427 22.0632 91.1897C22.6092 90.6915 22.7682 90.0819 22.8371 89.8169C22.9166 89.5041 22.9272 89.0536 22.9007 88.1472C22.8848 87.6543 22.8742 87.315 22.853 86.9493C22.8318 86.5782 22.8 86.3132 22.8 86.2708C22.5774 83.9439 23.7488 80.8272 23.7488 80.8272C24.634 78.4685 25.8319 76.6027 25.8319 76.6027C26.6429 75.3412 27.3266 74.5779 27.0457 73.8358C26.8655 73.3641 26.3619 73.1202 25.3601 72.6326C24.353 72.1396 23.8495 71.917 23.3778 71.9435C22.6251 71.9912 22.0738 72.622 20.3565 75.7705C19.4024 77.5197 18.92 78.3942 18.5596 79.2317H18.549Z" fill="#FFA295" stroke="#303131" stroke-width="3.1001" stroke-linecap="round" stroke-linejoin="round"/>
<path d="M112.882 73.9158C115.427 72.7073 116.937 71.5518 117.541 71.0695C118.808 70.0571 119.264 69.4528 119.492 69.1242C119.911 68.5093 120.557 67.5446 120.626 66.1135C120.663 65.3767 120.754 64.1417 119.89 63.2989C119.153 62.5833 118.172 62.5886 118.093 62.5886C117.356 62.6045 116.831 62.965 116.609 63.1187C116.344 63.2989 116.036 63.6328 115.464 64.3325C115.151 64.7141 114.934 64.9739 114.711 65.2654C114.488 65.5569 114.329 65.7795 114.303 65.8166C112.941 67.7142 110.009 69.2991 110.009 69.2991C107.794 70.497 105.674 71.1119 105.663 71.1172C105.663 71.1172 104.348 71.5147 103.421 72.3522C103.325 72.437 103.267 72.5112 103.177 72.6119C101.619 74.3505 100.654 75.5537 100.654 75.5537C99.4773 77.0272 98.8889 77.764 98.9472 77.8806C99.3448 78.6704 103.856 77.1545 109.246 75.3417C110.253 75.0024 111.425 74.6049 112.877 73.9105L112.882 73.9158Z" fill="#FFA295" stroke="#303131" stroke-width="3.1001" stroke-linecap="round" stroke-linejoin="round"/>
<path d="M69.4062 21.3708C69.9681 20.4061 79.0267 5.42686 94.9706 5.41096C102.953 5.40036 108.635 9.14783 110.581 10.5737C121.622 18.6676 123.514 33.5037 121.818 43.368C120.524 50.8788 116.894 57.0009 108.858 65.9641C100.186 75.6322 85.6735 89.403 63.1304 101.727L29.4986 76.0086C29.4986 76.0086 10.3796 62.1583 7.41134 46.6649C6.81768 43.5588 5.0261 38.0993 5.85299 30.9913C6.26643 27.4558 7.49615 17.9202 15.5211 10.0489C17.5565 8.05062 24.6486 1.63169 35.6419 0.910819C44.7535 0.31186 51.3951 3.95862 54.427 5.67599C63.3424 10.7274 67.7207 18.111 69.4062 21.3708Z" stroke="#303131" stroke-width="3.4101" stroke-linecap="round" stroke-linejoin="round"/>
<path d="M15.342 66.4631L16.3544 62.5725L41.9507 71.3025L67.5522 80.0377L40.9383 75.193L14.3297 70.3537L15.342 66.4631Z" fill="#76D3EF" stroke="#303131" stroke-width="3.1001" stroke-linecap="round" stroke-linejoin="round"/>
<path d="M111.419 65.0108C109.856 67.0038 108.292 68.9915 106.728 70.9845C100.739 72.4369 94.7544 73.8945 88.7648 75.3468L64.5733 81.2198L87.2224 70.8838C95.8887 67.1628 104.55 63.4366 113.216 59.7156C114.096 59.4082 114.621 59.3923 114.796 59.6626C115.156 60.2192 114.032 62.0054 111.414 65.0108H111.419Z" fill="#76D3EF" stroke="#303131" stroke-width="3.1001" stroke-linecap="round" stroke-linejoin="round"/>
<path d="M66.3173 82.6511C63.1264 82.667 60.4444 80.9337 60.3754 78.8135C60.3065 76.6562 63.1847 74.6261 66.3279 74.6155C69.1902 74.6102 72.132 76.6774 72.1532 78.7128C72.1744 80.7959 69.4446 82.6352 66.3173 82.6511Z" fill="#F2C639" stroke="#303131" stroke-width="3.1001" stroke-linecap="round" stroke-linejoin="round"/>
</g>
<path d="M66.908 49.2267C68.4121 51.2177 66.6606 52.3242 66.6606 52.3242" stroke="#303131" stroke-width="3.4101" stroke-linecap="round" stroke-linejoin="round"/>
<defs>
<clipPath id="clip0_222_706">
<rect width="123.709" height="122.479" fill="white" transform="translate(0.145584)"/>
</clipPath>
</defs>
</svg>
