<svg width="891" height="762" viewBox="0 0 891 762" fill="none" xmlns="http://www.w3.org/2000/svg">
<path d="M884.24 311.238C881.432 314.46 858.527 307.282 854.284 308.972C850.041 310.663 838.332 332.708 835.429 332.389C832.526 332.07 831.282 307.792 828.315 303.198C825.348 298.604 800.496 296.658 800.241 292.511C799.986 288.364 824.136 280.197 825.795 276.719C827.454 273.242 824.04 250.4 827.294 246.699C830.548 242.999 846.372 266.479 850.2 266.128C854.06 265.777 875.435 254.962 879.199 258.28C882.964 261.598 866.502 282.621 867.81 286.099C869.118 289.576 887.079 308.047 884.24 311.269V311.238Z" fill="#FFD13C" stroke="#303131" stroke-width="11" stroke-linecap="round" stroke-linejoin="round"/>
<path d="M596.544 88.1307C592.652 89.9491 574.595 74.1576 570.033 74.0299C565.471 73.9023 545.883 89.343 543.363 87.8755C540.843 86.408 549.456 63.6936 548.595 58.2703C547.733 52.8469 525.753 41.1069 527.188 37.183C528.624 33.259 554.018 35.524 556.953 33.0038C559.856 30.5154 565.918 8.21579 570.384 6.11025C574.85 4.03661 579.891 31.8872 583.56 33.1314C587.228 34.3756 611.155 33.0357 613.261 37.5977C615.366 42.1597 591.854 54.7929 591.631 58.4617C591.408 62.1304 600.436 86.3123 596.576 88.0988L596.544 88.1307Z" fill="#FFD13C" stroke="#303131" stroke-width="11" stroke-linecap="round" stroke-linejoin="round"/>
<path d="M90.0004 347.367C87.193 350.59 64.2873 343.412 60.0443 345.102C55.8013 346.793 44.0932 368.838 41.1901 368.519C38.287 368.2 37.0428 343.922 34.0759 339.328C31.109 334.734 6.25723 332.788 6.00201 328.641C5.74679 324.494 29.8967 316.327 31.5556 312.849C33.2146 309.372 29.801 286.53 33.055 282.829C36.3091 279.129 52.1325 302.609 55.9608 302.258C59.789 301.907 81.1954 291.092 84.9598 294.41C88.7243 297.728 72.2628 318.751 73.5708 322.229C74.8788 325.674 92.8397 344.177 90.0004 347.399V347.367Z" fill="#FFD13C" stroke="#303131" stroke-width="11" stroke-linecap="round" stroke-linejoin="round"/>
<path d="M465.808 595.695C440.478 672.579 422.357 728.057 419.965 737.309C419.678 738.394 418.689 742.477 415.275 746.592C414.127 747.964 409.979 752.845 402.482 754.951C397.761 756.291 393.869 755.78 386.053 754.791C373.994 753.26 365.763 750.038 360.85 747.677C356.639 745.667 354.501 744.646 352.938 742.669C348.6 737.181 349.812 728.408 354.884 723.368C359.989 718.327 368.092 718.008 374.983 717.753C381.523 717.498 381.842 718.71 384.681 718.072C393.422 716.19 394.89 703.971 402.036 678.705C403.854 672.324 401.589 680.778 411.925 646.515C416.392 631.777 418.625 624.28 420.188 618.729C422.549 610.243 425.739 598.184 429.025 583.349" fill="#B5A9FF"/>
<path d="M465.808 595.695C440.478 672.579 422.357 728.057 419.965 737.309C419.678 738.394 418.689 742.477 415.275 746.592C414.127 747.964 409.979 752.845 402.482 754.951C397.761 756.291 393.869 755.78 386.053 754.791C373.994 753.26 365.763 750.038 360.85 747.677C356.639 745.667 354.501 744.646 352.938 742.669C348.6 737.181 349.812 728.408 354.884 723.368C359.989 718.327 368.092 718.008 374.983 717.753C381.523 717.498 381.842 718.71 384.681 718.072C393.422 716.19 394.89 703.971 402.036 678.705C403.854 672.324 401.589 680.778 411.925 646.515C416.392 631.777 418.625 624.28 420.188 618.729C422.549 610.243 425.739 598.184 429.025 583.349" stroke="#303131" stroke-width="11" stroke-linecap="round" stroke-linejoin="round"/>
<path d="M629.434 459.123C705.936 435.324 761.126 418.288 770.346 416.087C771.399 415.831 775.482 414.906 779.598 411.62C780.97 410.504 785.882 406.484 788.084 399.083C789.487 394.425 789.041 390.565 788.211 382.813C786.903 370.849 783.841 362.619 781.608 357.738C779.693 353.526 778.705 351.389 776.759 349.794C771.399 345.423 762.69 346.444 757.649 351.389C752.577 356.366 752.13 364.373 751.779 371.2C751.428 377.676 752.609 377.995 751.939 380.803C749.929 389.448 737.838 390.692 712.699 397.328C706.35 399.019 714.741 396.913 680.669 406.612C666.026 410.791 658.561 412.896 653.042 414.332C644.62 416.533 632.625 419.468 617.886 422.499" fill="#B5A9FF"/>
<path d="M629.434 459.123C705.936 435.324 761.126 418.288 770.346 416.087C771.399 415.831 775.482 414.906 779.598 411.62C780.97 410.504 785.882 406.484 788.084 399.083C789.487 394.425 789.041 390.565 788.211 382.813C786.903 370.849 783.841 362.619 781.608 357.738C779.693 353.526 778.705 351.389 776.759 349.794C771.399 345.423 762.69 346.444 757.649 351.389C752.577 356.366 752.13 364.373 751.779 371.2C751.428 377.676 752.609 377.995 751.939 380.803C749.929 389.448 737.838 390.692 712.699 397.328C706.35 399.019 714.741 396.913 680.669 406.612C666.026 410.791 658.561 412.896 653.042 414.332C644.62 416.533 632.625 419.468 617.886 422.499" stroke="#303131" stroke-width="11" stroke-linecap="round" stroke-linejoin="round"/>
<path d="M459.181 435.816C647.627 320.878 782.52 198.401 760.474 162.255C738.428 126.109 567.79 189.983 379.344 304.92C190.898 419.858 56.0048 542.335 78.051 578.481C100.097 614.627 270.735 550.754 459.181 435.816Z" stroke="#303131" stroke-width="11" stroke-linecap="round" stroke-linejoin="round"/>
<path d="M150.423 444.349C70.8267 513.896 28.1735 572.883 44.6669 599.904C72.8684 646.194 263.675 581.305 470.816 454.973C677.957 328.64 823.048 188.717 794.846 142.427C777.077 113.269 694.769 128.231 584.483 174.904" fill="#FFD13C"/>
<path d="M150.423 444.349C70.8267 513.896 28.1735 572.883 44.6669 599.904C72.8684 646.194 263.675 581.305 470.816 454.973C677.957 328.64 823.048 188.717 794.846 142.427C777.077 113.269 694.769 128.231 584.483 174.904" stroke="#303131" stroke-width="11" stroke-linecap="round" stroke-linejoin="round"/>
<path d="M160.313 468.851C96.8279 521.713 62.0226 563.472 72.1994 580.125C91.1493 611.198 259.274 543.246 447.72 428.335C636.166 313.423 773.568 195.066 754.65 163.962C743.899 146.32 685.072 160.58 601.743 197.236" fill="#303131"/>
<path d="M160.313 468.851C96.8279 521.713 62.0226 563.472 72.1994 580.125C91.1493 611.198 259.274 543.246 447.72 428.335C636.166 313.423 773.568 195.066 754.65 163.962C743.899 146.32 685.072 160.58 601.743 197.236" stroke="#303131" stroke-width="11" stroke-linecap="round" stroke-linejoin="round"/>
<path d="M661.229 361.504C661.963 216.158 544.722 97.7372 399.408 97.0034C254.094 96.2697 135.705 213.542 135.003 358.888C134.429 477.564 219.639 574.451 311.103 608.65C353.15 624.378 387.955 623.708 396.792 623.389C506.759 619.433 660.4 525.418 661.197 361.504H661.229Z" fill="#7A65FD" stroke="#303131" stroke-width="11" stroke-linecap="round" stroke-linejoin="round"/>
<path d="M186.312 424C180.857 427.924 175.691 426.039 173.458 420.679C161.941 393.18 159.325 366.318 162.675 340.158C164.461 326.153 167.556 312.691 170.331 299.1C170.874 296.452 172.309 294.06 173.873 292.178C178.147 287.041 182.895 288.652 185 296.5C185 301.5 183.866 305.692 182.906 311.5C180.481 326.175 179.522 328.921 176.906 343.5C173.939 359.93 174.93 388.326 182.906 406C186.351 413.625 189.406 416.5 186.406 424H186.312Z" fill="#B5A9FF"/>
<path d="M325.687 382.943C334.076 384.73 342.326 379.378 344.113 370.989C345.901 362.6 340.549 354.35 332.16 352.563C323.771 350.775 315.521 356.127 313.734 364.516C311.946 372.905 317.298 381.155 325.687 382.943Z" fill="#303131"/>
<path d="M436.187 327.257C444.465 328.542 452.218 322.872 453.503 314.593C454.788 306.314 449.118 298.562 440.839 297.277C432.56 295.992 424.808 301.662 423.523 309.941C422.238 318.219 427.908 325.972 436.187 327.257Z" fill="#303131"/>
<path d="M384.883 360C384.883 360 385.059 372.437 388.169 372.935C391.281 373.418 396.546 370.716 396.546 370.716" stroke="#303131" stroke-width="11" stroke-linecap="round" stroke-linejoin="round"/>
<path d="M378.036 406.272C378.173 400.734 393.231 400.678 412.211 390.42C433.018 379.204 440.062 365.698 445.041 368.581C449.704 371.314 447.523 385.625 443.654 394.269C443.14 395.405 440.962 400.097 436.545 405.005C432.713 409.272 428.96 411.709 427.425 412.669C425.256 413.998 421.163 416.262 415.612 417.581C402.832 420.636 392.408 416.353 390.027 415.307C384.803 413.018 377.952 410.031 378.036 406.272Z" fill="#B5A9FF" stroke="#303131" stroke-width="11" stroke-linecap="round" stroke-linejoin="round"/>
<path d="M190.179 261.088C191.286 261.036 193.658 264.623 193.932 267.227C194.59 273.719 190.343 280.629 186.563 279.954C183.056 279.344 179.083 278.219 179.001 272.562C178.919 266.584 183.128 260.028 190.151 261.12L190.179 261.088Z" fill="#B5A9FF"/>
<path d="M672.375 309.819C672.662 307.905 672.247 306.055 672.247 306.055L672.375 309.819Z" fill="#F8E6A2"/>
<path d="M672.375 309.819C672.662 307.905 672.247 306.055 672.247 306.055" stroke="#303131" stroke-width="11" stroke-linecap="round" stroke-linejoin="round"/>
<path fill-rule="evenodd" clip-rule="evenodd" d="M594.14 195.943C664.241 309.195 634.693 460.848 522.993 543.398C427.844 613.717 302.257 612.334 212.929 548.413C303.182 631.723 441.655 645.056 545.115 566.649C662.038 480.238 695.741 331.517 609.933 215.41C604.951 208.668 599.677 202.175 594.14 195.943Z" fill="#443D97"/>
<path d="M668.196 314.06C671.067 313.741 672.088 311.732 672.375 309.817L668.196 314.06Z" fill="#F8E6A2"/>
<path d="M668.196 314.06C671.067 313.741 672.088 311.732 672.375 309.817" stroke="#303131" stroke-width="11" stroke-linecap="round" stroke-linejoin="round"/>
<path d="M660.953 282.765L660.538 280.947C610.324 329.821 564.385 364.881 529.452 388.967C495.062 412.703 463.989 430.855 441.019 444.254C418.305 457.525 386.371 476.092 343.782 496.924C312.071 512.429 270.247 531.219 219.555 549.691C228.136 557.379 236.75 565.036 245.332 572.724C289.325 553.774 326.555 535.749 355.968 520.692C383.5 506.591 412.18 491.852 447.878 470.031C448.835 469.457 467.434 457.589 504.632 433.918C516.979 426.07 528.718 418.573 544.032 407.79C555.708 399.591 564.289 393.083 569.075 389.478C609.973 358.533 662.452 318.496 668.227 314.061" fill="#FCD61D"/>
<path d="M660.953 282.765L660.538 280.947C610.324 329.821 564.385 364.881 529.452 388.967C495.062 412.703 463.989 430.855 441.019 444.254C418.305 457.525 386.371 476.092 343.782 496.924C312.071 512.429 270.247 531.219 219.555 549.691C228.136 557.379 236.75 565.036 245.332 572.724C289.325 553.774 326.555 535.749 355.968 520.692C383.5 506.591 412.18 491.852 447.878 470.031C448.835 469.457 467.434 457.589 504.632 433.918C516.979 426.07 528.718 418.573 544.032 407.79C555.708 399.591 564.289 393.083 569.075 389.478C609.973 358.533 662.452 318.496 668.227 314.061" stroke="#303131" stroke-width="11" stroke-linecap="round" stroke-linejoin="round"/>
<path d="M669.438 313.584L675.021 310.075" stroke="#303131" stroke-width="11" stroke-linecap="round" stroke-linejoin="round"/>
<path d="M247.118 564.56C242.652 566.347 238.026 568.101 233.273 569.824C229.062 571.355 224.946 572.791 220.895 574.131C218.821 568.931 216.747 563.731 214.674 558.531C215.184 558.307 215.982 557.924 216.971 557.542C218.279 556.999 219.268 556.648 219.746 556.489C222.33 555.564 222.458 555.436 225.616 554.319C227.435 553.65 228.711 553.235 231.965 552.086C234.708 551.161 237.835 550.077 241.312 548.864C243.258 554.096 245.204 559.328 247.15 564.528L247.118 564.56Z" fill="#FFD13C"/>
<path d="M673.056 283.09L657.569 294.01C656.143 295.016 655.803 296.986 656.808 298.412L662.489 306.468C663.494 307.893 665.465 308.234 666.89 307.229L682.377 296.308C683.802 295.303 684.143 293.333 683.138 291.907L677.457 283.851C676.452 282.425 674.481 282.085 673.056 283.09Z" fill="#FCD61D"/>
<path d="M667.047 299.703L667.015 299.703L667.009 300.851L667.041 300.851L667.047 299.703Z" fill="#F8E6A2"/>
<path d="M668.658 281.968L660.998 289.556L663.445 292.027L671.105 284.438L668.658 281.968Z" fill="#FCD61D"/>
<path d="M149.306 565.642C130.005 567.109 117.053 565.387 111.789 564.589C100.782 562.898 95.9972 560.825 93.5088 559.644C88.9149 557.411 81.7369 553.838 76.4411 545.544C73.6976 541.269 68.9441 534.186 71.2411 526.243C73.1871 519.448 79.0571 516.13 79.5356 515.875C84.0019 513.45 88.3406 513.801 90.191 513.96C92.3922 514.152 95.3591 515.077 101.197 517.31C104.387 518.522 106.525 519.352 108.886 520.341C111.214 521.33 112.905 522.127 113.192 522.223C127.804 528.923 150.677 528.348 150.677 528.348C168 527.934 182.803 524.36 182.803 524.36C185.227 523.818 189.151 523.308 192.98 525.062C196.712 526.785 197.861 529.497 202.997 536.93C210.239 547.426 211.674 547.458 211.355 549.404C210.462 555.178 197.669 557.698 175.848 561.814C166.692 563.536 159.546 564.908 149.306 565.674V565.642Z" fill="#B5A9FF" stroke="#303131" stroke-width="11" stroke-linecap="round" stroke-linejoin="round"/>
<path d="M697.449 232.489C708.998 216.92 714.453 205.053 716.559 200.172C720.993 189.931 721.791 184.827 722.11 182.051C722.684 176.979 723.482 169.003 719.302 160.103C717.133 155.509 713.688 147.725 705.744 145.396C698.949 143.418 693.015 146.608 692.568 146.863C688.134 149.32 686.124 153.212 685.263 154.871C684.242 156.817 683.444 159.847 682.232 165.973C681.562 169.322 681.084 171.587 680.669 174.076C680.254 176.596 680.031 178.446 679.967 178.734C677.83 194.653 665.133 213.698 665.133 213.698C655.53 228.118 644.619 238.742 644.619 238.742C642.865 240.496 640.345 243.559 639.77 247.738C639.228 251.789 640.919 254.214 644.46 262.541C649.469 274.249 648.735 275.493 650.553 276.29C655.913 278.619 664.877 269.144 679.999 252.874C686.348 246.047 691.324 240.719 697.449 232.489Z" fill="#B5A9FF" stroke="#303131" stroke-width="11" stroke-linecap="round" stroke-linejoin="round"/>
<circle cx="398" cy="358" r="258.5" stroke="#303131" stroke-width="11"/>
<path d="M637 310.5L660.5 288.5L666.5 282L680 271L687.913 291.341L671.585 305.8L646.728 323.442L637 310.5Z" fill="#FFD13C"/>
<path d="M208.5 560L217 556.5L250.5 544L259.5 560.5L248 566L215 577.5L208.5 560Z" fill="#FCD61D"/>
<path d="M457.184 265.579C450.543 263.891 438.186 261.777 424.65 265.633C411.888 269.27 403.887 276.558 399.757 281.087" stroke="#303131" stroke-width="12" stroke-linecap="round" stroke-linejoin="round"/>
<path d="M277.368 356.127C279.265 350.044 283.608 339.22 293.265 330.336C302.371 321.96 312.055 319.123 317.662 318.027" stroke="#303131" stroke-width="12" stroke-linecap="round" stroke-linejoin="round"/>
</svg>
