<svg width="574" height="395" viewBox="0 0 574 395" fill="none" xmlns="http://www.w3.org/2000/svg">
<path d="M467.814 278.878C440.219 280.801 442.503 274.248 414.908 276.172L434.988 310.441L447.854 321.683L467.814 278.878Z" fill="#94B259" stroke="#303131" stroke-width="6.61322" stroke-linecap="round" stroke-linejoin="round"/>
<path d="M300.319 86.9143L496.912 107.776L541.04 49.3392L526.311 36.233C526.311 36.233 458.796 46.273 448.756 37.3753L439.076 22.7661L426.211 11.5236L422.784 8.75806C421.161 7.43541 419.357 6.35325 417.433 5.45145C412.684 4.06868 408.475 4.1288 406.311 4.30916C403.605 4.48952 398.736 4.85024 393.926 8.03661C392.183 9.17889 390.319 10.8021 385.569 17.9564C380.399 25.7119 379.557 28.3572 376.371 33.1668C374.567 35.8723 371.982 40.5015 368.315 44.3492C366.271 46.4534 363.385 47.7159 360.379 47.9564C332.784 49.8803 303.385 51.2029 275.79 53.0666L281.682 57.8161L294.548 69.0586L300.319 86.9143Z" fill="#94B259" stroke="#303131" stroke-width="6.61322" stroke-linecap="round" stroke-linejoin="round"/>
<path d="M173.105 31.4838L175.51 40.0208C180.199 45.1912 186.151 49.9407 194.688 52.7062C202.203 55.111 204.307 53.6681 239.297 53.127C254.387 52.8866 266.832 53.0068 274.948 53.127C275.009 53.7282 290.64 67.1952 290.64 67.1952L274.888 97.135L20.5198 331.544L4.2874 316.453C4.04692 302.265 3.80644 289.219 3.9868 281.283C4.40764 261.924 4.64812 252.245 8.91665 246.353C15.59 237.215 22.3836 240.582 34.2272 228.738C38.0749 224.89 44.6882 218.097 47.5739 207.095C48.4757 203.548 51.602 190.983 44.8685 178.417C41.3815 171.925 37.5339 173.367 34.7082 171.383L19.0168 157.375V60.582C29.1772 60.8826 43.6661 61.0028 61.101 60.0409C83.7663 58.8385 95.0689 58.2373 102.945 55.0509C131.682 43.3876 132.704 14.8906 149.598 14.8906H150.92C152.904 14.8906 154.828 15.5519 156.452 16.7543L157.413 17.4758L173.105 31.4838Z" fill="#8F209A" stroke="#303131" stroke-width="6.61322" stroke-linecap="round" stroke-linejoin="round"/>
<path d="M536.892 180.582C536.471 181.363 536.772 182.325 536.952 182.746C537.554 184.489 539.117 185.391 540.139 185.993C544.227 188.397 546.271 189.66 547.293 190.502C549.097 192.065 550.84 193.568 552.283 196.093C552.824 197.055 553.305 198.197 554.507 198.738C555.529 199.159 557.032 199.159 557.874 198.317C558.836 197.295 558.415 195.672 558.115 194.409C557.874 193.327 557.333 191.944 556.01 190.261C555.469 189.6 554.808 188.878 551.141 186.113C549.578 184.97 550.299 185.512 545.55 182.145C543.445 180.642 542.784 180.161 541.642 179.86C540.199 179.439 537.674 179.259 536.892 180.582Z" fill="#B0A8CF" stroke="#303131" stroke-width="6.61322" stroke-linecap="round" stroke-linejoin="round"/>
<path d="M73.7861 307.797C74.6278 346.093 75.1689 373.689 74.9885 378.198C74.9885 378.739 74.8683 380.723 75.8302 383.067C76.1308 383.849 77.3332 386.614 80.3994 388.598C82.3232 389.861 84.1268 390.162 87.734 390.823C93.3252 391.785 97.4735 391.484 99.9985 391.063C102.163 390.703 103.245 390.582 104.207 389.861C106.912 387.997 107.574 383.849 105.95 380.843C104.387 377.837 100.78 376.635 97.714 375.552C94.8282 374.53 94.5276 375.011 93.3252 374.35C89.6579 372.306 90.6799 366.534 90.9204 354.15C90.9805 351.023 90.8603 355.172 90.8603 338.218C90.8603 330.943 90.8603 327.216 90.9204 324.51C91.0406 320.362 91.221 314.41 91.8222 307.256" fill="#EB93F4"/>
<path d="M73.7861 307.797C74.6278 346.093 75.1689 373.689 74.9885 378.198C74.9885 378.739 74.8683 380.723 75.8302 383.067C76.1308 383.849 77.3332 386.614 80.3994 388.598C82.3232 389.861 84.1268 390.162 87.734 390.823C93.3252 391.785 97.4735 391.484 99.9985 391.063C102.163 390.703 103.245 390.582 104.207 389.861C106.912 387.997 107.574 383.849 105.95 380.843C104.387 377.837 100.78 376.635 97.714 375.552C94.8282 374.53 94.5276 375.011 93.3252 374.35C89.6579 372.306 90.6799 366.534 90.9204 354.15C90.9805 351.023 90.8603 355.172 90.8603 338.218C90.8603 330.943 90.8603 327.216 90.9204 324.51C91.0406 320.362 91.221 314.41 91.8222 307.256" stroke="#303131" stroke-width="6.61322" stroke-linecap="round" stroke-linejoin="round"/>
<path d="M213.024 309.961C213.806 346.274 214.347 372.486 214.167 376.755C214.167 377.235 214.046 379.159 214.948 381.324C215.249 382.045 216.391 384.69 219.277 386.614C221.141 387.817 222.824 388.117 226.251 388.718C231.541 389.62 235.509 389.32 237.854 388.959C239.898 388.658 240.92 388.478 241.882 387.817C244.407 386.013 245.068 382.105 243.565 379.28C242.062 376.454 238.636 375.252 235.75 374.229C232.984 373.268 232.744 373.749 231.602 373.087C228.115 371.103 229.077 365.692 229.317 353.909C229.377 350.903 229.257 354.871 229.257 338.819C229.257 331.905 229.257 328.418 229.317 325.773C229.437 321.805 229.618 316.214 230.159 309.42" fill="#EB93F4"/>
<path d="M213.024 309.961C213.806 346.274 214.347 372.486 214.167 376.755C214.167 377.235 214.046 379.159 214.948 381.324C215.249 382.045 216.391 384.69 219.277 386.614C221.141 387.817 222.824 388.117 226.251 388.718C231.541 389.62 235.509 389.32 237.854 388.959C239.898 388.658 240.92 388.478 241.882 387.817C244.407 386.013 245.068 382.105 243.565 379.28C242.062 376.454 238.636 375.252 235.75 374.229C232.984 373.268 232.744 373.749 231.602 373.087C228.115 371.103 229.077 365.692 229.317 353.909C229.377 350.903 229.257 354.871 229.257 338.819C229.257 331.905 229.257 328.418 229.317 325.773C229.437 321.805 229.618 316.214 230.159 309.42" stroke="#303131" stroke-width="6.61322" stroke-linecap="round" stroke-linejoin="round"/>
<path d="M351 308.938C350.158 346.212 349.617 373.086 349.797 377.475C349.797 378.016 349.918 379.939 349.016 382.164C348.715 382.946 347.573 385.651 344.567 387.575C342.703 388.777 340.9 389.078 337.413 389.679C331.942 390.641 327.974 390.28 325.509 389.919C323.405 389.619 322.322 389.438 321.361 388.777C318.775 386.913 318.114 382.885 319.677 380C321.24 377.114 324.727 375.851 327.673 374.829C330.499 373.807 330.799 374.348 331.942 373.687C335.489 371.643 334.347 354.99 334.347 338.517C334.347 331.423 334.346 327.815 334.286 325.17C334.166 321.142 333.986 315.37 333.445 308.396" fill="#E9FFC5"/>
<path d="M351 308.938C350.158 346.212 349.617 373.086 349.797 377.475C349.797 378.016 349.918 379.939 349.016 382.164C348.715 382.946 347.573 385.651 344.567 387.575C342.703 388.777 340.9 389.078 337.413 389.679C331.942 390.641 327.974 390.28 325.509 389.919C323.405 389.619 322.322 389.438 321.361 388.777C318.775 386.913 318.114 382.885 319.677 380C321.24 377.114 324.727 375.851 327.673 374.829C330.499 373.807 330.799 374.348 331.942 373.687C335.489 371.643 334.347 354.99 334.347 338.517C334.347 331.423 334.346 327.815 334.286 325.17C334.166 321.142 333.986 315.37 333.445 308.396" stroke="#303131" stroke-width="6.61322" stroke-linecap="round" stroke-linejoin="round"/>
<path d="M494.206 313.147C493.425 348.017 492.944 373.147 493.064 377.235C493.064 377.716 493.184 379.52 492.283 381.624C491.982 382.345 490.9 384.87 488.074 386.674C486.331 387.816 484.647 388.117 481.341 388.658C476.231 389.56 472.503 389.259 470.219 388.898C468.235 388.598 467.213 388.478 466.371 387.816C463.906 386.073 463.305 382.345 464.748 379.64C466.19 376.934 469.437 375.792 472.263 374.83C474.908 373.928 475.148 374.349 476.231 373.748C479.537 371.884 478.455 356.253 478.455 340.862C478.455 334.249 478.455 330.882 478.395 328.357C478.335 324.57 478.094 319.219 477.613 312.666" fill="#E9FFC5"/>
<path d="M494.206 313.147C493.425 348.017 492.944 373.147 493.064 377.235C493.064 377.716 493.184 379.52 492.283 381.624C491.982 382.345 490.9 384.87 488.074 386.674C486.331 387.816 484.647 388.117 481.341 388.658C476.231 389.56 472.503 389.259 470.219 388.898C468.235 388.598 467.213 388.478 466.371 387.816C463.906 386.073 463.305 382.345 464.748 379.64C466.19 376.934 469.437 375.792 472.263 374.83C474.908 373.928 475.148 374.349 476.231 373.748C479.537 371.884 478.455 356.253 478.455 340.862C478.455 334.249 478.455 330.882 478.395 328.357C478.335 324.57 478.094 319.219 477.613 312.666" stroke="#303131" stroke-width="6.61322" stroke-linecap="round" stroke-linejoin="round"/>
<path d="M24.2471 65.5723L37.1128 76.8147" stroke="#303131" stroke-width="6.61322" stroke-linecap="round" stroke-linejoin="round"/>
<path d="M532.925 150.881C525.53 140.901 532.023 133.807 532.564 92.5645" stroke="#303131" stroke-width="6.61322" stroke-linecap="round" stroke-linejoin="round"/>
<path d="M94.4668 316.452C119.296 306.592 121.04 283.626 136.431 283.386C147.012 283.205 152.242 290.78 156.811 298.776C161.381 306.772 171.24 326.432 178.936 327.814C194.447 330.52 272.423 316.452 272.423 316.452C272.423 316.452 272.543 311.341 272.663 303.586C272.964 283.446 272.783 282.905 273.024 274.728C273.445 259.939 273.986 248.817 273.986 248.817C274.587 236.372 275.008 232.584 272.423 228.255C269.236 222.905 265.509 223.506 258.174 217.915C253.425 214.308 242.302 205.77 241.34 193.626C240.318 181.061 250.839 171.141 253.244 168.857C258.835 163.626 261.841 163.927 266.17 160.38C276.27 152.203 276.511 136.753 276.511 118.837C276.451 100.139 276.09 83.1253 275.549 68.0352L94.4668 316.452Z" fill="#8F209A" stroke="#303131" stroke-width="6.61322" stroke-linecap="round" stroke-linejoin="round"/>
<path d="M34.7678 74.5906V171.444L49.5574 180.102C52.383 182.085 57.1325 186.053 60.6195 192.546C67.353 205.112 64.2868 217.617 63.3249 221.224C60.4391 232.166 53.8259 238.959 49.9782 242.867C38.1345 254.711 31.341 251.344 24.6676 260.482C20.3991 266.374 20.1586 276.053 19.7378 295.412C19.5574 303.348 19.7979 316.394 20.0384 330.582C19.6777 334.971 53.4051 333.107 66.7517 333.167C99.6375 333.348 103.846 333.107 110.159 330.582C134.988 320.723 136.732 297.757 152.122 297.516C173.225 297.155 173.164 327.877 188.615 330.582C204.126 333.288 288.114 330.582 288.114 330.582C288.114 330.582 288.234 325.472 288.355 317.717C288.655 297.576 288.475 297.035 288.715 288.859C289.136 274.069 289.677 262.947 289.677 262.947C290.279 250.502 290.699 246.715 288.114 242.386C284.928 237.035 281.2 237.637 273.866 232.045C269.116 228.438 257.994 219.901 257.032 207.757C256.01 195.192 266.531 185.272 268.936 182.987C274.527 177.757 277.533 178.057 281.862 174.51C291.962 166.334 292.202 150.883 292.202 132.967C292.142 107.897 291.481 85.8331 290.639 67.256C282.463 67.1357 270.078 67.0155 254.988 67.256C219.998 67.7369 217.894 69.2399 210.379 66.8351C183.024 57.9974 182.122 29.0195 165.289 29.0195C148.455 29.0195 147.433 57.5165 118.635 69.1798C110.82 72.3662 99.4571 72.9674 76.7918 74.1698C59.357 75.0115 44.868 74.8912 34.7678 74.5906Z" fill="#DB3FEB" stroke="#303131" stroke-width="6.61322" stroke-linecap="round" stroke-linejoin="round"/>
<path d="M210.206 195.843C206.9 198.73 201.879 198.392 198.991 195.086C196.103 191.78 196.442 186.759 199.748 183.871C203.054 180.984 208.074 181.322 210.962 184.628C213.85 187.934 213.511 192.955 210.206 195.843Z" fill="#303131"/>
<path d="M146.938 198.457C143.556 201.093 138.679 200.488 136.043 197.106C133.407 193.725 134.012 188.847 137.394 186.212C140.775 183.576 145.653 184.181 148.289 187.562C150.924 190.944 150.32 195.822 146.938 198.457Z" fill="#303131"/>
<path d="M177.563 198.822C177.563 198.822 181.066 205.597 179.399 206.909C177.725 208.213 173.874 208.519 173.874 208.519" stroke="#303131" stroke-width="6.61322" stroke-linecap="round" stroke-linejoin="round"/>
<path d="M119.233 178.019C120.774 174.87 124.042 169.349 130.029 165.345C135.675 161.571 141.168 160.864 144.302 160.752" stroke="#303131" stroke-width="7.21442" stroke-linecap="round" stroke-linejoin="round"/>
<path d="M225.133 165.811C222.77 163.564 218.134 159.806 211.604 158.238C205.448 156.76 200.412 157.903 197.632 158.809" stroke="#303131" stroke-width="7.21442" stroke-linecap="round" stroke-linejoin="round"/>
<path d="M288.716 330.222C294.427 330.222 309.878 330.161 331.762 330.101C352.804 330.041 363.506 329.861 370.6 325.412C377.273 321.143 381.602 311.224 388.576 301.003C395.79 292.646 404.748 289.821 414.608 289.821C422.303 289.58 429.217 291.865 436.792 299.44C447.253 309.961 443.646 319.28 452.243 324.029C458.255 327.336 464.087 327.697 469.858 327.877C493.966 328.478 520.539 325.532 533.585 323.849C534.848 292.346 530.099 254.29 539.297 231.264C539.297 231.264 551.201 229.099 558.776 223.448C568.816 215.993 570.319 198.859 570.379 197.837C570.379 169.52 551.802 172.226 545.79 164.049C538.395 154.069 544.888 146.975 545.429 105.733C545.61 91.2439 544.948 81.4443 544.467 75.8531C543.505 64.7309 542.062 55.5325 540.98 49.4002C514.527 49.8211 471.662 59.5004 461.622 50.6026C458.195 47.5365 455.429 43.8091 455.429 43.8091C455.008 43.268 454.347 42.3662 451.582 38.4584C446.592 31.3642 446.471 30.8832 444.968 29.0195C443.465 27.2159 441.181 24.3903 437.634 22.0456C430.419 17.236 422.483 17.2961 419.297 17.5366C416.592 17.7169 411.722 18.0776 406.912 21.264C405.169 22.4063 403.305 24.0295 398.556 31.1838C393.385 38.9393 392.544 41.5846 389.357 46.3942C387.554 49.0996 384.968 52.5265 381.301 56.3742C379.257 58.4784 376.371 59.7409 373.365 59.9814C345.77 61.9052 318.175 63.8291 290.58 65.6928C290.459 100.202 290.279 134.711 290.159 169.22C285.71 170.242 278.255 172.466 271.161 178.238C268.876 180.102 253.786 192.306 255.47 207.997C256.973 221.945 271.221 234.57 290.46 236.554L288.716 330.222Z" fill="#C2FA67" stroke="#303131" stroke-width="6.61322" stroke-linecap="round" stroke-linejoin="round"/>
<path d="M23.7656 63.4668L33.2045 73.7473" stroke="#303131" stroke-width="6.61322" stroke-linecap="round" stroke-linejoin="round"/>
<path d="M154.047 224.769C154.047 224.769 158.736 230.24 167.875 229.759C177.013 229.218 183.386 222.545 183.386 222.545" stroke="#303131" stroke-width="6.61322" stroke-linecap="round" stroke-linejoin="round"/>
<path d="M44.8693 92.9866C44.3282 94.8503 44.1478 96.4736 44.1478 104.47C44.1478 110.361 44.2681 109.58 44.1478 110.542C43.8472 114.269 43.1258 116.013 44.1478 118.297C44.3883 118.778 45.23 120.762 46.6128 120.822C47.8753 120.882 48.8973 119.259 49.3182 118.538C50.8813 115.892 50.761 113.307 50.4604 107.115C50.4003 105.612 50.1598 100.742 50.8813 95.0307C51.0616 93.5878 51.4224 91.9646 52.6849 90.8824C53.2861 90.3413 54.0677 90.1008 57.9755 89.8604C62.1238 89.6199 63.266 89.8002 64.4083 88.7782C65.1298 88.177 65.8512 87.0347 65.6107 85.9525C65.5506 85.5918 65.25 84.8704 63.5666 84.0287C60.3803 82.4656 57.1939 82.8864 55.8713 83.0668C54.6087 83.2471 52.6849 83.5477 50.5807 84.8103C48.717 85.8924 47.6348 87.2151 47.3342 87.6359C46.733 88.4776 45.6508 89.9806 44.8693 92.9866Z" fill="#CB9BC6"/>
<path d="M47.8743 133.808C47.6338 135.251 46.4314 137.055 44.9885 136.995C43.5456 136.874 42.6438 135.011 42.5837 133.568C42.5236 131.584 44.0867 129.359 45.5897 129.54C47.0326 129.6 48.1749 131.944 47.8743 133.808Z" fill="#CB9BC6"/>
<path d="M278.736 274.009C278.495 275.452 277.293 277.256 275.85 277.196C274.407 277.075 273.505 275.212 273.445 273.769C273.385 271.785 274.948 269.56 276.451 269.741C277.894 269.801 279.036 272.146 278.736 274.009Z" fill="#CB9BC6"/>
<path d="M260.46 237.454C259.918 238.176 260.099 239.138 260.219 239.619C260.58 241.422 262.023 242.565 262.924 243.286C266.652 246.232 268.576 247.735 269.417 248.697C270.319 249.659 272.544 251.763 273.626 254.949C275.369 259.999 273.025 263.787 274.888 264.989C275.91 265.651 277.413 265.11 278.315 264.508C281.021 262.585 280.179 257.414 279.638 254.047C279.217 251.643 278.375 250.08 278.075 249.659C277.654 248.937 277.113 248.156 273.746 244.849C272.363 243.466 272.965 244.128 268.756 240.16C266.832 238.356 266.291 237.815 265.149 237.394C263.826 236.793 261.361 236.252 260.46 237.454Z" fill="#CB9BC6"/>
<path d="M318.234 80.1212C320.098 79.5801 321.661 79.3998 329.597 79.3998C335.429 79.3998 334.647 79.52 335.609 79.3998C339.276 79.0992 341.02 78.3777 343.305 79.3998C343.785 79.6403 345.709 80.5421 345.769 81.9248C345.83 83.2475 344.206 84.2695 343.545 84.6904C340.9 86.3136 338.375 86.1332 332.242 85.8326C330.739 85.7725 325.93 85.532 320.278 86.3136C318.896 86.494 317.272 86.8547 316.25 88.1172C315.769 88.7785 315.469 89.5 315.228 93.4679C314.988 97.6763 315.168 98.8186 314.206 99.9609C313.605 100.682 312.463 101.464 311.441 101.223C311.08 101.163 310.359 100.863 309.517 99.1192C307.954 95.9328 308.375 92.6262 308.555 91.3036C308.735 90.0411 309.036 88.1172 310.299 85.9529C311.381 84.0892 312.703 82.9469 313.064 82.6463C313.846 82.0451 315.289 80.9629 318.234 80.1212Z" fill="#E7EEB4"/>
<path d="M354.428 84.2697C352.985 84.1495 351.061 83.1274 351.061 81.6846C351.001 80.2417 352.805 79.0994 354.247 78.919C356.171 78.6786 358.516 80.0012 358.516 81.5042C358.456 83.0072 356.291 84.39 354.428 84.2697Z" fill="#E7EEB4"/>
<path d="M514.768 304.61C515.189 302.746 515.309 301.123 514.948 293.066C514.708 287.175 514.648 287.956 514.648 286.994C514.768 283.267 515.429 281.463 514.287 279.239C514.046 278.758 513.085 276.834 511.702 276.834C510.439 276.834 509.477 278.517 509.117 279.239C507.674 281.944 507.914 284.529 508.515 290.722C508.636 292.225 509.117 297.094 508.636 302.866C508.515 304.309 508.275 305.932 507.012 307.074C506.411 307.616 505.69 307.916 501.782 308.337C497.634 308.758 496.491 308.638 495.409 309.72C494.748 310.381 494.026 311.523 494.327 312.605C494.447 312.966 494.748 313.688 496.491 314.469C499.738 315.912 502.924 315.311 504.247 315.07C505.449 314.83 507.373 314.469 509.477 313.086C511.281 311.884 512.303 310.561 512.604 310.141C513.145 309.179 514.107 307.676 514.768 304.61Z" fill="#E7EEB4"/>
<path d="M511.161 269.68C509.718 269.56 507.794 268.538 507.794 267.095C507.734 265.652 509.538 264.51 510.981 264.329C512.905 264.089 515.249 265.411 515.249 266.914C515.189 268.417 513.025 269.8 511.161 269.68Z" fill="#E7EEB4"/>
<path d="M565.149 250.02C568.395 257.535 569.477 263.006 569.898 265.23C570.74 269.86 570.56 272.084 570.439 273.226C570.199 275.391 569.778 278.757 567.193 282.004C565.87 283.687 563.706 286.573 560.279 286.813C557.333 286.994 555.229 285.07 555.049 284.95C553.486 283.507 553.005 281.703 552.824 280.922C552.584 280.02 552.584 278.697 552.644 276.052C552.704 274.609 552.704 273.647 552.764 272.565C552.824 271.483 552.884 270.701 552.944 270.581C553.606 263.787 550.239 254.709 550.239 254.709C547.714 247.856 544.227 242.385 544.227 242.385C541.882 238.717 539.898 236.493 540.74 234.329C541.281 232.946 542.724 232.224 545.61 230.842C548.496 229.399 549.938 228.737 551.321 228.858C553.486 228.978 555.049 230.842 560.039 240.04C562.684 245.03 564.067 247.555 565.149 250.02Z" fill="#E9FFC5" stroke="#303131" stroke-width="6.61322" stroke-linecap="round" stroke-linejoin="round"/>
<path d="M45.3496 267.757C47.3336 272.507 48.2955 274.852 49.4378 276.956C52.8045 283.389 55.9308 287.116 57.2534 288.619C59.9588 291.745 61.5821 292.888 62.4237 293.429C64.047 294.451 66.572 296.014 70.2394 296.014C72.1031 296.014 75.2894 296.074 77.3335 293.79C79.077 291.806 78.9568 289.281 78.8967 289.1C78.7764 287.176 77.8145 285.914 77.3937 285.313C76.9127 284.651 76.0109 283.93 74.1472 282.487C73.1251 281.705 72.4638 281.224 71.6822 280.683C70.9007 280.142 70.2995 279.782 70.2394 279.721C65.2494 276.475 60.8606 269.08 60.8606 269.08C57.554 263.489 55.6903 258.078 55.6903 258.078" fill="#EB93F4"/>
<path d="M45.3496 267.757C47.3336 272.507 48.2955 274.852 49.4378 276.956C52.8045 283.389 55.9308 287.116 57.2534 288.619C59.9588 291.745 61.5821 292.888 62.4237 293.429C64.047 294.451 66.572 296.014 70.2394 296.014C72.1031 296.014 75.2894 296.074 77.3335 293.79C79.077 291.806 78.9568 289.281 78.8967 289.1C78.7764 287.176 77.8145 285.914 77.3937 285.313C76.9127 284.651 76.0109 283.93 74.1472 282.487C73.1251 281.705 72.4638 281.224 71.6822 280.683C70.9007 280.142 70.2995 279.782 70.2394 279.721C65.2494 276.475 60.8606 269.08 60.8606 269.08C57.554 263.489 55.6903 258.078 55.6903 258.078" stroke="#303131" stroke-width="6.61322" stroke-linecap="round" stroke-linejoin="round"/>
<path d="M369.879 189.585C373.185 192.473 378.206 192.134 381.094 188.828C383.982 185.522 383.643 180.502 380.337 177.614C377.031 174.726 372.01 175.065 369.123 178.37C366.235 181.676 366.574 186.697 369.879 189.585Z" fill="#303131"/>
<path d="M433.147 192.199C436.529 194.835 441.406 194.23 444.042 190.849C446.677 187.467 446.073 182.589 442.691 179.954C439.31 177.318 434.432 177.923 431.796 181.304C429.161 184.686 429.765 189.564 433.147 192.199Z" fill="#303131"/>
<path d="M404.447 183.766C404.447 183.766 399.018 199.34 400.686 200.651C402.359 201.956 406.21 202.262 406.21 202.262" stroke="#303131" stroke-width="6.61322" stroke-linecap="round" stroke-linejoin="round"/>
<path d="M462.531 165.82C460.99 162.67 457.722 157.15 451.734 153.146C446.089 149.372 440.596 148.665 437.461 148.553" stroke="#303131" stroke-width="7.21442" stroke-linecap="round" stroke-linejoin="round"/>
<path d="M358.455 151.233C360.817 148.986 365.454 145.227 371.984 143.66C378.14 142.182 383.176 143.325 385.956 144.231" stroke="#303131" stroke-width="7.21442" stroke-linecap="round" stroke-linejoin="round"/>
<path d="M432.141 214.168C431.023 212.269 423.308 216.436 411.657 218.124C398.89 219.985 392.731 217.219 390.729 219.612C388.86 221.864 392.682 226.265 396.296 228.213C396.774 228.468 398.776 229.504 401.964 229.993C404.731 230.42 407.113 230.229 408.08 230.138C409.441 230 411.963 229.654 415.053 228.573C422.169 226.088 426.693 221.691 427.714 220.664C429.953 218.41 432.894 215.46 432.141 214.168Z" fill="#94B259" stroke="#303131" stroke-width="6.61322" stroke-linecap="round" stroke-linejoin="round"/>
</svg>
