<svg width="184" height="126" viewBox="0 0 184 126" fill="none" xmlns="http://www.w3.org/2000/svg">
<path d="M149.729 89.0494C140.908 89.6661 141.638 87.5653 132.816 88.1821L139.235 99.1676L143.348 102.772L149.729 89.0494Z" fill="#94B259" stroke="#303131" stroke-width="0.886716" stroke-linecap="round" stroke-linejoin="round"/>
<path d="M96.1831 27.5111L159.032 34.1988L173.139 15.4655L168.43 11.264C168.43 11.264 146.846 14.4826 143.637 11.6302L140.542 6.94689L136.429 3.34286L135.334 2.45631C134.815 2.0323 134.238 1.68539 133.623 1.3963C132.105 0.953023 130.759 0.972295 130.068 1.03011C129.203 1.08793 127.646 1.20357 126.108 2.22503C125.551 2.59122 124.955 3.11159 123.437 5.40506C121.784 7.89126 121.515 8.73927 120.496 10.2811C119.92 11.1484 119.093 12.6324 117.921 13.8659C117.267 14.5404 116.345 14.9451 115.384 15.0222C106.562 15.639 97.1634 16.063 88.3415 16.6604L90.225 18.183L94.3381 21.787L96.1831 27.5111Z" fill="#94B259" stroke="#303131" stroke-width="0.886716" stroke-linecap="round" stroke-linejoin="round"/>
<path d="M55.5143 9.74217L56.283 12.4789C57.7822 14.1364 59.6849 15.6589 62.4141 16.5455C64.8166 17.3164 65.4893 16.8539 76.6752 16.6804C81.4994 16.6033 85.4778 16.6419 88.0725 16.6804C88.0917 16.8731 93.0889 21.1903 93.0889 21.1903L88.0533 30.7882L6.73452 105.933L1.54519 101.096C1.46831 96.5472 1.39143 92.365 1.44909 89.821C1.58362 83.6151 1.6605 80.5122 3.02511 78.6235C5.1585 75.694 7.33033 76.7733 11.1166 72.9765C12.3467 71.743 14.4609 69.5652 15.3834 66.0383C15.6717 64.9012 16.6711 60.8731 14.5185 56.8451C13.4038 54.7636 12.1737 55.2262 11.2704 54.5902L6.25402 50.0996V19.0702C9.50216 19.1666 14.1341 19.2052 19.7079 18.8968C26.9537 18.5113 30.567 18.3186 33.0848 17.2971C42.2718 13.5582 42.5986 4.42285 47.9993 4.42285H48.4222C49.0564 4.42285 49.6714 4.63485 50.1904 5.02031L50.4979 5.25158L55.5143 9.74217Z" fill="#8F209A" stroke="#303131" stroke-width="0.886716" stroke-linecap="round" stroke-linejoin="round"/>
<path d="M171.813 57.5381C171.678 57.7887 171.774 58.097 171.832 58.2319C172.024 58.7909 172.524 59.08 172.851 59.2727C174.157 60.0436 174.811 60.4483 175.138 60.7182C175.714 61.2192 176.272 61.7011 176.733 62.5105C176.906 62.8189 177.06 63.1851 177.444 63.3585C177.771 63.4934 178.251 63.4934 178.52 63.2236C178.828 62.896 178.693 62.3756 178.597 61.9709C178.52 61.624 178.347 61.1807 177.925 60.6411C177.752 60.4291 177.54 60.1978 176.368 59.3112C175.868 58.945 176.099 59.1185 174.58 58.0392C173.908 57.5574 173.696 57.4032 173.331 57.3068C172.87 57.1719 172.062 57.1141 171.813 57.5381Z" fill="#B0A8CF" stroke="#303131" stroke-width="0.886716" stroke-linecap="round" stroke-linejoin="round"/>
<path d="M23.7635 98.3194C24.0326 110.596 24.2055 119.443 24.1479 120.888C24.1479 121.061 24.1094 121.697 24.417 122.449C24.5131 122.7 24.8975 123.586 25.8777 124.222C26.4927 124.627 27.0693 124.723 28.2225 124.935C30.0099 125.244 31.3361 125.147 32.1433 125.012C32.8352 124.897 33.1812 124.858 33.4887 124.627C34.3536 124.029 34.565 122.7 34.0461 121.736C33.5463 120.772 32.3932 120.387 31.413 120.04C30.4904 119.712 30.3943 119.867 30.0099 119.655C28.8375 118.999 29.1642 117.149 29.2411 113.179C29.2603 112.177 29.2219 113.506 29.2219 108.072C29.2219 105.74 29.2219 104.545 29.2411 103.677C29.2796 102.347 29.3372 100.439 29.5294 98.146" fill="#EB93F4"/>
<path d="M23.7635 98.3194C24.0326 110.596 24.2055 119.443 24.1479 120.888C24.1479 121.061 24.1094 121.697 24.417 122.449C24.5131 122.7 24.8975 123.586 25.8777 124.222C26.4927 124.627 27.0693 124.723 28.2225 124.935C30.0099 125.244 31.3361 125.147 32.1433 125.012C32.8352 124.897 33.1812 124.858 33.4887 124.627C34.3536 124.029 34.565 122.7 34.0461 121.736C33.5463 120.772 32.3932 120.387 31.413 120.04C30.4904 119.712 30.3943 119.867 30.0099 119.655C28.8375 118.999 29.1642 117.149 29.2411 113.179C29.2603 112.177 29.2219 113.506 29.2219 108.072C29.2219 105.74 29.2219 104.545 29.2411 103.677C29.2796 102.347 29.3372 100.439 29.5294 98.146" stroke="#303131" stroke-width="0.886716" stroke-linecap="round" stroke-linejoin="round"/>
<path d="M68.2758 99.0131C68.5257 110.654 68.6987 119.057 68.641 120.425C68.641 120.579 68.6026 121.196 68.8908 121.89C68.9869 122.121 69.3521 122.969 70.2747 123.586C70.8705 123.971 71.4086 124.068 72.5042 124.261C74.1955 124.55 75.464 124.453 76.2136 124.338C76.867 124.241 77.1938 124.183 77.5013 123.971C78.3085 123.393 78.5199 122.141 78.0394 121.235C77.559 120.329 76.4634 119.943 75.5409 119.616C74.6568 119.307 74.5799 119.462 74.2147 119.25C73.1 118.614 73.4075 116.879 73.4844 113.102C73.5036 112.138 73.4652 113.41 73.4652 108.264C73.4652 106.048 73.4652 104.93 73.4844 104.082C73.5228 102.81 73.5805 101.017 73.7534 98.8396" fill="#EB93F4"/>
<path d="M68.2758 99.0131C68.5257 110.654 68.6987 119.057 68.641 120.425C68.641 120.579 68.6026 121.196 68.8908 121.89C68.9869 122.121 69.3521 122.969 70.2747 123.586C70.8705 123.971 71.4086 124.068 72.5042 124.261C74.1955 124.55 75.464 124.453 76.2136 124.338C76.867 124.241 77.1938 124.183 77.5013 123.971C78.3085 123.393 78.5199 122.141 78.0395 121.235C77.559 120.329 76.4634 119.943 75.5409 119.616C74.6568 119.307 74.5799 119.462 74.2147 119.25C73.1 118.614 73.4075 116.879 73.4844 113.102C73.5036 112.138 73.4652 113.41 73.4652 108.264C73.4652 106.048 73.4652 104.93 73.4844 104.082C73.5228 102.81 73.5805 101.017 73.7534 98.8396" stroke="#303131" stroke-width="0.886716" stroke-linecap="round" stroke-linejoin="round"/>
<path d="M112.386 98.6857C112.117 110.635 111.944 119.25 112.001 120.657C112.001 120.83 112.04 121.447 111.751 122.16C111.655 122.411 111.29 123.278 110.329 123.895C109.733 124.28 109.157 124.376 108.042 124.569C106.293 124.878 105.024 124.762 104.236 124.646C103.564 124.55 103.218 124.492 102.91 124.28C102.084 123.683 101.872 122.391 102.372 121.466C102.872 120.541 103.987 120.136 104.928 119.809C105.832 119.481 105.928 119.655 106.293 119.443C107.427 118.787 107.062 113.449 107.062 108.168C107.062 105.894 107.062 104.737 107.043 103.889C107.004 102.598 106.946 100.748 106.773 98.5122" fill="#E9FFC5"/>
<path d="M112.386 98.6857C112.117 110.635 111.944 119.25 112.001 120.657C112.001 120.83 112.04 121.447 111.751 122.16C111.655 122.411 111.29 123.278 110.329 123.895C109.733 124.28 109.157 124.376 108.042 124.569C106.293 124.878 105.024 124.762 104.236 124.646C103.564 124.55 103.218 124.492 102.91 124.28C102.084 123.683 101.872 122.391 102.372 121.466C102.872 120.541 103.987 120.136 104.928 119.809C105.832 119.481 105.928 119.655 106.293 119.443C107.427 118.787 107.062 113.449 107.062 108.168C107.062 105.894 107.062 104.737 107.043 103.889C107.004 102.598 106.946 100.748 106.773 98.5122" stroke="#303131" stroke-width="0.886716" stroke-linecap="round" stroke-linejoin="round"/>
<path d="M158.167 100.035C157.917 111.213 157.763 119.269 157.802 120.58C157.802 120.734 157.84 121.312 157.552 121.987C157.456 122.218 157.11 123.028 156.207 123.606C155.649 123.972 155.111 124.068 154.054 124.242C152.42 124.531 151.229 124.435 150.498 124.319C149.864 124.223 149.537 124.184 149.268 123.972C148.48 123.413 148.288 122.218 148.749 121.351C149.211 120.484 150.249 120.117 151.152 119.809C151.998 119.52 152.074 119.655 152.42 119.462C153.477 118.865 153.132 113.854 153.132 108.92C153.132 106.8 153.132 105.721 153.112 104.911C153.093 103.697 153.016 101.982 152.862 99.8809" fill="#E9FFC5"/>
<path d="M158.167 100.035C157.917 111.213 157.763 119.269 157.802 120.58C157.802 120.734 157.84 121.312 157.552 121.987C157.456 122.218 157.11 123.028 156.207 123.606C155.649 123.972 155.111 124.068 154.054 124.242C152.42 124.531 151.229 124.435 150.498 124.319C149.864 124.223 149.537 124.184 149.268 123.972C148.48 123.413 148.288 122.218 148.749 121.351C149.211 120.484 150.249 120.117 151.152 119.809C151.998 119.52 152.074 119.655 152.42 119.462C153.477 118.865 153.132 113.854 153.132 108.92C153.132 106.8 153.132 105.721 153.112 104.911C153.093 103.697 153.016 101.982 152.862 99.8809" stroke="#303131" stroke-width="0.886716" stroke-linecap="round" stroke-linejoin="round"/>
<path d="M7.92609 20.6696L12.0391 24.2736" stroke="#303131" stroke-width="0.886716" stroke-linecap="round" stroke-linejoin="round"/>
<path d="M170.545 48.0176C168.181 44.8183 170.256 42.5441 170.429 29.3229" stroke="#303131" stroke-width="0.886716" stroke-linecap="round" stroke-linejoin="round"/>
<path d="M30.375 101.095C38.3128 97.934 38.8701 90.5718 43.7904 90.4947C47.1731 90.4369 48.8452 92.8653 50.3059 95.4286C51.7666 97.9919 54.9186 104.294 57.3788 104.737C62.3375 105.605 87.2655 101.095 87.2655 101.095C87.2655 101.095 87.3039 99.4566 87.3423 96.9704C87.4384 90.514 87.3808 90.3405 87.4577 87.7194C87.5922 82.9783 87.7652 79.4128 87.7652 79.4128C87.9574 75.4233 88.0919 74.2091 87.2655 72.8215C86.2468 71.1062 85.0552 71.2989 82.7104 69.5065C81.192 68.3502 77.6364 65.6134 77.3289 61.7203C77.0021 57.6922 80.3656 54.5122 81.1344 53.7799C82.9218 52.1031 83.8828 52.1995 85.2666 51.0624C88.4955 48.4413 88.5724 43.4881 88.5724 37.7448C88.5532 31.7509 88.4379 26.2967 88.2649 21.4592L30.375 101.095Z" fill="#8F209A" stroke="#303131" stroke-width="0.886716" stroke-linecap="round" stroke-linejoin="round"/>
<path d="M11.2895 23.561V54.6096L16.0176 57.3849C16.9209 58.0209 18.4393 59.2929 19.554 61.3744C21.7067 65.4024 20.7264 69.4112 20.4189 70.5676C19.4964 74.0752 17.3822 76.2531 16.1521 77.5058C12.3659 81.3026 10.194 80.2233 8.06063 83.1528C6.69603 85.0415 6.61915 88.1445 6.48461 94.3503C6.42695 96.8943 6.50383 101.077 6.58071 105.625C6.46539 107.032 17.2477 106.434 21.5145 106.454C32.0277 106.512 33.373 106.434 35.3911 105.625C43.3289 102.464 43.8863 95.102 48.8065 95.0249C55.5526 94.9092 55.5334 104.758 60.4729 105.625C65.4316 106.492 92.2816 105.625 92.2816 105.625C92.2816 105.625 92.32 103.987 92.3585 101.501C92.4546 95.0441 92.3969 94.8707 92.4738 92.2496C92.6083 87.5084 92.7813 83.943 92.7813 83.943C92.9735 79.9535 93.108 78.7393 92.2816 77.3516C91.2629 75.6363 90.0713 75.8291 87.7265 74.0367C86.2082 72.8803 82.6525 70.1436 82.345 66.2504C82.0182 62.2224 85.3817 59.0424 86.1505 58.31C87.9379 56.6333 88.8989 56.7296 90.2827 55.5925C93.5117 52.9714 93.5885 48.0183 93.5885 42.275C93.5693 34.2382 93.3579 27.165 93.0888 21.2097C90.4749 21.1712 86.5157 21.1326 81.6915 21.2097C70.5056 21.3639 69.8329 21.8457 67.4305 21.0748C58.6855 18.2417 58.3972 8.95215 53.0156 8.95215C47.6341 8.95215 47.3074 18.0875 38.1011 21.8264C35.6025 22.8479 31.97 23.0406 24.7242 23.4261C19.1504 23.6959 14.5185 23.6574 11.2895 23.561Z" fill="#DB3FEB" stroke="#303131" stroke-width="0.886716" stroke-linecap="round" stroke-linejoin="round"/>
<path d="M67.3749 62.4312C66.3181 63.357 64.713 63.2484 63.7898 62.1886C62.8666 61.1289 62.9749 59.5194 64.0317 58.5936C65.0885 57.6678 66.6936 57.7764 67.6168 58.8362C68.54 59.8959 68.4317 61.5054 67.3749 62.4312Z" fill="#303131"/>
<path d="M47.149 63.2678C46.068 64.1127 44.5086 63.9188 43.666 62.8348C42.8235 61.7508 43.0168 60.1871 44.0978 59.3422C45.1789 58.4973 46.7383 58.6912 47.5808 59.7752C48.4234 60.8592 48.2301 62.4229 47.149 63.2678Z" fill="#303131"/>
<path d="M56.9395 63.386C56.9395 63.386 58.0593 65.5578 57.5262 65.9782C56.9912 66.3963 55.7601 66.4945 55.7601 66.4945" stroke="#303131" stroke-width="0.886716" stroke-linecap="round" stroke-linejoin="round"/>
<path d="M38.2922 56.7167C38.7849 55.707 39.8296 53.9372 41.7438 52.6537C43.5486 51.4439 45.3047 51.2171 46.3068 51.1814" stroke="#303131" stroke-width="0.886716" stroke-linecap="round" stroke-linejoin="round"/>
<path d="M72.147 52.8036C71.3917 52.0832 69.9094 50.8784 67.822 50.3759C65.854 49.9022 64.2439 50.2684 63.3553 50.5589" stroke="#303131" stroke-width="0.886716" stroke-linecap="round" stroke-linejoin="round"/>
<path d="M92.4737 105.509C94.2995 105.509 99.239 105.489 106.235 105.47C112.962 105.451 116.383 105.393 118.651 103.967C120.784 102.598 122.168 99.4184 124.398 96.142C126.704 93.4631 129.568 92.5572 132.72 92.5572C135.18 92.4801 137.39 93.2125 139.812 95.6409C143.156 99.0136 142.003 102.001 144.751 103.523C146.673 104.584 148.538 104.699 150.383 104.757C158.09 104.95 166.585 104.005 170.756 103.466C171.159 93.3667 169.641 81.1669 172.582 73.7854C172.582 73.7854 176.387 73.0916 178.809 71.2799C182.018 68.8901 182.499 63.3973 182.518 63.0697C182.518 53.9922 176.579 54.8594 174.657 52.2383C172.293 49.039 174.369 46.7648 174.542 33.5436C174.6 28.8989 174.388 25.7574 174.234 23.965C173.927 20.3995 173.466 17.4508 173.12 15.4849C164.663 15.6198 150.959 18.7228 147.75 15.8704C146.654 14.8875 145.77 13.6925 145.77 13.6925C145.635 13.5191 145.424 13.23 144.54 11.9773C142.945 9.70306 142.906 9.54887 142.426 8.95141C141.945 8.37323 141.215 7.4674 140.081 6.71576C137.775 5.17393 135.238 5.1932 134.219 5.27029C133.354 5.32811 131.797 5.44375 130.26 6.46521C129.702 6.83139 129.107 7.35176 127.588 9.64524C125.935 12.1314 125.666 12.9794 124.648 14.5213C124.071 15.3886 123.244 16.4871 122.072 17.7206C121.419 18.3951 120.496 18.7999 119.535 18.877C110.713 19.4937 101.891 20.1104 93.0695 20.7079C93.031 31.7705 92.9734 42.8332 92.9349 53.8958C91.5127 54.2234 89.1294 54.9365 86.8615 56.7867C86.1311 57.3842 81.307 61.2966 81.8451 66.3268C82.3256 70.7981 86.8807 74.8454 93.031 75.4814L92.4737 105.509Z" fill="#C2FA67" stroke="#303131" stroke-width="0.886716" stroke-linecap="round" stroke-linejoin="round"/>
<path d="M118.42 60.4247C119.477 61.3505 121.082 61.2419 122.005 60.1822C122.929 59.1225 122.82 57.5129 121.763 56.5871C120.707 55.6614 119.102 55.77 118.178 56.8297C117.255 57.8894 117.363 59.499 118.42 60.4247Z" fill="#303131"/>
<path d="M138.647 61.2621C139.728 62.107 141.287 61.9131 142.13 60.8291C142.972 59.745 142.779 58.1813 141.698 57.3364C140.617 56.4916 139.057 56.6854 138.215 57.7695C137.372 58.8535 137.566 60.4172 138.647 61.2621Z" fill="#303131"/>
<path d="M129.472 58.5591C129.472 58.5591 127.736 63.5518 128.269 63.9722C128.804 64.3903 130.035 64.4884 130.035 64.4884" stroke="#303131" stroke-width="0.886716" stroke-linecap="round" stroke-linejoin="round"/>
<path d="M148.041 52.8064C147.548 51.7968 146.504 50.0269 144.589 48.7435C142.785 47.5336 141.028 47.3068 140.026 47.2712" stroke="#303131" stroke-width="0.886716" stroke-linecap="round" stroke-linejoin="round"/>
<path d="M114.769 48.1288C115.524 47.4084 117.006 46.2036 119.094 45.7011C121.062 45.2274 122.672 45.5936 123.56 45.8841" stroke="#303131" stroke-width="0.886716" stroke-linecap="round" stroke-linejoin="round"/>
<path d="M7.77258 19.9941L10.7901 23.2898" stroke="#303131" stroke-width="0.886716" stroke-linecap="round" stroke-linejoin="round"/>
<path d="M49.4214 71.7033C49.4214 71.7033 50.9205 73.4572 53.8419 73.303C56.7633 73.1295 58.8006 70.9902 58.8006 70.9902" stroke="#303131" stroke-width="0.886716" stroke-linecap="round" stroke-linejoin="round"/>
<path d="M14.5187 29.4584C14.3457 30.0559 14.288 30.5762 14.288 33.1395C14.288 35.0283 14.3265 34.7777 14.288 35.0861C14.1919 36.281 13.9613 36.8399 14.288 37.5723C14.3649 37.7265 14.634 38.3625 15.076 38.3818C15.4797 38.401 15.8064 37.8807 15.9409 37.6494C16.4406 36.8014 16.4022 35.9726 16.3061 33.9875C16.2869 33.5057 16.21 31.9446 16.4406 30.1137C16.4983 29.6511 16.6136 29.1308 17.0172 28.7839C17.2094 28.6104 17.4593 28.5333 18.7086 28.4562C20.0347 28.3791 20.3999 28.4369 20.7651 28.1093C20.9957 27.9166 21.2264 27.5504 21.1495 27.2035C21.1303 27.0878 21.0342 26.8566 20.496 26.5867C19.4774 26.0857 18.4587 26.2206 18.0359 26.2784C17.6323 26.3362 17.0172 26.4326 16.3445 26.8373C15.7487 27.1842 15.4028 27.6082 15.3067 27.7431C15.1145 28.0129 14.7685 28.4948 14.5187 29.4584Z" fill="#CB9BC6"/>
<path d="M15.4793 42.5431C15.4024 43.0056 15.018 43.5838 14.5567 43.5645C14.0955 43.526 13.8072 42.9285 13.788 42.466C13.7687 41.83 14.2684 41.1169 14.7489 41.1747C15.2102 41.194 15.5754 41.9456 15.4793 42.5431Z" fill="#CB9BC6"/>
<path d="M89.2834 87.4881C89.2065 87.9507 88.8221 88.5289 88.3608 88.5096C87.8995 88.4711 87.6112 87.8736 87.592 87.411C87.5728 86.775 88.0725 86.0619 88.553 86.1198C89.0143 86.139 89.3795 86.8907 89.2834 87.4881Z" fill="#CB9BC6"/>
<path d="M83.4406 75.7704C83.2677 76.0017 83.3253 76.3101 83.3638 76.4643C83.4791 77.0425 83.9403 77.4086 84.2286 77.6399C85.4203 78.5843 86.0353 79.0661 86.3044 79.3745C86.5927 79.6828 87.3038 80.3574 87.6498 81.3789C88.2071 82.9978 87.4576 84.212 88.0534 84.5974C88.3801 84.8094 88.8606 84.636 89.1489 84.4432C90.0138 83.8265 89.7447 82.1691 89.5717 81.0898C89.4372 80.3189 89.1681 79.8177 89.072 79.6828C88.9375 79.4516 88.7645 79.201 87.6882 78.141C87.2461 77.6977 87.4383 77.9097 86.093 76.6377C85.4779 76.0595 85.305 75.8861 84.9398 75.7512C84.5169 75.5584 83.7289 75.385 83.4406 75.7704Z" fill="#CB9BC6"/>
<path d="M101.911 25.3341C102.507 25.1607 103.006 25.1028 105.543 25.1028C107.408 25.1028 107.158 25.1414 107.465 25.1028C108.638 25.0065 109.195 24.7752 109.925 25.1028C110.079 25.1799 110.694 25.469 110.714 25.9123C110.733 26.3363 110.214 26.6639 110.002 26.7988C109.157 27.3192 108.349 27.2614 106.389 27.165C105.909 27.1458 104.371 27.0687 102.564 27.3192C102.122 27.377 101.603 27.4927 101.277 27.8974C101.123 28.1094 101.027 28.3407 100.95 29.6127C100.873 30.9618 100.931 31.328 100.623 31.6942C100.431 31.9254 100.066 32.176 99.739 32.0989C99.6237 32.0796 99.3931 31.9833 99.124 31.4243C98.6243 30.4029 98.7588 29.3429 98.8165 28.9189C98.8741 28.5141 98.9702 27.8974 99.3739 27.2036C99.7198 26.6061 100.143 26.2399 100.258 26.1436C100.508 25.9508 100.969 25.6039 101.911 25.3341Z" fill="#E7EEB4"/>
<path d="M113.481 26.6643C113.02 26.6258 112.405 26.2981 112.405 25.8356C112.385 25.3731 112.962 25.0069 113.423 24.949C114.038 24.872 114.788 25.296 114.788 25.7778C114.769 26.2596 114.077 26.7029 113.481 26.6643Z" fill="#E7EEB4"/>
<path d="M164.74 97.2979C164.874 96.7004 164.913 96.18 164.798 93.5975C164.721 91.7087 164.701 91.9593 164.701 91.6509C164.74 90.456 164.951 89.8778 164.586 89.1647C164.509 89.0105 164.202 88.3938 163.76 88.3938C163.356 88.3938 163.049 88.9334 162.933 89.1647C162.472 90.032 162.549 90.8607 162.741 92.8458C162.779 93.3277 162.933 94.8888 162.779 96.739C162.741 97.2015 162.664 97.7219 162.261 98.0881C162.068 98.2615 161.838 98.3579 160.588 98.4928C159.262 98.6277 158.897 98.5892 158.551 98.9361C158.34 99.1481 158.109 99.5143 158.205 99.8612C158.244 99.9768 158.34 100.208 158.897 100.459C159.935 100.921 160.954 100.728 161.376 100.651C161.761 100.574 162.376 100.459 163.049 100.015C163.625 99.6299 163.952 99.2059 164.048 99.071C164.221 98.7626 164.528 98.2808 164.74 97.2979Z" fill="#E7EEB4"/>
<path d="M163.587 86.1011C163.126 86.0626 162.511 85.7349 162.511 85.2724C162.491 84.8098 163.068 84.4436 163.529 84.3858C164.144 84.3087 164.894 84.7327 164.894 85.2145C164.875 85.6964 164.183 86.1397 163.587 86.1011Z" fill="#E7EEB4"/>
<path d="M180.847 79.7982C181.884 82.2073 182.23 83.9611 182.365 84.6742C182.634 86.1582 182.576 86.8713 182.538 87.2375C182.461 87.9313 182.326 89.0106 181.5 90.0513C181.077 90.591 180.385 91.5161 179.29 91.5932C178.348 91.651 177.675 91.0342 177.618 90.9957C177.118 90.5331 176.964 89.955 176.907 89.7044C176.83 89.4153 176.83 88.9913 176.849 88.1433C176.868 87.6808 176.868 87.3724 176.887 87.0255C176.907 86.6786 176.926 86.428 176.945 86.3895C177.156 84.2116 176.08 81.3014 176.08 81.3014C175.273 79.1043 174.158 77.3505 174.158 77.3505C173.409 76.1748 172.774 75.4617 173.043 74.7679C173.216 74.3246 173.678 74.0934 174.6 73.6501C175.523 73.1875 175.984 72.9755 176.426 73.0141C177.118 73.0526 177.618 73.6501 179.213 76.5988C180.059 78.1985 180.501 79.008 180.847 79.7982Z" fill="#E9FFC5" stroke="#303131" stroke-width="0.886716" stroke-linecap="round" stroke-linejoin="round"/>
<path d="M14.6726 85.4837C15.3069 87.0062 15.6144 87.7579 15.9796 88.4324C17.0559 90.4946 18.0553 91.6896 18.4781 92.1714C19.343 93.1736 19.8619 93.5397 20.131 93.7132C20.65 94.0408 21.4572 94.5419 22.6296 94.5419C23.2254 94.5419 24.244 94.5612 24.8975 93.8288C25.4549 93.1928 25.4164 92.3834 25.3972 92.3256C25.3588 91.7088 25.0513 91.3041 24.9167 91.1114C24.763 90.8994 24.4747 90.6681 23.8789 90.2055C23.5521 89.955 23.3407 89.8008 23.0909 89.6273C22.841 89.4539 22.6488 89.3382 22.6296 89.319C21.0343 88.2782 19.6313 85.9077 19.6313 85.9077C18.5742 84.1153 17.9784 82.3807 17.9784 82.3807" fill="#EB93F4"/>
<path d="M14.6726 85.4837C15.3069 87.0062 15.6144 87.7579 15.9796 88.4324C17.0559 90.4946 18.0553 91.6896 18.4781 92.1714C19.343 93.1736 19.8619 93.5397 20.131 93.7132C20.65 94.0408 21.4572 94.5419 22.6296 94.5419C23.2254 94.5419 24.244 94.5612 24.8975 93.8288C25.4549 93.1928 25.4165 92.3834 25.3972 92.3256C25.3588 91.7088 25.0513 91.3041 24.9167 91.1114C24.763 90.8994 24.4747 90.6681 23.8789 90.2055C23.5521 89.955 23.3407 89.8008 23.0909 89.6273C22.841 89.4539 22.6488 89.3382 22.6296 89.319C21.0343 88.2782 19.6313 85.9077 19.6313 85.9077C18.5742 84.1153 17.9784 82.3807 17.9784 82.3807" stroke="#303131" stroke-width="0.886716" stroke-linecap="round" stroke-linejoin="round"/>
<path d="M138.325 68.3057C137.968 67.6968 135.502 69.0327 131.777 69.5739C127.695 70.1705 125.727 69.2836 125.086 70.0507C124.489 70.7728 125.711 72.1835 126.866 72.8081C127.019 72.8897 127.659 73.2218 128.678 73.3786C129.563 73.5156 130.324 73.4545 130.633 73.4253C131.069 73.381 131.875 73.27 132.863 72.9233C135.138 72.1268 136.584 70.7174 136.91 70.3879C137.626 69.6655 138.566 68.7198 138.325 68.3057Z" fill="#94B259" stroke="#303131" stroke-width="0.886716" stroke-linecap="round" stroke-linejoin="round"/>
</svg>
