<svg width="514" height="176" viewBox="0 0 514 176" fill="none" xmlns="http://www.w3.org/2000/svg">
<g filter="url(#filter0_d_222_952)">
<path d="M157.143 80.0051H124.43V101.301H157.143V80.0051Z" fill="#DF614A" stroke="#222222" stroke-width="5" stroke-linecap="round" stroke-linejoin="round"/>
<path d="M110.23 122.91C110.23 122.91 80.9789 149.416 78.3154 150.565C75.6519 151.713 55.7051 147.41 53.6986 144.841C51.6921 142.272 48.0105 109.718 49.1884 107.41C50.3663 105.101 85.5956 93.8673 85.5956 93.8673L45.199 94.7315C45.199 94.7315 25.9922 84.9534 25.0925 83.5329C24.1928 82.1124 30.1117 66.7646 31.7868 64.7463C33.4618 62.7279 57.7531 50.8901 59.5051 51.2216C61.263 51.553 84.2994 69.9431 84.2994 69.9431C84.2994 69.9431 65.5187 45.421 65.2287 43.6809C64.9386 41.9407 76.1905 27.3447 76.9718 26.9599C77.7472 26.5752 84.1218 27.3032 88.5373 26.9599C92.9529 26.6166 97.4276 24.9593 98.1437 25.0008C99.6708 25.0955 119.316 36.8149 119.671 37.6317C120.026 38.4426 117.712 49.5524 117.712 49.5524C117.712 49.5524 123.927 35.4832 124.826 35.1458C125.726 34.8084 150.952 36.8268 152.758 37.2825C154.563 37.7383 168.082 50.5527 168.413 51.5116C168.739 52.4704 158.274 82.1064 158.274 82.1064C158.274 82.1064 173.462 108.801 173.462 110.34C173.462 111.879 162.305 132.145 159.517 132.713C156.729 133.281 119.671 128.42 119.671 128.42L109.125 109.331" fill="#FE5139"/>
<path d="M158.274 82.1064C158.274 82.1064 168.739 52.4704 168.413 51.5116C168.082 50.5527 154.563 37.7383 152.758 37.2825C150.952 36.8268 125.726 34.8084 124.826 35.1458C123.927 35.4832 117.712 49.5524 117.712 49.5524C117.712 49.5524 120.026 38.4426 119.671 37.6317C119.316 36.8149 99.6708 25.0955 98.1437 25.0008C97.4276 24.9593 92.9528 26.6166 88.5373 26.9599C84.1218 27.3032 77.7472 26.5752 76.9718 26.9599C76.1905 27.3447 64.9386 41.9407 65.2287 43.6809C65.5187 45.421 84.2994 69.9431 84.2994 69.9431C84.2994 69.9431 61.263 51.553 59.5051 51.2216C57.7531 50.8901 33.4618 62.7279 31.7868 64.7463C30.1117 66.7646 24.1928 82.1124 25.0925 83.5329C25.9922 84.9534 45.199 94.7315 45.199 94.7315L85.5956 93.8673C85.5956 93.8673 50.3663 105.101 49.1884 107.41C48.0105 109.718 51.6921 142.272 53.6986 144.841C55.7051 147.41 75.6519 151.713 78.3154 150.565C80.9789 149.416 110.23 122.91 110.23 122.91L109.125 109.331L119.671 128.42C119.671 128.42 156.729 133.281 159.517 132.713C162.305 132.145 173.462 111.879 173.462 110.34C173.462 108.801 158.274 82.1064 158.274 82.1064ZM158.274 82.1064L138.351 83.527" stroke="#222222" stroke-width="5" stroke-linecap="round" stroke-linejoin="round"/>
<path d="M107.658 101.131L108.331 110.217C108.335 110.281 108.356 110.343 108.39 110.398L119.652 128.262C119.715 128.362 119.82 128.428 119.937 128.443L142.335 131.178C142.796 131.235 142.957 130.586 142.523 130.42L123.999 123.347C123.924 123.319 123.86 123.268 123.815 123.203L108.374 100.878C108.146 100.548 107.628 100.731 107.658 101.131Z" fill="#AF3322" fill-opacity="0.6"/>
<path d="M111.478 67.3537L118.547 49.7639C118.563 49.7231 118.572 49.6798 118.575 49.6358L119.151 37.5314C119.158 37.3908 119.089 37.2573 118.97 37.1814L112.483 33.0231C112.165 32.8188 111.77 33.1382 111.902 33.4927L114.992 41.731C115.016 41.7961 115.023 41.8666 115.011 41.9352L110.725 67.141C110.646 67.6058 111.302 67.7913 111.478 67.3537Z" fill="#AF3322" fill-opacity="0.6"/>
<path d="M85.0009 69.5022L93.1327 81.5861C93.3781 81.9508 92.9319 82.3823 92.5756 82.1249L69.7664 65.6424L57.762 51.6699H59.7299L84.8006 69.2977C84.8793 69.3531 84.9472 69.4224 85.0009 69.5022Z" fill="#AF3322" fill-opacity="0.6"/>
<path d="M158.352 82.9865L122.498 85.5475C122.054 85.5792 121.907 84.9667 122.316 84.7927L137.183 78.4699C137.238 78.4463 137.298 78.4358 137.358 78.4391L158.346 79.5944C158.554 79.6059 158.718 79.7784 158.718 79.9874V82.5939C158.718 82.8004 158.558 82.9718 158.352 82.9865Z" fill="#AF3322" fill-opacity="0.6"/>
<path d="M95.3628 92.6741L85.5785 92.9949C85.5332 92.9963 85.4884 93.0057 85.4463 93.0224L49.5482 107.265C49.3982 107.324 49.2997 107.469 49.2997 107.63V111.299V118.15C49.2997 118.51 49.7433 118.681 49.9851 118.414L58.6868 108.806C58.7257 108.763 58.7737 108.729 58.8272 108.707L95.5269 93.4308C95.9309 93.2627 95.8001 92.6597 95.3628 92.6741Z" fill="#AF3322" fill-opacity="0.6"/>
<path d="M158.274 82.1064C158.274 82.1064 168.739 52.4704 168.413 51.5116C168.082 50.5527 154.563 37.7383 152.758 37.2825C150.952 36.8268 125.726 34.8084 124.826 35.1458C123.927 35.4832 117.712 49.5524 117.712 49.5524C117.712 49.5524 120.026 38.4426 119.671 37.6317C119.316 36.8149 99.6708 25.0955 98.1437 25.0008C97.4276 24.9593 92.9528 26.6166 88.5373 26.9599C84.1218 27.3032 77.7472 26.5752 76.9718 26.9599C76.1905 27.3447 64.9386 41.9407 65.2287 43.6809C65.5187 45.421 84.2994 69.9431 84.2994 69.9431C84.2994 69.9431 61.263 51.553 59.5051 51.2216C57.7531 50.8901 33.4618 62.7279 31.7868 64.7463C30.1117 66.7646 24.1928 82.1124 25.0925 83.5329C25.9922 84.9534 45.199 94.7315 45.199 94.7315L85.5956 93.8673C85.5956 93.8673 50.3663 105.101 49.1884 107.41C48.0105 109.718 51.6921 142.272 53.6986 144.841C55.7051 147.41 75.6519 151.713 78.3154 150.565C80.9789 149.416 110.23 122.91 110.23 122.91L109.125 109.331L119.671 128.42C119.671 128.42 156.729 133.281 159.517 132.713C162.305 132.145 173.462 111.879 173.462 110.34C173.462 108.801 158.274 82.1064 158.274 82.1064ZM158.274 82.1064L138.351 83.527" stroke="#222222" stroke-width="5" stroke-linecap="round" stroke-linejoin="round"/>
<path d="M96.4748 76.1399L100.476 88.8478C100.476 88.8478 101.328 89.3391 102.607 88.8478C103.885 88.3565 103.885 86.9242 103.885 86.9242C103.885 86.9242 100.713 78.2707 100.18 76.1399C99.6473 74.0091 96.4748 76.1399 96.4748 76.1399Z" fill="#FFD13C" stroke="#222222" stroke-width="5" stroke-linecap="round" stroke-linejoin="round"/>
<path d="M103.435 63.3235C103.435 59.8952 100.656 57.116 97.2277 57.116C93.7993 57.116 91.0201 59.8952 91.0201 63.3235V68.8501C91.0201 72.2784 93.7993 75.0576 97.2277 75.0576C100.656 75.0576 103.435 72.2784 103.435 68.8501V63.3235Z" fill="#FFD13C" stroke="#222222" stroke-width="5" stroke-linecap="round" stroke-linejoin="round"/>
<path d="M98.0161 59.0468C98.1519 58.863 99.1209 59.2353 99.8635 59.856C101.032 60.8214 101.403 62.1822 101.57 62.835C101.752 63.5292 101.752 64.3889 101.756 66.0808C101.756 67.8324 101.756 68.7196 101.57 69.4C101.385 70.108 100.914 71.8734 99.6507 72.4757C99.3247 72.632 98.3421 72.9998 98.3421 72.9998C99.465 70.3149 99.5963 69.8828 99.5963 69.8828C100.108 68.2047 100.094 66.7934 100.085 65.9291C100.072 65.1061 100.049 63.5798 99.4741 62.0121C99.0303 60.7984 98.6228 60.1272 98.6228 60.1272C98.2289 59.4744 97.9256 59.1664 98.0161 59.0514V59.0468Z" fill="#AE8C1D"/>
<path d="M103.435 63.3235C103.435 59.8952 100.656 57.116 97.2277 57.116C93.7993 57.116 91.0201 59.8952 91.0201 63.3235V68.8501C91.0201 72.2784 93.7993 75.0576 97.2277 75.0576C100.656 75.0576 103.435 72.2784 103.435 68.8501V63.3235Z" stroke="#222222" stroke-width="5" stroke-linecap="round" stroke-linejoin="round"/>
</g>
<g filter="url(#filter1_d_222_952)">
<mask id="path-14-outside-1_222_952" maskUnits="userSpaceOnUse" x="126.972" y="50.4023" width="364" height="86" fill="black">
<rect fill="white" x="126.972" y="50.4023" width="364" height="86"/>
<path d="M135.049 129.878C133.902 129.878 132.972 128.949 132.972 127.802V59.4697C132.972 58.323 133.902 57.3933 135.049 57.3933H146.221C147.368 57.3933 148.297 58.323 148.297 59.4697V85.2241C148.297 86.3708 149.227 87.3004 150.374 87.3004H177.332C178.478 87.3004 179.408 86.3708 179.408 85.2241V59.4697C179.408 58.323 180.338 57.3933 181.484 57.3933H192.621C193.768 57.3933 194.698 58.323 194.698 59.4697V127.802C194.698 128.949 193.768 129.878 192.621 129.878H181.484C180.338 129.878 179.408 128.949 179.408 127.802V102.012C179.408 100.865 178.478 99.9358 177.332 99.9358H150.374C149.227 99.9358 148.297 100.865 148.297 102.012V127.802C148.297 128.949 147.368 129.878 146.221 129.878H135.049Z"/>
<path d="M217.569 130.905C214.1 130.905 211.009 130.303 208.296 129.1C205.582 127.873 203.435 126.068 201.854 123.684C200.297 121.278 199.518 118.281 199.518 114.695C199.518 111.674 200.073 109.138 201.182 107.085C202.291 105.032 203.801 103.381 205.712 102.13C207.623 100.88 209.794 99.9358 212.224 99.2987C214.678 98.6616 217.25 98.2133 219.94 97.9537C223.102 97.6234 225.65 97.3167 227.585 97.0335C229.52 96.7268 230.924 96.2785 231.797 95.6886C232.67 95.0987 233.106 94.2257 233.106 93.0695V92.8572C233.106 90.6156 232.398 88.8813 230.983 87.6544C229.591 86.4274 227.609 85.8139 225.037 85.8139C222.323 85.8139 220.164 86.4156 218.56 87.619C217.45 88.4353 216.599 89.3984 216.009 90.5084C215.545 91.3799 214.667 92.0211 213.683 91.9412L203.787 91.1374C202.538 91.0359 201.653 89.8534 202.051 88.6644C202.838 86.3095 204.023 84.215 205.606 82.3808C207.682 79.9505 210.36 78.0865 213.64 76.7887C216.943 75.4674 220.766 74.8067 225.107 74.8067C228.128 74.8067 231.018 75.1606 233.779 75.8685C236.563 76.5764 239.029 77.6735 241.176 79.1601C243.347 80.6466 245.057 82.5578 246.308 84.8937C247.558 87.2061 248.184 89.9785 248.184 93.2111V127.802C248.184 128.949 247.254 129.878 246.107 129.878H235.961C234.814 129.878 233.885 128.949 233.885 127.802V122.603C233.885 122.458 233.767 122.34 233.621 122.34C233.522 122.34 233.432 122.395 233.386 122.482C232.521 124.122 231.378 125.573 229.956 126.834C228.493 128.109 226.735 129.111 224.683 129.843C222.63 130.551 220.259 130.905 217.569 130.905ZM221.887 120.499C224.105 120.499 226.063 120.063 227.762 119.19C229.461 118.293 230.794 117.09 231.761 115.579C232.729 114.069 233.212 112.359 233.212 110.447V106.808C233.212 105.891 232.141 105.253 231.266 105.528C230.464 105.764 229.555 105.988 228.541 106.2C227.526 106.389 226.511 106.566 225.497 106.731C224.482 106.873 223.562 107.003 222.736 107.121C220.966 107.38 219.421 107.793 218.1 108.359C216.778 108.926 215.752 109.692 215.02 110.66C214.289 111.604 213.923 112.783 213.923 114.199C213.923 116.252 214.666 117.821 216.153 118.906C217.663 119.968 219.574 120.499 221.887 120.499Z"/>
<path d="M279.46 130.94C273.892 130.94 269.102 129.76 265.091 127.401C261.103 125.018 258.036 121.714 255.889 117.491C253.765 113.267 252.703 108.406 252.703 102.909C252.703 97.3403 253.777 92.456 255.924 88.2561C258.095 84.0325 261.174 80.7409 265.162 78.3814C269.149 75.9983 273.892 74.8067 279.39 74.8067C284.132 74.8067 288.285 75.6679 291.848 77.3904C295.411 79.1129 298.231 81.5314 300.307 84.646C302.017 87.2105 303.094 90.1429 303.54 93.4433C303.699 94.6205 302.744 95.6178 301.556 95.6178H291.304C290.275 95.6178 289.42 94.8565 289.141 93.8658C288.599 91.9485 287.661 90.3499 286.327 89.0701C284.628 87.3948 282.398 86.5572 279.637 86.5572C277.301 86.5572 275.26 87.1943 273.514 88.4684C271.792 89.719 270.447 91.5476 269.48 93.9543C268.512 96.3611 268.029 99.2751 268.029 102.696C268.029 106.165 268.5 109.114 269.444 111.545C270.412 113.975 271.768 115.827 273.514 117.101C275.26 118.376 277.301 119.013 279.637 119.013C281.36 119.013 282.905 118.659 284.274 117.951C285.666 117.243 286.81 116.217 287.707 114.872C288.333 113.941 288.811 112.885 289.142 111.704C289.42 110.713 290.274 109.952 291.304 109.952H301.542C302.735 109.952 303.692 110.957 303.527 112.139C303.069 115.401 302.008 118.329 300.342 120.924C298.337 124.062 295.564 126.516 292.025 128.286C288.486 130.055 284.298 130.94 279.46 130.94Z"/>
<path d="M402.921 78.2398C401.854 78.2398 400.987 77.4208 400.703 76.3918C400.157 74.4094 399.054 72.8075 397.395 71.5859C395.248 70.0051 392.334 69.2146 388.653 69.2146C386.152 69.2146 384.04 69.5685 382.318 70.2764C380.595 70.9607 379.274 71.9163 378.354 73.1432C377.457 74.3702 377.009 75.7623 377.009 77.3196C376.962 78.6174 377.233 79.7499 377.823 80.7173C378.436 81.6848 379.274 82.5224 380.336 83.2303C381.398 83.9145 382.625 84.5162 384.017 85.0353C385.409 85.5308 386.895 85.9555 388.476 86.3094L394.989 87.8667C398.15 88.5746 401.053 89.5184 403.695 90.6982C406.338 91.8779 408.627 93.3291 410.562 95.0515C412.496 96.774 413.995 98.8032 415.056 101.139C416.142 103.475 416.696 106.153 416.72 109.173C416.696 113.609 415.564 117.455 413.322 120.711C411.104 123.944 407.895 126.457 403.695 128.25C399.519 130.02 394.481 130.905 388.582 130.905C382.731 130.905 377.634 130.008 373.293 128.215C368.975 126.422 365.601 123.767 363.17 120.251C361.097 117.203 359.873 113.533 359.498 109.241C359.397 108.081 360.342 107.121 361.507 107.121H372.273C373.365 107.121 374.249 107.973 374.471 109.042C374.803 110.641 375.413 112.03 376.301 113.208C377.552 114.813 379.215 116.028 381.291 116.854C383.391 117.656 385.763 118.057 388.405 118.057C391.001 118.057 393.254 117.679 395.166 116.924C397.1 116.169 398.599 115.119 399.66 113.774C400.722 112.429 401.253 110.884 401.253 109.138C401.253 107.51 400.769 106.141 399.802 105.032C398.858 103.923 397.466 102.98 395.626 102.201C393.809 101.422 391.579 100.714 388.936 100.077L381.044 98.0953C374.933 96.6088 370.107 94.2847 366.568 91.1229C363.029 87.9611 361.271 83.7022 361.294 78.346C361.271 73.9573 362.439 70.123 364.798 66.8433C367.181 63.5635 370.449 61.0034 374.602 59.163C378.755 57.3226 383.474 56.4023 388.759 56.4023C394.139 56.4023 398.835 57.3226 402.846 59.163C406.881 61.0034 410.019 63.5635 412.26 66.8433C414.13 69.5788 415.245 72.6755 415.604 76.1332C415.724 77.2871 414.778 78.2398 413.618 78.2398H402.921Z"/>
<path d="M485.655 80.4604C485.878 81.6834 484.907 82.7701 483.664 82.7701H472.302C471.267 82.7701 470.406 82.0038 470.157 80.9995C469.835 79.6999 469.371 78.5087 468.764 77.4258C467.891 75.8449 466.77 74.5 465.401 73.391C464.033 72.282 462.452 71.4326 460.659 70.8427C458.889 70.2528 456.966 69.9579 454.889 69.9579C451.138 69.9579 447.87 70.8899 445.086 72.7539C442.301 74.5944 440.142 77.2842 438.609 80.8235C437.075 84.3392 436.308 88.61 436.308 93.6358C436.308 98.8032 437.075 103.145 438.609 106.66C440.166 110.176 442.337 112.831 445.121 114.624C447.905 116.417 451.126 117.314 454.783 117.314C456.836 117.314 458.736 117.042 460.482 116.5C462.251 115.957 463.82 115.167 465.189 114.128C466.557 113.067 467.69 111.781 468.587 110.271C469.229 109.216 469.734 108.057 470.1 106.796C470.381 105.829 471.231 105.106 472.237 105.111L483.669 105.163C484.91 105.169 485.876 106.258 485.623 107.474C485.1 109.986 484.223 112.428 482.992 114.801C481.411 117.868 479.275 120.617 476.585 123.047C473.919 125.454 470.734 127.365 467.029 128.781C463.348 130.173 459.184 130.869 454.536 130.869C448.07 130.869 442.29 129.406 437.193 126.481C432.12 123.555 428.109 119.319 425.159 113.774C422.234 108.23 420.771 101.517 420.771 93.6358C420.771 85.7314 422.257 79.0067 425.23 73.4618C428.203 67.9169 432.238 63.6933 437.335 60.7911C442.431 57.8653 448.165 56.4023 454.536 56.4023C458.736 56.4023 462.629 56.9922 466.215 58.172C469.825 59.3518 473.023 61.0742 475.807 63.3394C478.591 65.5809 480.856 68.3298 482.602 71.5859C484.041 74.2324 485.058 77.1905 485.655 80.4604Z"/>
<path d="M323.488 91.3696C323.488 93.3034 325.899 94.1872 327.148 92.7117L341.093 76.2489C341.488 75.7832 342.067 75.5146 342.677 75.5146H354.517C356.289 75.5146 357.247 77.5923 356.095 78.9398L339.913 97.8781C339.303 98.5929 339.248 99.6288 339.781 100.403L357.812 126.625C358.759 128.003 357.773 129.878 356.101 129.878H343.49C342.801 129.878 342.156 129.536 341.77 128.964L330.748 112.651C329.98 111.515 328.341 111.422 327.449 112.465L323.985 116.519C323.664 116.895 323.488 117.373 323.488 117.868V127.802C323.488 128.949 322.558 129.878 321.411 129.878H310.487C309.34 129.878 308.41 128.949 308.41 127.802V59.4697C308.41 58.323 309.34 57.3933 310.487 57.3933H321.411C322.558 57.3933 323.488 58.323 323.488 59.4697V91.3696Z"/>
</mask>
<path d="M135.049 129.878C133.902 129.878 132.972 128.949 132.972 127.802V59.4697C132.972 58.323 133.902 57.3933 135.049 57.3933H146.221C147.368 57.3933 148.297 58.323 148.297 59.4697V85.2241C148.297 86.3708 149.227 87.3004 150.374 87.3004H177.332C178.478 87.3004 179.408 86.3708 179.408 85.2241V59.4697C179.408 58.323 180.338 57.3933 181.484 57.3933H192.621C193.768 57.3933 194.698 58.323 194.698 59.4697V127.802C194.698 128.949 193.768 129.878 192.621 129.878H181.484C180.338 129.878 179.408 128.949 179.408 127.802V102.012C179.408 100.865 178.478 99.9358 177.332 99.9358H150.374C149.227 99.9358 148.297 100.865 148.297 102.012V127.802C148.297 128.949 147.368 129.878 146.221 129.878H135.049Z" fill="#F4F4F4"/>
<path d="M217.569 130.905C214.1 130.905 211.009 130.303 208.296 129.1C205.582 127.873 203.435 126.068 201.854 123.684C200.297 121.278 199.518 118.281 199.518 114.695C199.518 111.674 200.073 109.138 201.182 107.085C202.291 105.032 203.801 103.381 205.712 102.13C207.623 100.88 209.794 99.9358 212.224 99.2987C214.678 98.6616 217.25 98.2133 219.94 97.9537C223.102 97.6234 225.65 97.3167 227.585 97.0335C229.52 96.7268 230.924 96.2785 231.797 95.6886C232.67 95.0987 233.106 94.2257 233.106 93.0695V92.8572C233.106 90.6156 232.398 88.8813 230.983 87.6544C229.591 86.4274 227.609 85.8139 225.037 85.8139C222.323 85.8139 220.164 86.4156 218.56 87.619C217.45 88.4353 216.599 89.3984 216.009 90.5084C215.545 91.3799 214.667 92.0211 213.683 91.9412L203.787 91.1374C202.538 91.0359 201.653 89.8534 202.051 88.6644C202.838 86.3095 204.023 84.215 205.606 82.3808C207.682 79.9505 210.36 78.0865 213.64 76.7887C216.943 75.4674 220.766 74.8067 225.107 74.8067C228.128 74.8067 231.018 75.1606 233.779 75.8685C236.563 76.5764 239.029 77.6735 241.176 79.1601C243.347 80.6466 245.057 82.5578 246.308 84.8937C247.558 87.2061 248.184 89.9785 248.184 93.2111V127.802C248.184 128.949 247.254 129.878 246.107 129.878H235.961C234.814 129.878 233.885 128.949 233.885 127.802V122.603C233.885 122.458 233.767 122.34 233.621 122.34C233.522 122.34 233.432 122.395 233.386 122.482C232.521 124.122 231.378 125.573 229.956 126.834C228.493 128.109 226.735 129.111 224.683 129.843C222.63 130.551 220.259 130.905 217.569 130.905ZM221.887 120.499C224.105 120.499 226.063 120.063 227.762 119.19C229.461 118.293 230.794 117.09 231.761 115.579C232.729 114.069 233.212 112.359 233.212 110.447V106.808C233.212 105.891 232.141 105.253 231.266 105.528C230.464 105.764 229.555 105.988 228.541 106.2C227.526 106.389 226.511 106.566 225.497 106.731C224.482 106.873 223.562 107.003 222.736 107.121C220.966 107.38 219.421 107.793 218.1 108.359C216.778 108.926 215.752 109.692 215.02 110.66C214.289 111.604 213.923 112.783 213.923 114.199C213.923 116.252 214.666 117.821 216.153 118.906C217.663 119.968 219.574 120.499 221.887 120.499Z" fill="#F4F4F4"/>
<path d="M279.46 130.94C273.892 130.94 269.102 129.76 265.091 127.401C261.103 125.018 258.036 121.714 255.889 117.491C253.765 113.267 252.703 108.406 252.703 102.909C252.703 97.3403 253.777 92.456 255.924 88.2561C258.095 84.0325 261.174 80.7409 265.162 78.3814C269.149 75.9983 273.892 74.8067 279.39 74.8067C284.132 74.8067 288.285 75.6679 291.848 77.3904C295.411 79.1129 298.231 81.5314 300.307 84.646C302.017 87.2105 303.094 90.1429 303.54 93.4433C303.699 94.6205 302.744 95.6178 301.556 95.6178H291.304C290.275 95.6178 289.42 94.8565 289.141 93.8658C288.599 91.9485 287.661 90.3499 286.327 89.0701C284.628 87.3948 282.398 86.5572 279.637 86.5572C277.301 86.5572 275.26 87.1943 273.514 88.4684C271.792 89.719 270.447 91.5476 269.48 93.9543C268.512 96.3611 268.029 99.2751 268.029 102.696C268.029 106.165 268.5 109.114 269.444 111.545C270.412 113.975 271.768 115.827 273.514 117.101C275.26 118.376 277.301 119.013 279.637 119.013C281.36 119.013 282.905 118.659 284.274 117.951C285.666 117.243 286.81 116.217 287.707 114.872C288.333 113.941 288.811 112.885 289.142 111.704C289.42 110.713 290.274 109.952 291.304 109.952H301.542C302.735 109.952 303.692 110.957 303.527 112.139C303.069 115.401 302.008 118.329 300.342 120.924C298.337 124.062 295.564 126.516 292.025 128.286C288.486 130.055 284.298 130.94 279.46 130.94Z" fill="#F4F4F4"/>
<path d="M402.921 78.2398C401.854 78.2398 400.987 77.4208 400.703 76.3918C400.157 74.4094 399.054 72.8075 397.395 71.5859C395.248 70.0051 392.334 69.2146 388.653 69.2146C386.152 69.2146 384.04 69.5685 382.318 70.2764C380.595 70.9607 379.274 71.9163 378.354 73.1432C377.457 74.3702 377.009 75.7623 377.009 77.3196C376.962 78.6174 377.233 79.7499 377.823 80.7173C378.436 81.6848 379.274 82.5224 380.336 83.2303C381.398 83.9145 382.625 84.5162 384.017 85.0353C385.409 85.5308 386.895 85.9555 388.476 86.3094L394.989 87.8667C398.15 88.5746 401.053 89.5184 403.695 90.6982C406.338 91.8779 408.627 93.3291 410.562 95.0515C412.496 96.774 413.995 98.8032 415.056 101.139C416.142 103.475 416.696 106.153 416.72 109.173C416.696 113.609 415.564 117.455 413.322 120.711C411.104 123.944 407.895 126.457 403.695 128.25C399.519 130.02 394.481 130.905 388.582 130.905C382.731 130.905 377.634 130.008 373.293 128.215C368.975 126.422 365.601 123.767 363.17 120.251C361.097 117.203 359.873 113.533 359.498 109.241C359.397 108.081 360.342 107.121 361.507 107.121H372.273C373.365 107.121 374.249 107.973 374.471 109.042C374.803 110.641 375.413 112.03 376.301 113.208C377.552 114.813 379.215 116.028 381.291 116.854C383.391 117.656 385.763 118.057 388.405 118.057C391.001 118.057 393.254 117.679 395.166 116.924C397.1 116.169 398.599 115.119 399.66 113.774C400.722 112.429 401.253 110.884 401.253 109.138C401.253 107.51 400.769 106.141 399.802 105.032C398.858 103.923 397.466 102.98 395.626 102.201C393.809 101.422 391.579 100.714 388.936 100.077L381.044 98.0953C374.933 96.6088 370.107 94.2847 366.568 91.1229C363.029 87.9611 361.271 83.7022 361.294 78.346C361.271 73.9573 362.439 70.123 364.798 66.8433C367.181 63.5635 370.449 61.0034 374.602 59.163C378.755 57.3226 383.474 56.4023 388.759 56.4023C394.139 56.4023 398.835 57.3226 402.846 59.163C406.881 61.0034 410.019 63.5635 412.26 66.8433C414.13 69.5788 415.245 72.6755 415.604 76.1332C415.724 77.2871 414.778 78.2398 413.618 78.2398H402.921Z" fill="white"/>
<path d="M485.655 80.4604C485.878 81.6834 484.907 82.7701 483.664 82.7701H472.302C471.267 82.7701 470.406 82.0038 470.157 80.9995C469.835 79.6999 469.371 78.5087 468.764 77.4258C467.891 75.8449 466.77 74.5 465.401 73.391C464.033 72.282 462.452 71.4326 460.659 70.8427C458.889 70.2528 456.966 69.9579 454.889 69.9579C451.138 69.9579 447.87 70.8899 445.086 72.7539C442.301 74.5944 440.142 77.2842 438.609 80.8235C437.075 84.3392 436.308 88.61 436.308 93.6358C436.308 98.8032 437.075 103.145 438.609 106.66C440.166 110.176 442.337 112.831 445.121 114.624C447.905 116.417 451.126 117.314 454.783 117.314C456.836 117.314 458.736 117.042 460.482 116.5C462.251 115.957 463.82 115.167 465.189 114.128C466.557 113.067 467.69 111.781 468.587 110.271C469.229 109.216 469.734 108.057 470.1 106.796C470.381 105.829 471.231 105.106 472.237 105.111L483.669 105.163C484.91 105.169 485.876 106.258 485.623 107.474C485.1 109.986 484.223 112.428 482.992 114.801C481.411 117.868 479.275 120.617 476.585 123.047C473.919 125.454 470.734 127.365 467.029 128.781C463.348 130.173 459.184 130.869 454.536 130.869C448.07 130.869 442.29 129.406 437.193 126.481C432.12 123.555 428.109 119.319 425.159 113.774C422.234 108.23 420.771 101.517 420.771 93.6358C420.771 85.7314 422.257 79.0067 425.23 73.4618C428.203 67.9169 432.238 63.6933 437.335 60.7911C442.431 57.8653 448.165 56.4023 454.536 56.4023C458.736 56.4023 462.629 56.9922 466.215 58.172C469.825 59.3518 473.023 61.0742 475.807 63.3394C478.591 65.5809 480.856 68.3298 482.602 71.5859C484.041 74.2324 485.058 77.1905 485.655 80.4604Z" fill="white"/>
<path d="M323.488 91.3696C323.488 93.3034 325.899 94.1872 327.148 92.7117L341.093 76.2489C341.488 75.7832 342.067 75.5146 342.677 75.5146H354.517C356.289 75.5146 357.247 77.5923 356.095 78.9398L339.913 97.8781C339.303 98.5929 339.248 99.6288 339.781 100.403L357.812 126.625C358.759 128.003 357.773 129.878 356.101 129.878H343.49C342.801 129.878 342.156 129.536 341.77 128.964L330.748 112.651C329.98 111.515 328.341 111.422 327.449 112.465L323.985 116.519C323.664 116.895 323.488 117.373 323.488 117.868V127.802C323.488 128.949 322.558 129.878 321.411 129.878H310.487C309.34 129.878 308.41 128.949 308.41 127.802V59.4697C308.41 58.323 309.34 57.3933 310.487 57.3933H321.411C322.558 57.3933 323.488 58.323 323.488 59.4697V91.3696Z" fill="#F4F4F4"/>
<path d="M135.049 129.878C133.902 129.878 132.972 128.949 132.972 127.802V59.4697C132.972 58.323 133.902 57.3933 135.049 57.3933H146.221C147.368 57.3933 148.297 58.323 148.297 59.4697V85.2241C148.297 86.3708 149.227 87.3004 150.374 87.3004H177.332C178.478 87.3004 179.408 86.3708 179.408 85.2241V59.4697C179.408 58.323 180.338 57.3933 181.484 57.3933H192.621C193.768 57.3933 194.698 58.323 194.698 59.4697V127.802C194.698 128.949 193.768 129.878 192.621 129.878H181.484C180.338 129.878 179.408 128.949 179.408 127.802V102.012C179.408 100.865 178.478 99.9358 177.332 99.9358H150.374C149.227 99.9358 148.297 100.865 148.297 102.012V127.802C148.297 128.949 147.368 129.878 146.221 129.878H135.049Z" stroke="#2B2B2B" stroke-width="10.382" stroke-linejoin="round" mask="url(#path-14-outside-1_222_952)"/>
<path d="M217.569 130.905C214.1 130.905 211.009 130.303 208.296 129.1C205.582 127.873 203.435 126.068 201.854 123.684C200.297 121.278 199.518 118.281 199.518 114.695C199.518 111.674 200.073 109.138 201.182 107.085C202.291 105.032 203.801 103.381 205.712 102.13C207.623 100.88 209.794 99.9358 212.224 99.2987C214.678 98.6616 217.25 98.2133 219.94 97.9537C223.102 97.6234 225.65 97.3167 227.585 97.0335C229.52 96.7268 230.924 96.2785 231.797 95.6886C232.67 95.0987 233.106 94.2257 233.106 93.0695V92.8572C233.106 90.6156 232.398 88.8813 230.983 87.6544C229.591 86.4274 227.609 85.8139 225.037 85.8139C222.323 85.8139 220.164 86.4156 218.56 87.619C217.45 88.4353 216.599 89.3984 216.009 90.5084C215.545 91.3799 214.667 92.0211 213.683 91.9412L203.787 91.1374C202.538 91.0359 201.653 89.8534 202.051 88.6644C202.838 86.3095 204.023 84.215 205.606 82.3808C207.682 79.9505 210.36 78.0865 213.64 76.7887C216.943 75.4674 220.766 74.8067 225.107 74.8067C228.128 74.8067 231.018 75.1606 233.779 75.8685C236.563 76.5764 239.029 77.6735 241.176 79.1601C243.347 80.6466 245.057 82.5578 246.308 84.8937C247.558 87.2061 248.184 89.9785 248.184 93.2111V127.802C248.184 128.949 247.254 129.878 246.107 129.878H235.961C234.814 129.878 233.885 128.949 233.885 127.802V122.603C233.885 122.458 233.767 122.34 233.621 122.34C233.522 122.34 233.432 122.395 233.386 122.482C232.521 124.122 231.378 125.573 229.956 126.834C228.493 128.109 226.735 129.111 224.683 129.843C222.63 130.551 220.259 130.905 217.569 130.905ZM221.887 120.499C224.105 120.499 226.063 120.063 227.762 119.19C229.461 118.293 230.794 117.09 231.761 115.579C232.729 114.069 233.212 112.359 233.212 110.447V106.808C233.212 105.891 232.141 105.253 231.266 105.528C230.464 105.764 229.555 105.988 228.541 106.2C227.526 106.389 226.511 106.566 225.497 106.731C224.482 106.873 223.562 107.003 222.736 107.121C220.966 107.38 219.421 107.793 218.1 108.359C216.778 108.926 215.752 109.692 215.02 110.66C214.289 111.604 213.923 112.783 213.923 114.199C213.923 116.252 214.666 117.821 216.153 118.906C217.663 119.968 219.574 120.499 221.887 120.499Z" stroke="#2B2B2B" stroke-width="10.382" stroke-linejoin="round" mask="url(#path-14-outside-1_222_952)"/>
<path d="M279.46 130.94C273.892 130.94 269.102 129.76 265.091 127.401C261.103 125.018 258.036 121.714 255.889 117.491C253.765 113.267 252.703 108.406 252.703 102.909C252.703 97.3403 253.777 92.456 255.924 88.2561C258.095 84.0325 261.174 80.7409 265.162 78.3814C269.149 75.9983 273.892 74.8067 279.39 74.8067C284.132 74.8067 288.285 75.6679 291.848 77.3904C295.411 79.1129 298.231 81.5314 300.307 84.646C302.017 87.2105 303.094 90.1429 303.54 93.4433C303.699 94.6205 302.744 95.6178 301.556 95.6178H291.304C290.275 95.6178 289.42 94.8565 289.141 93.8658C288.599 91.9485 287.661 90.3499 286.327 89.0701C284.628 87.3948 282.398 86.5572 279.637 86.5572C277.301 86.5572 275.26 87.1943 273.514 88.4684C271.792 89.719 270.447 91.5476 269.48 93.9543C268.512 96.3611 268.029 99.2751 268.029 102.696C268.029 106.165 268.5 109.114 269.444 111.545C270.412 113.975 271.768 115.827 273.514 117.101C275.26 118.376 277.301 119.013 279.637 119.013C281.36 119.013 282.905 118.659 284.274 117.951C285.666 117.243 286.81 116.217 287.707 114.872C288.333 113.941 288.811 112.885 289.142 111.704C289.42 110.713 290.274 109.952 291.304 109.952H301.542C302.735 109.952 303.692 110.957 303.527 112.139C303.069 115.401 302.008 118.329 300.342 120.924C298.337 124.062 295.564 126.516 292.025 128.286C288.486 130.055 284.298 130.94 279.46 130.94Z" stroke="#2B2B2B" stroke-width="10.382" stroke-linejoin="round" mask="url(#path-14-outside-1_222_952)"/>
<path d="M402.921 78.2398C401.854 78.2398 400.987 77.4208 400.703 76.3918C400.157 74.4094 399.054 72.8075 397.395 71.5859C395.248 70.0051 392.334 69.2146 388.653 69.2146C386.152 69.2146 384.04 69.5685 382.318 70.2764C380.595 70.9607 379.274 71.9163 378.354 73.1432C377.457 74.3702 377.009 75.7623 377.009 77.3196C376.962 78.6174 377.233 79.7499 377.823 80.7173C378.436 81.6848 379.274 82.5224 380.336 83.2303C381.398 83.9145 382.625 84.5162 384.017 85.0353C385.409 85.5308 386.895 85.9555 388.476 86.3094L394.989 87.8667C398.15 88.5746 401.053 89.5184 403.695 90.6982C406.338 91.8779 408.627 93.3291 410.562 95.0515C412.496 96.774 413.995 98.8032 415.056 101.139C416.142 103.475 416.696 106.153 416.72 109.173C416.696 113.609 415.564 117.455 413.322 120.711C411.104 123.944 407.895 126.457 403.695 128.25C399.519 130.02 394.481 130.905 388.582 130.905C382.731 130.905 377.634 130.008 373.293 128.215C368.975 126.422 365.601 123.767 363.17 120.251C361.097 117.203 359.873 113.533 359.498 109.241C359.397 108.081 360.342 107.121 361.507 107.121H372.273C373.365 107.121 374.249 107.973 374.471 109.042C374.803 110.641 375.413 112.03 376.301 113.208C377.552 114.813 379.215 116.028 381.291 116.854C383.391 117.656 385.763 118.057 388.405 118.057C391.001 118.057 393.254 117.679 395.166 116.924C397.1 116.169 398.599 115.119 399.66 113.774C400.722 112.429 401.253 110.884 401.253 109.138C401.253 107.51 400.769 106.141 399.802 105.032C398.858 103.923 397.466 102.98 395.626 102.201C393.809 101.422 391.579 100.714 388.936 100.077L381.044 98.0953C374.933 96.6088 370.107 94.2847 366.568 91.1229C363.029 87.9611 361.271 83.7022 361.294 78.346C361.271 73.9573 362.439 70.123 364.798 66.8433C367.181 63.5635 370.449 61.0034 374.602 59.163C378.755 57.3226 383.474 56.4023 388.759 56.4023C394.139 56.4023 398.835 57.3226 402.846 59.163C406.881 61.0034 410.019 63.5635 412.26 66.8433C414.13 69.5788 415.245 72.6755 415.604 76.1332C415.724 77.2871 414.778 78.2398 413.618 78.2398H402.921Z" stroke="#2B2B2B" stroke-width="10.382" stroke-linejoin="round" mask="url(#path-14-outside-1_222_952)"/>
<path d="M485.655 80.4604C485.878 81.6834 484.907 82.7701 483.664 82.7701H472.302C471.267 82.7701 470.406 82.0038 470.157 80.9995C469.835 79.6999 469.371 78.5087 468.764 77.4258C467.891 75.8449 466.77 74.5 465.401 73.391C464.033 72.282 462.452 71.4326 460.659 70.8427C458.889 70.2528 456.966 69.9579 454.889 69.9579C451.138 69.9579 447.87 70.8899 445.086 72.7539C442.301 74.5944 440.142 77.2842 438.609 80.8235C437.075 84.3392 436.308 88.61 436.308 93.6358C436.308 98.8032 437.075 103.145 438.609 106.66C440.166 110.176 442.337 112.831 445.121 114.624C447.905 116.417 451.126 117.314 454.783 117.314C456.836 117.314 458.736 117.042 460.482 116.5C462.251 115.957 463.82 115.167 465.189 114.128C466.557 113.067 467.69 111.781 468.587 110.271C469.229 109.216 469.734 108.057 470.1 106.796C470.381 105.829 471.231 105.106 472.237 105.111L483.669 105.163C484.91 105.169 485.876 106.258 485.623 107.474C485.1 109.986 484.223 112.428 482.992 114.801C481.411 117.868 479.275 120.617 476.585 123.047C473.919 125.454 470.734 127.365 467.029 128.781C463.348 130.173 459.184 130.869 454.536 130.869C448.07 130.869 442.29 129.406 437.193 126.481C432.12 123.555 428.109 119.319 425.159 113.774C422.234 108.23 420.771 101.517 420.771 93.6358C420.771 85.7314 422.257 79.0067 425.23 73.4618C428.203 67.9169 432.238 63.6933 437.335 60.7911C442.431 57.8653 448.165 56.4023 454.536 56.4023C458.736 56.4023 462.629 56.9922 466.215 58.172C469.825 59.3518 473.023 61.0742 475.807 63.3394C478.591 65.5809 480.856 68.3298 482.602 71.5859C484.041 74.2324 485.058 77.1905 485.655 80.4604Z" stroke="#2B2B2B" stroke-width="10.382" stroke-linejoin="round" mask="url(#path-14-outside-1_222_952)"/>
<path d="M323.488 91.3696C323.488 93.3034 325.899 94.1872 327.148 92.7117L341.093 76.2489C341.488 75.7832 342.067 75.5146 342.677 75.5146H354.517C356.289 75.5146 357.247 77.5923 356.095 78.9398L339.913 97.8781C339.303 98.5929 339.248 99.6288 339.781 100.403L357.812 126.625C358.759 128.003 357.773 129.878 356.101 129.878H343.49C342.801 129.878 342.156 129.536 341.77 128.964L330.748 112.651C329.98 111.515 328.341 111.422 327.449 112.465L323.985 116.519C323.664 116.895 323.488 117.373 323.488 117.868V127.802C323.488 128.949 322.558 129.878 321.411 129.878H310.487C309.34 129.878 308.41 128.949 308.41 127.802V59.4697C308.41 58.323 309.34 57.3933 310.487 57.3933H321.411C322.558 57.3933 323.488 58.323 323.488 59.4697V91.3696Z" stroke="#2B2B2B" stroke-width="10.382" stroke-linejoin="round" mask="url(#path-14-outside-1_222_952)"/>
</g>
<defs>
<filter id="filter0_d_222_952" x="0.012207" y="0.0124512" width="198.438" height="175.731" filterUnits="userSpaceOnUse" color-interpolation-filters="sRGB">
<feFlood flood-opacity="0" result="BackgroundImageFix"/>
<feColorMatrix in="SourceAlpha" type="matrix" values="0 0 0 0 0 0 0 0 0 0 0 0 0 0 0 0 0 0 127 0" result="hardAlpha"/>
<feOffset/>
<feGaussianBlur stdDeviation="11.2439"/>
<feComposite in2="hardAlpha" operator="out"/>
<feColorMatrix type="matrix" values="0 0 0 0 1 0 0 0 0 0.9 0 0 0 0 0.9 0 0 0 0.25 0"/>
<feBlend mode="normal" in2="BackgroundImageFix" result="effect1_dropShadow_222_952"/>
<feBlend mode="normal" in="SourceGraphic" in2="effect1_dropShadow_222_952" result="shape"/>
</filter>
<filter id="filter1_d_222_952" x="105.294" y="28.7236" width="408.077" height="129.895" filterUnits="userSpaceOnUse" color-interpolation-filters="sRGB">
<feFlood flood-opacity="0" result="BackgroundImageFix"/>
<feColorMatrix in="SourceAlpha" type="matrix" values="0 0 0 0 0 0 0 0 0 0 0 0 0 0 0 0 0 0 127 0" result="hardAlpha"/>
<feOffset/>
<feGaussianBlur stdDeviation="11.2439"/>
<feComposite in2="hardAlpha" operator="out"/>
<feColorMatrix type="matrix" values="0 0 0 0 1 0 0 0 0 0.9 0 0 0 0 0.9 0 0 0 0.25 0"/>
<feBlend mode="normal" in2="BackgroundImageFix" result="effect1_dropShadow_222_952"/>
<feBlend mode="normal" in="SourceGraphic" in2="effect1_dropShadow_222_952" result="shape"/>
</filter>
</defs>
</svg>
