<svg width="175" height="42" viewBox="0 0 175 42" fill="none" xmlns="http://www.w3.org/2000/svg">
<g clip-path="url(#clip0_318_987)">
<path d="M97.8637 0.0205078H89.6837V40.3729H97.8637V0.0205078Z" fill="black"/>
<path d="M116.796 39.8287C116.796 40.0628 116.787 40.2945 116.778 40.524H107.9C107.923 40.2945 107.934 40.0628 107.934 39.8287C107.934 35.8796 104.733 32.6758 100.784 32.6758C100.731 32.6758 100.681 32.6803 100.629 32.6803V23.8209C100.681 23.8209 100.731 23.8164 100.784 23.8164C109.627 23.8164 116.796 30.9853 116.796 39.8287Z" fill="black"/>
<path d="M114.96 10.5449C114.594 19.0657 107.575 25.862 98.9658 25.862C98.9135 25.862 98.8635 25.8574 98.8113 25.8574V16.998C98.8635 16.998 98.9135 17.0003 98.9658 17.0003C102.681 17.0003 105.732 14.1691 106.082 10.5449H114.96Z" fill="black"/>
<path d="M100.638 25.178V16.998H90.588V25.178H100.638Z" fill="black"/>
<path d="M100.629 32.679V24.499H90.579V32.679H100.629Z" fill="black"/>
<path d="M28.4316 35.5877C27.5567 34.338 27.2432 32.8428 27.5272 31.2591C27.9067 29.1527 29.3336 26.9873 31.7717 24.7946V24.7106H31.7626C31.7581 24.5038 31.7467 24.2993 31.7331 24.0948C27.6204 20.0298 27.5045 16.8964 28.0635 15.0423C25.23 11.7294 21.0218 9.62756 16.3206 9.62756C13.5122 9.62756 10.8787 10.3819 8.6087 11.6907V0.172852H0.428711V40.5252H12.2284V31.0864C10.3083 29.7776 9.04724 27.5736 9.04724 25.0741C9.04724 21.0591 12.3033 17.803 16.3183 17.803C20.3334 17.803 23.5895 21.0591 23.5895 25.0741C23.5895 27.5736 22.3284 29.7776 20.4083 31.0864V39.9776C20.4083 39.9776 20.4083 39.9776 20.4106 39.9776V40.5252H23.5917H31.7717V37.8985C30.1153 37.485 29.0678 36.492 28.4316 35.5877Z" fill="black"/>
<path d="M72.7671 32.3443C68.7521 32.3443 65.496 29.0882 65.496 25.0732C65.496 21.0582 68.7521 17.8021 72.7671 17.8021C75.2665 17.8021 77.4706 19.0631 78.7794 20.9832H88.0864C86.2936 14.4346 80.304 9.62207 73.1875 9.62207C66.7707 9.62207 61.2674 13.5348 58.9338 19.104C60.0722 19.6039 61.0084 20.2243 61.7286 20.9741C62.842 22.1352 63.4101 23.5553 63.3737 25.08C63.3306 26.8387 62.5467 29.3631 58.8566 30.8446C61.1447 36.5183 66.6957 40.5243 73.1897 40.5243C80.3063 40.5243 86.2959 35.7117 88.0887 29.1632H78.7817C77.4729 31.0832 75.2688 32.3443 72.7694 32.3443H72.7671Z" fill="black"/>
<path d="M45.9845 30.6138L41.6469 31.9408C43.7986 39.0596 46.5253 40.991 48.9043 40.273C51.2856 39.5527 52.3649 36.0421 50.329 29.3027L45.9868 30.6161L45.9845 30.6138Z" fill="#FF6347"/>
<path d="M50.4312 24.8441L50.3358 29.3249C57.8637 29.4499 60.5835 27.4685 60.6449 25.0145C60.7062 22.556 57.6683 20.4837 50.5426 20.3633L50.4312 24.8441Z" fill="#FF6347"/>
<path d="M50.5494 20.3088L46.2685 18.866L42.0581 17.4299L42.0149 17.4163L41.9922 17.4095C41.9967 17.3958 42.0036 17.3799 42.0081 17.364C42.0104 17.3549 42.0126 17.3481 42.0149 17.3413C44.1122 11.4812 46.6616 9.07723 48.8407 9.16131C49.1224 9.17039 49.3951 9.22266 49.6609 9.31354C50.1176 9.46806 50.5221 9.71118 50.8652 10.0588C52.2763 11.4881 52.5603 14.6396 50.5471 20.3088H50.5494Z" fill="#FF6347"/>
<path d="M41.9968 17.4139L39.2565 21.0018L36.8661 24.1079L36.8366 24.1488L36.5139 24.5692L36.5048 24.5828C36.5048 24.5828 36.4912 24.5714 36.4844 24.5669C31.4037 20.7564 29.9177 17.5844 30.7743 15.5575C30.8584 15.3576 30.9629 15.1713 31.0924 14.9963C31.0924 14.994 31.0947 14.9918 31.0947 14.9918C31.1106 14.9713 31.1242 14.9486 31.1424 14.9281C32.6511 12.9672 36.0163 12.9377 41.9991 17.4162L41.9968 17.4139Z" fill="#FF6347"/>
<path d="M39.0724 28.2224L41.6332 31.8988C35.4346 36.1729 32.0717 36.0297 30.663 34.0211C29.2519 32.0079 30.6311 28.5996 36.498 24.5527L39.0724 28.2224Z" fill="#FF6347"/>
<path d="M132.022 41.3428C124.058 41.3428 119.379 37.5641 119.02 30.4543C119.02 30.1839 119.245 29.959 119.516 29.959H122.845C123.115 29.959 123.34 30.1839 123.385 30.4543C123.79 35.1328 126.085 37.9685 132.113 37.9685C136.837 37.9685 140.166 36.2598 140.166 32.1198C140.166 23.3922 119.65 29.7817 119.65 17.8139C119.65 12.0561 124.24 8.77051 131.122 8.77051C138.366 8.77051 142.82 11.7857 143.54 18.173C143.585 18.4433 143.36 18.6683 143.09 18.6683H139.716C139.445 18.6683 139.22 18.4433 139.175 18.173C138.771 14.1693 136.117 12.1902 131.077 12.1902C126.803 12.1902 123.744 13.8103 123.744 17.4095C123.744 25.5077 144.26 19.2545 144.26 31.5813C144.26 38.0594 139.132 41.3428 132.022 41.3428Z" fill="black"/>
<path d="M160.95 41.3858C151.727 41.3858 146.237 35.1781 146.237 25.0099C146.237 14.8417 151.861 8.72266 160.95 8.72266C167.203 8.72266 172.513 11.5561 174.042 19.6543C174.088 19.9247 173.908 20.1496 173.638 20.1496H170.488C170.218 20.1496 169.948 19.9247 169.904 19.6543C168.914 14.5259 165.496 12.1855 160.861 12.1855C154.292 12.1855 150.559 17.1344 150.559 25.0077C150.559 33.5103 154.428 37.9207 160.861 37.9207C166.035 37.9207 169.409 35.0872 170.129 29.777C170.175 29.5067 170.4 29.2817 170.67 29.2817H173.865C174.135 29.2817 174.315 29.5067 174.315 29.777C173.099 37.6957 168.107 41.3835 160.952 41.3835L160.95 41.3858Z" fill="black"/>
</g>
<defs>
<clipPath id="clip0_318_987">
<rect width="173.884" height="41.3658" fill="white" transform="translate(0.428711 0.0205078)"/>
</clipPath>
</defs>
</svg>
