<svg width="233" height="88" viewBox="0 0 233 88" fill="none" xmlns="http://www.w3.org/2000/svg">
<g filter="url(#filter0_d_505_525)">
<path d="M73.7428 40.6194H59.6953V49.7641H73.7428V40.6194Z" fill="#DF614A" stroke="#222222" stroke-width="2.14702" stroke-linecap="round" stroke-linejoin="round"/>
<path d="M53.5983 59.043C53.5983 59.043 41.0376 70.425 39.8939 70.9181C38.7502 71.4111 30.1849 69.5634 29.3233 68.4603C28.4617 67.3573 26.8808 53.3784 27.3866 52.3872C27.8924 51.3959 43.0201 46.572 43.0201 46.572L25.6736 46.943C25.6736 46.943 17.426 42.7443 17.0397 42.1343C16.6534 41.5243 19.195 34.9339 19.9143 34.0672C20.6336 33.2006 31.0643 28.1173 31.8166 28.2597C32.5715 28.402 42.4635 36.2988 42.4635 36.2988C42.4635 36.2988 34.3989 25.7689 34.2744 25.0217C34.1498 24.2744 38.9814 18.0068 39.3169 17.8416C39.6499 17.6764 42.3872 17.989 44.2832 17.8416C46.1793 17.6942 48.1007 16.9825 48.4083 17.0003C49.064 17.041 57.4996 22.0734 57.6521 22.4241C57.8046 22.7723 56.8108 27.5429 56.8108 27.5429C56.8108 27.5429 59.4795 21.5015 59.8659 21.3566C60.2522 21.2118 71.0845 22.0785 71.8597 22.2742C72.6349 22.4699 78.44 27.9725 78.5823 28.3842C78.7221 28.7959 74.2285 41.5218 74.2285 41.5218C74.2285 41.5218 80.7503 52.9845 80.7503 53.6453C80.7503 54.3061 75.9593 63.0086 74.7622 63.2526C73.5652 63.4966 57.6521 61.4091 57.6521 61.4091L53.1238 53.2121" fill="#FE5139"/>
<path d="M74.2285 41.5218C74.2285 41.5218 78.7221 28.7959 78.5823 28.3842C78.44 27.9725 72.6349 22.4699 71.8597 22.2742C71.0845 22.0785 60.2522 21.2118 59.8659 21.3566C59.4795 21.5015 56.8108 27.5429 56.8108 27.5429C56.8108 27.5429 57.8046 22.7723 57.6521 22.4241C57.4996 22.0734 49.064 17.041 48.4083 17.0003C48.1008 16.9825 46.1793 17.6942 44.2832 17.8416C42.3872 17.989 39.6499 17.6764 39.3169 17.8416C38.9814 18.0068 34.1498 24.2744 34.2744 25.0217C34.3989 25.7689 42.4635 36.2988 42.4635 36.2988C42.4635 36.2988 32.5715 28.402 31.8166 28.2597C31.0643 28.1173 20.6336 33.2006 19.9143 34.0672C19.195 34.9339 16.6534 41.5243 17.0397 42.1343C17.426 42.7443 25.6736 46.943 25.6736 46.943L43.0201 46.572C43.0201 46.572 27.8924 51.3959 27.3866 52.3872C26.8808 53.3784 28.4617 67.3573 29.3233 68.4603C30.1849 69.5634 38.7502 71.4111 39.8939 70.9181C41.0376 70.425 53.5983 59.043 53.5983 59.043L53.1238 53.2121L57.6521 61.4091C57.6521 61.4091 73.5652 63.4966 74.7622 63.2526C75.9593 63.0086 80.7503 54.3061 80.7503 53.6453C80.7503 52.9845 74.2285 41.5218 74.2285 41.5218ZM74.2285 41.5218L65.6734 42.1318" stroke="#222222" stroke-width="2.14702" stroke-linecap="round" stroke-linejoin="round"/>
<path d="M52.4937 49.691L52.7827 53.5926C52.7847 53.6202 52.7935 53.6469 52.8082 53.6703L57.6442 61.3412C57.6713 61.3842 57.7163 61.4127 57.7667 61.4188L67.3843 62.5935C67.5823 62.6177 67.6515 62.339 67.4651 62.2678L59.5106 59.2306C59.4787 59.2185 59.4513 59.197 59.4318 59.1689L52.8012 49.5824C52.7032 49.4408 52.4809 49.5193 52.4937 49.691Z" fill="#AF3322" fill-opacity="0.6"/>
<path d="M54.1341 35.1869L57.1694 27.6338C57.1765 27.6162 57.1805 27.5976 57.1814 27.5788L57.429 22.3811C57.4318 22.3207 57.4022 22.2634 57.3513 22.2308L54.5659 20.4452C54.429 20.3575 54.2593 20.4946 54.3164 20.6468L55.643 24.1844C55.6535 24.2124 55.6564 24.2426 55.6514 24.2721L53.8106 35.0956C53.7767 35.2952 54.0586 35.3748 54.1341 35.1869Z" fill="#AF3322" fill-opacity="0.6"/>
<path d="M42.7647 36.1095L46.2565 41.2984C46.3619 41.4549 46.1703 41.6403 46.0173 41.5297L36.2229 34.452L31.0681 28.4522H31.9132L42.6786 36.0217C42.7124 36.0454 42.7416 36.0752 42.7647 36.1095Z" fill="#AF3322" fill-opacity="0.6"/>
<path d="M74.2621 41.8996L58.8661 42.9993C58.6757 43.0129 58.6123 42.7499 58.7879 42.6752L65.1719 39.9601C65.1957 39.95 65.2215 39.9455 65.2474 39.9469L74.2594 40.443C74.349 40.4479 74.4191 40.522 74.4191 40.6118V41.731C74.4191 41.8197 74.3506 41.8933 74.2621 41.8996Z" fill="#AF3322" fill-opacity="0.6"/>
<path d="M47.2143 46.0596L43.0128 46.1974C42.9934 46.198 42.9742 46.202 42.9561 46.2092L27.5413 52.3249C27.4769 52.3504 27.4346 52.4127 27.4346 52.4819V54.0573V56.9991C27.4346 57.1537 27.625 57.2271 27.7289 57.1125L31.4654 52.9867C31.4821 52.9683 31.5027 52.9537 31.5257 52.9442L47.2848 46.3846C47.4582 46.3124 47.4021 46.0535 47.2143 46.0596Z" fill="#AF3322" fill-opacity="0.6"/>
<path d="M74.2285 41.5218C74.2285 41.5218 78.7221 28.7959 78.5823 28.3842C78.44 27.9725 72.6349 22.4699 71.8597 22.2742C71.0845 22.0785 60.2522 21.2118 59.8659 21.3566C59.4795 21.5015 56.8108 27.5429 56.8108 27.5429C56.8108 27.5429 57.8046 22.7723 57.6521 22.4241C57.4996 22.0734 49.064 17.041 48.4083 17.0003C48.1008 16.9825 46.1793 17.6942 44.2832 17.8416C42.3872 17.989 39.6499 17.6764 39.3169 17.8416C38.9814 18.0068 34.1498 24.2744 34.2744 25.0217C34.3989 25.7689 42.4635 36.2988 42.4635 36.2988C42.4635 36.2988 32.5715 28.402 31.8166 28.2597C31.0643 28.1173 20.6336 33.2006 19.9143 34.0672C19.195 34.9339 16.6534 41.5243 17.0397 42.1343C17.426 42.7443 25.6736 46.943 25.6736 46.943L43.0201 46.572C43.0201 46.572 27.8924 51.3959 27.3866 52.3872C26.8808 53.3784 28.4617 67.3573 29.3233 68.4603C30.1849 69.5634 38.7502 71.4111 39.8939 70.9181C41.0376 70.425 53.5983 59.043 53.5983 59.043L53.1238 53.2121L57.6521 61.4091C57.6521 61.4091 73.5652 63.4966 74.7622 63.2526C75.9593 63.0086 80.7503 54.3061 80.7503 53.6453C80.7503 52.9845 74.2285 41.5218 74.2285 41.5218ZM74.2285 41.5218L65.6734 42.1318" stroke="#222222" stroke-width="2.14702" stroke-linecap="round" stroke-linejoin="round"/>
<path d="M47.6917 38.9597L49.4098 44.4165C49.4098 44.4165 49.7758 44.6275 50.3248 44.4165C50.8737 44.2056 50.8737 43.5905 50.8737 43.5905C50.8737 43.5905 49.5114 39.8747 49.2827 38.9597C49.054 38.0447 47.6917 38.9597 47.6917 38.9597Z" fill="#FFD13C" stroke="#222222" stroke-width="2.14702" stroke-linecap="round" stroke-linejoin="round"/>
<path d="M50.6802 33.4564C50.6802 31.9843 49.4868 30.7908 48.0147 30.7908C46.5425 30.7908 45.3491 31.9843 45.3491 33.4564V35.8295C45.3491 37.3017 46.5425 38.4951 48.0147 38.4951C49.4868 38.4951 50.6802 37.3017 50.6802 35.8295V33.4564Z" fill="#FFD13C" stroke="#222222" stroke-width="2.14702" stroke-linecap="round" stroke-linejoin="round"/>
<path d="M48.3534 31.6199C48.4117 31.5409 48.8278 31.7008 49.1466 31.9673C49.6482 32.3819 49.8077 32.9662 49.8796 33.2465C49.9574 33.5446 49.9574 33.9138 49.9593 34.6403C49.9593 35.3924 49.9593 35.7734 49.8796 36.0656C49.7999 36.3696 49.5977 37.1277 49.0552 37.3863C48.9152 37.4534 48.4933 37.6113 48.4933 37.6113C48.9755 36.4584 49.0319 36.2729 49.0319 36.2729C49.2516 35.5523 49.2458 34.9463 49.2419 34.5751C49.2361 34.2218 49.2263 33.5664 48.9794 32.8932C48.7889 32.372 48.6139 32.0838 48.6139 32.0838C48.4447 31.8035 48.3145 31.6712 48.3534 31.6218V31.6199Z" fill="#AE8C1D"/>
<path d="M50.6802 33.4564C50.6802 31.9843 49.4868 30.7908 48.0147 30.7908C46.5425 30.7908 45.3491 31.9843 45.3491 33.4564V35.8295C45.3491 37.3017 46.5425 38.4951 48.0147 38.4951C49.4868 38.4951 50.6802 37.3017 50.6802 35.8295V33.4564Z" stroke="#222222" stroke-width="2.14702" stroke-linecap="round" stroke-linejoin="round"/>
<mask id="path-14-outside-1_505_525" maskUnits="userSpaceOnUse" x="60.364" y="27.4842" width="157" height="38" fill="black">
<rect fill="white" x="60.364" y="27.4842" width="157" height="38"/>
<path d="M64.2556 62.0352C63.7632 62.0352 63.364 61.636 63.364 61.1435V31.8014C63.364 31.309 63.7632 30.9098 64.2556 30.9098H69.0531C69.5455 30.9098 69.9447 31.309 69.9447 31.8014V42.8604C69.9447 43.3528 70.3439 43.752 70.8363 43.752H82.4121C82.9045 43.752 83.3037 43.3528 83.3037 42.8604V31.8014C83.3037 31.309 83.7029 30.9098 84.1953 30.9098H88.9776C89.47 30.9098 89.8692 31.309 89.8692 31.8014V61.1435C89.8692 61.636 89.47 62.0352 88.9776 62.0352H84.1953C83.7029 62.0352 83.3037 61.636 83.3037 61.1435V50.0693C83.3037 49.5769 82.9045 49.1777 82.4121 49.1777H70.8363C70.3439 49.1777 69.9447 49.5769 69.9447 50.0693V61.1435C69.9447 61.636 69.5455 62.0352 69.0531 62.0352H64.2556Z"/>
<path d="M99.6901 62.4759C98.2007 62.4759 96.8734 62.2175 95.7083 61.7008C94.5431 61.1739 93.6211 60.3988 92.9422 59.3755C92.2735 58.3421 91.9392 57.0553 91.9392 55.5152C91.9392 54.2183 92.1773 53.1292 92.6535 52.2477C93.1297 51.3662 93.7781 50.657 94.5988 50.12C95.4195 49.583 96.3516 49.1777 97.3952 48.9041C98.449 48.6306 99.5533 48.4381 100.708 48.3266C102.066 48.1848 103.16 48.0531 103.991 47.9315C104.822 47.7998 105.425 47.6072 105.8 47.3539C106.175 47.1006 106.362 46.7258 106.362 46.2293V46.1381C106.362 45.1756 106.058 44.4309 105.45 43.904C104.852 43.3772 104.001 43.1137 102.897 43.1137C101.732 43.1137 100.805 43.3721 100.116 43.8888C99.639 44.2393 99.2738 44.6529 99.0202 45.1295C98.8211 45.5038 98.4443 45.7791 98.0218 45.7448L93.7724 45.3997C93.2358 45.3561 92.8559 44.8483 93.0267 44.3377C93.3649 43.3265 93.8737 42.4271 94.5532 41.6395C95.4448 40.5959 96.5948 39.7955 98.0032 39.2382C99.4216 38.6709 101.063 38.3872 102.927 38.3872C104.224 38.3872 105.465 38.5391 106.651 38.8431C107.846 39.1471 108.905 39.6182 109.827 40.2565C110.759 40.8948 111.494 41.7155 112.031 42.7186C112.568 43.7115 112.836 44.902 112.836 46.2901V61.1435C112.836 61.636 112.437 62.0352 111.945 62.0352H107.588C107.096 62.0352 106.696 61.636 106.696 61.1435V58.9112C106.696 58.8487 106.646 58.798 106.583 58.798C106.541 58.798 106.502 58.8218 106.482 58.8593C106.111 59.5636 105.62 60.1865 105.009 60.7281C104.381 61.2753 103.626 61.7059 102.745 62.02C101.863 62.3239 100.845 62.4759 99.6901 62.4759ZM101.544 58.0077C102.497 58.0077 103.338 57.8203 104.067 57.4454C104.797 57.0604 105.369 56.5436 105.784 55.8952C106.2 55.2467 106.408 54.5122 106.408 53.6915V52.1289C106.408 51.735 105.947 51.4609 105.572 51.579C105.227 51.6803 104.837 51.7765 104.401 51.8677C103.966 51.9488 103.53 52.0248 103.094 52.0957C102.659 52.1565 102.264 52.2122 101.909 52.2629C101.149 52.3743 100.485 52.5516 99.9181 52.7948C99.3507 53.038 98.91 53.3673 98.5959 53.7827C98.2818 54.188 98.1247 54.6945 98.1247 55.3025C98.1247 56.1839 98.4439 56.8577 99.0822 57.3238C99.7307 57.7797 100.551 58.0077 101.544 58.0077Z"/>
<path d="M126.267 62.4911C123.876 62.4911 121.819 61.9845 120.096 60.9713C118.384 59.948 117.067 58.5295 116.145 56.7159C115.233 54.9023 114.777 52.8151 114.777 50.4543C114.777 48.0632 115.238 45.9659 116.16 44.1624C117.092 42.3488 118.414 40.9354 120.127 39.9222C121.839 38.8988 123.876 38.3872 126.236 38.3872C128.273 38.3872 130.056 38.757 131.586 39.4966C133.116 40.2362 134.327 41.2748 135.218 42.6122C135.952 43.7134 136.415 44.9726 136.607 46.3898C136.675 46.8953 136.265 47.3236 135.755 47.3236H131.352C130.91 47.3236 130.544 46.9967 130.423 46.5712C130.191 45.7479 129.788 45.0615 129.215 44.5119C128.486 43.7926 127.528 43.4329 126.343 43.4329C125.34 43.4329 124.463 43.7064 123.714 44.2536C122.974 44.7906 122.396 45.5758 121.981 46.6092C121.566 47.6427 121.358 48.894 121.358 50.3631C121.358 51.8525 121.56 53.119 121.966 54.1626C122.381 55.2062 122.964 56.0016 123.714 56.5487C124.463 57.0958 125.34 57.3694 126.343 57.3694C127.082 57.3694 127.746 57.2174 128.334 56.9134C128.931 56.6095 129.423 56.1687 129.808 55.5912C130.077 55.1917 130.282 54.7382 130.424 54.2309C130.543 53.8054 130.91 53.4787 131.352 53.4787H135.749C136.261 53.4787 136.672 53.9105 136.601 54.4178C136.404 55.8185 135.949 57.0759 135.234 58.1901C134.372 59.5376 133.182 60.5913 131.662 61.3512C130.142 62.1111 128.344 62.4911 126.267 62.4911Z"/>
<path d="M179.282 39.8614C178.823 39.8614 178.451 39.5097 178.329 39.0678C178.094 38.2166 177.621 37.5287 176.909 37.0042C175.987 36.3253 174.735 35.9859 173.155 35.9859C172.081 35.9859 171.174 36.1379 170.434 36.4418C169.695 36.7357 169.127 37.146 168.732 37.6729C168.347 38.1997 168.155 38.7975 168.155 39.4662C168.134 40.0235 168.251 40.5098 168.504 40.9252C168.768 41.3406 169.127 41.7003 169.583 42.0043C170.039 42.2981 170.566 42.5565 171.164 42.7794C171.762 42.9921 172.4 43.1745 173.079 43.3265L175.875 43.9952C177.233 44.2992 178.479 44.7044 179.614 45.211C180.749 45.7176 181.731 46.3408 182.562 47.0804C183.393 47.82 184.036 48.6914 184.492 49.6944C184.958 50.6975 185.197 51.8475 185.207 53.1444C185.197 55.0492 184.71 56.7007 183.748 58.0989C182.795 59.487 181.417 60.566 179.614 61.336C177.82 62.0959 175.657 62.4759 173.124 62.4759C170.612 62.4759 168.423 62.0909 166.559 61.3209C164.705 60.5508 163.256 59.411 162.212 57.9013C161.322 56.5923 160.796 55.0164 160.635 53.1736C160.592 52.6752 160.998 52.2629 161.498 52.2629H166.121C166.59 52.2629 166.97 52.6288 167.065 53.0879C167.207 53.7745 167.469 54.3709 167.851 54.8769C168.388 55.5659 169.102 56.0877 169.994 56.4423C170.895 56.7868 171.914 56.959 173.048 56.959C174.163 56.959 175.13 56.7969 175.951 56.4727C176.782 56.1485 177.425 55.6976 177.881 55.1201C178.337 54.5426 178.565 53.8789 178.565 53.1292C178.565 52.4301 178.357 51.8424 177.942 51.3662C177.537 50.89 176.939 50.4847 176.149 50.1504C175.369 49.816 174.411 49.5121 173.276 49.2385L169.887 48.3874C167.263 47.7491 165.191 46.7511 163.671 45.3934C162.151 44.0357 161.397 42.2069 161.407 39.907C161.397 38.0224 161.898 36.376 162.911 34.9676C163.935 33.5593 165.338 32.46 167.121 31.6697C168.904 30.8794 170.931 30.4842 173.2 30.4842C175.51 30.4842 177.527 30.8794 179.249 31.6697C180.982 32.46 182.329 33.5593 183.292 34.9676C184.095 36.1423 184.573 37.472 184.727 38.9568C184.779 39.4522 184.373 39.8614 183.875 39.8614H179.282Z"/>
<path d="M214.808 40.8149C214.903 41.3401 214.487 41.8067 213.953 41.8067H209.074C208.629 41.8067 208.26 41.4776 208.153 41.0464C208.015 40.4883 207.815 39.9768 207.554 39.5118C207.18 38.833 206.698 38.2554 206.111 37.7792C205.523 37.303 204.844 36.9383 204.074 36.685C203.314 36.4317 202.488 36.305 201.597 36.305C199.986 36.305 198.583 36.7053 197.387 37.5057C196.191 38.296 195.264 39.451 194.606 40.9708C193.947 42.4805 193.618 44.3144 193.618 46.4725C193.618 48.6914 193.947 50.5556 194.606 52.0653C195.275 53.575 196.207 54.7148 197.402 55.4848C198.598 56.2549 199.981 56.6399 201.551 56.6399C202.433 56.6399 203.248 56.5234 203.998 56.2903C204.758 56.0573 205.432 55.7179 206.019 55.2721C206.607 54.8161 207.093 54.2639 207.478 53.6155C207.754 53.1626 207.971 52.6652 208.128 52.1233C208.249 51.7084 208.614 51.398 209.046 51.4L213.955 51.4224C214.488 51.4249 214.903 51.8925 214.794 52.4145C214.57 53.4931 214.193 54.5419 213.664 55.5608C212.985 56.878 212.068 58.0584 210.913 59.102C209.768 60.1354 208.4 60.9561 206.81 61.564C205.229 62.1618 203.441 62.4607 201.445 62.4607C198.669 62.4607 196.186 61.8325 193.998 60.5762C191.82 59.3198 190.097 57.5011 188.831 55.1201C187.574 52.7391 186.946 49.8565 186.946 46.4725C186.946 43.0783 187.584 40.1907 188.861 37.8096C190.138 35.4286 191.87 33.615 194.059 32.3688C196.247 31.1124 198.709 30.4842 201.445 30.4842C203.248 30.4842 204.92 30.7375 206.46 31.2441C208.01 31.7507 209.383 32.4904 210.579 33.463C211.774 34.4256 212.747 35.6059 213.497 37.0042C214.114 38.1405 214.551 39.4108 214.808 40.8149Z"/>
<path d="M145.172 45.4994C145.172 46.3297 146.207 46.7093 146.744 46.0756L152.732 39.0065C152.901 38.8065 153.15 38.6911 153.412 38.6911H158.496C159.257 38.6911 159.669 39.5833 159.174 40.1619L152.225 48.2942C151.963 48.6011 151.94 49.0459 152.169 49.3785L159.911 60.6384C160.318 61.2299 159.894 62.0352 159.177 62.0352H153.762C153.465 62.0352 153.189 61.8881 153.023 61.6427L148.29 54.6378C147.96 54.1497 147.256 54.1099 146.873 54.5578L145.386 56.2985C145.248 56.46 145.172 56.6654 145.172 56.8777V61.1435C145.172 61.636 144.773 62.0352 144.281 62.0352H139.59C139.097 62.0352 138.698 61.636 138.698 61.1435V31.8014C138.698 31.309 139.097 30.9098 139.59 30.9098H144.281C144.773 30.9098 145.172 31.309 145.172 31.8014V45.4994Z"/>
</mask>
<path d="M64.2556 62.0352C63.7632 62.0352 63.364 61.636 63.364 61.1435V31.8014C63.364 31.309 63.7632 30.9098 64.2556 30.9098H69.0531C69.5455 30.9098 69.9447 31.309 69.9447 31.8014V42.8604C69.9447 43.3528 70.3439 43.752 70.8363 43.752H82.4121C82.9045 43.752 83.3037 43.3528 83.3037 42.8604V31.8014C83.3037 31.309 83.7029 30.9098 84.1953 30.9098H88.9776C89.47 30.9098 89.8692 31.309 89.8692 31.8014V61.1435C89.8692 61.636 89.47 62.0352 88.9776 62.0352H84.1953C83.7029 62.0352 83.3037 61.636 83.3037 61.1435V50.0693C83.3037 49.5769 82.9045 49.1777 82.4121 49.1777H70.8363C70.3439 49.1777 69.9447 49.5769 69.9447 50.0693V61.1435C69.9447 61.636 69.5455 62.0352 69.0531 62.0352H64.2556Z" fill="#F4F4F4"/>
<path d="M99.6901 62.4759C98.2007 62.4759 96.8734 62.2175 95.7083 61.7008C94.5431 61.1739 93.6211 60.3988 92.9422 59.3755C92.2735 58.3421 91.9392 57.0553 91.9392 55.5152C91.9392 54.2183 92.1773 53.1292 92.6535 52.2477C93.1297 51.3662 93.7781 50.657 94.5988 50.12C95.4195 49.583 96.3516 49.1777 97.3952 48.9041C98.449 48.6306 99.5533 48.4381 100.708 48.3266C102.066 48.1848 103.16 48.0531 103.991 47.9315C104.822 47.7998 105.425 47.6072 105.8 47.3539C106.175 47.1006 106.362 46.7258 106.362 46.2293V46.1381C106.362 45.1756 106.058 44.4309 105.45 43.904C104.852 43.3772 104.001 43.1137 102.897 43.1137C101.732 43.1137 100.805 43.3721 100.116 43.8888C99.639 44.2393 99.2738 44.6529 99.0202 45.1295C98.8211 45.5038 98.4443 45.7791 98.0218 45.7448L93.7724 45.3997C93.2358 45.3561 92.8559 44.8483 93.0267 44.3377C93.3649 43.3265 93.8737 42.4271 94.5532 41.6395C95.4448 40.5959 96.5948 39.7955 98.0032 39.2382C99.4216 38.6709 101.063 38.3872 102.927 38.3872C104.224 38.3872 105.465 38.5391 106.651 38.8431C107.846 39.1471 108.905 39.6182 109.827 40.2565C110.759 40.8948 111.494 41.7155 112.031 42.7186C112.568 43.7115 112.836 44.902 112.836 46.2901V61.1435C112.836 61.636 112.437 62.0352 111.945 62.0352H107.588C107.096 62.0352 106.696 61.636 106.696 61.1435V58.9112C106.696 58.8487 106.646 58.798 106.583 58.798C106.541 58.798 106.502 58.8218 106.482 58.8593C106.111 59.5636 105.62 60.1865 105.009 60.7281C104.381 61.2753 103.626 61.7059 102.745 62.02C101.863 62.3239 100.845 62.4759 99.6901 62.4759ZM101.544 58.0077C102.497 58.0077 103.338 57.8203 104.067 57.4454C104.797 57.0604 105.369 56.5436 105.784 55.8952C106.2 55.2467 106.408 54.5122 106.408 53.6915V52.1289C106.408 51.735 105.947 51.4609 105.572 51.579C105.227 51.6803 104.837 51.7765 104.401 51.8677C103.966 51.9488 103.53 52.0248 103.094 52.0957C102.659 52.1565 102.264 52.2122 101.909 52.2629C101.149 52.3743 100.485 52.5516 99.9181 52.7948C99.3507 53.038 98.91 53.3673 98.5959 53.7827C98.2818 54.188 98.1247 54.6945 98.1247 55.3025C98.1247 56.1839 98.4439 56.8577 99.0822 57.3238C99.7307 57.7797 100.551 58.0077 101.544 58.0077Z" fill="#F4F4F4"/>
<path d="M126.267 62.4911C123.876 62.4911 121.819 61.9845 120.096 60.9713C118.384 59.948 117.067 58.5295 116.145 56.7159C115.233 54.9023 114.777 52.8151 114.777 50.4543C114.777 48.0632 115.238 45.9659 116.16 44.1624C117.092 42.3488 118.414 40.9354 120.127 39.9222C121.839 38.8988 123.876 38.3872 126.236 38.3872C128.273 38.3872 130.056 38.757 131.586 39.4966C133.116 40.2362 134.327 41.2748 135.218 42.6122C135.952 43.7134 136.415 44.9726 136.607 46.3898C136.675 46.8953 136.265 47.3236 135.755 47.3236H131.352C130.91 47.3236 130.544 46.9967 130.423 46.5712C130.191 45.7479 129.788 45.0615 129.215 44.5119C128.486 43.7926 127.528 43.4329 126.343 43.4329C125.34 43.4329 124.463 43.7064 123.714 44.2536C122.974 44.7906 122.396 45.5758 121.981 46.6092C121.566 47.6427 121.358 48.894 121.358 50.3631C121.358 51.8525 121.56 53.119 121.966 54.1626C122.381 55.2062 122.964 56.0016 123.714 56.5487C124.463 57.0958 125.34 57.3694 126.343 57.3694C127.082 57.3694 127.746 57.2174 128.334 56.9134C128.931 56.6095 129.423 56.1687 129.808 55.5912C130.077 55.1917 130.282 54.7382 130.424 54.2309C130.543 53.8054 130.91 53.4787 131.352 53.4787H135.749C136.261 53.4787 136.672 53.9105 136.601 54.4178C136.404 55.8185 135.949 57.0759 135.234 58.1901C134.372 59.5376 133.182 60.5913 131.662 61.3512C130.142 62.1111 128.344 62.4911 126.267 62.4911Z" fill="#F4F4F4"/>
<path d="M179.282 39.8614C178.823 39.8614 178.451 39.5097 178.329 39.0678C178.094 38.2166 177.621 37.5287 176.909 37.0042C175.987 36.3253 174.735 35.9859 173.155 35.9859C172.081 35.9859 171.174 36.1379 170.434 36.4418C169.695 36.7357 169.127 37.146 168.732 37.6729C168.347 38.1997 168.155 38.7975 168.155 39.4662C168.134 40.0235 168.251 40.5098 168.504 40.9252C168.768 41.3406 169.127 41.7003 169.583 42.0043C170.039 42.2981 170.566 42.5565 171.164 42.7794C171.762 42.9921 172.4 43.1745 173.079 43.3265L175.875 43.9952C177.233 44.2992 178.479 44.7044 179.614 45.211C180.749 45.7176 181.731 46.3408 182.562 47.0804C183.393 47.82 184.036 48.6914 184.492 49.6944C184.958 50.6975 185.197 51.8475 185.207 53.1444C185.197 55.0492 184.71 56.7007 183.748 58.0989C182.795 59.487 181.417 60.566 179.614 61.336C177.82 62.0959 175.657 62.4759 173.124 62.4759C170.612 62.4759 168.423 62.0909 166.559 61.3209C164.705 60.5508 163.256 59.411 162.212 57.9013C161.322 56.5923 160.796 55.0164 160.635 53.1736C160.592 52.6752 160.998 52.2629 161.498 52.2629H166.121C166.59 52.2629 166.97 52.6288 167.065 53.0879C167.207 53.7745 167.469 54.3709 167.851 54.8769C168.388 55.5659 169.102 56.0877 169.994 56.4423C170.895 56.7868 171.914 56.959 173.048 56.959C174.163 56.959 175.13 56.7969 175.951 56.4727C176.782 56.1485 177.425 55.6976 177.881 55.1201C178.337 54.5426 178.565 53.8789 178.565 53.1292C178.565 52.4301 178.357 51.8424 177.942 51.3662C177.537 50.89 176.939 50.4847 176.149 50.1504C175.369 49.816 174.411 49.5121 173.276 49.2385L169.887 48.3874C167.263 47.7491 165.191 46.7511 163.671 45.3934C162.151 44.0357 161.397 42.2069 161.407 39.907C161.397 38.0224 161.898 36.376 162.911 34.9676C163.935 33.5593 165.338 32.46 167.121 31.6697C168.904 30.8794 170.931 30.4842 173.2 30.4842C175.51 30.4842 177.527 30.8794 179.249 31.6697C180.982 32.46 182.329 33.5593 183.292 34.9676C184.095 36.1423 184.573 37.472 184.727 38.9568C184.779 39.4522 184.373 39.8614 183.875 39.8614H179.282Z" fill="white"/>
<path d="M214.808 40.8149C214.903 41.3401 214.487 41.8067 213.953 41.8067H209.074C208.629 41.8067 208.26 41.4776 208.153 41.0464C208.015 40.4883 207.815 39.9768 207.554 39.5118C207.18 38.833 206.698 38.2554 206.111 37.7792C205.523 37.303 204.844 36.9383 204.074 36.685C203.314 36.4317 202.488 36.305 201.597 36.305C199.986 36.305 198.583 36.7053 197.387 37.5057C196.191 38.296 195.264 39.451 194.606 40.9708C193.947 42.4805 193.618 44.3144 193.618 46.4725C193.618 48.6914 193.947 50.5556 194.606 52.0653C195.275 53.575 196.207 54.7148 197.402 55.4848C198.598 56.2549 199.981 56.6399 201.551 56.6399C202.433 56.6399 203.248 56.5234 203.998 56.2903C204.758 56.0573 205.432 55.7179 206.019 55.2721C206.607 54.8161 207.093 54.2639 207.478 53.6155C207.754 53.1626 207.971 52.6652 208.128 52.1233C208.249 51.7084 208.614 51.398 209.046 51.4L213.955 51.4224C214.488 51.4249 214.903 51.8925 214.794 52.4145C214.57 53.4931 214.193 54.5419 213.664 55.5608C212.985 56.878 212.068 58.0584 210.913 59.102C209.768 60.1354 208.4 60.9561 206.81 61.564C205.229 62.1618 203.441 62.4607 201.445 62.4607C198.669 62.4607 196.186 61.8325 193.998 60.5762C191.82 59.3198 190.097 57.5011 188.831 55.1201C187.574 52.7391 186.946 49.8565 186.946 46.4725C186.946 43.0783 187.584 40.1907 188.861 37.8096C190.138 35.4286 191.87 33.615 194.059 32.3688C196.247 31.1124 198.709 30.4842 201.445 30.4842C203.248 30.4842 204.92 30.7375 206.46 31.2441C208.01 31.7507 209.383 32.4904 210.579 33.463C211.774 34.4256 212.747 35.6059 213.497 37.0042C214.114 38.1405 214.551 39.4108 214.808 40.8149Z" fill="white"/>
<path d="M145.172 45.4994C145.172 46.3297 146.207 46.7093 146.744 46.0756L152.732 39.0065C152.901 38.8065 153.15 38.6911 153.412 38.6911H158.496C159.257 38.6911 159.669 39.5833 159.174 40.1619L152.225 48.2942C151.963 48.6011 151.94 49.0459 152.169 49.3785L159.911 60.6384C160.318 61.2299 159.894 62.0352 159.177 62.0352H153.762C153.465 62.0352 153.189 61.8881 153.023 61.6427L148.29 54.6378C147.96 54.1497 147.256 54.1099 146.873 54.5578L145.386 56.2985C145.248 56.46 145.172 56.6654 145.172 56.8777V61.1435C145.172 61.636 144.773 62.0352 144.281 62.0352H139.59C139.097 62.0352 138.698 61.636 138.698 61.1435V31.8014C138.698 31.309 139.097 30.9098 139.59 30.9098H144.281C144.773 30.9098 145.172 31.309 145.172 31.8014V45.4994Z" fill="#F4F4F4"/>
<path d="M64.2556 62.0352C63.7632 62.0352 63.364 61.636 63.364 61.1435V31.8014C63.364 31.309 63.7632 30.9098 64.2556 30.9098H69.0531C69.5455 30.9098 69.9447 31.309 69.9447 31.8014V42.8604C69.9447 43.3528 70.3439 43.752 70.8363 43.752H82.4121C82.9045 43.752 83.3037 43.3528 83.3037 42.8604V31.8014C83.3037 31.309 83.7029 30.9098 84.1953 30.9098H88.9776C89.47 30.9098 89.8692 31.309 89.8692 31.8014V61.1435C89.8692 61.636 89.47 62.0352 88.9776 62.0352H84.1953C83.7029 62.0352 83.3037 61.636 83.3037 61.1435V50.0693C83.3037 49.5769 82.9045 49.1777 82.4121 49.1777H70.8363C70.3439 49.1777 69.9447 49.5769 69.9447 50.0693V61.1435C69.9447 61.636 69.5455 62.0352 69.0531 62.0352H64.2556Z" stroke="#2B2B2B" stroke-width="4.45806" stroke-linejoin="round" mask="url(#path-14-outside-1_505_525)"/>
<path d="M99.6901 62.4759C98.2007 62.4759 96.8734 62.2175 95.7083 61.7008C94.5431 61.1739 93.6211 60.3988 92.9422 59.3755C92.2735 58.3421 91.9392 57.0553 91.9392 55.5152C91.9392 54.2183 92.1773 53.1292 92.6535 52.2477C93.1297 51.3662 93.7781 50.657 94.5988 50.12C95.4195 49.583 96.3516 49.1777 97.3952 48.9041C98.449 48.6306 99.5533 48.4381 100.708 48.3266C102.066 48.1848 103.16 48.0531 103.991 47.9315C104.822 47.7998 105.425 47.6072 105.8 47.3539C106.175 47.1006 106.362 46.7258 106.362 46.2293V46.1381C106.362 45.1756 106.058 44.4309 105.45 43.904C104.852 43.3772 104.001 43.1137 102.897 43.1137C101.732 43.1137 100.805 43.3721 100.116 43.8888C99.639 44.2393 99.2738 44.6529 99.0202 45.1295C98.8211 45.5038 98.4443 45.7791 98.0218 45.7448L93.7724 45.3997C93.2358 45.3561 92.8559 44.8483 93.0267 44.3377C93.3649 43.3265 93.8737 42.4271 94.5532 41.6395C95.4448 40.5959 96.5948 39.7955 98.0032 39.2382C99.4216 38.6709 101.063 38.3872 102.927 38.3872C104.224 38.3872 105.465 38.5391 106.651 38.8431C107.846 39.1471 108.905 39.6182 109.827 40.2565C110.759 40.8948 111.494 41.7155 112.031 42.7186C112.568 43.7115 112.836 44.902 112.836 46.2901V61.1435C112.836 61.636 112.437 62.0352 111.945 62.0352H107.588C107.096 62.0352 106.696 61.636 106.696 61.1435V58.9112C106.696 58.8487 106.646 58.798 106.583 58.798C106.541 58.798 106.502 58.8218 106.482 58.8593C106.111 59.5636 105.62 60.1865 105.009 60.7281C104.381 61.2753 103.626 61.7059 102.745 62.02C101.863 62.3239 100.845 62.4759 99.6901 62.4759ZM101.544 58.0077C102.497 58.0077 103.338 57.8203 104.067 57.4454C104.797 57.0604 105.369 56.5436 105.784 55.8952C106.2 55.2467 106.408 54.5122 106.408 53.6915V52.1289C106.408 51.735 105.947 51.4609 105.572 51.579C105.227 51.6803 104.837 51.7765 104.401 51.8677C103.966 51.9488 103.53 52.0248 103.094 52.0957C102.659 52.1565 102.264 52.2122 101.909 52.2629C101.149 52.3743 100.485 52.5516 99.9181 52.7948C99.3507 53.038 98.91 53.3673 98.5959 53.7827C98.2818 54.188 98.1247 54.6945 98.1247 55.3025C98.1247 56.1839 98.4439 56.8577 99.0822 57.3238C99.7307 57.7797 100.551 58.0077 101.544 58.0077Z" stroke="#2B2B2B" stroke-width="4.45806" stroke-linejoin="round" mask="url(#path-14-outside-1_505_525)"/>
<path d="M126.267 62.4911C123.876 62.4911 121.819 61.9845 120.096 60.9713C118.384 59.948 117.067 58.5295 116.145 56.7159C115.233 54.9023 114.777 52.8151 114.777 50.4543C114.777 48.0632 115.238 45.9659 116.16 44.1624C117.092 42.3488 118.414 40.9354 120.127 39.9222C121.839 38.8988 123.876 38.3872 126.236 38.3872C128.273 38.3872 130.056 38.757 131.586 39.4966C133.116 40.2362 134.327 41.2748 135.218 42.6122C135.952 43.7134 136.415 44.9726 136.607 46.3898C136.675 46.8953 136.265 47.3236 135.755 47.3236H131.352C130.91 47.3236 130.544 46.9967 130.423 46.5712C130.191 45.7479 129.788 45.0615 129.215 44.5119C128.486 43.7926 127.528 43.4329 126.343 43.4329C125.34 43.4329 124.463 43.7064 123.714 44.2536C122.974 44.7906 122.396 45.5758 121.981 46.6092C121.566 47.6427 121.358 48.894 121.358 50.3631C121.358 51.8525 121.56 53.119 121.966 54.1626C122.381 55.2062 122.964 56.0016 123.714 56.5487C124.463 57.0958 125.34 57.3694 126.343 57.3694C127.082 57.3694 127.746 57.2174 128.334 56.9134C128.931 56.6095 129.423 56.1687 129.808 55.5912C130.077 55.1917 130.282 54.7382 130.424 54.2309C130.543 53.8054 130.91 53.4787 131.352 53.4787H135.749C136.261 53.4787 136.672 53.9105 136.601 54.4178C136.404 55.8185 135.949 57.0759 135.234 58.1901C134.372 59.5376 133.182 60.5913 131.662 61.3512C130.142 62.1111 128.344 62.4911 126.267 62.4911Z" stroke="#2B2B2B" stroke-width="4.45806" stroke-linejoin="round" mask="url(#path-14-outside-1_505_525)"/>
<path d="M179.282 39.8614C178.823 39.8614 178.451 39.5097 178.329 39.0678C178.094 38.2166 177.621 37.5287 176.909 37.0042C175.987 36.3253 174.735 35.9859 173.155 35.9859C172.081 35.9859 171.174 36.1379 170.434 36.4418C169.695 36.7357 169.127 37.146 168.732 37.6729C168.347 38.1997 168.155 38.7975 168.155 39.4662C168.134 40.0235 168.251 40.5098 168.504 40.9252C168.768 41.3406 169.127 41.7003 169.583 42.0043C170.039 42.2981 170.566 42.5565 171.164 42.7794C171.762 42.9921 172.4 43.1745 173.079 43.3265L175.875 43.9952C177.233 44.2992 178.479 44.7044 179.614 45.211C180.749 45.7176 181.731 46.3408 182.562 47.0804C183.393 47.82 184.036 48.6914 184.492 49.6944C184.958 50.6975 185.197 51.8475 185.207 53.1444C185.197 55.0492 184.71 56.7007 183.748 58.0989C182.795 59.487 181.417 60.566 179.614 61.336C177.82 62.0959 175.657 62.4759 173.124 62.4759C170.612 62.4759 168.423 62.0909 166.559 61.3209C164.705 60.5508 163.256 59.411 162.212 57.9013C161.322 56.5923 160.796 55.0164 160.635 53.1736C160.592 52.6752 160.998 52.2629 161.498 52.2629H166.121C166.59 52.2629 166.97 52.6288 167.065 53.0879C167.207 53.7745 167.469 54.3709 167.851 54.8769C168.388 55.5659 169.102 56.0877 169.994 56.4423C170.895 56.7868 171.914 56.959 173.048 56.959C174.163 56.959 175.13 56.7969 175.951 56.4727C176.782 56.1485 177.425 55.6976 177.881 55.1201C178.337 54.5426 178.565 53.8789 178.565 53.1292C178.565 52.4301 178.357 51.8424 177.942 51.3662C177.537 50.89 176.939 50.4847 176.149 50.1504C175.369 49.816 174.411 49.5121 173.276 49.2385L169.887 48.3874C167.263 47.7491 165.191 46.7511 163.671 45.3934C162.151 44.0357 161.397 42.2069 161.407 39.907C161.397 38.0224 161.898 36.376 162.911 34.9676C163.935 33.5593 165.338 32.46 167.121 31.6697C168.904 30.8794 170.931 30.4842 173.2 30.4842C175.51 30.4842 177.527 30.8794 179.249 31.6697C180.982 32.46 182.329 33.5593 183.292 34.9676C184.095 36.1423 184.573 37.472 184.727 38.9568C184.779 39.4522 184.373 39.8614 183.875 39.8614H179.282Z" stroke="#2B2B2B" stroke-width="4.45806" stroke-linejoin="round" mask="url(#path-14-outside-1_505_525)"/>
<path d="M214.808 40.8149C214.903 41.3401 214.487 41.8067 213.953 41.8067H209.074C208.629 41.8067 208.26 41.4776 208.153 41.0464C208.015 40.4883 207.815 39.9768 207.554 39.5118C207.18 38.833 206.698 38.2554 206.111 37.7792C205.523 37.303 204.844 36.9383 204.074 36.685C203.314 36.4317 202.488 36.305 201.597 36.305C199.986 36.305 198.583 36.7053 197.387 37.5057C196.191 38.296 195.264 39.451 194.606 40.9708C193.947 42.4805 193.618 44.3144 193.618 46.4725C193.618 48.6914 193.947 50.5556 194.606 52.0653C195.275 53.575 196.207 54.7148 197.402 55.4848C198.598 56.2549 199.981 56.6399 201.551 56.6399C202.433 56.6399 203.248 56.5234 203.998 56.2903C204.758 56.0573 205.432 55.7179 206.019 55.2721C206.607 54.8161 207.093 54.2639 207.478 53.6155C207.754 53.1626 207.971 52.6652 208.128 52.1233C208.249 51.7084 208.614 51.398 209.046 51.4L213.955 51.4224C214.488 51.4249 214.903 51.8925 214.794 52.4145C214.57 53.4931 214.193 54.5419 213.664 55.5608C212.985 56.878 212.068 58.0584 210.913 59.102C209.768 60.1354 208.4 60.9561 206.81 61.564C205.229 62.1618 203.441 62.4607 201.445 62.4607C198.669 62.4607 196.186 61.8325 193.998 60.5762C191.82 59.3198 190.097 57.5011 188.831 55.1201C187.574 52.7391 186.946 49.8565 186.946 46.4725C186.946 43.0783 187.584 40.1907 188.861 37.8096C190.138 35.4286 191.87 33.615 194.059 32.3688C196.247 31.1124 198.709 30.4842 201.445 30.4842C203.248 30.4842 204.92 30.7375 206.46 31.2441C208.01 31.7507 209.383 32.4904 210.579 33.463C211.774 34.4256 212.747 35.6059 213.497 37.0042C214.114 38.1405 214.551 39.4108 214.808 40.8149Z" stroke="#2B2B2B" stroke-width="4.45806" stroke-linejoin="round" mask="url(#path-14-outside-1_505_525)"/>
<path d="M145.172 45.4994C145.172 46.3297 146.207 46.7093 146.744 46.0756L152.732 39.0065C152.901 38.8065 153.15 38.6911 153.412 38.6911H158.496C159.257 38.6911 159.669 39.5833 159.174 40.1619L152.225 48.2942C151.963 48.6011 151.94 49.0459 152.169 49.3785L159.911 60.6384C160.318 61.2299 159.894 62.0352 159.177 62.0352H153.762C153.465 62.0352 153.189 61.8881 153.023 61.6427L148.29 54.6378C147.96 54.1497 147.256 54.1099 146.873 54.5578L145.386 56.2985C145.248 56.46 145.172 56.6654 145.172 56.8777V61.1435C145.172 61.636 144.773 62.0352 144.281 62.0352H139.59C139.097 62.0352 138.698 61.636 138.698 61.1435V31.8014C138.698 31.309 139.097 30.9098 139.59 30.9098H144.281C144.773 30.9098 145.172 31.309 145.172 31.8014V45.4994Z" stroke="#2B2B2B" stroke-width="4.45806" stroke-linejoin="round" mask="url(#path-14-outside-1_505_525)"/>
</g>
<defs>
<filter id="filter0_d_505_525" x="0.926514" y="0.92662" width="231.126" height="86.147" filterUnits="userSpaceOnUse" color-interpolation-filters="sRGB">
<feFlood flood-opacity="0" result="BackgroundImageFix"/>
<feColorMatrix in="SourceAlpha" type="matrix" values="0 0 0 0 0 0 0 0 0 0 0 0 0 0 0 0 0 0 127 0" result="hardAlpha"/>
<feOffset/>
<feGaussianBlur stdDeviation="7.5"/>
<feComposite in2="hardAlpha" operator="out"/>
<feColorMatrix type="matrix" values="0 0 0 0 0.7625 0 0 0 0 0.7625 0 0 0 0 0.7625 0 0 0 0.25 0"/>
<feBlend mode="normal" in2="BackgroundImageFix" result="effect1_dropShadow_505_525"/>
<feBlend mode="normal" in="SourceGraphic" in2="effect1_dropShadow_505_525" result="shape"/>
</filter>
</defs>
</svg>
