<svg xmlns="http://www.w3.org/2000/svg" width="51" height="51" fill="none" viewBox="0 0 51 51"><g filter="url(#filter0_d_505_562)"><path fill="#FFD23C" d="M27.7132 16C27.8035 15.9998 27.893 16.0175 27.9765 16.0519C28.0601 16.0864 28.136 16.1369 28.1999 16.2008L35.0062 23.007C35.1351 23.1359 35.2075 23.3108 35.2075 23.4931C35.2075 23.6754 35.1351 23.8502 35.0062 23.9791C34.3462 24.6391 33.5322 24.7876 32.9396 24.7876C32.6962 24.7876 32.4789 24.7629 32.3071 24.734L27.9978 29.0433C28.1112 29.5003 28.1849 29.9664 28.2178 30.4361C28.2811 31.4014 28.1738 32.7558 27.2278 33.7018C27.0989 33.8306 26.924 33.903 26.7417 33.903C26.5594 33.903 26.3846 33.8306 26.2557 33.7018L22.3658 29.8133L17.9906 34.1885C17.7224 34.4566 16.3144 35.4288 16.0463 35.1606C15.7782 34.8925 16.7503 33.4831 17.0184 33.2164L21.3937 28.8411L17.5052 24.9513C17.3763 24.8223 17.3039 24.6475 17.3039 24.4652C17.3039 24.2829 17.3763 24.1081 17.5052 23.9791C18.4512 23.0331 19.8056 22.9245 20.7708 22.9891C21.2406 23.022 21.7066 23.0957 22.1637 23.2091L26.4729 18.9013C26.437 18.6919 26.4186 18.4798 26.4179 18.2674C26.4179 17.6761 26.5664 16.8621 27.2278 16.2008C27.3567 16.0722 27.5312 16 27.7132 16ZM27.8809 18.9013V18.904C27.9206 19.025 27.926 19.1546 27.8964 19.2784C27.8667 19.4022 27.8033 19.5154 27.7132 19.6053L22.8526 24.4645C22.7622 24.5544 22.6487 24.6175 22.5246 24.6466C22.4006 24.6758 22.2708 24.6698 22.1499 24.6295H22.1472L22.1279 24.624C21.9971 24.5848 21.865 24.55 21.7319 24.5195C21.386 24.4388 21.0343 24.3855 20.6801 24.36C20.0998 24.3215 19.5306 24.371 19.0644 24.5663L26.6407 32.1411C26.8346 31.6736 26.8841 31.1058 26.8456 30.5255C26.8105 30.0343 26.722 29.5483 26.5816 29.0763L26.5761 29.0584V29.057C26.5355 28.9359 26.5294 28.8059 26.5585 28.6816C26.5877 28.5572 26.6509 28.4434 26.7411 28.353L31.6031 23.4924C31.6967 23.3982 31.8156 23.3331 31.9454 23.3051C32.0752 23.277 32.2104 23.2871 32.3346 23.3343L32.4666 23.3645C32.5862 23.3879 32.7526 23.4113 32.9396 23.4113C33.0963 23.4113 33.2558 23.3961 33.4112 23.3563L27.8493 17.7958C27.8094 17.9511 27.7943 18.112 27.7943 18.2674C27.795 18.481 27.8236 18.6937 27.8796 18.8999L27.8809 18.9013Z"/><path stroke="#FFD23C" d="M27.7132 16C27.8035 15.9998 27.893 16.0175 27.9765 16.0519C28.0601 16.0864 28.136 16.1369 28.1999 16.2008L35.0062 23.007C35.1351 23.1359 35.2075 23.3108 35.2075 23.4931C35.2075 23.6754 35.1351 23.8502 35.0062 23.9791C34.3462 24.6391 33.5322 24.7876 32.9396 24.7876C32.6962 24.7876 32.4789 24.7629 32.3071 24.734L27.9978 29.0433C28.1112 29.5003 28.1849 29.9664 28.2178 30.4361C28.2811 31.4014 28.1738 32.7558 27.2278 33.7018C27.0989 33.8306 26.924 33.903 26.7417 33.903C26.5594 33.903 26.3846 33.8306 26.2557 33.7018L22.3658 29.8133L17.9906 34.1885C17.7224 34.4566 16.3144 35.4288 16.0463 35.1606C15.7782 34.8925 16.7503 33.4831 17.0184 33.2164L21.3937 28.8411L17.5052 24.9513C17.3763 24.8223 17.3039 24.6475 17.3039 24.4652C17.3039 24.2829 17.3763 24.1081 17.5052 23.9791C18.4512 23.0331 19.8056 22.9245 20.7708 22.9891C21.2406 23.022 21.7066 23.0957 22.1637 23.2091L26.4729 18.9013C26.437 18.6919 26.4186 18.4798 26.4179 18.2674C26.4179 17.6761 26.5664 16.8621 27.2278 16.2008C27.3567 16.0722 27.5312 16 27.7132 16ZM27.8809 18.9013V18.904C27.9206 19.025 27.926 19.1546 27.8964 19.2784C27.8667 19.4022 27.8033 19.5154 27.7132 19.6053L22.8526 24.4645C22.7622 24.5544 22.6487 24.6175 22.5246 24.6466C22.4006 24.6758 22.2708 24.6698 22.1499 24.6295H22.1472L22.1279 24.624C21.9971 24.5848 21.865 24.55 21.7319 24.5195C21.386 24.4388 21.0343 24.3855 20.6801 24.36C20.0998 24.3215 19.5306 24.371 19.0644 24.5663L26.6407 32.1411C26.8346 31.6736 26.8841 31.1058 26.8456 30.5255C26.8105 30.0343 26.722 29.5483 26.5816 29.0763L26.5761 29.0584V29.057C26.5355 28.9359 26.5294 28.8059 26.5585 28.6816C26.5877 28.5572 26.6509 28.4434 26.7411 28.353L31.6031 23.4924C31.6967 23.3982 31.8156 23.3331 31.9454 23.3051C32.0752 23.277 32.2104 23.2871 32.3346 23.3343L32.4666 23.3645C32.5862 23.3879 32.7526 23.4113 32.9396 23.4113C33.0963 23.4113 33.2558 23.3961 33.4112 23.3563L27.8493 17.7958C27.8094 17.9511 27.7943 18.112 27.7943 18.2674C27.795 18.481 27.8236 18.6937 27.8796 18.8999L27.8809 18.9013Z"/></g><defs><filter id="filter0_d_505_562" width="50.208" height="50.207" x=".5" y=".5" color-interpolation-filters="sRGB" filterUnits="userSpaceOnUse"><feFlood flood-opacity="0" result="BackgroundImageFix"/><feColorMatrix in="SourceAlpha" result="hardAlpha" type="matrix" values="0 0 0 0 0 0 0 0 0 0 0 0 0 0 0 0 0 0 127 0"/><feOffset/><feGaussianBlur stdDeviation="7.5"/><feComposite in2="hardAlpha" operator="out"/><feColorMatrix type="matrix" values="0 0 0 0 1 0 0 0 0 0.819608 0 0 0 0 0.235294 0 0 0 1 0"/><feBlend in2="BackgroundImageFix" mode="normal" result="effect1_dropShadow_505_562"/><feBlend in="SourceGraphic" in2="effect1_dropShadow_505_562" mode="normal" result="shape"/></filter></defs></svg>