<svg width="48" height="40" viewBox="0 0 48 40" fill="none" xmlns="http://www.w3.org/2000/svg">
<path d="M15.1003 39.5001C33.2091 39.5001 43.1166 24.4935 43.1166 11.4838C43.1166 11.0619 43.1072 10.6307 43.0884 10.2088C45.0158 8.81502 46.679 7.0886 48 5.11069C46.2051 5.90929 44.2993 6.43086 42.3478 6.65756C44.4026 5.42591 45.9411 3.49104 46.6781 1.21163C44.7451 2.35721 42.6312 3.16532 40.4269 3.60131C38.9417 2.02321 36.978 0.978324 34.8394 0.628193C32.7008 0.278063 30.5064 0.642193 28.5955 1.66428C26.6846 2.68638 25.1636 4.3095 24.2677 6.28272C23.3718 8.25593 23.1509 10.4693 23.6391 12.5807C19.725 12.3843 15.8959 11.3675 12.4 9.59629C8.90405 7.82508 5.81939 5.33897 3.34594 2.29913C2.0888 4.46658 1.70412 7.03138 2.27007 9.47227C2.83601 11.9132 4.31013 14.047 6.39281 15.4401C4.82926 15.3904 3.29995 14.9694 1.93125 14.2119V14.3338C1.92985 16.6084 2.71619 18.8133 4.15662 20.5736C5.59704 22.334 7.60264 23.5412 9.8325 23.9901C8.38411 24.3863 6.86396 24.4441 5.38969 24.1588C6.01891 26.115 7.24315 27.8259 8.89154 29.0528C10.5399 30.2796 12.5302 30.9613 14.5847 31.0026C11.0968 33.7423 6.78835 35.2283 2.35313 35.2213C1.56658 35.2201 0.780798 35.1719 0 35.0769C4.50571 37.9676 9.74706 39.5029 15.1003 39.5001Z" fill="url(#paint0_linear_17_120)"/>
<defs>
<linearGradient id="paint0_linear_17_120" x1="-139" y1="9" x2="120.013" y2="166.409" gradientUnits="userSpaceOnUse">
<stop stop-color="#FFF4DA"/>
<stop offset="0.0001" stop-color="#FFECBE"/>
<stop offset="0.348958" stop-color="#FEBBB7"/>
<stop offset="0.640625" stop-color="#E989DA"/>
<stop offset="1" stop-color="#8DB6FC"/>
</linearGradient>
</defs>
</svg>
