<svg width="247" height="211" viewBox="0 0 247 211" fill="none" xmlns="http://www.w3.org/2000/svg">
<path d="M96.4137 173.415C94.6907 190.097 93.4768 202.138 93.3789 204.116C93.3594 204.351 93.3398 205.212 92.8895 206.211C92.7328 206.543 92.1846 207.699 90.912 208.443C90.1288 208.912 89.4044 208.971 87.9947 209.089C85.8018 209.284 84.2159 208.952 83.2761 208.678C82.4538 208.443 82.0426 208.306 81.6902 207.973C80.4175 206.837 80.1826 204.253 81.4357 202.843C81.4357 202.843 82.3363 201.844 83.9614 201.629C84.0397 201.609 84.2551 201.59 84.5096 201.59C84.725 201.57 84.9012 201.57 85.0774 201.59C85.6452 201.668 85.841 201.825 86.1738 201.766C86.6046 201.688 86.9374 201.277 87.094 201.061C87.8185 200.024 87.7989 197.713 87.7989 197.498C87.9751 195.638 88.073 194.13 88.1317 193.112C88.2492 191.35 88.2296 190.919 88.3471 189.431C88.4646 187.728 88.5233 187.806 88.7387 185.359C88.8366 184.341 88.9932 182.402 89.1498 179.994C89.2282 178.819 89.2673 177.938 89.2673 177.742C89.3652 175.726 89.4044 173.944 89.4435 172.437L96.4137 173.415Z" fill="#C8E9F1" stroke="#303131" stroke-width="3.288" stroke-linecap="round" stroke-linejoin="round"/>
<path d="M227.79 89.5384C237.286 89.5384 245 81.8438 245 72.3284C245 62.8325 237.305 55.1183 227.79 55.1183C218.294 55.1183 210.58 62.8129 210.58 72.3284C210.58 81.8243 218.294 89.5384 227.79 89.5384Z" fill="#C5C0B8" stroke="#303131" stroke-width="3.288" stroke-linecap="round" stroke-linejoin="round"/>
<path d="M225.284 84.1738C227.006 84.1738 228.397 82.7837 228.397 81.0607C228.397 79.3378 227.006 77.9476 225.284 77.9476C223.561 77.9476 222.17 79.3378 222.17 81.0607C222.17 82.7837 223.58 84.1738 225.284 84.1738Z" fill="#E4E4E4" stroke="#303131" stroke-width="3.288" stroke-linecap="round" stroke-linejoin="round"/>
<path d="M222.875 70.116C223.619 70.116 224.207 69.5091 224.207 68.7846C224.207 68.0602 223.6 67.4532 222.875 67.4532C222.151 67.4532 221.544 68.0602 221.544 68.7846C221.544 69.5091 222.151 70.116 222.875 70.116Z" fill="black"/>
<path d="M233.487 74.6583C234.231 74.6583 234.819 74.0513 234.819 73.3269C234.819 72.5829 234.212 71.9955 233.487 71.9955C232.743 71.9955 232.156 72.5829 232.156 73.3269C232.156 74.0513 232.743 74.6583 233.487 74.6583Z" fill="black"/>
<path d="M226.85 71.9563C226.85 71.9563 224.911 73.2877 224.872 73.738C224.833 74.1883 226.458 75.3435 226.458 75.3435" stroke="#303131" stroke-width="3.288" stroke-linecap="round" stroke-linejoin="round"/>
<path d="M220.878 62.5779C220.878 62.5779 222.601 61.9709 223.522 61.9709C224.442 61.9709 226.419 62.5583 226.419 62.5583" stroke="#303131" stroke-width="3.288" stroke-linecap="round" stroke-linejoin="round"/>
<path d="M235.641 66.2001C235.641 66.2001 237.305 66.9637 237.951 67.6098C238.598 68.2363 239.596 70.0572 239.596 70.0572" stroke="#303131" stroke-width="3.288" stroke-linecap="round" stroke-linejoin="round"/>
<path d="M215.063 75.5198C214.633 75.8526 214.515 75.5785 214.378 75.2457C213.654 73.5423 213.575 71.7997 213.947 70.018C214.143 69.0587 214.437 68.1384 214.691 67.1986C214.75 67.0224 214.867 66.8462 214.985 66.6896C215.318 66.298 215.729 66.3567 215.846 66.8658C215.925 67.1986 215.905 67.5706 215.827 67.8839C215.572 68.8825 215.279 69.881 215.005 70.8795C214.711 72.0151 214.73 73.1116 215.24 74.1884C215.474 74.6583 215.651 75.1674 215.063 75.5198Z" fill="white"/>
<path d="M217.491 63.8115C217.569 63.9485 217.882 64.2226 217.882 64.4967C217.882 65.182 217.295 65.8477 216.845 65.7107C216.434 65.5932 215.944 65.4365 216.003 64.8492C216.062 64.2226 216.649 63.7527 217.491 63.8115Z" fill="white"/>
<path d="M16.4721 108.413C12.8499 108.55 10.4417 108.139 9.46273 107.943C7.40692 107.551 6.54544 107.12 6.07554 106.886C5.23363 106.435 3.92183 105.711 2.98203 104.125C2.49255 103.303 1.67023 101.952 2.14013 100.483C2.55129 99.2301 3.6673 98.6427 3.7652 98.6035C4.6071 98.1728 5.42942 98.2707 5.76227 98.3294C6.17343 98.3686 6.72165 98.584 7.7985 99.0343C8.38588 99.2888 8.77746 99.4454 9.2082 99.6412C9.63894 99.837 9.95221 99.9937 9.99137 100.033C12.6737 101.384 16.942 101.443 16.942 101.443C20.1725 101.482 22.9724 100.933 22.9724 100.933C24.852 100.561 26.105 100.092 26.849 100.777C27.3385 101.208 27.3972 101.932 27.5147 103.361C27.6322 104.791 27.6713 105.515 27.4168 106.063C27.0057 106.944 25.9875 107.297 21.4256 107.904C18.9195 108.197 17.6468 108.374 16.4721 108.413Z" fill="#C8E9F1" stroke="#303131" stroke-width="3.288" stroke-linecap="round" stroke-linejoin="round"/>
<mask id="mask0_443_345" style="mask-type:alpha" maskUnits="userSpaceOnUse" x="24" y="0" width="183" height="183">
<path d="M115.073 180.719C164.432 180.719 204.432 140.718 204.432 91.3593C204.432 42.0002 164.412 2 115.073 2C65.7332 2 25.7134 42.0002 25.7134 91.3593C25.7134 140.718 65.7136 180.719 115.073 180.719Z" fill="#76D3EF" stroke="#303131" stroke-width="3.288" stroke-linecap="round" stroke-linejoin="round"/>
</mask>
<g mask="url(#mask0_443_345)">
<path d="M115.073 180.719C164.432 180.719 204.432 140.718 204.432 91.3593C204.432 42.0002 164.412 2 115.073 2C65.7332 2 25.7134 42.0002 25.7134 91.3593C25.7134 140.718 65.7136 180.719 115.073 180.719Z" fill="#76D3EF" stroke="#303131" stroke-width="3.288" stroke-linecap="round" stroke-linejoin="round"/>
<path d="M171.48 23.6349C171.911 24.1244 172.244 24.6922 172.909 25.8474C173.262 26.4739 173.458 26.8655 173.575 27.3941C173.634 27.6683 173.732 28.236 173.575 28.8234C173.379 29.5283 172.968 29.7828 172.479 30.3702C171.891 31.0554 171.539 31.9757 170.834 33.777C170.403 34.893 170.482 34.9125 170.07 35.8719C169.679 36.7726 169.464 37.2816 169.072 37.9669C168.798 38.4564 168.602 38.7305 168.406 39.2983C168.23 39.7878 168.113 40.1598 168.191 40.6297C168.289 41.1779 168.641 41.5107 169.072 41.961C169.248 42.1373 169.738 42.6071 170.619 43.0575C171.696 43.6253 171.95 43.4491 172.498 43.9385C172.635 44.0756 173.203 44.5846 173.379 45.3678C173.497 45.916 173.497 46.6992 173.497 46.6992C173.458 47.032 173.321 47.4824 172.949 47.7956C172.479 48.1872 172.048 47.9914 170.854 48.2459C170.09 48.4026 169.483 48.5396 168.974 49.0095C168.857 49.1074 168.426 49.5186 168.308 50.106C168.073 51.3003 169.405 51.8485 170.521 54.061C171.108 55.2357 170.873 55.3728 171.617 56.8216C171.97 57.5069 172.361 58.2313 173.047 59.0341C173.595 59.6606 174.28 60.4438 175.474 60.9137C176.062 61.1486 177.217 61.5989 178.45 61.129C179.508 60.7179 180.056 59.8172 180.545 59.0341C180.957 58.3684 181.25 57.8985 181.309 57.2719C181.544 55.3728 179.586 54.6875 179.664 52.6513C179.703 51.7898 180.036 51.9072 180.33 50.2234C180.408 49.8123 180.447 49.1074 180.545 47.6977C180.604 46.8558 180.702 46.0139 180.761 45.172C180.859 43.9581 180.878 43.5469 181.211 43.2924C181.701 42.94 182.445 43.2141 182.64 43.2924C183.541 43.6253 183.678 44.2322 184.735 45.3874C185.479 46.2097 185.46 45.9552 187.046 47.4824C187.516 47.9327 187.907 48.3438 188.69 49.127C189.748 50.1843 189.943 50.4192 190.57 51.0066C190.922 51.3199 191.666 52.0051 191.666 52.0051C191.745 52.1226 192.077 52.5534 192.665 52.6708C193.272 52.7883 193.898 52.5142 194.212 52.1226C194.74 51.4569 194.427 50.4584 194.212 49.8123C193.879 48.755 193.428 48.4026 192.665 47.2866C191.647 45.7986 192.097 45.916 190.785 43.7623C190.609 43.4686 189.532 41.6869 189.141 40.6688C189.082 40.5318 188.827 40.1989 188.808 39.729C188.788 39.2787 189.004 39.0242 189.082 38.7892C189.395 37.8886 188.044 36.7334 186.811 35.265C186.028 34.3447 185.421 33.2679 184.716 32.2889C182.386 29.078 182.66 29.2542 181.955 28.4318C180.8 27.0417 180.643 27.2179 178 24.6922C176.59 23.3413 176.747 23.4 174.143 20.8351C171.891 18.6227 171.284 18.094 170.403 17.5262C169.738 17.0955 168.739 16.5277 167.76 15.9795C165.92 14.9418 165.939 15.0201 165.45 14.6481C164.882 14.2174 164.53 13.8845 164.353 13.9824C164.216 14.0607 164.255 14.3348 164.471 15.5292C164.647 16.5277 164.745 17.0172 164.804 17.1738C165.117 17.9374 165.626 18.2115 166.35 18.8185C167.917 20.1694 167.466 20.561 168.876 21.7945C170.168 22.9105 170.54 22.5777 171.519 23.6741L171.48 23.6349Z" fill="#C2FA67" stroke="#303131" stroke-width="3.288" stroke-linecap="round" stroke-linejoin="round"/>
<path d="M89.1304 177.449C89.1304 177.449 95.337 176.235 97.5102 175.354C97.5102 175.354 99.0374 174.708 99.8989 173.67C99.9381 173.611 99.9772 173.572 100.016 173.533C100.525 172.809 100.388 172.495 100.8 172.084C101.7 171.223 103.267 171.751 104.735 171.947C107.731 172.339 110.217 171.242 112.214 170.381C114.427 169.402 116.267 168.599 117.324 166.719C117.853 165.76 117.99 164.879 119.028 163.567C119.772 162.627 120.516 162.06 121.123 161.609C123.648 159.71 124.549 160.219 125.978 158.731C126.957 157.713 127.388 156.558 127.819 155.461C129.366 152.916 129.326 151.722 128.896 151.115C128.25 150.195 126.527 150.312 124.275 149.177C122.18 148.119 122.082 147.806 120.614 147.219C118.773 146.475 118.186 146.631 114.72 145.77C112.449 145.222 111.314 144.947 110.53 144.595C107.476 143.244 107.711 141.952 104.755 140.797C103.697 140.366 102.19 139.7 100.29 139.739C98.9395 139.779 98.078 140.131 97.9018 139.798C97.7256 139.485 98.3913 139.093 98.7242 138.153C99.194 136.783 98.5479 135.432 98.45 135.275C97.6864 133.846 96.7075 134.12 95.8264 132.652C95.1216 131.477 95.5915 131.046 94.9062 130.165C94.6125 129.793 94.1035 129.304 91.4994 128.599C89.3261 127.992 88.7388 128.07 86.7809 127.542C84.9404 127.052 84.0398 126.798 83.3741 126.367C81.8665 125.349 81.9448 124.291 79.9673 120.728C78.8905 118.77 78.166 117.517 76.8151 116.146C76.3843 115.716 75.3075 114.658 73.6628 113.66C73.1929 113.366 71.5679 112.407 69.1988 111.702C67.28 111.115 66.7122 111.252 65.655 110.527C64.7543 109.901 65.0676 109.725 63.697 108.432C62.4244 107.218 61.5042 106.357 60.1532 106.063C59.7421 105.985 59.3309 105.946 58.7044 105.672C57.9408 105.319 57.882 105.026 57.2555 104.751C56.2765 104.321 55.2976 104.556 55.0235 104.614C54.3969 104.771 53.9662 105.045 52.9285 105.926C50.814 107.708 50.0699 108.726 49.7763 108.55C49.4434 108.354 49.9721 106.748 50.0504 106.768V106.729C50.0895 106.748 50.0308 107.258 49.972 107.825C50.0504 107.473 50.1287 106.925 50.0112 106.298C49.5217 103.714 46.4674 103.635 44.9794 100.777C44.1766 99.2497 44.2158 97.6833 44.2549 96.0387C44.3137 93.4151 45.0773 93.1997 44.9794 91.3397C44.8619 89.0294 43.4522 88.9119 42.1795 85.2114C41.0635 81.9613 41.4943 81.4522 40.3978 79.0831C38.9686 76.0092 37.9113 76.1658 37.089 73.7185C36.2079 71.134 36.5995 68.6279 37.089 66.8266C37.5589 65.0449 38.3616 62.108 41.1027 60.4829C41.5922 60.1893 44.0396 58.7404 46.7806 59.6802C47.231 59.8368 49.1889 60.5808 50.0895 62.48C50.9902 64.3792 49.8546 65.4169 50.5986 68.3538C50.6965 68.7062 51.4405 71.6235 52.6348 71.6626C53.3984 71.7018 54.0054 70.5858 54.6711 69.3719C56.022 66.8853 55.7283 65.8672 56.7073 63.7527C56.8835 63.3611 57.882 61.2661 59.977 59.4844C61.1909 58.4467 62.4636 57.8789 64.9697 56.7825C69.4925 54.8246 69.9232 55.314 70.7651 54.2959C72.6251 52.0052 71.0392 48.8725 73.0167 47.639C73.1342 47.5803 73.095 47.5999 75.2683 47.0516C77.3046 46.5426 78.3227 46.2685 78.6555 46.151C80.7505 45.4657 80.6134 44.8 83.0217 43.6253C85.1558 42.568 85.4886 42.9792 88.0339 41.7848C90.2464 40.7472 91.3428 40.2185 91.5582 39.22C91.891 37.5558 89.4632 35.9307 90.0702 34.9713C90.2464 34.6776 90.6184 34.6189 90.9316 34.5601C95.8656 33.6595 95.3761 33.6791 95.7677 33.6595C100.33 33.4441 100.623 33.6399 101.387 33.1504C102.699 32.3085 103.169 30.8793 103.423 30.0961C103.521 29.8024 104.324 27.2375 103.071 24.7118C102.366 23.3021 101.955 23.7916 100.408 21.7162C98.8612 19.6604 98.6263 18.329 97.0012 17.2522C96.4921 16.9193 95.8852 16.6452 95.1607 16.606C94.9258 16.5865 94.1818 16.5865 93.4965 16.9976C92.8896 17.3892 92.6742 17.8983 92.1455 19.073C91.3232 20.8743 90.9121 21.7749 90.5596 22.1665C90.031 22.7539 89.287 23.1455 87.8186 23.9287C86.8396 24.4377 86.2914 24.7314 85.4886 25.0055C84.6467 25.2992 84.353 25.2992 83.8831 25.632C83.1979 26.1215 83.2762 26.5327 82.6497 27.2375C82.0819 27.9032 80.8092 28.9605 79.7324 28.6277C78.9688 28.3927 78.6164 27.5508 78.5576 27.3942C78.1269 26.2977 78.8709 25.6908 79.0275 24.0461C79.2037 22.3036 78.4793 22.1665 78.4989 20.1107C78.4989 19.5233 78.5185 18.1528 79.282 16.9585C79.5562 16.5473 80.2414 15.6271 83.2175 14.5894C85.9977 13.63 86.7417 13.9433 89.8939 13.0231C91.8714 12.4357 92.8896 12.1224 93.9468 11.3197C94.7104 10.7323 96.7467 9.26387 96.962 6.85563C97.0012 6.46405 97.1187 5.21098 96.5704 4.48655C94.3384 1.54968 81.24 7.93248 77.7353 9.63587C72.7034 12.0833 66.8884 14.9222 59.8595 20.3065C56.629 22.7931 49.0127 28.9801 41.7096 38.9459C38.3812 43.4882 35.2094 47.8935 32.9578 54.57C31.411 59.1516 30.902 63.0087 30.5104 65.9259C29.9622 70.1159 29.5314 73.5031 30.3733 77.8497C30.8628 80.4145 31.6264 82.4312 31.9396 83.2143C33.4864 87.091 34.5241 87.326 36.1296 91.0852C37.5197 94.3353 36.8736 94.5115 38.4987 98.4273C39.3993 100.62 40.2021 102.539 41.9054 104.712C43.9613 107.355 45.2143 108.961 47.2701 109.431C47.8771 109.568 48.7581 109.666 48.9735 110.214C49.2476 110.958 47.9554 111.585 47.9162 112.975C47.8967 113.954 48.5624 114.189 48.8365 115.344C49.1889 116.812 48.5428 118.144 48.1903 118.888C46.9373 121.433 45.2535 121.1 44.2549 123.215C43.2564 125.368 44.0787 127.679 44.2549 128.188C45.0185 130.381 46.2129 130.302 47.6617 132.769C49.0127 135.08 48.2882 135.647 49.6196 138.8C50.1287 140.013 50.207 139.818 53.0264 144.301C56.022 149.059 56.0807 149.47 57.2163 150.469C58.6065 151.663 59.3309 151.741 60.8776 153.347C62.1894 154.698 62.953 155.931 63.3642 156.617C64.6564 158.77 64.5194 159.671 65.8507 162.51C66.5164 164.135 67.4367 165.975 68.7289 167.894C69.2379 168.638 69.7666 169.323 70.2756 169.95C74.5439 171.81 77.8723 173.474 80.1827 174.708" fill="#C2FA67"/>
<path d="M89.1304 177.449C89.1304 177.449 95.337 176.235 97.5102 175.354C97.5102 175.354 99.0374 174.708 99.8989 173.67C99.9381 173.611 99.9772 173.572 100.016 173.533C100.525 172.809 100.388 172.495 100.8 172.084C101.7 171.223 103.267 171.751 104.735 171.947C107.731 172.339 110.217 171.242 112.214 170.381C114.427 169.402 116.267 168.599 117.324 166.719C117.853 165.76 117.99 164.879 119.028 163.567C119.772 162.627 120.516 162.06 121.123 161.609C123.648 159.71 124.549 160.219 125.978 158.731C126.957 157.713 127.388 156.558 127.819 155.461C129.366 152.916 129.326 151.722 128.896 151.115C128.25 150.195 126.527 150.312 124.275 149.177C122.18 148.119 122.082 147.806 120.614 147.219C118.773 146.475 118.186 146.631 114.72 145.77C112.449 145.222 111.314 144.947 110.53 144.595C107.476 143.244 107.711 141.952 104.755 140.797C103.697 140.366 102.19 139.7 100.29 139.739C98.9395 139.779 98.078 140.131 97.9018 139.798C97.7256 139.485 98.3913 139.093 98.7241 138.153C99.194 136.783 98.5479 135.432 98.45 135.275C97.6864 133.846 96.7075 134.12 95.8264 132.652C95.1216 131.477 95.5915 131.046 94.9062 130.165C94.6125 129.793 94.1035 129.304 91.4994 128.599C89.3261 127.992 88.7388 128.07 86.7809 127.542C84.9404 127.052 84.0398 126.798 83.3741 126.367C81.8665 125.349 81.9448 124.291 79.9673 120.728C78.8905 118.77 78.166 117.517 76.8151 116.146C76.3843 115.716 75.3075 114.658 73.6628 113.66C73.1929 113.366 71.5679 112.407 69.1988 111.702C67.28 111.115 66.7122 111.252 65.655 110.527C64.7543 109.901 65.0676 109.725 63.697 108.432C62.4244 107.218 61.5042 106.357 60.1532 106.063C59.7421 105.985 59.3309 105.946 58.7044 105.672C57.9408 105.319 57.882 105.026 57.2555 104.751C56.2765 104.321 55.2976 104.556 55.0235 104.614C54.3969 104.771 53.9662 105.045 52.9285 105.926C50.814 107.708 50.0699 108.726 49.7763 108.55C49.4434 108.354 49.9721 106.748 50.0504 106.768V106.729C50.0895 106.748 50.0308 107.258 49.9721 107.825C50.0504 107.473 50.1287 106.925 50.0112 106.298C49.5217 103.714 46.4674 103.635 44.9794 100.777C44.1766 99.2497 44.2158 97.6833 44.2549 96.0387C44.3137 93.4151 45.0773 93.1997 44.9794 91.3397C44.8619 89.0294 43.4522 88.9119 42.1795 85.2114C41.0635 81.9613 41.4943 81.4522 40.3978 79.0831C38.9686 76.0092 37.9113 76.1658 37.089 73.7184C36.2079 71.134 36.5995 68.6279 37.089 66.8266C37.5589 65.0449 38.3616 62.108 41.1027 60.4829C41.5922 60.1893 44.0396 58.7404 46.7806 59.6802C47.231 59.8368 49.1889 60.5808 50.0895 62.48C50.9902 64.3792 49.8546 65.4169 50.5986 68.3538C50.6965 68.7062 51.4405 71.6235 52.6348 71.6626C53.3984 71.7018 54.0054 70.5858 54.6711 69.3719C56.022 66.8853 55.7283 65.8672 56.7073 63.7527C56.8835 63.3611 57.882 61.2661 59.977 59.4844C61.1909 58.4467 62.4635 57.8789 64.9697 56.7825C69.4925 54.8246 69.9232 55.314 70.7651 54.2959C72.6251 52.0052 71.0392 48.8725 73.0167 47.639C73.1342 47.5803 73.095 47.5999 75.2683 47.0516C77.3046 46.5426 78.3227 46.2685 78.6555 46.151C80.7505 45.4657 80.6134 44.8 83.0217 43.6253C85.1558 42.568 85.4886 42.9792 88.0339 41.7848C90.2464 40.7472 91.3428 40.2185 91.5582 39.22C91.891 37.5558 89.4632 35.9307 90.0702 34.9713C90.2464 34.6776 90.6184 34.6189 90.9316 34.5601C95.8656 33.6595 95.3761 33.6791 95.7677 33.6595C100.33 33.4441 100.623 33.6399 101.387 33.1504C102.699 32.3085 103.169 30.8793 103.423 30.0961C103.521 29.8024 104.324 27.2375 103.071 24.7118C102.366 23.3021 101.955 23.7916 100.408 21.7162C98.8612 19.6604 98.6262 18.329 97.0012 17.2522C96.4921 16.9193 95.8852 16.6452 95.1607 16.606C94.9258 16.5865 94.1818 16.5865 93.4965 16.9976C92.8896 17.3892 92.6742 17.8983 92.1456 19.073C91.3232 20.8743 90.9121 21.7749 90.5596 22.1665C90.031 22.7539 89.287 23.1455 87.8186 23.9287C86.8396 24.4377 86.2914 24.7314 85.4886 25.0055C84.6467 25.2992 84.353 25.2992 83.8831 25.632C83.1979 26.1215 83.2762 26.5327 82.6497 27.2375C82.0819 27.9032 80.8092 28.9605 79.7324 28.6277C78.9688 28.3927 78.6164 27.5508 78.5576 27.3942C78.1269 26.2977 78.8709 25.6908 79.0275 24.0461C79.2037 22.3036 78.4793 22.1665 78.4989 20.1107C78.4989 19.5233 78.5185 18.1528 79.282 16.9585C79.5562 16.5473 80.2414 15.6271 83.2175 14.5894C85.9977 13.63 86.7417 13.9433 89.8939 13.0231C91.8714 12.4357 92.8896 12.1224 93.9468 11.3197C94.7104 10.7323 96.7467 9.26387 96.962 6.85563C97.0012 6.46405 97.1187 5.21098 96.5704 4.48655C94.3384 1.54968 81.24 7.93248 77.7353 9.63587C72.7035 12.0833 66.8884 14.9222 59.8595 20.3065C56.629 22.7931 49.0127 28.9801 41.7096 38.9459C38.3812 43.4882 35.2094 47.8935 32.9578 54.57C31.411 59.1516 30.902 63.0087 30.5104 65.9259C29.9622 70.1159 29.5314 73.5031 30.3733 77.8497C30.8628 80.4145 31.6264 82.4312 31.9396 83.2143C33.4864 87.091 34.5241 87.326 36.1296 91.0852C37.5197 94.3353 36.8736 94.5115 38.4987 98.4273C39.3993 100.62 40.2021 102.539 41.9054 104.712C43.9613 107.355 45.2143 108.961 47.2701 109.431C47.8771 109.568 48.7581 109.666 48.9735 110.214C49.2476 110.958 47.9554 111.585 47.9162 112.975C47.8967 113.954 48.5624 114.189 48.8365 115.344C49.1889 116.812 48.5428 118.144 48.1903 118.888C46.9373 121.433 45.2535 121.1 44.2549 123.215C43.2564 125.368 44.0787 127.679 44.2549 128.188C45.0185 130.381 46.2129 130.302 47.6617 132.769C49.0127 135.08 48.2882 135.647 49.6196 138.8C50.1287 140.013 50.207 139.818 53.0264 144.301C56.022 149.059 56.0807 149.47 57.2163 150.469C58.6065 151.663 59.3309 151.741 60.8776 153.347C62.1894 154.698 62.953 155.931 63.3642 156.617C64.6564 158.77 64.5194 159.671 65.8507 162.51C66.5164 164.135 67.4367 165.975 68.7289 167.894C69.2379 168.638 69.7666 169.323 70.2756 169.95C74.5439 171.81 77.8723 173.474 80.1827 174.708" stroke="#303131" stroke-width="3.288" stroke-linecap="round" stroke-linejoin="round"/>
<path d="M78.3228 101.266C78.3228 101.266 82.0428 103.753 85.2734 103.753C88.5039 103.753 92.2435 101.873 92.2435 101.873" stroke="#303131" stroke-width="3.288" stroke-linecap="round" stroke-linejoin="round"/>
<path d="M60.4861 29.6458C59.7421 29.4695 59.9183 29.0975 60.1533 28.6276C61.3672 26.239 63.2468 24.5356 65.5571 23.2825C66.7906 22.6168 68.1024 22.0686 69.3946 21.5008C69.6492 21.3833 69.9429 21.3638 70.217 21.3638C70.961 21.3833 71.2743 21.8728 70.8239 22.4798C70.5302 22.8714 70.1191 23.2042 69.6883 23.4196C68.3374 24.0853 66.9473 24.6531 65.5963 25.2796C64.0691 26.004 62.8552 27.0417 62.1308 28.6081C61.8175 29.2933 61.4259 29.9786 60.4861 29.6458Z" fill="#EAF0C8"/>
<path d="M57.3534 30.429C57.4513 30.566 57.7842 30.801 57.8233 31.0751C57.9017 31.7408 57.3926 32.4652 56.9227 32.4065C56.492 32.3477 56.0025 32.2302 56.0025 31.6429C55.9829 31.0163 56.5115 30.4681 57.3534 30.429Z" fill="#EAF0C8"/>
<path d="M47.1723 45.6029C46.3499 45.7008 46.3891 45.2309 46.4674 44.6826C46.859 41.7849 48.21 39.3571 50.1483 37.2621C51.186 36.1266 52.3412 35.1084 53.4572 34.0707C53.6725 33.875 53.9662 33.7183 54.2599 33.64C55.0431 33.3855 55.5326 33.7966 55.2976 34.5798C55.141 35.0889 54.8081 35.5783 54.4361 35.9503C53.281 37.1055 52.0475 38.1824 50.8923 39.3375C49.5805 40.6298 48.6799 42.1374 48.5037 44.017C48.4058 44.7805 48.2295 45.6224 47.1723 45.6029Z" fill="#EAF0C8"/>
<path d="M200.301 62.7737C199.851 62.7933 199.381 63.7918 199.244 64.4575C199.048 65.3582 199.381 65.8476 198.97 66.5916C198.891 66.7287 198.637 67.2378 198.089 67.4923C197.227 67.8839 196.248 67.3552 195.328 66.8657C194.623 66.4937 194.134 66.063 193.82 65.8085C193.488 65.5344 193.116 65.2015 192.763 64.7512C191.902 63.6352 192.195 63.0478 191.334 61.8143C190.981 61.3053 190.629 60.8158 190.002 60.5808C189.337 60.3263 188.71 60.4634 188.221 60.5808C187.242 60.8158 186.596 61.3248 185.636 62.0884C184.599 62.9303 184.05 63.3219 183.952 63.7722C183.815 64.4184 184.187 64.8883 183.855 65.5931C183.698 65.926 183.463 66.1609 183.287 66.298C183.208 66.3567 183.091 66.435 182.934 66.4937C182.739 66.5721 182.406 66.67 181.897 66.6112C180.722 66.4742 179.802 65.5931 179.058 65.8085C178.823 65.8868 178.451 66.1022 178 67.414C177.315 69.411 177.746 70.2334 177.472 73.2877C177.315 74.9128 177.139 75.2261 177.119 76.7532C177.1 77.9084 177.178 78.1238 177.041 78.7111C176.708 79.9251 175.964 80.3949 174.907 81.5501C174.065 82.4899 173.576 83.2927 172.597 84.9177C172.029 85.8771 171.167 87.3064 170.462 89.2643C169.718 91.3201 169.503 92.906 169.229 94.9618C168.916 97.2134 168.759 98.3295 168.994 99.4846C169.209 100.561 169.542 101.168 169.679 102.696C169.738 103.498 169.758 104.673 169.758 104.908C169.777 105.75 169.758 106.376 169.758 106.514C169.738 108.432 170.267 111.722 171.187 114.952C171.872 117.38 172.42 118.574 172.694 119.123C173.341 120.434 173.771 121.276 174.652 121.962C175.436 122.568 176.297 122.862 178.647 123.117C182.112 123.508 183.855 123.704 185.499 123.293C187.046 122.921 189.591 122.294 191.177 120.18C192.019 119.064 192.293 117.948 193.762 116.988C194.251 116.675 195.23 116.029 196.072 116.362C196.933 116.714 197.168 117.869 197.305 118.574C197.56 119.808 197.364 120.513 196.855 123.547C196.522 125.564 196.64 125.133 196.326 127.013C196.326 127.013 196.17 127.914 195.876 130.204C195.798 130.772 195.817 131.203 195.798 132.064C195.759 133.298 195.739 133.905 195.817 133.944C196.17 134.061 197.717 130.87 199.087 127.267C200.164 124.468 200.928 122.099 202.2 116.871C205 105.339 205.235 104.105 205.392 102.03C205.411 101.697 205.431 99.1126 205.47 93.9437C205.548 85.3093 205.49 83.6451 205.215 81.3348C205.039 79.8859 204.569 77.693 203.61 73.3269C201.593 64.1247 200.849 62.7345 200.301 62.7737Z" fill="#C2FA67" stroke="#303131" stroke-width="3.288" stroke-linecap="round" stroke-linejoin="round"/>
<path d="M71.7637 85.4855C71.7049 85.4855 71.607 85.466 71.5287 85.4072C71.4504 85.3485 71.2155 85.1527 71.3917 84.1737C71.5679 83.2144 71.6658 82.6074 72.2336 82.0396C72.2336 82.0396 72.9776 81.2956 74.6027 81.2173C74.7985 81.2173 74.9747 81.276 74.9942 81.276C75.0726 81.3152 75.1705 81.3348 75.2096 81.4327C75.2879 81.5501 75.2292 81.7068 75.2096 81.7263C75.1313 81.9417 74.8963 82.0396 74.818 82.0788C73.7608 82.5291 73.2713 82.5487 72.9189 82.9402C72.5664 83.3318 72.4881 84.0171 72.4685 84.1346C72.4294 84.4283 72.3902 84.5849 72.3119 84.9177C72.2532 85.1723 72.214 85.3485 71.7637 85.4855Z" fill="white"/>
<path d="M96.5313 86.6016C96.4725 86.6016 96.3746 86.582 96.2963 86.5233C96.218 86.4646 96.0026 86.2492 96.1789 85.2898C96.3551 84.3304 96.4725 83.7235 97.0599 83.1753C97.0599 83.1753 97.8235 82.4312 99.429 82.3921C99.6248 82.3921 99.801 82.4508 99.8206 82.4704C99.8989 82.5096 99.9968 82.5487 100.036 82.627C100.114 82.7445 100.056 82.9011 100.036 82.9207C99.9576 83.1361 99.7227 83.234 99.6444 83.2732C98.5871 83.7039 98.0976 83.7235 97.7452 84.0955C97.3732 84.4871 97.2949 85.1527 97.2753 85.2898C97.2361 85.5835 97.197 85.7401 97.1187 86.073C97.0403 86.3079 96.9816 86.4841 96.5313 86.6016Z" fill="white"/>
<path d="M67.5931 79.3182C68.4546 79.1811 69.316 79.1028 70.1775 78.9854C71.9984 78.7308 73.4668 78.6917 74.2696 78.6525C75.2094 78.6329 76.6778 78.5938 78.577 78.7896C80.2608 78.9658 81.2202 79.0637 82.5124 79.4553C83.4914 79.7489 84.0787 80.0426 85.1752 80.1014C85.6842 80.1209 85.8996 80.0818 87.0156 80.0818C87.975 80.0818 88.4645 80.1209 88.8952 80.1405C90.4028 80.1797 91.4992 79.9447 92.4782 79.7685C94.3578 79.4553 95.8066 79.4748 97.9995 79.4944C98.3911 79.4944 101.485 79.5336 104.637 80.0818C105.812 80.2776 106.751 80.5125 106.947 80.5713C107.672 80.7475 108.357 80.9237 109.238 81.237C110.315 81.609 110.197 81.6873 110.569 81.7264C111.568 81.8635 111.862 81.3153 113.369 81.0999C114.133 80.9824 114.838 80.9041 115.249 81.3153C115.64 81.7264 115.503 82.3921 115.503 82.4117C115.288 83.3907 113.957 83.841 113.506 83.9976C113.056 84.1542 113.017 84.0759 111.215 84.4088C110.53 84.5263 110.178 84.6046 110.099 84.6437C109.218 85.1724 109.649 86.3863 108.925 88.4029C108.514 89.5581 107.946 90.3608 107.632 90.7524C106.908 91.6726 106.144 92.2404 105.753 92.5145C104.793 93.1998 103.952 93.5522 103.58 93.6893C102.072 94.2767 100.799 94.2963 99.8791 94.3158C99.5071 94.3158 98.1953 94.3354 96.5311 93.9438C95.9829 93.8068 95.0822 93.5914 93.9858 93.0628C93.5355 92.8474 92.9089 92.5341 92.1845 91.9663C91.9104 91.751 91.2643 91.2027 90.6182 90.3608C90.207 89.8126 89.6392 89.049 89.3064 87.9526C88.9931 86.8562 88.8365 86.2884 88.7973 85.9164C88.7973 85.9164 88.7386 85.3682 88.4253 84.957C88.3861 84.8983 88.2883 84.7808 88.1316 84.7025C87.9946 84.6241 87.8575 84.585 87.7988 84.585C87.1527 84.4479 86.6436 84.722 86.6436 84.722C86.252 84.9374 85.9192 85.4465 85.2731 86.4842C85.2731 86.5037 85.2731 86.4646 85.2731 86.4842C85.2535 86.5037 84.4507 88.0309 83.3739 89.2253C82.4145 90.3021 81.4355 90.8895 80.9656 91.1636C79.3797 92.0838 77.97 92.3383 77.089 92.495C75.9534 92.6908 75.0919 92.6908 74.8178 92.6712C74.5045 92.6712 73.7409 92.632 72.8207 92.4362C70.6278 91.9859 69.0811 90.8895 68.572 90.5175C67.6518 89.8322 66.2225 88.7554 65.4785 86.8953C65.1261 85.9947 64.7737 85.1136 64.7933 83.9389C64.8128 83.5473 64.6954 81.6285 65.2436 80.5908C65.7918 79.5531 67.0644 79.4161 67.5931 79.3182Z" fill="#303131"/>
<path d="M67.6519 84.8981C67.5931 84.8981 67.4952 84.8786 67.4169 84.8198C67.3386 84.7611 67.1037 84.5653 67.2799 83.5863C67.4561 82.627 67.554 82.02 68.1218 81.4522C68.1218 81.4522 68.8658 80.7082 70.4908 80.6299C70.6866 80.6299 70.8628 80.6886 70.8824 80.6886C70.9607 80.7278 71.0586 80.7474 71.0978 80.8453C71.1761 80.9627 71.1174 81.1194 71.0978 81.1389C71.0195 81.3543 70.7845 81.4522 70.7062 81.4914C69.6489 81.9417 69.1595 81.9613 68.807 82.3528C68.4546 82.7444 68.3763 83.4297 68.3567 83.5472C68.3176 83.8409 68.2784 83.9975 68.2001 84.3303C68.1413 84.5849 68.1022 84.7611 67.6519 84.8981Z" fill="white"/>
<path d="M92.0284 85.8184C91.9696 85.8184 91.8717 85.7988 91.7934 85.7401C91.7151 85.6814 91.4997 85.466 91.6759 84.5066C91.8521 83.5472 91.9696 82.9403 92.557 82.3921C92.557 82.3921 93.3206 81.648 94.9261 81.6089C95.1219 81.6089 95.2981 81.6676 95.3176 81.6872C95.396 81.7264 95.4939 81.7655 95.533 81.8438C95.6113 81.9613 95.5526 82.1179 95.533 82.1375C95.4547 82.3529 95.2198 82.4508 95.1414 82.4899C94.0842 82.9207 93.5947 82.9403 93.2423 83.3123C92.8703 83.7039 92.7919 84.3695 92.7724 84.5066C92.7332 84.8003 92.694 84.9569 92.6157 85.2898C92.5374 85.5247 92.4787 85.7009 92.0284 85.8184Z" fill="white"/>
<path opacity="0.4" d="M103.952 179.27C114.994 178.095 140.623 173.807 163.042 153.758C167.447 149.803 175.729 142.265 182.425 129.969C193.82 109 196.111 84.6828 196.111 55.5099C196.111 55.5099 202.513 70.9774 203.864 82.9794C206.488 106.161 199.106 123.587 197.462 127.287C188.279 148.041 172.968 159.182 166.801 163.665C164.295 165.486 162.258 166.778 161.769 167.072C154.309 171.751 141.876 177.958 125.606 179.74C120.418 180.307 112.938 180.621 103.952 179.27Z" fill="#33637C"/>
<path d="M85.71 91.281C85.71 91.281 83.2666 92.8762 83.5746 93.6272C83.8858 94.3769 85.1103 95.2048 85.1103 95.2048" stroke="#303131" stroke-width="3.288" stroke-linecap="round" stroke-linejoin="round"/>
<path d="M109.694 70.9657C108.928 69.8646 107.371 67.9672 104.874 66.8021C102.519 65.7037 100.401 65.7562 99.2089 65.8967" stroke="#303131" stroke-width="3.58691" stroke-linecap="round" stroke-linejoin="round"/>
<path d="M67.9369 68.896C68.6744 67.8898 70.166 66.1607 72.5186 65.1284C74.7368 64.1552 76.7106 64.2445 77.8186 64.3975" stroke="#303131" stroke-width="3.58691" stroke-linecap="round" stroke-linejoin="round"/>
</g>
<path d="M115.073 180.719C164.432 180.719 204.432 140.718 204.432 91.3593C204.432 42.0002 164.412 2 115.073 2C65.7332 2 25.7134 42.0002 25.7134 91.3593C25.7134 140.718 65.7136 180.719 115.073 180.719Z" stroke="#303131" stroke-width="3.288" stroke-linecap="round" stroke-linejoin="round"/>
<path d="M162.693 141.683L164.857 145.248L171.552 141.183L169.388 137.618L162.693 141.683Z" fill="#C5C0B8" stroke="#303131" stroke-width="3.288" stroke-linecap="round" stroke-linejoin="round"/>
<path d="M192.249 159.974L184.785 164.506L190.241 173.494L197.706 168.962L192.249 159.974Z" fill="#FE563E" stroke="#303131" stroke-width="3.288" stroke-linecap="round" stroke-linejoin="round"/>
<path d="M166.337 139.624L162.772 141.788L177.273 165.671L180.837 163.506L166.337 139.624Z" fill="#C5C0B8" stroke="#303131" stroke-width="3.288" stroke-linecap="round" stroke-linejoin="round"/>
<path d="M199.898 168.079L191.68 173.068L202.888 191.528L211.106 186.539L199.898 168.079Z" fill="#FE563E" stroke="#303131" stroke-width="3.288" stroke-linecap="round" stroke-linejoin="round"/>
<path d="M203.16 194.933L206.469 198.399L209.19 197.792L207.878 191.918L203.16 194.933Z" fill="#C5C0B8" stroke="#303131" stroke-width="3.288" stroke-linecap="round" stroke-linejoin="round"/>
<path d="M208.524 202.784C210.222 202.784 211.598 201.408 211.598 199.71C211.598 198.013 210.222 196.636 208.524 196.636C206.826 196.636 205.45 198.013 205.45 199.71C205.45 201.408 206.826 202.784 208.524 202.784Z" fill="#C5C0B8" stroke="#303131" stroke-width="3.288" stroke-linecap="round" stroke-linejoin="round"/>
<path d="M194.956 199.358L198.264 202.843L200.986 202.236L199.674 196.362L194.956 199.358Z" fill="#C5C0B8" stroke="#303131" stroke-width="3.288" stroke-linecap="round" stroke-linejoin="round"/>
<path d="M205.45 195.657L199.655 199.182C197.364 200.572 194.368 199.847 192.978 197.557L176.179 169.891C174.789 167.6 175.514 164.605 177.804 163.215L183.6 159.69C185.891 158.3 188.886 159.025 190.276 161.316L207.075 188.981C208.485 191.272 207.741 194.267 205.45 195.657Z" fill="#FE563E" stroke="#303131" stroke-width="3.288" stroke-linecap="round" stroke-linejoin="round"/>
<path d="M200.321 207.229C202.018 207.229 203.394 205.852 203.394 204.155C203.394 202.457 202.018 201.081 200.321 201.081C198.623 201.081 197.247 202.457 197.247 204.155C197.247 205.852 198.623 207.229 200.321 207.229Z" fill="#C5C0B8" stroke="#303131" stroke-width="3.288" stroke-linecap="round" stroke-linejoin="round"/>
<path d="M177.824 167.796C177.882 167.992 177.941 168.149 178.372 168.873C178.685 169.402 178.646 169.323 178.705 169.421C178.881 169.774 178.901 169.97 179.116 170.126C179.155 170.165 179.351 170.283 179.468 170.224C179.586 170.165 179.586 169.95 179.586 169.872C179.586 169.539 179.429 169.323 179.077 168.795C178.979 168.658 178.705 168.247 178.47 167.679C178.411 167.542 178.352 167.366 178.411 167.209C178.45 167.131 178.489 167.072 178.842 166.837C179.214 166.582 179.312 166.543 179.37 166.387C179.41 166.289 179.41 166.152 179.331 166.073C179.312 166.054 179.253 165.995 179.038 166.015C178.666 166.054 178.392 166.25 178.294 166.347C178.196 166.426 178.039 166.563 177.902 166.798C177.785 166.994 177.765 167.17 177.765 167.228C177.745 167.287 177.726 167.483 177.824 167.796Z" fill="#F4807F"/>
<path d="M141.876 167.855C151.803 183.166 158.969 194.189 160.242 195.931C160.379 196.127 160.966 196.891 161.24 198.026C161.338 198.418 161.651 199.769 161.103 201.257C160.751 202.197 160.183 202.725 159.067 203.802C157.344 205.447 155.778 206.269 154.799 206.68C153.937 207.052 153.506 207.209 152.978 207.17C151.118 207.072 149.16 205.036 149.258 203C149.258 203 149.336 201.551 150.57 200.239C150.628 200.18 150.805 200.004 151 199.828C151.177 199.671 151.314 199.554 151.49 199.436C152.018 199.103 152.293 199.123 152.547 198.829C152.86 198.457 152.86 197.889 152.841 197.615C152.743 196.245 151.157 194.306 151 194.13C149.884 192.446 148.945 191.095 148.298 190.195C147.182 188.628 146.889 188.276 145.968 186.925C144.911 185.398 145.009 185.437 143.521 183.205C142.895 182.265 141.72 180.523 140.212 178.369C139.468 177.331 138.92 176.568 138.783 176.372C137.491 174.61 136.316 173.063 135.298 171.751" fill="#C8E9F1"/>
<path d="M141.876 167.855C151.803 183.166 158.969 194.189 160.242 195.931C160.379 196.127 160.966 196.891 161.24 198.026C161.338 198.418 161.651 199.769 161.103 201.257C160.751 202.197 160.183 202.725 159.067 203.802C157.344 205.447 155.778 206.269 154.799 206.68C153.937 207.052 153.506 207.209 152.978 207.17C151.118 207.072 149.16 205.036 149.258 203C149.258 203 149.336 201.551 150.57 200.239C150.628 200.18 150.805 200.004 151 199.828C151.177 199.671 151.314 199.554 151.49 199.436C152.018 199.103 152.293 199.123 152.547 198.829C152.86 198.457 152.86 197.889 152.841 197.615C152.743 196.245 151.157 194.306 151 194.13C149.884 192.446 148.945 191.095 148.298 190.195C147.182 188.628 146.889 188.276 145.968 186.925C144.911 185.398 145.009 185.437 143.521 183.205C142.895 182.265 141.72 180.523 140.212 178.369C139.468 177.331 138.92 176.568 138.783 176.372C137.491 174.61 136.316 173.063 135.298 171.751" stroke="#303131" stroke-width="3.288" stroke-linecap="round" stroke-linejoin="round"/>
<path d="M162.239 109.568C164.529 111.193 166.35 112.583 167.643 113.601C169.131 114.776 169.992 115.52 170.54 115.99C170.873 116.283 171.206 116.616 171.598 116.89C171.793 117.027 172.361 117.811 172.381 117.909C172.518 118.613 172.263 119.455 172.244 119.494C171.793 120.885 171.03 122.608 170.971 122.705L166.664 131.555C164.157 136.842 162.493 140.327 162.004 141.188C161.906 141.364 161.534 142.05 161.436 143.009C161.397 143.342 161.319 144.477 161.965 145.652C162.376 146.396 162.924 146.788 163.981 147.551C165.646 148.765 167.036 149.274 167.936 149.529C168.7 149.744 169.091 149.862 169.522 149.764C170.717 149.529 171.656 148.178 171.656 146.886C171.656 145.593 170.697 144.615 169.894 143.753C169.131 142.95 168.935 143.087 168.68 142.657C167.838 141.364 169.17 139.524 171.382 135.217L175.65 126.425C175.65 126.425 178.294 120.023 178.47 118.613C178.626 117.184 178.548 116.107 178.274 115.109C178 114.13 176.277 112.818 176.277 112.818C173.458 110.41 170.227 107.629 166.683 104.595" fill="#C8E9F1"/>
<path d="M162.239 109.568C164.529 111.193 166.35 112.583 167.643 113.601C169.131 114.776 169.992 115.52 170.54 115.99C170.873 116.283 171.206 116.616 171.598 116.89C171.793 117.027 172.361 117.811 172.381 117.909C172.518 118.613 172.263 119.455 172.244 119.494C171.793 120.885 171.03 122.608 170.971 122.705L166.664 131.555C164.157 136.842 162.493 140.327 162.004 141.188C161.906 141.364 161.534 142.05 161.436 143.009C161.397 143.342 161.319 144.477 161.965 145.652C162.376 146.396 162.924 146.788 163.981 147.551C165.646 148.765 167.036 149.274 167.936 149.529C168.7 149.744 169.091 149.862 169.522 149.764C170.717 149.529 171.656 148.178 171.656 146.886C171.656 145.593 170.697 144.615 169.894 143.753C169.131 142.95 168.935 143.087 168.68 142.657C167.838 141.364 169.17 139.524 171.382 135.217L175.65 126.425C175.65 126.425 178.294 120.023 178.47 118.613C178.626 117.184 178.548 116.107 178.274 115.109C178 114.13 176.277 112.818 176.277 112.818C173.458 110.41 170.227 107.629 166.683 104.595" stroke="#303131" stroke-width="3.288" stroke-linecap="round" stroke-linejoin="round"/>
</svg>
