<svg xmlns="http://www.w3.org/2000/svg" width="764" height="931" fill="none" viewBox="0 0 764 931"><g clip-path="url(#clip0_12_66)" filter="url(#filter0_d_12_66)"><rect width="756" height="923" fill="#2B2B2B" transform="translate(4)"/><g filter="url(#filter1_d_12_66)"><path fill="url(#paint0_radial_12_66)" fill-rule="evenodd" d="M366.229 233.855C364.25 232.336 361.838 231.488 359.344 231.435L338.291 230.98L377.364 290.594L432.722 284.884L366.229 233.855ZM437.23 292.462L378.911 298.477L362.072 427.795L418.845 343.893L437.23 292.462ZM436.735 317.613L446.9 289.178L447.881 286.433L445.568 284.658L371.1 227.509C367.77 224.953 363.712 223.527 359.516 223.436L330.866 222.818L330.785 222.817L330.703 222.818L318.283 223.057L289.416 218.814C283.383 217.928 277.279 219.881 272.882 224.106L216.748 278.042L214.578 280.128L215.981 282.791L267.699 380.96L194.301 309.962L192.608 308.325L190.355 309.01L66.666 346.643C61.3622 348.256 56.9823 352.027 54.5988 357.033L48.4062 370.037L40.3158 386.056L30.9444 400.128C25.1801 408.784 27.1261 420.428 35.3916 426.739L111.321 484.712L112.239 485.413L113.389 485.517L249.729 497.804L114.909 534.687L112.108 535.454L111.969 538.355L105.305 678.106C104.951 685.538 108.809 692.537 115.282 696.206L145.992 713.61L146.075 713.657L146.161 713.701L159.476 720.426L159.707 720.542L159.95 720.628L196.509 733.515C202.256 735.54 208.616 734.796 213.74 731.499L359.397 637.763L361.101 636.667L361.225 634.645L363.492 597.66L390.052 668.202L390.798 670.184L392.856 670.681L541.219 706.497C547.99 708.131 555.122 706.073 559.981 701.082L583.059 677.375L583.229 677.2L583.377 677.006L593.855 663.226L593.885 663.187L617.677 632.684C622.42 626.602 623.184 618.313 619.631 611.467L550.532 478.323L584.689 478.46L587.045 478.47L588.196 476.414L632.799 396.698C636.595 389.914 636.053 381.533 631.413 375.296L617.223 356.215L608.295 342.375L595.089 319.122C592.553 314.658 588.377 311.358 583.448 309.923L468.15 276.378L465.361 275.566L463.726 277.968L436.735 317.613ZM598.293 340.964L588.132 323.073C586.625 320.419 584.143 318.457 581.213 317.605L474.898 286.673L506.945 348.296L598.293 340.964ZM503.452 358.443L358.275 470.174L368.077 470.186L519.001 385.179L503.452 358.443ZM523.154 392.022L384.342 470.207L405.799 470.234L540.012 418.583L523.154 392.022ZM551.328 421.117L584.286 467.018L625.818 392.792C628.074 388.759 627.752 383.778 624.994 380.07L613.365 364.433L551.328 421.117ZM608.74 357.823L602.808 348.627L511.271 355.975L527.916 384.596L546.828 414.393L608.74 357.823ZM576.886 470.429L544.559 425.405L428.046 470.245L543.938 470.296L543.945 470.296L543.952 470.296L576.886 470.429ZM357.822 460.428L499.526 351.369L466.572 288.003L425.754 347.957L425.747 347.967L359.77 445.472L357.822 460.428ZM355.271 480.017L354.922 482.702L488.221 577.991L513.85 551.145L355.271 480.017ZM518.163 544.311L538.518 478.294L406.538 478.235L406.535 478.235L370.745 478.19L518.163 544.311ZM544.882 484.803L525.017 549.232L591.046 653.819L611.368 627.763C614.188 624.148 614.642 619.221 612.53 615.152L544.882 484.803ZM585.837 660.554L520.007 556.281L491.615 586.02L491.611 586.025L465.295 613.68L579.002 669.543L585.837 660.554ZM573.482 675.745L459.16 619.579L402.661 664.818L543.096 698.72C547.121 699.692 551.36 698.468 554.248 695.501L573.482 675.745ZM395.597 660.225L364.695 578.152L368.319 526.244L452.732 614.476L395.597 660.225ZM458.635 609.074L367.849 514.18L350.065 495.591L347.946 493.377L351.189 489.868L482.647 583.84L458.635 609.074ZM346.844 482.783L348.033 473.649L348.642 468.971L351.959 443.499L370.825 298.618L342.602 297.311L346.26 483.415L346.844 482.783ZM337.649 452.423L334.596 297.066L303.839 296.655L337.649 452.423ZM304.18 288.658L321.043 231.005L328.646 230.859L367.714 290.465L338.704 289.122L338.638 289.119L338.572 289.118L304.18 288.658ZM312.899 230.352L288.253 226.729C284.666 226.202 281.038 227.364 278.424 229.875L228.177 278.156L296.001 288.124L312.899 230.352ZM226.729 286.029L295.541 296.143L336.722 485.863L330.182 482.401L325.615 473.731L310.186 444.445L286.435 399.362L226.729 286.029ZM312.967 466.887L303.664 449.229L170.751 375.537L161.99 395.825L312.967 466.887ZM153.128 396.17L162.702 373.998L54.4788 375.759L49.2434 386.125L139.717 426.331L153.11 396.209L153.128 396.17ZM143.683 436.336L120.258 478.104L272.355 491.811L315.225 491.837L326.668 489.592L325.71 489.085L143.683 436.336ZM332.809 496.54L317.169 499.608L195.431 580.97L223.163 592.306L332.809 496.54ZM231.447 595.693L268.38 610.791L341.703 499.393L231.447 595.693ZM347.755 504.75L276.471 613.05L353.525 629.517L356.652 578.499L356.653 578.483L356.654 578.466L360.845 518.432L347.755 504.75ZM346.912 636.285L271.113 620.086L168.843 715.28L199.168 725.97C202.584 727.174 206.365 726.731 209.411 724.771L346.912 636.285ZM160.595 712.028L262.607 617.074L222.421 600.646L189.503 587.189L152.769 708.076L160.595 712.028ZM145.589 704.187L182.224 583.627L119.639 545.471L113.296 678.487C113.085 682.905 115.379 687.065 119.226 689.246L145.589 704.187ZM125.964 539.957L186.854 577.08L302.441 499.829L272.71 499.811L125.964 539.957ZM112.513 475.558L136.111 433.483L45.2371 393.099L37.603 404.563C34.1766 409.708 35.3333 416.629 40.2465 420.38L112.513 475.558ZM147.265 429.045L319.293 478.897L319.161 478.645L158.777 403.154L147.265 429.045ZM58.3825 367.694L166.098 365.941L184.731 319.083L68.9946 354.296C65.8419 355.255 63.2385 357.497 61.8217 360.472L58.3825 367.694ZM193.03 319.863L173.847 368.105L296.857 436.307L279.656 403.657L193.03 319.863ZM908.541 -170.313C1023.18 -133.895 1091.1 -36.0115 1182.45 35.0744C1276.41 108.189 1402.83 158.195 1454.87 254.833C1508.38 354.207 1501.84 466.947 1468.06 565.493C1435.37 660.838 1353.13 732.64 1268.32 799.008C1186.36 863.145 1098.07 926.473 984.488 943.9C873.115 960.988 758.868 918.221 644.542 894.714C524.394 870.01 386.278 875.933 294.762 802.084C203.221 728.215 201.039 612.596 170.483 512.172C141.863 418.112 104.602 324.144 121.189 231.63C138.239 136.532 190.735 50.9821 265.548 -18.0636C341.675 -88.3229 440.026 -139.032 551.377 -165.398C665.324 -192.379 791.378 -207.532 908.541 -170.313Z" clip-rule="evenodd"/></g></g><defs><filter id="filter0_d_12_66" width="764" height="931" x="0" y="0" color-interpolation-filters="sRGB" filterUnits="userSpaceOnUse"><feFlood flood-opacity="0" result="BackgroundImageFix"/><feColorMatrix in="SourceAlpha" result="hardAlpha" type="matrix" values="0 0 0 0 0 0 0 0 0 0 0 0 0 0 0 0 0 0 127 0"/><feOffset dy="4"/><feGaussianBlur stdDeviation="2"/><feComposite in2="hardAlpha" operator="out"/><feColorMatrix type="matrix" values="0 0 0 0 0 0 0 0 0 0 0 0 0 0 0 0 0 0 0.25 0"/><feBlend in2="BackgroundImageFix" mode="normal" result="effect1_dropShadow_12_66"/><feBlend in="SourceGraphic" in2="effect1_dropShadow_12_66" mode="normal" result="shape"/></filter><filter id="filter1_d_12_66" width="1666.61" height="1340.33" x="-72.364" y="-292.5" color-interpolation-filters="sRGB" filterUnits="userSpaceOnUse"><feFlood flood-opacity="0" result="BackgroundImageFix"/><feColorMatrix in="SourceAlpha" result="hardAlpha" type="matrix" values="0 0 0 0 0 0 0 0 0 0 0 0 0 0 0 0 0 0 127 0"/><feOffset/><feGaussianBlur stdDeviation="50"/><feComposite in2="hardAlpha" operator="out"/><feColorMatrix type="matrix" values="0 0 0 0 1 0 0 0 0 1 0 0 0 0 1 0 0 0 0.1 0"/><feBlend in2="BackgroundImageFix" mode="normal" result="effect1_dropShadow_12_66"/><feBlend in="SourceGraphic" in2="effect1_dropShadow_12_66" mode="normal" result="shape"/></filter><radialGradient id="paint0_radial_12_66" cx="0" cy="0" r="1" gradientTransform="translate(-16.499 -100.5) rotate(39.3172) scale(1088.99 756.538)" gradientUnits="userSpaceOnUse"><stop stop-color="#FFF4DA"/><stop offset="0" stop-color="#FFECBE"/><stop offset=".349" stop-color="#FEBBB7"/><stop offset=".641" stop-color="#E989DA"/><stop offset="1" stop-color="#8DB6FC"/></radialGradient><clipPath id="clip0_12_66"><rect width="756" height="923" fill="#fff" transform="translate(4)"/></clipPath></defs></svg>