<svg xmlns="http://www.w3.org/2000/svg" width="451" height="13467" fill="none" viewBox="0 0 451 13467"><g clip-path="url(#clip0_463_245)"><rect width="451" height="13467" fill="#fff"/><g filter="url(#filter0_d_463_245)"><path fill="url(#paint0_radial_463_245)" fill-opacity=".75" fill-rule="evenodd" d="M5.52859 1668.72C-54.4282 1719.25 -132.014 1722.64 -202.978 1748.27C-275.967 1774.63 -347.514 1826.93 -418.888 1821.99C-492.283 1816.92 -552.159 1774.1 -594.731 1721.2C-635.921 1670.01 -646.894 1599.7 -653.977 1529.86C-660.821 1462.36 -665.018 1391.66 -635.114 1322.99C-605.79 1255.65 -542.472 1207.54 -489.743 1152.7C-434.329 1095.06 -389.548 1016.86 -317.002 992.101C-244.437 967.334 -179.941 1006.35 -113.952 1024.44C-52.1446 1041.39 12.6185 1053.53 57.8477 1094.86C104.341 1137.34 133.239 1196.04 145.277 1261.3C157.526 1327.71 151.266 1399.56 127.065 1470.12C102.3 1542.32 66.8035 1617.08 5.52859 1668.72Z" clip-rule="evenodd" shape-rendering="crispEdges"/></g><g filter="url(#filter1_d_463_245)"><path fill="url(#paint1_radial_463_245)" fill-opacity=".75" fill-rule="evenodd" d="M5.52859 1668.72C-54.4282 1719.25 -132.014 1722.64 -202.978 1748.27C-275.967 1774.63 -347.514 1826.93 -418.888 1821.99C-492.283 1816.92 -552.159 1774.1 -594.731 1721.2C-635.921 1670.01 -646.894 1599.7 -653.977 1529.86C-660.821 1462.36 -665.018 1391.66 -635.114 1322.99C-605.79 1255.65 -542.472 1207.54 -489.743 1152.7C-434.329 1095.06 -389.548 1016.86 -317.002 992.101C-244.437 967.334 -179.941 1006.35 -113.952 1024.44C-52.1446 1041.39 12.6185 1053.53 57.8477 1094.86C104.341 1137.34 133.239 1196.04 145.277 1261.3C157.526 1327.71 151.266 1399.56 127.065 1470.12C102.3 1542.32 66.8035 1617.08 5.52859 1668.72Z" clip-rule="evenodd" shape-rendering="crispEdges"/></g><g filter="url(#filter2_d_463_245)"><path fill="url(#paint2_radial_463_245)" fill-opacity=".75" d="M559.669 2488.94C669.543 2500.65 769.624 2515.3 842.613 2488.94C975.624 2418.22 1070.51 2362.08 1029.89 2142.24C1017.85 2076.98 988.954 2018.28 942.461 1975.8C897.232 1934.47 842.182 1917.31 770.661 1905.38C617.708 1879.86 516.139 1936.99 394.87 2033.64C326.49 2088.13 278.823 2136.58 249.5 2203.93C219.595 2272.6 197.628 2336.69 230.636 2410.8C284.374 2531.44 428.343 2474.94 559.669 2488.94Z" shape-rendering="crispEdges"/></g><path stroke="url(#paint3_linear_463_245)" stroke-width="8" d="M375.771 1453.32L436.616 1404.76C440.415 1401.73 445.404 1400.63 450.128 1401.77L478.807 1408.72M375.771 1453.32L453.71 1472.21M375.771 1453.32L427.845 1578.93M478.807 1408.72L453.71 1472.21M478.807 1408.72L491.526 1409.65M453.71 1472.21L478.696 1676.2M453.71 1472.21L493.15 1476.38M464.262 1666.77L474.971 1673.77M464.262 1666.77L284.503 1596.24M464.262 1666.77L460.037 1656.58M478.696 1676.2L493.15 1476.38M478.696 1676.2L487.664 1668.13M478.696 1676.2L474.971 1673.77M478.696 1676.2L482.942 1681.55M478.696 1676.2L351.178 1768.41M493.15 1476.38L529.673 1481.46M487.664 1668.13L489.966 1657.9M487.664 1668.13L616.099 1779.08M529.673 1481.46L491.526 1409.65M529.673 1481.46L597.808 1480.71M529.673 1481.46L496.641 1628.24M491.526 1409.65L519.999 1412.89C523.323 1413.27 526.44 1414.7 528.896 1416.97L597.808 1480.71M597.808 1480.71L571.893 1536.45M571.893 1536.45L496.641 1628.24M571.893 1536.45L622.305 1475.32M496.641 1628.24L491.002 1653.3M622.305 1475.32L734.04 1519.3C737.848 1520.8 740.922 1523.73 742.608 1527.46L753.672 1551.93M622.305 1475.32L653.105 1550.74M753.672 1551.93L761.406 1566.75M753.672 1551.93L653.105 1550.74M761.406 1566.75L773.856 1587.16C777.083 1592.45 776.901 1599.14 773.391 1604.25L721.663 1679.54M761.406 1566.75L688.071 1622.32M721.663 1679.54L688.071 1622.32M721.663 1679.54L681.081 1675.64M489.966 1657.9L507.016 1659.49M489.966 1657.9L491.002 1653.3M489.966 1657.9L650.968 1748.7M653.105 1550.74L669.762 1586.6M653.105 1550.74L491.002 1653.3M669.762 1586.6L688.071 1622.32M669.762 1586.6L507.016 1659.49M688.071 1622.32L544.27 1662.97M544.27 1662.97L507.016 1659.49M544.27 1662.97L681.081 1675.64M681.081 1675.64L740.169 1820.68C742.489 1826.38 741.276 1832.9 737.066 1837.38L710.543 1865.61M681.081 1675.64L650.968 1748.7M710.543 1865.61L698.812 1878.41M710.543 1865.61L650.968 1748.7M698.812 1878.41L673.656 1899.9C669.433 1903.5 663.622 1904.62 658.366 1902.82L513.915 1853.55M698.812 1878.41L583.252 1807.79M513.915 1853.55L583.252 1807.79M513.915 1853.55L488.981 1762.83M583.252 1807.79L616.099 1779.08M583.252 1807.79L498.946 1701.69M616.099 1779.08L650.968 1748.7M488.981 1762.83L498.946 1701.69M488.981 1762.83L480.478 1817.94M498.946 1701.69L482.942 1681.55M480.478 1817.94L326.836 1897.92C322.527 1900.16 317.424 1900.29 313.01 1898.26L277.787 1882.07M480.478 1817.94L395.237 1791.35M277.787 1882.07L265.144 1874.15M277.787 1882.07L395.237 1791.35M265.144 1874.15L236.161 1854C231.29 1850.62 228.739 1844.78 229.564 1838.91L249.02 1700.36M265.144 1874.15L315.738 1749.96M249.02 1700.36L408.491 1672.13M249.02 1700.36L315.738 1749.96M408.491 1672.13L451.744 1676.14M408.491 1672.13L252.043 1643.38M451.744 1676.14L474.971 1673.77M451.744 1676.14L315.738 1749.96M252.043 1643.38L181.752 1578.69C175.652 1573.07 174.959 1563.69 180.168 1557.24L190.942 1543.9M252.043 1643.38L284.503 1596.24M190.942 1543.9L200.619 1528.44M190.942 1543.9L284.503 1596.24M200.619 1528.44L208.003 1516.02C210.261 1512.22 214.014 1509.55 218.342 1508.66L344.962 1482.53M200.619 1528.44L317.133 1537.27M344.962 1482.53L427.845 1578.93M344.962 1482.53L317.133 1537.27M427.845 1578.93L447.36 1626M317.133 1537.27L302.578 1563.94M317.133 1537.27L447.36 1626M302.578 1563.94L284.503 1596.24M302.578 1563.94L460.037 1656.58M460.037 1656.58L447.36 1626M315.738 1749.96L351.178 1768.41M395.237 1791.35L482.942 1681.55M395.237 1791.35L351.178 1768.41"/><path stroke="url(#paint4_linear_463_245)" stroke-width="8" d="M454.771 8201.32L515.616 8152.76C519.415 8149.73 524.404 8148.63 529.128 8149.77L557.807 8156.72M454.771 8201.32L532.71 8220.21M454.771 8201.32L506.845 8326.93M557.807 8156.72L532.71 8220.21M557.807 8156.72L570.526 8157.65M532.71 8220.21L557.696 8424.2M532.71 8220.21L572.15 8224.38M543.262 8414.77L553.971 8421.77M543.262 8414.77L363.503 8344.24M543.262 8414.77L539.037 8404.58M557.696 8424.2L572.15 8224.38M557.696 8424.2L566.664 8416.13M557.696 8424.2L553.971 8421.77M557.696 8424.2L561.942 8429.55M557.696 8424.2L430.178 8516.41M572.15 8224.38L608.673 8229.46M566.664 8416.13L568.966 8405.9M566.664 8416.13L695.099 8527.08M608.673 8229.46L570.526 8157.65M608.673 8229.46L676.808 8228.71M608.673 8229.46L575.641 8376.24M570.526 8157.65L598.999 8160.89C602.323 8161.27 605.44 8162.7 607.896 8164.97L676.808 8228.71M676.808 8228.71L650.893 8284.45M650.893 8284.45L575.641 8376.24M650.893 8284.45L701.305 8223.32M575.641 8376.24L570.002 8401.3M701.305 8223.32L813.04 8267.3C816.848 8268.8 819.922 8271.73 821.608 8275.46L832.672 8299.93M701.305 8223.32L732.105 8298.74M832.672 8299.93L840.406 8314.75M832.672 8299.93L732.105 8298.74M840.406 8314.75L852.856 8335.16C856.083 8340.45 855.901 8347.14 852.391 8352.25L800.663 8427.54M840.406 8314.75L767.071 8370.32M800.663 8427.54L767.071 8370.32M800.663 8427.54L760.081 8423.64M568.966 8405.9L586.016 8407.49M568.966 8405.9L570.002 8401.3M568.966 8405.9L729.968 8496.7M732.105 8298.74L748.762 8334.6M732.105 8298.74L570.002 8401.3M748.762 8334.6L767.071 8370.32M748.762 8334.6L586.016 8407.49M767.071 8370.32L623.27 8410.97M623.27 8410.97L586.016 8407.49M623.27 8410.97L760.081 8423.64M760.081 8423.64L819.169 8568.68C821.489 8574.38 820.276 8580.9 816.066 8585.38L789.543 8613.61M760.081 8423.64L729.968 8496.7M789.543 8613.61L777.812 8626.41M789.543 8613.61L729.968 8496.7M777.812 8626.41L752.656 8647.9C748.433 8651.5 742.622 8652.62 737.366 8650.82L592.915 8601.55M777.812 8626.41L662.252 8555.79M592.915 8601.55L662.252 8555.79M592.915 8601.55L567.981 8510.83M662.252 8555.79L695.099 8527.08M662.252 8555.79L577.946 8449.69M695.099 8527.08L729.968 8496.7M567.981 8510.83L577.946 8449.69M567.981 8510.83L559.478 8565.94M577.946 8449.69L561.942 8429.55M559.478 8565.94L405.836 8645.92C401.527 8648.16 396.424 8648.29 392.01 8646.26L356.787 8630.07M559.478 8565.94L474.237 8539.35M356.787 8630.07L344.144 8622.15M356.787 8630.07L474.237 8539.35M344.144 8622.15L315.161 8602C310.29 8598.62 307.739 8592.78 308.564 8586.91L328.02 8448.36M344.144 8622.15L394.738 8497.96M328.02 8448.36L487.491 8420.13M328.02 8448.36L394.738 8497.96M487.491 8420.13L530.744 8424.14M487.491 8420.13L331.043 8391.38M530.744 8424.14L553.971 8421.77M530.744 8424.14L394.738 8497.96M331.043 8391.38L260.752 8326.69C254.652 8321.07 253.959 8311.69 259.168 8305.24L269.942 8291.9M331.043 8391.38L363.503 8344.24M269.942 8291.9L279.619 8276.44M269.942 8291.9L363.503 8344.24M279.619 8276.44L287.003 8264.02C289.261 8260.22 293.014 8257.55 297.342 8256.66L423.962 8230.53M279.619 8276.44L396.133 8285.27M423.962 8230.53L506.845 8326.93M423.962 8230.53L396.133 8285.27M506.845 8326.93L526.36 8374M396.133 8285.27L381.578 8311.94M396.133 8285.27L526.36 8374M381.578 8311.94L363.503 8344.24M381.578 8311.94L539.037 8404.58M539.037 8404.58L526.36 8374M394.738 8497.96L430.178 8516.41M474.237 8539.35L561.942 8429.55M474.237 8539.35L430.178 8516.41"/><g filter="url(#filter3_d_463_245)"><path fill="url(#paint5_radial_463_245)" fill-opacity=".75" d="M534.743 1178.39C467.863 1185.08 412.795 1143.52 365.013 1117.72C284.381 1074.19 226.881 1039.67 252.444 906.106C260.02 866.457 277.826 830.864 306.271 805.204C333.944 780.242 367.496 770.019 411.047 763.038C504.183 748.109 565.743 783.257 639.133 842.513C680.515 875.925 709.322 905.584 726.897 946.66C744.821 988.55 757.934 1027.62 737.568 1072.57C704.412 1145.74 614.679 1170.38 534.743 1178.39Z" shape-rendering="crispEdges"/></g><g filter="url(#filter4_d_463_245)"><path fill="url(#paint6_radial_463_245)" fill-rule="evenodd" d="M-378.337 4219.08C-481.29 4156.87 -524.445 4045.82 -596.644 3955.35C-670.903 3862.3 -782.137 3784.13 -810.139 3678C-838.935 3568.87 -806.224 3460.78 -750.34 3372.86C-696.272 3287.8 -599.525 3237.22 -501.548 3192.51C-406.864 3149.31 -306.215 3108.38 -191.707 3117.99C-79.4249 3127.41 21.658 3195.7 127.321 3245.28C238.365 3297.39 374.038 3323.92 445.755 3417.11C517.491 3510.34 492.584 3623.26 498.817 3728.05C504.655 3826.19 518.916 3926.27 481.162 4012.34C442.353 4100.82 371.312 4171.72 282.432 4221.37C191.989 4271.88 84.5085 4298.19 -29.92 4297.8C-147.018 4297.39 -273.121 4282.66 -378.337 4219.08ZM547.559 3729.16C545.711 3727.49 543.376 3726.45 540.895 3726.19L519.949 3724.02L554.022 3786.62L609.662 3785.45L547.559 3729.16ZM613.536 3793.38L554.92 3794.61L527.574 3922.12L591.011 3843.13L613.536 3793.38ZM610.988 3818.4L623.441 3790.89L624.644 3788.24L622.484 3786.28L552.932 3723.24C549.822 3720.42 545.895 3718.67 541.72 3718.23L513.216 3715.28L513.135 3715.27L513.053 3715.26L500.656 3714.49L472.231 3707.9C466.291 3706.52 460.047 3707.97 455.32 3711.82L394.969 3760.99L392.635 3762.9L393.816 3765.66L437.342 3867.73L369.989 3790.97L368.436 3789.2L366.134 3789.7L239.784 3817.11C234.366 3818.28 229.693 3821.68 226.909 3826.48L219.675 3838.93L210.303 3854.24L199.813 3867.5C193.361 3875.65 194.35 3887.42 202.072 3894.38L273.012 3958.36L273.87 3959.14L275.008 3959.33L409.889 3982.72L272.507 4008.46L269.652 4009L269.277 4011.88L251.22 4150.62C250.26 4158 253.533 4165.29 259.685 4169.47L288.87 4189.33L288.95 4189.38L289.031 4189.43L301.753 4197.22L301.973 4197.36L302.209 4197.46L337.593 4213.29C343.155 4215.78 349.555 4215.56 354.932 4212.69L507.758 4131.17L509.546 4130.21L509.835 4128.21L515.115 4091.53L535.824 4164.01L536.406 4166.04L538.417 4166.71L683.358 4214.52C689.973 4216.7 697.249 4215.23 702.5 4210.66L727.437 4188.91L727.621 4188.75L727.784 4188.57L739.352 4175.69L739.386 4175.66L765.589 4147.2C770.814 4141.53 772.252 4133.33 769.27 4126.21L711.278 3987.87L745.31 3990.8L747.657 3991L748.972 3989.04L799.937 3913.24C804.275 3906.79 804.418 3898.39 800.304 3891.79L787.719 3871.62L779.952 3857.09L768.689 3832.84C766.527 3828.18 762.634 3824.55 757.838 3822.72L645.666 3779.87L642.953 3778.83L641.127 3781.09L610.988 3818.4ZM770.099 3854.87L761.434 3836.21C760.148 3833.44 757.834 3831.28 754.984 3830.2L651.55 3790.68L678.457 3854.72L770.099 3854.87ZM674.147 3864.54L520.329 3964.04L530.097 3964.86L687.46 3892.46L674.147 3864.54ZM691.04 3899.62L546.306 3966.21L567.689 3967.99L705.672 3927.47L691.04 3899.62ZM716.744 3930.92L745.842 3979.36L793.298 3908.77C795.877 3904.94 795.962 3899.95 793.517 3896.03L783.203 3879.49L716.744 3930.92ZM779.133 3872.53L773.973 3862.88L682.141 3862.72L696.393 3892.61L712.808 3923.85L779.133 3872.53ZM738.189 3982.15L709.647 3934.64L589.861 3969.81L705.361 3979.33L705.368 3979.33L705.376 3979.33L738.189 3982.15ZM520.674 3954.29L670.812 3857.17L643.144 3791.33L597.565 3847.75L597.558 3847.76L523.836 3939.55L520.674 3954.29ZM516.531 3973.61L515.963 3976.26L641.033 4082.11L668.77 4057.45L516.531 3973.61ZM673.627 4050.99L699.306 3986.86L567.772 3976.02L567.769 3976.02L532.102 3973.05L673.627 4050.99ZM705.118 3993.87L680.056 4056.46L737.321 4166.09L759.704 4141.78C762.81 4138.41 763.665 4133.53 761.892 4129.31L705.118 3993.87ZM731.579 4172.38L674.486 4063.07L643.761 4090.39L643.756 4090.4L615.27 4115.81L724.033 4180.78L731.579 4172.38ZM718.025 4186.51L608.673 4121.19L548.667 4161.66L685.864 4206.92C689.796 4208.22 694.121 4207.35 697.242 4204.63L718.025 4186.51ZM542.002 4156.51L517.908 4072.19L525.76 4020.75L602.684 4115.58L542.002 4156.51ZM609.008 4110.68L526.276 4008.69L510.07 3988.71L508.139 3986.33L511.658 3983.09L635 4087.49L609.008 4110.68ZM507.906 3975.68L509.837 3966.67L510.827 3962.06L516.213 3936.94L546.85 3794.09L518.828 3790.48L507.272 3976.26L507.906 3975.68ZM501.222 3944.67L510.868 3789.58L480.248 3786.66L501.222 3944.67ZM481.241 3778.72L502.757 3722.63L510.347 3723.11L544.415 3785.71L515.611 3782L515.546 3781.99L515.481 3781.98L481.241 3778.72ZM494.694 3721.32L470.425 3715.69C466.894 3714.88 463.183 3715.74 460.373 3718.03L406.349 3762.04L473.133 3777.52L494.694 3721.32ZM404.264 3769.77L472.02 3785.47L497.566 3977.92L491.331 3973.94L487.487 3964.92L474.502 3934.47L454.513 3887.6L404.264 3769.77ZM475.44 3957.07L467.611 3938.71L341.162 3854.41L330.773 3873.91L475.44 3957.07ZM321.912 3873.53L333.265 3852.21L225.26 3845.13L219.195 3855.03L306.082 3902.5L321.891 3873.57L321.912 3873.53ZM309.218 3912.79L282.459 3952.51L432.929 3978.59L475.653 3982.12L487.241 3980.82L486.328 3980.23L309.218 3912.79ZM492.794 3988.24L476.956 3990.02L348.979 4061.17L375.692 4074.73L492.794 3988.24ZM383.672 4078.78L419.248 4096.85L501.426 3991.81L383.672 4078.78ZM507.02 3997.65L427.127 4099.76L502.579 4122.47L509.863 4071.88L509.865 4071.86L509.868 4071.84L518.949 4012.35L507.02 3997.65ZM495.436 4128.67L421.213 4106.34L311.509 4192.86L340.86 4205.99C344.166 4207.47 347.97 4207.34 351.166 4205.63L495.436 4128.67ZM303.554 4188.94L412.981 4102.64L374.271 4082.98L342.563 4066.88L296.077 4184.37L303.554 4188.94ZM289.239 4179.9L335.599 4062.74L276.34 4019.6L259.153 4151.65C258.582 4156.04 260.528 4160.37 264.185 4162.86L289.239 4179.9ZM283.094 4014.62L340.748 4056.59L462.259 3989.04L432.629 3986.59L283.094 4014.62ZM274.949 3949.34L301.904 3909.33L214.632 3861.66L206.088 3872.46C202.252 3877.31 202.84 3884.3 207.43 3888.44L274.949 3949.34ZM313.383 3905.82L480.765 3969.55L480.653 3969.29L326.972 3880.95L313.383 3905.82ZM229.809 3837.41L337.308 3844.46L359.706 3799.28L241.48 3824.92C238.26 3825.62 235.482 3827.64 233.827 3830.49L229.809 3837.41ZM367.914 3800.74L344.854 3847.25L461.882 3925.27L447.405 3891.33L367.914 3800.74Z" clip-rule="evenodd"/><path fill="#fff" fill-opacity=".2" fill-rule="evenodd" d="M-378.337 4219.08C-481.29 4156.87 -524.445 4045.82 -596.644 3955.35C-670.903 3862.3 -782.137 3784.13 -810.139 3678C-838.935 3568.87 -806.224 3460.78 -750.34 3372.86C-696.272 3287.8 -599.525 3237.22 -501.548 3192.51C-406.864 3149.31 -306.215 3108.38 -191.707 3117.99C-79.4249 3127.41 21.658 3195.7 127.321 3245.28C238.365 3297.39 374.038 3323.92 445.755 3417.11C517.491 3510.34 492.584 3623.26 498.817 3728.05C504.655 3826.19 518.916 3926.27 481.162 4012.34C442.353 4100.82 371.312 4171.72 282.432 4221.37C191.989 4271.88 84.5085 4298.19 -29.92 4297.8C-147.018 4297.39 -273.121 4282.66 -378.337 4219.08ZM547.559 3729.16C545.711 3727.49 543.376 3726.45 540.895 3726.19L519.949 3724.02L554.022 3786.62L609.662 3785.45L547.559 3729.16ZM613.536 3793.38L554.92 3794.61L527.574 3922.12L591.011 3843.13L613.536 3793.38ZM610.988 3818.4L623.441 3790.89L624.644 3788.24L622.484 3786.28L552.932 3723.24C549.822 3720.42 545.895 3718.67 541.72 3718.23L513.216 3715.28L513.135 3715.27L513.053 3715.26L500.656 3714.49L472.231 3707.9C466.291 3706.52 460.047 3707.97 455.32 3711.82L394.969 3760.99L392.635 3762.9L393.816 3765.66L437.342 3867.73L369.989 3790.97L368.436 3789.2L366.134 3789.7L239.784 3817.11C234.366 3818.28 229.693 3821.68 226.909 3826.48L219.675 3838.93L210.303 3854.24L199.813 3867.5C193.361 3875.65 194.35 3887.42 202.072 3894.38L273.012 3958.36L273.87 3959.14L275.008 3959.33L409.889 3982.72L272.507 4008.46L269.652 4009L269.277 4011.88L251.22 4150.62C250.26 4158 253.533 4165.29 259.685 4169.47L288.87 4189.33L288.95 4189.38L289.031 4189.43L301.753 4197.22L301.973 4197.36L302.209 4197.46L337.593 4213.29C343.155 4215.78 349.555 4215.56 354.932 4212.69L507.758 4131.17L509.546 4130.21L509.835 4128.21L515.115 4091.53L535.824 4164.01L536.406 4166.04L538.417 4166.71L683.358 4214.52C689.973 4216.7 697.249 4215.23 702.5 4210.66L727.437 4188.91L727.621 4188.75L727.784 4188.57L739.352 4175.69L739.386 4175.66L765.589 4147.2C770.814 4141.53 772.252 4133.33 769.27 4126.21L711.278 3987.87L745.31 3990.8L747.657 3991L748.972 3989.04L799.937 3913.24C804.275 3906.79 804.418 3898.39 800.304 3891.79L787.719 3871.62L779.952 3857.09L768.689 3832.84C766.527 3828.18 762.634 3824.55 757.838 3822.72L645.666 3779.87L642.953 3778.83L641.127 3781.09L610.988 3818.4ZM770.099 3854.87L761.434 3836.21C760.148 3833.44 757.834 3831.28 754.984 3830.2L651.55 3790.68L678.457 3854.72L770.099 3854.87ZM674.147 3864.54L520.329 3964.04L530.097 3964.86L687.46 3892.46L674.147 3864.54ZM691.04 3899.62L546.306 3966.21L567.689 3967.99L705.672 3927.47L691.04 3899.62ZM716.744 3930.92L745.842 3979.36L793.298 3908.77C795.877 3904.94 795.962 3899.95 793.517 3896.03L783.203 3879.49L716.744 3930.92ZM779.133 3872.53L773.973 3862.88L682.141 3862.72L696.393 3892.61L712.808 3923.85L779.133 3872.53ZM738.189 3982.15L709.647 3934.64L589.861 3969.81L705.361 3979.33L705.368 3979.33L705.376 3979.33L738.189 3982.15ZM520.674 3954.29L670.812 3857.17L643.144 3791.33L597.565 3847.75L597.558 3847.76L523.836 3939.55L520.674 3954.29ZM516.531 3973.61L515.963 3976.26L641.033 4082.11L668.77 4057.45L516.531 3973.61ZM673.627 4050.99L699.306 3986.86L567.772 3976.02L567.769 3976.02L532.102 3973.05L673.627 4050.99ZM705.118 3993.87L680.056 4056.46L737.321 4166.09L759.704 4141.78C762.81 4138.41 763.665 4133.53 761.892 4129.31L705.118 3993.87ZM731.579 4172.38L674.486 4063.07L643.761 4090.39L643.756 4090.4L615.27 4115.81L724.033 4180.78L731.579 4172.38ZM718.025 4186.51L608.673 4121.19L548.667 4161.66L685.864 4206.92C689.796 4208.22 694.121 4207.35 697.242 4204.63L718.025 4186.51ZM542.002 4156.51L517.908 4072.19L525.76 4020.75L602.684 4115.58L542.002 4156.51ZM609.008 4110.68L526.276 4008.69L510.07 3988.71L508.139 3986.33L511.658 3983.09L635 4087.49L609.008 4110.68ZM507.906 3975.68L509.837 3966.67L510.827 3962.06L516.213 3936.94L546.85 3794.09L518.828 3790.48L507.272 3976.26L507.906 3975.68ZM501.222 3944.67L510.868 3789.58L480.248 3786.66L501.222 3944.67ZM481.241 3778.72L502.757 3722.63L510.347 3723.11L544.415 3785.71L515.611 3782L515.546 3781.99L515.481 3781.98L481.241 3778.72ZM494.694 3721.32L470.425 3715.69C466.894 3714.88 463.183 3715.74 460.373 3718.03L406.349 3762.04L473.133 3777.52L494.694 3721.32ZM404.264 3769.77L472.02 3785.47L497.566 3977.92L491.331 3973.94L487.487 3964.92L474.502 3934.47L454.513 3887.6L404.264 3769.77ZM475.44 3957.07L467.611 3938.71L341.162 3854.41L330.773 3873.91L475.44 3957.07ZM321.912 3873.53L333.265 3852.21L225.26 3845.13L219.195 3855.03L306.082 3902.5L321.891 3873.57L321.912 3873.53ZM309.218 3912.79L282.459 3952.51L432.929 3978.59L475.653 3982.12L487.241 3980.82L486.328 3980.23L309.218 3912.79ZM492.794 3988.24L476.956 3990.02L348.979 4061.17L375.692 4074.73L492.794 3988.24ZM383.672 4078.78L419.248 4096.85L501.426 3991.81L383.672 4078.78ZM507.02 3997.65L427.127 4099.76L502.579 4122.47L509.863 4071.88L509.865 4071.86L509.868 4071.84L518.949 4012.35L507.02 3997.65ZM495.436 4128.67L421.213 4106.34L311.509 4192.86L340.86 4205.99C344.166 4207.47 347.97 4207.34 351.166 4205.63L495.436 4128.67ZM303.554 4188.94L412.981 4102.64L374.271 4082.98L342.563 4066.88L296.077 4184.37L303.554 4188.94ZM289.239 4179.9L335.599 4062.74L276.34 4019.6L259.153 4151.65C258.582 4156.04 260.528 4160.37 264.185 4162.86L289.239 4179.9ZM283.094 4014.62L340.748 4056.59L462.259 3989.04L432.629 3986.59L283.094 4014.62ZM274.949 3949.34L301.904 3909.33L214.632 3861.66L206.088 3872.46C202.252 3877.31 202.84 3884.3 207.43 3888.44L274.949 3949.34ZM313.383 3905.82L480.765 3969.55L480.653 3969.29L326.972 3880.95L313.383 3905.82ZM229.809 3837.41L337.308 3844.46L359.706 3799.28L241.48 3824.92C238.26 3825.62 235.482 3827.64 233.827 3830.49L229.809 3837.41ZM367.914 3800.74L344.854 3847.25L461.882 3925.27L447.405 3891.33L367.914 3800.74Z" clip-rule="evenodd"/></g><g filter="url(#filter5_d_463_245)"><path fill="url(#paint7_radial_463_245)" fill-opacity=".75" d="M309.453 3085.52C236.738 3069.09 190.736 3005.02 147.798 2960.45C75.3373 2885.23 24.6879 2827.86 91.0824 2693.48C110.778 2653.58 140.1 2621.65 177.749 2604.14C214.374 2587.11 252.877 2587.99 300.999 2595.87C403.912 2612.73 458.671 2672.21 518.838 2761.75C552.765 2812.24 574.495 2854.26 580.982 2904.57C587.598 2955.88 589.956 3002.46 555.17 3043.53C498.538 3110.39 396.363 3105.16 309.453 3085.52Z" shape-rendering="crispEdges"/></g><g filter="url(#filter6_d_463_245)"><path fill="url(#paint8_linear_463_245)" fill-opacity=".8" fill-rule="evenodd" d="M485.983 9798.61C445.445 9873.75 368.212 9908.19 306.574 9962.51C243.177 10018.4 191.607 10099.9 117.34 10123.5C40.9711 10147.7 -36.7896 10128.2 -101.053 10091.6C-163.229 10056.3 -202.442 9989.42 -237.526 9921.51C-271.43 9855.88 -303.934 9785.94 -301.087 9704.43C-298.296 9624.5 -253.383 9550.47 -221.891 9473.85C-188.795 9393.32 -174.686 9296.22 -111.098 9242.15C-47.4933 9188.06 33.4265 9201.81 107.496 9193.77C176.872 9186.23 247.326 9172.65 309.653 9196.44C373.722 9220.89 426.451 9268.8 464.723 9330.09C503.667 9392.46 526.042 9467.74 529.724 9548.88C533.492 9631.91 527.412 9721.82 485.983 9798.61Z" clip-rule="evenodd" shape-rendering="crispEdges"/></g><path stroke="url(#paint9_radial_463_245)" stroke-width="12.581" d="M28.5039 7307.35L138.473 7268.61C145.34 7266.19 152.94 7267.09 159.059 7271.03L196.203 7294.98M28.5039 7307.35L129.45 7372.44M28.5039 7307.35L40.3315 7510.65M196.203 7294.98L129.45 7372.44M196.203 7294.98L213.74 7302.55M129.45 7372.44L64.3768 7673.28M129.45 7372.44L183.188 7397.74M48.6031 7652.83L60.3061 7668M48.6031 7652.83L-170.946 7464.57M48.6031 7652.83L47.6433 7636.34M64.3768 7673.28L183.188 7397.74M64.3768 7673.28L81.0366 7666.27M64.3768 7673.28L60.3061 7668M64.3768 7673.28L67.7522 7682.93M64.3768 7673.28L-161.39 7740.94M183.188 7397.74L232.35 7422.9M81.0366 7666.27L89.3278 7652.94M81.0366 7666.27L208.093 7886.44M232.35 7422.9L213.74 7302.55M232.35 7422.9L329.095 7455.39M232.35 7422.9L113.372 7614.27M213.74 7302.55L252.418 7321.16C256.934 7323.33 260.639 7326.88 262.995 7331.31L329.095 7455.39M329.095 7455.39L264.999 7521.48M264.999 7521.48L113.372 7614.27M264.999 7521.48L366.399 7459.83M113.372 7614.27L93.0588 7646.94M366.399 7459.83L502.798 7577.04C507.447 7581.04 510.356 7586.69 510.905 7592.79L514.509 7632.85M366.399 7459.83L372.838 7581.67M514.509 7632.85L518.155 7657.62M514.509 7632.85L372.838 7581.67M518.155 7657.62L525.716 7692.63C527.675 7701.7 524.123 7711.08 516.645 7716.57L406.414 7797.6M518.155 7657.62L387.065 7700.13M406.414 7797.6L387.065 7700.13M406.414 7797.6L350.931 7772.11M89.3278 7652.94L112.661 7663.58M89.3278 7652.94L93.0588 7646.94M89.3278 7652.94L272.371 7860.63M372.838 7581.67L378.749 7640.59M372.838 7581.67L93.0588 7646.94M378.749 7640.59L387.065 7700.13M378.749 7640.59L112.661 7663.58M387.065 7700.13L163.645 7686.84M163.645 7686.84L112.661 7663.58M163.645 7686.84L350.931 7772.11M350.931 7772.11L363.111 8006.36C363.59 8015.56 358.663 8024.19 350.501 8028.46L299.089 8055.33M350.931 7772.11L272.371 7860.63M299.089 8055.33L276.195 8067.66M299.089 8055.33L272.371 7860.63M276.195 8067.66L230.034 8085.67C222.286 8088.69 213.517 8087.41 206.965 8082.28L26.8936 7941.47M276.195 8067.66L147.497 7910.88M26.8936 7941.47L147.497 7910.88M26.8936 7941.47L36.2811 7800.88M147.497 7910.88L208.093 7886.44M147.497 7910.88L80.4751 7719.3M208.093 7886.44L272.371 7860.63M36.2811 7800.88L80.4751 7719.3M36.2811 7800.88L-2.87365 7874.64M80.4751 7719.3L67.7522 7682.93M-2.87365 7874.64L-259.572 7912.14C-266.771 7913.19 -274.052 7910.86 -279.297 7905.82L-321.152 7865.58M-2.87365 7874.64L-110.357 7795.07M-321.152 7865.58L-335.137 7848.16M-321.152 7865.58L-110.357 7795.07M-335.137 7848.16L-366.217 7805.39C-371.439 7798.2 -372.173 7788.69 -368.115 7780.79L-272.391 7594.38M-335.137 7848.16L-202.439 7697.4M-272.391 7594.38L-32.9238 7632.96M-272.391 7594.38L-202.439 7697.4M-32.9238 7632.96L26.283 7659.93M-32.9238 7632.96L-240.069 7515.28M26.283 7659.93L60.3061 7668M26.283 7659.93L-202.439 7697.4M-240.069 7515.28L-307.649 7389.17C-313.514 7378.22 -309.875 7364.61 -299.331 7358.05L-277.526 7344.48M-240.069 7515.28L-170.946 7464.57M-277.526 7344.48L-256.23 7327.39M-277.526 7344.48L-170.946 7464.57M-256.23 7327.39L-239.672 7313.45C-234.607 7309.19 -227.983 7307.26 -221.421 7308.12L-29.4538 7333.5M-256.23 7327.39L-95.7638 7397.22M-29.4538 7333.5L40.3315 7510.65M-29.4538 7333.5L-95.7638 7397.22M40.3315 7510.65L44.7639 7586.84M-95.7638 7397.22L-129.483 7427.79M-95.7638 7397.22L44.7639 7586.84M-129.483 7427.79L-170.946 7464.57M-129.483 7427.79L47.6433 7636.34M47.6433 7636.34L44.7639 7586.84M-202.439 7697.4L-161.39 7740.94M-110.357 7795.07L67.7522 7682.93M-110.357 7795.07L-161.39 7740.94"/><path stroke="url(#paint10_radial_463_245)" stroke-width="12.581" d="M969.461 5191.76L1011.67 5300.44C1014.31 5307.23 1013.65 5314.85 1009.9 5321.09L987.147 5358.98M969.461 5191.76L907.612 5294.72M969.461 5191.76L766.633 5210.03M987.147 5358.98L907.612 5294.72M987.147 5358.98L980.137 5376.75M907.612 5294.72L604.853 5239.23M907.612 5294.72L884.024 5349.23M624.787 5222.82L609.997 5235M624.787 5222.82L805.981 4997.4M624.787 5222.82L641.246 5221.33M604.853 5239.23L884.024 5349.23M604.853 5239.23L612.384 5255.66M604.853 5239.23L609.997 5235M604.853 5239.23L595.316 5242.91M604.853 5239.23L530.059 5015.73M884.024 5349.23L860.438 5399.17M612.384 5255.66L625.976 5263.52M612.384 5255.66L396.366 5389.64M860.438 5399.17L980.137 5376.75M860.438 5399.17L831.039 5496.9M860.438 5399.17L665.393 5286.33M980.137 5376.75L962.771 5416C960.743 5420.58 957.307 5424.4 952.961 5426.89L831.039 5496.9M831.039 5496.9L762.946 5434.93M762.946 5434.93L665.393 5286.33M762.946 5434.93L827.789 5534.32M665.393 5286.33L632.092 5267.06M827.789 5534.32L714.965 5674.38C711.12 5679.15 705.564 5682.24 699.479 5682.98L659.555 5687.85M827.789 5534.32L706.211 5544.63M659.555 5687.85L634.915 5692.28M659.555 5687.85L706.211 5544.63M634.915 5692.28L600.166 5700.95C591.16 5703.2 581.675 5699.95 575.943 5692.65L491.452 5585.04M634.915 5692.28L588.264 5562.61M491.452 5585.04L588.264 5562.61M491.452 5585.04L515.176 5528.78M625.976 5263.52L616.077 5287.18M625.976 5263.52L632.092 5267.06M625.976 5263.52L424.203 5453.07M706.211 5544.63L647.507 5552.41M706.211 5544.63L632.092 5267.06M647.507 5552.41L588.264 5562.61M647.507 5552.41L616.077 5287.18M588.264 5562.61L594.447 5338.88M594.447 5338.88L616.077 5287.18M594.447 5338.88L515.176 5528.78M515.176 5528.78L281.426 5548.39C272.249 5549.16 263.465 5544.51 258.942 5536.49L230.451 5485.96M515.176 5528.78L424.203 5453.07M230.451 5485.96L217.403 5463.47M230.451 5485.96L424.203 5453.07M217.403 5463.47L197.932 5417.9C194.664 5410.25 195.672 5401.45 200.585 5394.74L335.604 5210.28M217.403 5463.47L370.009 5329.85M335.604 5210.28L370.009 5329.85M335.604 5210.28L476.426 5215.2M370.009 5329.85L396.366 5389.64M370.009 5329.85L559.369 5256.78M396.366 5389.64L424.203 5453.07M476.426 5215.2L559.369 5256.78M476.426 5215.2L401.455 5178.41M559.369 5256.78L595.316 5242.91M401.455 5178.41L355.824 4923.03C354.545 4915.87 356.647 4908.52 361.52 4903.12L400.405 4860M401.455 5178.41L477.578 5068.45M400.405 4860L417.376 4845.47M400.405 4860L477.578 5068.45M417.376 4845.47L459.135 4813.05C466.152 4807.6 475.638 4806.57 483.666 4810.37L673.014 4900.13M417.376 4845.47L572.272 4973.32M673.014 4900.13L642.061 5140.7M673.014 4900.13L572.272 4973.32M642.061 5140.7L616.989 5200.73M642.061 5140.7L753.105 4929.92M616.989 5200.73L609.997 5235M616.989 5200.73L572.272 4973.32M753.105 4929.92L877.008 4858.37C887.761 4852.16 901.487 4855.37 908.378 4865.7L922.629 4887.06M753.105 4929.92L805.981 4997.4M922.629 4887.06L940.39 4907.8M922.629 4887.06L805.981 4997.4M940.39 4907.8L954.844 4923.91C959.265 4928.84 961.409 4935.4 960.75 4941.98L941.486 5134.66M940.39 4907.8L875.684 5070.41M941.486 5134.66L766.633 5210.03M941.486 5134.66L875.684 5070.41M766.633 5210.03L690.623 5216.88M875.684 5070.41L844.062 5037.67M875.684 5070.41L690.623 5216.88M844.062 5037.67L805.981 4997.4M844.062 5037.67L641.246 5221.33M641.246 5221.33L690.623 5216.88M572.272 4973.32L530.059 5015.73M477.578 5068.45L595.316 5242.91M477.578 5068.45L530.059 5015.73"/><path stroke="url(#paint11_radial_463_245)" stroke-width="12.581" d="M855.231 11534.7L833.499 11420.1C832.142 11413 827.553 11406.8 821.068 11403.5L781.703 11383.4M855.231 11534.7L748.251 11480.1M855.231 11534.7L673.485 11626.5M781.703 11383.4L748.251 11480.1M781.703 11383.4L766.35 11372.1M748.251 11480.1L520.78 11687.4M748.251 11480.1L699.378 11446.3M546.382 11690.8L527.387 11688.3M546.382 11690.8L819.441 11786.1M546.382 11690.8L561.13 11683.3M520.78 11687.4L699.378 11446.3M520.78 11687.4L518.471 11669.5M520.78 11687.4L527.387 11688.3M520.78 11687.4L510.741 11689.3M520.78 11687.4L575.659 11916.6M699.378 11446.3L652.931 11416.4M518.471 11669.5L525.839 11655.6M518.471 11669.5L264.277 11670.2M652.931 11416.4L766.35 11372.1M652.931 11416.4L576.25 11349.1M652.931 11416.4L547.205 11615.4M766.35 11372.1L730.837 11348C726.691 11345.2 721.755 11343.7 716.747 11343.9L576.25 11349.1M576.25 11349.1L551.29 11437.7M551.29 11437.7L547.205 11615.4M551.29 11437.7L553.678 11319M547.205 11615.4L529.154 11649.4M553.678 11319L383.816 11260C378.026 11258 371.68 11258.3 366.124 11260.9L329.673 11277.9M553.678 11319L445.081 11374.7M329.673 11277.9L306.425 11287.2M329.673 11277.9L445.081 11374.7M306.425 11287.2L272.356 11298.2C263.526 11301.1 257.201 11308.8 256.203 11318.1L241.493 11454.1M306.425 11287.2L335.501 11421.9M241.493 11454.1L335.501 11421.9M241.493 11454.1L291.407 11489.3M525.839 11655.6L504.915 11640.8M525.839 11655.6L529.154 11649.4M525.839 11655.6L254.313 11601.6M445.081 11374.7L391.161 11399.2M445.081 11374.7L529.154 11649.4M391.161 11399.2L335.501 11421.9M391.161 11399.2L504.915 11640.8M335.501 11421.9L459.195 11608.4M459.195 11608.4L504.915 11640.8M459.195 11608.4L291.407 11489.3M291.407 11489.3L82.721 11596.4C74.5279 11600.6 69.5378 11609.2 69.9478 11618.4L72.5309 11676.3M291.407 11489.3L254.313 11601.6M72.5309 11676.3L73.3687 11702.3M72.5309 11676.3L254.313 11601.6M73.3687 11702.3L80.9747 11751.3C82.2514 11759.5 87.7685 11766.4 95.4894 11769.5L307.687 11854.5M73.3687 11702.3L273.571 11734.9M307.687 11854.5L273.571 11734.9M307.687 11854.5L424.551 11775.8M273.571 11734.9L264.277 11670.2M273.571 11734.9L472.902 11696.6M264.277 11670.2L254.313 11601.6M424.551 11775.8L472.902 11696.6M424.551 11775.8L380.428 11846.7M472.902 11696.6L510.741 11689.3M380.428 11846.7L476.921 12087.5C479.628 12094.3 485.303 12099.4 492.298 12101.4L548.11 12117.4M380.428 11846.7L503.221 11899.7M548.11 12117.4L570.201 12120.7M548.11 12117.4L503.221 11899.7M570.201 12120.7L622.793 12126.1C631.63 12127 640.226 12122.9 645.022 12115.4L758.137 11939M570.201 12120.7L633.924 11930.3M758.137 11939L604.512 11751.3M758.137 11939L633.924 11930.3M604.512 11751.3L551.459 11713.7M604.512 11751.3L810.308 11871.3M551.459 11713.7L527.387 11688.3M551.459 11713.7L633.924 11930.3M810.308 11871.3L953.303 11866.4C965.713 11866 975.66 11856 976.037 11843.6L976.816 11817.9M810.308 11871.3L819.441 11786.1M976.816 11817.9L980.902 11790.9M976.816 11817.9L819.441 11786.1M980.902 11790.9L984.637 11769.6C985.779 11763.1 984.125 11756.4 980.08 11751.2L861.728 11597.9M980.902 11790.9L839.922 11687.3M861.728 11597.9L673.485 11626.5M861.728 11597.9L839.922 11687.3M673.485 11626.5L605.376 11661M839.922 11687.3L830.425 11731.8M839.922 11687.3L605.376 11661M830.425 11731.8L819.441 11786.1M830.425 11731.8L561.13 11683.3M561.13 11683.3L605.376 11661M633.924 11930.3L575.659 11916.6M503.221 11899.7L510.741 11689.3M503.221 11899.7L575.659 11916.6"/></g><defs><filter id="filter0_d_463_245" width="1010.29" height="1038.22" x="-758.91" y="884.104" color-interpolation-filters="sRGB" filterUnits="userSpaceOnUse"><feFlood flood-opacity="0" result="BackgroundImageFix"/><feColorMatrix in="SourceAlpha" result="hardAlpha" type="matrix" values="0 0 0 0 0 0 0 0 0 0 0 0 0 0 0 0 0 0 127 0"/><feOffset/><feGaussianBlur stdDeviation="50"/><feComposite in2="hardAlpha" operator="out"/><feColorMatrix type="matrix" values="0 0 0 0 0 0 0 0 0 0 0 0 0 0 0 0 0 0 0.1 0"/><feBlend in2="BackgroundImageFix" mode="normal" result="effect1_dropShadow_463_245"/><feBlend in="SourceGraphic" in2="effect1_dropShadow_463_245" mode="normal" result="shape"/></filter><filter id="filter1_d_463_245" width="1010.29" height="1038.22" x="-758.91" y="884.104" color-interpolation-filters="sRGB" filterUnits="userSpaceOnUse"><feFlood flood-opacity="0" result="BackgroundImageFix"/><feColorMatrix in="SourceAlpha" result="hardAlpha" type="matrix" values="0 0 0 0 0 0 0 0 0 0 0 0 0 0 0 0 0 0 127 0"/><feOffset/><feGaussianBlur stdDeviation="50"/><feComposite in2="hardAlpha" operator="out"/><feColorMatrix type="matrix" values="0 0 0 0 0 0 0 0 0 0 0 0 0 0 0 0 0 0 0.1 0"/><feBlend in2="BackgroundImageFix" mode="normal" result="effect1_dropShadow_463_245"/><feBlend in="SourceGraphic" in2="effect1_dropShadow_463_245" mode="normal" result="shape"/></filter><filter id="filter2_d_463_245" width="1025.22" height="804.408" x="114.162" y="1799.3" color-interpolation-filters="sRGB" filterUnits="userSpaceOnUse"><feFlood flood-opacity="0" result="BackgroundImageFix"/><feColorMatrix in="SourceAlpha" result="hardAlpha" type="matrix" values="0 0 0 0 0 0 0 0 0 0 0 0 0 0 0 0 0 0 127 0"/><feOffset/><feGaussianBlur stdDeviation="50"/><feComposite in2="hardAlpha" operator="out"/><feColorMatrix type="matrix" values="0 0 0 0 0 0 0 0 0 0 0 0 0 0 0 0 0 0 0.1 0"/><feBlend in2="BackgroundImageFix" mode="normal" result="effect1_dropShadow_463_245"/><feBlend in="SourceGraphic" in2="effect1_dropShadow_463_245" mode="normal" result="shape"/></filter><filter id="filter3_d_463_245" width="656.675" height="574.593" x="168.757" y="682.061" color-interpolation-filters="sRGB" filterUnits="userSpaceOnUse"><feFlood flood-opacity="0" result="BackgroundImageFix"/><feColorMatrix in="SourceAlpha" result="hardAlpha" type="matrix" values="0 0 0 0 0 0 0 0 0 0 0 0 0 0 0 0 0 0 127 0"/><feOffset/><feGaussianBlur stdDeviation="38.774"/><feComposite in2="hardAlpha" operator="out"/><feColorMatrix type="matrix" values="0 0 0 0 0 0 0 0 0 0 0 0 0 0 0 0 0 0 0.1 0"/><feBlend in2="BackgroundImageFix" mode="normal" result="effect1_dropShadow_463_245"/><feBlend in="SourceGraphic" in2="effect1_dropShadow_463_245" mode="normal" result="shape"/></filter><filter id="filter4_d_463_245" width="1824.1" height="1381.23" x="-920.805" y="3016.57" color-interpolation-filters="sRGB" filterUnits="userSpaceOnUse"><feFlood flood-opacity="0" result="BackgroundImageFix"/><feColorMatrix in="SourceAlpha" result="hardAlpha" type="matrix" values="0 0 0 0 0 0 0 0 0 0 0 0 0 0 0 0 0 0 127 0"/><feOffset/><feGaussianBlur stdDeviation="50"/><feComposite in2="hardAlpha" operator="out"/><feColorMatrix type="matrix" values="0 0 0 0 0 0 0 0 0 0 0 0 0 0 0 0 0 0 0.1 0"/><feBlend in2="BackgroundImageFix" mode="normal" result="effect1_dropShadow_463_245"/><feBlend in="SourceGraphic" in2="effect1_dropShadow_463_245" mode="normal" result="shape"/></filter><filter id="filter5_d_463_245" width="724.795" height="708.05" x="-39.834" y="2490.45" color-interpolation-filters="sRGB" filterUnits="userSpaceOnUse"><feFlood flood-opacity="0" result="BackgroundImageFix"/><feColorMatrix in="SourceAlpha" result="hardAlpha" type="matrix" values="0 0 0 0 0 0 0 0 0 0 0 0 0 0 0 0 0 0 127 0"/><feOffset/><feGaussianBlur stdDeviation="50"/><feComposite in2="hardAlpha" operator="out"/><feColorMatrix type="matrix" values="0 0 0 0 0 0 0 0 0 0 0 0 0 0 0 0 0 0 0.1 0"/><feBlend in2="BackgroundImageFix" mode="normal" result="effect1_dropShadow_463_245"/><feBlend in="SourceGraphic" in2="effect1_dropShadow_463_245" mode="normal" result="shape"/></filter><filter id="filter6_d_463_245" width="973.89" height="1093.11" x="-372.24" y="9112.05" color-interpolation-filters="sRGB" filterUnits="userSpaceOnUse"><feFlood flood-opacity="0" result="BackgroundImageFix"/><feColorMatrix in="SourceAlpha" result="hardAlpha" type="matrix" values="0 0 0 0 0 0 0 0 0 0 0 0 0 0 0 0 0 0 127 0"/><feOffset/><feGaussianBlur stdDeviation="35.489"/><feComposite in2="hardAlpha" operator="out"/><feColorMatrix type="matrix" values="0 0 0 0 0 0 0 0 0 0 0 0 0 0 0 0 0 0 0.1 0"/><feBlend in2="BackgroundImageFix" mode="normal" result="effect1_dropShadow_463_245"/><feBlend in="SourceGraphic" in2="effect1_dropShadow_463_245" mode="normal" result="shape"/></filter><radialGradient id="paint0_radial_463_245" cx="0" cy="0" r="1" gradientTransform="translate(168.896 1093.73) rotate(166.003) scale(810.693 621.696)" gradientUnits="userSpaceOnUse"><stop stop-color="#FFC435" stop-opacity=".27"/><stop offset="0" stop-color="#FFC435" stop-opacity=".32"/><stop offset=".194" stop-color="#F26C64" stop-opacity=".32"/><stop offset=".455" stop-color="#D770C7" stop-opacity=".61"/><stop offset=".839" stop-color="#86ADF2"/></radialGradient><radialGradient id="paint1_radial_463_245" cx="0" cy="0" r="1" gradientTransform="translate(168.896 1093.73) rotate(166.003) scale(810.693 621.696)" gradientUnits="userSpaceOnUse"><stop stop-color="#FFC435" stop-opacity=".27"/><stop offset="0" stop-color="#FFC435" stop-opacity=".32"/><stop offset=".194" stop-color="#F26C64" stop-opacity=".32"/><stop offset=".455" stop-color="#D770C7" stop-opacity=".61"/><stop offset=".839" stop-color="#86ADF2"/></radialGradient><radialGradient id="paint2_radial_463_245" cx="0" cy="0" r="1" gradientTransform="translate(231.5 2144) rotate(17.8364) scale(832.515 754.675)" gradientUnits="userSpaceOnUse"><stop stop-color="#FFDAE1"/><stop offset="0" stop-color="#FFECBE"/><stop offset=".349" stop-color="#FEBBB7"/><stop offset=".641" stop-color="#E989DA"/><stop offset="1" stop-color="#8DB6FC"/></radialGradient><linearGradient id="paint3_linear_463_245" x1="-102.007" x2="812.772" y1="1244.67" y2="1586.69" gradientUnits="userSpaceOnUse"><stop stop-color="#FFF4DA"/><stop offset="0" stop-color="#FFECBE"/><stop offset=".349" stop-color="#FEBBB7"/><stop offset=".641" stop-color="#E989DA"/><stop offset="1" stop-color="#8DB6FC"/></linearGradient><linearGradient id="paint4_linear_463_245" x1="-23.008" x2="891.772" y1="7992.67" y2="8334.69" gradientUnits="userSpaceOnUse"><stop stop-color="#FFF4DA"/><stop offset="0" stop-color="#FFECBE"/><stop offset=".349" stop-color="#FEBBB7"/><stop offset=".641" stop-color="#E989DA"/><stop offset="1" stop-color="#8DB6FC"/></linearGradient><radialGradient id="paint5_radial_463_245" cx="0" cy="0" r="1" gradientTransform="translate(738.078 910.279) rotate(166.131) scale(697.49 632.274)" gradientUnits="userSpaceOnUse"><stop stop-color="#FFDAE1"/><stop offset="0" stop-color="#FFECBE"/><stop offset=".349" stop-color="#FEBBB7"/><stop offset=".641" stop-color="#E989DA"/><stop offset="1" stop-color="#8DB6FC"/></radialGradient><radialGradient id="paint6_radial_463_245" cx="0" cy="0" r="1" gradientTransform="translate(537.392 4367.45) rotate(-127.164) scale(1088.99 756.538)" gradientUnits="userSpaceOnUse"><stop stop-color="#FFF4DA"/><stop offset="0" stop-color="#FFECBE"/><stop offset=".349" stop-color="#FEBBB7"/><stop offset=".641" stop-color="#E989DA"/><stop offset="1" stop-color="#8DB6FC"/></radialGradient><radialGradient id="paint7_radial_463_245" cx="0" cy="0" r="1" gradientTransform="translate(603.529 2869.45) rotate(-179.243) scale(555.787 518.569)" gradientUnits="userSpaceOnUse"><stop stop-color="#FFDAE1"/><stop offset="0" stop-color="#FFECBE"/><stop offset=".349" stop-color="#FEBBB7"/><stop offset=".641" stop-color="#E989DA"/><stop offset="1" stop-color="#8DB6FC"/></radialGradient><linearGradient id="paint8_linear_463_245" x1="934.18" x2="111.987" y1="8882.68" y2="10205.1" gradientUnits="userSpaceOnUse"><stop stop-color="#FFF4DA"/><stop offset="0" stop-color="#FFECBE"/><stop offset=".349" stop-color="#FEBBB7"/><stop offset=".641" stop-color="#E989DA"/><stop offset="1" stop-color="#8DB6FC"/></linearGradient><radialGradient id="paint9_radial_463_245" cx="0" cy="0" r="1" gradientTransform="translate(-185.569 7112.75) rotate(74.4807) scale(712.361 501.376)" gradientUnits="userSpaceOnUse"><stop stop-color="#FFF4DA"/><stop offset="0" stop-color="#FFECBE"/><stop offset=".349" stop-color="#FEBBB7"/><stop offset=".641" stop-color="#E989DA"/><stop offset="1" stop-color="#8DB6FC"/></radialGradient><radialGradient id="paint10_radial_463_245" cx="0" cy="0" r="1" gradientTransform="translate(1157.16 4971.61) rotate(162.661) scale(712.361 501.376)" gradientUnits="userSpaceOnUse"><stop stop-color="#FFF4DA"/><stop offset="0" stop-color="#FFECBE"/><stop offset=".349" stop-color="#FEBBB7"/><stop offset=".641" stop-color="#E989DA"/><stop offset="1" stop-color="#8DB6FC"/></radialGradient><radialGradient id="paint11_radial_463_245" cx="0" cy="0" r="1" gradientTransform="translate(1131.02 11622) rotate(165.372) scale(712.361 501.376)" gradientUnits="userSpaceOnUse"><stop stop-color="#FFF4DA"/><stop offset="0" stop-color="#FFECBE"/><stop offset=".349" stop-color="#FEBBB7"/><stop offset=".641" stop-color="#E989DA"/><stop offset="1" stop-color="#8DB6FC"/></radialGradient><clipPath id="clip0_463_245"><rect width="451" height="13467" fill="#fff"/></clipPath></defs></svg>