<svg width="795" height="1292" viewBox="0 0 795 1292" fill="none" xmlns="http://www.w3.org/2000/svg">
<g clip-path="url(#clip0_178_293)">
<rect width="795" height="1292" fill="white"/>
<g filter="url(#filter0_d_178_293)">
<path fill-rule="evenodd" clip-rule="evenodd" d="M393.618 128.73C392.097 127.861 390.339 127.501 388.599 127.7L373.925 129.384L407.108 167.525L445.301 158.234L393.618 128.73ZM449.42 163.407L409.058 173.225L409.644 265.658L441.433 201.345L449.42 163.407ZM452.058 179.999L456.272 159.985L456.722 157.846L454.823 156.762L396.593 123.519C393.963 122.018 390.923 121.394 387.915 121.74L367.579 124.073L367.518 124.08L367.457 124.09L358.702 125.458L337.874 125.248C333.474 125.203 329.302 127.197 326.571 130.647L292.062 174.247L290.661 176.017L291.974 177.854L337.551 241.601L279.459 198.982L278.035 197.937L276.43 198.675L192.534 237.272C188.9 238.944 186.137 242.067 184.922 245.879L181.798 255.679L177.625 267.789L172.358 278.647C169.082 285.398 171.611 293.532 178.137 297.236L237.48 330.92L238.234 331.348L239.099 331.308L335.986 326.853L244.868 365.686L242.864 366.54L243.056 368.71L251.857 468.258C252.329 473.605 255.771 478.232 260.757 480.222L284.174 489.569L284.241 489.596L284.309 489.619L294.383 493.091L294.566 493.154L294.756 493.193L321.875 498.777C326.182 499.664 330.656 498.51 333.997 495.652L428.014 415.226L429.169 414.239L429.056 412.723L427.133 386.996L452.434 433.762L453.19 435.159L454.77 435.32L563.232 446.317C568.233 446.824 573.13 444.656 576.116 440.613L590.156 421.603L590.265 421.456L590.355 421.297L596.436 410.532L596.455 410.5L610.341 386.613C613.138 381.802 612.874 375.802 609.665 371.255L548.022 283.903L571.974 280.728L573.726 280.495L574.372 278.851L598.228 218.121C600.279 212.9 599.072 206.962 595.146 202.956L583.261 190.828L575.61 181.904L564.017 166.728C561.768 163.784 558.46 161.833 554.796 161.289L469.954 148.7L467.799 148.381L466.828 150.331L452.058 179.999ZM568.034 181.871L559.249 170.37C557.948 168.667 556.035 167.539 553.916 167.224L476.014 155.665L504.407 195.827L568.034 181.871ZM499.206 198.864L469.962 157.499L446.98 203.663L446.976 203.671L409.729 279.028L409.795 289.421L499.206 198.864ZM409.888 304.069L409.898 305.726L513.267 360.172L528.617 338.958L409.888 304.069ZM531.128 333.442L539.091 285.102L445.873 297.799L445.87 297.8L421.2 301.14L531.128 333.442ZM411.314 296.423L417.799 295.545L516.242 220.897L502.841 203.721L411.314 296.423ZM508.401 201.093L522.808 219.558L538.963 238.685L577.121 192.884L572.167 187.107L508.401 201.093ZM581.229 197.327L542.99 243.224L570.512 272.266L592.644 215.927C593.83 212.907 593.132 209.472 590.861 207.155L581.229 197.327ZM565.36 275.552L538.395 247.098L461.044 289.677L542.306 278.608L542.317 278.607L565.36 275.552ZM444.511 291.929L534.323 242.49L520.023 225.56L429.888 293.909L444.511 291.929ZM544.481 289.292L536.721 336.402L593.394 403.828L605.154 383.598C606.772 380.815 606.619 377.344 604.763 374.714L544.481 289.292ZM590.207 409.361L533.714 342.149L516.605 365.794L516.602 365.797L500.767 387.756L586.346 416.195L590.207 409.361ZM582.874 421.364L496.807 392.763L461.46 429.967L563.838 440.348C566.73 440.641 569.563 439.387 571.29 437.048L582.874 421.364ZM455.745 427.272L426.046 372.377L423.613 335.644L491.512 389.624L455.745 427.272ZM495.35 385.01L422.038 326.727L407.654 315.292L406.046 314.013L407.853 311.429L509.719 365.084L495.35 385.01ZM403.904 306.606L403.862 300.072L403.841 296.702L403.725 278.355L403.064 174.151L383.27 175.928L403.781 306.781L403.904 306.606ZM394.235 284.626L377.296 176.559L355.805 179.204L394.235 284.626ZM355.246 173.228L361.561 131.084L366.746 130.274L399.924 168.409L379.542 170.239L379.493 170.244L379.444 170.25L355.246 173.228ZM355.443 131.426L337.814 131.248C335.269 131.222 332.855 132.375 331.276 134.37L300.565 173.171L349.114 173.661L355.443 131.426ZM300.289 179.169L349.587 179.666L396.942 309.569L392.309 307.872L388.263 302.215L374.512 282.98L353.343 253.372L300.289 179.169ZM378.17 298.413L370.151 287.198L269.146 247.973L264.988 262.894L378.17 298.413ZM258.437 264.05L263.008 247.647L186.892 259.314L184.266 266.934L251.903 286.555L258.428 264.081L258.437 264.05ZM255.866 293.587L243.45 325.102L352.191 320.102L382.513 315.976L389.999 313.416L389.665 313.294L255.866 293.587ZM394.987 318.052L384.746 321.554L306.683 390.712L327.06 395.964L394.987 318.052ZM333.56 397.639L360.82 404.665L401.434 319.787L333.56 397.639ZM406.868 322.332L367.062 405.522L422.813 409.695L420.104 373.452L420.103 373.439L420.102 373.427L417.266 330.598L406.868 322.332ZM418.587 415.395L363.795 411.294L300.821 488.316L323.086 492.9C325.576 493.413 328.164 492.746 330.097 491.093L418.587 415.395ZM294.362 486.737L357.168 409.92L327.356 402.236L302.909 395.936L288.648 484.768L294.362 486.737ZM282.918 482.608L297.139 394.028L249.478 373.218L257.833 467.729C258.107 470.823 260.098 473.499 262.982 474.65L282.918 482.608ZM253.618 368.479L299.914 388.693L373.824 323.214L353.267 326.01L253.618 368.479ZM237.437 323.996L249.949 292.236L181.997 272.523L177.756 281.266C175.862 285.17 177.324 289.875 181.099 292.018L237.437 323.996ZM257.788 287.805L383.179 306.274L263.344 268.666L257.788 287.805ZM188.973 252.925L264.714 241.315L273.274 206.732L195.041 242.723C192.94 243.69 191.342 245.496 190.639 247.701L188.973 252.925ZM279.52 206.468L270.691 242.137L363.78 278.287L348.741 257.252L279.52 206.468ZM212.22 -552.89C296.762 -616.714 401.672 -615.67 499.26 -645.103C599.632 -675.377 699.937 -740.748 795.865 -728.926C894.509 -716.769 972.181 -654.666 1025.78 -580.214C1077.64 -508.181 1087.35 -412.532 1091.85 -317.803C1096.19 -226.258 1096.74 -130.577 1051.42 -40.0982C1006.99 48.6216 918.085 108.927 842.981 179.097C764.053 252.841 697.98 355.089 598.321 383.237C498.636 411.392 414.456 354.086 326.745 324.904C244.593 297.571 158.106 276.493 100.084 217.468C40.4401 156.794 5.70647 75.5152 -5.8063 -13.3934C-17.5214 -103.865 -3.87388 -200.348 33.8828 -293.776C72.5201 -389.382 125.819 -487.664 212.22 -552.89Z" fill="url(#paint0_radial_178_293)"/>
</g>
</g>
<defs>
<filter id="filter0_d_178_293" x="-109.88" y="-830.339" width="1303.62" height="1429.41" filterUnits="userSpaceOnUse" color-interpolation-filters="sRGB">
<feFlood flood-opacity="0" result="BackgroundImageFix"/>
<feColorMatrix in="SourceAlpha" type="matrix" values="0 0 0 0 0 0 0 0 0 0 0 0 0 0 0 0 0 0 127 0" result="hardAlpha"/>
<feOffset/>
<feGaussianBlur stdDeviation="50"/>
<feComposite in2="hardAlpha" operator="out"/>
<feColorMatrix type="matrix" values="0 0 0 0 0 0 0 0 0 0 0 0 0 0 0 0 0 0 0.1 0"/>
<feBlend mode="normal" in2="BackgroundImageFix" result="effect1_dropShadow_178_293"/>
<feBlend mode="normal" in="SourceGraphic" in2="effect1_dropShadow_178_293" result="shape"/>
</filter>
<radialGradient id="paint0_radial_178_293" cx="0" cy="0" r="1" gradientUnits="userSpaceOnUse" gradientTransform="translate(-50.0929 256.36) rotate(-10.9353) scale(1095.43 840.038)">
<stop stop-color="#FFC435" stop-opacity="0.27"/>
<stop offset="0.0001" stop-color="#FFC435" stop-opacity="0.32"/>
<stop offset="0.193969" stop-color="#F26C64" stop-opacity="0.32"/>
<stop offset="0.455202" stop-color="#D770C7" stop-opacity="0.61"/>
<stop offset="0.838642" stop-color="#86ADF2"/>
</radialGradient>
<clipPath id="clip0_178_293">
<rect width="795" height="1292" fill="white"/>
</clipPath>
</defs>
</svg>
