<svg xmlns="http://www.w3.org/2000/svg" width="1512" height="7606" fill="none" viewBox="0 0 1512 7606"><g clip-path="url(#clip0_314_242)"><rect width="1512" height="7606" fill="#fff"/><g filter="url(#filter0_d_314_242)"><path fill="url(#paint0_radial_314_242)" fill-opacity=".75" fill-rule="evenodd" d="M361.529 1668.72C301.572 1719.25 223.986 1722.64 153.022 1748.27C80.0326 1774.63 8.48631 1826.93 -62.8879 1821.99C-136.283 1816.92 -196.159 1774.1 -238.731 1721.2C-279.921 1670.01 -290.894 1599.7 -297.977 1529.86C-304.821 1462.36 -309.018 1391.66 -279.114 1322.99C-249.79 1255.65 -186.472 1207.54 -133.743 1152.7C-78.329 1095.06 -33.5479 1016.86 38.9979 992.101C111.563 967.334 176.059 1006.35 242.048 1024.44C303.855 1041.39 368.619 1053.53 413.848 1094.86C460.341 1137.34 489.239 1196.04 501.277 1261.3C513.526 1327.71 507.266 1399.56 483.065 1470.12C458.3 1542.32 422.804 1617.08 361.529 1668.72Z" clip-rule="evenodd" shape-rendering="crispEdges"/></g><g filter="url(#filter1_d_314_242)"><path fill="url(#paint1_radial_314_242)" fill-opacity=".75" fill-rule="evenodd" d="M361.529 1668.72C301.572 1719.25 223.986 1722.64 153.022 1748.27C80.0326 1774.63 8.48631 1826.93 -62.8879 1821.99C-136.283 1816.92 -196.159 1774.1 -238.731 1721.2C-279.921 1670.01 -290.894 1599.7 -297.977 1529.86C-304.821 1462.36 -309.018 1391.66 -279.114 1322.99C-249.79 1255.65 -186.472 1207.54 -133.743 1152.7C-78.329 1095.06 -33.5479 1016.86 38.9979 992.101C111.563 967.334 176.059 1006.35 242.048 1024.44C303.855 1041.39 368.619 1053.53 413.848 1094.86C460.341 1137.34 489.239 1196.04 501.277 1261.3C513.526 1327.71 507.266 1399.56 483.065 1470.12C458.3 1542.32 422.804 1617.08 361.529 1668.72Z" clip-rule="evenodd" shape-rendering="crispEdges"/></g><g filter="url(#filter2_d_314_242)"><path fill="url(#paint2_radial_314_242)" fill-opacity=".75" d="M1208.67 2456.94C1318.54 2468.65 1418.62 2483.3 1491.61 2456.94C1624.62 2386.22 1719.51 2330.08 1678.89 2110.24C1666.85 2044.98 1637.95 1986.28 1591.46 1943.8C1546.23 1902.47 1491.18 1885.31 1419.66 1873.38C1266.71 1847.86 1165.14 1904.99 1043.87 2001.64C975.49 2056.13 927.823 2104.58 898.5 2171.93C868.595 2240.6 846.628 2304.69 879.636 2378.8C933.374 2499.44 1077.34 2442.94 1208.67 2456.94Z" shape-rendering="crispEdges"/></g><path stroke="url(#paint3_linear_314_242)" stroke-width="8" d="M-49.2358 2291.44L0.0734184 2231.2C3.15269 2227.44 7.79875 2225.31 12.6584 2225.44L42.1565 2226.23M-49.2358 2291.44L30.9313 2293.57M-49.2358 2291.44L28.0184 2403.33M42.1565 2226.23L30.9313 2293.57M42.1565 2226.23L54.7873 2224.46M30.9313 2293.57L98.1359 2487.78M30.9313 2293.57L70.368 2289.37M82.0459 2481.59L93.9837 2486.18M82.0459 2481.59L-108.507 2450.31M82.0459 2481.59L75.7768 2472.51M98.1359 2487.78L70.368 2289.37M98.1359 2487.78L105.212 2478.01M98.1359 2487.78L93.9837 2486.18M98.1359 2487.78L103.408 2492.12M98.1359 2487.78L-7.21199 2604.68M70.368 2289.37L107.143 2286.68M105.212 2478.01L105.318 2467.52M105.212 2478.01L254.057 2559.56M107.143 2286.68L54.7873 2224.46M107.143 2286.68L173.608 2271.66M107.143 2286.68L105.624 2437.12M54.7873 2224.46L83.3072 2221.67C86.6371 2221.34 89.9844 2222.08 92.8624 2223.79L173.608 2271.66M173.608 2271.66L159.958 2331.6M159.958 2331.6L105.624 2437.12M159.958 2331.6L196.431 2261.26M105.624 2437.12L105.365 2462.81M196.431 2261.26L314.903 2280.83C318.941 2281.5 322.56 2283.71 324.991 2287.01L340.94 2308.61M196.431 2261.26L242.36 2328.54M340.94 2308.61L351.609 2321.48M340.94 2308.61L242.36 2328.54M351.609 2321.48L368.063 2338.83C372.328 2343.33 373.553 2349.91 371.193 2355.64L336.402 2440.1M351.609 2321.48L291.558 2391.19M336.402 2440.1L291.558 2391.19M336.402 2440.1L295.903 2444.79M105.318 2467.52L122.322 2465.51M105.318 2467.52L105.365 2462.81M105.318 2467.52L281.78 2522.54M242.36 2328.54L266.166 2360.11M242.36 2328.54L105.365 2462.81M266.166 2360.11L291.558 2391.19M266.166 2360.11L122.322 2465.51M291.558 2391.19L159.478 2461.1M159.478 2461.1L122.322 2465.51M159.478 2461.1L295.903 2444.79M295.903 2444.79L384.092 2574.22C387.554 2579.3 387.737 2585.94 384.559 2591.2L364.545 2624.36M295.903 2444.79L281.78 2522.54M364.545 2624.36L355.758 2639.34M364.545 2624.36L281.78 2522.54M355.758 2639.34L335.668 2665.62C332.296 2670.04 326.846 2672.34 321.331 2671.69L169.759 2653.8M355.758 2639.34L227.961 2594.52M169.759 2653.8L227.961 2594.52M169.759 2653.8L126.357 2570.33M227.961 2594.52L254.057 2559.56M227.961 2594.52L123.28 2508.46M254.057 2559.56L281.78 2522.54M126.357 2570.33L123.28 2508.46M126.357 2570.33L129.599 2625.99M123.28 2508.46L103.408 2492.12M129.599 2625.99L-3.8567 2736.41C-7.59947 2739.51 -12.5634 2740.7 -17.3045 2739.64L-55.1382 2731.2M129.599 2625.99L40.6771 2617.87M-55.1382 2731.2L-69.1602 2726.11M-55.1382 2731.2L40.6771 2617.87M-69.1602 2726.11L-101.724 2712.49C-107.196 2710.2 -110.915 2705.03 -111.34 2699.11L-121.369 2559.56M-69.1602 2726.11L-45.7315 2594.08M-121.369 2559.56L28.6384 2498.52M-121.369 2559.56L-45.7315 2594.08M28.6384 2498.52L71.7706 2493.38M28.6384 2498.52L-130.36 2503.22M71.7706 2493.38L93.9837 2486.18M71.7706 2493.38L-45.7315 2594.08M-130.36 2503.22L-212.654 2454.7C-219.796 2450.49 -222.442 2441.46 -218.701 2434.06L-210.964 2418.76M-130.36 2503.22L-108.507 2450.31M-210.964 2418.76L-204.742 2401.62M-210.964 2418.76L-108.507 2450.31M-204.742 2401.62L-200.127 2387.93C-198.716 2383.74 -195.607 2380.34 -191.562 2378.56L-73.2359 2326.46M-204.742 2401.62L-88.9681 2385.82M-73.2359 2326.46L28.0184 2403.33M-73.2359 2326.46L-88.9681 2385.82M28.0184 2403.33L56.9696 2445.27M-88.9681 2385.82L-97.6063 2414.95M-88.9681 2385.82L56.9696 2445.27M-97.6063 2414.95L-108.507 2450.31M-97.6063 2414.95L75.7768 2472.51M75.7768 2472.51L56.9696 2445.27M-45.7315 2594.08L-7.21199 2604.68M40.6771 2617.87L103.408 2492.12M40.6771 2617.87L-7.21199 2604.68"/><path stroke="url(#paint4_linear_314_242)" stroke-width="8" d="M1265.77 1297.32L1326.62 1248.76C1330.42 1245.73 1335.4 1244.63 1340.13 1245.77L1368.81 1252.72M1265.77 1297.32L1343.71 1316.21M1265.77 1297.32L1317.84 1422.93M1368.81 1252.72L1343.71 1316.21M1368.81 1252.72L1381.53 1253.65M1343.71 1316.21L1368.7 1520.2M1343.71 1316.21L1383.15 1320.38M1354.26 1510.77L1364.97 1517.77M1354.26 1510.77L1174.5 1440.24M1354.26 1510.77L1350.04 1500.58M1368.7 1520.2L1383.15 1320.38M1368.7 1520.2L1377.66 1512.13M1368.7 1520.2L1364.97 1517.77M1368.7 1520.2L1372.94 1525.55M1368.7 1520.2L1241.18 1612.41M1383.15 1320.38L1419.67 1325.46M1377.66 1512.13L1379.97 1501.9M1377.66 1512.13L1506.1 1623.08M1419.67 1325.46L1381.53 1253.65M1419.67 1325.46L1487.81 1324.71M1419.67 1325.46L1386.64 1472.24M1381.53 1253.65L1410 1256.89C1413.32 1257.27 1416.44 1258.7 1418.9 1260.97L1487.81 1324.71M1487.81 1324.71L1461.89 1380.45M1461.89 1380.45L1386.64 1472.24M1461.89 1380.45L1512.31 1319.32M1386.64 1472.24L1381 1497.3M1512.31 1319.32L1624.04 1363.3C1627.85 1364.8 1630.92 1367.73 1632.61 1371.46L1643.67 1395.93M1512.31 1319.32L1543.1 1394.74M1643.67 1395.93L1651.41 1410.75M1643.67 1395.93L1543.1 1394.74M1651.41 1410.75L1663.86 1431.16C1667.08 1436.45 1666.9 1443.14 1663.39 1448.25L1611.66 1523.54M1651.41 1410.75L1578.07 1466.32M1611.66 1523.54L1578.07 1466.32M1611.66 1523.54L1571.08 1519.64M1379.97 1501.9L1397.02 1503.49M1379.97 1501.9L1381 1497.3M1379.97 1501.9L1540.97 1592.7M1543.1 1394.74L1559.76 1430.6M1543.1 1394.74L1381 1497.3M1559.76 1430.6L1578.07 1466.32M1559.76 1430.6L1397.02 1503.49M1578.07 1466.32L1434.27 1506.97M1434.27 1506.97L1397.02 1503.49M1434.27 1506.97L1571.08 1519.64M1571.08 1519.64L1630.17 1664.68C1632.49 1670.38 1631.28 1676.9 1627.07 1681.38L1600.54 1709.61M1571.08 1519.64L1540.97 1592.7M1600.54 1709.61L1588.81 1722.41M1600.54 1709.61L1540.97 1592.7M1588.81 1722.41L1563.66 1743.9C1559.43 1747.5 1553.62 1748.62 1548.37 1746.82L1403.91 1697.55M1588.81 1722.41L1473.25 1651.79M1403.91 1697.55L1473.25 1651.79M1403.91 1697.55L1378.98 1606.83M1473.25 1651.79L1506.1 1623.08M1473.25 1651.79L1388.95 1545.69M1506.1 1623.08L1540.97 1592.7M1378.98 1606.83L1388.95 1545.69M1378.98 1606.83L1370.48 1661.94M1388.95 1545.69L1372.94 1525.55M1370.48 1661.94L1216.84 1741.92C1212.53 1744.16 1207.42 1744.29 1203.01 1742.26L1167.79 1726.07M1370.48 1661.94L1285.24 1635.35M1167.79 1726.07L1155.14 1718.15M1167.79 1726.07L1285.24 1635.35M1155.14 1718.15L1126.16 1698C1121.29 1694.62 1118.74 1688.78 1119.56 1682.91L1139.02 1544.36M1155.14 1718.15L1205.74 1593.96M1139.02 1544.36L1298.49 1516.13M1139.02 1544.36L1205.74 1593.96M1298.49 1516.13L1341.74 1520.14M1298.49 1516.13L1142.04 1487.38M1341.74 1520.14L1364.97 1517.77M1341.74 1520.14L1205.74 1593.96M1142.04 1487.38L1071.75 1422.69C1065.65 1417.07 1064.96 1407.69 1070.17 1401.24L1080.94 1387.9M1142.04 1487.38L1174.5 1440.24M1080.94 1387.9L1090.62 1372.44M1080.94 1387.9L1174.5 1440.24M1090.62 1372.44L1098 1360.02C1100.26 1356.22 1104.01 1353.55 1108.34 1352.66L1234.96 1326.53M1090.62 1372.44L1207.13 1381.27M1234.96 1326.53L1317.84 1422.93M1234.96 1326.53L1207.13 1381.27M1317.84 1422.93L1337.36 1470M1207.13 1381.27L1192.58 1407.94M1207.13 1381.27L1337.36 1470M1192.58 1407.94L1174.5 1440.24M1192.58 1407.94L1350.04 1500.58M1350.04 1500.58L1337.36 1470M1205.74 1593.96L1241.18 1612.41M1285.24 1635.35L1372.94 1525.55M1285.24 1635.35L1241.18 1612.41"/><path stroke="url(#paint5_linear_314_242)" stroke-width="8" d="M-285.229 304.323L-224.384 255.763C-220.585 252.731 -215.596 251.626 -210.872 252.772L-182.193 259.722M-285.229 304.323L-207.29 323.213M-285.229 304.323L-233.155 429.929M-182.193 259.722L-207.29 323.213M-182.193 259.722L-169.474 260.648M-207.29 323.213L-182.304 527.202M-207.29 323.213L-167.85 327.379M-196.738 517.772L-186.029 524.769M-196.738 517.772L-376.497 447.236M-196.738 517.772L-200.963 507.579M-182.304 527.202L-167.85 327.379M-182.304 527.202L-173.336 519.129M-182.304 527.202L-186.029 524.769M-182.304 527.202L-178.058 532.546M-182.304 527.202L-309.822 619.412M-167.85 327.379L-131.327 332.456M-173.336 519.129L-171.034 508.9M-173.336 519.129L-44.9008 630.079M-131.327 332.456L-169.474 260.648M-131.327 332.456L-63.1916 331.711M-131.327 332.456L-164.359 479.237M-169.474 260.648L-141.001 263.892C-137.677 264.27 -134.56 265.699 -132.104 267.971L-63.1916 331.711M-63.1916 331.711L-89.1065 387.453M-89.1065 387.453L-164.359 479.237M-89.1065 387.453L-38.6945 326.323M-164.359 479.237L-169.998 504.297M-38.6945 326.323L73.0395 370.304C76.848 371.803 79.9219 374.728 81.6082 378.457L92.672 402.927M-38.6945 326.323L-7.89548 401.743M92.672 402.927L100.406 417.746M92.672 402.927L-7.89548 401.743M100.406 417.746L112.856 438.161C116.083 443.452 115.901 450.145 112.391 455.253L60.6633 530.54M100.406 417.746L27.0712 473.32M60.6633 530.54L27.0712 473.32M60.6633 530.54L20.0811 526.637M-171.034 508.9L-153.984 510.493M-171.034 508.9L-169.998 504.297M-171.034 508.9L-10.0316 599.698M-7.89548 401.743L8.762 437.601M-7.89548 401.743L-169.998 504.297M8.762 437.601L27.0712 473.32M8.762 437.601L-153.984 510.493M27.0712 473.32L-116.73 513.972M-116.73 513.972L-153.984 510.493M-116.73 513.972L20.0811 526.637M20.0811 526.637L79.1688 671.682C81.4886 677.377 80.2763 683.901 76.0658 688.382L49.5426 716.61M20.0811 526.637L-10.0316 599.698M49.5426 716.61L37.8117 729.407M49.5426 716.61L-10.0316 599.698M37.8117 729.407L12.6559 750.897C8.43349 754.504 2.6216 755.616 -2.63434 753.823L-147.085 704.548M37.8117 729.407L-77.7478 658.792M-147.085 704.548L-77.7478 658.792M-147.085 704.548L-172.019 613.83M-77.7478 658.792L-44.9008 630.079M-77.7478 658.792L-162.054 552.688M-44.9008 630.079L-10.0316 599.698M-172.019 613.83L-162.054 552.688M-172.019 613.83L-180.522 668.938M-162.054 552.688L-178.058 532.546M-180.522 668.938L-334.164 748.917C-338.473 751.16 -343.576 751.285 -347.99 749.257L-383.213 733.07M-180.522 668.938L-265.763 642.346M-383.213 733.07L-395.856 725.152M-383.213 733.07L-265.763 642.346M-395.856 725.152L-424.839 705.004C-429.71 701.618 -432.261 695.78 -431.436 689.906L-411.98 551.356M-395.856 725.152L-345.262 600.965M-411.98 551.356L-252.509 523.131M-411.98 551.356L-345.262 600.965M-252.509 523.131L-209.256 527.142M-252.509 523.131L-408.957 494.38M-209.256 527.142L-186.029 524.769M-209.256 527.142L-345.262 600.965M-408.957 494.38L-479.248 429.686C-485.348 424.071 -486.041 414.686 -480.832 408.236L-470.058 394.896M-408.957 494.38L-376.497 447.236M-470.058 394.896L-460.381 379.444M-470.058 394.896L-376.497 447.236M-460.381 379.444L-452.997 367.023C-450.739 363.224 -446.986 360.55 -442.658 359.657L-316.038 333.53M-460.381 379.444L-343.867 388.268M-316.038 333.53L-233.155 429.929M-316.038 333.53L-343.867 388.268M-233.155 429.929L-213.64 477M-343.867 388.268L-358.422 414.943M-343.867 388.268L-213.64 477M-358.422 414.943L-376.497 447.236M-358.422 414.943L-200.963 507.579M-200.963 507.579L-213.64 477M-345.262 600.965L-309.822 619.412M-265.763 642.346L-178.058 532.546M-265.763 642.346L-309.822 619.412"/><g filter="url(#filter3_d_314_242)"><path fill="url(#paint6_radial_314_242)" fill-opacity=".75" d="M1577.74 1020.23C1510.86 1026.92 1455.79 985.363 1408.01 959.565C1327.38 916.029 1269.88 881.513 1295.44 747.947C1303.02 708.298 1320.83 672.705 1349.27 647.045C1376.94 622.084 1410.5 611.86 1454.05 604.879C1547.18 589.95 1608.74 625.098 1682.13 684.354C1723.52 717.767 1752.32 747.426 1769.9 788.501C1787.82 830.391 1800.93 869.461 1780.57 914.408C1747.41 987.583 1657.68 1012.22 1577.74 1020.23Z" shape-rendering="crispEdges"/></g><g filter="url(#filter4_d_314_242)"><path fill="url(#paint7_radial_314_242)" fill-rule="evenodd" d="M-92.0755 4115.08C-195.028 4052.87 -238.183 3941.82 -310.382 3851.35C-384.641 3758.3 -495.876 3680.12 -523.878 3574C-552.673 3464.87 -519.962 3356.78 -464.079 3268.86C-410.01 3183.8 -313.263 3133.21 -215.286 3088.51C-120.602 3045.31 -19.9538 3004.38 94.5545 3013.99C206.837 3023.41 307.92 3091.7 413.583 3141.28C524.627 3193.39 660.3 3219.92 732.017 3313.11C803.753 3406.33 778.845 3519.26 785.078 3624.04C790.917 3722.19 805.178 3822.26 767.424 3908.34C728.615 3996.81 657.574 4067.72 568.693 4117.36C478.251 4167.88 370.77 4194.19 256.342 4193.8C139.244 4193.39 13.1407 4178.66 -92.0755 4115.08ZM833.821 3625.16C831.973 3623.49 829.638 3622.45 827.156 3622.19L806.211 3620.02L840.284 3682.62L895.924 3681.45L833.821 3625.16ZM899.798 3689.37L841.182 3690.61L813.836 3818.12L877.273 3739.13L899.798 3689.37ZM897.25 3714.4L909.703 3686.89L910.905 3684.24L908.745 3682.28L839.194 3619.24C836.084 3616.42 832.156 3614.66 827.982 3614.23L799.478 3611.28L799.397 3611.27L799.315 3611.26L786.917 3610.49L758.493 3603.9C752.552 3602.52 746.309 3603.97 741.582 3607.82L681.23 3656.99L678.897 3658.9L680.078 3661.66L723.604 3763.73L656.25 3686.97L654.697 3685.2L652.396 3685.7L526.046 3713.11C520.628 3714.28 515.955 3717.68 513.171 3722.48L505.936 3734.93L496.565 3750.24L486.075 3763.49C479.623 3771.65 480.611 3783.41 488.334 3790.38L559.274 3854.36L560.132 3855.14L561.27 3855.33L696.15 3878.71L558.768 3904.46L555.914 3905L555.539 3907.88L537.482 4046.62C536.521 4054 539.795 4061.29 545.947 4065.47L575.132 4085.33L575.211 4085.38L575.293 4085.43L588.015 4093.22L588.235 4093.36L588.471 4093.46L623.855 4109.29C629.417 4111.78 635.817 4111.56 641.193 4108.69L794.02 4027.16L795.808 4026.21L796.097 4024.21L801.377 3987.53L822.086 4060L822.668 4062.04L824.679 4062.7L969.62 4110.52C976.235 4112.7 983.511 4111.23 988.761 4106.66L1013.7 4084.91L1013.88 4084.75L1014.05 4084.57L1025.61 4071.69L1025.65 4071.66L1051.85 4043.2C1057.08 4037.52 1058.51 4029.33 1055.53 4022.21L997.54 3883.87L1031.57 3886.8L1033.92 3887L1035.23 3885.04L1086.2 3809.24C1090.54 3802.79 1090.68 3794.39 1086.57 3787.79L1073.98 3767.62L1066.21 3753.09L1054.95 3728.84C1052.79 3724.18 1048.9 3720.55 1044.1 3718.72L931.928 3675.87L929.214 3674.83L927.389 3677.09L897.25 3714.4ZM1056.36 3750.87L1047.7 3732.21C1046.41 3729.44 1044.1 3727.28 1041.25 3726.19L937.812 3686.68L964.719 3750.72L1056.36 3750.87ZM960.408 3760.54L806.591 3860.04L816.359 3860.86L973.721 3788.46L960.408 3760.54ZM977.302 3795.62L832.568 3862.21L853.951 3863.99L991.934 3823.47L977.302 3795.62ZM1003.01 3826.92L1032.1 3875.36L1079.56 3804.77C1082.14 3800.94 1082.22 3795.95 1079.78 3792.03L1069.46 3775.49L1003.01 3826.92ZM1065.4 3768.53L1060.23 3758.88L968.403 3758.72L982.655 3788.61L999.069 3819.85L1065.4 3768.53ZM1024.45 3878.15L995.908 3830.64L876.122 3865.81L991.623 3875.33L991.63 3875.33L991.637 3875.33L1024.45 3878.15ZM806.935 3850.29L957.074 3753.17L929.406 3687.33L883.827 3743.75L883.82 3743.76L810.098 3835.55L806.935 3850.29ZM802.793 3869.61L802.225 3872.26L927.295 3978.11L955.032 3953.45L802.793 3869.61ZM959.888 3946.99L985.568 3882.86L854.034 3872.02L854.031 3872.02L818.364 3869.05L959.888 3946.99ZM991.379 3889.87L966.318 3952.46L1023.58 4062.09L1045.97 4037.78C1049.07 4034.41 1049.93 4029.53 1048.15 4025.3L991.379 3889.87ZM1017.84 4068.37L960.748 3959.07L930.023 3986.39L930.018 3986.4L901.531 4011.81L1010.29 4076.78L1017.84 4068.37ZM1004.29 4082.51L894.934 4017.19L834.929 4057.66L972.126 4102.92C976.058 4104.22 980.383 4103.35 983.504 4100.63L1004.29 4082.51ZM828.264 4052.51L804.17 3968.18L812.021 3916.75L888.945 4011.58L828.264 4052.51ZM895.27 4006.68L812.538 3904.68L796.331 3884.71L794.401 3882.33L797.92 3879.09L921.262 3983.49L895.27 4006.68ZM794.167 3871.68L796.099 3862.67L797.088 3858.06L802.475 3832.94L833.112 3690.09L805.089 3686.48L793.534 3872.26L794.167 3871.68ZM787.484 3840.67L797.13 3685.58L766.509 3682.66L787.484 3840.67ZM767.503 3674.72L789.019 3618.63L796.609 3619.11L830.677 3681.71L801.873 3678L801.808 3677.99L801.742 3677.98L767.503 3674.72ZM780.956 3617.32L756.687 3611.69C753.156 3610.87 749.445 3611.74 746.635 3614.02L692.611 3658.04L759.395 3673.52L780.956 3617.32ZM690.525 3665.77L758.282 3681.47L783.828 3873.92L777.592 3869.93L773.749 3860.92L760.764 3830.47L740.775 3783.6L690.525 3665.77ZM761.702 3853.07L753.873 3834.71L627.423 3750.4L617.035 3769.91L761.702 3853.07ZM608.173 3769.53L619.527 3748.21L511.521 3741.13L505.457 3751.03L592.344 3798.49L608.153 3769.57L608.173 3769.53ZM595.479 3808.79L568.721 3848.5L719.191 3874.59L761.915 3878.12L773.503 3876.82L772.59 3876.23L595.479 3808.79ZM779.055 3884.24L763.217 3886.02L635.241 3957.17L661.954 3970.73L779.055 3884.24ZM669.933 3974.78L705.51 3992.85L787.687 3887.81L669.933 3974.78ZM793.281 3893.64L713.389 3995.76L788.84 4018.47L796.124 3967.87L796.127 3967.86L796.129 3967.84L805.21 3908.35L793.281 3893.64ZM781.698 4024.67L707.475 4002.33L597.771 4088.86L627.122 4101.99C630.428 4103.47 634.232 4103.34 637.428 4101.63L781.698 4024.67ZM589.816 4084.94L699.243 3998.64L660.533 3978.98L628.824 3962.88L582.339 4080.36L589.816 4084.94ZM575.501 4075.9L621.861 3958.74L562.602 3915.6L545.415 4047.65C544.844 4052.04 546.79 4056.37 550.447 4058.86L575.501 4075.9ZM569.356 3910.62L627.01 3952.59L748.521 3885.04L718.891 3882.59L569.356 3910.62ZM561.21 3845.33L588.165 3805.33L500.894 3757.66L492.349 3768.46C488.514 3773.31 489.102 3780.3 493.692 3784.44L561.21 3845.33ZM599.645 3801.82L767.027 3865.55L766.915 3865.29L613.233 3776.95L599.645 3801.82ZM516.071 3733.41L623.569 3740.46L645.968 3695.28L527.742 3720.92C524.521 3721.62 521.743 3723.64 520.088 3726.49L516.071 3733.41ZM654.175 3696.74L631.115 3743.25L748.144 3821.27L733.667 3787.33L654.175 3696.74Z" clip-rule="evenodd"/><path fill="#fff" fill-opacity=".2" fill-rule="evenodd" d="M-92.0755 4115.08C-195.028 4052.87 -238.183 3941.82 -310.382 3851.35C-384.641 3758.3 -495.876 3680.12 -523.878 3574C-552.673 3464.87 -519.962 3356.78 -464.079 3268.86C-410.01 3183.8 -313.263 3133.21 -215.286 3088.51C-120.602 3045.31 -19.9538 3004.38 94.5545 3013.99C206.837 3023.41 307.92 3091.7 413.583 3141.28C524.627 3193.39 660.3 3219.92 732.017 3313.11C803.753 3406.33 778.845 3519.26 785.078 3624.04C790.917 3722.19 805.178 3822.26 767.424 3908.34C728.615 3996.81 657.574 4067.72 568.693 4117.36C478.251 4167.88 370.77 4194.19 256.342 4193.8C139.244 4193.39 13.1407 4178.66 -92.0755 4115.08ZM833.821 3625.16C831.973 3623.49 829.638 3622.45 827.156 3622.19L806.211 3620.02L840.284 3682.62L895.924 3681.45L833.821 3625.16ZM899.798 3689.37L841.182 3690.61L813.836 3818.12L877.273 3739.13L899.798 3689.37ZM897.25 3714.4L909.703 3686.89L910.905 3684.24L908.745 3682.28L839.194 3619.24C836.084 3616.42 832.156 3614.66 827.982 3614.23L799.478 3611.28L799.397 3611.27L799.315 3611.26L786.917 3610.49L758.493 3603.9C752.552 3602.52 746.309 3603.97 741.582 3607.82L681.23 3656.99L678.897 3658.9L680.078 3661.66L723.604 3763.73L656.25 3686.97L654.697 3685.2L652.396 3685.7L526.046 3713.11C520.628 3714.28 515.955 3717.68 513.171 3722.48L505.936 3734.93L496.565 3750.24L486.075 3763.49C479.623 3771.65 480.611 3783.41 488.334 3790.38L559.274 3854.36L560.132 3855.14L561.27 3855.33L696.15 3878.71L558.768 3904.46L555.914 3905L555.539 3907.88L537.482 4046.62C536.521 4054 539.795 4061.29 545.947 4065.47L575.132 4085.33L575.211 4085.38L575.293 4085.43L588.015 4093.22L588.235 4093.36L588.471 4093.46L623.855 4109.29C629.417 4111.78 635.817 4111.56 641.193 4108.69L794.02 4027.16L795.808 4026.21L796.097 4024.21L801.377 3987.53L822.086 4060L822.668 4062.04L824.679 4062.7L969.62 4110.52C976.235 4112.7 983.511 4111.23 988.761 4106.66L1013.7 4084.91L1013.88 4084.75L1014.05 4084.57L1025.61 4071.69L1025.65 4071.66L1051.85 4043.2C1057.08 4037.52 1058.51 4029.33 1055.53 4022.21L997.54 3883.87L1031.57 3886.8L1033.92 3887L1035.23 3885.04L1086.2 3809.24C1090.54 3802.79 1090.68 3794.39 1086.57 3787.79L1073.98 3767.62L1066.21 3753.09L1054.95 3728.84C1052.79 3724.18 1048.9 3720.55 1044.1 3718.72L931.928 3675.87L929.214 3674.83L927.389 3677.09L897.25 3714.4ZM1056.36 3750.87L1047.7 3732.21C1046.41 3729.44 1044.1 3727.28 1041.25 3726.19L937.812 3686.68L964.719 3750.72L1056.36 3750.87ZM960.408 3760.54L806.591 3860.04L816.359 3860.86L973.721 3788.46L960.408 3760.54ZM977.302 3795.62L832.568 3862.21L853.951 3863.99L991.934 3823.47L977.302 3795.62ZM1003.01 3826.92L1032.1 3875.36L1079.56 3804.77C1082.14 3800.94 1082.22 3795.95 1079.78 3792.03L1069.46 3775.49L1003.01 3826.92ZM1065.4 3768.53L1060.23 3758.88L968.403 3758.72L982.655 3788.61L999.069 3819.85L1065.4 3768.53ZM1024.45 3878.15L995.908 3830.64L876.122 3865.81L991.623 3875.33L991.63 3875.33L991.637 3875.33L1024.45 3878.15ZM806.935 3850.29L957.074 3753.17L929.406 3687.33L883.827 3743.75L883.82 3743.76L810.098 3835.55L806.935 3850.29ZM802.793 3869.61L802.225 3872.26L927.295 3978.11L955.032 3953.45L802.793 3869.61ZM959.888 3946.99L985.568 3882.86L854.034 3872.02L854.031 3872.02L818.364 3869.05L959.888 3946.99ZM991.379 3889.87L966.318 3952.46L1023.58 4062.09L1045.97 4037.78C1049.07 4034.41 1049.93 4029.53 1048.15 4025.3L991.379 3889.87ZM1017.84 4068.37L960.748 3959.07L930.023 3986.39L930.018 3986.4L901.531 4011.81L1010.29 4076.78L1017.84 4068.37ZM1004.29 4082.51L894.934 4017.19L834.929 4057.66L972.126 4102.92C976.058 4104.22 980.383 4103.35 983.504 4100.63L1004.29 4082.51ZM828.264 4052.51L804.17 3968.18L812.021 3916.75L888.945 4011.58L828.264 4052.51ZM895.27 4006.68L812.538 3904.68L796.331 3884.71L794.401 3882.33L797.92 3879.09L921.262 3983.49L895.27 4006.68ZM794.167 3871.68L796.099 3862.67L797.088 3858.06L802.475 3832.94L833.112 3690.09L805.089 3686.48L793.534 3872.26L794.167 3871.68ZM787.484 3840.67L797.13 3685.58L766.509 3682.66L787.484 3840.67ZM767.503 3674.72L789.019 3618.63L796.609 3619.11L830.677 3681.71L801.873 3678L801.808 3677.99L801.742 3677.98L767.503 3674.72ZM780.956 3617.32L756.687 3611.69C753.156 3610.87 749.445 3611.74 746.635 3614.02L692.611 3658.04L759.395 3673.52L780.956 3617.32ZM690.525 3665.77L758.282 3681.47L783.828 3873.92L777.592 3869.93L773.749 3860.92L760.764 3830.47L740.775 3783.6L690.525 3665.77ZM761.702 3853.07L753.873 3834.71L627.423 3750.4L617.035 3769.91L761.702 3853.07ZM608.173 3769.53L619.527 3748.21L511.521 3741.13L505.457 3751.03L592.344 3798.49L608.153 3769.57L608.173 3769.53ZM595.479 3808.79L568.721 3848.5L719.191 3874.59L761.915 3878.12L773.503 3876.82L772.59 3876.23L595.479 3808.79ZM779.055 3884.24L763.217 3886.02L635.241 3957.17L661.954 3970.73L779.055 3884.24ZM669.933 3974.78L705.51 3992.85L787.687 3887.81L669.933 3974.78ZM793.281 3893.64L713.389 3995.76L788.84 4018.47L796.124 3967.87L796.127 3967.86L796.129 3967.84L805.21 3908.35L793.281 3893.64ZM781.698 4024.67L707.475 4002.33L597.771 4088.86L627.122 4101.99C630.428 4103.47 634.232 4103.34 637.428 4101.63L781.698 4024.67ZM589.816 4084.94L699.243 3998.64L660.533 3978.98L628.824 3962.88L582.339 4080.36L589.816 4084.94ZM575.501 4075.9L621.861 3958.74L562.602 3915.6L545.415 4047.65C544.844 4052.04 546.79 4056.37 550.447 4058.86L575.501 4075.9ZM569.356 3910.62L627.01 3952.59L748.521 3885.04L718.891 3882.59L569.356 3910.62ZM561.21 3845.33L588.165 3805.33L500.894 3757.66L492.349 3768.46C488.514 3773.31 489.102 3780.3 493.692 3784.44L561.21 3845.33ZM599.645 3801.82L767.027 3865.55L766.915 3865.29L613.233 3776.95L599.645 3801.82ZM516.071 3733.41L623.569 3740.46L645.968 3695.28L527.742 3720.92C524.521 3721.62 521.743 3723.64 520.088 3726.49L516.071 3733.41ZM654.175 3696.74L631.115 3743.25L748.144 3821.27L733.667 3787.33L654.175 3696.74Z" clip-rule="evenodd"/></g><g filter="url(#filter5_d_314_242)"><path fill="url(#paint8_radial_314_242)" fill-opacity=".75" d="M804.116 3035.78C731.401 3019.35 685.399 2955.28 642.461 2910.71C570 2835.49 519.351 2778.12 585.745 2643.73C605.441 2603.84 634.763 2571.91 672.412 2554.4C709.038 2537.37 747.54 2538.24 795.662 2546.13C898.576 2562.99 953.334 2622.46 1013.5 2712.01C1047.43 2762.5 1069.16 2804.51 1075.65 2854.82C1082.26 2906.13 1084.62 2952.71 1049.83 2993.78C993.201 3060.64 891.026 3055.41 804.116 3035.78Z" shape-rendering="crispEdges"/></g><g filter="url(#filter6_d_314_242)"><path fill="url(#paint9_linear_314_242)" fill-opacity=".8" fill-rule="evenodd" d="M2051.98 4033.61C2011.44 4108.75 1934.21 4143.19 1872.57 4197.51C1809.18 4253.38 1757.61 4334.94 1683.34 4358.47C1606.97 4382.66 1529.21 4363.21 1464.95 4326.64C1402.77 4291.25 1363.56 4224.42 1328.47 4156.51C1294.57 4090.88 1262.07 4020.94 1264.91 3939.43C1267.7 3859.5 1312.62 3785.47 1344.11 3708.85C1377.2 3628.32 1391.31 3531.22 1454.9 3477.15C1518.51 3423.06 1599.43 3436.81 1673.5 3428.77C1742.87 3421.23 1813.33 3407.65 1875.65 3431.44C1939.72 3455.89 1992.45 3503.8 2030.72 3565.09C2069.67 3627.46 2092.04 3702.74 2095.72 3783.88C2099.49 3866.91 2093.41 3956.82 2051.98 4033.61Z" clip-rule="evenodd" shape-rendering="crispEdges"/></g><path stroke="url(#paint10_linear_314_242)" stroke-width="6.075" d="M1253.24 3037.73L1284.9 2987.81C1286.88 2984.7 1290.19 2982.67 1293.86 2982.32L1316.17 2980.22M1253.24 3037.73L1313.86 3032.01M1253.24 3037.73L1321.7 3115.01M1316.17 2980.22L1313.86 3032.01M1316.17 2980.22L1325.53 2977.74M1313.86 3032.01L1382.27 3172.27M1313.86 3032.01L1343.21 3025.24M1369.57 3169.07L1378.99 3171.44M1369.57 3169.07L1223.07 3162.9M1369.57 3169.07L1364.02 3162.79M1382.27 3172.27L1343.21 3025.24M1382.27 3172.27L1386.71 3164.25M1382.27 3172.27L1378.99 3171.44M1382.27 3172.27L1386.64 3175.05M1382.27 3172.27L1313.54 3270.01M1343.21 3025.24L1370.68 3019.85M1386.71 3164.25L1385.83 3156.34M1386.71 3164.25L1506.36 3212.13M1370.68 3019.85L1325.53 2977.74M1370.68 3019.85L1419.41 3002.46M1370.68 3019.85L1383.28 3133.39M1325.53 2977.74L1346.77 2973.02C1349.25 2972.47 1351.85 2972.72 1354.17 2973.75L1419.41 3002.46M1419.41 3002.46L1414.6 3048.88M1414.6 3048.88L1383.28 3133.39M1414.6 3048.88L1435.66 2992.53M1383.28 3133.39L1385.43 3152.78M1435.66 2992.53L1526.76 2996.46C1529.86 2996.59 1532.79 2997.93 1534.92 3000.19L1548.92 3015.02M1435.66 2992.53L1476.43 3039.05M1548.92 3015.02L1558.14 3023.75M1548.92 3015.02L1476.43 3039.05M1558.14 3023.75L1572.13 3035.32C1575.75 3038.32 1577.28 3043.17 1576.02 3047.71L1557.51 3114.55M1558.14 3023.75L1519.24 3081.78M1557.51 3114.55L1519.24 3081.78M1557.51 3114.55L1527.41 3121.79M1385.83 3156.34L1398.46 3153.26M1385.83 3156.34L1385.43 3152.78M1385.83 3156.34L1523.87 3181.69M1476.43 3039.05L1497.26 3060.67M1476.43 3039.05L1385.43 3152.78M1497.26 3060.67L1519.24 3081.78M1497.26 3060.67L1398.46 3153.26M1519.24 3081.78L1426.07 3146.54M1426.07 3146.54L1398.46 3153.26M1426.07 3146.54L1527.41 3121.79M1527.41 3121.79L1605.72 3211.3C1608.79 3214.81 1609.53 3219.79 1607.62 3224.05L1595.56 3250.88M1527.41 3121.79L1523.87 3181.69M1595.56 3250.88L1590.31 3262.97M1595.56 3250.88L1523.87 3181.69M1590.31 3262.97L1577.57 3284.62C1575.43 3288.25 1571.53 3290.49 1567.31 3290.5L1451.42 3290.87M1590.31 3262.97L1489.88 3240.86M1451.42 3290.87L1489.88 3240.86M1451.42 3290.87L1411.08 3231.91M1489.88 3240.86L1506.36 3212.13M1489.88 3240.86L1403.11 3185.55M1506.36 3212.13L1523.87 3181.69M1411.08 3231.91L1403.11 3185.55M1411.08 3231.91L1418.61 3273.57M1403.11 3185.55L1386.64 3175.05M1418.61 3273.57L1328.1 3369C1325.56 3371.68 1321.93 3373.03 1318.26 3372.66L1288.97 3369.76M1418.61 3273.57L1350.84 3275.57M1288.97 3369.76L1277.93 3367.2M1288.97 3369.76L1350.84 3275.57M1277.93 3367.2L1252.14 3359.91C1247.81 3358.68 1244.53 3355.12 1243.67 3350.7L1223.36 3246.43M1277.93 3367.2L1283.53 3265.53M1223.36 3246.43L1330.86 3186.71M1223.36 3246.43L1283.53 3265.53M1330.86 3186.71L1362.9 3178.89M1330.86 3186.71L1211.44 3204.78M1362.9 3178.89L1378.99 3171.44M1362.9 3178.89L1283.53 3265.53M1211.44 3204.78L1144.97 3175.72C1139.2 3173.2 1136.38 3166.64 1138.53 3160.72L1142.96 3148.47M1211.44 3204.78L1223.07 3162.9M1142.96 3148.47L1146.08 3134.99M1142.96 3148.47L1223.07 3162.9M1146.08 3134.99L1148.31 3124.24C1148.99 3120.96 1151.03 3118.11 1153.91 3116.4L1238.35 3066.32M1146.08 3134.99L1231.91 3112.5M1238.35 3066.32L1321.7 3115.01M1238.35 3066.32L1231.91 3112.5M1321.7 3115.01L1347.35 3143.98M1231.91 3112.5L1228.06 3135.25M1231.91 3112.5L1347.35 3143.98M1228.06 3135.25L1223.07 3162.9M1228.06 3135.25L1364.02 3162.79M1364.02 3162.79L1347.35 3143.98M1283.53 3265.53L1313.54 3270.01M1350.84 3275.57L1386.64 3175.05M1350.84 3275.57L1313.54 3270.01"/><path stroke="url(#paint11_radial_314_242)" stroke-width="12.581" d="M-140.088 6638.98L-255.59 6623.07C-262.802 6622.08 -269.15 6617.81 -272.784 6611.5L-294.843 6573.2M-140.088 6638.98L-200.036 6534.9M-140.088 6638.98L-57.5269 6452.82M-294.843 6573.2L-200.036 6534.9M-294.843 6573.2L-306.967 6558.44M-200.036 6534.9L-4.45158 6297.23M-200.036 6534.9L-236.225 6487.8M0.211936 6322.62L-3.24809 6303.78M0.211936 6322.62L109.213 6590.51M0.211936 6322.62L-6.48779 6337.73M-4.45158 6297.23L-236.225 6487.8M-4.45158 6297.23L-22.4702 6295.83M-4.45158 6297.23L-3.24809 6303.78M-4.45158 6297.23L-3.03508 6287.1M-4.45158 6297.23L227.241 6340.43M-236.225 6487.8L-268.415 6442.92M-22.4702 6295.83L-35.9466 6303.89M-22.4702 6295.83L-34.6354 6041.92M-268.415 6442.92L-306.967 6558.44M-268.415 6442.92L-339.552 6369.75M-268.415 6442.92L-75.0281 6327.26M-306.967 6558.44L-332.837 6524.19C-335.857 6520.19 -337.524 6515.34 -337.593 6510.33L-339.552 6369.75M-339.552 6369.75L-252.31 6340.33M-252.31 6340.33L-75.0281 6327.26M-252.31 6340.33L-370.686 6348.72M-75.0281 6327.26L-42.011 6307.51M-370.686 6348.72L-438.288 6182.07C-440.593 6176.39 -440.591 6170.04 -438.285 6164.36L-423.15 6127.09M-370.686 6348.72L-320.628 6237.45M-423.15 6127.09L-415.052 6103.4M-423.15 6127.09L-320.628 6237.45M-415.052 6103.4L-405.747 6068.82C-403.335 6059.86 -395.884 6053.14 -386.719 6051.68L-251.621 6030.11M-415.052 6103.4L-279.044 6125.62M-251.621 6030.11L-279.044 6125.62M-251.621 6030.11L-213.968 6078.18M-35.9466 6303.89L-51.8173 6283.74M-35.9466 6303.89L-42.011 6307.51M-35.9466 6303.89L-103.597 6035.44M-320.628 6237.45L-298.908 6182.36M-320.628 6237.45L-42.011 6307.51M-298.908 6182.36L-279.044 6125.62M-298.908 6182.36L-51.8173 6283.74M-279.044 6125.62L-86.4952 6239.72M-86.4952 6239.72L-51.8173 6283.74M-86.4952 6239.72L-213.968 6078.18M-213.968 6078.18L-117.551 5864.34C-113.766 5855.94 -105.434 5850.52 -96.2249 5850.47L-38.2138 5850.11M-213.968 6078.18L-103.597 6035.44M-38.2138 5850.11L-12.2172 5849.63M-38.2138 5850.11L-103.597 6035.44M-12.2172 5849.63L37.0698 5854.75C45.3426 5855.61 52.5488 5860.77 56.0283 5868.32L151.656 6075.95M-12.2172 5849.63L30.4297 6047.93M151.656 6075.95L30.4297 6047.93M151.656 6075.95L78.9436 6196.65M30.4297 6047.93L-34.6354 6041.92M30.4297 6047.93L2.30409 6248.94M-34.6354 6041.92L-103.597 6035.44M78.9436 6196.65L2.30409 6248.94M78.9436 6196.65L147.525 6148.99M2.30409 6248.94L-3.03508 6287.1M147.525 6148.99L392.909 6233.17C399.791 6235.54 405.195 6240.94 407.55 6247.83L426.341 6302.76M147.525 6148.99L206.651 6268.95M426.341 6302.76L430.798 6324.65M426.341 6302.76L206.651 6268.95M430.798 6324.65L438.849 6376.91C440.202 6385.69 436.499 6394.48 429.273 6399.65L258.832 6521.55M430.798 6324.65L243.802 6397.93M258.832 6521.55L63.5948 6377.62M258.832 6521.55L243.802 6397.93M63.5948 6377.62L23.3025 6326.54M63.5948 6377.62L193.88 6577.08M23.3025 6326.54L-3.24809 6303.78M23.3025 6326.54L243.802 6397.93M193.88 6577.08L196.226 6720.13C196.43 6732.55 186.96 6742.99 174.584 6743.99L148.987 6746.07M193.88 6577.08L109.213 6590.51M148.987 6746.07L122.228 6751.52M148.987 6746.07L109.213 6590.51M122.228 6751.52L101.127 6756.33C94.6732 6757.8 87.8983 6756.49 82.4613 6752.71L-76.5903 6642.27M122.228 6751.52L11.5386 6615.97M-76.5903 6642.27L-57.5269 6452.82M-76.5903 6642.27L11.5386 6615.97M-57.5269 6452.82L-26.5869 6383.05M11.5386 6615.97L55.5105 6604.23M11.5386 6615.97L-26.5869 6383.05M55.5105 6604.23L109.213 6590.51M55.5105 6604.23L-6.48779 6337.73M-6.48779 6337.73L-26.5869 6383.05M243.802 6397.93L227.241 6340.43M206.651 6268.95L-3.03508 6287.1M206.651 6268.95L227.241 6340.43"/><path stroke="url(#paint12_radial_314_242)" stroke-width="12.581" d="M1450.46 6730.76L1492.67 6839.44C1495.31 6846.23 1494.65 6853.85 1490.9 6860.09L1468.15 6897.98M1450.46 6730.76L1388.61 6833.72M1450.46 6730.76L1247.63 6749.03M1468.15 6897.98L1388.61 6833.72M1468.15 6897.98L1461.14 6915.75M1388.61 6833.72L1085.85 6778.23M1388.61 6833.72L1365.02 6888.23M1105.79 6761.82L1091 6774M1105.79 6761.82L1286.98 6536.4M1105.79 6761.82L1122.25 6760.33M1085.85 6778.23L1365.02 6888.23M1085.85 6778.23L1093.38 6794.66M1085.85 6778.23L1091 6774M1085.85 6778.23L1076.32 6781.91M1085.85 6778.23L1011.06 6554.73M1365.02 6888.23L1341.44 6938.17M1093.38 6794.66L1106.98 6802.52M1093.38 6794.66L877.366 6928.64M1341.44 6938.17L1461.14 6915.75M1341.44 6938.17L1312.04 7035.9M1341.44 6938.17L1146.39 6825.33M1461.14 6915.75L1443.77 6955C1441.74 6959.58 1438.31 6963.4 1433.96 6965.89L1312.04 7035.9M1312.04 7035.9L1243.95 6973.93M1243.95 6973.93L1146.39 6825.33M1243.95 6973.93L1308.79 7073.32M1146.39 6825.33L1113.09 6806.06M1308.79 7073.32L1195.97 7213.38C1192.12 7218.15 1186.56 7221.24 1180.48 7221.98L1140.56 7226.85M1308.79 7073.32L1187.21 7083.63M1140.56 7226.85L1115.92 7231.28M1140.56 7226.85L1187.21 7083.63M1115.92 7231.28L1081.17 7239.95C1072.16 7242.2 1062.68 7238.95 1056.94 7231.65L972.452 7124.04M1115.92 7231.28L1069.26 7101.61M972.452 7124.04L1069.26 7101.61M972.452 7124.04L996.176 7067.78M1106.98 6802.52L1097.08 6826.18M1106.98 6802.52L1113.09 6806.06M1106.98 6802.52L905.203 6992.07M1187.21 7083.63L1128.51 7091.41M1187.21 7083.63L1113.09 6806.06M1128.51 7091.41L1069.26 7101.61M1128.51 7091.41L1097.08 6826.18M1069.26 7101.61L1075.45 6877.88M1075.45 6877.88L1097.08 6826.18M1075.45 6877.88L996.176 7067.78M996.176 7067.78L762.426 7087.39C753.249 7088.16 744.465 7083.51 739.942 7075.49L711.451 7024.96M996.176 7067.78L905.203 6992.07M711.451 7024.96L698.403 7002.47M711.451 7024.96L905.203 6992.07M698.403 7002.47L678.932 6956.9C675.664 6949.25 676.672 6940.45 681.585 6933.74L816.604 6749.28M698.403 7002.47L851.009 6868.85M816.604 6749.28L851.009 6868.85M816.604 6749.28L957.426 6754.2M851.009 6868.85L877.366 6928.64M851.009 6868.85L1040.37 6795.78M877.366 6928.64L905.203 6992.07M957.426 6754.2L1040.37 6795.78M957.426 6754.2L882.455 6717.41M1040.37 6795.78L1076.32 6781.91M882.455 6717.41L836.824 6462.03C835.545 6454.87 837.647 6447.52 842.52 6442.12L881.405 6399M882.455 6717.41L958.578 6607.45M881.405 6399L898.376 6384.47M881.405 6399L958.578 6607.45M898.376 6384.47L940.135 6352.05C947.152 6346.6 956.638 6345.57 964.666 6349.37L1154.01 6439.13M898.376 6384.47L1053.27 6512.32M1154.01 6439.13L1123.06 6679.7M1154.01 6439.13L1053.27 6512.32M1123.06 6679.7L1097.99 6739.73M1123.06 6679.7L1234.11 6468.92M1097.99 6739.73L1091 6774M1097.99 6739.73L1053.27 6512.32M1234.11 6468.92L1358.01 6397.37C1368.76 6391.16 1382.49 6394.37 1389.38 6404.7L1403.63 6426.06M1234.11 6468.92L1286.98 6536.4M1403.63 6426.06L1421.39 6446.8M1403.63 6426.06L1286.98 6536.4M1421.39 6446.8L1435.84 6462.91C1440.27 6467.84 1442.41 6474.4 1441.75 6480.98L1422.49 6673.66M1421.39 6446.8L1356.68 6609.41M1422.49 6673.66L1247.63 6749.03M1422.49 6673.66L1356.68 6609.41M1247.63 6749.03L1171.62 6755.88M1356.68 6609.41L1325.06 6576.67M1356.68 6609.41L1171.62 6755.88M1325.06 6576.67L1286.98 6536.4M1325.06 6576.67L1122.25 6760.33M1122.25 6760.33L1171.62 6755.88M1053.27 6512.32L1011.06 6554.73M958.578 6607.45L1076.32 6781.91M958.578 6607.45L1011.06 6554.73"/><path stroke="url(#paint13_radial_314_242)" stroke-width="12.581" d="M1279.31 5098.53L1301.05 4983.98C1302.4 4976.83 1306.99 4970.7 1313.48 4967.39L1352.84 4947.3M1279.31 5098.53L1386.29 5043.93M1279.31 5098.53L1461.06 5190.41M1352.84 4947.3L1386.29 5043.93M1352.84 4947.3L1368.2 4935.94M1386.29 5043.93L1613.76 5251.29M1386.29 5043.93L1435.17 5010.17M1588.16 5254.66L1607.16 5252.16M1588.16 5254.66L1315.1 5349.96M1588.16 5254.66L1573.41 5247.2M1613.76 5251.29L1435.17 5010.17M1613.76 5251.29L1616.07 5233.36M1613.76 5251.29L1607.16 5252.16M1613.76 5251.29L1623.8 5253.22M1613.76 5251.29L1558.89 5480.5M1435.17 5010.17L1481.61 4980.29M1616.07 5233.36L1608.71 5219.5M1616.07 5233.36L1870.27 5234.06M1481.61 4980.29L1368.2 4935.94M1481.61 4980.29L1558.3 4912.95M1481.61 4980.29L1587.34 5179.28M1368.2 4935.94L1403.71 4911.84C1407.85 4909.02 1412.79 4907.6 1417.8 4907.79L1558.3 4912.95M1558.3 4912.95L1583.26 5001.57M1583.26 5001.57L1587.34 5179.28M1583.26 5001.57L1580.87 4882.92M1587.34 5179.28L1605.39 5213.26M1580.87 4882.92L1750.73 4823.84C1756.52 4821.82 1762.87 4822.14 1768.42 4824.74L1804.87 4841.74M1580.87 4882.92L1689.46 4938.54M1804.87 4841.74L1828.12 4851.02M1804.87 4841.74L1689.46 4938.54M1828.12 4851.02L1862.19 4862.07C1871.02 4864.93 1877.34 4872.71 1878.34 4881.94L1893.05 5017.95M1828.12 4851.02L1799.04 4985.73M1893.05 5017.95L1799.04 4985.73M1893.05 5017.95L1843.14 5053.13M1608.71 5219.5L1629.63 5204.67M1608.71 5219.5L1605.39 5213.26M1608.71 5219.5L1880.23 5165.52M1689.46 4938.54L1743.38 4963.02M1689.46 4938.54L1605.39 5213.26M1743.38 4963.02L1799.04 4985.73M1743.38 4963.02L1629.63 5204.67M1799.04 4985.73L1675.35 5172.26M1675.35 5172.26L1629.63 5204.67M1675.35 5172.26L1843.14 5053.13M1843.14 5053.13L2051.82 5160.24C2060.02 5164.45 2065.01 5173.04 2064.6 5182.24L2062.01 5240.2M1843.14 5053.13L1880.23 5165.52M2062.01 5240.2L2061.18 5266.19M2062.01 5240.2L1880.23 5165.52M2061.18 5266.19L2053.57 5315.15C2052.29 5323.37 2046.78 5330.3 2039.06 5333.4L1826.86 5418.39M2061.18 5266.19L1860.97 5298.74M1826.86 5418.39L1860.97 5298.74M1826.86 5418.39L1709.99 5339.67M1860.97 5298.74L1870.27 5234.06M1860.97 5298.74L1661.64 5260.48M1870.27 5234.06L1880.23 5165.52M1709.99 5339.67L1661.64 5260.48M1709.99 5339.67L1754.12 5410.57M1661.64 5260.48L1623.8 5253.22M1754.12 5410.57L1657.62 5651.38C1654.92 5658.13 1649.24 5663.26 1642.25 5665.26L1586.43 5681.25M1754.12 5410.57L1631.32 5463.55M1586.43 5681.25L1564.34 5684.59M1586.43 5681.25L1631.32 5463.55M1564.34 5684.59L1511.75 5689.99C1502.91 5690.89 1494.32 5686.75 1489.52 5679.27L1376.41 5502.88M1564.34 5684.59L1500.62 5494.13M1376.41 5502.88L1530.03 5315.18M1376.41 5502.88L1500.62 5494.13M1530.03 5315.18L1583.09 5277.52M1530.03 5315.18L1324.24 5435.2M1583.09 5277.52L1607.16 5252.16M1583.09 5277.52L1500.62 5494.13M1324.24 5435.2L1181.24 5430.31C1168.83 5429.88 1158.88 5419.89 1158.51 5407.48L1157.73 5381.81M1324.24 5435.2L1315.1 5349.96M1157.73 5381.81L1153.64 5354.81M1157.73 5381.81L1315.1 5349.96M1153.64 5354.81L1149.91 5333.5C1148.77 5326.98 1150.42 5320.28 1154.47 5315.04L1272.82 5161.78M1153.64 5354.81L1294.62 5251.13M1272.82 5161.78L1461.06 5190.41M1272.82 5161.78L1294.62 5251.13M1461.06 5190.41L1529.17 5224.84M1294.62 5251.13L1304.12 5295.64M1294.62 5251.13L1529.17 5224.84M1304.12 5295.64L1315.1 5349.96M1304.12 5295.64L1573.41 5247.2M1573.41 5247.2L1529.17 5224.84M1500.62 5494.13L1558.89 5480.5M1631.32 5463.55L1623.8 5253.22M1631.32 5463.55L1558.89 5480.5"/></g><defs><filter id="filter0_d_314_242" width="1010.29" height="1038.22" x="-402.911" y="884.104" color-interpolation-filters="sRGB" filterUnits="userSpaceOnUse"><feFlood flood-opacity="0" result="BackgroundImageFix"/><feColorMatrix in="SourceAlpha" result="hardAlpha" type="matrix" values="0 0 0 0 0 0 0 0 0 0 0 0 0 0 0 0 0 0 127 0"/><feOffset/><feGaussianBlur stdDeviation="50"/><feComposite in2="hardAlpha" operator="out"/><feColorMatrix type="matrix" values="0 0 0 0 0 0 0 0 0 0 0 0 0 0 0 0 0 0 0.1 0"/><feBlend in2="BackgroundImageFix" mode="normal" result="effect1_dropShadow_314_242"/><feBlend in="SourceGraphic" in2="effect1_dropShadow_314_242" mode="normal" result="shape"/></filter><filter id="filter1_d_314_242" width="1010.29" height="1038.22" x="-402.911" y="884.104" color-interpolation-filters="sRGB" filterUnits="userSpaceOnUse"><feFlood flood-opacity="0" result="BackgroundImageFix"/><feColorMatrix in="SourceAlpha" result="hardAlpha" type="matrix" values="0 0 0 0 0 0 0 0 0 0 0 0 0 0 0 0 0 0 127 0"/><feOffset/><feGaussianBlur stdDeviation="50"/><feComposite in2="hardAlpha" operator="out"/><feColorMatrix type="matrix" values="0 0 0 0 0 0 0 0 0 0 0 0 0 0 0 0 0 0 0.1 0"/><feBlend in2="BackgroundImageFix" mode="normal" result="effect1_dropShadow_314_242"/><feBlend in="SourceGraphic" in2="effect1_dropShadow_314_242" mode="normal" result="shape"/></filter><filter id="filter2_d_314_242" width="1025.22" height="804.408" x="763.162" y="1767.3" color-interpolation-filters="sRGB" filterUnits="userSpaceOnUse"><feFlood flood-opacity="0" result="BackgroundImageFix"/><feColorMatrix in="SourceAlpha" result="hardAlpha" type="matrix" values="0 0 0 0 0 0 0 0 0 0 0 0 0 0 0 0 0 0 127 0"/><feOffset/><feGaussianBlur stdDeviation="50"/><feComposite in2="hardAlpha" operator="out"/><feColorMatrix type="matrix" values="0 0 0 0 0 0 0 0 0 0 0 0 0 0 0 0 0 0 0.1 0"/><feBlend in2="BackgroundImageFix" mode="normal" result="effect1_dropShadow_314_242"/><feBlend in="SourceGraphic" in2="effect1_dropShadow_314_242" mode="normal" result="shape"/></filter><filter id="filter3_d_314_242" width="656.674" height="574.593" x="1211.76" y="523.902" color-interpolation-filters="sRGB" filterUnits="userSpaceOnUse"><feFlood flood-opacity="0" result="BackgroundImageFix"/><feColorMatrix in="SourceAlpha" result="hardAlpha" type="matrix" values="0 0 0 0 0 0 0 0 0 0 0 0 0 0 0 0 0 0 127 0"/><feOffset/><feGaussianBlur stdDeviation="38.774"/><feComposite in2="hardAlpha" operator="out"/><feColorMatrix type="matrix" values="0 0 0 0 0 0 0 0 0 0 0 0 0 0 0 0 0 0 0.1 0"/><feBlend in2="BackgroundImageFix" mode="normal" result="effect1_dropShadow_314_242"/><feBlend in="SourceGraphic" in2="effect1_dropShadow_314_242" mode="normal" result="shape"/></filter><filter id="filter4_d_314_242" width="1824.1" height="1381.23" x="-634.543" y="2912.57" color-interpolation-filters="sRGB" filterUnits="userSpaceOnUse"><feFlood flood-opacity="0" result="BackgroundImageFix"/><feColorMatrix in="SourceAlpha" result="hardAlpha" type="matrix" values="0 0 0 0 0 0 0 0 0 0 0 0 0 0 0 0 0 0 127 0"/><feOffset/><feGaussianBlur stdDeviation="50"/><feComposite in2="hardAlpha" operator="out"/><feColorMatrix type="matrix" values="0 0 0 0 0 0 0 0 0 0 0 0 0 0 0 0 0 0 0.1 0"/><feBlend in2="BackgroundImageFix" mode="normal" result="effect1_dropShadow_314_242"/><feBlend in="SourceGraphic" in2="effect1_dropShadow_314_242" mode="normal" result="shape"/></filter><filter id="filter5_d_314_242" width="724.795" height="708.05" x="454.829" y="2440.71" color-interpolation-filters="sRGB" filterUnits="userSpaceOnUse"><feFlood flood-opacity="0" result="BackgroundImageFix"/><feColorMatrix in="SourceAlpha" result="hardAlpha" type="matrix" values="0 0 0 0 0 0 0 0 0 0 0 0 0 0 0 0 0 0 127 0"/><feOffset/><feGaussianBlur stdDeviation="50"/><feComposite in2="hardAlpha" operator="out"/><feColorMatrix type="matrix" values="0 0 0 0 0 0 0 0 0 0 0 0 0 0 0 0 0 0 0.1 0"/><feBlend in2="BackgroundImageFix" mode="normal" result="effect1_dropShadow_314_242"/><feBlend in="SourceGraphic" in2="effect1_dropShadow_314_242" mode="normal" result="shape"/></filter><filter id="filter6_d_314_242" width="973.89" height="1093.11" x="1193.76" y="3347.05" color-interpolation-filters="sRGB" filterUnits="userSpaceOnUse"><feFlood flood-opacity="0" result="BackgroundImageFix"/><feColorMatrix in="SourceAlpha" result="hardAlpha" type="matrix" values="0 0 0 0 0 0 0 0 0 0 0 0 0 0 0 0 0 0 127 0"/><feOffset/><feGaussianBlur stdDeviation="35.489"/><feComposite in2="hardAlpha" operator="out"/><feColorMatrix type="matrix" values="0 0 0 0 0 0 0 0 0 0 0 0 0 0 0 0 0 0 0.1 0"/><feBlend in2="BackgroundImageFix" mode="normal" result="effect1_dropShadow_314_242"/><feBlend in="SourceGraphic" in2="effect1_dropShadow_314_242" mode="normal" result="shape"/></filter><radialGradient id="paint0_radial_314_242" cx="0" cy="0" r="1" gradientTransform="translate(524.896 1093.73) rotate(166.003) scale(810.693 621.696)" gradientUnits="userSpaceOnUse"><stop stop-color="#FFC435" stop-opacity=".27"/><stop offset="0" stop-color="#FFC435" stop-opacity=".32"/><stop offset=".194" stop-color="#F26C64" stop-opacity=".32"/><stop offset=".455" stop-color="#D770C7" stop-opacity=".61"/><stop offset=".839" stop-color="#86ADF2"/></radialGradient><radialGradient id="paint1_radial_314_242" cx="0" cy="0" r="1" gradientTransform="translate(524.896 1093.73) rotate(166.003) scale(810.693 621.696)" gradientUnits="userSpaceOnUse"><stop stop-color="#FFC435" stop-opacity=".27"/><stop offset="0" stop-color="#FFC435" stop-opacity=".32"/><stop offset=".194" stop-color="#F26C64" stop-opacity=".32"/><stop offset=".455" stop-color="#D770C7" stop-opacity=".61"/><stop offset=".839" stop-color="#86ADF2"/></radialGradient><radialGradient id="paint2_radial_314_242" cx="0" cy="0" r="1" gradientTransform="translate(880.5 2112) rotate(17.8364) scale(832.515 754.675)" gradientUnits="userSpaceOnUse"><stop stop-color="#FFDAE1"/><stop offset="0" stop-color="#FFECBE"/><stop offset=".349" stop-color="#FEBBB7"/><stop offset=".641" stop-color="#E989DA"/><stop offset="1" stop-color="#8DB6FC"/></radialGradient><linearGradient id="paint3_linear_314_242" x1="-560.144" x2="406.015" y1="2187.61" y2="2330.21" gradientUnits="userSpaceOnUse"><stop stop-color="#FFF4DA"/><stop offset="0" stop-color="#FFECBE"/><stop offset=".349" stop-color="#FEBBB7"/><stop offset=".641" stop-color="#E989DA"/><stop offset="1" stop-color="#8DB6FC"/></linearGradient><linearGradient id="paint4_linear_314_242" x1="787.993" x2="1702.77" y1="1088.67" y2="1430.69" gradientUnits="userSpaceOnUse"><stop stop-color="#FFF4DA"/><stop offset="0" stop-color="#FFECBE"/><stop offset=".349" stop-color="#FEBBB7"/><stop offset=".641" stop-color="#E989DA"/><stop offset="1" stop-color="#8DB6FC"/></linearGradient><linearGradient id="paint5_linear_314_242" x1="-763.007" x2="151.772" y1="95.673" y2="437.69" gradientUnits="userSpaceOnUse"><stop stop-color="#FFF4DA"/><stop offset="0" stop-color="#FFECBE"/><stop offset=".349" stop-color="#FEBBB7"/><stop offset=".641" stop-color="#E989DA"/><stop offset="1" stop-color="#8DB6FC"/></linearGradient><radialGradient id="paint6_radial_314_242" cx="0" cy="0" r="1" gradientTransform="translate(1781.08 752.12) rotate(166.131) scale(697.49 632.274)" gradientUnits="userSpaceOnUse"><stop stop-color="#FFDAE1"/><stop offset="0" stop-color="#FFECBE"/><stop offset=".349" stop-color="#FEBBB7"/><stop offset=".641" stop-color="#E989DA"/><stop offset="1" stop-color="#8DB6FC"/></radialGradient><radialGradient id="paint7_radial_314_242" cx="0" cy="0" r="1" gradientTransform="translate(823.653 4263.45) rotate(-127.164) scale(1088.99 756.538)" gradientUnits="userSpaceOnUse"><stop stop-color="#FFF4DA"/><stop offset="0" stop-color="#FFECBE"/><stop offset=".349" stop-color="#FEBBB7"/><stop offset=".641" stop-color="#E989DA"/><stop offset="1" stop-color="#8DB6FC"/></radialGradient><radialGradient id="paint8_radial_314_242" cx="0" cy="0" r="1" gradientTransform="translate(1098.19 2819.71) rotate(-179.243) scale(555.787 518.569)" gradientUnits="userSpaceOnUse"><stop stop-color="#FFDAE1"/><stop offset="0" stop-color="#FFECBE"/><stop offset=".349" stop-color="#FEBBB7"/><stop offset=".641" stop-color="#E989DA"/><stop offset="1" stop-color="#8DB6FC"/></radialGradient><linearGradient id="paint9_linear_314_242" x1="2500.18" x2="1677.99" y1="3117.68" y2="4440.11" gradientUnits="userSpaceOnUse"><stop stop-color="#FFF4DA"/><stop offset="0" stop-color="#FFECBE"/><stop offset=".349" stop-color="#FEBBB7"/><stop offset=".641" stop-color="#E989DA"/><stop offset="1" stop-color="#8DB6FC"/></linearGradient><linearGradient id="paint10_linear_314_242" x1="858.629" x2="1599.95" y1="3006.14" y2="3025.36" gradientUnits="userSpaceOnUse"><stop stop-color="#FFF4DA"/><stop offset="0" stop-color="#FFECBE"/><stop offset=".349" stop-color="#FEBBB7"/><stop offset=".641" stop-color="#E989DA"/><stop offset="1" stop-color="#8DB6FC"/></linearGradient><radialGradient id="paint11_radial_314_242" cx="0" cy="0" r="1" gradientTransform="translate(-38.8568 6909.99) rotate(-78.273) scale(712.361 501.376)" gradientUnits="userSpaceOnUse"><stop stop-color="#FFF4DA"/><stop offset="0" stop-color="#FFECBE"/><stop offset=".349" stop-color="#FEBBB7"/><stop offset=".641" stop-color="#E989DA"/><stop offset="1" stop-color="#8DB6FC"/></radialGradient><radialGradient id="paint12_radial_314_242" cx="0" cy="0" r="1" gradientTransform="translate(1638.16 6510.61) rotate(162.661) scale(712.361 501.376)" gradientUnits="userSpaceOnUse"><stop stop-color="#FFF4DA"/><stop offset="0" stop-color="#FFECBE"/><stop offset=".349" stop-color="#FEBBB7"/><stop offset=".641" stop-color="#E989DA"/><stop offset="1" stop-color="#8DB6FC"/></radialGradient><radialGradient id="paint13_radial_314_242" cx="0" cy="0" r="1" gradientTransform="translate(1003.53 5185.92) rotate(14.628) scale(712.361 501.376)" gradientUnits="userSpaceOnUse"><stop stop-color="#FFF4DA"/><stop offset="0" stop-color="#FFECBE"/><stop offset=".349" stop-color="#FEBBB7"/><stop offset=".641" stop-color="#E989DA"/><stop offset="1" stop-color="#8DB6FC"/></radialGradient><clipPath id="clip0_314_242"><rect width="1512" height="7606" fill="#fff"/></clipPath></defs></svg>