<svg width="783" height="11993" viewBox="0 0 783 11993" fill="none" xmlns="http://www.w3.org/2000/svg">
<g clip-path="url(#clip0_402_379)">
<rect width="783" height="11993" fill="white"/>
<g filter="url(#filter0_d_402_379)">
<path fill-rule="evenodd" clip-rule="evenodd" d="M5.52859 1668.72C-54.4282 1719.25 -132.014 1722.64 -202.978 1748.27C-275.967 1774.63 -347.514 1826.93 -418.888 1821.99C-492.283 1816.92 -552.159 1774.1 -594.731 1721.2C-635.921 1670.01 -646.894 1599.7 -653.977 1529.86C-660.821 1462.36 -665.018 1391.66 -635.114 1322.99C-605.79 1255.65 -542.472 1207.54 -489.743 1152.7C-434.329 1095.06 -389.548 1016.86 -317.002 992.101C-244.437 967.334 -179.941 1006.35 -113.952 1024.44C-52.1446 1041.39 12.6185 1053.53 57.8477 1094.86C104.341 1137.34 133.239 1196.04 145.277 1261.3C157.526 1327.71 151.266 1399.56 127.065 1470.12C102.3 1542.32 66.8035 1617.08 5.52859 1668.72Z" fill="url(#paint0_radial_402_379)" fill-opacity="0.75" shape-rendering="crispEdges"/>
</g>
<g filter="url(#filter1_d_402_379)">
<path fill-rule="evenodd" clip-rule="evenodd" d="M5.52859 1668.72C-54.4282 1719.25 -132.014 1722.64 -202.978 1748.27C-275.967 1774.63 -347.514 1826.93 -418.888 1821.99C-492.283 1816.92 -552.159 1774.1 -594.731 1721.2C-635.921 1670.01 -646.894 1599.7 -653.977 1529.86C-660.821 1462.36 -665.018 1391.66 -635.114 1322.99C-605.79 1255.65 -542.472 1207.54 -489.743 1152.7C-434.329 1095.06 -389.548 1016.86 -317.002 992.101C-244.437 967.334 -179.941 1006.35 -113.952 1024.44C-52.1446 1041.39 12.6185 1053.53 57.8477 1094.86C104.341 1137.34 133.239 1196.04 145.277 1261.3C157.526 1327.71 151.266 1399.56 127.065 1470.12C102.3 1542.32 66.8035 1617.08 5.52859 1668.72Z" fill="url(#paint1_radial_402_379)" fill-opacity="0.75" shape-rendering="crispEdges"/>
</g>
<g filter="url(#filter2_d_402_379)">
<path d="M852.669 2456.94C962.543 2468.65 1062.62 2483.3 1135.61 2456.94C1268.62 2386.22 1363.51 2330.08 1322.89 2110.24C1310.85 2044.98 1281.95 1986.28 1235.46 1943.8C1190.23 1902.47 1135.18 1885.31 1063.66 1873.38C910.708 1847.86 809.139 1904.99 687.87 2001.64C619.49 2056.13 571.823 2104.58 542.5 2171.93C512.595 2240.6 490.628 2304.69 523.636 2378.8C577.374 2499.44 721.343 2442.94 852.669 2456.94Z" fill="url(#paint2_radial_402_379)" fill-opacity="0.75" shape-rendering="crispEdges"/>
</g>
<path d="M770.771 1301.32L831.616 1252.76C835.415 1249.73 840.404 1248.63 845.128 1249.77L873.807 1256.72M770.771 1301.32L848.71 1320.21M770.771 1301.32L822.845 1426.93M873.807 1256.72L848.71 1320.21M873.807 1256.72L886.526 1257.65M848.71 1320.21L873.696 1524.2M848.71 1320.21L888.15 1324.38M859.262 1514.77L869.971 1521.77M859.262 1514.77L679.503 1444.24M859.262 1514.77L855.037 1504.58M873.696 1524.2L888.15 1324.38M873.696 1524.2L882.664 1516.13M873.696 1524.2L869.971 1521.77M873.696 1524.2L877.942 1529.55M873.696 1524.2L746.178 1616.41M888.15 1324.38L924.673 1329.46M882.664 1516.13L884.966 1505.9M882.664 1516.13L1011.1 1627.08M924.673 1329.46L886.526 1257.65M924.673 1329.46L992.808 1328.71M924.673 1329.46L891.641 1476.24M886.526 1257.65L914.999 1260.89C918.323 1261.27 921.44 1262.7 923.896 1264.97L992.808 1328.71M992.808 1328.71L966.893 1384.45M966.893 1384.45L891.641 1476.24M966.893 1384.45L1017.31 1323.32M891.641 1476.24L886.002 1501.3M1017.31 1323.32L1129.04 1367.3C1132.85 1368.8 1135.92 1371.73 1137.61 1375.46L1148.67 1399.93M1017.31 1323.32L1048.1 1398.74M1148.67 1399.93L1156.41 1414.75M1148.67 1399.93L1048.1 1398.74M1156.41 1414.75L1168.86 1435.16C1172.08 1440.45 1171.9 1447.14 1168.39 1452.25L1116.66 1527.54M1156.41 1414.75L1083.07 1470.32M1116.66 1527.54L1083.07 1470.32M1116.66 1527.54L1076.08 1523.64M884.966 1505.9L902.016 1507.49M884.966 1505.9L886.002 1501.3M884.966 1505.9L1045.97 1596.7M1048.1 1398.74L1064.76 1434.6M1048.1 1398.74L886.002 1501.3M1064.76 1434.6L1083.07 1470.32M1064.76 1434.6L902.016 1507.49M1083.07 1470.32L939.27 1510.97M939.27 1510.97L902.016 1507.49M939.27 1510.97L1076.08 1523.64M1076.08 1523.64L1135.17 1668.68C1137.49 1674.38 1136.28 1680.9 1132.07 1685.38L1105.54 1713.61M1076.08 1523.64L1045.97 1596.7M1105.54 1713.61L1093.81 1726.41M1105.54 1713.61L1045.97 1596.7M1093.81 1726.41L1068.66 1747.9C1064.43 1751.5 1058.62 1752.62 1053.37 1750.82L908.915 1701.55M1093.81 1726.41L978.252 1655.79M908.915 1701.55L978.252 1655.79M908.915 1701.55L883.981 1610.83M978.252 1655.79L1011.1 1627.08M978.252 1655.79L893.946 1549.69M1011.1 1627.08L1045.97 1596.7M883.981 1610.83L893.946 1549.69M883.981 1610.83L875.478 1665.94M893.946 1549.69L877.942 1529.55M875.478 1665.94L721.836 1745.92C717.527 1748.16 712.424 1748.29 708.01 1746.26L672.787 1730.07M875.478 1665.94L790.237 1639.35M672.787 1730.07L660.144 1722.15M672.787 1730.07L790.237 1639.35M660.144 1722.15L631.161 1702C626.29 1698.62 623.739 1692.78 624.564 1686.91L644.02 1548.36M660.144 1722.15L710.738 1597.96M644.02 1548.36L803.491 1520.13M644.02 1548.36L710.738 1597.96M803.491 1520.13L846.744 1524.14M803.491 1520.13L647.043 1491.38M846.744 1524.14L869.971 1521.77M846.744 1524.14L710.738 1597.96M647.043 1491.38L576.752 1426.69C570.652 1421.07 569.959 1411.69 575.168 1405.24L585.942 1391.9M647.043 1491.38L679.503 1444.24M585.942 1391.9L595.619 1376.44M585.942 1391.9L679.503 1444.24M595.619 1376.44L603.003 1364.02C605.261 1360.22 609.014 1357.55 613.342 1356.66L739.962 1330.53M595.619 1376.44L712.133 1385.27M739.962 1330.53L822.845 1426.93M739.962 1330.53L712.133 1385.27M822.845 1426.93L842.36 1474M712.133 1385.27L697.578 1411.94M712.133 1385.27L842.36 1474M697.578 1411.94L679.503 1444.24M697.578 1411.94L855.037 1504.58M855.037 1504.58L842.36 1474M710.738 1597.96L746.178 1616.41M790.237 1639.35L877.942 1529.55M790.237 1639.35L746.178 1616.41" stroke="url(#paint3_linear_402_379)" stroke-width="8"/>
<path d="M594.771 8260.32L655.616 8211.76C659.415 8208.73 664.404 8207.63 669.128 8208.77L697.807 8215.72M594.771 8260.32L672.71 8279.21M594.771 8260.32L646.845 8385.93M697.807 8215.72L672.71 8279.21M697.807 8215.72L710.526 8216.65M672.71 8279.21L697.696 8483.2M672.71 8279.21L712.15 8283.38M683.262 8473.77L693.971 8480.77M683.262 8473.77L503.503 8403.24M683.262 8473.77L679.037 8463.58M697.696 8483.2L712.15 8283.38M697.696 8483.2L706.664 8475.13M697.696 8483.2L693.971 8480.77M697.696 8483.2L701.942 8488.55M697.696 8483.2L570.178 8575.41M712.15 8283.38L748.673 8288.46M706.664 8475.13L708.966 8464.9M706.664 8475.13L835.099 8586.08M748.673 8288.46L710.526 8216.65M748.673 8288.46L816.808 8287.71M748.673 8288.46L715.641 8435.24M710.526 8216.65L738.999 8219.89C742.323 8220.27 745.44 8221.7 747.896 8223.97L816.808 8287.71M816.808 8287.71L790.893 8343.45M790.893 8343.45L715.641 8435.24M790.893 8343.45L841.305 8282.32M715.641 8435.24L710.002 8460.3M841.305 8282.32L953.04 8326.3C956.848 8327.8 959.922 8330.73 961.608 8334.46L972.672 8358.93M841.305 8282.32L872.105 8357.74M972.672 8358.93L980.406 8373.75M972.672 8358.93L872.105 8357.74M980.406 8373.75L992.856 8394.16C996.083 8399.45 995.901 8406.14 992.391 8411.25L940.663 8486.54M980.406 8373.75L907.071 8429.32M940.663 8486.54L907.071 8429.32M940.663 8486.54L900.081 8482.64M708.966 8464.9L726.016 8466.49M708.966 8464.9L710.002 8460.3M708.966 8464.9L869.968 8555.7M872.105 8357.74L888.762 8393.6M872.105 8357.74L710.002 8460.3M888.762 8393.6L907.071 8429.32M888.762 8393.6L726.016 8466.49M907.071 8429.32L763.27 8469.97M763.27 8469.97L726.016 8466.49M763.27 8469.97L900.081 8482.64M900.081 8482.64L959.169 8627.68C961.489 8633.38 960.276 8639.9 956.066 8644.38L929.543 8672.61M900.081 8482.64L869.968 8555.7M929.543 8672.61L917.812 8685.41M929.543 8672.61L869.968 8555.7M917.812 8685.41L892.656 8706.9C888.433 8710.5 882.622 8711.62 877.366 8709.82L732.915 8660.55M917.812 8685.41L802.252 8614.79M732.915 8660.55L802.252 8614.79M732.915 8660.55L707.981 8569.83M802.252 8614.79L835.099 8586.08M802.252 8614.79L717.946 8508.69M835.099 8586.08L869.968 8555.7M707.981 8569.83L717.946 8508.69M707.981 8569.83L699.478 8624.94M717.946 8508.69L701.942 8488.55M699.478 8624.94L545.836 8704.92C541.527 8707.16 536.424 8707.29 532.01 8705.26L496.787 8689.07M699.478 8624.94L614.237 8598.35M496.787 8689.07L484.144 8681.15M496.787 8689.07L614.237 8598.35M484.144 8681.15L455.161 8661C450.29 8657.62 447.739 8651.78 448.564 8645.91L468.02 8507.36M484.144 8681.15L534.738 8556.96M468.02 8507.36L627.491 8479.13M468.02 8507.36L534.738 8556.96M627.491 8479.13L670.744 8483.14M627.491 8479.13L471.043 8450.38M670.744 8483.14L693.971 8480.77M670.744 8483.14L534.738 8556.96M471.043 8450.38L400.752 8385.69C394.652 8380.07 393.959 8370.69 399.168 8364.24L409.942 8350.9M471.043 8450.38L503.503 8403.24M409.942 8350.9L419.619 8335.44M409.942 8350.9L503.503 8403.24M419.619 8335.44L427.003 8323.02C429.261 8319.22 433.014 8316.55 437.342 8315.66L563.962 8289.53M419.619 8335.44L536.133 8344.27M563.962 8289.53L646.845 8385.93M563.962 8289.53L536.133 8344.27M646.845 8385.93L666.36 8433M536.133 8344.27L521.578 8370.94M536.133 8344.27L666.36 8433M521.578 8370.94L503.503 8403.24M521.578 8370.94L679.037 8463.58M679.037 8463.58L666.36 8433M534.738 8556.96L570.178 8575.41M614.237 8598.35L701.942 8488.55M614.237 8598.35L570.178 8575.41" stroke="url(#paint4_linear_402_379)" stroke-width="8"/>
<g filter="url(#filter3_d_402_379)">
<path d="M721.743 1198.39C654.863 1205.08 599.795 1163.52 552.013 1137.72C471.381 1094.19 413.881 1059.67 439.444 926.106C447.02 886.457 464.826 850.864 493.271 825.204C520.944 800.242 554.496 790.019 598.047 783.038C691.183 768.109 752.743 803.257 826.133 862.513C867.515 895.925 896.322 925.584 913.897 966.66C931.821 1008.55 944.934 1047.62 924.568 1092.57C891.412 1165.74 801.679 1190.38 721.743 1198.39Z" fill="url(#paint5_radial_402_379)" fill-opacity="0.75" shape-rendering="crispEdges"/>
</g>
<g filter="url(#filter4_d_402_379)">
<path fill-rule="evenodd" clip-rule="evenodd" d="M-378.337 4219.08C-481.29 4156.87 -524.445 4045.82 -596.644 3955.35C-670.903 3862.3 -782.137 3784.13 -810.139 3678C-838.935 3568.87 -806.224 3460.78 -750.34 3372.86C-696.272 3287.8 -599.525 3237.22 -501.548 3192.51C-406.864 3149.31 -306.216 3108.38 -191.707 3117.99C-79.425 3127.41 21.6579 3195.7 127.321 3245.28C238.365 3297.39 374.038 3323.92 445.755 3417.11C517.491 3510.34 492.584 3623.26 498.817 3728.05C504.655 3826.19 518.916 3926.27 481.162 4012.34C442.353 4100.82 371.312 4171.72 282.432 4221.37C191.989 4271.88 84.5085 4298.19 -29.92 4297.8C-147.018 4297.39 -273.121 4282.66 -378.337 4219.08ZM547.559 3729.16C545.711 3727.49 543.376 3726.45 540.895 3726.19L519.949 3724.02L554.022 3786.62L609.662 3785.45L547.559 3729.16ZM613.536 3793.38L554.92 3794.61L527.574 3922.12L591.011 3843.13L613.536 3793.38ZM610.988 3818.4L623.441 3790.89L624.644 3788.24L622.484 3786.28L552.932 3723.24C549.822 3720.42 545.895 3718.67 541.72 3718.23L513.216 3715.28L513.135 3715.27L513.053 3715.26L500.656 3714.49L472.231 3707.9C466.291 3706.52 460.047 3707.97 455.32 3711.82L394.969 3760.99L392.635 3762.9L393.816 3765.66L437.342 3867.73L369.989 3790.97L368.436 3789.2L366.134 3789.7L239.784 3817.11C234.366 3818.28 229.693 3821.68 226.909 3826.48L219.675 3838.93L210.303 3854.24L199.813 3867.5C193.361 3875.65 194.35 3887.42 202.072 3894.38L273.012 3958.36L273.87 3959.14L275.008 3959.33L409.889 3982.72L272.507 4008.46L269.652 4009L269.277 4011.88L251.22 4150.62C250.26 4158 253.533 4165.29 259.685 4169.47L288.87 4189.33L288.95 4189.38L289.031 4189.43L301.753 4197.22L301.973 4197.36L302.209 4197.46L337.593 4213.29C343.155 4215.78 349.555 4215.56 354.932 4212.69L507.758 4131.17L509.546 4130.21L509.835 4128.21L515.115 4091.53L535.824 4164.01L536.406 4166.04L538.417 4166.71L683.358 4214.52C689.973 4216.7 697.249 4215.23 702.5 4210.66L727.437 4188.91L727.621 4188.75L727.784 4188.57L739.352 4175.69L739.386 4175.66L765.589 4147.2C770.814 4141.53 772.252 4133.33 769.27 4126.21L711.278 3987.87L745.31 3990.8L747.657 3991L748.972 3989.04L799.938 3913.24C804.275 3906.79 804.418 3898.39 800.304 3891.79L787.72 3871.62L779.952 3857.09L768.689 3832.84C766.527 3828.18 762.634 3824.55 757.838 3822.72L645.666 3779.87L642.953 3778.83L641.127 3781.09L610.988 3818.4ZM770.099 3854.87L761.434 3836.21C760.148 3833.44 757.834 3831.28 754.984 3830.2L651.55 3790.68L678.457 3854.72L770.099 3854.87ZM674.147 3864.54L520.329 3964.04L530.097 3964.86L687.46 3892.46L674.147 3864.54ZM691.04 3899.62L546.306 3966.21L567.689 3967.99L705.672 3927.47L691.04 3899.62ZM716.744 3930.92L745.842 3979.36L793.298 3908.77C795.877 3904.94 795.962 3899.95 793.517 3896.03L783.203 3879.49L716.744 3930.92ZM779.133 3872.53L773.973 3862.88L682.141 3862.72L696.393 3892.61L712.808 3923.85L779.133 3872.53ZM738.189 3982.15L709.647 3934.64L589.861 3969.81L705.361 3979.33L705.368 3979.33L705.376 3979.33L738.189 3982.15ZM520.674 3954.29L670.812 3857.17L643.144 3791.33L597.565 3847.75L597.558 3847.76L523.836 3939.55L520.674 3954.29ZM516.531 3973.61L515.963 3976.26L641.033 4082.11L668.77 4057.45L516.531 3973.61ZM673.627 4050.99L699.306 3986.86L567.772 3976.02L567.769 3976.02L532.102 3973.05L673.627 4050.99ZM705.118 3993.87L680.056 4056.46L737.321 4166.09L759.704 4141.78C762.81 4138.41 763.665 4133.53 761.892 4129.31L705.118 3993.87ZM731.579 4172.38L674.486 4063.07L643.761 4090.39L643.756 4090.4L615.27 4115.81L724.033 4180.78L731.579 4172.38ZM718.025 4186.51L608.673 4121.19L548.667 4161.66L685.864 4206.92C689.796 4208.22 694.121 4207.35 697.242 4204.63L718.025 4186.51ZM542.002 4156.51L517.908 4072.19L525.76 4020.75L602.684 4115.58L542.002 4156.51ZM609.008 4110.68L526.276 4008.69L510.07 3988.71L508.139 3986.33L511.658 3983.09L635 4087.49L609.008 4110.68ZM507.906 3975.68L509.837 3966.67L510.827 3962.06L516.213 3936.94L546.85 3794.09L518.828 3790.48L507.272 3976.26L507.906 3975.68ZM501.222 3944.67L510.868 3789.58L480.248 3786.66L501.222 3944.67ZM481.241 3778.72L502.757 3722.63L510.347 3723.11L544.415 3785.71L515.611 3782L515.546 3781.99L515.481 3781.98L481.241 3778.72ZM494.694 3721.32L470.425 3715.69C466.894 3714.88 463.183 3715.74 460.373 3718.03L406.349 3762.04L473.133 3777.52L494.694 3721.32ZM404.264 3769.77L472.02 3785.47L497.566 3977.92L491.331 3973.94L487.487 3964.92L474.502 3934.47L454.513 3887.6L404.264 3769.77ZM475.44 3957.07L467.611 3938.71L341.162 3854.41L330.773 3873.91L475.44 3957.07ZM321.912 3873.53L333.265 3852.21L225.26 3845.13L219.195 3855.03L306.082 3902.5L321.891 3873.57L321.912 3873.53ZM309.218 3912.79L282.459 3952.51L432.929 3978.59L475.653 3982.12L487.241 3980.82L486.328 3980.23L309.218 3912.79ZM492.794 3988.24L476.956 3990.02L348.979 4061.17L375.692 4074.73L492.794 3988.24ZM383.672 4078.78L419.248 4096.85L501.426 3991.81L383.672 4078.78ZM507.02 3997.65L427.127 4099.76L502.579 4122.47L509.863 4071.88L509.865 4071.86L509.868 4071.84L518.949 4012.35L507.02 3997.65ZM495.436 4128.67L421.213 4106.34L311.509 4192.86L340.86 4205.99C344.166 4207.47 347.97 4207.34 351.166 4205.63L495.436 4128.67ZM303.554 4188.94L412.981 4102.64L374.271 4082.98L342.563 4066.88L296.077 4184.36L303.554 4188.94ZM289.239 4179.9L335.599 4062.74L276.34 4019.6L259.153 4151.65C258.582 4156.04 260.528 4160.37 264.185 4162.86L289.239 4179.9ZM283.094 4014.62L340.748 4056.59L462.259 3989.04L432.629 3986.59L283.094 4014.62ZM274.949 3949.34L301.904 3909.33L214.632 3861.66L206.088 3872.46C202.252 3877.31 202.84 3884.3 207.43 3888.44L274.949 3949.34ZM313.384 3905.82L480.765 3969.55L480.653 3969.29L326.972 3880.95L313.384 3905.82ZM229.809 3837.41L337.308 3844.46L359.706 3799.28L241.48 3824.92C238.26 3825.62 235.482 3827.64 233.827 3830.49L229.809 3837.41ZM367.914 3800.74L344.854 3847.25L461.882 3925.27L447.405 3891.33L367.914 3800.74Z" fill="url(#paint6_radial_402_379)"/>
<path fill-rule="evenodd" clip-rule="evenodd" d="M-378.337 4219.08C-481.29 4156.87 -524.445 4045.82 -596.644 3955.35C-670.903 3862.3 -782.137 3784.13 -810.139 3678C-838.935 3568.87 -806.224 3460.78 -750.34 3372.86C-696.272 3287.8 -599.525 3237.22 -501.548 3192.51C-406.864 3149.31 -306.216 3108.38 -191.707 3117.99C-79.425 3127.41 21.6579 3195.7 127.321 3245.28C238.365 3297.39 374.038 3323.92 445.755 3417.11C517.491 3510.34 492.584 3623.26 498.817 3728.05C504.655 3826.19 518.916 3926.27 481.162 4012.34C442.353 4100.82 371.312 4171.72 282.432 4221.37C191.989 4271.88 84.5085 4298.19 -29.92 4297.8C-147.018 4297.39 -273.121 4282.66 -378.337 4219.08ZM547.559 3729.16C545.711 3727.49 543.376 3726.45 540.895 3726.19L519.949 3724.02L554.022 3786.62L609.662 3785.45L547.559 3729.16ZM613.536 3793.38L554.92 3794.61L527.574 3922.12L591.011 3843.13L613.536 3793.38ZM610.988 3818.4L623.441 3790.89L624.644 3788.24L622.484 3786.28L552.932 3723.24C549.822 3720.42 545.895 3718.67 541.72 3718.23L513.216 3715.28L513.135 3715.27L513.053 3715.26L500.656 3714.49L472.231 3707.9C466.291 3706.52 460.047 3707.97 455.32 3711.82L394.969 3760.99L392.635 3762.9L393.816 3765.66L437.342 3867.73L369.989 3790.97L368.436 3789.2L366.134 3789.7L239.784 3817.11C234.366 3818.28 229.693 3821.68 226.909 3826.48L219.675 3838.93L210.303 3854.24L199.813 3867.5C193.361 3875.65 194.35 3887.42 202.072 3894.38L273.012 3958.36L273.87 3959.14L275.008 3959.33L409.889 3982.72L272.507 4008.46L269.652 4009L269.277 4011.88L251.22 4150.62C250.26 4158 253.533 4165.29 259.685 4169.47L288.87 4189.33L288.95 4189.38L289.031 4189.43L301.753 4197.22L301.973 4197.36L302.209 4197.46L337.593 4213.29C343.155 4215.78 349.555 4215.56 354.932 4212.69L507.758 4131.17L509.546 4130.21L509.835 4128.21L515.115 4091.53L535.824 4164.01L536.406 4166.04L538.417 4166.71L683.358 4214.52C689.973 4216.7 697.249 4215.23 702.5 4210.66L727.437 4188.91L727.621 4188.75L727.784 4188.57L739.352 4175.69L739.386 4175.66L765.589 4147.2C770.814 4141.53 772.252 4133.33 769.27 4126.21L711.278 3987.87L745.31 3990.8L747.657 3991L748.972 3989.04L799.938 3913.24C804.275 3906.79 804.418 3898.39 800.304 3891.79L787.72 3871.62L779.952 3857.09L768.689 3832.84C766.527 3828.18 762.634 3824.55 757.838 3822.72L645.666 3779.87L642.953 3778.83L641.127 3781.09L610.988 3818.4ZM770.099 3854.87L761.434 3836.21C760.148 3833.44 757.834 3831.28 754.984 3830.2L651.55 3790.68L678.457 3854.72L770.099 3854.87ZM674.147 3864.54L520.329 3964.04L530.097 3964.86L687.46 3892.46L674.147 3864.54ZM691.04 3899.62L546.306 3966.21L567.689 3967.99L705.672 3927.47L691.04 3899.62ZM716.744 3930.92L745.842 3979.36L793.298 3908.77C795.877 3904.94 795.962 3899.95 793.517 3896.03L783.203 3879.49L716.744 3930.92ZM779.133 3872.53L773.973 3862.88L682.141 3862.72L696.393 3892.61L712.808 3923.85L779.133 3872.53ZM738.189 3982.15L709.647 3934.64L589.861 3969.81L705.361 3979.33L705.368 3979.33L705.376 3979.33L738.189 3982.15ZM520.674 3954.29L670.812 3857.17L643.144 3791.33L597.565 3847.75L597.558 3847.76L523.836 3939.55L520.674 3954.29ZM516.531 3973.61L515.963 3976.26L641.033 4082.11L668.77 4057.45L516.531 3973.61ZM673.627 4050.99L699.306 3986.86L567.772 3976.02L567.769 3976.02L532.102 3973.05L673.627 4050.99ZM705.118 3993.87L680.056 4056.46L737.321 4166.09L759.704 4141.78C762.81 4138.41 763.665 4133.53 761.892 4129.31L705.118 3993.87ZM731.579 4172.38L674.486 4063.07L643.761 4090.39L643.756 4090.4L615.27 4115.81L724.033 4180.78L731.579 4172.38ZM718.025 4186.51L608.673 4121.19L548.667 4161.66L685.864 4206.92C689.796 4208.22 694.121 4207.35 697.242 4204.63L718.025 4186.51ZM542.002 4156.51L517.908 4072.19L525.76 4020.75L602.684 4115.58L542.002 4156.51ZM609.008 4110.68L526.276 4008.69L510.07 3988.71L508.139 3986.33L511.658 3983.09L635 4087.49L609.008 4110.68ZM507.906 3975.68L509.837 3966.67L510.827 3962.06L516.213 3936.94L546.85 3794.09L518.828 3790.48L507.272 3976.26L507.906 3975.68ZM501.222 3944.67L510.868 3789.58L480.248 3786.66L501.222 3944.67ZM481.241 3778.72L502.757 3722.63L510.347 3723.11L544.415 3785.71L515.611 3782L515.546 3781.99L515.481 3781.98L481.241 3778.72ZM494.694 3721.32L470.425 3715.69C466.894 3714.88 463.183 3715.74 460.373 3718.03L406.349 3762.04L473.133 3777.52L494.694 3721.32ZM404.264 3769.77L472.02 3785.47L497.566 3977.92L491.331 3973.94L487.487 3964.92L474.502 3934.47L454.513 3887.6L404.264 3769.77ZM475.44 3957.07L467.611 3938.71L341.162 3854.41L330.773 3873.91L475.44 3957.07ZM321.912 3873.53L333.265 3852.21L225.26 3845.13L219.195 3855.03L306.082 3902.5L321.891 3873.57L321.912 3873.53ZM309.218 3912.79L282.459 3952.51L432.929 3978.59L475.653 3982.12L487.241 3980.82L486.328 3980.23L309.218 3912.79ZM492.794 3988.24L476.956 3990.02L348.979 4061.17L375.692 4074.73L492.794 3988.24ZM383.672 4078.78L419.248 4096.85L501.426 3991.81L383.672 4078.78ZM507.02 3997.65L427.127 4099.76L502.579 4122.47L509.863 4071.88L509.865 4071.86L509.868 4071.84L518.949 4012.35L507.02 3997.65ZM495.436 4128.67L421.213 4106.34L311.509 4192.86L340.86 4205.99C344.166 4207.47 347.97 4207.34 351.166 4205.63L495.436 4128.67ZM303.554 4188.94L412.981 4102.64L374.271 4082.98L342.563 4066.88L296.077 4184.36L303.554 4188.94ZM289.239 4179.9L335.599 4062.74L276.34 4019.6L259.153 4151.65C258.582 4156.04 260.528 4160.37 264.185 4162.86L289.239 4179.9ZM283.094 4014.62L340.748 4056.59L462.259 3989.04L432.629 3986.59L283.094 4014.62ZM274.949 3949.34L301.904 3909.33L214.632 3861.66L206.088 3872.46C202.252 3877.31 202.84 3884.3 207.43 3888.44L274.949 3949.34ZM313.384 3905.82L480.765 3969.55L480.653 3969.29L326.972 3880.95L313.384 3905.82ZM229.809 3837.41L337.308 3844.46L359.706 3799.28L241.48 3824.92C238.26 3825.62 235.482 3827.64 233.827 3830.49L229.809 3837.41ZM367.914 3800.74L344.854 3847.25L461.882 3925.27L447.405 3891.33L367.914 3800.74Z" fill="white" fill-opacity="0.2"/>
</g>
<g filter="url(#filter5_d_402_379)">
<path d="M448.117 3035.78C375.402 3019.35 329.4 2955.28 286.462 2910.71C214.001 2835.49 163.352 2778.12 229.746 2643.73C249.442 2603.84 278.764 2571.91 316.413 2554.4C353.039 2537.37 391.541 2538.24 439.663 2546.13C542.577 2562.99 597.335 2622.46 657.502 2712.01C691.429 2762.5 713.159 2804.51 719.646 2854.82C726.262 2906.13 728.62 2952.71 693.834 2993.78C637.202 3060.64 535.027 3055.41 448.117 3035.78Z" fill="url(#paint7_radial_402_379)" fill-opacity="0.75" shape-rendering="crispEdges"/>
</g>
<g filter="url(#filter6_d_402_379)">
<path fill-rule="evenodd" clip-rule="evenodd" d="M445.983 9798.61C405.445 9873.75 328.212 9908.19 266.574 9962.51C203.177 10018.4 151.607 10099.9 77.3402 10123.5C0.971074 10147.7 -76.7896 10128.2 -141.053 10091.6C-203.229 10056.3 -242.442 9989.42 -277.526 9921.51C-311.43 9855.88 -343.934 9785.94 -341.087 9704.43C-338.296 9624.5 -293.383 9550.47 -261.891 9473.85C-228.795 9393.32 -214.686 9296.22 -151.098 9242.15C-87.4933 9188.06 -6.57352 9201.81 67.4962 9193.77C136.872 9186.23 207.326 9172.65 269.653 9196.44C333.722 9220.89 386.451 9268.8 424.723 9330.09C463.667 9392.46 486.042 9467.74 489.724 9548.88C493.492 9631.91 487.412 9721.82 445.983 9798.61Z" fill="url(#paint8_linear_402_379)" fill-opacity="0.8" shape-rendering="crispEdges"/>
</g>
<path d="M897.238 3037.73L928.904 2987.81C930.881 2984.7 934.189 2982.67 937.864 2982.32L960.171 2980.22M897.238 3037.73L957.862 3032.01M897.238 3037.73L965.696 3115.01M960.171 2980.22L957.862 3032.01M960.171 2980.22L969.531 2977.74M957.862 3032.01L1026.27 3172.27M957.862 3032.01L987.206 3025.24M1013.57 3169.07L1022.99 3171.44M1013.57 3169.07L867.075 3162.9M1013.57 3169.07L1008.02 3162.79M1026.27 3172.27L987.206 3025.24M1026.27 3172.27L1030.71 3164.25M1026.27 3172.27L1022.99 3171.44M1026.27 3172.27L1030.64 3175.05M1026.27 3172.27L957.535 3270.01M987.206 3025.24L1014.68 3019.85M1030.71 3164.25L1029.83 3156.34M1030.71 3164.25L1150.36 3212.13M1014.68 3019.85L969.531 2977.74M1014.68 3019.85L1063.41 3002.46M1014.68 3019.85L1027.28 3133.39M969.531 2977.74L990.774 2973.02C993.254 2972.47 995.845 2972.72 998.171 2973.75L1063.41 3002.46M1063.41 3002.46L1058.6 3048.88M1058.6 3048.88L1027.28 3133.39M1058.6 3048.88L1079.66 2992.53M1027.28 3133.39L1029.43 3152.78M1079.66 2992.53L1170.76 2996.46C1173.86 2996.59 1176.79 2997.93 1178.92 3000.19L1192.92 3015.02M1079.66 2992.53L1120.43 3039.05M1192.92 3015.02L1202.14 3023.75M1192.92 3015.02L1120.43 3039.05M1202.14 3023.75L1216.13 3035.32C1219.75 3038.32 1221.28 3043.17 1220.02 3047.71L1201.51 3114.55M1202.14 3023.75L1163.24 3081.78M1201.51 3114.55L1163.24 3081.78M1201.51 3114.55L1171.41 3121.79M1029.83 3156.34L1042.46 3153.26M1029.83 3156.34L1029.43 3152.78M1029.83 3156.34L1167.87 3181.69M1120.43 3039.05L1141.26 3060.67M1120.43 3039.05L1029.43 3152.78M1141.26 3060.67L1163.24 3081.78M1141.26 3060.67L1042.46 3153.26M1163.24 3081.78L1070.07 3146.54M1070.07 3146.54L1042.46 3153.26M1070.07 3146.54L1171.41 3121.79M1171.41 3121.79L1249.72 3211.3C1252.79 3214.81 1253.53 3219.79 1251.62 3224.05L1239.56 3250.88M1171.41 3121.79L1167.87 3181.69M1239.56 3250.88L1234.31 3262.97M1239.56 3250.88L1167.87 3181.69M1234.31 3262.97L1221.57 3284.62C1219.43 3288.25 1215.53 3290.49 1211.31 3290.5L1095.42 3290.87M1234.31 3262.97L1133.88 3240.86M1095.42 3290.87L1133.88 3240.86M1095.42 3290.87L1055.08 3231.91M1133.88 3240.86L1150.36 3212.13M1133.88 3240.86L1047.11 3185.55M1150.36 3212.13L1167.87 3181.69M1055.08 3231.91L1047.11 3185.55M1055.08 3231.91L1062.61 3273.57M1047.11 3185.55L1030.64 3175.05M1062.61 3273.57L972.1 3369C969.562 3371.68 965.929 3373.03 962.258 3372.66L932.968 3369.76M1062.61 3273.57L994.839 3275.57M932.968 3369.76L921.933 3367.2M932.968 3369.76L994.839 3275.57M921.933 3367.2L896.142 3359.91C891.808 3358.68 888.532 3355.12 887.671 3350.7L867.361 3246.43M921.933 3367.2L927.53 3265.53M867.361 3246.43L974.86 3186.71M867.361 3246.43L927.53 3265.53M974.86 3186.71L1006.9 3178.89M974.86 3186.71L855.436 3204.78M1006.9 3178.89L1022.99 3171.44M1006.9 3178.89L927.53 3265.53M855.436 3204.78L788.97 3175.72C783.202 3173.2 780.382 3166.64 782.526 3160.72L786.96 3148.47M855.436 3204.78L867.075 3162.9M786.96 3148.47L790.084 3134.99M786.96 3148.47L867.075 3162.9M790.084 3134.99L792.312 3124.24C792.993 3120.96 795.025 3118.11 797.912 3116.4L882.346 3066.32M790.084 3134.99L875.91 3112.5M882.346 3066.32L965.696 3115.01M882.346 3066.32L875.91 3112.5M965.696 3115.01L991.35 3143.98M875.91 3112.5L872.061 3135.25M875.91 3112.5L991.35 3143.98M872.061 3135.25L867.075 3162.9M872.061 3135.25L1008.02 3162.79M1008.02 3162.79L991.35 3143.98M927.53 3265.53L957.535 3270.01M994.839 3275.57L1030.64 3175.05M994.839 3275.57L957.535 3270.01" stroke="url(#paint9_linear_402_379)" stroke-width="6.07453"/>
<path d="M-91.2521 7972.98L-206.754 7957.07C-213.967 7956.08 -220.314 7951.81 -223.948 7945.5L-246.007 7907.2M-91.2521 7972.98L-151.2 7868.9M-91.2521 7972.98L-8.69097 7786.82M-246.007 7907.2L-151.2 7868.9M-246.007 7907.2L-258.132 7892.44M-151.2 7868.9L44.3844 7631.23M-151.2 7868.9L-187.389 7821.8M49.0479 7656.62L45.5878 7637.78M49.0479 7656.62L158.049 7924.51M49.0479 7656.62L42.3481 7671.73M44.3844 7631.23L-187.389 7821.8M44.3844 7631.23L26.3658 7629.83M44.3844 7631.23L45.5878 7637.78M44.3844 7631.23L45.8009 7621.1M44.3844 7631.23L276.077 7674.43M-187.389 7821.8L-219.579 7776.92M26.3658 7629.83L12.8893 7637.89M26.3658 7629.83L14.2006 7375.92M-219.579 7776.92L-258.132 7892.44M-219.579 7776.92L-290.716 7703.75M-219.579 7776.92L-26.1922 7661.26M-258.132 7892.44L-284.001 7858.19C-287.021 7854.19 -288.688 7849.34 -288.757 7844.33L-290.716 7703.75M-290.716 7703.75L-203.474 7674.33M-203.474 7674.33L-26.1922 7661.26M-203.474 7674.33L-321.85 7682.72M-26.1922 7661.26L6.82496 7641.51M-321.85 7682.72L-389.453 7516.07C-391.757 7510.39 -391.755 7504.04 -389.449 7498.36L-374.314 7461.09M-321.85 7682.72L-271.792 7571.45M-374.314 7461.09L-366.216 7437.4M-374.314 7461.09L-271.792 7571.45M-366.216 7437.4L-356.911 7402.82C-354.499 7393.86 -347.048 7387.14 -337.883 7385.68L-202.785 7364.11M-366.216 7437.4L-230.208 7459.62M-202.785 7364.11L-230.208 7459.62M-202.785 7364.11L-165.132 7412.18M12.8893 7637.89L-2.9814 7617.74M12.8893 7637.89L6.82496 7641.51M12.8893 7637.89L-54.761 7369.44M-271.792 7571.45L-250.073 7516.36M-271.792 7571.45L6.82496 7641.51M-250.073 7516.36L-230.208 7459.62M-250.073 7516.36L-2.9814 7617.74M-230.208 7459.62L-37.6592 7573.72M-37.6592 7573.72L-2.9814 7617.74M-37.6592 7573.72L-165.132 7412.18M-165.132 7412.18L-68.7151 7198.34C-64.9297 7189.94 -56.5981 7184.52 -47.3889 7184.47L10.6221 7184.11M-165.132 7412.18L-54.761 7369.44M10.6221 7184.11L36.6188 7183.63M10.6221 7184.11L-54.761 7369.44M36.6188 7183.63L85.9057 7188.75C94.1785 7189.61 101.385 7194.77 104.864 7202.32L200.492 7409.95M36.6188 7183.63L79.2656 7381.93M200.492 7409.95L79.2656 7381.93M200.492 7409.95L127.78 7530.65M79.2656 7381.93L14.2006 7375.92M79.2656 7381.93L51.14 7582.94M14.2006 7375.92L-54.761 7369.44M127.78 7530.65L51.14 7582.94M127.78 7530.65L196.361 7482.99M51.14 7582.94L45.8009 7621.1M196.361 7482.99L441.745 7567.17C448.627 7569.54 454.031 7574.94 456.386 7581.83L475.177 7636.76M196.361 7482.99L255.487 7602.95M475.177 7636.76L479.634 7658.65M475.177 7636.76L255.487 7602.95M479.634 7658.65L487.685 7710.91C489.038 7719.69 485.335 7728.48 478.109 7733.65L307.668 7855.55M479.634 7658.65L292.638 7731.93M307.668 7855.55L112.431 7711.62M307.668 7855.55L292.638 7731.93M112.431 7711.62L72.1384 7660.54M112.431 7711.62L242.716 7911.08M72.1384 7660.54L45.5878 7637.78M72.1384 7660.54L292.638 7731.93M242.716 7911.08L245.062 8054.13C245.266 8066.55 235.796 8076.99 223.42 8077.99L197.823 8080.07M242.716 7911.08L158.049 7924.51M197.823 8080.07L171.064 8085.52M197.823 8080.07L158.049 7924.51M171.064 8085.52L149.963 8090.33C143.509 8091.8 136.734 8090.49 131.297 8086.71L-27.7544 7976.27M171.064 8085.52L60.3745 7949.97M-27.7544 7976.27L-8.69097 7786.82M-27.7544 7976.27L60.3745 7949.97M-8.69097 7786.82L22.249 7717.05M60.3745 7949.97L104.346 7938.23M60.3745 7949.97L22.249 7717.05M104.346 7938.23L158.049 7924.51M104.346 7938.23L42.3481 7671.73M42.3481 7671.73L22.249 7717.05M292.638 7731.93L276.077 7674.43M255.487 7602.95L45.8009 7621.1M255.487 7602.95L276.077 7674.43" stroke="url(#paint10_radial_402_379)" stroke-width="12.5807"/>
<path d="M1148.46 5205.76L1190.67 5314.44C1193.31 5321.23 1192.65 5328.85 1188.9 5335.09L1166.15 5372.98M1148.46 5205.76L1086.61 5308.72M1148.46 5205.76L945.633 5224.03M1166.15 5372.98L1086.61 5308.72M1166.15 5372.98L1159.14 5390.75M1086.61 5308.72L783.853 5253.23M1086.61 5308.72L1063.02 5363.23M803.787 5236.82L788.997 5249M803.787 5236.82L984.981 5011.4M803.787 5236.82L820.246 5235.33M783.853 5253.23L1063.02 5363.23M783.853 5253.23L791.384 5269.66M783.853 5253.23L788.997 5249M783.853 5253.23L774.316 5256.91M783.853 5253.23L709.059 5029.73M1063.02 5363.23L1039.44 5413.17M791.384 5269.66L804.976 5277.52M791.384 5269.66L575.366 5403.64M1039.44 5413.17L1159.14 5390.75M1039.44 5413.17L1010.04 5510.9M1039.44 5413.17L844.393 5300.33M1159.14 5390.75L1141.77 5430C1139.74 5434.58 1136.31 5438.4 1131.96 5440.89L1010.04 5510.9M1010.04 5510.9L941.946 5448.93M941.946 5448.93L844.393 5300.33M941.946 5448.93L1006.79 5548.32M844.393 5300.33L811.092 5281.06M1006.79 5548.32L893.965 5688.38C890.12 5693.15 884.564 5696.24 878.479 5696.98L838.555 5701.85M1006.79 5548.32L885.211 5558.63M838.555 5701.85L813.915 5706.28M838.555 5701.85L885.211 5558.63M813.915 5706.28L779.166 5714.95C770.16 5717.2 760.675 5713.95 754.943 5706.65L670.452 5599.04M813.915 5706.28L767.264 5576.61M670.452 5599.04L767.264 5576.61M670.452 5599.04L694.176 5542.78M804.976 5277.52L795.077 5301.18M804.976 5277.52L811.092 5281.06M804.976 5277.52L603.203 5467.07M885.211 5558.63L826.507 5566.41M885.211 5558.63L811.092 5281.06M826.507 5566.41L767.264 5576.61M826.507 5566.41L795.077 5301.18M767.264 5576.61L773.447 5352.88M773.447 5352.88L795.077 5301.18M773.447 5352.88L694.176 5542.78M694.176 5542.78L460.426 5562.39C451.249 5563.16 442.465 5558.51 437.942 5550.49L409.451 5499.96M694.176 5542.78L603.203 5467.07M409.451 5499.96L396.403 5477.47M409.451 5499.96L603.203 5467.07M396.403 5477.47L376.932 5431.9C373.664 5424.25 374.672 5415.45 379.585 5408.74L514.604 5224.28M396.403 5477.47L549.009 5343.85M514.604 5224.28L549.009 5343.85M514.604 5224.28L655.426 5229.2M549.009 5343.85L575.366 5403.64M549.009 5343.85L738.369 5270.78M575.366 5403.64L603.203 5467.07M655.426 5229.2L738.369 5270.78M655.426 5229.2L580.455 5192.41M738.369 5270.78L774.316 5256.91M580.455 5192.41L534.824 4937.03C533.545 4929.87 535.647 4922.52 540.52 4917.12L579.405 4874M580.455 5192.41L656.578 5082.45M579.405 4874L596.376 4859.47M579.405 4874L656.578 5082.45M596.376 4859.47L638.135 4827.05C645.152 4821.6 654.638 4820.57 662.666 4824.37L852.014 4914.13M596.376 4859.47L751.272 4987.32M852.014 4914.13L821.061 5154.7M852.014 4914.13L751.272 4987.32M821.061 5154.7L795.989 5214.73M821.061 5154.7L932.105 4943.92M795.989 5214.73L788.997 5249M795.989 5214.73L751.272 4987.32M932.105 4943.92L1056.01 4872.37C1066.76 4866.16 1080.49 4869.37 1087.38 4879.7L1101.63 4901.06M932.105 4943.92L984.981 5011.4M1101.63 4901.06L1119.39 4921.8M1101.63 4901.06L984.981 5011.4M1119.39 4921.8L1133.84 4937.91C1138.27 4942.84 1140.41 4949.4 1139.75 4955.98L1120.49 5148.66M1119.39 4921.8L1054.68 5084.41M1120.49 5148.66L945.633 5224.03M1120.49 5148.66L1054.68 5084.41M945.633 5224.03L869.623 5230.88M1054.68 5084.41L1023.06 5051.67M1054.68 5084.41L869.623 5230.88M1023.06 5051.67L984.981 5011.4M1023.06 5051.67L820.246 5235.33M820.246 5235.33L869.623 5230.88M751.272 4987.32L709.059 5029.73M656.578 5082.45L774.316 5256.91M656.578 5082.45L709.059 5029.73" stroke="url(#paint11_radial_402_379)" stroke-width="12.5807"/>
<path d="M836.231 10667.7L814.499 10553.1C813.142 10546 808.553 10539.8 802.068 10536.5L762.703 10516.4M836.231 10667.7L729.251 10613.1M836.231 10667.7L654.485 10759.5M762.703 10516.4L729.251 10613.1M762.703 10516.4L747.35 10505.1M729.251 10613.1L501.78 10820.4M729.251 10613.1L680.378 10579.3M527.382 10823.8L508.387 10821.3M527.382 10823.8L800.441 10919.1M527.382 10823.8L542.13 10816.3M501.78 10820.4L680.378 10579.3M501.78 10820.4L499.471 10802.5M501.78 10820.4L508.387 10821.3M501.78 10820.4L491.741 10822.3M501.78 10820.4L556.659 11049.6M680.378 10579.3L633.931 10549.4M499.471 10802.5L506.839 10788.6M499.471 10802.5L245.277 10803.2M633.931 10549.4L747.35 10505.1M633.931 10549.4L557.25 10482.1M633.931 10549.4L528.205 10748.4M747.35 10505.1L711.837 10481C707.691 10478.2 702.755 10476.7 697.747 10476.9L557.25 10482.1M557.25 10482.1L532.29 10570.7M532.29 10570.7L528.205 10748.4M532.29 10570.7L534.678 10452M528.205 10748.4L510.154 10782.4M534.678 10452L364.816 10393C359.026 10391 352.68 10391.3 347.124 10393.9L310.673 10410.9M534.678 10452L426.081 10507.7M310.673 10410.9L287.425 10420.2M310.673 10410.9L426.081 10507.7M287.425 10420.2L253.356 10431.2C244.526 10434.1 238.201 10441.8 237.203 10451.1L222.493 10587.1M287.425 10420.2L316.501 10554.9M222.493 10587.1L316.501 10554.9M222.493 10587.1L272.407 10622.3M506.839 10788.6L485.915 10773.8M506.839 10788.6L510.154 10782.4M506.839 10788.6L235.313 10734.6M426.081 10507.7L372.161 10532.2M426.081 10507.7L510.154 10782.4M372.161 10532.2L316.501 10554.9M372.161 10532.2L485.915 10773.8M316.501 10554.9L440.195 10741.4M440.195 10741.4L485.915 10773.8M440.195 10741.4L272.407 10622.3M272.407 10622.3L63.721 10729.4C55.5279 10733.6 50.5378 10742.2 50.9478 10751.4L53.5309 10809.3M272.407 10622.3L235.313 10734.6M53.5309 10809.3L54.3687 10835.3M53.5309 10809.3L235.313 10734.6M54.3687 10835.3L61.9747 10884.3C63.2514 10892.5 68.7685 10899.4 76.4894 10902.5L288.687 10987.5M54.3687 10835.3L254.571 10867.9M288.687 10987.5L254.571 10867.9M288.687 10987.5L405.551 10908.8M254.571 10867.9L245.277 10803.2M254.571 10867.9L453.902 10829.6M245.277 10803.2L235.313 10734.6M405.551 10908.8L453.902 10829.6M405.551 10908.8L361.428 10979.7M453.902 10829.6L491.741 10822.3M361.428 10979.7L457.921 11220.5C460.628 11227.3 466.303 11232.4 473.298 11234.4L529.11 11250.4M361.428 10979.7L484.221 11032.7M529.11 11250.4L551.201 11253.7M529.11 11250.4L484.221 11032.7M551.201 11253.7L603.793 11259.1C612.63 11260 621.226 11255.9 626.022 11248.4L739.137 11072M551.201 11253.7L614.924 11063.3M739.137 11072L585.512 10884.3M739.137 11072L614.924 11063.3M585.512 10884.3L532.459 10846.7M585.512 10884.3L791.308 11004.3M532.459 10846.7L508.387 10821.3M532.459 10846.7L614.924 11063.3M791.308 11004.3L934.303 10999.4C946.713 10999 956.66 10989 957.037 10976.6L957.816 10950.9M791.308 11004.3L800.441 10919.1M957.816 10950.9L961.902 10923.9M957.816 10950.9L800.441 10919.1M961.902 10923.9L965.637 10902.6C966.779 10896.1 965.125 10889.4 961.08 10884.2L842.728 10730.9M961.902 10923.9L820.922 10820.3M842.728 10730.9L654.485 10759.5M842.728 10730.9L820.922 10820.3M654.485 10759.5L586.376 10794M820.922 10820.3L811.425 10864.8M820.922 10820.3L586.376 10794M811.425 10864.8L800.441 10919.1M811.425 10864.8L542.13 10816.3M542.13 10816.3L586.376 10794M614.924 11063.3L556.659 11049.6M484.221 11032.7L491.741 10822.3M484.221 11032.7L556.659 11049.6" stroke="url(#paint12_radial_402_379)" stroke-width="12.5807"/>
</g>
<defs>
<filter id="filter0_d_402_379" x="-758.91" y="884.104" width="1010.29" height="1038.22" filterUnits="userSpaceOnUse" color-interpolation-filters="sRGB">
<feFlood flood-opacity="0" result="BackgroundImageFix"/>
<feColorMatrix in="SourceAlpha" type="matrix" values="0 0 0 0 0 0 0 0 0 0 0 0 0 0 0 0 0 0 127 0" result="hardAlpha"/>
<feOffset/>
<feGaussianBlur stdDeviation="50"/>
<feComposite in2="hardAlpha" operator="out"/>
<feColorMatrix type="matrix" values="0 0 0 0 0 0 0 0 0 0 0 0 0 0 0 0 0 0 0.1 0"/>
<feBlend mode="normal" in2="BackgroundImageFix" result="effect1_dropShadow_402_379"/>
<feBlend mode="normal" in="SourceGraphic" in2="effect1_dropShadow_402_379" result="shape"/>
</filter>
<filter id="filter1_d_402_379" x="-758.91" y="884.104" width="1010.29" height="1038.22" filterUnits="userSpaceOnUse" color-interpolation-filters="sRGB">
<feFlood flood-opacity="0" result="BackgroundImageFix"/>
<feColorMatrix in="SourceAlpha" type="matrix" values="0 0 0 0 0 0 0 0 0 0 0 0 0 0 0 0 0 0 127 0" result="hardAlpha"/>
<feOffset/>
<feGaussianBlur stdDeviation="50"/>
<feComposite in2="hardAlpha" operator="out"/>
<feColorMatrix type="matrix" values="0 0 0 0 0 0 0 0 0 0 0 0 0 0 0 0 0 0 0.1 0"/>
<feBlend mode="normal" in2="BackgroundImageFix" result="effect1_dropShadow_402_379"/>
<feBlend mode="normal" in="SourceGraphic" in2="effect1_dropShadow_402_379" result="shape"/>
</filter>
<filter id="filter2_d_402_379" x="407.162" y="1767.3" width="1025.22" height="804.408" filterUnits="userSpaceOnUse" color-interpolation-filters="sRGB">
<feFlood flood-opacity="0" result="BackgroundImageFix"/>
<feColorMatrix in="SourceAlpha" type="matrix" values="0 0 0 0 0 0 0 0 0 0 0 0 0 0 0 0 0 0 127 0" result="hardAlpha"/>
<feOffset/>
<feGaussianBlur stdDeviation="50"/>
<feComposite in2="hardAlpha" operator="out"/>
<feColorMatrix type="matrix" values="0 0 0 0 0 0 0 0 0 0 0 0 0 0 0 0 0 0 0.1 0"/>
<feBlend mode="normal" in2="BackgroundImageFix" result="effect1_dropShadow_402_379"/>
<feBlend mode="normal" in="SourceGraphic" in2="effect1_dropShadow_402_379" result="shape"/>
</filter>
<filter id="filter3_d_402_379" x="355.757" y="702.061" width="656.675" height="574.593" filterUnits="userSpaceOnUse" color-interpolation-filters="sRGB">
<feFlood flood-opacity="0" result="BackgroundImageFix"/>
<feColorMatrix in="SourceAlpha" type="matrix" values="0 0 0 0 0 0 0 0 0 0 0 0 0 0 0 0 0 0 127 0" result="hardAlpha"/>
<feOffset/>
<feGaussianBlur stdDeviation="38.7737"/>
<feComposite in2="hardAlpha" operator="out"/>
<feColorMatrix type="matrix" values="0 0 0 0 0 0 0 0 0 0 0 0 0 0 0 0 0 0 0.1 0"/>
<feBlend mode="normal" in2="BackgroundImageFix" result="effect1_dropShadow_402_379"/>
<feBlend mode="normal" in="SourceGraphic" in2="effect1_dropShadow_402_379" result="shape"/>
</filter>
<filter id="filter4_d_402_379" x="-920.805" y="3016.57" width="1824.1" height="1381.23" filterUnits="userSpaceOnUse" color-interpolation-filters="sRGB">
<feFlood flood-opacity="0" result="BackgroundImageFix"/>
<feColorMatrix in="SourceAlpha" type="matrix" values="0 0 0 0 0 0 0 0 0 0 0 0 0 0 0 0 0 0 127 0" result="hardAlpha"/>
<feOffset/>
<feGaussianBlur stdDeviation="50"/>
<feComposite in2="hardAlpha" operator="out"/>
<feColorMatrix type="matrix" values="0 0 0 0 0 0 0 0 0 0 0 0 0 0 0 0 0 0 0.1 0"/>
<feBlend mode="normal" in2="BackgroundImageFix" result="effect1_dropShadow_402_379"/>
<feBlend mode="normal" in="SourceGraphic" in2="effect1_dropShadow_402_379" result="shape"/>
</filter>
<filter id="filter5_d_402_379" x="98.8301" y="2440.71" width="724.795" height="708.05" filterUnits="userSpaceOnUse" color-interpolation-filters="sRGB">
<feFlood flood-opacity="0" result="BackgroundImageFix"/>
<feColorMatrix in="SourceAlpha" type="matrix" values="0 0 0 0 0 0 0 0 0 0 0 0 0 0 0 0 0 0 127 0" result="hardAlpha"/>
<feOffset/>
<feGaussianBlur stdDeviation="50"/>
<feComposite in2="hardAlpha" operator="out"/>
<feColorMatrix type="matrix" values="0 0 0 0 0 0 0 0 0 0 0 0 0 0 0 0 0 0 0.1 0"/>
<feBlend mode="normal" in2="BackgroundImageFix" result="effect1_dropShadow_402_379"/>
<feBlend mode="normal" in="SourceGraphic" in2="effect1_dropShadow_402_379" result="shape"/>
</filter>
<filter id="filter6_d_402_379" x="-412.24" y="9112.05" width="973.89" height="1093.11" filterUnits="userSpaceOnUse" color-interpolation-filters="sRGB">
<feFlood flood-opacity="0" result="BackgroundImageFix"/>
<feColorMatrix in="SourceAlpha" type="matrix" values="0 0 0 0 0 0 0 0 0 0 0 0 0 0 0 0 0 0 127 0" result="hardAlpha"/>
<feOffset/>
<feGaussianBlur stdDeviation="35.4892"/>
<feComposite in2="hardAlpha" operator="out"/>
<feColorMatrix type="matrix" values="0 0 0 0 0 0 0 0 0 0 0 0 0 0 0 0 0 0 0.1 0"/>
<feBlend mode="normal" in2="BackgroundImageFix" result="effect1_dropShadow_402_379"/>
<feBlend mode="normal" in="SourceGraphic" in2="effect1_dropShadow_402_379" result="shape"/>
</filter>
<radialGradient id="paint0_radial_402_379" cx="0" cy="0" r="1" gradientUnits="userSpaceOnUse" gradientTransform="translate(168.896 1093.73) rotate(166.003) scale(810.693 621.696)">
<stop stop-color="#FFC435" stop-opacity="0.27"/>
<stop offset="0.0001" stop-color="#FFC435" stop-opacity="0.32"/>
<stop offset="0.193969" stop-color="#F26C64" stop-opacity="0.32"/>
<stop offset="0.455202" stop-color="#D770C7" stop-opacity="0.61"/>
<stop offset="0.838642" stop-color="#86ADF2"/>
</radialGradient>
<radialGradient id="paint1_radial_402_379" cx="0" cy="0" r="1" gradientUnits="userSpaceOnUse" gradientTransform="translate(168.896 1093.73) rotate(166.003) scale(810.693 621.696)">
<stop stop-color="#FFC435" stop-opacity="0.27"/>
<stop offset="0.0001" stop-color="#FFC435" stop-opacity="0.32"/>
<stop offset="0.193969" stop-color="#F26C64" stop-opacity="0.32"/>
<stop offset="0.455202" stop-color="#D770C7" stop-opacity="0.61"/>
<stop offset="0.838642" stop-color="#86ADF2"/>
</radialGradient>
<radialGradient id="paint2_radial_402_379" cx="0" cy="0" r="1" gradientUnits="userSpaceOnUse" gradientTransform="translate(524.5 2112) rotate(17.8364) scale(832.515 754.675)">
<stop stop-color="#FFDAE1"/>
<stop offset="0.0001" stop-color="#FFECBE"/>
<stop offset="0.348958" stop-color="#FEBBB7"/>
<stop offset="0.640625" stop-color="#E989DA"/>
<stop offset="1" stop-color="#8DB6FC"/>
</radialGradient>
<linearGradient id="paint3_linear_402_379" x1="292.993" y1="1092.67" x2="1207.77" y2="1434.69" gradientUnits="userSpaceOnUse">
<stop stop-color="#FFF4DA"/>
<stop offset="0.0001" stop-color="#FFECBE"/>
<stop offset="0.348958" stop-color="#FEBBB7"/>
<stop offset="0.640625" stop-color="#E989DA"/>
<stop offset="1" stop-color="#8DB6FC"/>
</linearGradient>
<linearGradient id="paint4_linear_402_379" x1="116.993" y1="8051.67" x2="1031.77" y2="8393.69" gradientUnits="userSpaceOnUse">
<stop stop-color="#FFF4DA"/>
<stop offset="0.0001" stop-color="#FFECBE"/>
<stop offset="0.348958" stop-color="#FEBBB7"/>
<stop offset="0.640625" stop-color="#E989DA"/>
<stop offset="1" stop-color="#8DB6FC"/>
</linearGradient>
<radialGradient id="paint5_radial_402_379" cx="0" cy="0" r="1" gradientUnits="userSpaceOnUse" gradientTransform="translate(925.078 930.279) rotate(166.131) scale(697.49 632.274)">
<stop stop-color="#FFDAE1"/>
<stop offset="0.0001" stop-color="#FFECBE"/>
<stop offset="0.348958" stop-color="#FEBBB7"/>
<stop offset="0.640625" stop-color="#E989DA"/>
<stop offset="1" stop-color="#8DB6FC"/>
</radialGradient>
<radialGradient id="paint6_radial_402_379" cx="0" cy="0" r="1" gradientUnits="userSpaceOnUse" gradientTransform="translate(537.392 4367.45) rotate(-127.164) scale(1088.99 756.538)">
<stop stop-color="#FFF4DA"/>
<stop offset="0.0001" stop-color="#FFECBE"/>
<stop offset="0.348958" stop-color="#FEBBB7"/>
<stop offset="0.640625" stop-color="#E989DA"/>
<stop offset="1" stop-color="#8DB6FC"/>
</radialGradient>
<radialGradient id="paint7_radial_402_379" cx="0" cy="0" r="1" gradientUnits="userSpaceOnUse" gradientTransform="translate(742.193 2819.71) rotate(-179.243) scale(555.787 518.569)">
<stop stop-color="#FFDAE1"/>
<stop offset="0.0001" stop-color="#FFECBE"/>
<stop offset="0.348958" stop-color="#FEBBB7"/>
<stop offset="0.640625" stop-color="#E989DA"/>
<stop offset="1" stop-color="#8DB6FC"/>
</radialGradient>
<linearGradient id="paint8_linear_402_379" x1="894.18" y1="8882.68" x2="71.9868" y2="10205.1" gradientUnits="userSpaceOnUse">
<stop stop-color="#FFF4DA"/>
<stop offset="0.0001" stop-color="#FFECBE"/>
<stop offset="0.348958" stop-color="#FEBBB7"/>
<stop offset="0.640625" stop-color="#E989DA"/>
<stop offset="1" stop-color="#8DB6FC"/>
</linearGradient>
<linearGradient id="paint9_linear_402_379" x1="502.629" y1="3006.14" x2="1243.95" y2="3025.36" gradientUnits="userSpaceOnUse">
<stop stop-color="#FFF4DA"/>
<stop offset="0.0001" stop-color="#FFECBE"/>
<stop offset="0.348958" stop-color="#FEBBB7"/>
<stop offset="0.640625" stop-color="#E989DA"/>
<stop offset="1" stop-color="#8DB6FC"/>
</linearGradient>
<radialGradient id="paint10_radial_402_379" cx="0" cy="0" r="1" gradientUnits="userSpaceOnUse" gradientTransform="translate(9.97912 8243.99) rotate(-78.273) scale(712.361 501.376)">
<stop stop-color="#FFF4DA"/>
<stop offset="0.0001" stop-color="#FFECBE"/>
<stop offset="0.348958" stop-color="#FEBBB7"/>
<stop offset="0.640625" stop-color="#E989DA"/>
<stop offset="1" stop-color="#8DB6FC"/>
</radialGradient>
<radialGradient id="paint11_radial_402_379" cx="0" cy="0" r="1" gradientUnits="userSpaceOnUse" gradientTransform="translate(1336.16 4985.61) rotate(162.661) scale(712.361 501.376)">
<stop stop-color="#FFF4DA"/>
<stop offset="0.0001" stop-color="#FFECBE"/>
<stop offset="0.348958" stop-color="#FEBBB7"/>
<stop offset="0.640625" stop-color="#E989DA"/>
<stop offset="1" stop-color="#8DB6FC"/>
</radialGradient>
<radialGradient id="paint12_radial_402_379" cx="0" cy="0" r="1" gradientUnits="userSpaceOnUse" gradientTransform="translate(1112.02 10755) rotate(165.372) scale(712.361 501.376)">
<stop stop-color="#FFF4DA"/>
<stop offset="0.0001" stop-color="#FFECBE"/>
<stop offset="0.348958" stop-color="#FEBBB7"/>
<stop offset="0.640625" stop-color="#E989DA"/>
<stop offset="1" stop-color="#8DB6FC"/>
</radialGradient>
<clipPath id="clip0_402_379">
<rect width="783" height="11993" fill="white"/>
</clipPath>
</defs>
</svg>
