<svg width="795" height="1292" viewBox="0 0 795 1292" fill="none" xmlns="http://www.w3.org/2000/svg">
<g clip-path="url(#clip0_178_293)">
<rect width="795" height="1292" fill="white"/>
<g filter="url(#filter0_d_178_293)">
<path fill-rule="evenodd" clip-rule="evenodd" d="M405.231 -623.283C337.274 -609.827 269.991 -596.504 212.22 -552.89C125.819 -487.664 72.5201 -389.382 33.8828 -293.776C-3.87389 -200.348 -17.5214 -103.865 -5.80631 -13.3934C5.70645 75.5152 40.4401 156.794 100.084 217.468C122.013 239.777 148.009 256.665 176.301 270.519L172.358 278.647C169.082 285.398 171.611 293.532 178.137 297.236L237.48 330.92L238.234 331.348L239.099 331.308L332.891 326.995C333.397 327.171 333.903 327.348 334.408 327.525L244.868 365.686L242.864 366.54L243.056 368.71L251.857 468.258C252.329 473.605 255.771 478.232 260.757 480.222L284.174 489.569L284.241 489.596L284.309 489.619L294.383 493.091L294.566 493.154L294.756 493.193L321.875 498.777C326.182 499.664 330.656 498.51 333.997 495.652L428.014 415.226L429.169 414.239L429.056 412.723L427.133 386.996L452.434 433.762L453.19 435.159L454.77 435.32L563.232 446.317C568.233 446.824 573.13 444.656 576.116 440.613L590.156 421.603L590.265 421.456L590.355 421.297L596.436 410.532L596.455 410.5L610.341 386.613C611.754 384.183 612.386 381.449 612.252 378.753C677.463 355.167 728.366 300.014 779.255 244.877C800.169 222.217 821.08 199.56 842.981 179.097C861.445 161.847 880.742 145.193 900.007 128.566C959.108 77.5591 1017.91 26.8109 1051.42 -40.0982C1096.74 -130.577 1096.19 -226.258 1091.85 -317.803C1087.35 -412.532 1077.64 -508.181 1025.78 -580.214C972.181 -654.665 894.509 -716.769 795.865 -728.926C730.427 -736.991 662.952 -709.134 594.809 -681.002C563.058 -667.894 531.163 -654.726 499.26 -645.103C468.358 -635.783 436.722 -629.519 405.231 -623.283ZM606.151 380.852C608.198 380.184 610.232 379.483 612.252 378.753C612.12 376.111 611.253 373.505 609.665 371.255L548.022 283.903L571.974 280.728L573.726 280.495L574.372 278.851L598.228 218.121C600.279 212.9 599.072 206.962 595.146 202.956L583.261 190.828L575.61 181.904L564.017 166.728C561.768 163.784 558.46 161.833 554.796 161.289L469.954 148.7L467.799 148.381L466.828 150.331L452.058 179.999L456.272 159.985L456.722 157.846L454.823 156.762L396.593 123.519C393.963 122.018 390.923 121.394 387.915 121.74L367.579 124.073L367.518 124.08L367.457 124.09L358.702 125.458L337.874 125.248C333.474 125.203 329.302 127.197 326.571 130.647L292.062 174.247L290.661 176.017L291.974 177.854L337.551 241.601L279.459 198.982L278.035 197.937L276.43 198.675L192.534 237.272C188.9 238.944 186.137 242.067 184.922 245.879L181.798 255.679L177.625 267.789L176.301 270.519C178.094 271.397 179.897 272.263 181.709 273.118L177.756 281.266C175.862 285.17 177.324 289.875 181.099 292.018L237.437 323.996L247.277 299.02C249.17 299.667 251.066 300.31 252.966 300.949L243.45 325.102L317.068 321.717C320.299 322.771 323.526 323.833 326.745 324.904C328.796 325.586 330.844 326.284 332.891 326.995L335.986 326.853L334.408 327.525C337.177 328.497 339.942 329.494 342.705 330.512L253.618 368.479L299.914 388.693L358.691 336.621C360.772 337.442 362.853 338.271 364.934 339.106L306.683 390.712L327.06 395.964L373.576 342.61C375.529 343.41 377.483 344.213 379.437 345.018L333.56 397.639L360.82 404.665L387.721 348.446C388.641 348.828 389.561 349.209 390.481 349.591C391.411 349.977 392.341 350.363 393.271 350.748L367.062 405.522L422.813 409.695L420.104 373.452L420.103 373.439L420.102 373.427L419.305 361.387C421.361 362.206 423.419 363.018 425.479 363.822L426.046 372.377L455.745 427.272L491.512 389.624L482.888 382.768C489.036 384.31 495.22 385.671 501.447 386.814L500.767 387.756L586.346 416.195L590.207 409.361L572.834 388.692C575.121 388.356 577.416 387.979 579.719 387.558L593.394 403.828L605.154 383.598C605.656 382.734 605.988 381.803 606.151 380.852ZM606.151 380.852C603.564 381.698 600.954 382.493 598.321 383.237C592.061 385.005 585.862 386.436 579.719 387.558L536.721 336.402L544.481 289.292L604.763 374.714C606.043 376.528 606.513 378.741 606.151 380.852ZM572.834 388.692L533.714 342.149L516.605 365.794L516.602 365.797L501.447 386.814C524.56 391.056 548.253 392.296 572.834 388.692ZM482.888 382.768L423.613 335.644L425.479 363.822C444.382 371.198 463.455 377.892 482.888 382.768ZM419.305 361.387L417.266 330.598L406.868 322.332L393.271 350.748C401.93 354.339 410.601 357.923 419.305 361.387ZM387.721 348.446L401.434 319.787L379.437 345.018C382.198 346.157 384.959 347.301 387.721 348.446ZM373.576 342.61L394.987 318.052L384.746 321.554L364.934 339.106C367.815 340.263 370.696 341.432 373.576 342.61ZM358.691 336.621L373.824 323.214L353.267 326.01L342.705 330.512C348.041 332.478 353.368 334.523 358.691 336.621ZM317.068 321.717C308.781 319.011 300.463 316.352 292.147 313.693C279.037 309.502 265.933 305.312 252.966 300.949L255.866 293.587L389.665 313.294L389.999 313.416L382.513 315.976L352.191 320.102L317.068 321.717ZM247.277 299.02L249.949 292.236L181.997 272.523L181.709 273.118C202.627 282.985 224.714 291.306 247.277 299.02ZM76.9998 66.864L84.2088 66.864L84.2088 80.112L97.901 80.112L97.901 66.864L105.11 66.864L105.11 101.136L97.901 101.136L97.901 86.736L84.2088 86.736L84.2088 101.136L76.9998 101.136L76.9998 66.864ZM124.684 97.968C123.684 99.088 122.555 100 121.297 100.704C120.071 101.408 118.475 101.76 116.507 101.76C115.378 101.76 114.298 101.616 113.265 101.328C112.266 101.04 111.379 100.592 110.604 99.984C109.863 99.376 109.266 98.608 108.814 97.68C108.363 96.72 108.137 95.584 108.137 94.272C108.137 92.544 108.524 91.136 109.298 90.048C110.072 88.96 111.088 88.112 112.346 87.504C113.604 86.896 115.007 86.464 116.555 86.208C118.136 85.952 119.733 85.792 121.345 85.728L124.587 85.584L124.587 84.336C124.587 82.8 124.152 81.744 123.281 81.168C122.442 80.592 121.442 80.304 120.281 80.304C117.604 80.304 116.072 81.312 115.685 83.328L109.492 82.752C109.943 80.128 111.104 78.24 112.975 77.088C114.846 75.904 117.362 75.312 120.523 75.312C122.458 75.312 124.103 75.552 125.458 76.032C126.813 76.48 127.893 77.136 128.699 78C129.538 78.864 130.135 79.92 130.49 81.168C130.877 82.384 131.07 83.76 131.07 85.296L131.07 101.136L124.684 101.136L124.684 97.968ZM124.539 89.952L121.539 90.096C120.12 90.16 118.975 90.304 118.104 90.528C117.233 90.752 116.555 91.04 116.072 91.392C115.62 91.712 115.314 92.096 115.152 92.544C114.991 92.992 114.91 93.488 114.91 94.032C114.91 94.864 115.201 95.52 115.781 96C116.362 96.48 117.168 96.72 118.2 96.72C119.942 96.72 121.361 96.32 122.458 95.52C123.071 95.072 123.571 94.512 123.958 93.84C124.345 93.136 124.539 92.272 124.539 91.248L124.539 89.952ZM154.17 99.264C156.008 97.472 157.057 95.072 157.315 92.064L150.444 92.064C150.315 93.504 149.88 94.608 149.138 95.376C148.396 96.144 147.348 96.528 145.993 96.528C144.961 96.528 144.106 96.32 143.429 95.904C142.752 95.456 142.219 94.864 141.832 94.128C141.445 93.392 141.171 92.544 141.01 91.584C140.849 90.624 140.768 89.616 140.768 88.56C140.768 87.536 140.849 86.56 141.01 85.632C141.171 84.672 141.445 83.824 141.832 83.088C142.252 82.352 142.8 81.776 143.477 81.36C144.155 80.912 145.009 80.688 146.042 80.688C147.461 80.688 148.461 81.088 149.041 81.888C149.622 82.656 149.993 83.68 150.154 84.96L156.976 84.048C156.815 82.768 156.492 81.6 156.008 80.544C155.525 79.4561 154.847 78.528 153.976 77.76C153.105 76.992 152.025 76.4 150.735 75.984C149.477 75.536 147.993 75.312 146.283 75.312C144.284 75.312 142.51 75.632 140.961 76.272C139.413 76.912 138.107 77.824 137.042 79.008C135.978 80.16 135.156 81.568 134.575 83.232C134.027 84.864 133.752 86.672 133.752 88.656C133.752 90.64 133.994 92.448 134.478 94.08C134.962 95.712 135.688 97.104 136.655 98.256C137.655 99.408 138.929 100.304 140.478 100.944C142.026 101.584 143.864 101.904 145.993 101.904C149.638 101.904 152.364 101.024 154.17 99.264ZM160.481 66.864L167.11 66.864L167.11 84.816L176.834 76.08L184.672 76.08L175.48 84.72L185.398 101.136L178.092 101.136L170.641 88.464L167.11 91.632L167.11 101.136L160.481 101.136L160.481 66.864ZM195.44 94.56C194.247 93.6 193.569 92.064 193.408 89.952L186.102 89.952C186.296 93.984 187.634 97.008 190.118 99.024C192.634 101.008 196.246 102 200.956 102C203.214 102 205.181 101.728 206.858 101.184C208.536 100.672 209.923 99.952 211.019 99.024C212.148 98.064 212.987 96.96 213.535 95.712C214.116 94.432 214.406 93.0401 214.406 91.536C214.406 88.432 213.535 86.064 211.793 84.432C210.052 82.768 207.31 81.568 203.568 80.832L198.827 79.92C197.085 79.568 195.843 79.072 195.101 78.432C194.392 77.792 194.037 76.832 194.037 75.552C194.037 75.072 194.134 74.608 194.327 74.16C194.521 73.712 194.859 73.328 195.343 73.008C195.827 72.656 196.456 72.384 197.23 72.192C198.037 71.968 199.053 71.856 200.278 71.856C202.343 71.856 203.875 72.272 204.875 73.104C205.907 73.936 206.6 75.296 206.955 77.184L213.777 76.3201C213.616 74.976 213.277 73.68 212.761 72.432C212.277 71.184 211.519 70.096 210.487 69.1681C209.455 68.208 208.1 67.44 206.423 66.864C204.746 66.288 202.649 66 200.133 66C198.166 66 196.359 66.224 194.714 66.672C193.069 67.088 191.65 67.712 190.457 68.544C189.295 69.376 188.376 70.416 187.699 71.664C187.054 72.912 186.731 74.352 186.731 75.984C186.731 77.616 186.973 79.024 187.457 80.208C187.941 81.392 188.634 82.4 189.537 83.232C190.473 84.032 191.618 84.688 192.973 85.2C194.327 85.712 195.892 86.128 197.666 86.448L202.165 87.264C203.972 87.616 205.213 88.192 205.891 88.992C206.568 89.76 206.907 90.592 206.907 91.4881C206.907 92.128 206.794 92.7201 206.568 93.264C206.375 93.808 206.036 94.288 205.552 94.704C205.068 95.088 204.439 95.408 203.665 95.664C202.891 95.888 201.939 96 200.811 96C198.456 96 196.666 95.52 195.44 94.56ZM246 89.28C245.839 91.104 245.403 92.8 244.693 94.368C244.016 95.904 243.065 97.248 241.839 98.4C240.645 99.52 239.162 100.4 237.388 101.04C235.646 101.68 233.614 102 231.291 102C228.679 102 226.373 101.568 224.373 100.704C222.405 99.84 220.744 98.624 219.389 97.056C218.067 95.488 217.067 93.6 216.39 91.392C215.712 89.152 215.374 86.688 215.374 84C215.374 81.216 215.745 78.72 216.486 76.5121C217.228 74.304 218.293 72.416 219.68 70.848C221.067 69.28 222.744 68.08 224.712 67.248C226.679 66.416 228.905 66 231.388 66C233.582 66 235.485 66.272 237.097 66.8161C238.742 67.36 240.113 68.144 241.21 69.168C242.339 70.192 243.242 71.424 243.919 72.864C244.597 74.304 245.097 75.92 245.419 77.712L238.259 78.624C237.904 76.608 237.21 75.024 236.178 73.872C235.178 72.7201 233.582 72.144 231.388 72.144C228.614 72.144 226.502 73.1841 225.05 75.264C223.631 77.312 222.921 80.224 222.921 84C222.921 87.808 223.679 90.736 225.195 92.784C226.744 94.832 228.808 95.856 231.388 95.856C233.614 95.856 235.243 95.296 236.275 94.176C237.339 93.0241 238.001 91.392 238.259 89.28L246 89.28ZM393.618 128.73C392.097 127.861 390.339 127.501 388.599 127.7L373.925 129.384L407.108 167.525L445.301 158.234L393.618 128.73ZM449.42 163.407L409.058 173.225L409.644 265.658L441.433 201.345L449.42 163.407ZM568.034 181.871L559.249 170.37C557.948 168.667 556.035 167.539 553.916 167.224L476.014 155.665L504.407 195.827L568.034 181.871ZM499.206 198.864L469.962 157.499L446.98 203.663L446.976 203.671L409.729 279.028L409.795 289.421L499.206 198.864ZM409.888 304.069L409.898 305.726L513.267 360.172L528.617 338.958L409.888 304.069ZM531.128 333.442L539.091 285.102L445.873 297.799L445.87 297.8L421.2 301.14L531.128 333.442ZM411.314 296.423L417.799 295.545L516.242 220.897L502.841 203.721L411.314 296.423ZM508.401 201.093L522.808 219.558L538.963 238.685L577.121 192.884L572.167 187.107L508.401 201.093ZM581.229 197.327L542.99 243.224L570.512 272.266L592.644 215.927C593.83 212.907 593.132 209.472 590.861 207.155L581.229 197.327ZM565.36 275.552L538.395 247.098L461.044 289.677L542.306 278.608L542.317 278.607L565.36 275.552ZM444.511 291.929L534.323 242.49L520.023 225.56L429.888 293.909L444.511 291.929ZM582.874 421.364L496.807 392.763L461.46 429.967L563.838 440.348C566.73 440.641 569.563 439.387 571.29 437.048L582.874 421.364ZM495.35 385.01L422.038 326.727L407.654 315.292L406.046 314.013L407.853 311.429L509.719 365.084L495.35 385.01ZM403.904 306.606L403.862 300.072L403.841 296.702L403.725 278.355L403.064 174.151L383.27 175.928L403.781 306.781L403.904 306.606ZM394.235 284.626L377.296 176.559L355.805 179.204L394.235 284.626ZM355.246 173.228L361.561 131.084L366.746 130.274L399.924 168.409L379.542 170.239L379.493 170.244L379.444 170.25L355.246 173.228ZM355.443 131.426L337.814 131.248C335.269 131.222 332.855 132.375 331.276 134.37L300.565 173.171L349.114 173.661L355.443 131.426ZM300.289 179.169L349.587 179.666L396.942 309.569L392.309 307.872L388.263 302.215L374.512 282.98L353.343 253.372L300.289 179.169ZM378.17 298.413L370.151 287.198L269.146 247.973L264.988 262.894L378.17 298.413ZM258.437 264.05L263.008 247.647L186.892 259.314L184.266 266.934L251.903 286.555L258.428 264.081L258.437 264.05ZM418.587 415.395L363.795 411.294L300.821 488.316L323.086 492.9C325.576 493.413 328.164 492.746 330.097 491.093L418.587 415.395ZM294.362 486.737L357.168 409.92L327.356 402.236L302.909 395.936L288.648 484.768L294.362 486.737ZM282.918 482.608L297.139 394.028L249.478 373.218L257.833 467.729C258.107 470.823 260.098 473.499 262.982 474.65L282.918 482.608ZM257.788 287.805L383.179 306.274L263.344 268.666L257.788 287.805ZM188.973 252.925L264.714 241.315L273.274 206.732L195.041 242.723C192.94 243.69 191.342 245.496 190.639 247.701L188.973 252.925ZM279.52 206.468L270.691 242.137L363.78 278.287L348.741 257.252L279.52 206.468Z" fill="url(#paint0_radial_178_293)"/>
</g>
</g>
<defs>
<filter id="filter0_d_178_293" x="-109.88" y="-830.339" width="1303.62" height="1429.41" filterUnits="userSpaceOnUse" color-interpolation-filters="sRGB">
<feFlood flood-opacity="0" result="BackgroundImageFix"/>
<feColorMatrix in="SourceAlpha" type="matrix" values="0 0 0 0 0 0 0 0 0 0 0 0 0 0 0 0 0 0 127 0" result="hardAlpha"/>
<feOffset/>
<feGaussianBlur stdDeviation="50"/>
<feComposite in2="hardAlpha" operator="out"/>
<feColorMatrix type="matrix" values="0 0 0 0 0 0 0 0 0 0 0 0 0 0 0 0 0 0 0.1 0"/>
<feBlend mode="normal" in2="BackgroundImageFix" result="effect1_dropShadow_178_293"/>
<feBlend mode="normal" in="SourceGraphic" in2="effect1_dropShadow_178_293" result="shape"/>
</filter>
<radialGradient id="paint0_radial_178_293" cx="0" cy="0" r="1" gradientUnits="userSpaceOnUse" gradientTransform="translate(-50.0929 256.36) rotate(-10.9353) scale(1095.43 840.038)">
<stop stop-color="#FFC435" stop-opacity="0.27"/>
<stop offset="0.0001" stop-color="#FFC435" stop-opacity="0.32"/>
<stop offset="0.193969" stop-color="#F26C64" stop-opacity="0.32"/>
<stop offset="0.455202" stop-color="#D770C7" stop-opacity="0.61"/>
<stop offset="0.838642" stop-color="#86ADF2"/>
</radialGradient>
<clipPath id="clip0_178_293">
<rect width="795" height="1292" fill="white"/>
</clipPath>
</defs>
</svg>
