<svg width="1512" height="926" viewBox="0 0 1512 926" fill="none" xmlns="http://www.w3.org/2000/svg">
<g clip-path="url(#clip0_14_66)">
<rect width="1512" height="926" fill="white"/>
<g filter="url(#filter0_d_14_66)">
<path fill-rule="evenodd" clip-rule="evenodd" d="M1137.59 242.356C1135.61 240.837 1133.2 239.989 1130.71 239.935L1109.66 239.481L1148.73 299.095L1204.09 293.385L1137.59 242.356ZM1208.59 300.962L1150.28 306.978L1133.44 436.296L1190.21 352.393L1208.59 300.962ZM1208.1 326.113L1218.26 297.679L1219.25 294.934L1216.93 293.159L1142.46 236.009C1139.13 233.454 1135.08 232.027 1130.88 231.937L1102.23 231.319L1102.15 231.317L1102.07 231.319L1089.65 231.557L1060.78 227.315C1054.75 226.428 1048.64 228.382 1044.25 232.607L988.113 286.543L985.942 288.629L987.345 291.292L1039.06 389.461L965.665 318.462L963.972 316.825L961.72 317.511L838.03 355.143C832.726 356.757 828.347 360.528 825.963 365.533L819.77 378.538L811.68 394.557L802.309 408.629C796.544 417.284 798.49 428.928 806.756 435.239L882.685 493.213L883.603 493.914L884.753 494.018L1021.09 506.304L886.274 543.188L883.472 543.954L883.334 546.856L876.669 686.606C876.315 694.038 880.173 701.037 886.646 704.706L917.356 722.111L917.439 722.158L917.525 722.201L930.841 728.926L931.071 729.043L931.314 729.128L967.873 742.015C973.62 744.041 979.98 743.297 985.104 739.999L1130.76 646.264L1132.47 645.167L1132.59 643.145L1134.86 606.161L1161.42 676.702L1162.16 678.684L1164.22 679.181L1312.58 714.997C1319.35 716.632 1326.49 714.574 1331.35 709.582L1354.42 685.876L1354.59 685.701L1354.74 685.507L1365.22 671.726L1365.25 671.687L1389.04 641.184C1393.78 635.102 1394.55 626.813 1390.99 619.967L1321.9 486.823L1356.05 486.961L1358.41 486.97L1359.56 484.914L1404.16 405.199C1407.96 398.415 1407.42 390.034 1402.78 383.796L1388.59 364.716L1379.66 350.876L1366.45 327.622C1363.92 323.158 1359.74 319.858 1354.81 318.424L1239.51 284.878L1236.73 284.067L1235.09 286.468L1208.1 326.113ZM1369.66 349.464L1359.5 331.573C1357.99 328.919 1355.51 326.958 1352.58 326.105L1246.26 295.173L1278.31 356.797L1369.66 349.464ZM1274.82 366.943L1129.64 478.674L1139.44 478.687L1290.36 393.68L1274.82 366.943ZM1294.52 400.522L1155.71 478.707L1177.16 478.735L1311.38 427.084L1294.52 400.522ZM1322.69 429.618L1355.65 475.519L1397.18 401.292C1399.44 397.26 1399.12 392.278 1396.36 388.57L1384.73 372.934L1322.69 429.618ZM1380.1 366.323L1374.17 357.128L1282.64 364.475L1299.28 393.097L1318.19 422.894L1380.1 366.323ZM1348.25 478.929L1315.92 433.906L1199.41 478.745L1315.3 478.797L1315.31 478.797L1315.32 478.797L1348.25 478.929ZM1129.19 468.928L1270.89 359.869L1237.94 296.503L1197.12 356.458L1197.11 356.467L1131.13 453.973L1129.19 468.928ZM1126.64 488.518L1126.29 491.203L1259.58 586.491L1285.21 559.645L1126.64 488.518ZM1289.53 552.812L1309.88 486.794L1177.9 486.736L1177.9 486.736L1142.11 486.69L1289.53 552.812ZM1316.25 493.304L1296.38 557.733L1362.41 662.32L1382.73 636.264C1385.55 632.649 1386.01 627.722 1383.89 623.652L1316.25 493.304ZM1357.2 669.055L1291.37 564.782L1262.98 594.521L1262.97 594.525L1236.66 622.18L1350.37 678.044L1357.2 669.055ZM1344.85 684.245L1230.52 628.079L1174.03 673.318L1314.46 707.221C1318.49 708.192 1322.72 706.969 1325.61 704.002L1344.85 684.245ZM1166.96 668.726L1136.06 586.652L1139.68 534.745L1224.1 622.977L1166.96 668.726ZM1230 617.574L1139.21 522.681L1121.43 504.092L1119.31 501.878L1122.55 498.369L1254.01 592.341L1230 617.574ZM1118.21 491.284L1119.4 482.15L1120.01 477.471L1123.32 452L1142.19 307.118L1113.97 305.812L1117.62 491.915L1118.21 491.284ZM1109.01 460.923L1105.96 305.566L1075.2 305.155L1109.01 460.923ZM1075.54 297.159L1092.41 239.506L1100.01 239.36L1139.08 298.966L1110.07 297.623L1110 297.62L1109.94 297.619L1075.54 297.159ZM1084.26 238.852L1059.62 235.23C1056.03 234.703 1052.4 235.864 1049.79 238.375L999.541 286.657L1067.37 296.625L1084.26 238.852ZM998.093 294.53L1066.91 304.643L1108.09 494.364L1101.55 490.901L1096.98 482.232L1081.55 452.945L1057.8 407.863L998.093 294.53ZM1084.33 475.388L1075.03 457.73L942.115 384.037L933.354 404.325L1084.33 475.388ZM924.492 404.67L934.066 382.498L825.843 384.26L820.608 394.626L911.081 434.831L924.475 404.709L924.492 404.67ZM915.047 444.836L891.622 486.604L1043.72 500.311L1086.59 500.337L1098.03 498.093L1097.07 497.586L915.047 444.836ZM1104.17 505.041L1088.53 508.109L966.795 589.47L994.527 600.807L1104.17 505.041ZM1002.81 604.193L1039.74 619.292L1113.07 507.894L1002.81 604.193ZM1119.12 513.25L1047.83 621.551L1124.89 638.018L1128.02 587L1128.02 586.983L1128.02 586.966L1132.21 526.933L1119.12 513.25ZM1118.28 644.785L1042.48 628.586L940.207 723.781L970.533 734.47C973.949 735.674 977.729 735.232 980.775 733.272L1118.28 644.785ZM931.959 720.529L1033.97 625.574L993.785 609.146L960.867 595.69L924.133 716.576L931.959 720.529ZM916.954 712.687L953.588 592.128L891.003 553.971L884.66 686.987C884.45 691.405 886.743 695.565 890.591 697.746L916.954 712.687ZM897.328 548.458L958.218 585.581L1073.81 508.33L1044.07 508.311L897.328 548.458ZM883.878 484.058L907.475 441.983L816.601 401.6L808.967 413.063C805.541 418.208 806.698 425.129 811.611 428.881L883.878 484.058ZM918.629 437.545L1090.66 487.397L1090.52 487.145L930.141 411.655L918.629 437.545ZM829.747 376.195L937.462 374.442L956.095 327.584L840.359 362.797C837.206 363.756 834.603 365.998 833.186 368.973L829.747 376.195ZM964.394 328.364L945.211 376.606L1068.22 444.808L1051.02 412.157L964.394 328.364ZM1679.91 -161.813C1794.55 -125.394 1862.47 -27.511 1953.82 43.5748C2047.77 116.689 2174.2 166.695 2226.23 263.333C2279.74 362.707 2273.21 475.447 2239.42 573.993C2206.74 669.338 2124.5 741.141 2039.69 807.508C1957.72 871.645 1869.43 934.973 1755.85 952.4C1644.48 969.488 1530.23 926.721 1415.91 903.215C1295.76 878.511 1157.64 884.434 1066.13 810.585C974.585 736.716 972.403 621.096 941.847 520.673C913.227 426.613 875.966 332.644 892.553 240.131C909.603 145.032 962.099 59.4826 1036.91 -9.56314C1113.04 -79.8224 1211.39 -130.532 1322.74 -156.897C1436.69 -183.878 1562.74 -199.032 1679.91 -161.813Z" fill="url(#paint0_radial_14_66)"/>
</g>
</g>
<defs>
<filter id="filter0_d_14_66" x="699" y="-284" width="1666.61" height="1340.33" filterUnits="userSpaceOnUse" color-interpolation-filters="sRGB">
<feFlood flood-opacity="0" result="BackgroundImageFix"/>
<feColorMatrix in="SourceAlpha" type="matrix" values="0 0 0 0 0 0 0 0 0 0 0 0 0 0 0 0 0 0 127 0" result="hardAlpha"/>
<feOffset/>
<feGaussianBlur stdDeviation="50"/>
<feComposite in2="hardAlpha" operator="out"/>
<feColorMatrix type="matrix" values="0 0 0 0 0 0 0 0 0 0 0 0 0 0 0 0 0 0 0.1 0"/>
<feBlend mode="normal" in2="BackgroundImageFix" result="effect1_dropShadow_14_66"/>
<feBlend mode="normal" in="SourceGraphic" in2="effect1_dropShadow_14_66" result="shape"/>
</filter>
<radialGradient id="paint0_radial_14_66" cx="0" cy="0" r="1" gradientUnits="userSpaceOnUse" gradientTransform="translate(799.667 96.9851) rotate(43.7394) scale(1243.91 953.904)">
<stop stop-color="#FFC435" stop-opacity="0.27"/>
<stop offset="0.0001" stop-color="#FFC435" stop-opacity="0.32"/>
<stop offset="0.193969" stop-color="#F26C64" stop-opacity="0.32"/>
<stop offset="0.455202" stop-color="#D770C7" stop-opacity="0.61"/>
<stop offset="0.838642" stop-color="#86ADF2"/>
</radialGradient>
<clipPath id="clip0_14_66">
<rect width="1512" height="926" fill="white"/>
</clipPath>
</defs>
</svg>
