<svg width="48" height="48" viewBox="0 0 48 48" fill="none" xmlns="http://www.w3.org/2000/svg">
<path d="M44.4469 -6.10352e-05H3.54375C1.58437 -6.10352e-05 0 1.54682 0 3.45932V44.5312C0 46.4437 1.58437 47.9999 3.54375 47.9999H44.4469C46.4062 47.9999 48 46.4437 48 44.5406V3.45932C48 1.54682 46.4062 -6.10352e-05 44.4469 -6.10352e-05ZM14.2406 40.9031H7.11563V17.9906H14.2406V40.9031ZM10.6781 14.8687C8.39062 14.8687 6.54375 13.0218 6.54375 10.7437C6.54375 8.46556 8.39062 6.61869 10.6781 6.61869C12.9563 6.61869 14.8031 8.46556 14.8031 10.7437C14.8031 13.0124 12.9563 14.8687 10.6781 14.8687ZM40.9031 40.9031H33.7875V29.7656C33.7875 27.1124 33.7406 23.6906 30.0844 23.6906C26.3812 23.6906 25.8187 26.5874 25.8187 29.5781V40.9031H18.7125V17.9906H25.5375V21.1218H25.6312C26.5781 19.3218 28.9031 17.4187 32.3625 17.4187C39.5719 17.4187 40.9031 22.1624 40.9031 28.3312V40.9031Z" fill="url(#paint0_linear_12_118)"/>
<defs>
<linearGradient id="paint0_linear_12_118" x1="-59.5" y1="24" x2="206.773" y2="174.19" gradientUnits="userSpaceOnUse">
<stop stop-color="#FFF4DA"/>
<stop offset="0.0001" stop-color="#FFECBE"/>
<stop offset="0.348958" stop-color="#FEBBB7"/>
<stop offset="0.640625" stop-color="#E989DA"/>
<stop offset="1" stop-color="#8DB6FC"/>
</linearGradient>
</defs>
</svg>
