<svg width="74" height="50" viewBox="0 0 74 50" fill="none" xmlns="http://www.w3.org/2000/svg">
<path d="M71.9344 8.59375C71.2503 5.15747 67.9909 2.65503 64.2084 1.87378C58.5481 0.78125 48.0725 0 36.7384 0C25.4111 0 14.7678 0.78125 9.10078 1.87378C5.325 2.65503 2.05891 4.99878 1.37484 8.59375C0.684068 12.5 0 17.9688 0 25C0 32.0313 0.684068 37.5 1.54251 41.4062C2.23328 44.8425 5.49266 47.345 9.26845 48.1262C15.2775 49.2188 25.5788 50 36.9128 50C48.2469 50 58.5481 49.2188 64.5572 48.1262C68.333 47.345 71.5923 45.0012 72.2831 41.4062C72.9672 37.5 73.8256 31.8726 74 25C73.6513 17.9688 72.7928 12.5 71.9344 8.59375ZM27.47 35.9375V14.0625L48.4145 25L27.47 35.9375Z" fill="url(#paint0_linear_1501_250)"/>
<defs>
<linearGradient id="paint0_linear_1501_250" x1="-40.8658" y1="-1.5625" x2="74.2119" y2="15.789" gradientUnits="userSpaceOnUse">
<stop stop-color="#FFF4DA"/>
<stop offset="0.0001" stop-color="#FFECBE"/>
<stop offset="0.348958" stop-color="#FEBBB7"/>
<stop offset="0.640625" stop-color="#E989DA"/>
<stop offset="1" stop-color="#8DB6FC"/>
</linearGradient>
</defs>
</svg>
