<svg xmlns="http://www.w3.org/2000/svg" width="154" height="132" fill="none" viewBox="0 0 154 132"><path fill="#DF614A" stroke="#222" stroke-linecap="round" stroke-linejoin="round" stroke-width="5" d="M135.143 58.0051H102.43V79.3014H135.143V58.0051Z"/><path fill="#FE5139" d="M88.2302 100.91C88.2302 100.91 58.9789 127.416 56.3154 128.565C53.6519 129.713 33.7051 125.41 31.6986 122.841C29.6921 120.272 26.0105 87.7182 27.1884 85.4098C28.3663 83.1014 63.5956 71.8673 63.5956 71.8673L23.199 72.7315C23.199 72.7315 3.99217 62.9534 3.09249 61.5329C2.19282 60.1124 8.11173 44.7646 9.78679 42.7463C11.4618 40.7279 35.7531 28.8901 37.5051 29.2216C39.263 29.553 62.2994 47.9431 62.2994 47.9431C62.2994 47.9431 43.5187 23.421 43.2287 21.6809C42.9386 19.9407 54.1905 5.34465 54.9718 4.95992C55.7472 4.57519 62.1218 5.30322 66.5373 4.95992C70.9529 4.61663 75.4276 2.95933 76.1437 3.00076C77.6708 3.09547 97.3157 14.8149 97.6708 15.6317C98.026 16.4426 95.7117 27.5524 95.7117 27.5524C95.7117 27.5524 101.927 13.4832 102.826 13.1458C103.726 12.8084 128.952 14.8268 130.758 15.2825C132.563 15.7383 146.082 28.5527 146.413 29.5116C146.739 30.4704 136.274 60.1064 136.274 60.1064C136.274 60.1064 151.462 86.8007 151.462 88.3397C151.462 89.8786 140.305 110.145 137.517 110.713C134.729 111.281 97.6708 106.42 97.6708 106.42L87.1254 87.331"/><path stroke="#222" stroke-linecap="round" stroke-linejoin="round" stroke-width="5" d="M136.274 60.1064C136.274 60.1064 146.739 30.4704 146.413 29.5116C146.082 28.5527 132.563 15.7383 130.758 15.2825C128.952 14.8268 103.726 12.8084 102.826 13.1458C101.927 13.4832 95.7117 27.5524 95.7117 27.5524C95.7117 27.5524 98.026 16.4426 97.6708 15.6317C97.3157 14.8149 77.6708 3.09547 76.1437 3.00076C75.4276 2.95933 70.9528 4.61663 66.5373 4.95992C62.1218 5.30322 55.7472 4.57519 54.9718 4.95992C54.1905 5.34465 42.9386 19.9407 43.2287 21.6809C43.5187 23.421 62.2994 47.9431 62.2994 47.9431C62.2994 47.9431 39.263 29.553 37.5051 29.2216C35.7531 28.8901 11.4618 40.7279 9.78679 42.7463C8.11173 44.7646 2.19282 60.1124 3.09249 61.5329C3.99217 62.9534 23.199 72.7315 23.199 72.7315L63.5956 71.8673C63.5956 71.8673 28.3663 83.1014 27.1884 85.4098C26.0105 87.7182 29.6921 120.272 31.6986 122.841C33.7051 125.41 53.6519 129.713 56.3154 128.565C58.9789 127.416 88.2302 100.91 88.2302 100.91L87.1253 87.331L97.6708 106.42C97.6708 106.42 134.729 111.281 137.517 110.713C140.305 110.145 151.462 89.8786 151.462 88.3397C151.462 86.8007 136.274 60.1064 136.274 60.1064ZM136.274 60.1064L116.351 61.527"/><path fill="#AF3322" fill-opacity=".6" d="M85.6575 79.131L86.3306 88.2171C86.3353 88.2813 86.3558 88.3434 86.3902 88.3979L97.6522 106.262C97.7153 106.362 97.8201 106.428 97.9375 106.443L120.335 109.178C120.796 109.235 120.957 108.586 120.523 108.42L101.999 101.347C101.924 101.319 101.86 101.268 101.815 101.203L86.3738 78.878C86.1456 78.5481 85.6279 78.731 85.6575 79.131Z"/><path fill="#AF3322" fill-opacity=".6" d="M89.4778 45.3537L96.5466 27.7639C96.5631 27.7231 96.5725 27.6798 96.5746 27.6358L97.151 15.5314C97.1577 15.3908 97.0888 15.2573 96.9703 15.1814L90.4834 11.0231C90.1647 10.8188 89.7695 11.1382 89.9025 11.4927L92.9918 19.731C93.0163 19.7961 93.023 19.8666 93.0113 19.9352L88.7246 45.141C88.6456 45.6058 89.302 45.7913 89.4778 45.3537Z"/><path fill="#AF3322" fill-opacity=".6" d="M63.0009 47.5022L71.1327 59.5861C71.3781 59.9508 70.9319 60.3823 70.5756 60.1249L47.7664 43.6424L35.762 29.6699H37.7299L62.8006 47.2977C62.8793 47.3531 62.9472 47.4224 63.0009 47.5022Z"/><path fill="#AF3322" fill-opacity=".6" d="M136.352 60.9865L100.498 63.5475C100.054 63.5792 99.9066 62.9667 100.316 62.7927L115.183 56.4699C115.238 56.4463 115.298 56.4358 115.358 56.4391L136.346 57.5944C136.554 57.6059 136.718 57.7784 136.718 57.9874V60.5939C136.718 60.8004 136.558 60.9718 136.352 60.9865Z"/><path fill="#AF3322" fill-opacity=".6" d="M73.3627 70.6741L63.5784 70.9949C63.5331 70.9963 63.4884 71.0057 63.4462 71.0224L27.5481 85.2646C27.3982 85.3241 27.2997 85.4691 27.2997 85.6304V89.299V96.1499C27.2997 96.51 27.7433 96.681 27.985 96.4141L36.6867 86.806C36.7256 86.763 36.7736 86.7291 36.8272 86.7068L73.5269 71.4308C73.9308 71.2627 73.8 70.6597 73.3627 70.6741Z"/><path stroke="#222" stroke-linecap="round" stroke-linejoin="round" stroke-width="5" d="M136.274 60.1064C136.274 60.1064 146.739 30.4704 146.413 29.5116C146.082 28.5527 132.563 15.7383 130.758 15.2825C128.952 14.8268 103.726 12.8084 102.826 13.1458C101.927 13.4832 95.7117 27.5524 95.7117 27.5524C95.7117 27.5524 98.026 16.4426 97.6708 15.6317C97.3157 14.8149 77.6708 3.09547 76.1437 3.00076C75.4276 2.95933 70.9528 4.61663 66.5373 4.95992C62.1218 5.30322 55.7472 4.57519 54.9718 4.95992C54.1905 5.34465 42.9386 19.9407 43.2287 21.6809C43.5187 23.421 62.2994 47.9431 62.2994 47.9431C62.2994 47.9431 39.263 29.553 37.5051 29.2216C35.7531 28.8901 11.4618 40.7279 9.78679 42.7463C8.11173 44.7646 2.19282 60.1124 3.09249 61.5329C3.99217 62.9534 23.199 72.7315 23.199 72.7315L63.5956 71.8673C63.5956 71.8673 28.3663 83.1014 27.1884 85.4098C26.0105 87.7182 29.6921 120.272 31.6986 122.841C33.7051 125.41 53.6519 129.713 56.3154 128.565C58.9789 127.416 88.2302 100.91 88.2302 100.91L87.1253 87.331L97.6708 106.42C97.6708 106.42 134.729 111.281 137.517 110.713C140.305 110.145 151.462 89.8786 151.462 88.3397C151.462 86.8007 136.274 60.1064 136.274 60.1064ZM136.274 60.1064L116.351 61.527"/><path fill="#FFD13C" stroke="#222" stroke-linecap="round" stroke-linejoin="round" stroke-width="5" d="M74.4748 54.1399L78.476 66.8478C78.476 66.8478 79.3283 67.3391 80.6068 66.8478C81.8853 66.3565 81.8853 64.9242 81.8853 64.9242C81.8853 64.9242 78.7127 56.2707 78.18 54.1399C77.6473 52.0091 74.4748 54.1399 74.4748 54.1399Z"/><path fill="#FFD13C" stroke="#222" stroke-linecap="round" stroke-linejoin="round" stroke-width="5" d="M81.4352 41.3235C81.4352 37.8952 78.656 35.116 75.2277 35.116C71.7993 35.116 69.0201 37.8952 69.0201 41.3235V46.8501C69.0201 50.2784 71.7993 53.0576 75.2277 53.0576C78.656 53.0576 81.4352 50.2784 81.4352 46.8501V41.3235Z"/><path fill="#AE8C1D" d="M76.0161 37.0468C76.1519 36.863 77.1209 37.2353 77.8635 37.856C79.0316 38.8214 79.4029 40.1822 79.5705 40.835C79.7516 41.5292 79.7516 42.3889 79.7561 44.0808C79.7561 45.8324 79.7561 46.7196 79.5705 47.4C79.3848 48.108 78.9139 49.8734 77.6507 50.4757C77.3247 50.632 76.3421 50.9998 76.3421 50.9998C77.465 48.3149 77.5963 47.8828 77.5963 47.8828C78.108 46.2047 78.0944 44.7934 78.0853 43.9291C78.0717 43.1061 78.0491 41.5798 77.4741 40.0121C77.0303 38.7984 76.6228 38.1272 76.6228 38.1272C76.2289 37.4744 75.9256 37.1664 76.0161 37.0514V37.0468Z"/><path stroke="#222" stroke-linecap="round" stroke-linejoin="round" stroke-width="5" d="M81.4352 41.3235C81.4352 37.8952 78.656 35.116 75.2277 35.116C71.7993 35.116 69.0201 37.8952 69.0201 41.3235V46.8501C69.0201 50.2784 71.7993 53.0576 75.2277 53.0576C78.656 53.0576 81.4352 50.2784 81.4352 46.8501V41.3235Z"/></svg>