<svg xmlns="http://www.w3.org/2000/svg" width="110" height="93" fill="none" viewBox="0 0 110 93"><path fill="url(#paint0_linear_506_277)" fill-rule="evenodd" d="M63.5148 4.72014C63.1865 4.41644 62.7698 4.2254 62.3254 4.17477L58.5745 3.74745L64.5695 15.0326L74.5462 14.9236L63.5148 4.72014ZM75.2263 16.3505L64.716 16.4653L59.583 39.2748L71.0983 25.2299L75.2263 16.3505ZM74.7243 20.8324L77.2269 15.4494L64.4887 3.66724C63.9363 3.15632 63.2354 2.83491 62.4878 2.74975L57.3687 2.16657L55.1329 2.00388L50.0492 0.771712C48.9867 0.514194 47.8648 0.762584 47.0103 1.44454L35.6804 10.4869L43.5054 29.3616L31.2945 15.1593L8.18061 19.9288C7.20722 20.1296 6.36329 20.7308 5.85546 21.5852L4.53606 23.8049L2.82827 26.5317L0.923825 28.8898C-0.247598 30.3402 -0.0916946 32.4509 1.28011 33.7135L14.0342 45.4522L38.3758 49.9254L13.1878 54.3835L9.62734 79.7384C9.44184 81.0594 10.0155 82.3724 11.1107 83.1338L16.321 86.7558L18.6414 88.209L24.9981 91.1302C25.9908 91.5863 27.1385 91.5581 28.1075 91.0537L55.9746 76.5475L57.043 69.6232L60.725 83.0194L86.9815 91.976C88.1635 92.3792 89.4705 92.1291 90.4201 91.3179L94.9633 87.4368L97.09 85.1167L97.096 85.1103L101.845 80.056C102.792 79.0483 103.065 77.5811 102.543 76.3005L92.3968 51.3946L98.9129 52.0214L108.426 38.1756C109.215 37.0269 109.256 35.5218 108.53 34.332L106.311 30.6922L104.945 28.0746L102.969 23.7062C102.59 22.8675 101.899 22.2097 101.043 21.8726L80.5262 13.797L74.7243 20.8324ZM103.182 27.6582L101.663 24.2971C101.437 23.7986 101.026 23.4076 100.517 23.2072L82.0461 15.9366L86.7539 27.4649L103.182 27.6582ZM85.9634 29.2188L58.2083 46.778L59.958 46.9414L88.2995 34.2476L85.9634 29.2188ZM88.9284 35.5375L62.8613 47.2125L66.6915 47.5703L91.5011 40.5566L88.9284 35.5375ZM93.4798 41.1952L98.6086 49.9316L107.244 37.3634C107.713 36.6806 107.737 35.786 107.306 35.0787L105.487 32.0959L93.4798 41.1952ZM104.77 30.8397L103.862 29.1006L87.3999 28.9068L89.9007 34.2902L92.7868 39.9207L104.77 30.8397ZM97.2315 50.4188L92.2007 41.8493L70.6629 47.938L91.3528 49.8533L91.3541 49.8535L97.2315 50.4188ZM58.2877 45.0305L85.3789 27.8914L80.5379 16.037L72.2636 26.0707L58.8814 42.3927L58.2877 45.0305ZM57.5102 48.4859L57.4036 48.9595L79.6335 68.163L84.6505 63.7918L57.5102 48.4859ZM85.5328 62.6428L90.2524 51.1918L60.3025 48.414L85.5328 62.6428ZM91.2816 52.4586L86.6756 63.6341L96.7432 83.3913L100.8 79.0739C101.363 78.4749 101.525 77.6028 101.215 76.8416L91.2816 52.4586ZM95.7025 84.5079L85.6651 64.8101L80.1066 69.653L74.9538 74.1573L94.3344 86.0003L95.7025 84.5079ZM93.247 87.0166L73.7615 75.1095L62.9311 82.2565L87.4446 90.6186C88.1472 90.8582 88.9241 90.7095 89.4885 90.2274L93.247 87.0166ZM61.7455 81.3205L57.5786 66.1602L59.0793 56.9531L72.698 74.0929L61.7455 81.3205ZM73.8406 73.2255L55.9828 50.7505L56.6194 50.1773L78.5422 69.1155L73.8406 73.2255ZM55.9601 48.841L63.2702 16.3574L58.2532 15.66L55.8456 48.9442L55.9601 48.841ZM54.818 43.2697L56.8279 15.4846L51.3438 14.9053L54.818 43.2697ZM51.5362 13.4834L55.495 3.46826L56.8547 3.5672L62.8489 14.8508L57.6802 14.1324L51.5362 13.4834ZM54.0518 3.21761L49.7113 2.1656C49.0798 2.01252 48.4129 2.16017 47.905 2.56553L38.1405 10.3585L50.0849 13.2535L54.0518 3.21761ZM37.7526 11.7402L49.8709 14.6774L54.1024 49.2244L52.9918 48.4987L37.7526 11.7402ZM50.1737 45.4461L48.8033 42.1406L26.2872 26.7988L24.3894 30.2767L50.1737 45.4461ZM22.8016 30.1925L24.8754 26.3917L5.52605 24.9263L4.42092 26.6908L19.9114 35.3564L22.7978 30.1992L22.8016 30.1925ZM20.4549 37.2078L15.586 44.2791L42.5137 49.2276L50.1665 49.9373L52.2463 49.7248L52.0837 49.6185L20.4549 37.2078ZM53.2283 51.0662L50.3857 51.3566L27.3145 63.8795L32.0788 66.3595L53.2283 51.0662ZM33.502 67.1003L39.8472 70.4031L54.7692 51.7218L33.502 67.1003ZM55.7616 52.7776L41.2544 70.9394L54.7396 75.1464L56.1374 66.087L56.1379 66.084L57.8734 55.4355L55.7616 52.7776ZM53.4479 76.2459L40.1823 72.1074L20.359 87.4199L25.597 89.827C26.187 90.0981 26.8693 90.0813 27.4453 89.7815L53.4479 76.2459ZM18.94 86.7037L38.7133 71.4298L26.1539 64.8924L17.6078 85.8694L18.94 86.7037ZM16.3901 85.057L24.9131 64.1368L14.3676 56.2956L11.0476 79.9379C10.9374 80.7231 11.2783 81.5035 11.9294 81.9561L16.3901 85.057ZM15.5875 55.4153L25.8472 63.0441L47.7528 51.1539L42.4455 50.6616L15.5875 55.4153ZM14.2453 43.6972L19.15 36.5739L3.59101 27.87L2.03961 29.7909C1.3433 30.6531 1.43597 31.9077 2.25139 32.6582L14.2453 43.6972ZM21.2143 35.9651L51.1057 47.6941L51.0861 47.6469L23.6953 31.5324L21.2143 35.9651ZM6.3556 23.5508L25.6142 25.0093L29.7113 16.9505L8.47045 21.3334C7.89185 21.4528 7.39021 21.8102 7.08835 22.318L6.3556 23.5508ZM31.1801 17.2262L26.962 25.5231L47.8006 39.7219L45.2667 33.6101L31.1801 17.2262Z" clip-rule="evenodd"/><defs><linearGradient id="paint0_linear_506_277" x1="-48.841" x2="115.345" y1="-27.31" y2="33.821" gradientUnits="userSpaceOnUse"><stop stop-color="#FFF4DA"/><stop offset="0" stop-color="#FFECBE"/><stop offset=".349" stop-color="#FEBBB7"/><stop offset=".641" stop-color="#E989DA"/><stop offset="1" stop-color="#8DB6FC"/></linearGradient></defs></svg>