<svg width="500" height="172" viewBox="0 0 500 172" fill="none" xmlns="http://www.w3.org/2000/svg">
<g clip-path="url(#clip0_306_2)">
<mask id="mask0_306_2" style="mask-type:luminance" maskUnits="userSpaceOnUse" x="0" y="0" width="500" height="172">
<path d="M500 0H0V171.72H500V0Z" fill="white"/>
</mask>
<g mask="url(#mask0_306_2)">
<path d="M240.06 116.77L243.51 116.42L243.74 123.42C236.072 124.576 228.334 125.211 220.58 125.32C212.027 125.32 205.97 122.843 202.41 117.89C198.85 112.937 197.067 105.237 197.06 94.7904C197.06 73.9704 205.337 63.557 221.89 63.5503C229.89 63.5503 235.867 65.787 239.82 70.2604C243.773 74.7337 245.753 81.7637 245.76 91.3503L245.29 98.1204H206.09C206.09 104.693 207.277 109.563 209.65 112.73C212.023 115.897 216.163 117.48 222.07 117.48C227.963 117.487 233.96 117.25 240.06 116.77ZM236.85 91.0003C236.85 83.7203 235.683 78.5737 233.35 75.5603C231.017 72.547 227.233 71.0437 222 71.0504C216.733 71.0504 212.773 72.6337 210.12 75.8004C207.467 78.967 206.093 84.0337 206 91.0003H236.85Z" fill="white"/>
<path d="M258.18 124.87V46.6104H267.09V124.87H258.18Z" fill="white"/>
<path d="M323.19 82.6901V112.69C323.19 115.69 330.59 115.54 330.59 115.54L330.13 123.41C323.87 123.41 318.69 123.93 315.58 120.92C308.855 123.91 301.569 125.431 294.21 125.38C288.75 125.38 284.593 123.833 281.74 120.74C278.887 117.647 277.46 113.213 277.46 107.44C277.46 101.66 278.927 97.4034 281.86 94.6701C284.793 91.9367 289.387 90.2701 295.64 89.6701L314.28 87.8801V82.7801C314.28 78.7401 313.41 75.8501 311.67 74.1101C310.722 73.2118 309.601 72.5162 308.375 72.0657C307.149 71.6152 305.844 71.4194 304.54 71.4901H281.14V63.5601H304C310.733 63.5601 315.623 65.1067 318.67 68.2001C321.717 71.2934 323.223 76.1234 323.19 82.6901ZM286.61 106.92C286.61 114.2 289.61 117.84 295.61 117.84C301.029 117.835 306.409 116.912 311.52 115.11L314.25 114.11V94.5601L296.7 96.2301C293.14 96.5434 290.567 97.5701 288.98 99.3101C287.4 101.06 286.61 103.59 286.61 106.92Z" fill="white"/>
<path d="M358 71.5201C349.373 71.5201 345.057 74.5201 345.05 80.5201C345.05 83.2867 346.05 85.2467 348.05 86.4001C350.05 87.5534 354.54 88.7534 361.52 90.0001C368.573 91.2334 373.573 92.9567 376.52 95.1701C379.467 97.3834 380.93 101.54 380.91 107.64C380.91 113.74 378.953 118.213 375.04 121.06C371.127 123.907 365.403 125.333 357.87 125.34C352.96 125.34 336.58 123.52 336.58 123.52L337.05 115.8C346.47 116.71 353.28 117.38 357.87 117.38C362.46 117.38 365.97 116.65 368.38 115.18C370.79 113.71 372.01 111.26 372.01 107.82C372.01 104.38 371.01 102.04 368.92 100.82C366.83 99.6001 362.34 98.4301 355.38 97.3201C348.42 96.2101 343.46 94.5801 340.53 92.4501C337.6 90.3201 336.14 86.3501 336.14 80.5701C336.14 74.7901 338.14 70.5101 342.25 67.7401C346.36 64.9701 351.42 63.5801 357.52 63.5801C362.34 63.5801 379.1 64.8101 379.1 64.8101V72.5801C370.26 72.1601 363 71.5201 358 71.5201Z" fill="white"/>
<path d="M423.85 72.4701H405V100.86C405 107.673 405.497 112.147 406.49 114.28C407.49 116.42 409.83 117.49 413.56 117.49L424.13 116.77L424.72 124.14C420.722 124.878 416.674 125.316 412.61 125.45C406.43 125.45 402.153 123.943 399.78 120.93C397.407 117.917 396.217 112.177 396.21 103.71V72.4701H387.78V64.7501H396.21V46.5801H405V64.7501H423.89L423.85 72.4701Z" fill="white"/>
<path d="M436.23 57.1601V46.8301H445.14V57.1601H436.23ZM436.23 124.87V64.7501H445.14V124.87H436.23Z" fill="white"/>
<path d="M483.73 63.5601C488.18 63.7526 492.612 64.2336 497 65.0001L499.85 65.3501L499.49 72.6001C494.844 72.0095 490.172 71.6523 485.49 71.5301C478.757 71.5301 474.183 73.1334 471.77 76.3401C469.357 79.5467 468.15 85.4867 468.15 94.1601C468.15 102.827 469.277 108.863 471.53 112.27C473.783 115.677 478.477 117.38 485.61 117.38L499.61 116.31L499.97 123.67C494.511 124.6 488.995 125.158 483.46 125.34C474.2 125.34 467.807 122.963 464.28 118.21C460.753 113.457 458.99 105.457 458.99 94.2101C458.99 82.9167 460.89 74.9967 464.69 70.4501C468.49 65.9034 474.837 63.6067 483.73 63.5601Z" fill="white"/>
<path d="M172.39 90.0002C172.408 83.0098 170.267 76.1846 166.259 70.457C162.252 64.7294 156.573 60.379 150 58.0002C150.598 54.9497 150.899 51.8486 150.9 48.7402C150.924 38.4279 147.673 28.3743 141.616 20.0284C135.559 11.6824 127.009 5.47505 117.197 2.3009C107.386 -0.87324 96.8195 -0.850246 87.0218 2.36657C77.2241 5.5834 68.7007 11.8279 62.6801 20.2002C58.2374 16.7576 52.7937 14.8567 47.1737 14.7856C41.5537 14.7145 36.0637 16.4769 31.5353 19.806C27.0069 23.135 23.6868 27.8493 22.0781 33.2346C20.4694 38.6199 20.6597 44.3827 22.6201 49.6502C16.021 52.0537 10.316 56.4201 6.27221 62.1623C2.22838 67.9045 0.0395774 74.7471 9.30523e-05 81.7702C-0.0163303 88.7918 2.14161 95.6463 6.17751 101.392C10.2134 107.138 15.9293 111.493 22.5401 113.86C21.9555 116.912 21.6575 120.012 21.6501 123.12C21.6542 133.396 24.9179 143.405 30.9715 151.708C37.0252 160.012 45.5568 166.18 55.3387 169.327C65.1207 172.474 75.6488 172.437 85.4082 169.221C95.1677 166.005 103.655 159.776 109.65 151.43C114.079 154.89 119.516 156.811 125.136 156.899C130.756 156.987 136.251 155.238 140.786 151.918C145.321 148.598 148.649 143.889 150.263 138.505C151.878 133.121 151.69 127.358 149.73 122.09C156.332 119.695 162.042 115.336 166.093 109.599C170.144 103.862 172.341 97.0229 172.39 90.0002ZM66.7401 25.3902C72.2861 17.3079 80.4524 11.3883 89.8589 8.63184C99.2654 5.87537 109.335 6.45112 118.366 10.2617C127.397 14.0724 134.836 20.8842 139.424 29.5459C144.013 38.2077 145.47 48.188 143.55 57.8002L105.5 91.1502L67.7701 74.0002L60.4101 58.2302L66.7401 25.3902ZM47.6301 21.1602C52.0991 21.1563 56.4455 22.6215 60.0001 25.3302L54.3401 54.7202L28.4901 48.6202C27.3695 45.536 27.0069 42.2277 27.4326 38.9741C27.8583 35.7204 29.06 32.6168 30.9364 29.9248C32.8127 27.2328 35.3087 25.0314 38.214 23.506C41.1193 21.9807 44.3487 21.1761 47.6301 21.1602ZM6.63009 81.8502C6.67458 75.8569 8.58907 70.027 12.1064 65.1741C15.6237 60.3213 20.5683 56.6876 26.2501 54.7802L54.6201 61.4802L61.2801 75.7102L25.0001 108.49C19.6056 106.429 14.9644 102.779 11.6911 98.0215C8.41775 93.2642 6.66679 87.6248 6.67009 81.8502H6.63009ZM105.78 146.37C100.651 153.914 93.2384 159.614 84.6307 162.635C76.0229 165.655 66.6736 165.835 57.9556 163.15C49.2375 160.465 41.6101 155.055 36.1933 147.715C30.7766 140.376 27.8559 131.492 27.8601 122.37C27.8569 119.52 28.1349 116.676 28.6901 113.88L65.8401 80.3602L103.71 97.6202L112.1 113.62L105.78 146.37ZM124.72 150.58C120.265 150.569 115.939 149.089 112.41 146.37L118.03 117.08L143.86 123.08C144.981 126.164 145.343 129.473 144.918 132.726C144.492 135.98 143.29 139.083 141.414 141.775C139.537 144.467 137.041 146.669 134.136 148.194C131.231 149.72 128.001 150.524 124.72 150.54V150.58ZM146.14 117L117.7 110.35L110.15 95.9202L147.34 63.3002C152.739 65.342 157.389 68.9783 160.672 73.726C163.955 78.4736 165.716 84.1079 165.72 89.8802C165.69 95.8775 163.787 101.715 160.276 106.578C156.766 111.441 151.823 115.084 146.14 117Z" fill="white"/>
</g>
</g>
<defs>
<clipPath id="clip0_306_2">
<rect width="500" height="172" fill="white"/>
</clipPath>
</defs>
</svg>
