<svg xmlns="http://www.w3.org/2000/svg" width="48" height="48" fill="none" viewBox="0 0 48 48"><path fill="#F4F4F4" d="M24 4.32187C30.4125 4.32187 31.1719 4.35 33.6937 4.4625C36.0375 4.56562 37.3031 4.95938 38.1469 5.2875C39.2625 5.71875 40.0687 6.24375 40.9031 7.07812C41.7469 7.92188 42.2625 8.71875 42.6937 9.83438C43.0219 10.6781 43.4156 11.9531 43.5187 14.2875C43.6312 16.8187 43.6593 17.5781 43.6593 23.9813C43.6593 30.3938 43.6312 31.1531 43.5187 33.675C43.4156 36.0188 43.0219 37.2844 42.6937 38.1281C42.2625 39.2438 41.7375 40.05 40.9031 40.8844C40.0594 41.7281 39.2625 42.2438 38.1469 42.675C37.3031 43.0031 36.0281 43.3969 33.6937 43.5C31.1625 43.6125 30.4031 43.6406 24 43.6406C17.5875 43.6406 16.8281 43.6125 14.3062 43.5C11.9625 43.3969 10.6969 43.0031 9.85312 42.675C8.73749 42.2438 7.93124 41.7188 7.09686 40.8844C6.25311 40.0406 5.73749 39.2438 5.30624 38.1281C4.97812 37.2844 4.58437 36.0094 4.48125 33.675C4.36875 31.1438 4.34062 30.3844 4.34062 23.9813C4.34062 17.5688 4.36875 16.8094 4.48125 14.2875C4.58437 11.9437 4.97812 10.6781 5.30624 9.83438C5.73749 8.71875 6.26249 7.9125 7.09686 7.07812C7.94061 6.23438 8.73749 5.71875 9.85312 5.2875C10.6969 4.95938 11.9719 4.56562 14.3062 4.4625C16.8281 4.35 17.5875 4.32187 24 4.32187ZM24 0C17.4844 0 16.6687 0.028125 14.1094 0.140625C11.5594 0.253125 9.80626 0.665625 8.28751 1.25625C6.70313 1.875 5.3625 2.69062 4.03125 4.03125C2.69062 5.3625 1.87501 6.70313 1.25626 8.27813C0.665631 9.80625 0.253125 11.55 0.140625 14.1C0.028125 16.6687 0 17.4844 0 24C0 30.5156 0.028125 31.3313 0.140625 33.8906C0.253125 36.4406 0.665631 38.1938 1.25626 39.7125C1.87501 41.2969 2.69062 42.6375 4.03125 43.9688C5.3625 45.3 6.70314 46.125 8.27814 46.7344C9.80626 47.325 11.55 47.7375 14.1 47.85C16.6594 47.9625 17.475 47.9906 23.9906 47.9906C30.5062 47.9906 31.3219 47.9625 33.8812 47.85C36.4312 47.7375 38.1844 47.325 39.7031 46.7344C41.2781 46.125 42.6187 45.3 43.95 43.9688C45.2812 42.6375 46.1062 41.2969 46.7156 39.7219C47.3062 38.1938 47.7187 36.45 47.8312 33.9C47.9437 31.3406 47.9718 30.525 47.9718 24.0094C47.9718 17.4938 47.9437 16.6781 47.8312 14.1188C47.7187 11.5688 47.3062 9.81563 46.7156 8.29688C46.125 6.70312 45.3094 5.3625 43.9687 4.03125C42.6375 2.7 41.2968 1.875 39.7218 1.26562C38.1937 0.675 36.45 0.2625 33.9 0.15C31.3312 0.028125 30.5156 0 24 0Z"/><path fill="#F4F4F4" d="M24 11.6719C17.1937 11.6719 11.6719 17.1938 11.6719 24C11.6719 30.8062 17.1937 36.3281 24 36.3281C30.8062 36.3281 36.3281 30.8062 36.3281 24C36.3281 17.1938 30.8062 11.6719 24 11.6719ZM24 31.9969C19.5844 31.9969 16.0031 28.4156 16.0031 24C16.0031 19.5844 19.5844 16.0031 24 16.0031C28.4156 16.0031 31.9969 19.5844 31.9969 24C31.9969 28.4156 28.4156 31.9969 24 31.9969Z"/><path fill="#F4F4F4" d="M39.6937 11.1843C39.6937 12.778 38.4 14.0624 36.8156 14.0624C35.2218 14.0624 33.9375 12.7687 33.9375 11.1843C33.9375 9.59054 35.2312 8.30616 36.8156 8.30616C38.4 8.30616 39.6937 9.59991 39.6937 11.1843Z"/></svg>