<svg width="44" height="36" viewBox="0 0 44 36" fill="none" xmlns="http://www.w3.org/2000/svg">
<path fill-rule="evenodd" clip-rule="evenodd" d="M6.00019 4C5.22427 4 4.54412 4.45385 4.21336 5.1079C4.07716 5.37723 4.00019 5.68049 4.00019 6V9.84132V30C4.00019 31.0954 4.90476 32 6.00019 32H38.0002C39.0956 32 40.0002 31.0954 40.0002 30V9.8413V6C40.0002 5.68049 39.9232 5.37722 39.787 5.10789C39.4563 4.45384 38.7761 4 38.0002 4H6.00019ZM0.00019415 6C0.00019415 2.69543 2.69562 0 6.00019 0H38.0002C41.3048 0 44.0002 2.69543 44.0002 6V30C44.0002 33.3046 41.3048 36 38.0002 36H6.00019C2.69562 36 0.00019415 33.3046 0.00019415 30V6Z" fill="#F4F4F4"/>
<path d="M4.21336 5.1079C4.07716 5.37723 4.00019 5.68049 4.00019 6V9.84132L20.8532 21.6385C21.5419 22.1205 22.4585 22.1205 23.1471 21.6385L40.0002 9.8413V6C40.0002 5.68049 39.9232 5.37722 39.787 5.10789L22.0002 17.5587L4.21336 5.1079Z" fill="#F4F4F4"/>
</svg>
