<svg xmlns="http://www.w3.org/2000/svg" width="48" height="40" fill="none" viewBox="0 0 48 40"><path fill="#F4F4F4" d="M15.1003 39.5C33.2091 39.5 43.1166 24.4934 43.1166 11.4837C43.1166 11.0618 43.1072 10.6306 43.0884 10.2087C45.0158 8.81492 46.679 7.08851 48 5.1106C46.205 5.9092 44.2993 6.43076 42.3478 6.65747C44.4026 5.42582 45.9411 3.49094 46.6781 1.21153C44.7451 2.35712 42.6312 3.16522 40.4269 3.60122C38.9417 2.02312 36.978 0.978233 34.8394 0.628102C32.7008 0.277971 30.5064 0.642101 28.5955 1.66419C26.6846 2.68629 25.1636 4.30941 24.2677 6.28262C23.3718 8.25584 23.1509 10.4692 23.6391 12.5806C19.725 12.3842 15.8959 11.3674 12.4 9.5962C8.90405 7.82499 5.81939 5.33887 3.34594 2.29903C2.0888 4.46649 1.70412 7.03129 2.27007 9.47218C2.83601 11.9131 4.31013 14.0469 6.39281 15.44C4.82926 15.3903 3.29995 14.9694 1.93125 14.2118V14.3337C1.92985 16.6083 2.71619 18.8132 4.15662 20.5735C5.59704 22.3339 7.60264 23.5411 9.8325 23.99C8.38411 24.3863 6.86396 24.444 5.38969 24.1587C6.01891 26.1149 7.24315 27.8258 8.89154 29.0527C10.5399 30.2796 12.5302 30.9612 14.5847 31.0025C11.0968 33.7422 6.78835 35.2283 2.35313 35.2212C1.56658 35.22 0.780798 35.1718 0 35.0768C4.50571 37.9675 9.74706 39.5028 15.1003 39.5Z"/></svg>